<svg xmlns="http://www.w3.org/2000/svg" xmlns:xlink="http://www.w3.org/1999/xlink" width="537.203" height="423.156" viewBox="0 0 537.203 423.156"><defs><style>.a,.g{fill:#ffbaad;}.a{opacity:0.18;isolation:isolate;}.b{fill:#ffbbab;}.c,.o{fill:#fff;}.d{fill:#020202;opacity:0.1;}.e{fill:#fc682d;}.f{fill:#e0a194;}.h{fill:url(#a);}.i{fill:url(#b);}.j{fill:url(#c);}.k{fill:url(#d);}.l{fill:url(#e);}.m{fill:#473f47;}.n{opacity:0.36;fill:url(#f);}.o{opacity:0.28;}.p{fill:url(#g);}.q{fill:url(#h);}.r{fill:url(#i);}.s{fill:url(#j);}.t{fill:url(#k);}.u{fill:url(#l);}</style><linearGradient id="a" x1="0.386" y1="1.428" x2="0.521" y2="-0.135" gradientUnits="objectBoundingBox"><stop offset="0.01"/><stop offset="0.08" stop-opacity="0.69"/><stop offset="0.21" stop-opacity="0.322"/><stop offset="1" stop-opacity="0"/></linearGradient><linearGradient id="b" x1="-0.37" y1="1.814" x2="1.827" y2="-1.489" xlink:href="#a"/><linearGradient id="c" x1="-11.276" y1="14.024" x2="-13.08" y2="12.888" xlink:href="#a"/><linearGradient id="d" x1="-0.488" y1="0.313" x2="1.641" y2="0.696" gradientUnits="objectBoundingBox"><stop offset="0.01"/><stop offset="0.13" stop-opacity="0.69"/><stop offset="0.25" stop-opacity="0.322"/><stop offset="1" stop-opacity="0"/></linearGradient><linearGradient id="e" x1="0.634" y1="-0.911" x2="0.326" y2="2.874" xlink:href="#d"/><linearGradient id="f" x1="-0.149" y1="-0.353" x2="1.528" y2="2.655" xlink:href="#a"/><linearGradient id="g" x1="-2.096" y1="0.698" x2="3" y2="0.309" xlink:href="#d"/><linearGradient id="h" x1="3.149" y1="0.647" x2="-3.624" y2="0.284" xlink:href="#d"/><linearGradient id="i" x1="128.2" y1="-30.563" x2="131.248" y2="-30.936" xlink:href="#d"/><linearGradient id="j" x1="68.938" y1="-41.403" x2="72.087" y2="-41.85" xlink:href="#d"/><linearGradient id="k" x1="110.038" y1="-23.14" x2="116.967" y2="-22.647" xlink:href="#d"/><linearGradient id="l" x1="162.966" y1="-27.848" x2="169.199" y2="-27.335" xlink:href="#d"/></defs><g transform="translate(0 0.002)"><path class="a" d="M87.7,44C62.121,58.46,39.462,79.238,26.528,105.593s-15.138,55.658-16.5,84.574c-1.361,32.416-1.2,64.832,6.743,96.276,7.358,28.948,21.2,55.853,36.727,81.364,11.41,18.737,24.28,37.408,42.692,49.37a124.477,124.477,0,0,0,43.989,16.208,243.12,243.12,0,0,0,154.852-21.2c35.658-17.894,66.647-44.572,104.282-57.247,33.032-11.119,70.116-11.151,99.874-29.174,37.084-22.691,54.07-71.121,44.993-113.618s-41.006-77.8-79.711-97.637c-21.946-11.216-45.674-17.7-67.782-28.17s-42.3-24.8-63.86-36.436C255.807,8.247,165.3.111,87.7,44Z" transform="translate(-9.38 -14.66)"/><path class="b" d="M128.624,60.664l4.311,1.815a6.483,6.483,0,0,1,3.793,2.82,6.483,6.483,0,0,1-.227,4.441c-.583,1.913-1.264,3.825-2.01,5.705-.972,2.5-2.107,4.96-2.853,7.521a54.492,54.492,0,0,0-.778,19.741c0,2.139-2.723,3.242-4.83,3.533a23.4,23.4,0,0,1-11.962-.616,2.561,2.561,0,0,1-.972-.519,2.2,2.2,0,0,1-.454-1.588c-.227-3.533-.227-7.2-.713-10.438a28.69,28.69,0,0,0-1.07-5.219,49.849,49.849,0,0,1-.843-5.057c-.292-1.361-.713-2.691-.94-4.052a7.683,7.683,0,0,1,.292-4.117c.584-1.426,1.394-2.755,2.107-4.117a40.75,40.75,0,0,0,2.01-4.571,12.61,12.61,0,0,1,1.394-3.242,8.2,8.2,0,0,1,6.321-2.917A17.407,17.407,0,0,1,128.624,60.664Z" transform="translate(213.754 86.316)"/><path class="b" d="M114.95,71.194A20.033,20.033,0,0,1,112,66.1a28.105,28.105,0,0,1-1.491-7.261,6.094,6.094,0,0,1,.194-2.658c.421-1.167,1.459-2.042,1.783-3.242a.551.551,0,0,0,0-.389.565.565,0,0,0-.421-.259l-1.361-.357a4.636,4.636,0,0,0-.519-3.242,2.01,2.01,0,0,0-1.88-1.167c-.843,0-1.264,1.07-1.977,1.556s-1.491.551-2.107,1.037a3.89,3.89,0,0,0-1.037,2.593,20.681,20.681,0,0,0,1.037,6.872,60.4,60.4,0,0,0,13.615,28.753c2.01,2.366,9.725,11.7,12.772,9.3,4.311-3.242,1.491-8.59-1.491-11.151a85.512,85.512,0,0,1-14.166-15.3Z" transform="translate(200.88 59.027)"/><path class="c" d="M120.652,59.52c-1.459,2.237-2.885,4.538-4.214,6.872a3.241,3.241,0,0,0-.584,2.431,2.4,2.4,0,0,0,1.232,1.232,7.358,7.358,0,0,0,7.067-.583,24.28,24.28,0,0,0,5.349-5.154,10.956,10.956,0,0,1,2.982-2.755,3.793,3.793,0,0,1,3.89,0,2.366,2.366,0,0,1,.551,3.5,1.771,1.771,0,0,0-2.269-1.426,4.668,4.668,0,0,0-2.3,2.042,34.331,34.331,0,0,0-2.139,3.469,10.081,10.081,0,0,0-1.135,2.82,9.207,9.207,0,0,0,2.431,6.743,8.687,8.687,0,0,1,1.426,2.4,8.4,8.4,0,0,1-.324,4.182,56.73,56.73,0,0,0-.875,17.375,3.63,3.63,0,0,1-.681,3.242,3.242,3.242,0,0,1-2.2.681c-3.728,0-7.423-.843-11.184-.746a62.139,62.139,0,0,1-6.937.357,1,1,0,0,1-1.07-1.329,72.288,72.288,0,0,0,.486-19.45,44.668,44.668,0,0,1-1.426-8.979,4.408,4.408,0,0,1,.357-1.945,6.969,6.969,0,0,1,1.135-1.621,25.673,25.673,0,0,0,5.122-10.081" transform="translate(213.298 85.904)"/><path class="d" d="M118.8,77.2a3.5,3.5,0,0,1-1.264,2.853,5.928,5.928,0,0,0-.778.421c-.486.454-.421,1.232-.519,1.88a9.92,9.92,0,0,1-1.88,3.242,2.885,2.885,0,0,0,0,3.533c.584.583,1.556.681,2.042,1.361s0,2.885,1,3.566a1.491,1.491,0,0,0,1.848-.583,4.246,4.246,0,0,0,.551-2.01q1.135-10.924,2.075-21.946a2.366,2.366,0,0,0-.616-2.172c-.486-.681-1.135-1.977-1.848-2.334-.81,1.2-.194,3.793-.194,5.187C119.091,72.563,118.993,74.9,118.8,77.2Z" transform="translate(224.584 98.21)"/><path class="b" d="M110.39,60.526a4.084,4.084,0,0,0-.81,1.88,3.7,3.7,0,0,0,.519,1.361,9.174,9.174,0,0,1,.81,3.242,4.408,4.408,0,0,0,.616,2.4,3.7,3.7,0,0,0,2.853,1h2.4a1.621,1.621,0,0,1,.875,0,1.426,1.426,0,0,1,.616.616,17.181,17.181,0,0,1,1.329,5.511,2.01,2.01,0,0,0,.421.875,1.686,1.686,0,0,0,.648.551,7.164,7.164,0,0,0,5.251,0,2.01,2.01,0,0,0,1.07-.778,2.2,2.2,0,0,0,0-1.459,26.41,26.41,0,0,0-.843-3.857,14,14,0,0,1-1.037-5.219c0-1.588.875-3.047,1.135-4.6a7.747,7.747,0,0,0-4.571-7.974,9.206,9.206,0,0,0-7.974.583c-.875.454-1.588.681-2.01,1.621S111.168,59.2,110.39,60.526Z" transform="translate(215.229 72.256)"/><path class="e" d="M110.057,57.011a8.43,8.43,0,0,1-.227-1.815c0-2.075,1.2-4.441,3.242-4.506,1.459,0,2.755,1.1,4.247,1.1a12.089,12.089,0,0,0,1.815-.389,10.6,10.6,0,0,1,4.733,0,13.128,13.128,0,0,1,8.363,5.251,8.882,8.882,0,0,1,.324,9.725c-1.07,1.621-2.723,2.788-3.858,4.376a32.81,32.81,0,0,1-1.783,2.885c-.583.681-1.945,1.783-2.917,1.3s-1.037-2.075-1.718-2.755A23.7,23.7,0,0,0,124.19,70.5a2.269,2.269,0,0,0,.519-2.334,1.131,1.131,0,0,0-2.042,0,7.132,7.132,0,0,0-2.269-5.9,2.918,2.918,0,0,0-.843-.713,2.95,2.95,0,0,0-1.07,0H115.5c-1.718,0-2.561.486-3.793-.972a7.845,7.845,0,0,1-1.653-3.566Z" transform="translate(215.789 66.111)"/><path class="f" d="M117.159,58.963a1.037,1.037,0,0,1,.746.227,1.232,1.232,0,0,1,.259.778,23.956,23.956,0,0,1,0,4.311,3.469,3.469,0,0,1-.292,1.1,1.135,1.135,0,0,1-.94.583c-.421,0-.778-.357-1.232-.454a1.621,1.621,0,0,0-1.361.324,6.064,6.064,0,0,0-.972,1.07A21.263,21.263,0,0,1,111,69.434a20.164,20.164,0,0,1,2.593-5.543,2.626,2.626,0,0,1,1.167-1.135,1.192,1.192,0,0,0,1.135-.421c.259-.421,0-1.232-.292-1.783s-1.037-1.329-.583-1.718S116.77,58.931,117.159,58.963Z" transform="translate(218.412 84.029)"/><path class="b" d="M137.537,71.142a36.44,36.44,0,0,0,3.566-3.858,22.173,22.173,0,0,0,4.862-13.777,4.052,4.052,0,0,1,0-1.653,1.394,1.394,0,0,1,1.135-1.037,2.626,2.626,0,0,0,.713,0c.357,0,.519-.486.81-.746a1.524,1.524,0,0,1,1.621,0,4.474,4.474,0,0,1,1.264,1.2c.519.713,1.037,1.459,1.491,2.2a3.857,3.857,0,0,1,.713,1.945,4.408,4.408,0,0,1-1.588,2.885c-1,0-1.783,2.691-2.042,3.242-.519,1.459-1.1,2.917-1.75,4.311A61.591,61.591,0,0,1,131.6,87.642c-2.4,1.977-11.475,9.725-14.2,6.969-3.728-3.955,0-8.72,3.242-10.762A84.282,84.282,0,0,0,137.537,71.142Z" transform="translate(229.283 64.201)"/><path class="c" d="M110.959,56.7a10.924,10.924,0,0,1,1.783,0,.259.259,0,0,1,.227,0h0a4.213,4.213,0,0,1,0,2.82,2.172,2.172,0,0,1-.616.908.94.94,0,0,1-1.037,0,1.653,1.653,0,0,1-.519-.778,5.511,5.511,0,0,1-.551-2.95h0a2.528,2.528,0,0,1,1.1,0" transform="translate(216.67 79.451)"/><path class="g" d="M109.472,57.386h-.292a.195.195,0,0,1,.292,0Z" transform="translate(214.332 80.972)"/><path class="c" d="M175.36,61.57a11.67,11.67,0,0,1-1.459,4.992A51.088,51.088,0,0,1,148.909,91.1a3.987,3.987,0,0,0-1.653,1.037,4.085,4.085,0,0,0-.681,1.524c-2.5,9.725-1.945,19.644-3.728,29.369a3.825,3.825,0,0,1-1,2.334,3.987,3.987,0,0,1-2.95.681h-2.107a145.108,145.108,0,0,1-14.944-1.588,3.469,3.469,0,0,1-2.3-1.037,3.533,3.533,0,0,1-.324-2.528,132.9,132.9,0,0,0-.81-20,57.312,57.312,0,0,1,0-9.725,10.114,10.114,0,0,0,0-4.927,4.6,4.6,0,0,0-.778-1.3,50.238,50.238,0,0,0-4.473-3.793,20.358,20.358,0,0,1-4.473-8.525c-1.491-4.473-3.047-8.914-4.473-13.388-1.07-3.242.616-4.765,3.047-6,.875-.454,1.848-.875,2.853-1.329a48.624,48.624,0,0,0,3.7,10.017,16.532,16.532,0,0,0,7.261,7.326.2.2,0,0,0-.194.195.746.746,0,0,0,.324.616c2.172,2.01,4.376,3.987,6.483,6.029a3.76,3.76,0,0,0,1.459.94c.648,0,2.885-.583,2.788.616a.422.422,0,0,1,0,.194c0,.421-.389.746-.454,1.167a1.3,1.3,0,0,0,.746,1.232,2.626,2.626,0,0,0,1.491.259,5.577,5.577,0,0,0,1.653-.357c.875-.357,1.588-.972,2.431-1.394a6.775,6.775,0,0,1,4.02-.227,16.208,16.208,0,0,0,4.344-.259,25.155,25.155,0,0,0,11.119-5.8,126.612,126.612,0,0,0,12.253-13.744,4.473,4.473,0,0,1,1.588-1.329,2.918,2.918,0,0,1,3.047.778A4.344,4.344,0,0,1,175.36,61.57Z" transform="translate(202.449 68.845)"/><path class="h" d="M175.36,61.57a11.67,11.67,0,0,1-1.459,4.992A51.088,51.088,0,0,1,148.909,91.1a3.987,3.987,0,0,0-1.653,1.037,4.085,4.085,0,0,0-.681,1.524c-2.5,9.725-1.945,19.644-3.728,29.369a3.825,3.825,0,0,1-1,2.334,3.987,3.987,0,0,1-2.95.681h-2.107a145.108,145.108,0,0,1-14.944-1.588,3.469,3.469,0,0,1-2.3-1.037,3.533,3.533,0,0,1-.324-2.528,132.9,132.9,0,0,0-.81-20,57.312,57.312,0,0,1,0-9.725,10.114,10.114,0,0,0,0-4.927,4.6,4.6,0,0,0-.778-1.3,50.238,50.238,0,0,0-4.473-3.793,20.358,20.358,0,0,1-4.473-8.525c-1.491-4.473-3.047-8.914-4.473-13.388-1.07-3.242.616-4.765,3.047-6,.875-.454,1.848-.875,2.853-1.329a48.624,48.624,0,0,0,3.7,10.017,16.532,16.532,0,0,0,7.261,7.326.2.2,0,0,0-.194.195.746.746,0,0,0,.324.616c2.172,2.01,4.376,3.987,6.483,6.029a3.76,3.76,0,0,0,1.459.94c.648,0,2.885-.583,2.788.616a.422.422,0,0,1,0,.194c0,.421-.389.746-.454,1.167a1.3,1.3,0,0,0,.746,1.232,2.626,2.626,0,0,0,1.491.259,5.577,5.577,0,0,0,1.653-.357c.875-.357,1.588-.972,2.431-1.394a6.775,6.775,0,0,1,4.02-.227,16.208,16.208,0,0,0,4.344-.259,25.155,25.155,0,0,0,11.119-5.8,126.612,126.612,0,0,0,12.253-13.744,4.473,4.473,0,0,1,1.588-1.329,2.918,2.918,0,0,1,3.047.778A4.344,4.344,0,0,1,175.36,61.57Z" transform="translate(202.449 68.845)"/><path class="i" d="M118.425,85.19c-.259-.389-.486-.81-.778-1.167a50.248,50.248,0,0,0-4.473-3.793A20.357,20.357,0,0,1,108.7,71.7c-1.491-4.473-3.047-8.914-4.473-13.388-1.07-3.242.616-4.765,3.047-6a4.96,4.96,0,0,1,1.167,1.653,20.908,20.908,0,0,1,1.07,4.246,28.623,28.623,0,0,0,4.084,9.271c1.913,3.047,3.728,6.159,5.64,9.206a2.1,2.1,0,0,1,.259.551,1.783,1.783,0,0,1,0,.908,15.852,15.852,0,0,0-.713,3.7C118.62,82.629,119.041,84.768,118.425,85.19Z" transform="translate(202.494 69.764)"/><path class="j" d="M159.548,54.89a11.67,11.67,0,0,1-1.459,4.992A51.088,51.088,0,0,1,133.1,84.421a3.987,3.987,0,0,0-1.653,1.037,4.084,4.084,0,0,0-.681,1.524c-2.5,9.725-1.945,19.644-3.728,29.369a3.825,3.825,0,0,1-1,2.334,3.987,3.987,0,0,1-2.95.681h-2.107a3.241,3.241,0,0,1-1.686-.616,2.787,2.787,0,0,1-.843-1.686,74.106,74.106,0,0,1-.486-11.086,11.767,11.767,0,0,0-4.538-9.725,8.138,8.138,0,0,1-2.042-1.394,1.588,1.588,0,0,1,0-2.2,1.945,1.945,0,0,1,1.037-.324,50.572,50.572,0,0,0,6.289-.843,8.428,8.428,0,0,0,5.219-3.242c1.07-1.621,1.3-3.7,2.464-5.251a11.962,11.962,0,0,1,5.8-3.242A48.624,48.624,0,0,0,151.833,65.62c2.334-2.82,4.117-7.91,7-10.017a3.5,3.5,0,0,1,.713-.713Z" transform="translate(218.261 75.525)"/><g transform="translate(102.078 74.4)"><path class="c" d="M152.965,218.978A283.672,283.672,0,0,1,110.5,244.327l-2.107.259h-.583a3.922,3.922,0,0,1-3.663-4.733,30.335,30.335,0,0,1,.616-3.5q2.82-13.226,5.673-26.419a1.491,1.491,0,0,0-.648-1.75l-33.94-26.354a1.361,1.361,0,0,0-1.653-.195c-2.01,1.037-4.084,1.977-6.159,2.917-7.294,3.436-14.328,6.678-21.524,9.919a3.76,3.76,0,0,1-5.219-2.042l-.421-.972v-.519a77.411,77.411,0,0,1,1.361-7.747,339.6,339.6,0,0,1,13.323-39.58,31.606,31.606,0,0,1,13.582-16.6,41.525,41.525,0,0,1,15.56-5.089,112.517,112.517,0,0,1,12.772-1.1h4.052a2.139,2.139,0,0,0,1.426-.843c3.242-4.733,6.289-9.725,9.725-14.263A232.842,232.842,0,0,1,128.1,86.04a243.4,243.4,0,0,1,18.023-16.6,145.128,145.128,0,0,1,20.422-15.106,142.631,142.631,0,0,1,34.62-14.231c2.334-.713,4.7-1.329,7.067-1.977l4.862-.519h.875a6,6,0,0,1,4.992,4.084,1.915,1.915,0,0,1,0,.421,25.72,25.72,0,0,1,.454,3.242,83.57,83.57,0,0,1-.324,17.083,120.33,120.33,0,0,1-6,30.082,210.477,210.477,0,0,1-11.67,26.387,135.107,135.107,0,0,1-12.513,20.746,351.855,351.855,0,0,1-24.442,28.688,1.815,1.815,0,0,0-.486,1.977c.583,2.528,1.135,5.057,1.588,7.585a58.8,58.8,0,0,1,1.3,15.981,31.833,31.833,0,0,1-13.906,25.09Z" transform="translate(-40.87 -37.61)"/></g><path class="k" d="M72.122,195.314,51.7,179.4s8.785-27.067,21.492-58.576h4.052a2.139,2.139,0,0,0,1.426-.843c3.242-4.733,6.289-9.725,9.725-14.263a232.84,232.84,0,0,1,15.43-19.677,243.429,243.429,0,0,1,18.023-16.6A145.128,145.128,0,0,1,142.27,54.337a142.632,142.632,0,0,1,34.62-14.231c2.334-.713,4.7-1.329,7.067-1.977l4.862-.519h.875a6,6,0,0,1,4.992,4.084,1.915,1.915,0,0,1,0,.421C183.115,51.516,99.514,120.6,72.122,195.314Z" transform="translate(85.485 36.79)"/><path class="l" d="M79.733,83.395a24.377,24.377,0,0,0,6.84-5.349C90.56,83.33,91.954,90.072,94.645,96.1a7.132,7.132,0,0,0,2.788,3.631,7.877,7.877,0,0,0,3.7.583h7.488a18.444,18.444,0,0,0,7.715-1.653c1.329-.648,2.626-1.945,2.237-3.242s-2.269-1.88-3.793-1.88a18.638,18.638,0,0,1-5.705-.519,9.984,9.984,0,0,1-5.219-5.251,41.82,41.82,0,0,1-2.528-6.807A78.67,78.67,0,0,0,96.4,69.423a21.653,21.653,0,0,0-4.441-6.191,9.3,9.3,0,0,0-6.937-2.593c-4.6.486-7.585,5.154-11.864,6.9a32.935,32.935,0,0,0-5.932,2.075,12.027,12.027,0,0,0-3.047,3.242,35.009,35.009,0,0,0-5.413,11.67A31.282,31.282,0,0,0,79.733,83.395Z" transform="translate(101.31 88.384)"/><path class="b" d="M69.871,59.834s6.483-.583,8.882,1.783a34.329,34.329,0,0,1,7.553,15.106c.583,2.139,1.3,4.214,1.783,6.483a21.428,21.428,0,0,0,1.751,5.8,4.668,4.668,0,0,0,2.5,2.237,8.687,8.687,0,0,0,2.593.195,20.519,20.519,0,0,1,3.242.227,1.264,1.264,0,0,1,.583.194,1.167,1.167,0,0,1,.227.551,3.242,3.242,0,0,1-1.264,2.95,13.55,13.55,0,0,1-8.817,1c-3.566-1.2-4.7-7.812-6-10.892-1.88-4.506-3.89-8.914-6.029-13.291a4.117,4.117,0,0,0-1.037-1.524,4.441,4.441,0,0,0-1.783-.681L66.24,68.295C66.986,65.474,69.06,62.622,69.871,59.834Z" transform="translate(118.077 86.465)"/><circle class="g" cx="19.158" cy="19.158" r="19.158" transform="translate(203.67 129.346)"/><circle class="m" cx="12.74" cy="12.74" r="12.74" transform="translate(210.088 135.764)"/><path class="g" d="M105.145,64.293,74.771,124.457,45.953,137.423s-5.608,3.728-5.057-3.922,15.43-50.634,19.871-56.6S78.726,60.046,105.145,64.293Z" transform="translate(61.182 94.454)"/><path class="g" d="M121,78.15,67.71,119.059l-7.78,36.111a8.331,8.331,0,0,0,10.308,2.464c7.294-2.431,44.993-27.554,49.694-33.226S131.7,102.657,121,78.15Z" transform="translate(103.933 127.665)"/><path class="g" d="M87.9,43.421,113.574,63.26s1.329-20.552,0-24.863S87.9,43.421,87.9,43.421Z" transform="translate(166.631 36.004)"/><path class="g" d="M45.849,66.7,40.76,75.744,74.959,102l7.877-6.743Z" transform="translate(91.368 149.521)"/><path class="n" d="M88.858,84.14S-9.881,189.3,54.886,237.6,194.5,254.065,194.5,254.065,87.529,277.7,71.937,217.694c-9.109-35.107,51.12-107.265,51.12-107.265Z" transform="translate(43.27 141.092)"/><path class="g" d="M153.05,203.942l24.053,14.62H116.031L140.084,203V190.327l-4.02-4.765V170.456C96.711,156.841,97.651,72.43,97.651,72.43h97.832v1c.583,9.271,3.858,80.327-33,95.822a33.094,33.094,0,0,1-4.473,1.556v12.966l-3.242,4.182-1.718,2.172Z" transform="translate(188.485 114.843)"/><path class="g" d="M120.688,138.026a9.044,9.044,0,0,1-6.483-2.431,8.266,8.266,0,0,1-1.588-8.623l4.473,1.3a3.922,3.922,0,0,0,.583,4.052,5.219,5.219,0,0,0,4.927.81,3.793,3.793,0,0,0,2.755-2.2c-.389-1.361-6.483-6.483-11.216-10.795C101.174,108.786,84.966,94.686,90.249,83.34a12.091,12.091,0,0,1,8.428-7.2c10.373-2.4,24.118,8.752,24.7,9.239l-2.95,3.6c-3.469-2.853-13.971-9.725-20.714-8.3a7.553,7.553,0,0,0-5.251,4.635c-3.825,8.169,12.156,22.075,22.691,31.282,9.4,8.2,13.518,11.962,12.707,15.43a8.169,8.169,0,0,1-6.029,5.608A12.967,12.967,0,0,1,120.688,138.026Z" transform="translate(169.597 122.41)"/><path class="g" d="M133.881,137.752a11.184,11.184,0,0,1-3.08-.421,8.169,8.169,0,0,1-6.062-5.608c-.81-3.469,3.242-7.229,12.707-15.43C148.015,107.087,164,93.18,160.138,85.011a7.1,7.1,0,0,0-4.927-4.279c-7.358-1.621-19.45,6.483-23.372,9.725l-2.788-3.631c.681-.519,16.208-12.966,27.359-10.6a11.573,11.573,0,0,1,8.136,6.84c5.316,11.346-10.892,25.447-23.891,36.792-4.83,4.214-10.827,9.433-11.216,11.119.259.81,1.588,1.556,2.755,1.88a5.057,5.057,0,0,0,4.895-.81,3.922,3.922,0,0,0,.421-4.02l4.506-1.3a8.234,8.234,0,0,1-1.621,8.623,9.012,9.012,0,0,1-6.516,2.4Z" transform="translate(248.985 122.684)"/><path class="o" d="M162.548,169.289a33.088,33.088,0,0,1-4.473,1.556v.324H136.064v-.713C96.711,156.841,97.651,72.43,97.651,72.43h23.988s-10.632,55.918,25.122,89.793C154.379,169.484,157.135,167.668,162.548,169.289Z" transform="translate(188.485 114.843)"/><path class="g" d="M124.8,102.88a15.431,15.431,0,0,1-4.473,0Z" transform="translate(239.326 183.1)"/><path class="o" d="M119.062,88.79v14.1l3.5,4.7v13.064L113.1,136.247H94.88l23.6-14.717V107.883l-4.668-5.705V87.98Z" transform="translate(212.683 197.222)"/><path class="p" d="M136.064,171.179v-.713C96.711,156.851,97.651,72.44,97.651,72.44h6.969s-4.279,74.33,33.389,97.9l1.3.843Z" transform="translate(188.485 114.865)"/><path class="g" d="M122.11,102.79v12.966l-3.242,4.182C112,117.572,110.926,112.515,122.11,102.79Z" transform="translate(224.45 182.898)"/><path class="q" d="M120.763,169.267a33.09,33.09,0,0,1-4.473,1.556C152.726,139.217,133.86,72.44,133.86,72.44l19.9,1C154.249,82.716,157.491,153.772,120.763,169.267Z" transform="translate(230.27 114.865)"/><path class="b" d="M65.705,79.714l2.269-4.635A92.059,92.059,0,0,1,75.4,61.918c5.867-8.072,8.914-17.829,13.971-26.451a3.242,3.242,0,0,0,.583-1.588c0-1.264-1.491-1.977-2.755-2.3a10.341,10.341,0,0,0-5.154-.357,4.538,4.538,0,0,0-3.533,3.436,15.072,15.072,0,0,0,.227,2.95,13.388,13.388,0,0,1-2.723,7.618L63.242,65.905A16.565,16.565,0,0,0,60,73.847,6.191,6.191,0,0,0,65.705,79.714Z" transform="translate(104.09 22.078)"/><path class="r" d="M65.834,60.122a7.294,7.294,0,0,0,1.07-5.349,24.376,24.376,0,0,1,0-7.358,13.907,13.907,0,0,0,.389-7.261.316.316,0,0,0-.194-.292.486.486,0,0,0-.519,0,3.76,3.76,0,0,0-1.653,2.107C63.564,45.21,59.415,50.689,60,54.222A6.191,6.191,0,0,0,65.834,60.122Z" transform="translate(103.962 41.67)"/><path class="g" d="M49.11,37.9l6.678-8.461L63.73,36.7l-7.488,6.743Z" transform="translate(110.085 65.998)"/><path class="s" d="M49.11,37.9l6.678-8.461L63.73,36.7l-7.488,6.743Z" transform="translate(110.085 65.998)"/><path class="b" d="M66.265,64.994l3.08,1.07c1.07.357,3.242,1.783,4.246.81s0-3.922,0-4.992a53.811,53.811,0,0,0-2.755-11.248,7.132,7.132,0,0,1-.551-5.77,3.242,3.242,0,0,1,2.788-1.653,3.436,3.436,0,0,1,2.82,1.556,14.392,14.392,0,0,1,.94,3.242,4.311,4.311,0,0,1,.389,2.334,7.907,7.907,0,0,0-.454,1.1,2.69,2.69,0,0,0,.227,1.232L81.047,63.34A12.966,12.966,0,0,1,82.278,70.7a7.747,7.747,0,0,1-8.1,5.219,24.733,24.733,0,0,1-10.859-3.76c-.357-.195-.778-.551-.648-.94a.972.972,0,0,1,.421-.389,7.261,7.261,0,0,0,2.561-2.5A3.825,3.825,0,0,0,66.265,64.994Z" transform="translate(110.013 49.343)"/><path class="b" d="M69.305,55.275a2.139,2.139,0,0,1-.616,1.167,3.7,3.7,0,0,1-1.653.551,3.241,3.241,0,0,0-1.653.681.908.908,0,0,0,0,.875l.875,3.728a1.264,1.264,0,0,1,0,.843,1.426,1.426,0,0,1-.81.681c-1.3.616-2.95,1.167-4.084.292a3.7,3.7,0,0,1-1.135-1.945,42.466,42.466,0,0,1-2.982-12.966,9.368,9.368,0,0,1,2.593-7.358,9.012,9.012,0,0,1,6.483-1.977,3.242,3.242,0,0,1,2.593,1.524c.357.648,0,1.329.227,2.042a19.774,19.774,0,0,0,.551,3.08,12.348,12.348,0,0,0,.486,1.426,4.02,4.02,0,0,1,.454,1.232,5.284,5.284,0,0,1-.519,2.3,12.965,12.965,0,0,0-.681,2.723A1.55,1.55,0,0,1,69.305,55.275Z" transform="translate(97.832 41.719)"/><path class="m" d="M98.481,44.677A5.089,5.089,0,0,1,95.6,48.5c-3.5,1.653-8.493,1.426-7.164,6.483a13.744,13.744,0,0,1-1.1,12.156c-.81,1.2-1.815,2.237-2.528,3.5-1.167,1.945-1.524,4.311-2.788,6.191-2.528,3.728-7.65,4.506-12.124,4.506a12.318,12.318,0,0,0-4.992.94c-3.663,1.815-5.316,7.2-9.368,7.391s-5.446-5.089-7.715-7.683a10.924,10.924,0,0,1-2.237-12.124c4.182-8.558,17.829-8.039,22.983-16.208,3.177-4.733,3.177-11.216,8.688-14.263a20.649,20.649,0,0,1,19.158.908,4.149,4.149,0,0,1,2.075,4.376Z" transform="translate(69.661 36.465)"/><path class="g" d="M79.439,84.892a3.987,3.987,0,0,0,1.329.713,13.258,13.258,0,0,0,5.187.227,72.159,72.159,0,0,1,7.488,0,2.918,2.918,0,0,1,1.718.454c.843.713.583,2.042.227,3.08a138.154,138.154,0,0,1-5.413,13.874,11.605,11.605,0,0,1-3.566,5.057,10.827,10.827,0,0,1-4.214,1.524,71.579,71.579,0,0,1-9.109,1.264,16.208,16.208,0,0,1-8.785-1.167,13.744,13.744,0,0,1-6.094-7.91,17.926,17.926,0,0,1-.875-10.017c.81-3.566,2.431-4.6,1.426-8.428a88.624,88.624,0,0,1-2.788-14.49A35.657,35.657,0,0,1,57.2,55.847a17.6,17.6,0,0,1,2.464-5.576,8.785,8.785,0,0,1,4.83-3.436,5.738,5.738,0,0,1,5.511,1.524C73.8,52.476,78.985,52.7,83.3,56.236a1.394,1.394,0,0,1,.551.681,1.264,1.264,0,0,1,0,.908L81.028,64.6a10.469,10.469,0,0,1-1.07,2.075c-.389.551-.875,1-1.232,1.556A10.276,10.276,0,0,0,77.3,73.708C77.267,76.95,76.489,82.59,79.439,84.892Z" transform="translate(94.7 57.064)"/><path class="t" d="M64.856,78.328a3.242,3.242,0,0,1-3.242-.227c-2.269-1.686-.519-2.853,0-4.6a18.315,18.315,0,0,0,.551-7.456c-.357-4.83-.746-9.725-1.1-14.522.194,1.2,5.9,2.885,8.136,4.409-.389.551-.875,1-1.232,1.556-2.528,3.7-1.2,11.086-1.135,15.268C67,74.762,66.736,77.291,64.856,78.328Z" transform="translate(105.166 67.971)"/><path class="g" d="M87.526,48.008a22.335,22.335,0,0,1,0,11.281,1.621,1.621,0,0,1-.616.389.843.843,0,0,1-.551,0c-1.459-.292-9.725-5.705-19.45-2.3a3.566,3.566,0,1,1-1.167-6.9s12.74-4.246,15.495-11.8c.357-1.135,1.07-1.556,1.88-1.426a3.242,3.242,0,0,1,1.394.648h0A28.527,28.527,0,0,1,87.526,48.008Z" transform="translate(108.785 35.923)"/><path class="u" d="M73.583,47.992a22.335,22.335,0,0,1,0,11.281.713.713,0,0,1-.486.389h0c-1.3,0-3.242-4.862-4.149-10.859s-.843-10.7.227-11.573h.259c.357,0,.713.227,1.135.778h0a28.526,28.526,0,0,1,3.015,9.984Z" transform="translate(122.729 35.939)"/><path class="g" d="M83.339,69.458a1.88,1.88,0,0,0-1.329,2.107c0,.519.616,1.037.389,1.524a1,1,0,0,1-.746.486,12.966,12.966,0,0,1-9.206-.616,1.491,1.491,0,0,0,.389,1.459A5.089,5.089,0,0,0,74.749,76.4a4.863,4.863,0,0,0,1.686.324A21.492,21.492,0,0,0,88.98,72.473a3.631,3.631,0,0,0,.908-.81,1.1,1.1,0,0,0,0-1.167c-.194-.486-.778-.648-1.3-.746a25.938,25.938,0,0,0-2.723-.259,6.288,6.288,0,0,0-2.528-.032Z" transform="translate(131.871 107.928)"/></g></svg>