<svg xmlns="http://www.w3.org/2000/svg" xmlns:xlink="http://www.w3.org/1999/xlink" width="486.43" height="386.06" viewBox="0 0 486.43 386.06"><defs><style>.a,.b,.d{fill:#ffbaad;}.a{opacity:0.18;}.a,.b,.q{isolation:isolate;}.b{opacity:0.31;}.c,.q{fill:#fff;}.e{fill:url(#a);}.f{fill:url(#b);}.g{fill:#ce9e95;}.h{fill:#473f47;}.i{fill:#020202;opacity:0.1;}.j{fill:#af807a;}.k{fill:url(#c);}.l{fill:#ec9c7d;}.m{fill:#f89659;}.n{fill:#fdb9a9;}.o{fill:#de9f93;}.p{fill:#dc9bd5;}.r{fill:url(#d);}.s{fill:url(#e);}.t{fill:url(#f);}.u{fill:url(#g);}.v{fill:url(#h);}.w{fill:url(#i);}.x{fill:url(#j);}</style><linearGradient id="a" x1="0.554" y1="-3.22" x2="0.435" y2="4.983" gradientUnits="objectBoundingBox"><stop offset="0.01"/><stop offset="0.08" stop-opacity="0.69"/><stop offset="0.21" stop-opacity="0.322"/><stop offset="1" stop-opacity="0"/></linearGradient><linearGradient id="b" x1="0.554" y1="-3.219" x2="0.435" y2="4.983" xlink:href="#a"/><linearGradient id="c" x1="20.965" y1="49.335" x2="27.66" y2="49.23" xlink:href="#a"/><linearGradient id="d" x1="40.694" y1="-26.165" x2="52.22" y2="-18.955" xlink:href="#a"/><linearGradient id="e" x1="40.53" y1="-19.923" x2="52.056" y2="-14.45" xlink:href="#a"/><linearGradient id="f" x1="-12.621" y1="54.885" x2="-11.285" y2="59.047" xlink:href="#a"/><linearGradient id="g" x1="-286.554" y1="89.952" x2="-289.36" y2="90.99" gradientUnits="objectBoundingBox"><stop offset="0.01"/><stop offset="0.13" stop-opacity="0.69"/><stop offset="0.25" stop-opacity="0.322"/><stop offset="1" stop-opacity="0"/></linearGradient><linearGradient id="h" x1="-51.039" y1="77.697" x2="-47.231" y2="76.249" xlink:href="#g"/><linearGradient id="i" x1="0.465" y1="1.354" x2="0.52" y2="-0.143" gradientUnits="objectBoundingBox"><stop offset="0.01" stop-color="#fff"/><stop offset="1" stop-color="#fff" stop-opacity="0"/></linearGradient><linearGradient id="j" x1="1.163" y1="0.907" x2="0.053" y2="0.233" xlink:href="#i"/></defs><g transform="translate(0.004 0.003)"><path class="a" d="M96.356,390.684A104.766,104.766,0,0,1,48.122,369.29c-16.5-12.966-34.425-30.438-33.874-52.123.583-23.015,9.173-45.154,18.671-65.867,12.545-27.974,30.049-57.472,25.413-88.623-4.571-30.665,1.588-68.428,17.99-94.814,25.932-41.556,71.313-51.637,116.694-52.61C223,14.637,253.861,16.42,281.186,28.77c28.72,12.966,51.7,36.921,81.038,48.072,19.449,7.326,40.713,8.784,59.741,17.018,23.955,10.405,42.431,31.021,54.425,54.23s18.023,48.979,22.528,74.555c7.585,43.274-10.438,97.245-36.4,132.675-17.407,23.663-46.386,50.924-76.273,45.089C234.736,371.494,263.877,417.718,96.356,390.684Z" transform="translate(-14.24 -15.15)"/><path class="b" d="M199.84,83.029a15.43,15.43,0,0,1-15.4,15.43H144.8a15.43,15.43,0,0,1,0-30.859H150.5a8.231,8.231,0,0,1,0-1.264,14.167,14.167,0,0,1,28.331-.486V67.6h5.673a15.429,15.429,0,0,1,15.429,15.43Z" transform="translate(243.833 67.285)"/><path class="c" d="M198.338,82.878a15.43,15.43,0,0,1-15.4,15.43H143.33a15.43,15.43,0,1,1,0-30.859H149V66.217a14.2,14.2,0,1,1,28.363,0h0v1.264h5.673A15.4,15.4,0,0,1,198.338,82.878Z" transform="translate(240.538 65.978)"/><g transform="translate(64.569 76.922)"><path class="d" d="M41.622,121.322a4.408,4.408,0,0,1,1.3-3.241A16.4,16.4,0,0,0,47,110.949a8.46,8.46,0,0,0-3.63-9.141,16.207,16.207,0,0,0-5.932-2.885A4.635,4.635,0,0,1,34.2,93.867c.162-1.426.324-2.853.454-4.279a4.895,4.895,0,0,1,5.219-4.473,15.851,15.851,0,0,0,5.964-1.361,8.752,8.752,0,0,0,5.186-10.989,43.079,43.079,0,0,0-2.042-5.348,4.8,4.8,0,0,1,1.459-5.835c1.07-.875,2.2-1.621,3.242-2.528a5.122,5.122,0,0,1,6.483.194,17.212,17.212,0,0,0,5.381,3.6A8.817,8.817,0,0,0,76.4,59.96,20.746,20.746,0,0,0,79.451,53.7a4.668,4.668,0,0,1,5.219-3.242c1.426.227,2.82.421,4.246.583a4.571,4.571,0,0,1,4.052,4.538,18.055,18.055,0,0,0,2.075,7.747,8.979,8.979,0,0,0,9.3,4.182,21.588,21.588,0,0,0,5.835-2.075,4.862,4.862,0,0,1,6.483,1.621c.81,1.232,1.88,2.3,2.69,3.533a4.473,4.473,0,0,1-.486,5.737,17.829,17.829,0,0,0-3.7,5.705,8.784,8.784,0,0,0,4.214,11.41,26.354,26.354,0,0,0,4.895,2.139,4.668,4.668,0,0,1,3.242,4.635,33.944,33.944,0,0,1-.583,5.122,4.538,4.538,0,0,1-4.6,3.987,16.888,16.888,0,0,0-7.229,1.783,8.525,8.525,0,0,0-4.6,9.3,18.639,18.639,0,0,0,2.042,6.159,4.7,4.7,0,0,1-1.491,6.483l-2.917,2.269a4.7,4.7,0,0,1-6.483-.227,17.667,17.667,0,0,0-6-3.7,8.687,8.687,0,0,0-10.34,3.242,20.876,20.876,0,0,0-3.047,6.256,4.538,4.538,0,0,1-4.927,3.242l-4.8-.713a4.635,4.635,0,0,1-3.7-4.214,18.606,18.606,0,0,0-1.75-7.455A8.655,8.655,0,0,0,57.052,126.9a35.885,35.885,0,0,0-5.737,2.139,4.83,4.83,0,0,1-5.77-1.1,41.133,41.133,0,0,1-3.241-3.987,14.586,14.586,0,0,1-1.037-2.658ZM80.974,81.97A15.365,15.365,0,0,0,65.512,97.3a15.559,15.559,0,0,0,14.976,15.365,15.365,15.365,0,1,0,.486-30.7Z" transform="translate(-34.157 -13.051)"/><path class="d" d="M105.437,102.611v1.75a3.241,3.241,0,0,1-2.626,3.242l-3.242.81a3.566,3.566,0,0,1-4.214-1.945,19.773,19.773,0,0,0-2.334-3.7,6.645,6.645,0,0,0-9.725-1.135,29.173,29.173,0,0,0-2.95,2.69,3.566,3.566,0,0,1-4.506.778l-2.626-1.556a3.7,3.7,0,0,1-1.653-5.024,16.856,16.856,0,0,0,.908-4.538A6.483,6.483,0,0,0,66.7,87.02c-1.621-.259-3.242,0-4.96-.324A3.241,3.241,0,0,1,58.5,83.681a18.605,18.605,0,0,0-.616-2.658,3.663,3.663,0,0,1,2.01-4.376A21.621,21.621,0,0,0,64.2,73.7a6.256,6.256,0,0,0,.875-8.266,17.6,17.6,0,0,0-2.723-3.242,3.793,3.793,0,0,1-.843-5.511c.454-.746.875-1.524,1.361-2.269a3.566,3.566,0,0,1,4.538-1.524,12.383,12.383,0,0,0,5.737.908,6.094,6.094,0,0,0,5.64-4.8,20.616,20.616,0,0,0,.519-5.284,3.793,3.793,0,0,1,2.464-3.793c1.2-.357,2.4-.616,3.6-.875a3.241,3.241,0,0,1,4.149,2.2,12.966,12.966,0,0,0,3.663,4.862,6.742,6.742,0,0,0,8.493-.357,20.648,20.648,0,0,0,2.593-2.464,3.7,3.7,0,0,1,4.6-.778l3.015,1.783a3.468,3.468,0,0,1,1.426,4.344,13.582,13.582,0,0,0-.972,5.316,6.483,6.483,0,0,0,5.673,6.483,28.946,28.946,0,0,0,4.441.292,3.468,3.468,0,0,1,3.793,3.047c.259,1.037.551,2.042.778,3.242a3.242,3.242,0,0,1-2.042,3.89,13.744,13.744,0,0,0-4.538,3.242,6.126,6.126,0,0,0-1.037,7.261,22.074,22.074,0,0,0,3.241,4.084,3.63,3.63,0,0,1,.778,4.992l-1.459,2.431a3.566,3.566,0,0,1-4.733,1.653,10.924,10.924,0,0,0-6.775-.551,6.483,6.483,0,0,0-4.538,5.024,31.988,31.988,0,0,0-.519,3.533ZM92.471,62.222A11.443,11.443,0,0,0,80.9,73.7a11.572,11.572,0,1,0,23.112,0,11.41,11.41,0,0,0-11.6-11.475Z" transform="translate(18.691 -38.879)"/></g><path class="e" d="M137.98,108.935l37.569,2.917a10.568,10.568,0,0,1,5.089,1.264,6.84,6.84,0,0,1,2.172,7.682,14.976,14.976,0,0,1-5.122,6.677c-13.647,10.989-32.8,11.54-50.438,11.443l-82.983-.454a22.69,22.69,0,0,1-9.433-1.394,7.78,7.78,0,0,1-4.83-7.553,9.887,9.887,0,0,1,5.251-6.483,66.42,66.42,0,0,1,23.922-7.682q18.963-3.4,37.99-6.483" transform="translate(21.089 194.929)"/><path class="f" d="M206.917,107.747l37.569,2.885a10.243,10.243,0,0,1,5.089,1.3,6.84,6.84,0,0,1,2.172,7.65,14.879,14.879,0,0,1-5.154,6.678c-13.614,11.151-32.772,11.572-50.373,11.442l-83.015-.486a23.111,23.111,0,0,1-9.433-1.394,7.78,7.78,0,0,1-4.927-7.585,9.724,9.724,0,0,1,5.251-6.483,67,67,0,0,1,24.052-7.618q18.963-3.4,37.99-6.483" transform="translate(175.395 192.195)"/><path class="g" d="M137.774,119.779a12.966,12.966,0,0,1-1.07,5.673,9.271,9.271,0,0,1-4.084,3.793,16.208,16.208,0,0,1-11.994,1.167,1.75,1.75,0,0,1-1.653-2.01,9.044,9.044,0,0,1,3.241-5.64,19.157,19.157,0,0,0,4.344-4.96c1.815-3.7.454-13.582,7.455-11.994C139.752,107.04,137.936,115.565,137.774,119.779Z" transform="translate(220.485 187.683)"/><path class="d" d="M142.04,112.2s.972,2.431-.227,3.857-13.776,9.238-22.237,2.95,11.475-7.1,11.475-7.1Z" transform="translate(217.192 201.744)"/><path class="c" d="M141.072,110.863a1.815,1.815,0,0,0-2.269.583,7.391,7.391,0,0,1-6.742,2.431c-2.755-.648-3.857-3.825-5.219-3.857s-8.687,6.224-9.109,8.882,3.241,4.635,7.455,4.895,13.485-2.593,15.267-4.765A8.849,8.849,0,0,0,141.072,110.863Z" transform="translate(217.674 197.507)"/><path class="g" d="M145.165,120.929a12.966,12.966,0,0,1-1.07,5.673,9.271,9.271,0,0,1-4.084,3.793,16.207,16.207,0,0,1-11.994,1.2,2.366,2.366,0,0,1-1.394-.843,2.171,2.171,0,0,1-.259-1.2,9.043,9.043,0,0,1,3.241-5.64,19.157,19.157,0,0,0,4.344-4.959c1.815-3.7.454-13.582,7.455-11.994C147.142,108.287,145.327,116.813,145.165,120.929Z" transform="translate(237.082 190.261)"/><path class="d" d="M149.442,113.422s.972,2.431-.227,3.857-13.776,9.238-22.237,2.95,11.443-7.1,11.443-7.1Z" transform="translate(233.777 204.478)"/><path class="c" d="M148.472,112.075a1.75,1.75,0,0,0-2.269.583,7.455,7.455,0,0,1-6.742,2.4c-2.755-.648-3.857-3.825-5.219-3.857s-8.687,6.224-9.109,8.882,3.241,4.635,7.455,4.895,13.485-2.593,15.267-4.765a8.785,8.785,0,0,0,.616-8.136Z" transform="translate(234.261 200.152)"/><path class="h" d="M152.282,79.972s1.329,71.832-4.019,95.819l-13.485,1.653L125.41,79Z" transform="translate(234.957 127.976)"/><path class="h" d="M122.57,76.88s-6.483,38.9,1.361,101.005l13.485,1.653,9.368-98.38Z" transform="translate(222.95 123.224)"/><path class="d" d="M116,88.589c0,2.593,1,4.862,3.242,5.608a1.977,1.977,0,0,0,.583.162c4.149.843,9.725-2.3,13.387-5.057a51.166,51.166,0,0,0,4.506-3.7V57.86L117.557,78.508A31.832,31.832,0,0,0,116,88.589Z" transform="translate(213.863 80.59)"/><path class="d" d="M122.046,93.681V97.6c0,7.164,1.653,14.554-.486,21.588a7.974,7.974,0,0,0-.583,4.8,5.964,5.964,0,0,0,3.015,2.885,60.326,60.326,0,0,0,20.746,5.511c5.348.746,12.966,2.334,17.926-.551a8.947,8.947,0,0,0,3.5-5.8,108.332,108.332,0,0,0,3.241-22.691,15.544,15.544,0,0,1,.195-2.982c.421-6.84.551-13.744.421-20.584,0-4.992-.486-10.373-3.728-14.133a35.657,35.657,0,0,0-19-9.336,21.556,21.556,0,0,0-6.289-.357,26.451,26.451,0,0,0-8.46,2.885,14.262,14.262,0,0,0-7.52,6,42.139,42.139,0,0,0-3.663,11.28,41.4,41.4,0,0,0-.195,11.151c.195,1.815.648,3.631.843,5.413C122.046,93.033,122.046,93.357,122.046,93.681Z" transform="translate(224.707 76.114)"/><path class="i" d="M132.078,127.352c2.075.616,6.872-1.264,8.46-1.556.94,0,1.815-.648,2.755-.875,4.765-1.2,5.316-14.522,5.77-18.12a248.855,248.855,0,0,0,3.241-28.817,31.605,31.605,0,0,0-1.264-10.891,12.577,12.577,0,0,0-7.1-7.974c-6.062-2.172-7.877,17.018-8.72,20.973l-4.538,21.686a49.4,49.4,0,0,0-1.264,8.136,28.591,28.591,0,0,0,2.042,9.725c.551,1.912-.973,5.511-.227,6.9a1.2,1.2,0,0,0,.843.81Z" transform="translate(243.945 83.028)"/><path class="g" d="M126.544,67.843a4.506,4.506,0,0,0,2.917,1.459,16.469,16.469,0,0,0,2.82,0h.551a.649.649,0,0,1,.357,0,.713.713,0,0,1,.195.421,32.8,32.8,0,0,1,0,5.64h0v1a1.977,1.977,0,0,0,0,1.07c.194.421.681.583,1.135.746a7.715,7.715,0,0,0,2.561.421,11.345,11.345,0,0,0,5.186-1.815,50.342,50.342,0,0,1,.519-9.725,51.538,51.538,0,0,0,1.232-12.35,8.072,8.072,0,0,0-1.718-4.473,7.909,7.909,0,0,0-6.126-2.2,15.332,15.332,0,0,0-8.4,2.3c-.94.616-1.037,1.426-1.264,2.464-.292,1.621-.551,3.242-.746,4.927s-.324,3.728-.357,5.64A6.483,6.483,0,0,0,126.544,67.843Z" transform="translate(234.86 58.517)"/><path class="h" d="M127.833,52.414a2.626,2.626,0,0,0-2.172,2.366,2.593,2.593,0,0,0,1.913,2.593,2.626,2.626,0,0,0,2.107,2.917A7.456,7.456,0,0,0,133.6,59.8a4.506,4.506,0,0,0,5.77,1.07v.746a12.189,12.189,0,0,1,1.135,4.117l-.357,2.755a2.723,2.723,0,0,1,2.982-2.4,1.426,1.426,0,0,1,1.1.357,1.556,1.556,0,0,1,.227.648,2.658,2.658,0,0,1-1.037,2.237c-.486.324-1.1.551-1.329,1.1a2.788,2.788,0,0,0,0,1.621A3.014,3.014,0,0,1,141.9,73.9l.908-.227a3.856,3.856,0,0,0,.746-.519,2.5,2.5,0,0,0,.616-2.042,3.015,3.015,0,0,0,2.853-4.019,1.815,1.815,0,0,0,1.556-2.075,5.479,5.479,0,0,0-1.3-2.593,2.885,2.885,0,0,0,2.853-2.885,4.538,4.538,0,0,1,0-1.329,5.412,5.412,0,0,1,.778-1.394,2.917,2.917,0,0,0-.551-3.436c-.648-.583-1.556-.875-2.042-1.588a7.456,7.456,0,0,1-.486-2.075c-.583-2.626-3.5-3.857-6.062-4.7a4.959,4.959,0,0,0-2.172-.357,1.686,1.686,0,0,0-1.524,1.361,4.506,4.506,0,0,0-2.463-1.037c-.875,0-1.848.81-1.621,1.653-.357-1.426-2.755,2.269-2.885,2.366C129.518,49.982,127.087,49.01,127.833,52.414Z" transform="translate(235.516 50.996)"/><path class="j" d="M127.545,55.945h.551a.648.648,0,0,1,.357,0,.713.713,0,0,1,.194.421,32.81,32.81,0,0,1,0,5.64h0A7.585,7.585,0,0,0,133.963,54a31.475,31.475,0,0,1-6.483,1.88Z" transform="translate(239.597 71.938)"/><path class="d" d="M110.76,69.69a39.677,39.677,0,0,0,9.725,9.725,19.45,19.45,0,0,0,9.109,3.241,2.787,2.787,0,0,0,1.264-.162,3.436,3.436,0,0,0,1.75-1.2,10.081,10.081,0,0,0,2.334-5.737c.227-5.543-5.77-8.752-5.77-8.752s-13.647-4.344-15.267-3.63c-.875.357-1.718,2.3-2.3,3.955S110.76,69.69,110.76,69.69Z" transform="translate(202.119 92.326)"/><path class="i" d="M110.76,66.923a39.676,39.676,0,0,0,9.725,9.725,19.45,19.45,0,0,0,9.109,3.241,2.787,2.787,0,0,0,1.264-.162,1.976,1.976,0,0,0,.583.162c4.149.843,9.725-2.3,13.387-5.057h0l-1.3-8.3a33.29,33.29,0,0,1-8.558,6.483,12.123,12.123,0,0,1-7.326,1.329,7.26,7.26,0,0,1-1.977-.583,63.241,63.241,0,0,1-14.133-9.433C111.084,65.724,110.76,66.923,110.76,66.923Z" transform="translate(202.119 95.093)"/><path class="d" d="M155.749,88.553a32.059,32.059,0,0,1,2.658,15.17c-.908,6.224-5.057,11.443-9.044,16.208-3.242.486-7.229.421-8.363-2.561a7.456,7.456,0,0,1-.194-2.95l.454-6.483a23.663,23.663,0,0,0-.454-8.558,38.609,38.609,0,0,0-4.83-8.558,32.967,32.967,0,0,1-4.96-14.976c-.357-4.992,3.436-21.135,10.794-16.208,3.047,2.01,5.77,10.308,7.391,13.647A155.233,155.233,0,0,1,155.749,88.553Z" transform="translate(247.471 82.507)"/><path class="g" d="M133.808,83.062a1.491,1.491,0,0,0-.259.81.486.486,0,0,0,.648.454c.746,2.3-.81,4.733-.81,7.164a2.2,2.2,0,0,0,0,.648,1.524,1.524,0,0,0,.551.648,2.853,2.853,0,0,0,2.755.162,7.391,7.391,0,0,0,2.3-1.718,11.54,11.54,0,0,0,3.079-4.668,13.358,13.358,0,0,0,.454-2.528l.778-6.483C138.67,76.093,136.012,79.237,133.808,83.062Z" transform="translate(252.782 123.913)"/><path class="g" d="M119.78,62.523a2.594,2.594,0,0,0-.713-1.135.81.81,0,0,0-1.167,0,1.816,1.816,0,0,0-.227.746,1.588,1.588,0,0,1-1.459.94,4.991,4.991,0,0,1-1.783-.454,51.619,51.619,0,0,0-4.959-1.523,1.912,1.912,0,0,0-1.2,0,1.685,1.685,0,0,0-.843,1.037,6.483,6.483,0,0,0,1.037,6.094,10.47,10.47,0,0,0,5.316,3.5,27.848,27.848,0,0,0,6.483.94,2.885,2.885,0,0,0,1.588-.227C124.447,70.951,120.525,64.241,119.78,62.523Z" transform="translate(193.877 87.629)"/><path class="d" d="M79.343,82.529s0,30.016-2.139,35.462C71.66,133.226,64.237,139.45,64.237,139.45q-4.376,16.564-8.687,33.161c2.82,3.242,7.52,6.483,10.7,3.663a8.622,8.622,0,0,0,1.913-2.917L83.427,140.1a85.026,85.026,0,0,0,7.326-20.421V118.9c0-.421.227-1.815.421-3.825h0c.486-5.867-.486-33.614-3.242-40.908,0,0-10.276,3.533-13.225-.486Z" transform="translate(78.365 116.051)"/><path class="k" d="M79.343,80.6s0,30.016-2.139,35.462C71.66,131.3,64.237,137.522,64.237,137.522q-4.376,16.564-8.687,33.161c2.82,3.242,7.52,6.483,10.7,3.663a8.622,8.622,0,0,0,1.913-2.917l15.267-33.258a85.026,85.026,0,0,0,7.326-20.422v-.778c0-.421.227-1.815.421-3.825h0c.486-5.867-.389-28.331-2.982-35.657a10.211,10.211,0,0,1-9.109-2.95Z" transform="translate(78.365 117.979)"/><path class="d" d="M76.329,82.006a18.412,18.412,0,0,0-2.885,13.679c1.037,7.164,6.159,12.966,7.2,20.033a8.266,8.266,0,0,1-5.284,8.622L55.388,134.648a20.518,20.518,0,0,0-8.687,6.775,7.131,7.131,0,0,0,1.686,9.725l38.444-7.812a35.235,35.235,0,0,0,15.43-19.9c1.459-5.608-.519-43.177-.519-43.177-6.224-5.964-8.363-3.728-12.22-8.266C84.886,75.491,79.8,77.306,76.329,82.006Z" transform="translate(55.804 112.263)"/><path class="l" d="M50.859,108.867c0,2.172.421,4.765-1.232,6.224a.778.778,0,0,1-.551.292,1.232,1.232,0,0,1-.843-.357c-3.793-3.242-4.8-8.655-5.122-13.647a5.446,5.446,0,0,1,.616-3.663,6.224,6.224,0,0,1,3.242-1.783A33.8,33.8,0,0,0,52.674,93.6c-.551.292-.357,3.533-.357,4.084a18.056,18.056,0,0,1,.357,3.7,30.831,30.831,0,0,1-1.264,3.242,13.582,13.582,0,0,0-.551,4.246Z" transform="translate(50.285 160.702)"/><path class="l" d="M64.8,114.593a9.5,9.5,0,0,1,1.556,5.219,1.523,1.523,0,0,1-.389.908c-.681.648-1.783.195-2.528-.324a32.415,32.415,0,0,1-7.261-8.136,2.723,2.723,0,0,1-.616-1.264,3.015,3.015,0,0,1,.519-1.783l2.2-4.052a.875.875,0,0,1,.259-.324.713.713,0,0,1,.454,0,17.921,17.921,0,0,1,3.4,1.037c1.491.616,1.523.681,1.361,2.2A12.966,12.966,0,0,0,64.8,114.593Z" transform="translate(78.387 185.803)"/><path class="d" d="M55.033,110.309a1.135,1.135,0,0,0,0,.648c0,.292.357.486.583.648a23.63,23.63,0,0,1,3.5,3.468,68.975,68.975,0,0,0,7.488,6.483,5.316,5.316,0,0,0,3.857,1.621,1.231,1.231,0,0,0,.486,0,1.069,1.069,0,0,0,.292-.681,12.091,12.091,0,0,0-1.07-6.483,7.034,7.034,0,0,0-1.3-2.172,3.047,3.047,0,0,0-2.3-.972c-.94,0-1.783.778-2.755.778a3.7,3.7,0,0,1-2.4-1.491,21.3,21.3,0,0,1-2.042-2.723c-.454-.713-.875-2.01-1.621-2.464C56.038,105.739,55.357,109.207,55.033,110.309Z" transform="translate(77.1 190.087)"/><path class="d" d="M42.789,96.764a1.07,1.07,0,0,0-.324,1.588,28.3,28.3,0,0,1,1.1,5.478,75.138,75.138,0,0,0,2.917,10.989,6.256,6.256,0,0,0,2.626,4.019,1.265,1.265,0,0,0,.583,0,1.426,1.426,0,0,0,.713-.454,14.1,14.1,0,0,0,3.242-6.872,7.359,7.359,0,0,0,0-2.917,3.436,3.436,0,0,0-1.556-2.366c-.94-.519-2.172-.389-3.079-1.037a3.922,3.922,0,0,1-1.329-2.917,25.934,25.934,0,0,1-.194-3.857c0-1,.421-2.5,0-3.242C46.614,93.069,43.761,95.921,42.789,96.764Z" transform="translate(48.533 162.53)"/><path class="m" d="M94.631,65.978a40.94,40.94,0,0,1-3.825,12.966,1.945,1.945,0,0,1-.746,1.037,2.107,2.107,0,0,1-1.1.194l-15.105-.194c-1.2,0-2.69-.194-3.242-1.329-.486,1-1.88,1.07-2.982.94A39.157,39.157,0,0,1,53.82,75.314a115.559,115.559,0,0,1,6.289-17.148,19.027,19.027,0,0,1,3.533-5.316A18.444,18.444,0,0,1,70.611,48.7c6.483-2.334,15.721-3.63,20.681,2.366a19.449,19.449,0,0,1,3.339,14.911Z" transform="translate(74.487 55.681)"/><path class="n" d="M68.6,59.3c6.062,6.256,12.285,12.415,18.217,18.8a48.625,48.625,0,0,1,5.835-3.566c2.723-1.1,20.454-10.081,27.293-11.475a21.945,21.945,0,0,1,11.021.583,2.3,2.3,0,0,1,1.426,1c.486.972-.583,2.042-1.621,2.269a17.47,17.47,0,0,0-3.242.551,6.84,6.84,0,0,0-2.172,2.042,12.577,12.577,0,0,1-9.3,4.214c-1.459,0-2.95-.713-4.376-.616a12.966,12.966,0,0,0-5.284,2.95c-4.765,3.242-9.011,7.358-13.841,10.6a6.84,6.84,0,0,1-3.242,1.426,7.586,7.586,0,0,1-3.241-.746A56.953,56.953,0,0,1,66.625,76.285a5.056,5.056,0,0,1-1.135-1.491,5.737,5.737,0,0,1-.259-1.815c0-2.528,0-5.089,0-7.618a7.456,7.456,0,0,1,.746-3.242,2.658,2.658,0,0,1,2.917-1.361" transform="translate(100.062 83.818)"/><path class="o" d="M74.9,68.093a8.169,8.169,0,0,0,1.912,1.167,10.989,10.989,0,0,0,4.733.454,44.865,44.865,0,0,1,7.229.421,3.825,3.825,0,0,1,1.718.551,1.394,1.394,0,0,1,.583,1.556,2.236,2.236,0,0,1-.681.778,13.517,13.517,0,0,1-6.483,3.5,13.614,13.614,0,0,1-8.46-2.69l-5.316-3.241a5.672,5.672,0,0,1-2.042-1.653c-.746-1.167-.908-4.376.908-4.7S73.7,67.282,74.9,68.093Z" transform="translate(105.302 94.831)"/><path class="c" d="M89.474,58.542c-1.912-1.459-4.149-.454-6.483-.357a69.745,69.745,0,0,1-7.812,0c-4.96-.162-12.966-.681-17.537,4.733C52.2,69.4,56.475,80.1,59.3,86.905A18.834,18.834,0,0,1,61.37,92.61a25.609,25.609,0,0,1,0,6.678,26.289,26.289,0,0,1-4.959,11.929,6.062,6.062,0,0,0-1.88,4.473,5.154,5.154,0,0,0,2.917,3.241,37.083,37.083,0,0,0,17.018,5.024,37.31,37.31,0,0,0,8.3-1.07c2.464-.389,5.154.454,6.969-1.848a7.391,7.391,0,0,0,1.167-2.69c2.075-7.812,2.042-16.208,5.154-23.6,1.653-4.019,4.441-8.882,4.182-13.355A16.207,16.207,0,0,0,98.874,76.4c-1.556-3.922-3.241-7.78-5.122-11.54a17.148,17.148,0,0,0-4.279-6.321Z" transform="translate(76.078 80.362)"/><path class="n" d="M72,68.5s-1.621,4.084-12.415-1.945c0,0,2.917-.259,2.107-6.256a12.966,12.966,0,0,0-2.107-5.77,1.037,1.037,0,0,0,1.75-.486,10.6,10.6,0,0,0,.746,1.718c1.686,3.242,5.381,7.1,9.5,6a6.483,6.483,0,0,0-.389,5.122A7.781,7.781,0,0,0,72,68.5Z" transform="translate(87.421 72.028)"/><path class="o" d="M69.648,65.89H69.1c-4.052.421-8.817-11.41-8.817-11.41h.259c1.686,3.242,5.381,7.1,9.5,6a6.483,6.483,0,0,0-.389,5.413Z" transform="translate(88.967 73.014)"/><path class="n" d="M72.235,76.779c5.9.519,9.53-5.024,10.178-12.253V62.095a29.175,29.175,0,0,0-.81-7c-2.593-11.118-18.379-6.678-18.379-6.678C50.906,53.991,61.8,75.936,72.235,76.779Z" transform="translate(83.301 57.458)"/><path class="m" d="M83.223,50.577a19.059,19.059,0,0,1-.746,2.561,48.392,48.392,0,0,1-1.783,5.154,16.208,16.208,0,0,1-6.483,8.2,4.052,4.052,0,0,1-2.4.746c-.81-.162-.746-.778-1.361-1.361a1.426,1.426,0,0,0-1.588-.259,1.718,1.718,0,0,0-.648,1.426,3.89,3.89,0,0,0,1.848,3.242,8.4,8.4,0,0,1,1.491.843c.551.486.616,1.2.908,1.815l.972,2.3a4.992,4.992,0,0,1,.519,2.334,3.241,3.241,0,0,1-1.588,2.237,10.438,10.438,0,0,1-6.969.908,10.048,10.048,0,0,1-4.733-1.491,22.692,22.692,0,0,1-2.237-2.075,16.467,16.467,0,0,0-3.7-2.042A13.582,13.582,0,0,0,58.2,71.647a10.34,10.34,0,0,0,.972-8.622c-.519-1.815,0-11.475,6.807-14.684a22.2,22.2,0,0,1,13.906-1.3,4.7,4.7,0,0,1,2.334,1.07,2.593,2.593,0,0,1,1,2.464Z" transform="translate(76.527 55.069)"/><path class="n" d="M73.384,89.376l-4.506,9.951A82.594,82.594,0,0,1,55.426,74.044c-3.242-11.572,2.5-14.49,2.5-14.49,4.408-1.621,7.391,4.635,11.7,17.31C71.99,83.833,73.384,89.376,73.384,89.376Z" transform="translate(75.863 83.823)"/><path class="n" d="M58.891,82.5s-.194-8.1,3.76-9.725S94.223,66.81,94.223,66.81l2.593,3.015S69.685,85.481,58.891,82.5Z" transform="translate(85.851 100.652)"/><path class="p" d="M72.957,78.487,72.6,78.13c1.361,1.524,2.269,2.593,2.528,2.917C74.448,80.172,73.7,79.3,72.957,78.487Z" transform="translate(116.583 126.026)"/><path class="n" d="M74.507,67.183a48.624,48.624,0,0,1,7.164-.713,15.4,15.4,0,0,1,3.857.324A21.913,21.913,0,0,1,90.1,68.576c.389.194.875.454.94.908a1.07,1.07,0,0,1-.616,1,5.606,5.606,0,0,1-1.2.357c-.875.292-1.653.875-2.5,1.232-1.361.551-2.917.486-4.311.972-.875.324-1.686.875-2.561,1.232a7.877,7.877,0,0,1-5.705,0,19,19,0,0,1-1.848-.843,10.209,10.209,0,0,0-1.815-.843,1.1,1.1,0,0,1-1.037-.389,3.242,3.242,0,0,1,0-3.241,4.409,4.409,0,0,1,2.95-1.135Z" transform="translate(108.549 99.858)"/><path class="q" d="M55.574,65.956a32.416,32.416,0,0,0-1.426,6.483l-.421,2.982a3.242,3.242,0,0,0,0,1.88c.519,1.037,2.5.616,3.468.778l5.316.843,10.6,1.556a21.848,21.848,0,0,0,0-5.446c-.324-1.686-1.07-3.241-1.491-4.959s-.486-2.82-.81-4.084a12.966,12.966,0,0,0-4.83-7.131c-3.728-2.723-9.173,3.857-10.308,6.84Z" transform="translate(73.965 81.376)"/><rect class="c" width="113.258" height="101.783" transform="translate(198.972 97.542)"/><rect class="d" width="13.874" height="20.616" transform="translate(214.398 164.915) rotate(-0.26)"/><rect class="d" width="13.874" height="41.977" transform="translate(231.416 143.444) rotate(-0.26)"/><rect class="d" width="13.874" height="25.575" transform="translate(248.605 159.8) rotate(-0.26)"/><rect class="d" width="13.874" height="55.3" transform="translate(265.552 129.999) rotate(-0.26)"/><rect class="r" width="13.874" height="41.977" transform="translate(231.416 143.444) rotate(-0.26)"/><rect class="s" width="13.874" height="55.3" transform="translate(265.552 129.999) rotate(-0.26)"/><rect class="d" width="13.874" height="70.73" transform="translate(282.597 114.492) rotate(-0.26)"/><path class="d" d="M101.359,88.848,73.45,87.94l3.468,19.9,19.773.616Z" transform="translate(164.647 197.124)"/><path class="t" d="M101.359,88.848,73.45,87.94l3.468,19.9,19.773.616Z" transform="translate(164.647 197.124)"/><path class="d" d="M87.862,88.27a9.27,9.27,0,0,0-1,4.506,60.034,60.034,0,0,0,1.815,20.973c3.242,9.887,10.308,17.861,17.342,25.511-.551-.843,1.037-5.316,1.232-6.483.421-2.107.875-4.182,1.3-6.256a22.69,22.69,0,0,0-.875-9.951A47.748,47.748,0,0,0,97.587,96.73a44.343,44.343,0,0,0-9.724-8.46Z" transform="translate(147.998 148.754)"/><path class="u" d="M87.862,88.27a9.27,9.27,0,0,0-1,4.506,60.034,60.034,0,0,0,1.815,20.973c3.242,9.887,10.308,17.861,17.342,25.511-.551-.843,1.037-5.316,1.232-6.483.421-2.107.875-4.182,1.3-6.256a22.69,22.69,0,0,0-.875-9.951A47.748,47.748,0,0,0,97.587,96.73a44.343,44.343,0,0,0-9.724-8.46Z" transform="translate(147.998 148.754)"/><path class="d" d="M109.4,118.247a65.253,65.253,0,0,0,5.64-16.208,21.816,21.816,0,0,0-3.242-16.5L98.284,106.026A46.192,46.192,0,0,0,91.8,118.539a33.517,33.517,0,0,0,5.089,26.742c3.015-2.593,4.441-8.525,6.094-12.188Z" transform="translate(157.641 142.635)"/><path class="v" d="M109.4,118.247a65.253,65.253,0,0,0,5.64-16.208,21.816,21.816,0,0,0-3.242-16.5L98.284,106.026A46.192,46.192,0,0,0,91.8,118.539a33.517,33.517,0,0,0,5.089,26.742c3.015-2.593,4.441-8.525,6.094-12.188Z" transform="translate(157.641 142.635)"/><rect class="d" width="38.995" height="9.044" rx="1.4" transform="matrix(0.999, 0.032, -0.032, 0.999, 232.85, 278.042)"/><circle class="d" cx="2.301" cy="2.301" r="2.301" transform="translate(236.152 135.079)"/><circle class="d" cx="2.301" cy="2.301" r="2.301" transform="translate(216.8 157.024)"/><circle class="d" cx="2.301" cy="2.301" r="2.301" transform="translate(252.814 152.68)"/><circle class="d" cx="2.301" cy="2.301" r="2.301" transform="translate(269.345 122.859)"/><circle class="d" cx="2.301" cy="2.301" r="2.301" transform="translate(287.4 108.434)"/><path class="d" d="M68.49,83.607l-1.07-.94,19.9-22.528,16.5,18.217,16.24-29.919L138.117,33.98l.875,1.135L121.067,49.442l-16.953,31.41L87.323,62.278Z" transform="translate(151.131 76.172)"/><path class="b" d="M139.993,51.8a11.864,11.864,0,0,1-11.832,11.864H97.724a11.864,11.864,0,1,1,0-23.728H102.1a8.777,8.777,0,0,1,0-.94,10.893,10.893,0,0,1,21.783-.389V39a8.556,8.556,0,0,1,0,.94h4.376A11.831,11.831,0,0,1,140.09,51.8Z" transform="translate(146.305 13.456)"/><path class="c" d="M139.292,51.315a11.864,11.864,0,0,1-11.864,11.864H97.023a11.864,11.864,0,1,1,0-23.7h4.344v-.972a10.891,10.891,0,1,1,21.783,0h0a8.787,8.787,0,0,1,0,.94h4.344a11.9,11.9,0,0,1,11.8,11.864Z" transform="translate(143.344 12.807)"/><path class="g" d="M132.678,51.078a.972.972,0,0,1,.908,0,.939.939,0,0,1,.259.454,3.241,3.241,0,0,1-1.523,4.182,2.139,2.139,0,0,1-.778.357.778.778,0,0,1-.778-.227,1.037,1.037,0,0,1-.259-.746,3.5,3.5,0,0,1,2.172-4.019Z" transform="translate(246.198 65.136)"/><path class="d" d="M142.948,43.472a14.521,14.521,0,0,1-2.042,7.455v.195l-6.483,11.864H120.809l-5.511-12.8a14.619,14.619,0,1,1,27.65-6.71Z" transform="translate(208.731 15.756)"/><path class="w" d="M142.969,43.529a14.522,14.522,0,0,1-2.042,7.455v.194l-6.483,11.864H120.829l-5.511-12.8a14.652,14.652,0,0,1,4.6-18.671,14.636,14.636,0,0,1,23.047,11.961Z" transform="translate(208.711 15.699)"/><path class="x" d="M135.708,41.783c-.324,6.483-6.029,19.806-6.029,19.806h-8.849l-5.511-12.8a14.652,14.652,0,0,1,4.6-18.671,12.156,12.156,0,0,1,15.786,11.669Z" transform="translate(208.711 17.153)"/><path class="d" d="M101.817,24.28H115.2v4.376a6.483,6.483,0,0,1-6.483,6.483h-.648a6.483,6.483,0,0,1-6.483-6.483V24.28Z" transform="translate(227.723 54.429)"/><path class="d" d="M119.233,51.122a.486.486,0,0,1-.519-.421c-2.172-11.378-2.5-13.128-2.561-13.387h0a.519.519,0,0,1,.421-.583h1.394c.778,0,1.037,0,1.167-.583a1.2,1.2,0,0,1,.389-.746.94.94,0,0,1,1.264.162,1.653,1.653,0,0,1,.389.843l.389,1.524V37.7a2.334,2.334,0,0,1,.389-.94,1.329,1.329,0,0,1,1.1-.421,1.426,1.426,0,0,1,.94.454,5.526,5.526,0,0,1,.519-1.718c.195-.551.648-.681.746-.616a.746.746,0,0,1,.713.616,6.484,6.484,0,0,1,.227,1.394,1.135,1.135,0,0,0,0,.421h1.718a.407.407,0,0,1,.389.616l-2.626,13.42a.519.519,0,1,1-1-.194l2.5-12.8h-.519c-.389,0-1.07.194-1.426-.357A1.848,1.848,0,0,1,125,36.7h0a7.03,7.03,0,0,1-.227.778c-.194.746-.681.908-1.037.843a1,1,0,0,1-.648-.519s0-.195-.259-.195a.227.227,0,0,0-.227,0,1.361,1.361,0,0,0-.194.486,3.242,3.242,0,0,1-.292.843,1,1,0,0,1-1.2.389,1.232,1.232,0,0,1-.519-.778l-.421-1.75a.454.454,0,0,0,0-.195,1.945,1.945,0,0,1-2.139,1.329h-.681c.486,2.658,2.431,12.8,2.431,12.8a.486.486,0,0,1-.389.583Z" transform="translate(214.197 28.106)"/></g></svg>