<svg xmlns="http://www.w3.org/2000/svg" xmlns:xlink="http://www.w3.org/1999/xlink" width="372.212" height="306.03" viewBox="0 0 372.212 306.03"><defs><style>.a,.b{fill:#ffbaad;}.a{opacity:0.18;isolation:isolate;}.c{fill:url(#a);}.d{fill:url(#b);}.e{fill:url(#c);}.f{fill:#473f47;}.g{fill:#fcbdba;}.h{fill:#f6a569;}.i{fill:url(#d);}.j{fill:url(#e);}.k{fill:url(#f);}.l{fill:url(#g);}.m{fill:url(#h);}</style><linearGradient id="a" x1="0.512" y1="-2.118" x2="0.476" y2="6.005" gradientUnits="objectBoundingBox"><stop offset="0.01"/><stop offset="0.13" stop-opacity="0.69"/><stop offset="0.25" stop-opacity="0.322"/><stop offset="1" stop-opacity="0"/></linearGradient><linearGradient id="b" x1="-2.213" y1="-2.433" x2="8.903" y2="9.594" xlink:href="#a"/><linearGradient id="c" x1="0.029" y1="-2.426" x2="1.466" y2="6.502" xlink:href="#a"/><linearGradient id="d" x1="0.845" y1="-0.334" x2="-0.123" y2="1.833" xlink:href="#a"/><linearGradient id="e" x1="-0.647" y1="0.033" x2="1.853" y2="1.066" xlink:href="#a"/><linearGradient id="f" x1="-0.759" y1="-0.953" x2="1.853" y2="2.354" xlink:href="#a"/><linearGradient id="g" x1="-0.775" y1="-0.013" x2="2.082" y2="1.317" xlink:href="#a"/><linearGradient id="h" x1="-0.079" y1="2.111" x2="1.612" y2="-1.798" xlink:href="#a"/></defs><g transform="translate(-0.003 -0.006)"><path class="a" d="M391.06,260.79c-3.24,16-10.38,31.11-22.58,41.71-19.85,17.26-48.82,19.25-74.89,15.69S242,306.4,215.66,306.43c-34.73,0-65.21,21.85-98.08,21.41-30.33-.4-60.19-17.6-77.44-42.2q-1.55-2.2-3-4.49c-.29-.45-.56-.91-.84-1.36-.74-1.23-1.44-2.45-2.11-3.69-.31-.56-.61-1.14-.9-1.71s-.64-1.24-.95-1.87c0-.06-.06-.1-.08-.15-.32-.63-.61-1.26-.91-1.91A107.509,107.509,0,0,1,24.74,252a118.44,118.44,0,0,1,3.41-70.37q1.11-3,2.41-6c4.25-9.75,10.05-18.88,18.06-25.83,16.16-14,38.74-17.42,58.17-26.44A131.75,131.75,0,0,0,133,106.84c28.3-22.43,50.63-53.93,82.53-71.49a111,111,0,0,1,44.19-13.11,125.61,125.61,0,0,1,74.42,17.17c51.69,30.93,41.62,85.16,50.81,137.47,3.84,21.84,8.84,43.72,8.15,65.87A107.894,107.894,0,0,1,391.06,260.79Z" transform="translate(-20.95 -21.81)"/><rect class="b" width="233.67" height="113.83" transform="translate(94.46 131.92)"/><rect class="c" width="206.37" height="85.03" transform="translate(108.09 146.13)"/><circle class="b" cx="32.53" cy="32.53" r="32.53" transform="translate(173.42 155.23)"/><path class="d" d="M223.43,234.55l.24-6a17,17,0,0,1-8.91-3l1.56-3.89a15.73,15.73,0,0,0,8.34,2.87c4.22.16,7.12-2.13,7.26-5.49s-2.09-5.34-6.37-7.3c-5.93-2.6-9.53-5.46-9.33-10.58.19-4.89,3.81-8.46,9.28-9.13l.23-6,3.66.14-.23,5.71a16,16,0,0,1,7.58,2.37l-1.6,3.9a14.23,14.23,0,0,0-7.35-2.31c-4.54-.18-6.35,2.47-6.44,4.82-.12,3.06,2,4.68,7,7,6,2.71,8.92,5.9,8.71,11.14-.18,4.66-3.6,8.9-9.7,9.66l-.25,6.13Z" transform="translate(-20.95 -21.81)"/><circle class="b" cx="8.32" cy="8.32" r="8.32" transform="translate(133.24 180.52)"/><circle class="b" cx="8.32" cy="8.32" r="8.32" transform="translate(262.01 180.52)"/><circle class="b" cx="13.64" cy="13.64" r="13.64" transform="translate(300.82 132.49)"/><circle class="b" cx="13.64" cy="13.64" r="13.64" transform="translate(300.84 217.49)"/><circle class="b" cx="13.64" cy="13.64" r="13.64" transform="translate(94.44 132.49)"/><circle class="b" cx="13.64" cy="13.64" r="13.64" transform="translate(94.46 217.49)"/><path class="e" d="M239,153.73s-23.3,72.74-92.38,48.52l-12.2-6.2-19,16.95V153.73Z" transform="translate(-20.95 -21.81)"/><path class="b" d="M105.81,135.26a65,65,0,1,1,65,65,65,65,0,0,1-65-65Zm7.71,0a57.32,57.32,0,1,0,57.32-57.32,57.32,57.32,0,0,0-57.32,57.32Z" transform="translate(-20.95 -21.81)"/><path class="b" d="M82.77,231.59a6.59,6.59,0,0,0,4.7-2l42.61-43.25a6.6,6.6,0,1,0-9.41-9.27L78.06,220.34a6.61,6.61,0,0,0,4.71,11.25Z" transform="translate(-20.95 -21.81)"/><path class="f" d="M62.35,245.33a7.79,7.79,0,0,0,11-.08l50.17-50.91a7.191,7.191,0,0,0,.76-.91,6.178,6.178,0,0,0,.36-.53,3.38,3.38,0,0,0-.32-3.9,28.859,28.859,0,0,0-3.17-3.23,27.09,27.09,0,0,0-4.25-3.09,3.45,3.45,0,0,0-4,.34h0a3.789,3.789,0,0,0-.43.39l-50.16,50.9a7.77,7.77,0,0,0,.04,11.02Z" transform="translate(-20.95 -21.81)"/><path class="b" d="M78.31,288a11,11,0,0,1,2,.22,2.46,2.46,0,0,1,1.58,1.14,2.54,2.54,0,0,1-1,3.1,6.07,6.07,0,0,1-3.38.74,5,5,0,0,1-2.17-.37c-.84-.42-1.55-1.3-2.48-1.19a3.9,3.9,0,0,0-1.15.46,3,3,0,0,1-3.9-1.22,3.69,3.69,0,0,1-.31-1.35c-.12-1.49.37-3.21,1.68-3.84,1.57-.75,2.53.13,3.78.84A13.23,13.23,0,0,0,78.31,288Z" transform="translate(-20.95 -21.81)"/><path class="g" d="M78.58,279.9l-5,7.89s-2.21.83-3.53,0L68.73,287l3.37-11.68Z" transform="translate(-20.95 -21.81)"/><path class="f" d="M93.93,222.24s-2.05,22.61-3,28C88.83,261.79,79.4,280,79.4,280s-5.93,1.37-7.36-1.77l-.81-1.79s10.24-24.15,4.61-44.39a13.721,13.721,0,0,1-.33-1.81,38.73,38.73,0,0,1-.28-7.05Z" transform="translate(-20.95 -21.81)"/><path class="b" d="M96.2,290.94a10.509,10.509,0,0,1,2-.14,2.54,2.54,0,0,1,1.79.85,2.6,2.6,0,0,1-.49,3.3,6.1,6.1,0,0,1-3.24,1.35,5,5,0,0,1-2.24,0c-.92-.27-1.79-1-2.69-.75a3.85,3.85,0,0,0-1.08.68,3,3,0,0,1-4.12-.52,4,4,0,0,1-.56-1.3c-.38-1.47-.21-3.28,1-4.15,1.43-1,2.55-.32,3.93.16A13.48,13.48,0,0,0,96.2,290.94Z" transform="translate(-20.95 -21.81)"/><path class="g" d="M95,282.74l-3.59,8.8s-2.06,1.24-3.53.69l-1.46-.55,1.26-12.3Z" transform="translate(-20.95 -21.81)"/><path class="g" d="M121.68,193.2c.24-.32.55-.67.94-.62.23,0,.45.21.68.15a.77.77,0,0,0,.35-.27,11.21,11.21,0,0,1,1.82-1.56,3.25,3.25,0,0,1,1.42-.72,1.94,1.94,0,0,1,1.83,1,3.31,3.31,0,0,1,.23,2.24,8.35,8.35,0,0,1-.88,2.09,6.63,6.63,0,0,1-.92,1.34c-1.15,1.2-2.94,1.4-4.41,2.14a1.19,1.19,0,0,1-.51.17,1,1,0,0,1-.75-.54,5.62,5.62,0,0,1-1-2.75A4.71,4.71,0,0,1,121.68,193.2Z" transform="translate(-20.95 -21.81)"/><path class="g" d="M107.38,183.66a.72.72,0,0,1,.52.05,1.421,1.421,0,0,1,.24.25c.31.34.82.35,1.23.53a2.11,2.11,0,0,1,1.06,1.35,6.61,6.61,0,0,1,.19,1.78,2.5,2.5,0,0,1-.1.94.78.78,0,0,1-.69.54,1.55,1.55,0,0,1-.69-.29,2.05,2.05,0,0,0-1.37-.22,7.25,7.25,0,0,0-1.72.8,1.76,1.76,0,0,1-1.8,0,2,2,0,0,1-.56-.8c-.5-1.08-1.06-2.32-.06-3.21A7.41,7.41,0,0,1,107.38,183.66Z" transform="translate(-20.95 -21.81)"/><path class="f" d="M100,222.27s2,23,2,28.56c0,11.94-6.15,31.88-6.15,31.88s-5.69,2.44-7.68-.45L87,280.61s5.89-26-3.4-45.25a12.341,12.341,0,0,1-.64-1.75,39.41,39.41,0,0,1-1.56-7Z" transform="translate(-20.95 -21.81)"/><path class="g" d="M97.21,163.57a14.47,14.47,0,0,1,1.44,4.87,4.86,4.86,0,0,1-2,4.44,5.86,5.86,0,0,0-1.16.74c-1.22,1.26.19,3.54-.53,5.17a3.94,3.94,0,0,1-3,2.08,6,6,0,0,1-3-.49,2,2,0,0,1-1.32-1.18,2.67,2.67,0,0,1,.17-1.27c.89-3.43-1.4-7-1-10.5.37-3,3.67-8.74,7.34-8.21C96.08,159.47,96.59,162.14,97.21,163.57Z" transform="translate(-20.95 -21.81)"/><path class="b" d="M122.6,199.9s-14,12.47-14.95,12.47-5.39-5.57-6.79-7.31l-.4-.52-.5,17.73a42.3,42.3,0,0,1-5.37,2.66A27.061,27.061,0,0,1,86.93,227a13.189,13.189,0,0,1-2.51,0c-6.79-.62-9.77-2.89-9.77-2.89l3.5-35a13.29,13.29,0,0,1,8.48-11.23,4.72,4.72,0,0,1,2.79-.39,16.59,16.59,0,0,0,5.85,0c3.9-.52,7.88,4.81,7.88,4.81l5.19,17,12.17-4.33a4.68,4.68,0,0,1,2.09,4.93Z" transform="translate(-20.95 -21.81)"/><path class="h" d="M95.33,161.84c-.79.73-1.58,1.19-1.92,2.27a7.15,7.15,0,0,0-.24,2.48.361.361,0,0,1-.31-.25.66.66,0,0,0-.19-.37.36.36,0,0,0-.5.21,1,1,0,0,0,0,.62c.33,1.33.77,2.62,1,4a.975.975,0,0,0,.08.47,3.08,3.08,0,0,1-.07,1.32,3.14,3.14,0,0,1-.72,1.09,2.47,2.47,0,0,1-.69.64,2.67,2.67,0,0,1-.8.25,9.85,9.85,0,0,1-2.71-.06,7.59,7.59,0,0,1-2.2-.57,8.913,8.913,0,0,1-1.25-.74,18.9,18.9,0,0,1-2.68-2.2c-2-1.87-2.66-5.61-2.62-8.23v-.83h0a8.09,8.09,0,0,1,.56-2.39,8.56,8.56,0,0,1,3.91-4c3.5-1.89,8.71-2.85,12,.18a2.59,2.59,0,0,1,.44.51C97.45,157.78,96.56,160.7,95.33,161.84Z" transform="translate(-20.95 -21.81)"/><path class="i" d="M93.19,172.55a3.14,3.14,0,0,1-.72,1.09,2.47,2.47,0,0,1-.69.64,2.67,2.67,0,0,1-.8.25,9.85,9.85,0,0,1-2.71-.06,7.59,7.59,0,0,1-2.2-.57,8.91,8.91,0,0,1-1.25-.74,18.9,18.9,0,0,1-2.68-2.2c-2-1.87-2.66-5.61-2.62-8.23v-.83h0c.75-.58,1.66-.91,2.31-.22a5.7,5.7,0,0,1,.84,2.05,15.22,15.22,0,0,0,1.18,2.48,7.14,7.14,0,0,0,1.73,2.09,9.21,9.21,0,0,0,4.17,1.51,3.72,3.72,0,0,0-.16-1.9A10.36,10.36,0,0,0,92,170c.4.26.83.5,1.23.8a.975.975,0,0,0,.08.47,3.08,3.08,0,0,1-.12,1.28Z" transform="translate(-20.95 -21.81)"/><path class="b" d="M80.66,158.31a5.41,5.41,0,0,0-1.59-.42.63.63,0,0,0-.59.14,5.06,5.06,0,0,0-1.61,3.06,2.68,2.68,0,0,0,0,1.51,2.07,2.07,0,0,0,.6.81,3.13,3.13,0,0,0,3.94.21C82.9,162.33,82.45,159.17,80.66,158.31Z" transform="translate(-20.95 -21.81)"/><path class="h" d="M71.13,184.85a1.87,1.87,0,0,1,.34-.91,8.649,8.649,0,0,0-.34.91Z" transform="translate(-20.95 -21.81)"/><path class="h" d="M77.53,178a3.88,3.88,0,0,0-1.06-2.9,6.61,6.61,0,0,1-2.56,7c-.56.38-1.19.68-1.72,1.1a3.841,3.841,0,0,0-.71.74,8.91,8.91,0,0,0,.87-2.87A2.42,2.42,0,0,0,72.2,180a1.49,1.49,0,0,0-.29-.46,6.422,6.422,0,0,0-.59-.57A31.86,31.86,0,0,1,67,173.82a20.09,20.09,0,0,1-3.62-6.51,12.14,12.14,0,0,1,.24-6.57,10.83,10.83,0,0,1,3.61-5.6,8.22,8.22,0,0,1,7-1s6.05,1.17,5.12,5.7c-.24,1.14-.51,2.21-.71,3.23-.64,3.06-.83,5.72,1.49,8.74C81.63,173.7,79.78,177.06,77.53,178Z" transform="translate(-20.95 -21.81)"/><path class="j" d="M71.13,184.85a1.87,1.87,0,0,1,.34-.91,8.649,8.649,0,0,0-.34.91Z" transform="translate(-20.95 -21.81)"/><path class="k" d="M77.53,178a3.88,3.88,0,0,0-1.06-2.9,6.61,6.61,0,0,1-2.56,7c-.56.38-1.19.68-1.72,1.1a3.841,3.841,0,0,0-.71.74,8.91,8.91,0,0,0,.87-2.87A2.42,2.42,0,0,0,72.2,180a1.49,1.49,0,0,0-.29-.46,9.19,9.19,0,0,0,1.24-4.17c.09-3-1.69-5.93-1.4-9a11.67,11.67,0,0,0,3.81,3.75c-.65-1.65,1.09-7.82,3.09-7.13-.64,3.06-.83,5.72,1.49,8.74C81.63,173.7,79.78,177.06,77.53,178Z" transform="translate(-20.95 -21.81)"/><path class="l" d="M100.86,205.06l-.4-.52-.5,17.73a42.3,42.3,0,0,1-5.37,2.66A27.061,27.061,0,0,1,86.93,227a8.7,8.7,0,0,1,2.53-5.52c.94-.93,2.11-1.65,3-2.65a11.29,11.29,0,0,0,2.19-4.76c1.7-6.66,1.53-13.63,1.36-20.49,1,2.57,2,5.17,3,7.7C99.57,202.57,100.4,203.74,100.86,205.06Z" transform="translate(-20.95 -21.81)"/><path class="b" d="M218.04,131.92l47.75-50.47L249.66,66.57l54.28.92,2.46,45.96-13.02-11.23-30.07,29.7Z"/><path class="m" d="M218.04,131.92l47.75-50.47L249.66,66.57l54.28.92,2.46,45.96-13.02-11.23-30.07,29.7Z"/></g></svg>