<svg xmlns="http://www.w3.org/2000/svg" xmlns:xlink="http://www.w3.org/1999/xlink" width="669.651" height="490.677" viewBox="0 0 669.651 490.677"><defs><style>.a,.c{fill:#ffbaad;}.a{opacity:0.24;isolation:isolate;}.b{fill:url(#a);}.d{fill:url(#b);}.e{fill:url(#c);}.f{fill:#f5e0cd;}.g{fill:#efd2bb;}.h{fill:#fff;}.i{fill:none;stroke:#000;stroke-miterlimit:10;stroke-width:1.43px;}.j{fill:#606161;}.k{fill:url(#d);}.l{fill:url(#e);}.m{fill:url(#f);}.n{fill:url(#g);}.o{fill:url(#h);}</style><linearGradient id="a" y1="0.5" x2="1" y2="0.5" gradientUnits="objectBoundingBox"><stop offset="0" stop-color="#010101" stop-opacity="0"/><stop offset="0.95" stop-color="#010101"/></linearGradient><linearGradient id="b" x1="-0.766" y1="-0.686" x2="0.195" y2="-0.686" xlink:href="#a"/><linearGradient id="c" x1="-1.124" y1="-1.176" x2="-0.166" y2="-5.815" xlink:href="#a"/><linearGradient id="d" x1="-1.796" y1="-2.68" x2="1.465" y2="-0.024" xlink:href="#a"/><linearGradient id="e" x1="0" y1="0.501" y2="0.501" xlink:href="#a"/><linearGradient id="f" y1="0.5" x2="1" y2="0.5" gradientUnits="objectBoundingBox"><stop offset="0" stop-color="#fff" stop-opacity="0"/><stop offset="0.95" stop-color="#fff"/></linearGradient><linearGradient id="g" x1="0.472" y1="-0.016" x2="0.801" y2="3.066" xlink:href="#a"/><linearGradient id="h" x1="0.317" y1="0.81" x2="1.414" y2="-1.432" xlink:href="#a"/></defs><g transform="translate(0.002 0)"><path class="a" d="M215.18,34.83C193.79,44.48,173.25,57.11,158.1,75c-20.95,24.76-30.28,57.94-52.26,81.79-28.1,30.49-74.3,43-94.7,79.06C3.37,249.63.25,265.54-1.09,281.29-6.2,341.22,17,406.74,68.62,437.63c20.5,12.26,44.11,18.5,64.85,30.36,18.42,10.53,34.45,25.43,54.25,33.05,34.93,13.43,74.48,1.66,107.9-15.17S360.53,447,396.93,438.29c47-11.18,96,1.3,144.26,1.86s103.94-17.27,120.14-62.76c5.08-14.27,5.61-29.69,6.08-44.83.88-28.36,1.61-57.66-9-84C644,212.45,609.9,186.25,598.33,149.1c-6.1-19.61-5.66-41.57-16.38-59.09-14.1-23.07-43.37-31.7-70.31-34C468.86,52.32,423,59.16,385.2,38.75,330.86,9.4,271.69,9.32,215.18,34.83Z" transform="translate(1.78 -16.19)"/><path class="b" d="M374.48,319.1a8,8,0,0,0-.17-2h0l20.25-3.23-5.38-44L362.71,274a90,90,0,0,0-19.2-23.52h-.05l13.59-20.06V219l-35.74-14.8-17.53,25.67a86.051,86.051,0,0,0-20.87-2.5,5.851,5.851,0,0,0-1.66.16l-7.94-27.8-43-.76v11.37l8,28.6a92.319,92.319,0,0,0-26.08,21.4L189.69,245.7l-25.44,24.91V282L193,300.76a94.341,94.341,0,0,0-1.83,18.34,38.836,38.836,0,0,0,.34,6.36l-29.81-4v11.37l9,43.36,34.49-8.38h0a91.06,91.06,0,0,0,13.22,16.74l-15.4,17.05V413l38.19,22.5L256.79,407h0a91.361,91.361,0,0,0,24.6,3.85h0l10.88,30.23,42.2-13.47V416.23l-9.59-15.6h0a89.541,89.541,0,0,0,21-15l20.8,13L391.59,362V350.63l-21.94-2.48a88.751,88.751,0,0,0,4.83-29.05Zm-91.57,45.2a45.2,45.2,0,1,1,45-45.2,45.2,45.2,0,0,1-45,45.2Z" transform="translate(1.78 -16.19)"/><path class="c" d="M374.48,307.74a8,8,0,0,0-.17-2h0l20.25-3.23-5.38-44-26.47,4.13a90.16,90.16,0,0,0-19.2-23.53h-.05L357.05,219l-35.74-26.17L303.78,218.5a86.552,86.552,0,0,0-20.87-2.5,5.52,5.52,0,0,0-1.66.17l-7.94-27.8-43,10.6,8,28.6A92.18,92.18,0,0,0,212.27,249l-22.58-14.64-25.44,36.27L193,289.39a94.361,94.361,0,0,0-1.83,18.35,38.836,38.836,0,0,0,.34,6.36l-29.81,7.36,9,43.37,34.49-8.39h0a90.72,90.72,0,0,0,13.22,16.74l-15.4,28.42,38.14,22.52,15.59-28.5h0a91.358,91.358,0,0,0,24.6,3.85h0l10.88,30.22,42.2-13.47-9.59-27h0a89.21,89.21,0,0,0,21-15l20.8,13,24.86-36.66-21.94-13.85a88.64,88.64,0,0,0,4.93-28.97Zm-91.57,45.2a45.2,45.2,0,1,1,45-45.2A45.2,45.2,0,0,1,282.91,352.94Z" transform="translate(1.78 -16.19)"/><path class="d" d="M489.37,356.89a4.18,4.18,0,0,0,.29-1h0l10.27,2.27,5.73-22-13.41-3a46.189,46.189,0,0,0-4.72-14.85h0l10.27-7,2.14-5.43L485.67,292l-13.21,9a44.581,44.581,0,0,0-9.49-5.13,2.86,2.86,0,0,0-.82-.23l1.45-14.77-20.38-8.48-2.15,5.43-1.55,15.17A47.371,47.371,0,0,0,423,298.23L415,287l-16.84,7.09-2.16,5.4,10.18,14.39a48.38,48.38,0,0,0-4.34,8.42,20.054,20.054,0,0,0-1,3.09l-13.47-7.53-2.14,5.42-3.87,22.41,18,2.5h0a46.782,46.782,0,0,0,3.16,10.49L392,363.92l-2.14,5.42,14,18,12.82-10.66h0a46.8,46.8,0,0,0,11,6.48h0l-.52,16.48,22.69,1.53,2.14-5.42-1.63-9.26h0a46,46,0,0,0,12.85-3.19l7.47,10.14,18.79-12.81,2.14-5.43-10-5.32a45.778,45.778,0,0,0,7.76-12.99Zm-52.24,4.29a23.2,23.2,0,1,1,30-13.07,23.2,23.2,0,0,1-30,13.07Z" transform="translate(1.78 -16.19)"/><path class="c" d="M491.51,351.47a4.14,4.14,0,0,0,.3-1h0l10.28,2.28,5.73-22-13.41-3a46.62,46.62,0,0,0-4.73-14.85h0l10.26-7-12.12-19.23-13.2,8.94a44.619,44.619,0,0,0-9.49-5.13,3.311,3.311,0,0,0-.83-.24l1.46-14.76-22.53-3.06-1.55,15.17a47.32,47.32,0,0,0-16.49,5.3l-8-11.25-19,12.51,10.17,14.39a49.31,49.31,0,0,0-4.33,8.41,20.529,20.529,0,0,0-1,3.1l-15.62-2.11-3.87,22.4,18.05,2.51h0a46.517,46.517,0,0,0,3.15,10.48L392,363.92l14,17.95,12.82-10.67h0a47,47,0,0,0,11,6.49h0l-.51,16.48L452,395.71l.51-14.68h0a46.459,46.459,0,0,0,12.86-3.19L472.8,388l18.78-12.81-7.86-10.74a45.461,45.461,0,0,0,7.79-12.98Zm-52.24,4.29a23.2,23.2,0,1,1,30-13.08A23.2,23.2,0,0,1,439.27,355.76Z" transform="translate(1.78 -16.19)"/><path class="c" d="M344.2,199a32.79,32.79,0,0,0-12.25-.4,3.57,3.57,0,0,0-2.6,1.26,2.48,2.48,0,0,0,.13,2.62,6.22,6.22,0,0,0,2,1.83c5.66,3.54,12.43,4.76,19,5.9a2.2,2.2,0,0,0,1.11,0c.68-.25.93-1.07,1.08-1.79l2.06-9.72a1.56,1.56,0,0,0,0-.83,1.44,1.44,0,0,0-.44-.6c-1.32-1.23-4.79-3.24-6.63-2.08S347.1,199.65,344.2,199Z" transform="translate(1.78 -16.19)"/><path class="e" d="M344.2,199a32.79,32.79,0,0,0-12.25-.4,3.57,3.57,0,0,0-2.6,1.26,2.48,2.48,0,0,0,.13,2.62,6.22,6.22,0,0,0,2,1.83c5.66,3.54,12.43,4.76,19,5.9a2.2,2.2,0,0,0,1.11,0c.68-.25.93-1.07,1.08-1.79l2.06-9.72a1.56,1.56,0,0,0,0-.83,1.44,1.44,0,0,0-.44-.6c-1.32-1.23-4.79-3.24-6.63-2.08S347.1,199.65,344.2,199Z" transform="translate(1.78 -16.19)"/><path class="c" d="M445.42,76.76s10.87,6.73,12.07,8.07S445,155.25,444.27,158.62s-20-3.13-27.85-5.84-15.13-15.66-15.13-15.66,8.81-59.48,10.57-60.52S429.7,73,429.7,73Z" transform="translate(1.78 -16.19)"/><path class="c" d="M415,75.57s-4.11.56-6.44,2.57-22.35,27.42-21.28,33.52,7.37,8.85,9.51,8,7.34-8.37,8.35-10.59,14.77-19.71,14.77-19.71Z" transform="translate(1.78 -16.19)"/><path class="f" d="M446.93,70s-2.11,7.28-1.7,10.15S440.66,90.72,435,90.4s-5.14-10-5.07-11.09,1.79-1.6,1.38-4.47S446.56,66.59,446.93,70Z" transform="translate(1.78 -16.19)"/><path class="g" d="M431.3,74.84a4.41,4.41,0,0,1-1.12,3.77,7.11,7.11,0,0,0,4.55,2.32c3.41.19,8.67-2.36,11.22-7.34l.14-.27c.43-1.86.84-3.3.84-3.3C446.56,66.59,430.9,72,431.3,74.84Z" transform="translate(1.78 -16.19)"/><path class="h" d="M445.18,79.1S440,89.55,436.05,90.46c0,0-1.09.51,1.65,2.37s11.15-6.2,10.37-12.51a4.67,4.67,0,0,0-2.63-3.77Z" transform="translate(1.78 -16.19)"/><path class="h" d="M431.24,76s-1.7,7.8,1.18,13.4c0,0-1.47,1.95-2.6,1.88s-3.59-7-2.17-12.06C428.48,76.24,430.72,75.13,431.24,76Z" transform="translate(1.78 -16.19)"/><path class="i" d="M457.63,123" transform="translate(1.78 -16.19)"/><path class="j" d="M443.7,158.59l-4.2,44.71L434,271.82s-3,2.68-10.33,1.7l-2.76-73-6.81-33.69L377,161.29a5.45,5.45,0,0,0-6.85,3L355,199.88s-5.95-2.77-9.6-4.12l12.53-49.56a8.16,8.16,0,0,1,10.14-5.85l35.57-2.93Z" transform="translate(1.78 -16.19)"/><path class="f" d="M429.14,52.53s-2,14.68-1.05,18.72,4.13,7.62,7.53,7.81,8.67-2.36,11.22-7.34,4.38-17.39,3.91-19.12-3.6-7.29-12.7-7C431.78,45.85,429.26,50.26,429.14,52.53Z" transform="translate(1.78 -16.19)"/><path class="j" d="M434.47,48.07l-1.13,2.47a1.56,1.56,0,0,1-1.86,1.09,22.866,22.866,0,0,1-2.34-.08,1.47,1.47,0,0,1-.82-.23c-.59-.48-.75-1.82-1.09-2.5a5.37,5.37,0,0,1-.94-2.9,3.71,3.71,0,0,1,.65-1.61,6.77,6.77,0,0,1,2.11-2,7.131,7.131,0,0,0,1.05-.66,6.919,6.919,0,0,0,1.09-1.47,7.19,7.19,0,0,1,9.91-2c.94.61,1.94,1.5,3,1.22.39-.1.73-.34,1.11-.47a4,4,0,0,1,1.87,0,11.25,11.25,0,0,1,4.37,1.42c1.71,1.15,2.65,3.14,4.1,4.6,1.1,1.1,2.49,1.9,3.49,3.08s1.54,3,.64,4.28c-.77,1.08-2.34,1.41-3,2.56-.32.55-.37,1.22-.68,1.78a6.822,6.822,0,0,1-1.3,1.39,8,8,0,0,0-1.18,2.05,22.539,22.539,0,0,1-1.77,2.57c-.3.38-.69.8-1.17.74s-.85-.81-.94-1.42a49.113,49.113,0,0,1-.53-5.93,5.44,5.44,0,0,0-.24-1.85,4.73,4.73,0,0,0-1.75-2,23.21,23.21,0,0,0-7.85-3.82c-.81-.22-1.63-.39-2.45-.61a2.93,2.93,0,0,0-2.25,0" transform="translate(1.78 -16.19)"/><path class="f" d="M449.08,62.18s.75-3.37,3-2.11-1,7.34-2.14,7.84a3.32,3.32,0,0,1-1.72.39" transform="translate(1.78 -16.19)"/><path class="c" d="M373,135.92a3,3,0,0,0,.07,1.71,2.49,2.49,0,0,0,1.07,1.06c3.1,1.86,7.26.81,10.08-1.44s4.66-5.48,6.59-8.54c1.71-2.7,3.54-5.33,5.49-7.86.73-1,1.52-2.15,1.08-3.27a3.43,3.43,0,0,0-.87-1.14c-6.4-6.28-2.74-15.4-8.33-8.5C383.79,113.32,374.07,129.07,373,135.92Z" transform="translate(1.78 -16.19)"/><path class="f" d="M365.57,136.4a6.33,6.33,0,0,0-2.38,3.9c-.15,1.55,1,3.28,2.59,3.19a5.94,5.94,0,0,0,1.92-.67c1.93-.81,4.09-.72,6.17-.86s4.33-.62,5.69-2.2a4.72,4.72,0,0,0,.82-4.61C378,128.6,368.91,133.39,365.57,136.4Z" transform="translate(1.78 -16.19)"/><path class="c" d="M422.84,279.73a43.931,43.931,0,0,0-3.94,5.08,13,13,0,0,0-2.06,4.28,3.88,3.88,0,0,0,0,2.11,3.31,3.31,0,0,0,2.11,1.92,7.36,7.36,0,0,0,2.92.25,20.67,20.67,0,0,0,10.81-4,8.2,8.2,0,0,0,2.69-3,7.45,7.45,0,0,0,.14-4.74c-.39-1.56-1-3.05-1.49-4.6a48.257,48.257,0,0,1-1-4.84.57.57,0,0,0-.6-.54c-2-.28-5.38-.47-6.64,1.57a9.17,9.17,0,0,0-.84,2.66,8.38,8.38,0,0,1-2.1,3.85Z" transform="translate(1.78 -16.19)"/><path class="k" d="M422.82,280a44.89,44.89,0,0,0-3.95,5.08,13.23,13.23,0,0,0-2.06,4.28,4,4,0,0,0,0,2.11,3.33,3.33,0,0,0,2.11,1.92,7.36,7.36,0,0,0,2.92.25,20.67,20.67,0,0,0,10.81-4,8,8,0,0,0,2.69-3.05,7.32,7.32,0,0,0,.14-4.74c-.39-1.56-1.05-3-1.49-4.6s-.66-3.23-1-4.84a.73.73,0,0,0-.16-.37.741.741,0,0,0-.44-.16c-2.05-.29-5.38-.48-6.64,1.56a9.93,9.93,0,0,0-.84,2.66,8.45,8.45,0,0,1-2.09,3.9Z" transform="translate(1.78 -16.19)"/><path class="c" d="M465.5,91.8c4.2,5,5.7,7.23,9.66,12.43.25-11.55,3.08-20.23,3.33-31.78a2.19,2.19,0,0,1,.58-1.77,2.1,2.1,0,0,1,1.38-.28,33.579,33.579,0,0,1,7.33,1,2.06,2.06,0,0,1,1.21.63,2.14,2.14,0,0,1,.24,1.42q-1.07,16.06-2.12,32.12a83.519,83.519,0,0,1-1.92,15.13c-.6,2.34-1.59,4.85-3.76,5.92-2.81,1.38-6.12-.31-8.64-2.17-8.06-5.92-14.38-13.84-20.6-21.67a7.62,7.62,0,0,1-1.53-2.52,7.94,7.94,0,0,1,0-3.53c.48-3.14.32-12.16,4.54-12.61C458.93,83.78,463.48,89.38,465.5,91.8Z" transform="translate(1.78 -16.19)"/><path class="f" d="M476.86,65.21c-.18-2.33-.33-4.81.76-6.88a12.614,12.614,0,0,0,.74-1.41,6,6,0,0,0,.3-1.9c.13-2.94.16-6,1.38-8.68.23-.51.61-1.07,1.17-1.08s1.06.82,1.22,1.5a33.241,33.241,0,0,1,.86,6.81,1.76,1.76,0,0,0,.3,1.16,1.53,1.53,0,0,0,.69.39,7,7,0,0,1,2.85,1.29c.43.43.69,1,1.1,1.45a11.319,11.319,0,0,0,1.5,1.16A6.55,6.55,0,0,1,492,63.59a11.651,11.651,0,0,1-.87,5.14c-.68,1.78-1.75,3.59-3.54,4.25a8.08,8.08,0,0,1-3.79.13C479.41,72.55,477.18,69.53,476.86,65.21Z" transform="translate(1.78 -16.19)"/><path class="c" d="M290.33,147.5s2.71,5.23,4.45,6,16.59.83,18,.19,4.26-6.45,4.26-6.45Z" transform="translate(1.78 -16.19)"/><path class="l" d="M290.33,147.5s2.71,5.23,4.45,6,16.59.83,18,.19,4.26-6.45,4.26-6.45Z" transform="translate(1.78 -16.19)"/><path class="c" d="M322.74,122a2.09,2.09,0,0,0-.05.91c.91,4.69-26.33,27.59-35.47,1.82a42.72,42.72,0,0,1-1.77-6.83s-23.91-49.43-7.32-71S331.75,28,343.06,57.47C351.45,79.27,324.4,114.41,322.74,122Z" transform="translate(1.78 -16.19)"/><path class="m" d="M322.74,122a2.09,2.09,0,0,0-.05.91c.91,4.69-26.33,27.59-35.47,1.82a42.72,42.72,0,0,1-1.77-6.83s-23.91-49.43-7.32-71S331.75,28,343.06,57.47C351.45,79.27,324.4,114.41,322.74,122Z" transform="translate(1.78 -16.19)"/><path class="n" d="M322.69,122.88c.91,4.69-26.33,27.59-35.47,1.82a38.42,38.42,0,0,1,35.52-2.7,2.089,2.089,0,0,0-.05.88Z" transform="translate(1.78 -16.19)"/><path class="c" d="M288.44,133a2.24,2.24,0,0,1,.24,1.18,2.46,2.46,0,0,1-.58,1A5,5,0,0,0,288,141c-1.94.5-2.37,3.32-1.2,4.94s3.24,2.27,5.19,2.71a55,55,0,0,0,23.42.21c3-.62,6.27-1.84,7.3-4.69a6.48,6.48,0,0,0-2-2.07c.89-1,1.8-2.49.95-3.5-.28-.34-.71-.53-1-.84a2.77,2.77,0,0,1-.15-3,8.629,8.629,0,0,0,1.08-2.95,2.88,2.88,0,0,0-2.39-2.86c-7.05,2.8-14.91,5.62-22,3C293.89,130.65,285.24,124.55,288.44,133Z" transform="translate(1.78 -16.19)"/><path class="o" d="M288.44,133a2.24,2.24,0,0,1,.24,1.18,2.46,2.46,0,0,1-.58,1A5,5,0,0,0,288,141c-1.94.5-2.37,3.32-1.2,4.94s3.24,2.27,5.19,2.71a55,55,0,0,0,23.42.21c3-.62,6.27-1.84,7.3-4.69a6.48,6.48,0,0,0-2-2.07c.89-1,1.8-2.49.95-3.5-.28-.34-.71-.53-1-.84a2.77,2.77,0,0,1-.15-3,8.629,8.629,0,0,0,1.08-2.95,2.88,2.88,0,0,0-2.39-2.86c-7.05,2.8-14.91,5.62-22,3C293.89,130.65,285.24,124.55,288.44,133Z" transform="translate(1.78 -16.19)"/><path class="h" d="M311.68,132.12l-2.41-.59,3-12c5.59-22.7,4.63-27.94,3.56-29-.08-.08-.18-.18-.54-.1A3,3,0,0,0,314,91a12.759,12.759,0,0,1,1.57,3.65c.63,2.52.2,4.56-1.17,5.61a2.59,2.59,0,0,1-3,.34c-1.7-1-2-4-1.65-6.41a9.539,9.539,0,0,1,1.14-3.25,4.18,4.18,0,0,0-2.27-1.39c-1.14-.22-2.26.55-3.32,2.2a21.393,21.393,0,0,0-1.12,2c2.36,2.19,3.81,6.19,2.74,8.19a2.3,2.3,0,0,1-2.31,1.42,3.83,3.83,0,0,1-3.19-2.17c-.51-.93-1.31-3.1-.28-6.46-.78-.23-1.81-.06-3,1.6-3.57,4.89,1.32,26.81,3.5,34.84l-2.38.65c-.84-3.07-8-30.22-3.12-37,2.19-3,4.47-3,5.95-2.43a19.663,19.663,0,0,1,1.15-2c2-3.19,4.28-3.57,5.8-3.31a6.39,6.39,0,0,1,3.47,2,5.55,5.55,0,0,1,2.32-1.11,2.94,2.94,0,0,1,2.83.81c1.78,1.84,3.05,7.06-2.94,31.37Zm-8.47-35.73a5.24,5.24,0,0,0,.32,3.59c.36.65.8.88,1,.88h0C305,100.13,304.42,98,303.21,96.39Zm9.24-3a6.679,6.679,0,0,0-.31,1.21c-.36,2.11.14,3.64.46,3.88a1.922,1.922,0,0,0,.26-.17c.53-.4.63-1.59.27-3a10.14,10.14,0,0,0-.68-1.97Z" transform="translate(1.78 -16.19)"/></g></svg>