<svg xmlns="http://www.w3.org/2000/svg" xmlns:xlink="http://www.w3.org/1999/xlink" width="375.713" height="308.201" viewBox="0 0 375.713 308.201"><defs><style>.a,.c,.l,.p{fill:#ffbaad;}.a{opacity:0.18;}.a,.f,.l,.p{isolation:isolate;}.b{fill:#fbb8aa;}.d{fill:#fff;}.e{fill:#473f47;}.f{fill:#020202;opacity:0.1;}.g{fill:#dc9e93;}.h{fill:url(#a);}.i{opacity:0.41;}.j,.p{opacity:0.5;}.k{fill:url(#b);}.l{opacity:0.31;}.m{fill:url(#c);}.n{fill:url(#d);}.o{fill:url(#e);}.q{fill:url(#f);}</style><linearGradient id="a" x1="5.315" y1="-1.492" x2="-1.056" y2="-0.936" gradientUnits="objectBoundingBox"><stop offset="0.01"/><stop offset="0.08" stop-opacity="0.69"/><stop offset="0.21" stop-opacity="0.322"/><stop offset="1" stop-opacity="0"/></linearGradient><linearGradient id="b" x1="-112.706" y1="-0.023" x2="-103.72" y2="-1.762" xlink:href="#a"/><linearGradient id="c" x1="0.861" y1="-7.333" x2="0.554" y2="-31.749" xlink:href="#a"/><linearGradient id="d" x1="0.861" y1="-14.735" x2="0.555" y2="-39.151" xlink:href="#a"/><linearGradient id="e" x1="0.789" y1="-9.53" x2="0.507" y2="-39.046" xlink:href="#a"/><linearGradient id="f" x1="2.26" y1="1.304" x2="0.277" y2="-3.146" xlink:href="#a"/></defs><g transform="translate(0.001 0.063)"><path class="a" d="M78.511,305.854c30.925,15.12,70.984,9.3,103.825,4.732,26.027-3.715,44.72-9.465,70.984-6.46a230.673,230.673,0,0,0,82.814-5.631c11.334-2.863,22.691-6.767,31.824-14.055s15.782-18.55,14.978-30.215c-1.112-15.877-14.694-27.471-23.661-40.532C332.7,175.386,344.7,122.337,328.515,78.659A109.268,109.268,0,0,0,178.03,18.536C142.538,35.856,118.617,66.9,84.687,86.68c-18.361,10.695-38.52,19.142-53.261,34.5-16.3,16.894-24.253,40.839-24.134,64.311s7.737,46.494,19.189,67.032S53.548,291.7,73.8,303.44C75.411,304.268,76.949,305.073,78.511,305.854Z" transform="translate(-7.29 -7.47)"/><path class="a" d="M40.064,121.488c-5.655.8-13.108,4.969-10.506,10.08a9.2,9.2,0,0,0,6.507,3.809,308.3,308.3,0,0,0,40.7,7.382c24.844,2.816,49.925,2.626,74.911,2.366l72.664-.615c28.393-.237,57.189-.5,85.322-5.111-2.366-11.831-16.326-16.8-28.275-18.1-29.577-3.265-59.816,2.508-88.966-3.336-14.907-3-29.6-9.039-44.791-7.832-16.326,1.278-27.707,9.914-44.294,8.423C82.418,116.685,60.744,118.483,40.064,121.488Z" transform="translate(22.402 132.649)"/><path class="b" d="M48.619,123.163a10.317,10.317,0,0,0,.828,4.33,7.1,7.1,0,0,0,3.147,2.934,12.4,12.4,0,0,0,9.228.923,1.751,1.751,0,0,0,1.065-.663,1.325,1.325,0,0,0,.189-.9,6.933,6.933,0,0,0-2.366-4.354,14.5,14.5,0,0,1-3.313-3.809c-1.42-2.863-.379-10.458-5.75-9.228C47.105,113.415,48.5,119.969,48.619,123.163Z" transform="translate(48.771 135.777)"/><path class="c" d="M48.315,119s-.781,1.893.166,2.981,10.624,7.1,17.154,2.366S56.762,119,56.762,119Z" transform="translate(48.342 144.98)"/><path class="d" d="M48.617,117.559a1.4,1.4,0,0,1,1.727.45,5.7,5.7,0,0,0,5.182,1.869c2.13-.521,2.981-2.958,4.022-2.958s6.672,4.732,7.1,6.838-2.555,3.549-5.726,3.762-10.387-2.011-11.831-3.667a6.862,6.862,0,0,1-.473-6.294Z" transform="translate(48.418 142.139)"/><path class="b" d="M40.823,124.377a10.789,10.789,0,0,0,.8,4.354,7.311,7.311,0,0,0,3.171,2.934,12.493,12.493,0,0,0,9.228.9,1.727,1.727,0,0,0,1.065-.639A1.562,1.562,0,0,0,55.28,131a6.862,6.862,0,0,0-2.366-4.33,16.325,16.325,0,0,1-3.336-3.786c-1.4-2.863-.355-10.458-5.726-9.252C39.285,114.675,40.705,121.23,40.823,124.377Z" transform="translate(38.111 137.474)"/><path class="c" d="M40.509,120.358s-.757,1.869.166,2.981,10.6,7.1,17.131,2.366-8.849-5.466-8.849-5.466Z" transform="translate(37.692 146.674)"/><path class="d" d="M40.824,118.823a1.349,1.349,0,0,1,1.727.45,5.632,5.632,0,0,0,5.182,1.846c2.106-.5,2.981-2.934,4-2.958s6.7,4.732,7.1,6.838-2.555,3.573-5.726,3.762-10.387-1.988-11.831-3.668A6.791,6.791,0,0,1,40.824,118.823Z" transform="translate(37.755 143.833)"/><path class="e" d="M39.061,84.94s-.994,55.3,3.1,73.728l10.411,1.278,7.1-75.716Z" transform="translate(35.969 97.48)"/><path class="e" d="M63.31,82s4.874,29.813-1.041,77.7L51.858,161l-7.1-75.716Z" transform="translate(43.899 94.434)"/><path class="c" d="M67.412,85.519c-.118,1.988-.757,3.738-2.508,4.306h-.45c-3.194.639-7.382-1.775-10.293-3.9a39.919,39.919,0,0,1-3.5-2.626V62L66.182,77.9A24.678,24.678,0,0,1,67.412,85.519Z" transform="translate(51.959 67.111)"/><path class="c" d="M73.522,88.965c0,.994.142,2.011.142,3,0,5.513-1.278,11.215.355,16.563a5.963,5.963,0,0,1,.473,3.809,4.732,4.732,0,0,1-2.366,2.224,46.045,46.045,0,0,1-15.971,4.259c-4.117.568-9.985,1.8-13.794-.426a6.838,6.838,0,0,1-2.7-4.472,84.591,84.591,0,0,1-2.579-17.391c0-.781-.118-1.538-.142-2.366-.331-5.3-.426-10.577-.331-15.877,0-3.833.379-7.974,2.887-10.861a27.4,27.4,0,0,1,14.646-7.311,15.711,15.711,0,0,1,4.732-.26,19.97,19.97,0,0,1,6.507,2.2,11.073,11.073,0,0,1,5.773,4.732,32.7,32.7,0,0,1,2.721,8.755,31.636,31.636,0,0,1,.355,8.4c-.142,1.4-.5,2.792-.639,4.188A4.1,4.1,0,0,0,73.522,88.965Z" transform="translate(32.718 64.091)"/><path class="f" d="M51.71,115.684c-1.609.473-5.3-.994-6.53-1.207a10.51,10.51,0,0,1-2.13-.663c-3.644-.923-4.07-11.192-4.425-13.936a196.013,196.013,0,0,1-2.508-22.194,23.661,23.661,0,0,1,.97-8.352,9.677,9.677,0,0,1,5.466-6.1c4.732-1.68,6.057,13.085,6.7,16.137.8,3.833,1.633,7.666,2.366,11.476.568,2.816.26,5.04,2.366,7.1a1.159,1.159,0,0,0,.568.331,1.136,1.136,0,0,0,.568-.142,8.305,8.305,0,0,1,2.934-.686A1.846,1.846,0,0,1,60.275,99.1a6.578,6.578,0,0,1-2.816,6.933c-.994.639-2.13.97-3.147,1.585-3.762,2.366-.615,4.732-2.106,7.572A.994.994,0,0,1,51.71,115.684Z" transform="translate(32.028 68.606)"/><path class="b" d="M55.181,66.781a3.478,3.478,0,0,1-2.366,1.112,10.931,10.931,0,0,1-2.153,0h-.4a.473.473,0,0,0-.308,0,.568.568,0,0,0,0,.331,24.085,24.085,0,0,0,0,4.33h0v.781a1.42,1.42,0,0,1,0,.828,1.3,1.3,0,0,1-.875.568,6.861,6.861,0,0,1-1.964.355,8.684,8.684,0,0,1-4-1.42,40.815,40.815,0,0,0-.4-7.406,39.348,39.348,0,0,1-.946-9.464A5.205,5.205,0,0,1,47.8,51.638a11.831,11.831,0,0,1,6.46,1.775,2.579,2.579,0,0,1,.97,1.917c.237,1.254.45,2.508.568,3.786s.26,2.887.284,4.33A4.922,4.922,0,0,1,55.181,66.781Z" transform="translate(39.796 52.865)"/><path class="b" d="M64.764,65.372c.142-.213.426-.45.639-.308a.615.615,0,0,1,.189.308,1.4,1.4,0,0,0,1.278.733h1.538a4.33,4.33,0,0,1,3.407,1.846,6.743,6.743,0,0,1,1.23,3.762,4.732,4.732,0,0,1-.923,3.407,6.341,6.341,0,0,1-5.087,1.349H65.379a1.562,1.562,0,0,1-1.727-1.254c-.686-1.633-1.917-3.289-1.065-4.945A28.962,28.962,0,0,1,64.764,65.372Z" transform="translate(67.858 71.239)"/><path class="e" d="M56.366,57.894a2.958,2.958,0,0,1-2.153.686c-2.13-.142-3.052-1.467-4.732.592a4.732,4.732,0,0,0-.994,2.366,9.227,9.227,0,0,0,.189,2.366c-.615.213-.734-.9-1.207-1.349s-1.562.166-1.633.923a4.377,4.377,0,0,0,.686,2.2,6.791,6.791,0,0,1,.284,4.33c0,.355-.355.757-.686.663s-.544-.663-.781-.946a11.831,11.831,0,0,0-1.088-1.088c-1.183-1.041-3.194-1.846-4.07-3.076a3.313,3.313,0,0,1-.544-2.248c0-.189.615-2.106.923-1.917a2.768,2.768,0,0,1,.331-4.732,5.56,5.56,0,0,1,2.816-6.318,11.452,11.452,0,0,1,7.288-.9,18.432,18.432,0,0,1,7.714,2.745A6.057,6.057,0,0,1,60.7,54.155a2.981,2.981,0,0,1,.237,2.721.9.9,0,0,1-.852-.426,1.7,1.7,0,0,1-1.538,1.822,1.609,1.609,0,0,1-1.656-.946,2.106,2.106,0,0,1-.521.568Z" transform="translate(36.552 49.639)"/><path class="g" d="M48.3,59.351h-.4a.473.473,0,0,0-.308,0,.568.568,0,0,0,0,.331,24.087,24.087,0,0,0,0,4.33h0a5.8,5.8,0,0,1-4-6.152,23.661,23.661,0,0,0,4.9,1.443Z" transform="translate(42.254 61.456)"/><path class="c" d="M74,72.548a30.452,30.452,0,0,1-7.453,7.43,14.906,14.906,0,0,1-7.1,2.508,2.767,2.767,0,0,1-2.342-1.041,7.808,7.808,0,0,1-1.8-4.425c-.166-4.259,4.448-6.743,4.448-6.743s10.506-3.336,11.831-2.792c.686.284,1.349,1.775,1.8,3.052A20.157,20.157,0,0,1,74,72.548Z" transform="translate(58.309 74.522)"/><path class="f" d="M80.983,72.554a30.452,30.452,0,0,1-7.453,7.43,14.906,14.906,0,0,1-7.1,2.508,2.366,2.366,0,0,1-.994-.118,2.508,2.508,0,0,1-.45.142c-3.194.639-7.359-1.8-10.293-3.928l-3.5-1.254L50.2,67.42s8.423,7.856,12.091,9.606a9.465,9.465,0,0,0,5.631,1.041,6.389,6.389,0,0,0,1.491-.45,49,49,0,0,0,10.813-7.1,16.848,16.848,0,0,1,.757,2.035Z" transform="translate(51.331 74.516)"/><path class="c" d="M49.363,80.2l.9-8.968a1.467,1.467,0,0,1,1.4-1.349l11.831-.592a1.514,1.514,0,0,1,1.562,1.443,1.137,1.137,0,0,1,0,.284l-3.1,20.42a1.467,1.467,0,0,1-1.278,1.254L49.765,94.206a1.514,1.514,0,0,1-1.68-1.3,1.348,1.348,0,0,1,0-.308Z" transform="translate(48.43 77.07)"/><path class="d" d="M65,70.957l-3.076,20.42a1.514,1.514,0,0,1-1.278,1.254L49.809,94.145h0a1.491,1.491,0,0,1-1.7-1.278,1.8,1.8,0,0,1,0-.355l1.325-12.4.8-8.9a1.491,1.491,0,0,1,1.42-1.325L63.485,69.3a1.491,1.491,0,0,1,1.538,1.3.875.875,0,0,1-.024.355Z" transform="translate(48.457 77.083)"/><path class="h" d="M64.021,70.26l-3.076,20.42a1.514,1.514,0,0,1-1.278,1.254L48.83,93.448a.9.9,0,0,1,0-.355l1.3-12.375.875-8.991a1.491,1.491,0,0,1,1.4-1.349l11.57-.568A.734.734,0,0,1,64.021,70.26Z" transform="translate(49.436 77.781)"/><path class="b" d="M49.562,74.359a1.917,1.917,0,0,1,1.656-.686,5.348,5.348,0,0,1,.994.615,2.2,2.2,0,0,0,.946.213,9.465,9.465,0,0,0,3.88-.544,5.04,5.04,0,0,1,2.011-.5,2.981,2.981,0,0,1,2.011,1.42,5.679,5.679,0,0,1,.118,6.128,5.939,5.939,0,0,1-2.011,1.822,12.517,12.517,0,0,1-5.726,1.443H47.456a2.366,2.366,0,0,1-1.372-.166,2.13,2.13,0,0,1-.663-1.751,5.915,5.915,0,0,1,.544-4.046C47.125,76.867,48.4,75.731,49.562,74.359Z" transform="translate(44.61 82.767)"/><path class="c" d="M47.273,63.6s-21.934,28.677-15,38.8,36.154-1.68,36.154-1.68l-2.839-8.376s-20.538,2.6-20.7.308S57.921,77.182,57.921,77.182,60.287,57.946,47.273,63.6Z" transform="translate(24.989 67.877)"/><rect class="d" width="150.036" height="109.125" transform="translate(133.663 131.359)"/><rect class="c" width="131.698" height="5.182" transform="translate(144.452 222.502)"/><g class="i" transform="translate(194.165 182.586)"><rect class="c" width="12.777" height="11.144"/></g><rect class="c" width="12.777" height="19.781" transform="translate(181.482 173.926)"/><g class="j" transform="translate(168.823 164.792)"><rect class="c" width="12.777" height="28.938"/></g><rect class="c" width="12.777" height="37.834" transform="translate(156.141 155.896)"/><rect class="c" width="12.777" height="46.802" transform="translate(143.459 146.928)"/><rect class="k" width="12.777" height="46.802" transform="translate(143.459 146.928)"/><path class="l" d="M159.186,49.573a16.8,16.8,0,0,1-16.776,16.8H99.323a16.8,16.8,0,1,1,0-33.575h6.2a13.319,13.319,0,0,1,0-1.372,15.427,15.427,0,0,1,30.76-.544v.45a13.323,13.323,0,0,1,0,1.372h6.176a16.752,16.752,0,0,1,16.776,16.776Z" transform="translate(94.628 5.502)"/><path class="d" d="M156.272,48.688a16.8,16.8,0,0,1-16.776,16.8H96.386a16.8,16.8,0,0,1,0-33.575h6.2a13.315,13.315,0,0,1,0-1.372,15.427,15.427,0,0,1,30.76,0h0a13.324,13.324,0,0,1,0,1.372h6.2A16.8,16.8,0,0,1,156.272,48.688Z" transform="translate(92.337 4.707)"/><rect class="c" width="3.218" height="14.22" transform="translate(208.669 70.266)"/><path class="c" d="M152.581,57.752h-3.218V38.208H74.688V57.752H71.47V34.99h81.111Z" transform="translate(97.637 47.887)"/><rect class="c" width="3.218" height="21.177" transform="translate(208.669 84.486)"/><rect class="c" width="12.398" height="12.398" transform="translate(242.079 105.639)"/><rect class="c" width="12.398" height="12.398" transform="translate(204.079 105.639)"/><rect class="c" width="12.398" height="12.398" transform="translate(164.777 105.639)"/><rect class="c" width="131.698" height="5.182" transform="translate(144.452 203.147)"/><rect class="m" width="64.217" height="5.182" transform="translate(144.452 203.147)"/><rect class="n" width="64.217" height="5.182" transform="translate(159.832 222.313)"/><rect class="c" width="131.698" height="5.182" transform="translate(144.452 212.825)"/><rect class="o" width="84.589" height="5.182" transform="translate(149.374 212.825)"/><path class="c" d="M109.372,84a15.64,15.64,0,0,1,1.372-6.365L101.28,72.48a26.027,26.027,0,0,0,11.831,34.9,27.186,27.186,0,0,0,5.182,1.893L120.209,98.6A15.262,15.262,0,0,1,109.372,84Z" transform="translate(117.421 81.428)"/><path class="p" d="M135.686,85.964A26.027,26.027,0,0,1,106.89,97.8l1.917-10.671a15.238,15.238,0,0,0,17.273-6.294Z" transform="translate(128.776 92.835)"/><path class="q" d="M149.131,92.595a26.027,26.027,0,0,1-3.691,13.369l-9.464-5.182a15.3,15.3,0,0,0-25.72-16.563,12.564,12.564,0,0,0-1.041,1.917L99.75,80.977a26.027,26.027,0,0,1,49.5,11.523Z" transform="translate(119.022 72.837)"/></g></svg>