<svg xmlns="http://www.w3.org/2000/svg" xmlns:xlink="http://www.w3.org/1999/xlink" width="414.07" height="349.704" viewBox="0 0 414.07 349.704"><defs><style>.a,.b{fill:#ffbaad;}.a{opacity:0.18;isolation:isolate;}.c{fill:#fff;}.d{fill:none;}.e{fill:url(#a);}.f{fill:url(#b);}.g{fill:url(#c);}.h{fill:url(#d);}.i{fill:url(#e);}.j{fill:#3e3e54;}.k{fill:#eea886;}.l{fill:url(#f);}.m{fill:#f07663;font-size:12px;font-family:Roboto-Regular, Roboto;}</style><linearGradient id="a" x1="0.704" y1="-3.297" x2="0.412" y2="2.143" gradientUnits="objectBoundingBox"><stop offset="0.02" stop-color="#fff" stop-opacity="0"/><stop offset="0.14" stop-color="#fff" stop-opacity="0.059"/><stop offset="0.32" stop-color="#fff" stop-opacity="0.388"/><stop offset="0.68" stop-color="#fff" stop-opacity="0.678"/><stop offset="1" stop-color="#fff"/></linearGradient><linearGradient id="b" x1="0.78" y1="-4.706" x2="0.487" y2="0.734" gradientUnits="objectBoundingBox"><stop offset="0.02" stop-color="#fff" stop-opacity="0"/><stop offset="0.32" stop-color="#fff" stop-opacity="0.388"/><stop offset="0.68" stop-color="#fff" stop-opacity="0.678"/><stop offset="1" stop-color="#fff"/></linearGradient><linearGradient id="c" x1="0.705" y1="-3.321" x2="0.413" y2="2.119" xlink:href="#b"/><linearGradient id="d" x1="0.703" y1="-3.273" x2="0.41" y2="2.167" xlink:href="#b"/><linearGradient id="e" x1="-0.203" y1="-0.563" x2="1.49" y2="1.998" xlink:href="#b"/><linearGradient id="f" x1="3.317" y1="0.092" x2="-5.004" y2="1.299" gradientUnits="objectBoundingBox"><stop offset="0" stop-opacity="0"/><stop offset="0.99"/></linearGradient></defs><g transform="translate(-0.04)"><path class="a" d="M416,249.47c-7.32,13.79-20.57,24.56-24.24,39.74-1.59,6.55-1.22,13.42-2,20.12-2.88,23.48-20.48,43.05-41.47,54.14-.88.48-1.77.92-2.66,1.36-13.77,6.73-28.69,10.4-43.9,12.69-9.25,1.38-18.61,2.24-27.89,3a1156.7,1156.7,0,0,1-116,3.34c-18.71-.38-37.79-1.27-55.39-7.48-.9-.31-1.79-.64-2.68-1-14.28-5.55-26.95-14.64-38.17-25.06l-.51-.48c-16.74-15.64-30.57-34.53-39.52-55.62A145.18,145.18,0,0,1,15.21,199c5.29-18.75,14.53-36.63,16-56,1.07-14.6-2.36-29.38-.07-43.84,4.53-28.7,31.21-49.83,59.38-56.94s57.82-3.06,86.59,1c14.06,2,30.51,7.37,44.42,3.07C238.6,41,253,34.46,271.42,34.42c7.53,0,15.21.79,22.11,3.81,8.36,3.65,15,10.27,21.77,16.36,18.95,17,40.55,30.74,59.92,47.24s36.91,36.58,44,61c3.49,11.94,4.35,24.49,4.72,36.92C424.48,216.73,423.93,234.48,416,249.47Z" transform="translate(-9.98 -34.42)"/><rect class="b" width="226.93" height="161.62" rx="15.27" transform="translate(96.33 113.1)"/><rect class="c" width="199.23" height="135.24" transform="translate(110.18 124.64)"/><rect class="b" width="5.94" height="54.31" transform="translate(201.55 187.58)"/><rect class="b" width="5.94" height="45.43" transform="translate(211.88 196.46)"/><rect class="b" width="5.94" height="37.32" transform="translate(222 204.57)"/><rect class="b" width="5.94" height="45.43" transform="translate(232.33 196.46)"/><rect class="b" width="5.94" height="27.16" transform="translate(242.45 214.73)"/><rect class="b" width="5.94" height="45.43" transform="translate(252.78 196.46)"/><rect class="b" width="5.94" height="31.79" transform="translate(262.9 210.1)"/><rect class="b" width="5.94" height="37.91" transform="translate(273.23 203.98)"/><rect class="b" width="33.97" height="1.98" transform="translate(131.95 220.63)"/><rect class="b" width="33.97" height="1.98" transform="translate(131.95 226.12)"/><rect class="b" width="33.97" height="1.98" transform="translate(131.95 231.62)"/><rect class="b" width="33.97" height="1.98" transform="translate(131.95 237.12)"/><rect class="b" width="33.97" height="1.98" transform="translate(131.95 242.62)"/><rect class="d" width="33.97" height="24.41" transform="translate(178.13 220.63)"/><path class="b" d="M176.6,185.5a22.1,22.1,0,1,0-.13,44.2V222h-.09A14.62,14.62,0,1,1,191,207.38a13.19,13.19,0,0,1-.16,2.09h7.77a16.715,16.715,0,0,0,.09-1.87A22.09,22.09,0,0,0,176.6,185.5Z" transform="translate(-9.98 -34.42)"/><rect class="e" width="70.37" height="69.05" rx="7.47" transform="translate(312.43 132.86)"/><rect class="f" width="70.37" height="69.05" rx="7.47" transform="translate(221.85 33.06)"/><rect class="g" width="70.37" height="69.05" rx="7.47" transform="translate(49.93 25.36)"/><rect class="h" width="70.37" height="69.05" rx="7.47" transform="translate(29.46 128.88)"/><path class="b" d="M277.09,210.29l-.78-.2,13.1-50.34h23.62v.81H290.04Z"/><path class="b" d="M221.92,82.28H211.05l-29.47,99.13-.69-.07,29.54-99.87h11.49Z"/><path class="b" d="M164.99,158.17,139.03,76.73H118.76v-.81h20.86l.09.29,26.05,81.71Z"/><path class="b" d="M135.06,189.02,116.6,168.44H98.5v-.81h18.46l18.71,20.85Z"/><path class="b" d="M198.61,209.74a22.07,22.07,0,0,1-22,20.23h-.13v-7.69a14.61,14.61,0,0,0,14.37-12.54Z" transform="translate(-9.98 -34.42)"/><path class="i" d="M198.61,209.47a22.07,22.07,0,0,1-22,20.23h-.13V222a14.6,14.6,0,0,0,14.37-12.53Z" transform="translate(-9.98 -34.42)"/><path class="b" d="M111.93,198.1l10.29-21.61,23.77,13.89-16.36,33.75-12.76-7.1Z"/><path class="c" d="M113.88,195.94l8.65-16.77,19.55,11.42-14.82,29.74-10.08-7.72Z"/><path class="j" d="M123.17,283.53,130,325.79,123.17,368l3.85,3-6.32-.27.55-43.63-11.8-30.73,1.43,31.91L104,369.42l3,1.64-6.86-.27,2.94-42.66-5.35-25.51s-4.72-18.54,0-21.56S123.17,283.53,123.17,283.53Z" transform="translate(-9.98 -34.42)"/><path class="b" d="M98.2,220.14S114.81,222,118.92,225s8.37,7.76,8.37,11.6,1.65,22.77,1.65,22.77l6.86-15.91,3.84,2.19s-4.39,27.58-6.86,28.4-9.19-1-9.19-1l-.42,10.43s-22.5,2.19-25.51-2.47S87.54,227.76,98.2,220.14Z" transform="translate(-9.98 -34.42)"/><path class="k" d="M112.46,214.93s-2,4.23-.93,7.69c0,0-6.17-.84-6.35-1.57s.77-7.2.06-9.19S112.46,214.93,112.46,214.93Z" transform="translate(-9.98 -34.42)"/><path class="k" d="M105.83,197.71c2.43-1,9.08-2.5,11.54,7.43s-1.28,10.41-5.15,10.45-10.39-6.25-11-8.28S98.92,200.69,105.83,197.71Z" transform="translate(-9.98 -34.42)"/><path class="k" d="M136.15,238.86a2.7,2.7,0,0,1,.1-.8c.23-.73,1-1.13,1.42-1.78a3.649,3.649,0,0,0,.4-1.34,3.25,3.25,0,0,1,.33-1.19,1.07,1.07,0,0,1,1-.59c.56.08.85.7,1,1.24a15.36,15.36,0,0,1-.4,10c-.18.47-.51,1-1,1a1.2,1.2,0,0,1-.48-.17c-1-.54-2.42-1-2.47-2.17C136,241.63,136.12,240.23,136.15,238.86Z" transform="translate(-9.98 -34.42)"/><path class="b" d="M138.47,235.37,133.81,231l-.41.82,4.27,4.48S138.54,236,138.47,235.37Z" transform="translate(-9.98 -34.42)"/><path class="l" d="M123.59,273.1s-2.41-1-3.23-8-1.85-14.2-1.85-14.2v32.9H124Z" transform="translate(-9.98 -34.42)"/><path class="j" d="M113.26,195.54A4.82,4.82,0,0,0,111,193a2.62,2.62,0,0,0-2.54-.14,2.58,2.58,0,0,0-2.09-1.05,3.43,3.43,0,0,0-2,.31,1.65,1.65,0,0,0-.85,1.76,10.54,10.54,0,0,0-3,0,2.22,2.22,0,0,0-.88.28,2.16,2.16,0,0,0-.7,1,10.23,10.23,0,0,0-.85,4,4.23,4.23,0,0,0-1.77,3.22,4.29,4.29,0,0,0,1.45,3.39,4.86,4.86,0,0,0,.54,3.91,3.35,3.35,0,0,0,3.53,1.44c0,.6.08,1.33.63,1.6a1.38,1.38,0,0,0,.61.1,4.6,4.6,0,0,0,1.71-.36,3.16,3.16,0,0,0,0,1.4,1.08,1.08,0,0,0,1,.82,1.6,1.6,0,0,0,.88-.51,4.55,4.55,0,0,0,1.46-1.94,19.44,19.44,0,0,0,.18-2.17c.16-.85.7-1.68.48-2.51s-.91-1.2-1.44-1.75-.85-1.53-.27-2,1.43-.05,1.95.47c.26.25.63.54.93.35s.21-.59.1-.89a12.558,12.558,0,0,1-.69-2,2.09,2.09,0,0,1,.56-2c.86-.73,2.25-.32,3.09-1S113.58,196.41,113.26,195.54Z" transform="translate(-9.98 -34.42)"/><text class="m" transform="translate(53.039 59)"><tspan x="0" y="0">Campaign </tspan></text><text class="m" transform="translate(229.039 66)"><tspan x="0" y="0">Campaign </tspan></text><text class="m" transform="translate(328.039 172)"><tspan x="0" y="0">Flipbook</tspan></text><text class="m" transform="translate(36.039 172)"><tspan x="0" y="0">Flipbook</tspan></text></g></svg>