<svg xmlns="http://www.w3.org/2000/svg" xmlns:xlink="http://www.w3.org/1999/xlink" width="437.825" height="406.196" viewBox="0 0 437.825 406.196"><defs><style>.a,.e{fill:#ffbaad;}.a{opacity:0.18;isolation:isolate;}.b{fill:#fff;}.c{fill:url(#a);}.d{fill:url(#b);}.f{fill:url(#c);}.g{fill:url(#d);}.h{fill:url(#e);}.i{fill:url(#f);}.j{fill:url(#g);}.k{fill:url(#i);}</style><linearGradient id="a" x1="0.143" y1="-0.247" x2="1.253" y2="2.423" gradientUnits="objectBoundingBox"><stop offset="0.01"/><stop offset="0.08" stop-opacity="0.69"/><stop offset="0.21" stop-opacity="0.322"/><stop offset="1" stop-opacity="0"/></linearGradient><linearGradient id="b" x1="0.496" y1="-1.57" x2="0.509" y2="4.41" xlink:href="#a"/><linearGradient id="c" x1="-0.617" y1="-0.801" x2="4.32" y2="4.946" xlink:href="#a"/><linearGradient id="d" x1="-1.857" y1="-1.072" x2="8.743" y2="5.997" xlink:href="#a"/><linearGradient id="e" x1="-2.209" y1="-0.872" x2="8.391" y2="4.496" xlink:href="#a"/><linearGradient id="f" x1="-1.022" y1="-0.322" x2="8.576" y2="4.861" xlink:href="#a"/><linearGradient id="g" x1="-1.022" y1="-0.322" x2="8.576" y2="4.861" xlink:href="#a"/><linearGradient id="i" x1="-1.022" y1="-0.322" x2="8.576" y2="4.861" xlink:href="#a"/></defs><g transform="translate(-0.004 0.007)"><path class="a" d="M177.881,455.7c33.252,14.945,73.466,13.362,105.438-4.147,9.925-5.44,19.127-12.323,29.692-16.387,25.607-9.842,54.291-1.635,81.664-3.415,46.224-3,86.8-35.335,110.265-75.272s32.3-86.706,37.386-132.746c5.7-51.476,3.551-111.865-37.342-143.644C472.294,54.672,426.206,57.2,385.615,65.338S303.3,85.991,263.026,76.487c-14.524-3.415-28.553-9.671-43.458-10.4-26.584-1.315-51.117,15.344-68.2,35.773-29.307,35.036-42.13,81.511-44.208,127.134-2.082,45.786,6.024,91.817,7.242,137.371C115.467,406.269,141.21,439.2,177.881,455.7Z" transform="translate(-106.82 -59.7)"/><rect class="b" width="230.503" height="251.88" rx="59.7" transform="translate(111.495 72.007)"/><path class="c" d="M405.786,613.452l32.739-29.934s45.12,32.218,88.24,3.533,44.545-84.939,24.87-106.53-19.434-6.23-19.434-6.23,30.688,84.807-35.948,93.317-73.094-10.451-73.094-10.451l-40.53,56.294Z" transform="translate(-261.714 -289.566)"/><path class="d" d="M254.32,281.38l37.641,22.187,63.453-43.48,70.165,46.847,59.245-54.716v-18.2l-60.174,52.046-68.67-38.956-64.913,35.107-36.746-12.7Z" transform="translate(-142.825 -131.431)"/><path class="e" d="M131.421,273.448l-4.231-5.322,45.856-36.452,46.623,22.744,64.751-43.169,72.1,43.94L429.4,184.52l4.73,4.879-76.653,74.33-72.9-44.418-64.391,42.928-46.268-22.573Z" transform="translate(-71.428 -103.631)"/><path class="e" d="M313.667,717.929a11.135,11.135,0,0,0,0,15.756h0a11.135,11.135,0,0,0,15.756,0l69.731-66.838a11.144,11.144,0,0,0,0-15.756h0a11.144,11.144,0,0,0-15.756,0Z" transform="translate(-221.15 -390.001)"/><path class="e" d="M430.73,464.316A76.912,76.912,0,1,0,507.643,387.4a76.911,76.911,0,0,0-76.913,76.916Zm19.43,0a57.5,57.5,0,1,0,0-.009Z" transform="translate(-288.728 -243.742)"/><path class="f" d="M430.73,464.316A76.912,76.912,0,1,0,507.643,387.4a76.911,76.911,0,0,0-76.913,76.916Zm19.43,0a57.5,57.5,0,1,0,0-.009Z" transform="translate(-288.728 -243.742)"/><path class="e" d="M417.25,451.592a76.916,76.916,0,1,0,76.913-76.912,76.917,76.917,0,0,0-76.913,76.912Zm19.434,0a57.482,57.482,0,1,1,57.479,57.478,57.483,57.483,0,0,1-57.479-57.478Z" transform="translate(-281.157 -236.598)"/><path class="e" d="M770.38,219.364l-6.782-.469,2.438-35.3-39.263,6.33-1.083-6.712L773.4,175.52Z" transform="translate(-407.549 -98.577)"/><rect class="e" width="12.656" height="17.632" transform="translate(181.366 227.619)"/><rect class="e" width="12.656" height="35.922" transform="translate(196.977 209.329)"/><rect class="e" width="12.656" height="21.871" transform="translate(212.588 223.38)"/><rect class="e" width="12.656" height="47.303" transform="translate(228.195 197.949)"/><rect class="g" width="12.656" height="35.922" transform="translate(196.977 209.329)"/><rect class="h" width="12.656" height="47.303" transform="translate(228.195 197.949)"/><rect class="e" width="12.656" height="60.516" transform="translate(243.806 184.735)"/><circle class="e" cx="9.859" cy="9.859" r="9.859" transform="translate(203.15 102.589)"/><circle class="i" cx="9.859" cy="9.859" r="9.859" transform="translate(203.15 102.589)"/><circle class="e" cx="9.859" cy="9.859" r="9.859" transform="translate(274.735 143.373)"/><circle class="j" cx="9.859" cy="9.859" r="9.859" transform="translate(274.735 143.373)"/><circle class="e" cx="9.859" cy="9.859" r="9.859" transform="translate(91.776 123.014)"/><circle class="j" cx="9.859" cy="9.859" r="9.859" transform="translate(91.776 123.014)"/><circle class="e" cx="9.859" cy="9.859" r="9.859" transform="translate(138.491 144.776)"/><circle class="k" cx="9.859" cy="9.859" r="9.859" transform="translate(138.491 144.776)"/></g></svg>