<svg xmlns="http://www.w3.org/2000/svg" xmlns:xlink="http://www.w3.org/1999/xlink" width="648.699" height="486.613" viewBox="0 0 648.699 486.613"><defs><style>.a,.d,.r{fill:#ffbaad;}.a{opacity:0.18;}.a,.r{isolation:isolate;}.b{fill:url(#a);}.c{fill:url(#b);}.e{fill:url(#c);}.f{fill:url(#d);}.g{fill:url(#e);}.h{fill:url(#f);}.i{fill:url(#g);}.j{fill:url(#h);}.k{fill:#fff;}.l{fill:#f9c6d6;}.m{fill:#565056;}.n{fill:#473f47;}.o{fill:#fc682d;}.p{fill:#e8a825;}.q{fill:#f8c244;}.r{opacity:0.39;}</style><linearGradient id="a" x1="-0.98" y1="-1.727" x2="2.79" y2="3.886" gradientUnits="objectBoundingBox"><stop offset="0.01"/><stop offset="0.08" stop-opacity="0.69"/><stop offset="0.21" stop-opacity="0.322"/><stop offset="1" stop-opacity="0"/></linearGradient><linearGradient id="b" x1="-0.544" y1="-2.019" x2="2.162" y2="4.107" xlink:href="#a"/><linearGradient id="c" x1="0.428" y1="-0.231" x2="0.767" y2="2.572" xlink:href="#a"/><linearGradient id="d" x1="0.578" y1="-1.34" x2="0.3" y2="4.961" xlink:href="#a"/><linearGradient id="e" x1="0.025" y1="-0.015" x2="2.226" y2="1.952" xlink:href="#a"/><linearGradient id="f" x1="0.629" y1="-1.691" x2="0.183" y2="5.82" xlink:href="#a"/><linearGradient id="g" x1="0.616" y1="-0.597" x2="0.099" y2="3.871" xlink:href="#a"/><linearGradient id="h" x1="0.433" y1="-0.274" x2="0.923" y2="5.347" xlink:href="#a"/></defs><g transform="translate(-0.005 -0.053)"><path class="a" d="M648.67,335.688q-4.069-7.28-8.578-14.323-4.241-6.715-8.75-13.14c-13.087-18.69-27.625-37.089-34.025-58.71-7.909-26.752,0-56.417-8.482-82.277-7.2-22.494-29.154-46.025-45.7-62.677C506.551,67.546,456.669,40.5,402.144,41.176a197.293,197.293,0,0,0-31.255,3.039c-20.423,3.531-40.464,9.682-60.18,16.033-49.94,16.124-100.013,34.086-142.845,63.4S89.707,195.174,79.983,244.53c-5.044,25.478-3.229,52.34-11.9,76.981-10.393,29.482-33.471,48.846-40.807,79.474-8.444,35.251.382,76.908,31.389,97.746,16.143,10.828,36.3,14.868,55.8,17.071a366.958,366.958,0,0,0,146.208-13.394c26.613-8.062,52.958-19.273,80.889-19.382,30.071-.127,58.25,12.63,86.3,22.967,42.909,15.833,89.429,26.57,134.86,19.637s89.486-34.578,104.426-75.98C680.728,412.014,668.768,371.594,648.67,335.688Z" transform="translate(-24.24 -41.11)"/><path class="b" d="M204.572,279.45l1.356.185C206.914,280.416,204.161,280.58,204.572,279.45Z" transform="translate(139.842 147.432)"/><path class="c" d="M595.55,215.12c-9.243,4.109-18.956,7.971-24.949,12.594L428.74,336.684a338.052,338.052,0,0,1-33.948,23.585c-9.563,5.65-15.03,16.436-26.6,19.312a42.289,42.289,0,0,1-17.359-.329A151.419,151.419,0,0,1,323.4,371.63c-1.108-.411-2.649-.658-3.137.493h0C237.6,359.8,158.526,326.925,76.558,309.852a4.764,4.764,0,0,1-3.651-4.347,4.972,4.972,0,0,1,2.805-5.042,101.519,101.519,0,0,1,21.154-5.67c13.151-2.65,26.133-5.239,39.246-7.581a605.285,605.285,0,0,1,79.9-9.7c44.488-2.055,89.37,3.143,133.388-4.4,41.764-7.088,81.2-25.393,120.106-43.617,9.394-4.4,18.937-8.958,26.3-16.682,5.749-6.04,10.389-14.053,17.735-18.038s16.908-3.39,25.1-2.979a344.665,344.665,0,0,1,48.489,7.108Q591.624,206.9,595.55,215.12Z" transform="translate(27.05 54.697)"/><path class="d" d="M77.762,280.914l203.065-88.343a24.2,24.2,0,0,1,14.237-2.363l251.16,21.346c4.807.678,3.945,21.346,0,24.654L397.932,362.6a37.268,37.268,0,0,1-33.221,8.218L79.549,301.5C75.913,300.616,74.351,282.619,77.762,280.914Z" transform="translate(7.038 53.085)"/><path class="e" d="M77.762,280.914l203.065-88.343a24.2,24.2,0,0,1,14.237-2.363l251.16,21.346c4.807.678,3.945,21.346,0,24.654L397.932,362.6a37.268,37.268,0,0,1-33.221,8.218L79.549,301.5C75.913,300.616,74.351,282.619,77.762,280.914Z" transform="translate(7.038 53.085)"/><path class="d" d="M545.953,224.109,397.6,350.378a37.207,37.207,0,0,1-33.2,8.32L79.2,289.38c-3.636-.883-4.109-6.636-.719-8.341l78.214-44.11,20.545-11.546,62.477-35.214a24.243,24.243,0,0,1,14.217-2.363L543.406,213.1C548.213,213.673,549.836,220.8,545.953,224.109Z" transform="translate(7.405 50.556)"/><path class="f" d="M183.835,149.98l264.617,39.138-81.439,66.154L95.41,200.315Z" transform="translate(72.785 114.583)"/><path class="g" d="M263.876,252.425A102.312,102.312,0,0,0,295.7,239.667c2.712-1.726,5.691-4.828,4.109-7.663-1.068-2.054-3.7-2.609-4.52-4.766,3.6-1.459,7.54-.781,10.807-3.6s3.616-8.218.144-10.272a15.964,15.964,0,0,0,7.643-2.548,6.163,6.163,0,0,0,2.28-7.149c-1.253-2.609-4.54-3.349-7.376-3.8a53.026,53.026,0,0,0-12.06-.966,32.4,32.4,0,0,0-13.149,4.109c-3.78,2.054-6.841,5.629-10.6,7.519-7.684,3.862-17.771,3.431-26.03,5.239-6.163,1.335-12.121,3.657-18.182,5.485s-11.813,3.143-17.792,4.458q-21.7,4.766-43.493,9.04c.945,6.472,7.869,10.046,13.929,12.491a126,126,0,0,0,26.215,8.218,108.888,108.888,0,0,0,21.325.966,181.985,181.985,0,0,0,34.926-4.006Z" transform="translate(100.565 83.853)"/><path class="h" d="M156.14,182.46,265.192,204.5l-56.4,46.02L95.41,225.07Z" transform="translate(82.443 143.501)"/><path class="i" d="M122.66,248.18a17.648,17.648,0,0,0,11.238,9.2c8.012,1.931,54.711,13.888,54.711,13.888s7.6.9,11.813-4.109Z" transform="translate(63.585 126.483)"/><path class="d" d="M158.64,303.368l298.639,42.487a8.629,8.629,0,0,0,9.7-6.883l42.61-215.145a16.662,16.662,0,0,0-14.895-19.846L199.771,78.033a16.662,16.662,0,0,0-18.018,14.792Z" transform="translate(68.576 -2.3)"/><path class="j" d="M158.64,303.368l297.9,42.384a9.512,9.512,0,0,0,10.663-7.56l42.445-214.364a16.662,16.662,0,0,0-14.895-19.846L199.771,78.033a16.662,16.662,0,0,0-18.018,14.792Z" transform="translate(68.576 -2.3)"/><path class="k" d="M422.045,286.923l42.425-217.1L163.674,42.05,139.76,247.6Z" transform="translate(98.468 26.509)"/><path class="l" d="M152.678,250.514a3.986,3.986,0,0,0,1.068,3.143,3.576,3.576,0,0,0,1.438.6,15.121,15.121,0,0,0,4.109.247,52.638,52.638,0,0,0,7.581-1.089l4.314-.822a2.055,2.055,0,0,0,1.418-.7,1.561,1.561,0,0,0-.247-1.664,6.164,6.164,0,0,0-2.774-1.808,53.411,53.411,0,0,0-7.951-2.527,3.02,3.02,0,0,1-1.253-.493c-.534-.473-.637-1.274-1.007-1.911a3.267,3.267,0,0,0-3.41-1.315c-1.233.247-3.02,1.089-3.308,2.445a26.958,26.958,0,0,0,.021,5.9Z" transform="translate(91.985 122.534)"/><path class="m" d="M167.2,244.233a2.589,2.589,0,0,0-2.486.678c-.7,1.048.226,2.712-.637,3.657a2.506,2.506,0,0,1-1.89.555H157.4a15.675,15.675,0,0,1-3.8-.308,1.932,1.932,0,0,0-.9-.1,1.13,1.13,0,0,0-.781.945,2.507,2.507,0,0,0,.185,1.274,8.217,8.217,0,0,0,1.315,2.4,1.788,1.788,0,0,0,.575.534,2.343,2.343,0,0,0,.842.144c2.815,0,5.629,0,8.444-.123,1.952-.144,3.883-.431,5.835-.6a24.777,24.777,0,0,0,8.218-1.418,2.712,2.712,0,0,0,1.582-1.418,2.055,2.055,0,0,0-.349-1.787,4.664,4.664,0,0,0-1.4-1.212,17.115,17.115,0,0,0-4.992-2.157A35.528,35.528,0,0,0,167.2,244.233Z" transform="translate(91.244 124.445)"/><path class="l" d="M127.248,249.687a.78.78,0,0,0,0,.308c.164,3.78,5.177,3.883,7.869,3.739a55.469,55.469,0,0,0,7.6-1.068l4.294-.822a2.054,2.054,0,0,0,1.418-.719,1.52,1.52,0,0,0-.246-1.644,6.163,6.163,0,0,0-2.753-1.828,73.061,73.061,0,0,0-7.088-2.3c-2.054-.637-.349-3.575-.123-5.136a1.479,1.479,0,0,0,0-.945,1.623,1.623,0,0,0-.986-.678,13.068,13.068,0,0,0-3.862-.7,1.335,1.335,0,0,0-.76.144,1.3,1.3,0,0,0-.452.637l-4.109,8.752a6.45,6.45,0,0,0-.8,2.26Z" transform="translate(69.059 118.807)"/><path class="n" d="M128.51,189.41s-3.061,17.258,3.267,30.221a207.509,207.509,0,0,0,11.115,20.278s-13.19,14.258-13.19,32.235-.329,18.8-.329,18.8l7.91,4.109,19.723-55.122s1.192-7.807,0-10.457-11.3-32.687-11.3-32.687Z" transform="translate(69.351 72.155)"/><path class="n" d="M169.467,169.708c-4.109,0-8.567-4.355-11.053-11.094-2.876-7.786-1.644-14.936,2.876-16.6s10.087,2.958,12.964,10.765h0c2.876,7.786,1.644,14.936-2.876,16.6A5.507,5.507,0,0,1,169.467,169.708ZM163.3,145.362a1.664,1.664,0,0,0-.637.1c-2.055.781-2.876,6.02-.719,11.875s6.163,9.368,8.218,8.588,2.876-6.02.719-11.875h0c-2.075-5.321-5.527-8.69-7.725-8.69Z" transform="translate(95.975 40.031)"/><path class="n" d="M178.833,174.3a1.87,1.87,0,0,1-1.459-.678l-13.6-17.093a1.835,1.835,0,0,1,2.876-2.28l13.6,17.175a1.808,1.808,0,0,1-1.418,2.958Z" transform="translate(101.925 49.997)"/><path class="l" d="M168.241,157.222a34.5,34.5,0,0,1,.226,5.444,5.9,5.9,0,0,1-2.4,3.472,12,12,0,0,1-3.965,1.726,3.308,3.308,0,0,0-1.171.493,2.835,2.835,0,0,0-.616,2.178v4.643a2.054,2.054,0,0,1-.329,1.376,1.562,1.562,0,0,1-.8.452,4.951,4.951,0,0,1-5.65-2.856,34.6,34.6,0,0,0-1.787-2.979,10.847,10.847,0,0,1-1.068-4.109,23.2,23.2,0,0,1,2.4-12.964,18.2,18.2,0,0,1,5.383-6.451c1.829-1.315,5.362-3.267,7.232-1.007.924,1.109.9,2.774,1.767,3.945.616.842,1.726,1.438,1.89,2.465s-.514,1.767-.822,2.63a4.376,4.376,0,0,0-.288,1.541Z" transform="translate(90.25 43.029)"/><path class="l" d="M166.542,157.854a1.461,1.461,0,0,0,0-.288,4.438,4.438,0,0,1,1.13-2.9,2.3,2.3,0,0,1,2.876-.411c.349.247.616.657,1.027.842s1.294,0,1.726.493.308.9.514,1.335.8.822,1.192,1.233c1.931,2.054-.205,5.814-.966,7.93-1.15,3.164-2.28,6.348-3.226,9.594a5.1,5.1,0,0,1-3.287-.637,3.636,3.636,0,0,1-.945-.822,4.643,4.643,0,0,1-.37-3.719,7.87,7.87,0,0,0,.205-2.856,25.169,25.169,0,0,0-1.027-3.041c-.288-.842-.534-1.911.123-2.506a5.343,5.343,0,0,0,.74-.555,1.479,1.479,0,0,0,.247-.822C166.583,159.765,166.5,158.8,166.542,157.854Z" transform="translate(103.685 50.252)"/><path class="m" d="M166.022,197.84l19.168,43.144-.8,61.1-8.793-.637s-15.039-34.762-5.362-56.293c0,0-23.236-19.867-31.824-31.166-10.539-13.909-8.218-25.578-8.218-25.578Z" transform="translate(70.714 70.603)"/><path class="d" d="M178.07,157.007a31.231,31.231,0,0,1,6.8,2.424c7.355,3.39,7.684,9.2,10.272,16.169a137.4,137.4,0,0,0,5.609,13.025l3.554-21,9.82,3.986s.986,30.982-6.163,35.152c-4.643,2.671-11.156-.452-15.367-2.609-1.541-.781-4.109-3.143-5.732-3.369-3.143-.431-3.349,3.308-6.163,5.485a45.733,45.733,0,0,0-5.218,3.554,17.052,17.052,0,0,0-3.431,6.163,22.291,22.291,0,0,0-.678,8.649,7.026,7.026,0,0,1-1.15,5.65,5.568,5.568,0,0,1-2.856,1.274,34.228,34.228,0,0,1-10.539-.123,105.353,105.353,0,0,1-20.422-3.657,56.6,56.6,0,0,1-7.108-2.732,4.685,4.685,0,0,1-1.356-.883,3.534,3.534,0,0,1-.8-1.726c-.924-4.232,2.054-8.218,3.677-12.183,1.027-2.712,1.356-5.67,2.28-8.423a35.914,35.914,0,0,1,4.643-7.848c1.376-2.054,2.054-4.684,3.534-6.9A135.427,135.427,0,0,1,153.6,170.936a67.1,67.1,0,0,1,8.752-9,20.545,20.545,0,0,1,13.169-5.177,15.593,15.593,0,0,1,2.548.247Z" transform="translate(67.17 49.369)"/><path class="o" d="M163.564,137.96a15.224,15.224,0,0,0-7.047,2.917c-4.5,3.657-5.527,10.272-9.8,14.2-3.657,3.308-8.937,3.965-13.847,4.479a18.285,18.285,0,0,0,23.4,11.217l-5.033,5.013a.76.76,0,0,0-.267.411c0,.329.308.534.616.637a9.779,9.779,0,0,0,7.191-.164,4.52,4.52,0,0,0,3.9,4.335,8.485,8.485,0,0,0,4.4-.534,6.163,6.163,0,0,1,2.445-.431c.7,0,1.335.37,2.054.123a13.4,13.4,0,0,0,4.931-5.527c1.623-3.657-.76-8.218,1.192-11.834,1.623-2.876,6.718-3.739,7.478-6.985.822-3.6-1.13-8.855-3.2-11.69a16.128,16.128,0,0,0-9.759-6.287,22.6,22.6,0,0,0-6.944-.144Z" transform="translate(73.386 35.921)"/><path class="m" d="M142.082,241.382a2.568,2.568,0,0,0-2.486.7c-.7,1.027.226,2.691-.637,3.636a2.424,2.424,0,0,1-1.89.555h-4.787a13.866,13.866,0,0,1-3.8-.308,2.239,2.239,0,0,0-.9-.1,1.13,1.13,0,0,0-.781.945,2.712,2.712,0,0,0,.185,1.274,8.218,8.218,0,0,0,1.315,2.4,1.435,1.435,0,0,0,1.418.678c2.815,0,5.629,0,8.444-.123,2.054-.144,3.883-.431,5.835-.575a24.778,24.778,0,0,0,8.218-1.438,2.712,2.712,0,0,0,1.582-1.418,2.055,2.055,0,0,0-.349-1.787,4.972,4.972,0,0,0-1.4-1.212,17.115,17.115,0,0,0-4.992-2.157,38.623,38.623,0,0,0-4.972-1.068Z" transform="translate(68.522 122.121)"/><path class="p" d="M226.564,251.032c-33.221-.473-60.011-11.834-59.806-25.414,0-1.5-1.13-10.026-.473-11.382,5.239-11.382,31.434-12.717,60.977-12.327,29.071.431,53.416,0,58.922,11.238.8,1.6.924,12.532.9,14.155C286.9,240.9,259.805,251.463,226.564,251.032Z" transform="translate(100.609 86.929)"/><ellipse class="q" cx="24.551" cy="60.176" rx="24.551" ry="60.176" transform="matrix(0.014, -1, 1, 0.014, 266.591, 327.166)"/><ellipse class="p" cx="20.915" cy="51.259" rx="20.915" ry="51.259" transform="matrix(0.014, -1, 1, 0.014, 275.566, 323.786)"/><path class="q" d="M179.824,209.65l8.218.123a6.718,6.718,0,0,1,3.657-5.013l5.444.842a6.163,6.163,0,0,0-3.554,4.746c0,2.363,3.287,4.109,7.889,4.109a12.327,12.327,0,0,0,9.677-3.657,17.381,17.381,0,0,1,14.155-5.259c6.739,0,11.854,2.054,13.046,5.177l8.218.123V212.9l-7.91-.123a5.855,5.855,0,0,1-2.9,4.294l-5.342-.9a5.506,5.506,0,0,0,2.794-4.109c0-2.527-3.678-3.575-6.944-3.616a11.423,11.423,0,0,0-9.327,3.986c-3.452,3.349-7.725,5.013-15.039,5.013-6.451,0-12.553-2.054-13.786-5.444l-8.444-.123Z" transform="translate(114.904 92.114)"/><path class="p" d="M221.949,239.242c-33.221-.473-60.011-11.834-59.806-25.414,0-1.5-1.13-10.026-.493-11.382,5.259-11.382,31.454-12.717,61-12.327,29.071.431,53.416,0,58.922,11.238.8,1.6.924,12.532.9,14.155C282.289,228.97,255.19,239.612,221.949,239.242Z" transform="translate(96.537 77.535)"/><ellipse class="q" cx="24.551" cy="60.176" rx="24.551" ry="60.176" transform="matrix(0.014, -1, 1, 0.014, 257.913, 305.902)"/><ellipse class="p" cx="20.915" cy="51.259" rx="20.915" ry="51.259" transform="matrix(0.014, -1, 1, 0.014, 266.865, 302.477)"/><path class="q" d="M175.162,197.81l8.218.123a6.718,6.718,0,0,1,3.657-5.013l5.444.842a6.164,6.164,0,0,0-3.554,4.746c0,2.363,3.287,4.109,7.889,4.109A12.327,12.327,0,0,0,206.575,199a17.319,17.319,0,0,1,14.155-5.259c6.739,0,11.854,2.055,13.046,5.177l8.218.123V201.1l-7.91-.123a5.855,5.855,0,0,1-2.9,4.294l-5.342-.9a5.506,5.506,0,0,0,2.794-4.109c0-2.506-3.678-3.554-6.944-3.6a11.423,11.423,0,0,0-9.327,3.986c-3.451,3.349-7.725,5.013-15.039,5.013-6.451,0-12.553-2.054-13.786-5.444l-8.444-.123Z" transform="translate(110.804 82.468)"/><path class="p" d="M235.584,233.572c-33.241-.493-60.032-11.854-59.826-25.414,0-1.5-1.13-10.026-.473-11.382,5.239-11.382,31.454-12.717,61-12.327,29.071.431,53.416,0,58.9,11.238.8,1.6.924,12.553.9,14.176C295.924,223.423,268.805,234.045,235.584,233.572Z" transform="translate(108.531 73.017)"/><ellipse class="q" cx="24.551" cy="60.176" rx="24.551" ry="60.176" transform="matrix(0.014, -1, 1, 0.014, 283.532, 295.81)"/><ellipse class="p" cx="20.915" cy="51.259" rx="20.915" ry="51.259" transform="matrix(0.014, -1, 1, 0.014, 292.555, 292.364)"/><path class="q" d="M188.782,192.18,197,192.3a6.7,6.7,0,0,1,3.657-5.013l5.444.863a6.287,6.287,0,0,0-3.575,4.746c0,2.342,3.287,4.006,7.91,4.109a12.327,12.327,0,0,0,9.759-3.616,17.34,17.34,0,0,1,14.135-5.259c6.759,0,11.875,2.054,13.046,5.2l8.218.123v2.055l-7.889-.123a5.937,5.937,0,0,1-2.917,4.294l-5.342-.9a5.588,5.588,0,0,0,2.815-4.109c0-2.506-3.7-3.554-6.944-3.616a11.485,11.485,0,0,0-9.327,3.986c-3.472,3.369-7.725,5.033-15.059,5.033-6.451,0-12.532-2.055-13.765-5.444l-8.444-.123Z" transform="translate(122.997 77.881)"/><path class="d" d="M184.823,168.807c-.966-.678,4.109-34.577,4.109-34.577l17.237,1.685-4.417,34.063Z" transform="translate(121.115 33.675)"/><path class="d" d="M201.569,179.052c-.966-.7,7.643-51.362,7.643-51.362l17.237,1.685-7.889,50.951Z" transform="translate(136.191 27.681)"/><path class="d" d="M218.324,201.023c-.945-.678,12.8-91.013,12.8-91.013l17.237,1.685-13.046,90.5Z" transform="translate(151.16 12.08)"/><path class="d" d="M235.1,191.17c-.945-.678,9.862-68.64,9.862-68.64l17.237,1.685-10.108,68.126Z" transform="translate(166.453 22.823)"/><path class="d" d="M312.779,221.408l-134.979-9.8.123-.822c1.4-10.765,13.724-105.21,14.381-106.956l1.479.473c-.514,2.054-9.41,69.626-14.135,105.867l133.294,9.656Z" transform="translate(110.253 6.266)"/><path class="r" d="M282.33,245.279l3.164-16.621a43.35,43.35,0,0,1-24.654-7.026L267,210.6a39.671,39.671,0,0,0,22.99,6.883c12.163,0,21.552-6.841,23.339-16.21S309.511,186.685,297.9,181.8c-16.107-6.451-25.352-13.95-22.6-28.208,2.609-13.642,14.607-24.058,30.817-26.708l3.164-16.58h10.539l-3.184,15.943a40.74,40.74,0,0,1,21,5.609L331.37,142.9a36.2,36.2,0,0,0-20.36-5.465c-13.087,0-19.435,7.684-20.689,14.237-1.644,8.547,3.842,12.779,17.463,18.593,16.21,6.78,23.4,15.244,20.545,29.872-2.465,12.984-14.176,25.229-32.173,28.146l-3.143,16.991Z" transform="translate(186.956 10.291)"/></g></svg>