<svg xmlns="http://www.w3.org/2000/svg" xmlns:xlink="http://www.w3.org/1999/xlink" width="399.25" height="303.36" viewBox="0 0 399.25 303.36"><defs><style>.a,.f,.p{fill:#ffbaad;}.a{opacity:0.18;}.a,.p{isolation:isolate;}.b{fill:#3f3d56;}.c{fill:url(#a);}.d{fill:#bb826c;}.e{fill:#ad7862;}.g{fill:url(#b);}.h{fill:url(#c);}.i{fill:url(#d);}.j{fill:url(#e);}.k{fill:url(#f);}.l{fill:url(#g);}.m{fill:url(#h);}.n{fill:url(#i);}.o{fill:url(#j);}.p{opacity:0.34;}.q{fill:none;stroke:#fff;stroke-miterlimit:10;stroke-width:1.1px;}.r{fill:#fff;}</style><linearGradient id="a" x1="0.527" y1="0.937" x2="0.479" y2="0.183" gradientUnits="objectBoundingBox"><stop offset="0.01"/><stop offset="0.36" stop-opacity="0.322"/><stop offset="0.41" stop-opacity="0.239"/><stop offset="0.83" stop-opacity="0"/></linearGradient><linearGradient id="b" x1="1.261" y1="0.984" x2="0.268" y2="0.333" gradientUnits="objectBoundingBox"><stop offset="0.01"/><stop offset="0.12" stop-opacity="0.749"/><stop offset="1" stop-opacity="0"/></linearGradient><linearGradient id="c" x1="0.357" y1="1.863" x2="0.517" y2="0.122" xlink:href="#b"/><linearGradient id="d" x1="1.137" y1="0.197" x2="-0.197" y2="0.842" xlink:href="#b"/><linearGradient id="e" x1="0.503" y1="-0.669" x2="0.493" y2="3.063" xlink:href="#b"/><linearGradient id="f" x1="0" y1="0.5" x2="1" y2="0.5" xlink:href="#b"/><linearGradient id="g" x1="1.047" y1="-0.28" x2="-0.294" y2="1.735" xlink:href="#b"/><linearGradient id="h" x1="1.047" y1="-0.28" x2="-0.294" y2="1.735" xlink:href="#b"/><linearGradient id="i" x1="0.864" y1="1.356" x2="0.335" y2="-0.265" xlink:href="#b"/><linearGradient id="j" x1="-0.364" y1="0.673" x2="0.773" y2="0.485" gradientUnits="objectBoundingBox"><stop offset="0.02" stop-color="#fff" stop-opacity="0"/><stop offset="0.58" stop-color="#fff" stop-opacity="0.388"/><stop offset="1" stop-color="#fff"/></linearGradient></defs><path class="a" d="M61.89,138.25C76.56,124.53,91.89,111,102,93.62c9.24-15.81,14-34.52,26.67-47.77,10-10.45,23.77-16.33,37.63-20.36,36.16-10.49,76-9.83,110.71,4.67s63.86,43.33,76,79c6.68,19.63,8.3,40.89,16.71,59.85,7.1,16,18.92,30.11,22.53,47.25,6.18,29.39-14.62,59.12-41.2,73.1s-57.67,15.8-87.67,17.22c-54.94,2.61-111.24,4.71-165-8.9-24.43-6.18-54.43-15-71.71-34.43-13.46-15.15-9.24-29.6-7.84-48.15C21.32,181.82,38.1,160.49,61.89,138.25Z" transform="translate(-5.22 -17.29)"/><path class="b" d="M199.32,75.06s-7.73,6.73-7.66,16.52-.52,36-.92,44.39,1.06,20.3,4.29,22.14S218.16,163.29,230,161s13.43-9.88,13.43-18.84.79-42.42.79-48.73-1.46-17.87-12.7-21.9C224.68,69.13,207.9,68.42,199.32,75.06Z" transform="translate(-5.22 -17.29)"/><path class="c" d="M201.55,74.64s-6.78,6.73-6.72,16.53-.46,36-.81,44.39.93,20.3,3.77,22.14,20.3,5.18,30.65,2.92,11.79-9.88,11.79-18.85.69-42.41.69-48.72-1.28-17.87-11.14-21.9C223.81,68.71,209.09,68,201.55,74.64Z" transform="translate(-5.22 -17.29)"/><path class="d" d="M228.56,123.74l1,21.5s-3.54,5.56-10.25,4.81c-10.37-1.15-9.92-4.23-9.92-4.23s0-15.53-.42-19" transform="translate(-5.22 -17.29)"/><path class="e" d="M226.08,130.74l2.4-4.33L209,128.56c.16,1.33.26,4.42.32,7.72a15.49,15.49,0,0,0,16.76-5.54Z" transform="translate(-5.22 -17.29)"/><path class="f" d="M243.67,282.42S228,293.7,211.69,292c-44-4.49-35.49-18.44-35.49-18.44s8.49-116.07,13.49-120.4c2.08-1.8,3.66-2.66,17.49-5.29,7.6-1.45,11.5-2.4,22-.48,1.54.28,2.93.52,4.17.73a85.5,85.5,0,0,0,9,1.16h.78v7.74l.09,25.5.11,28.52.14,39.83Z" transform="translate(-5.22 -17.29)"/><path class="g" d="M243.54,250.94a8.17,8.17,0,0,1-.94,1.25,13.43,13.43,0,0,1-4.18,2.89c-7.48,3.61-16,4.33-24.29,4.52-9.84.23-19.67-.23-29.5-.7-1.69-.07-3.54-.21-4.74-1.41s-1.35-3.14-1.38-4.87v-6.05a9.561,9.561,0,0,1,.6-4c1.45-3.15,57.41,1.45,57.74-1.84.21-2.06,1.43-48,5.61-61.37-.16.54.41,2,.88,3.28Z" transform="translate(-5.22 -17.29)"/><path class="d" d="M199.34,90.44s.86,27.53,8.87,37c8.45,10,20.41,12.14,25.17,2.21,8.57-17.87,8.08-22.43,8.38-29.3C242.52,82.48,215.19,67.13,199.34,90.44Z" transform="translate(-5.22 -17.29)"/><path class="f" d="M285.38,239.21S257,228.29,253,226.85c-2.29-.82-6.33-5.68-9.57-15.74-2.47-7.61-4.46-18.23-4.9-32.32-.43-13.86.35-21.25,1.38-25.18.84-3.14,1.83-4.07,2.51-4.29a1,1,0,0,1,.78,0c12.12,5.43,19.82,60.7,19.82,60.7l27.29,17C293.78,228.53,285.38,239.21,285.38,239.21Z" transform="translate(-5.22 -17.29)"/><path class="f" d="M233.37,143l.17,5a2.16,2.16,0,0,1-1,2L219,157.54a1.73,1.73,0,0,1-1.65,0l-13.51-6.75a2.11,2.11,0,0,1-1.12-1.8l.12-5.31a2.05,2.05,0,0,1,1.69-2.21l26.71-.57a2,2,0,0,1,2.13,2.1Z" transform="translate(-5.22 -17.29)"/><path class="h" d="M233.37,143l.17,5a2.16,2.16,0,0,1-1,2L219,157.54a1.73,1.73,0,0,1-1.65,0l-13.51-6.75a2.11,2.11,0,0,1-1.12-1.8l.12-5.31a2.05,2.05,0,0,1,1.69-2.21l26.71-.57a2,2,0,0,1,2.13,2.1Z" transform="translate(-5.22 -17.29)"/><path class="b" d="M224.83,96.44c.49.94.4,2.3,1.31,2.88a2.75,2.75,0,0,0,1.21.31,11.9,11.9,0,0,0,4.61-.16,4,4,0,0,0,3-3.2,7,7,0,0,0,4.13,5,7,7,0,0,1,2,1c.92.82,1,2.2,1.06,3.43.1,3.87-.34,8.29.4,12.07,1.1-1.13,1.12-3.89,1.3-5.42a60.939,60.939,0,0,0,.37-9.55C244,96.5,243,88.58,238,84.15a10.37,10.37,0,0,0-5.58-2.56c-9.79-1.36-4.93-8.92-18.66-4.26s-19,12.76-17.14,24.82C197,104.8,198,115,201.48,116c1.3.38,2-.91,2.38-2,1.18-3.64,1.85-6.68,4-10,2-3.18,4.82-6.56,8.58-6.53,1.51,0,3,.61,4.48.66s3.27-.71,3.51-2.2a1.78,1.78,0,0,1,.4.51Z" transform="translate(-5.22 -17.29)"/><path class="d" d="M202.53,107.93s-.45-4.15-4.53-2.36-.25,9,1.34,11,4.65,1.37,4.65,1.37" transform="translate(-5.22 -17.29)"/><path class="f" d="M191.87,151.7,187.11,173l-3.3,14.79-.35.52c-2.72,4-20.44,28.91-33.14,18.31-13.78-11.52-26.55-51.48-26.55-51.48a9.73,9.73,0,0,1,3.75-4.56,23.78,23.78,0,0,1,8.52-3.41S158.88,183,160.2,182.63s16.55-16.78,20-20.85S191.87,151.7,191.87,151.7Z" transform="translate(-5.22 -17.29)"/><path class="i" d="M290.28,227.08l-2.43,6.5L257,211.76s-10.44-44.22-13.78-54.67a9.76,9.76,0,0,0-.84-2.15,6.75,6.75,0,0,0-2.48-1.33A80.249,80.249,0,0,0,229.8,151l3.55-2.88a85.5,85.5,0,0,0,9,1.16,1,1,0,0,1,.78,0c12.12,5.43,19.82,60.7,19.82,60.7Z" transform="translate(-5.22 -17.29)"/><path class="b" d="M285.14,228a8.42,8.42,0,0,0-1.91,1.86,6.7,6.7,0,0,0-1.55,2.77,4.89,4.89,0,0,0,.63,3.27,13.4,13.4,0,0,0,2.09,2.66,1.21,1.21,0,0,0,.85.5,1.19,1.19,0,0,0,.78-.56c.69-.89,1.33-1.81,2-2.73l2.25-3.22a6.261,6.261,0,0,0,1.14-2.22c.26-1.27-.1-3.08-1.47-3.35a7.69,7.69,0,0,0-4.81,1.02Z" transform="translate(-5.22 -17.29)"/><path class="d" d="M283.93,233.81c0,2.45,2.15,4.37,4.34,5.47s4.64,1.74,6.55,3.28c1.52,1.22,2.59,2.94,4.18,4.07s4.11,1.41,5.26-.15c.91-1.24.63-3.18,1.81-4.18s3.16-.27,4.69.36a17.86,17.86,0,0,0,8.85,1.19,5.62,5.62,0,0,0,2.42-.75c1.61-1.07,1.93-3.45,1.15-5.22a9.52,9.52,0,0,0-4.07-4c-6.47-3.85-14.08-4.57-21.46-4.69C293.6,229.1,283.86,226.71,283.93,233.81Z" transform="translate(-5.22 -17.29)"/><path class="d" d="M22.23,237.59H377v53.66a12.11,12.11,0,0,1-12.11,12.11H34.34a12.11,12.11,0,0,1-12.11-12.11Z"/><path class="j" d="M22.23,237.59H377v53.66a12.11,12.11,0,0,1-12.11,12.11H34.34a12.11,12.11,0,0,1-12.11-12.11Z"/><rect class="d" width="399.25" height="10.19" rx="5.09" transform="translate(0 232.96)"/><rect class="f" width="73.8" height="6.48" rx="3.24" transform="translate(264.73 226.79)"/><path class="f" d="M371.43,250.25H312.56l15.48-42a7.49,7.49,0,0,1,7-4.89h47.11a4.58,4.58,0,0,1,4.29,6.15Z" transform="translate(-5.22 -17.29)"/><rect class="k" width="73.8" height="6.48" rx="3.24" transform="translate(264.73 226.79)"/><path class="l" d="M371.43,250.25H312.56l15.48-42a7.49,7.49,0,0,1,7-4.89h47.11a4.58,4.58,0,0,1,4.29,6.15Z" transform="translate(-5.22 -17.29)"/><path class="m" d="M376.68,250.25H317.81l15.48-42a7.49,7.49,0,0,1,7-4.89h47.1a4.57,4.57,0,0,1,4.29,6.15Z" transform="translate(-5.22 -17.29)"/><path class="n" d="M185.08,174.14l-1.27,13.66-.35.52c-2.72,4-20.44,28.91-33.14,18.31-13.78-11.52-26.55-51.48-26.55-51.48a9.73,9.73,0,0,1,3.75-4.56l2.14,6.41s16.36,46.31,25.93,44.46C163.7,199.89,185.08,174.14,185.08,174.14Z" transform="translate(-5.22 -17.29)"/><path class="f" d="M114.32,108.11s16.37-5.56,27.48-2.47,10.5,26.86,10.5,26.86-.62,38,1.23,43.23.62,26.25,4.33,31.19l-37.67-.62s1.23-50.64,1.23-57.43,0-28.41-3.7-32.73-12-4.94-12-4.94Z" transform="translate(-5.22 -17.29)"/><path class="o" d="M114.32,108.11s16.37-5.56,27.48-2.47,10.5,26.86,10.5,26.86-.62,38,1.23,43.23.62,26.25,4.33,31.19l-37.67-.62s1.23-50.64,1.23-57.43,0-28.41-3.7-32.73-12-4.94-12-4.94Z" transform="translate(-5.22 -17.29)"/><path class="d" d="M116.23,134.52a7.74,7.74,0,0,1,7.33.24,5,5,0,0,1,2.14,2.32,6.36,6.36,0,0,1,.31,2.64,23.18,23.18,0,0,1-3.28,10.91,3.72,3.72,0,0,1-1.82,1.79,3.21,3.21,0,0,1-1.79,0,8.53,8.53,0,0,1-5.24-4.55C111.71,143.47,111.21,137.09,116.23,134.52Z" transform="translate(-5.22 -17.29)"/><circle class="p" cx="38.51" cy="38.51" r="38.51" transform="translate(261.54 63.61)"/><circle class="p" cx="38.51" cy="38.51" r="38.51" transform="translate(102.83 0)"/><path class="q" d="M280.37,84.85v31.08h42.61"/><rect class="r" width="7.26" height="21.26" transform="translate(288.25 94.21)"/><rect class="r" width="7.26" height="15.99" transform="translate(299.82 99.48)"/><rect class="r" width="7.26" height="29.94" transform="translate(310.63 85.53)"/><path class="r" d="M142.93,53.87a31.35,31.35,0,0,1-3.56-1.3,13.21,13.21,0,0,1-3.23-2,9.86,9.86,0,0,1-2.34-2.89,8.54,8.54,0,0,1-.91-4.08,9.7,9.7,0,0,1,.81-4,9.46,9.46,0,0,1,2.18-3.07,10,10,0,0,1,3.2-2,12.7,12.7,0,0,1,3.85-.8V30h2.5v3.75a16.81,16.81,0,0,1,2.57.31,13.48,13.48,0,0,1,2.61.78,13.791,13.791,0,0,1,2.42,1.3,10.31,10.31,0,0,1,2,1.82l-2.86,2.19a7.49,7.49,0,0,0-3-2.58,9.5,9.5,0,0,0-3.72-.91V51c1.32.45,2.61,1,3.88,1.53a14,14,0,0,1,3.38,2.13,10.05,10.05,0,0,1,2.39,3.05A9.31,9.31,0,0,1,156,62a9.53,9.53,0,0,1-.81,4A8.9,8.9,0,0,1,153,69a10.88,10.88,0,0,1-3.36,2,12.76,12.76,0,0,1-4.16.78v3.74h-2.5v-3.7a13.9,13.9,0,0,1-6.32-1.62A14.57,14.57,0,0,1,132,66.3l3-2.08a6.76,6.76,0,0,0,1.72,2,12.629,12.629,0,0,0,2.16,1.4,10.281,10.281,0,0,0,2.21.86,7.79,7.79,0,0,0,1.92.29Zm0-17.22a6.77,6.77,0,0,0-4.58,1.9,6.32,6.32,0,0,0-1.87,4.76,5.58,5.58,0,0,0,1.77,4.39,11.23,11.23,0,0,0,4.68,2.37Zm2.5,32.15a9.46,9.46,0,0,0,2.37-.44,6.43,6.43,0,0,0,2.2-1.23A6.18,6.18,0,0,0,151.62,65a7.51,7.51,0,0,0,.62-3.25,5.92,5.92,0,0,0-1.92-4.47,12.51,12.51,0,0,0-4.89-2.76Z" transform="translate(-5.22 -17.29)"/></svg>