<svg xmlns="http://www.w3.org/2000/svg" width="104.349" height="101.69" viewBox="0 0 104.349 101.69"><defs><style>.a{fill:#f3755f;}.b{fill:#b7a43c;}.c{fill:#fff;}</style></defs><g transform="translate(-484 -1018.78)"><g transform="translate(484.032 1019.03)"><path class="a" d="M65.763,4.129,94.956,25.537c8.174,5.839,11.288,15.959,8.174,25.69l-10.9,34.253A23.012,23.012,0,0,1,70.044,101.44H34.234c-10.12,0-18.684-6.228-22.187-15.959L1.148,51.227c-3.114-9.731,0-19.851,8.563-25.69l28.8-21.408A23.382,23.382,0,0,1,65.763,4.129Z" transform="translate(0)"/></g><g transform="translate(484.032 1019.03)"><path class="b" d="M65.763,4.129,94.956,25.537c8.174,5.839,11.288,15.959,8.174,25.69l-10.9,34.253A23.012,23.012,0,0,1,70.044,101.44H34.234c-10.12,0-18.684-6.228-22.187-15.959L1.148,51.227c-3.114-9.731,0-19.851,8.563-25.69l28.8-21.408A23.382,23.382,0,0,1,65.763,4.129Z" transform="translate(0)"/></g><g transform="translate(-699.798 119.812)"><path class="c" d="M1235.642,952.025l.8-2.134a.689.689,0,0,0-.644-.926h-15.056a4.705,4.705,0,0,0-4.67,4.186l-.6,5.717a1.139,1.139,0,0,0,.886,1.207c.6.121,1.449.242,2.295.322l.523,9.1a1.456,1.456,0,0,0,1.45,1.368h4.388a1.455,1.455,0,0,0,1.449-1.368l.765-15.62a1.426,1.426,0,0,1,1.409-1.409H1235A.608.608,0,0,0,1235.642,952.025Z" transform="translate(0 -2.411)"/><circle class="c" cx="4.791" cy="4.791" r="4.791" transform="translate(1218.009 935.686)"/><g transform="translate(1233.411 953.653)"><path class="c" d="M1258.606,957.638h-19.565a1.658,1.658,0,0,0-1.651,1.65V970.6a1.658,1.658,0,0,0,1.651,1.65h19.565a1.657,1.657,0,0,0,1.651-1.65V959.329A1.693,1.693,0,0,0,1258.606,957.638Zm-10.225,6.763-1.61,1.368a.5.5,0,0,0-.161.524l.483,2.053a.511.511,0,0,1-.764.564l-1.812-1.087a.594.594,0,0,0-.523,0l-1.812,1.087a.511.511,0,0,1-.764-.564l.483-2.053a.529.529,0,0,0-.161-.524l-1.61-1.368a.5.5,0,0,1,.282-.886l2.094-.161a.47.47,0,0,0,.443-.322l.805-1.932a.506.506,0,0,1,.926,0l.805,1.932a.623.623,0,0,0,.443.322l2.093.161A.5.5,0,0,1,1248.381,964.4Zm8.252,4.871h-5.8a.644.644,0,0,1,0-1.288h5.8a.644.644,0,0,1,0,1.288Zm0-3.663h-5.8a.644.644,0,0,1,0-1.288h5.8a.636.636,0,0,1,.644.644A.613.613,0,0,1,1256.634,965.609Zm0-3.623h-5.8a.644.644,0,0,1,0-1.288h5.8a.644.644,0,0,1,0,1.288Z" transform="translate(-1237.391 -957.638)"/></g></g><g transform="translate(-699.798 119.812)"><path class="c" d="M1235.642,952.025l.8-2.134a.689.689,0,0,0-.644-.926h-15.056a4.705,4.705,0,0,0-4.67,4.186l-.6,5.717a1.139,1.139,0,0,0,.886,1.207c.6.121,1.449.242,2.295.322l.523,9.1a1.456,1.456,0,0,0,1.45,1.368h4.388a1.455,1.455,0,0,0,1.449-1.368l.765-15.62a1.426,1.426,0,0,1,1.409-1.409H1235A.608.608,0,0,0,1235.642,952.025Z" transform="translate(0 -2.411)"/><circle class="c" cx="4.791" cy="4.791" r="4.791" transform="translate(1218.009 935.686)"/><g transform="translate(1233.411 953.653)"><path class="c" d="M1258.606,957.638h-19.565a1.658,1.658,0,0,0-1.651,1.65V970.6a1.658,1.658,0,0,0,1.651,1.65h19.565a1.657,1.657,0,0,0,1.651-1.65V959.329A1.693,1.693,0,0,0,1258.606,957.638Zm-10.225,6.763-1.61,1.368a.5.5,0,0,0-.161.524l.483,2.053a.511.511,0,0,1-.764.564l-1.812-1.087a.594.594,0,0,0-.523,0l-1.812,1.087a.511.511,0,0,1-.764-.564l.483-2.053a.529.529,0,0,0-.161-.524l-1.61-1.368a.5.5,0,0,1,.282-.886l2.094-.161a.47.47,0,0,0,.443-.322l.805-1.932a.506.506,0,0,1,.926,0l.805,1.932a.623.623,0,0,0,.443.322l2.093.161A.5.5,0,0,1,1248.381,964.4Zm8.252,4.871h-5.8a.644.644,0,0,1,0-1.288h5.8a.644.644,0,0,1,0,1.288Zm0-3.663h-5.8a.644.644,0,0,1,0-1.288h5.8a.636.636,0,0,1,.644.644A.613.613,0,0,1,1256.634,965.609Zm0-3.623h-5.8a.644.644,0,0,1,0-1.288h5.8a.644.644,0,0,1,0,1.288Z" transform="translate(-1237.391 -957.638)"/></g></g></g></svg>