<svg xmlns="http://www.w3.org/2000/svg" width="104.349" height="101.69" viewBox="0 0 104.349 101.69"><defs><style>.a{fill:#f3755f;}.b{fill:#f3a95f;}.c{fill:#fff;}</style></defs><g transform="translate(-484 -849.78)"><g transform="translate(484.032 850.03)"><path class="a" d="M65.763,4.129,94.956,25.537c8.174,5.839,11.288,15.959,8.174,25.69l-10.9,34.253A23.012,23.012,0,0,1,70.044,101.44H34.234c-10.12,0-18.684-6.228-22.187-15.959L1.148,51.227c-3.114-9.731,0-19.851,8.563-25.69l28.8-21.408A23.382,23.382,0,0,1,65.763,4.129Z" transform="translate(0)"/></g><g transform="translate(484.032 850.03)"><path class="b" d="M65.763,4.129,94.956,25.537c8.174,5.839,11.288,15.959,8.174,25.69l-10.9,34.253A23.012,23.012,0,0,1,70.044,101.44H34.234c-10.12,0-18.684-6.228-22.187-15.959L1.148,51.227c-3.114-9.731,0-19.851,8.563-25.69l28.8-21.408A23.382,23.382,0,0,1,65.763,4.129Z" transform="translate(0)"/></g><g transform="translate(-697.912 120.539)"><path class="c" d="M1233.091,785.844l.818-2.169a.7.7,0,0,0-.655-.941h-15.307a4.784,4.784,0,0,0-4.748,4.256l-.614,5.812a1.158,1.158,0,0,0,.9,1.227c.613.123,1.473.245,2.333.328l.533,9.25a1.479,1.479,0,0,0,1.473,1.391h4.461a1.479,1.479,0,0,0,1.474-1.391l.778-15.88a1.45,1.45,0,0,1,1.432-1.433h6.467A.619.619,0,0,0,1233.091,785.844Z" transform="translate(0 -2.23)"/><circle class="c" cx="4.87" cy="4.87" r="4.87" transform="translate(1215.164 769.454)"/><path class="c" d="M1258.7,783.651h-14.53a2.484,2.484,0,0,0-2.506,2.506v13.809a2.484,2.484,0,0,0,2.506,2.506h14.53a2.484,2.484,0,0,0,2.507-2.506V786.157A2.512,2.512,0,0,0,1258.7,783.651Zm-10.749,4.164a1.827,1.827,0,1,1-1.827,1.826A1.813,1.813,0,0,1,1247.948,787.815Zm-.255,10.112a1.24,1.24,0,0,1-.807-.34,1.128,1.128,0,0,1,0-1.572l7.477-7.477a1.111,1.111,0,0,1,1.572,1.572l-7.477,7.477A.921.921,0,0,1,1247.694,797.927Zm7.223.467a1.827,1.827,0,1,1,1.827-1.826A1.87,1.87,0,0,1,1254.916,798.393Z" transform="translate(-4.882 -2.384)"/></g><g transform="translate(-697.912 120.539)"><path class="c" d="M1233.091,785.844l.818-2.169a.7.7,0,0,0-.655-.941h-15.307a4.784,4.784,0,0,0-4.748,4.256l-.614,5.812a1.158,1.158,0,0,0,.9,1.227c.613.123,1.473.245,2.333.328l.533,9.25a1.479,1.479,0,0,0,1.473,1.391h4.461a1.479,1.479,0,0,0,1.474-1.391l.778-15.88a1.45,1.45,0,0,1,1.432-1.433h6.467A.619.619,0,0,0,1233.091,785.844Z" transform="translate(0 -2.23)"/><circle class="c" cx="4.87" cy="4.87" r="4.87" transform="translate(1215.164 769.454)"/><path class="c" d="M1258.7,783.651h-14.53a2.484,2.484,0,0,0-2.506,2.506v13.809a2.484,2.484,0,0,0,2.506,2.506h14.53a2.484,2.484,0,0,0,2.507-2.506V786.157A2.512,2.512,0,0,0,1258.7,783.651Zm-10.749,4.164a1.827,1.827,0,1,1-1.827,1.826A1.813,1.813,0,0,1,1247.948,787.815Zm-.255,10.112a1.24,1.24,0,0,1-.807-.34,1.128,1.128,0,0,1,0-1.572l7.477-7.477a1.111,1.111,0,0,1,1.572,1.572l-7.477,7.477A.921.921,0,0,1,1247.694,797.927Zm7.223.467a1.827,1.827,0,1,1,1.827-1.826A1.87,1.87,0,0,1,1254.916,798.393Z" transform="translate(-4.882 -2.384)"/></g></g></svg>