<svg xmlns="http://www.w3.org/2000/svg" width="104.349" height="101.69" viewBox="0 0 104.349 101.69"><defs><style>.a{fill:#f3755f;}.b{fill:#f3d15f;}.c{fill:#fff;}</style></defs><g transform="translate(-484 -216.78)"><g transform="translate(484.032 217.03)"><path class="a" d="M65.763,4.129,94.956,25.537c8.174,5.839,11.288,15.959,8.174,25.69l-10.9,34.253A23.012,23.012,0,0,1,70.044,101.44H34.234c-10.12,0-18.684-6.228-22.187-15.959L1.148,51.227c-3.114-9.731,0-19.851,8.563-25.69l28.8-21.408A23.382,23.382,0,0,1,65.763,4.129Z" transform="translate(0)"/></g><g transform="translate(484.032 217.03)"><path class="b" d="M65.763,4.129,94.956,25.537c8.174,5.839,11.288,15.959,8.174,25.69l-10.9,34.253A23.012,23.012,0,0,1,70.044,101.44H34.234c-10.12,0-18.684-6.228-22.187-15.959L1.148,51.227c-3.114-9.731,0-19.851,8.563-25.69l28.8-21.408A23.382,23.382,0,0,1,65.763,4.129Z" transform="translate(0)"/></g><g transform="translate(510.064 248.436)"><path class="c" d="M46.139,39.324V35.9c-2.31,1.4-5.94,1.939-9.24,1.939s-6.889-.536-9.2-1.9v3.382c0,1.691,4.125,3.094,9.2,3.094S46.139,41.015,46.139,39.324Z" transform="translate(-10.992 -19.623)"/><path class="c" d="M27.7,18.841v3.382c0,1.691,4.125,3.135,9.2,3.135s9.24-1.4,9.24-3.135V18.8c-2.31,1.4-5.94,1.939-9.24,1.939S30.01,20.2,27.7,18.841Z" transform="translate(-10.992 -9.576)"/><ellipse class="c" cx="9.24" cy="3.094" rx="9.24" ry="3.094" transform="translate(16.667 2.5)"/><path class="c" d="M66.391,47.752c-.206.7-.7,1.774-1.2,2.929a3.7,3.7,0,0,1-.289,2.97,4.673,4.673,0,0,1-.536.825c-.536.7-1.237,1.485-2.021,2.351l-.165.165a.576.576,0,0,1-.742.124.607.607,0,0,1-.124-.866c.041-.083.124-.124.165-.206a16.813,16.813,0,0,0,2.351-2.929c.742-1.485.247-2.475-.495-2.887a1.337,1.337,0,0,0-1.856.33,35.971,35.971,0,0,1-2.392,2.97,25.61,25.61,0,0,0-2.557,3.259,16.314,16.314,0,0,0-1.609,6.229c-.083,1.279-.124,2.764-.124,3.671a.827.827,0,0,0,.825.825h5.2a.827.827,0,0,0,.825-.825V65.2a1.076,1.076,0,0,1,.454-.866,25.7,25.7,0,0,0,4.579-3.96c2.145-2.475,2.887-9.817,3.011-12A1.68,1.68,0,0,0,66.391,47.752Z" transform="translate(-26.913 -25.823)"/><path class="c" d="M22.153,56.814A25.61,25.61,0,0,0,19.6,53.556a25.167,25.167,0,0,1-2.392-2.97,1.376,1.376,0,0,0-1.856-.33c-.742.412-1.237,1.4-.495,2.887A17.255,17.255,0,0,0,17.2,56.072c.041.082.124.124.165.206a.55.55,0,0,1-.124.866.576.576,0,0,1-.742-.124l-.165-.165A29.852,29.852,0,0,1,14.316,54.5c-.206-.289-.371-.577-.536-.825a3.536,3.536,0,0,1-.289-2.97,24.521,24.521,0,0,1-1.2-2.929,1.685,1.685,0,0,0-3.3.66c.124,2.186.866,9.529,3.011,12a27.483,27.483,0,0,0,4.579,3.96,1.076,1.076,0,0,1,.454.866v1.485a.827.827,0,0,0,.825.825h5.2a.827.827,0,0,0,.825-.825c-.041-.907-.083-2.392-.124-3.671A15.619,15.619,0,0,0,22.153,56.814Z" transform="translate(0 -25.852)"/></g><g transform="translate(510.064 248.436)"><path class="c" d="M46.139,39.324V35.9c-2.31,1.4-5.94,1.939-9.24,1.939s-6.889-.536-9.2-1.9v3.382c0,1.691,4.125,3.094,9.2,3.094S46.139,41.015,46.139,39.324Z" transform="translate(-10.992 -19.623)"/><path class="c" d="M27.7,18.841v3.382c0,1.691,4.125,3.135,9.2,3.135s9.24-1.4,9.24-3.135V18.8c-2.31,1.4-5.94,1.939-9.24,1.939S30.01,20.2,27.7,18.841Z" transform="translate(-10.992 -9.576)"/><ellipse class="c" cx="9.24" cy="3.094" rx="9.24" ry="3.094" transform="translate(16.667 2.5)"/><path class="c" d="M66.391,47.752c-.206.7-.7,1.774-1.2,2.929a3.7,3.7,0,0,1-.289,2.97,4.673,4.673,0,0,1-.536.825c-.536.7-1.237,1.485-2.021,2.351l-.165.165a.576.576,0,0,1-.742.124.607.607,0,0,1-.124-.866c.041-.083.124-.124.165-.206a16.813,16.813,0,0,0,2.351-2.929c.742-1.485.247-2.475-.495-2.887a1.337,1.337,0,0,0-1.856.33,35.971,35.971,0,0,1-2.392,2.97,25.61,25.61,0,0,0-2.557,3.259,16.314,16.314,0,0,0-1.609,6.229c-.083,1.279-.124,2.764-.124,3.671a.827.827,0,0,0,.825.825h5.2a.827.827,0,0,0,.825-.825V65.2a1.076,1.076,0,0,1,.454-.866,25.7,25.7,0,0,0,4.579-3.96c2.145-2.475,2.887-9.817,3.011-12A1.68,1.68,0,0,0,66.391,47.752Z" transform="translate(-26.913 -25.823)"/><path class="c" d="M22.153,56.814A25.61,25.61,0,0,0,19.6,53.556a25.167,25.167,0,0,1-2.392-2.97,1.376,1.376,0,0,0-1.856-.33c-.742.412-1.237,1.4-.495,2.887A17.255,17.255,0,0,0,17.2,56.072c.041.082.124.124.165.206a.55.55,0,0,1-.124.866.576.576,0,0,1-.742-.124l-.165-.165A29.852,29.852,0,0,1,14.316,54.5c-.206-.289-.371-.577-.536-.825a3.536,3.536,0,0,1-.289-2.97,24.521,24.521,0,0,1-1.2-2.929,1.685,1.685,0,0,0-3.3.66c.124,2.186.866,9.529,3.011,12a27.483,27.483,0,0,0,4.579,3.96,1.076,1.076,0,0,1,.454.866v1.485a.827.827,0,0,0,.825.825h5.2a.827.827,0,0,0,.825-.825c-.041-.907-.083-2.392-.124-3.671A15.619,15.619,0,0,0,22.153,56.814Z" transform="translate(0 -25.852)"/></g></g></svg>