<svg xmlns="http://www.w3.org/2000/svg" width="104.349" height="101.69" viewBox="0 0 104.349 101.69"><defs><style>.a{fill:#f3755f;}.b{fill:#58bfff;}.c{fill:#fff;fill-rule:evenodd;}</style></defs><g transform="translate(-484 -529.78)"><g transform="translate(484.032 530.03)"><path class="a" d="M65.763,4.129,94.956,25.537c8.174,5.839,11.288,15.959,8.174,25.69l-10.9,34.253A23.012,23.012,0,0,1,70.044,101.44H34.234c-10.12,0-18.684-6.228-22.187-15.959L1.148,51.227c-3.114-9.731,0-19.851,8.563-25.69l28.8-21.408A23.382,23.382,0,0,1,65.763,4.129Z" transform="translate(0)"/></g><g transform="translate(484.032 530.03)"><path class="b" d="M65.763,4.129,94.956,25.537c8.174,5.839,11.288,15.959,8.174,25.69l-10.9,34.253A23.012,23.012,0,0,1,70.044,101.44H34.234c-10.12,0-18.684-6.228-22.187-15.959L1.148,51.227c-3.114-9.731,0-19.851,8.563-25.69l28.8-21.408A23.382,23.382,0,0,1,65.763,4.129Z" transform="translate(0)"/></g><g transform="translate(-690.994 122.532)"><path class="c" d="M1228.034,452.914l1.009-.73,1.409,1.948-1.011.73a.38.38,0,0,1-.53-.071l-.977-1.351a.38.38,0,0,1,.1-.525Zm12.035,6.751c-2.81,1.807-12.249,8.213-12.249,8.213l-2.518,14c-.188,1.794-1.815,2.119-3.714,2.281l-4.99-.091a2.525,2.525,0,0,1-2.7-2.663l.574-13.9a4.814,4.814,0,0,1,2.819-3.582l16.316-7.7-.872-1.207a12.306,12.306,0,0,0,1.4-.973l1.042,1.44,4.158-1.964C1242.439,452.055,1241.74,458.592,1240.069,459.665Zm-7.445-5.528,1.462-1.057-2.908-4.02-1.462,1.057c-.131.1-.7.647-.57.824l2.518,3.481c.132.18.787-.159.96-.285Zm2.192-1.434,6.523-1.85-5.777-7.986-3.8,5.617,3.051,4.218Zm-16.281-2.865a5.729,5.729,0,1,1-5.728,5.728A5.729,5.729,0,0,1,1218.535,449.838Z" transform="translate(0 0)"/></g><g transform="translate(-690.994 122.532)"><path class="c" d="M1228.034,452.914l1.009-.73,1.409,1.948-1.011.73a.38.38,0,0,1-.53-.071l-.977-1.351a.38.38,0,0,1,.1-.525Zm12.035,6.751c-2.81,1.807-12.249,8.213-12.249,8.213l-2.518,14c-.188,1.794-1.815,2.119-3.714,2.281l-4.99-.091a2.525,2.525,0,0,1-2.7-2.663l.574-13.9a4.814,4.814,0,0,1,2.819-3.582l16.316-7.7-.872-1.207a12.306,12.306,0,0,0,1.4-.973l1.042,1.44,4.158-1.964C1242.439,452.055,1241.74,458.592,1240.069,459.665Zm-7.445-5.528,1.462-1.057-2.908-4.02-1.462,1.057c-.131.1-.7.647-.57.824l2.518,3.481c.132.18.787-.159.96-.285Zm2.192-1.434,6.523-1.85-5.777-7.986-3.8,5.617,3.051,4.218Zm-16.281-2.865a5.729,5.729,0,1,1-5.728,5.728A5.729,5.729,0,0,1,1218.535,449.838Z" transform="translate(0 0)"/></g></g></svg>