<svg xmlns="http://www.w3.org/2000/svg" width="104.349" height="101.69" viewBox="0 0 104.349 101.69"><defs><style>.a{fill:#f3755f;}.b{fill:#f080ff;}.c,.d{fill:#fff;}.c{fill-rule:evenodd;}</style></defs><g transform="translate(-484 -1191.78)"><g transform="translate(484.032 1192.03)"><path class="a" d="M65.763,4.129,94.956,25.537c8.174,5.839,11.288,15.959,8.174,25.69l-10.9,34.253A23.012,23.012,0,0,1,70.044,101.44H34.234c-10.12,0-18.684-6.228-22.187-15.959L1.148,51.227c-3.114-9.731,0-19.851,8.563-25.69l28.8-21.408A23.382,23.382,0,0,1,65.763,4.129Z" transform="translate(0)"/></g><g transform="translate(484.032 1192.03)"><path class="b" d="M65.763,4.129,94.956,25.537c8.174,5.839,11.288,15.959,8.174,25.69l-10.9,34.253A23.012,23.012,0,0,1,70.044,101.44H34.234c-10.12,0-18.684-6.228-22.187-15.959L1.148,51.227c-3.114-9.731,0-19.851,8.563-25.69l28.8-21.408A23.382,23.382,0,0,1,65.763,4.129Z" transform="translate(0)"/></g><g transform="translate(-703.324 136.178)"><path class="c" d="M1237.683,1138.289a3.9,3.9,0,1,1-3.9-3.9A3.917,3.917,0,0,1,1237.683,1138.289Zm-2.636,0a1.265,1.265,0,1,0-2.521,0,1.26,1.26,0,1,0,2.521,0Z"/><path class="c" d="M1250.4,1138.289a3.839,3.839,0,1,1-3.9-3.9A3.841,3.841,0,0,1,1250.4,1138.289Zm-2.521,0a1.324,1.324,0,0,0-1.375-1.375,1.3,1.3,0,0,0-1.261,1.375,1.272,1.272,0,0,0,1.261,1.261A1.3,1.3,0,0,0,1247.882,1138.289Z"/><path class="c" d="M1254.529,1112.848l-28.536-2.636-1.146-5.5a1.593,1.593,0,0,0-1.146-1.26l-5.386-1.49a1.543,1.543,0,1,0-.8,2.979l4.469,1.261,5.387,26.014a1.49,1.49,0,0,0,1.489,1.261h23.15a1.547,1.547,0,0,0,0-3.094h-21.889l-.688-3.553h23.035a2.454,2.454,0,0,0,2.407-1.948l1.833-9.283A2.262,2.262,0,0,0,1254.529,1112.848Zm-19.253,8.136h10.543a.8.8,0,0,1,0,1.6h-10.543A.8.8,0,0,1,1235.276,1120.984Zm0-5.042h10.543a.746.746,0,1,1,0,1.49h-10.543A.746.746,0,1,1,1235.276,1115.942Z"/></g><g transform="translate(-703.324 136.178)"><path class="c" d="M1237.683,1138.289a3.9,3.9,0,1,1-3.9-3.9A3.917,3.917,0,0,1,1237.683,1138.289Zm-2.636,0a1.265,1.265,0,1,0-2.521,0,1.26,1.26,0,1,0,2.521,0Z"/><path class="c" d="M1250.4,1138.289a3.839,3.839,0,1,1-3.9-3.9A3.841,3.841,0,0,1,1250.4,1138.289Zm-2.521,0a1.324,1.324,0,0,0-1.375-1.375,1.3,1.3,0,0,0-1.261,1.375,1.272,1.272,0,0,0,1.261,1.261A1.3,1.3,0,0,0,1247.882,1138.289Z"/><path class="c" d="M1254.529,1112.848l-28.536-2.636-1.146-5.5a1.593,1.593,0,0,0-1.146-1.26l-5.386-1.49a1.543,1.543,0,1,0-.8,2.979l4.469,1.261,5.387,26.014a1.49,1.49,0,0,0,1.489,1.261h23.15a1.547,1.547,0,0,0,0-3.094h-21.889l-.688-3.553h23.035a2.454,2.454,0,0,0,2.407-1.948l1.833-9.283A2.262,2.262,0,0,0,1254.529,1112.848Zm-19.253,8.136h10.543a.8.8,0,0,1,0,1.6h-10.543A.8.8,0,0,1,1235.276,1120.984Zm0-5.042h10.543a.746.746,0,1,1,0,1.49h-10.543A.746.746,0,1,1,1235.276,1115.942Z"/></g><g transform="translate(-2506.056 -652.177)"><g transform="translate(3032.807 1875.317)"><g transform="translate(0 0)"><path class="d" d="M39.718,74.617a.7.7,0,0,0-.276-.509l-.731-.554a1.916,1.916,0,0,0-3.8.351,4.074,4.074,0,0,1-1.576-.636l-.245-.165A.7.7,0,0,0,32,73.684v.576a4.054,4.054,0,0,0,.728,2.33l-.525.531a.7.7,0,0,0,.5,1.2h3.4a2.657,2.657,0,0,0,2.629-2.361l.786-.8A.7.7,0,0,0,39.718,74.617Zm-2.171.539a.7.7,0,0,0-.2.493A1.254,1.254,0,0,1,36.1,76.913H34.317a.7.7,0,0,0-.145-.774,2.684,2.684,0,0,1-.681-1.2,5.459,5.459,0,0,0,2.125.429.7.7,0,0,0,.7-.7V73.93a.513.513,0,1,1,1.025,0,.7.7,0,0,0,.278.559l.335.253Z" transform="translate(-32 -72)"/></g></g><g transform="translate(3038.95 1888.528)"><g transform="translate(0 0)"><path class="d" d="M220.211,121.4V120h-2.106a.7.7,0,0,0-.7.7v2.106H216v1.4h1.4v2.807h1.4v-2.807h1.4v-1.4h-1.4v-1.4Z" transform="translate(-216 -120)"/></g></g><g transform="translate(3034.739 1885.72)"><g transform="translate(0 0)"><path class="d" d="M178.528,88h-8.422A2.108,2.108,0,0,0,168,90.106v8.422a2.108,2.108,0,0,0,2.106,2.106h8.422a2.108,2.108,0,0,0,2.106-2.106V90.106A2.108,2.108,0,0,0,178.528,88Zm.7,10.528a.7.7,0,0,1-.7.7h-8.422a.7.7,0,0,1-.7-.7V90.106a.7.7,0,0,1,.7-.7h8.422a.7.7,0,0,1,.7.7Z" transform="translate(-168 -88)"/></g></g><g transform="translate(3030 1872.509)"><g transform="translate(0 0)"><path class="d" d="M10.528,40H2.106A2.108,2.108,0,0,0,0,42.106v8.422a2.108,2.108,0,0,0,2.106,2.106h8.422a2.108,2.108,0,0,0,2.106-2.106V42.106A2.108,2.108,0,0,0,10.528,40Zm.7,10.528a.7.7,0,0,1-.7.7H2.106a.7.7,0,0,1-.7-.7V42.106a.7.7,0,0,1,.7-.7h8.422a.7.7,0,0,1,.7.7Z" transform="translate(0 -40)"/></g></g><g transform="translate(3047.478 1873)"><g transform="translate(0)"><path class="d" d="M346.528,0h-8.422A2.108,2.108,0,0,0,336,2.106v8.422a2.108,2.108,0,0,0,2.106,2.106h8.422a2.108,2.108,0,0,0,2.106-2.106V2.106A2.108,2.108,0,0,0,346.528,0Zm.7,10.528a.7.7,0,0,1-.7.7h-8.422a.7.7,0,0,1-.7-.7V7.019h1.475a3.509,3.509,0,0,0,6.877,0h1.475Zm-7.019-4.211a2.106,2.106,0,1,1,2.106,2.106A2.108,2.108,0,0,1,340.211,6.317Zm7.019-.7h-1.475a3.509,3.509,0,0,0-6.877,0H337.4V2.106a.7.7,0,0,1,.7-.7h8.422a.7.7,0,0,1,.7.7Z" transform="translate(-336)"/></g></g></g><g transform="translate(-2506.056 -652.177)"><g transform="translate(3032.807 1875.317)"><g transform="translate(0 0)"><path class="d" d="M39.718,74.617a.7.7,0,0,0-.276-.509l-.731-.554a1.916,1.916,0,0,0-3.8.351,4.074,4.074,0,0,1-1.576-.636l-.245-.165A.7.7,0,0,0,32,73.684v.576a4.054,4.054,0,0,0,.728,2.33l-.525.531a.7.7,0,0,0,.5,1.2h3.4a2.657,2.657,0,0,0,2.629-2.361l.786-.8A.7.7,0,0,0,39.718,74.617Zm-2.171.539a.7.7,0,0,0-.2.493A1.254,1.254,0,0,1,36.1,76.913H34.317a.7.7,0,0,0-.145-.774,2.684,2.684,0,0,1-.681-1.2,5.459,5.459,0,0,0,2.125.429.7.7,0,0,0,.7-.7V73.93a.513.513,0,1,1,1.025,0,.7.7,0,0,0,.278.559l.335.253Z" transform="translate(-32 -72)"/></g></g><g transform="translate(3038.95 1888.528)"><g transform="translate(0 0)"><path class="d" d="M220.211,121.4V120h-2.106a.7.7,0,0,0-.7.7v2.106H216v1.4h1.4v2.807h1.4v-2.807h1.4v-1.4h-1.4v-1.4Z" transform="translate(-216 -120)"/></g></g><g transform="translate(3034.739 1885.72)"><g transform="translate(0 0)"><path class="d" d="M178.528,88h-8.422A2.108,2.108,0,0,0,168,90.106v8.422a2.108,2.108,0,0,0,2.106,2.106h8.422a2.108,2.108,0,0,0,2.106-2.106V90.106A2.108,2.108,0,0,0,178.528,88Zm.7,10.528a.7.7,0,0,1-.7.7h-8.422a.7.7,0,0,1-.7-.7V90.106a.7.7,0,0,1,.7-.7h8.422a.7.7,0,0,1,.7.7Z" transform="translate(-168 -88)"/></g></g><g transform="translate(3030 1872.509)"><g transform="translate(0 0)"><path class="d" d="M10.528,40H2.106A2.108,2.108,0,0,0,0,42.106v8.422a2.108,2.108,0,0,0,2.106,2.106h8.422a2.108,2.108,0,0,0,2.106-2.106V42.106A2.108,2.108,0,0,0,10.528,40Zm.7,10.528a.7.7,0,0,1-.7.7H2.106a.7.7,0,0,1-.7-.7V42.106a.7.7,0,0,1,.7-.7h8.422a.7.7,0,0,1,.7.7Z" transform="translate(0 -40)"/></g></g><g transform="translate(3047.478 1873)"><g transform="translate(0)"><path class="d" d="M346.528,0h-8.422A2.108,2.108,0,0,0,336,2.106v8.422a2.108,2.108,0,0,0,2.106,2.106h8.422a2.108,2.108,0,0,0,2.106-2.106V2.106A2.108,2.108,0,0,0,346.528,0Zm.7,10.528a.7.7,0,0,1-.7.7h-8.422a.7.7,0,0,1-.7-.7V7.019h1.475a3.509,3.509,0,0,0,6.877,0h1.475Zm-7.019-4.211a2.106,2.106,0,1,1,2.106,2.106A2.108,2.108,0,0,1,340.211,6.317Zm7.019-.7h-1.475a3.509,3.509,0,0,0-6.877,0H337.4V2.106a.7.7,0,0,1,.7-.7h8.422a.7.7,0,0,1,.7.7Z" transform="translate(-336)"/></g></g></g><path class="c" d="M11.591,1.939a6.612,6.612,0,0,0-10.4,7.976L.25,13.339l3.5-.919a6.6,6.6,0,0,0,3.159.8h0A6.613,6.613,0,0,0,11.591,1.939ZM6.916,12.109h0a5.487,5.487,0,0,1-2.8-.766l-.2-.119-2.079.545.555-2.027-.131-.208a5.494,5.494,0,1,1,4.654,2.575ZM9.929,7.994c-.165-.083-.977-.482-1.129-.537s-.262-.083-.372.083-.427.537-.523.648-.193.124-.358.041a4.511,4.511,0,0,1-1.328-.82A4.982,4.982,0,0,1,5.3,6.264c-.1-.165,0-.246.072-.337a4.672,4.672,0,0,0,.413-.565.3.3,0,0,0-.014-.289c-.041-.083-.372-.9-.509-1.226s-.27-.278-.372-.283-.206-.006-.317-.006a.607.607,0,0,0-.44.207,1.852,1.852,0,0,0-.578,1.378A3.213,3.213,0,0,0,4.231,6.85,7.362,7.362,0,0,0,7.053,9.344a9.454,9.454,0,0,0,.942.348,2.264,2.264,0,0,0,1.04.065,1.7,1.7,0,0,0,1.115-.785,1.38,1.38,0,0,0,.1-.785C10.2,8.118,10.094,8.076,9.929,7.994Zm0,0" transform="translate(542.581 1234.33)"/><path class="c" d="M11.591,1.939a6.612,6.612,0,0,0-10.4,7.976L.25,13.339l3.5-.919a6.6,6.6,0,0,0,3.159.8h0A6.613,6.613,0,0,0,11.591,1.939ZM6.916,12.109h0a5.487,5.487,0,0,1-2.8-.766l-.2-.119-2.079.545.555-2.027-.131-.208a5.494,5.494,0,1,1,4.654,2.575ZM9.929,7.994c-.165-.083-.977-.482-1.129-.537s-.262-.083-.372.083-.427.537-.523.648-.193.124-.358.041a4.511,4.511,0,0,1-1.328-.82A4.982,4.982,0,0,1,5.3,6.264c-.1-.165,0-.246.072-.337a4.672,4.672,0,0,0,.413-.565.3.3,0,0,0-.014-.289c-.041-.083-.372-.9-.509-1.226s-.27-.278-.372-.283-.206-.006-.317-.006a.607.607,0,0,0-.44.207,1.852,1.852,0,0,0-.578,1.378A3.213,3.213,0,0,0,4.231,6.85,7.362,7.362,0,0,0,7.053,9.344a9.454,9.454,0,0,0,.942.348,2.264,2.264,0,0,0,1.04.065,1.7,1.7,0,0,0,1.115-.785,1.38,1.38,0,0,0,.1-.785C10.2,8.118,10.094,8.076,9.929,7.994Zm0,0" transform="translate(542.581 1234.33)"/></g></svg>