<svg xmlns="http://www.w3.org/2000/svg" width="104.349" height="101.69" viewBox="0 0 104.349 101.69"><defs><style>.a{fill:#f3755f;}.b{fill:#ba5ff3;}.c{fill:#fff;}</style></defs><g transform="translate(-484 -679.78)"><g transform="translate(484.032 680.03)"><path class="a" d="M65.763,4.129,94.956,25.537c8.174,5.839,11.288,15.959,8.174,25.69l-10.9,34.253A23.012,23.012,0,0,1,70.044,101.44H34.234c-10.12,0-18.684-6.228-22.187-15.959L1.148,51.227c-3.114-9.731,0-19.851,8.563-25.69l28.8-21.408A23.382,23.382,0,0,1,65.763,4.129Z" transform="translate(0)"/></g><g transform="translate(484.032 680.03)"><path class="b" d="M65.763,4.129,94.956,25.537c8.174,5.839,11.288,15.959,8.174,25.69l-10.9,34.253A23.012,23.012,0,0,1,70.044,101.44H34.234c-10.12,0-18.684-6.228-22.187-15.959L1.148,51.227c-3.114-9.731,0-19.851,8.563-25.69l28.8-21.408A23.382,23.382,0,0,1,65.763,4.129Z" transform="translate(0)"/></g><path class="c" d="M25.755,11.825a4.489,4.489,0,1,1-4.489,4.489,4.489,4.489,0,0,1,4.489-4.489Zm6.768,22.33,1.032-7.875h0A3.84,3.84,0,0,0,29.745,22H28.369a.459.459,0,0,0-.359.175l-2.175,2.713q-.112.142-.224,0l-2.175-2.713A.459.459,0,0,0,23.072,22H21.765a3.84,3.84,0,0,0-3.816,4.279l1.032,7.87a3.287,3.287,0,0,0,2,2.663L22.688,48.4a1.666,1.666,0,0,0,1.656,1.5H27.1a1.661,1.661,0,0,0,1.646-1.481l1.721-11.561A3.317,3.317,0,0,0,32.523,34.154Zm-24-2.314a.863.863,0,0,0,1.362.7l3.99-2.858a.858.858,0,0,0,0-1.4l-3.99-2.858a.863.863,0,0,0-1.362.7v.763H2.682A1.052,1.052,0,0,0,1.63,27.935v2.135a1.052,1.052,0,0,0,1.052,1.052H8.523Zm40.3-4.958h-5.84v-.763a.863.863,0,0,0-1.362-.7l-3.99,2.858a.858.858,0,0,0,0,1.4l3.99,2.858a.863.863,0,0,0,1.362-.7V31.1h5.84a1.052,1.052,0,0,0,1.052-1.052v-2.13A1.052,1.052,0,0,0,48.828,26.882Zm-3.661-14.2-1.5-1.5a1.052,1.052,0,0,0-1.5,0l-4.13,4.13-.524-.524a.863.863,0,0,0-1.456.469l-.8,4.843a.858.858,0,0,0,1,1l4.843-.8a.863.863,0,0,0,.469-1.456l-.524-.524,4.13-4.13a1.052,1.052,0,0,0-.015-1.511Zm-38.824,1.5,4.13,4.13-.524.524a.863.863,0,0,0,.469,1.456l4.863.788a.858.858,0,0,0,1-1l-.8-4.843a.863.863,0,0,0-1.456-.469l-.524.524-4.13-4.13a1.052,1.052,0,0,0-1.5,0l-1.5,1.5a1.052,1.052,0,0,0-.035,1.511ZM9.336,46.8l4.13-4.13.524.524a.863.863,0,0,0,1.456-.469l.8-4.873a.858.858,0,0,0-1-1l-4.843.8a.863.863,0,0,0-.469,1.456l.524.524-4.13,4.13a1.052,1.052,0,0,0,0,1.5l1.5,1.5a1.052,1.052,0,0,0,1.506.035Zm31.7-7.137.524-.524a.863.863,0,0,0-.469-1.456l-4.863-.8a.858.858,0,0,0-1,1l.8,4.843a.863.863,0,0,0,1.456.469l.524-.524,4.13,4.13a1.052,1.052,0,0,0,1.5,0l1.5-1.5a1.052,1.052,0,0,0,0-1.5Z" transform="translate(510.245 708.781)"/><path class="c" d="M25.755,11.825a4.489,4.489,0,1,1-4.489,4.489,4.489,4.489,0,0,1,4.489-4.489Zm6.768,22.33,1.032-7.875h0A3.84,3.84,0,0,0,29.745,22H28.369a.459.459,0,0,0-.359.175l-2.175,2.713q-.112.142-.224,0l-2.175-2.713A.459.459,0,0,0,23.072,22H21.765a3.84,3.84,0,0,0-3.816,4.279l1.032,7.87a3.287,3.287,0,0,0,2,2.663L22.688,48.4a1.666,1.666,0,0,0,1.656,1.5H27.1a1.661,1.661,0,0,0,1.646-1.481l1.721-11.561A3.317,3.317,0,0,0,32.523,34.154Zm-24-2.314a.863.863,0,0,0,1.362.7l3.99-2.858a.858.858,0,0,0,0-1.4l-3.99-2.858a.863.863,0,0,0-1.362.7v.763H2.682A1.052,1.052,0,0,0,1.63,27.935v2.135a1.052,1.052,0,0,0,1.052,1.052H8.523Zm40.3-4.958h-5.84v-.763a.863.863,0,0,0-1.362-.7l-3.99,2.858a.858.858,0,0,0,0,1.4l3.99,2.858a.863.863,0,0,0,1.362-.7V31.1h5.84a1.052,1.052,0,0,0,1.052-1.052v-2.13A1.052,1.052,0,0,0,48.828,26.882Zm-3.661-14.2-1.5-1.5a1.052,1.052,0,0,0-1.5,0l-4.13,4.13-.524-.524a.863.863,0,0,0-1.456.469l-.8,4.843a.858.858,0,0,0,1,1l4.843-.8a.863.863,0,0,0,.469-1.456l-.524-.524,4.13-4.13a1.052,1.052,0,0,0-.015-1.511Zm-38.824,1.5,4.13,4.13-.524.524a.863.863,0,0,0,.469,1.456l4.863.788a.858.858,0,0,0,1-1l-.8-4.843a.863.863,0,0,0-1.456-.469l-.524.524-4.13-4.13a1.052,1.052,0,0,0-1.5,0l-1.5,1.5a1.052,1.052,0,0,0-.035,1.511ZM9.336,46.8l4.13-4.13.524.524a.863.863,0,0,0,1.456-.469l.8-4.873a.858.858,0,0,0-1-1l-4.843.8a.863.863,0,0,0-.469,1.456l.524.524-4.13,4.13a1.052,1.052,0,0,0,0,1.5l1.5,1.5a1.052,1.052,0,0,0,1.506.035Zm31.7-7.137.524-.524a.863.863,0,0,0-.469-1.456l-4.863-.8a.858.858,0,0,0-1,1l.8,4.843a.863.863,0,0,0,1.456.469l.524-.524,4.13,4.13a1.052,1.052,0,0,0,1.5,0l1.5-1.5a1.052,1.052,0,0,0,0-1.5Z" transform="translate(510.245 708.781)"/></g></svg>