<svg xmlns="http://www.w3.org/2000/svg" xmlns:xlink="http://www.w3.org/1999/xlink" width="576.286" height="389.273" viewBox="0 0 576.286 389.273"><defs><style>.a,.e,.u{fill:#ffbaad;}.a{opacity:0.18;}.a,.bh,.u{isolation:isolate;}.b{fill:url(#a);}.c{fill:#f8c244;}.d{fill:#e8a825;}.f{fill:#473f47;}.g{fill:#fff;}.h{opacity:0.41;}.i{opacity:0.5;}.j{fill:url(#b);}.k{fill:url(#c);}.l{fill:#f9c6d6;}.m{fill:url(#d);}.n{fill:url(#e);}.o{fill:url(#f);}.p{fill:#282328;}.q{fill:url(#g);}.r{fill:url(#h);}.s{fill:url(#i);}.t{fill:none;stroke:#473f47;stroke-miterlimit:10;stroke-width:0.32px;}.bh,.u{opacity:0.24;}.v{fill:#606161;}.aa,.ad,.ag,.ah,.aj,.an,.ao,.aq,.av,.aw,.ax,.az,.ba,.bb,.bc,.bd,.be,.bg,.w,.x,.y,.z{opacity:0.37;}.w{fill:url(#j);}.x{fill:url(#k);}.y{fill:url(#l);}.z{fill:url(#m);}.aa{fill:url(#n);}.ab{fill:url(#o);}.ac{fill:url(#p);}.ad{fill:url(#q);}.ae{fill:url(#r);}.af{fill:url(#s);}.ag{fill:url(#t);}.ah{fill:url(#u);}.ai{fill:url(#v);}.aj{fill:url(#w);}.ak{fill:#f4f4f6;}.al{fill:url(#x);}.am{fill:url(#y);}.an{fill:url(#z);}.ao{fill:url(#aa);}.ap{fill:url(#ab);}.aq{fill:url(#ac);}.ar{fill:url(#ad);}.as{fill:url(#ae);}.at{fill:url(#af);}.au{fill:#f0decd;}.av{fill:url(#ag);}.aw{fill:url(#ah);}.ax{fill:url(#ai);}.ay{fill:#e9cac5;}.az{fill:url(#aj);}.ba{fill:url(#al);}.bb{fill:url(#am);}.bc{fill:url(#an);}.bd{fill:url(#ao);}.be{fill:url(#ap);}.bf{fill:url(#aq);}.bg{fill:url(#ar);}</style><linearGradient id="a" x1="0.52" y1="-1.471" x2="0.472" y2="3.595" gradientUnits="objectBoundingBox"><stop offset="0.01"/><stop offset="0.13" stop-opacity="0.69"/><stop offset="0.25" stop-opacity="0.322"/><stop offset="1" stop-opacity="0"/></linearGradient><linearGradient id="b" x1="-2.011" y1="0.014" x2="6.973" y2="1.753" gradientUnits="objectBoundingBox"><stop offset="0.01"/><stop offset="0.08" stop-opacity="0.69"/><stop offset="0.21" stop-opacity="0.322"/><stop offset="1" stop-opacity="0"/></linearGradient><linearGradient id="c" x1="0.514" y1="-5.818" x2="0.46" y2="18" xlink:href="#b"/><linearGradient id="d" x1="1.235" y1="-0.153" x2="-0.577" y2="1.606" xlink:href="#a"/><linearGradient id="e" x1="0.064" y1="0.218" x2="1.641" y2="1.235" xlink:href="#a"/><linearGradient id="f" x1="0.244" y1="1.639" x2="0.903" y2="-1.154" xlink:href="#a"/><linearGradient id="g" x1="-0.254" y1="0.084" x2="2.1" y2="1.181" xlink:href="#a"/><linearGradient id="h" x1="-0.068" y1="-0.55" x2="1.677" y2="2.187" xlink:href="#a"/><linearGradient id="i" x1="2.474" y1="0.357" x2="-2.329" y2="0.767" xlink:href="#a"/><linearGradient id="j" x1="0.481" y1="-0.588" x2="0.501" y2="0.605" gradientUnits="objectBoundingBox"><stop offset="0" stop-color="#010101" stop-opacity="0"/><stop offset="0.95" stop-color="#010101"/></linearGradient><linearGradient id="k" x1="0.465" y1="-1.639" x2="0.612" y2="7.488" xlink:href="#j"/><linearGradient id="l" x1="0.49" y1="-0.679" x2="0.522" y2="3.715" xlink:href="#j"/><linearGradient id="m" x1="0.494" y1="-1.035" x2="0.515" y2="4.222" xlink:href="#j"/><linearGradient id="n" x1="0.532" y1="-2.23" x2="0.414" y2="6.861" xlink:href="#j"/><linearGradient id="o" x1="29.167" y1="0.498" x2="30.158" y2="0.498" gradientUnits="objectBoundingBox"><stop offset="0" stop-color="#e4c5d5"/><stop offset="0.42" stop-color="#e9d3cf"/><stop offset="1" stop-color="#efe8ca"/></linearGradient><linearGradient id="p" x1="7.725" y1="0.499" x2="8.731" y2="0.499" xlink:href="#o"/><linearGradient id="q" x1="0" y1="0.5" x2="1" y2="0.5" xlink:href="#j"/><linearGradient id="r" x1="7.549" y1="0.5" x2="8.549" y2="0.5" xlink:href="#o"/><linearGradient id="s" x1="5.926" y1="0.5" x2="6.926" y2="0.5" xlink:href="#o"/><linearGradient id="t" x1="-0.077" y1="0.771" x2="2.435" y2="-0.18" xlink:href="#j"/><linearGradient id="u" x1="0.976" y1="-0.496" x2="-0.744" y2="3.121" xlink:href="#j"/><linearGradient id="v" x1="3.218" y1="0.501" x2="4.218" y2="0.501" xlink:href="#o"/><linearGradient id="w" x1="-0.299" y1="0.556" x2="0.796" y2="0.479" xlink:href="#j"/><linearGradient id="x" x1="-0.001" y1="0.5" x2="0.999" y2="0.5" xlink:href="#o"/><linearGradient id="y" x1="-0.001" y1="0.5" x2="1" y2="0.5" xlink:href="#o"/><linearGradient id="z" x1="0.372" y1="0.573" x2="0.94" y2="0.397" xlink:href="#j"/><linearGradient id="aa" x1="0.218" y1="0.252" x2="0.601" y2="0.555" xlink:href="#j"/><linearGradient id="ab" x1="0.001" y1="0.5" x2="1" y2="0.5" xlink:href="#o"/><linearGradient id="ac" x1="0.075" y1="1.477" x2="1.546" y2="-1.953" xlink:href="#j"/><linearGradient id="ad" x1="0.001" y1="0.501" x2="0.999" y2="0.501" xlink:href="#o"/><linearGradient id="ae" x1="-0.003" y1="0.501" x2="0.998" y2="0.501" xlink:href="#o"/><linearGradient id="af" x1="0" y1="0.504" x2="1" y2="0.504" xlink:href="#o"/><linearGradient id="ag" x1="0.855" y1="0.5" x2="0.243" y2="0.5" xlink:href="#j"/><linearGradient id="ah" x1="1.497" y1="0.457" x2="-5.908" y2="0.772" xlink:href="#j"/><linearGradient id="ai" x1="0.428" y1="0.845" x2="1.001" y2="-1.552" xlink:href="#j"/><linearGradient id="aj" x1="0.906" y1="0.718" x2="0.276" y2="0.45" xlink:href="#j"/><linearGradient id="al" x1="0" y1="0.5" x2="0.996" y2="0.5" xlink:href="#j"/><linearGradient id="am" x1="1.465" y1="0.313" x2="-1.731" y2="0.969" xlink:href="#j"/><linearGradient id="an" x1="-0.094" y1="0.176" x2="3.741" y2="2.142" xlink:href="#j"/><linearGradient id="ao" x1="-0.001" y1="0.5" x2="1.001" y2="0.5" xlink:href="#j"/><linearGradient id="ap" x1="0.741" y1="0.552" x2="-0.756" y2="0.226" xlink:href="#j"/><linearGradient id="aq" x1="0.828" y1="-0.45" x2="0.144" y2="1.7" xlink:href="#o"/><linearGradient id="ar" x1="0.308" y1="0.777" x2="1.345" y2="-0.752" xlink:href="#j"/></defs><g transform="translate(-2448 -276)"><g transform="translate(2668.035 276)"><path class="a" d="M86.39,65.05c-27.54,32.19-26.11,81.64-42,121.39-8.49,21.31-23.5,40.58-26.12,63.37-2.56,22.23,8.1,45.8,27.1,59.93,41.36,30.76,93.18,3.22,138.17,3.81,33.78.45,66.32,19,99.87,16.33a93.08,93.08,0,0,0,29.81-7.81A107.72,107.72,0,0,0,365,273.85c6.85-13,10-30.11,9-44.76-1.52-22.33-3.42-45.78-16.28-64.93-17.1-25.45-44.8-29.73-69.57-44.26-26.75-15.69-45-40.41-67.42-60.67C194.78,35.83,153.61,28.71,121.4,41,106.09,46.87,94.87,55.14,86.39,65.05Z" transform="translate(-17.93 -35.06)"/><path class="b" d="M327,302.19c-2.49,3.88-7.56,5-12.12,5.7-32.59,4.73-65.75,1-98.47-2.82-2.53-.3-5.28-.7-7-2.57l3.75-3a425.344,425.344,0,0,1-81.65,2.77c-3.86-.24-8.06-.69-10.78-3.43-1.88-1.88-2.78-4.64-4.87-6.3-2.84-2.25-6.9-1.78-10.49-1.27A275.924,275.924,0,0,1,69.62,294c-8.67.1-18.33-.64-24.24-7,5.62-4.32,12.32-6.95,18.92-9.54,8.48-3.32,17-6.65,25.91-8.57,10.78-2.33,21.88-2.53,32.9-2.73l119.66-2.13c12.33-.22,24.77-.43,36.88,1.9,13.8,2.65,43.38,14.62,31.72,32.49C312.63,298.52,327.6,301.24,327,302.19Z" transform="translate(-17.93 -35.06)"/><circle class="c" cx="41.23" cy="41.23" r="41.23" transform="translate(18.02 168.73)"/><circle class="d" cx="35.13" cy="35.13" r="35.13" transform="matrix(0.265, -0.964, 0.964, 0.265, 16.069, 234.496)"/><path class="c" d="M71.61,266.69l.6-5.61A16.19,16.19,0,0,1,64,257.73l1.72-3.57a14.84,14.84,0,0,0,7.68,3.23c4,.43,6.86-1.54,7.2-4.7s-1.62-5.17-5.54-7.29c-5.42-2.84-8.64-5.77-8.12-10.58.5-4.6,4.14-7.74,9.34-8l.6-5.6,3.44.37-.58,5.37a15.05,15.05,0,0,1,7,2.73L85,233.24a13.41,13.41,0,0,0-6.78-2.65c-4.27-.46-6.15,1.92-6.39,4.13-.31,2.88,1.58,4.54,6.18,7.06,5.46,2.95,8,6.14,7.5,11.07-.47,4.38-4,8.16-9.77,8.49l-.62,5.76Z" transform="translate(-17.93 -35.06)"/><circle class="c" cx="41.23" cy="41.23" r="41.23" transform="translate(66.5 169.82)"/><circle class="d" cx="35.13" cy="35.13" r="35.13" transform="translate(60.03 197.142) rotate(-28.72)"/><path class="c" d="M136.73,265.55l-3.47-4.44a16.2,16.2,0,0,1-8.23,3.31l-1.25-3.77a14.79,14.79,0,0,0,7.77-3c3.15-2.45,3.85-5.88,1.89-8.39s-4.76-2.58-9-1.38c-5.86,1.74-10.21,1.88-13.19-1.94-2.85-3.65-2.41-8.44,1.12-12.26l-3.46-4.44,2.73-2.13,3.32,4.26a15,15,0,0,1,6.92-2.91l1.22,3.79a13.35,13.35,0,0,0-6.71,2.82c-3.39,2.64-3.08,5.65-1.72,7.41,1.79,2.28,4.31,2.16,9.36.77,6-1.69,10-1.19,13.09,2.73,2.71,3.47,2.83,8.62-1.11,12.89l3.56,4.58Z" transform="translate(-17.93 -35.06)"/><path class="e" d="M252.06,74.3V278.45a17.83,17.83,0,0,1-17.83,17.83H145.87A17.83,17.83,0,0,1,128,278.45V74.3a17.83,17.83,0,0,1,17.83-17.84h88.36A17.83,17.83,0,0,1,252.06,74.3Z" transform="translate(-17.93 -35.06)"/><rect class="f" width="119.13" height="233.39" rx="17.24" transform="translate(112.55 24.42)"/><path class="g" d="M246.23,78.88V271.49a16.47,16.47,0,0,1-16.63,16.3H150.29a16.71,16.71,0,0,1-8.27-2.16,16.22,16.22,0,0,1-8.38-14.14V78.88a16.48,16.48,0,0,1,16.65-16.3h13.4V65a7.89,7.89,0,0,0,5,7.17,8.32,8.32,0,0,0,3.05.58h36.84a8,8,0,0,0,8-7.881V62.58h13a16.77,16.77,0,0,1,11.49,4.52,16.1,16.1,0,0,1,5.16,11.78Z" transform="translate(-17.93 -35.06)"/><circle class="a" cx="26.85" cy="26.85" r="26.85" transform="translate(145.29 51.13)"/><rect class="a" width="85.32" height="69.47" transform="translate(128.99 124.63)"/><g class="h"><rect class="e" width="14.06" height="12.25" transform="translate(137.18 178.45)"/></g><rect class="e" width="14.06" height="21.78" transform="translate(151.13 168.92)"/><g class="i"><rect class="e" width="14.06" height="31.83" transform="translate(165.08 158.87)"/></g><rect class="e" width="14.06" height="41.62" transform="translate(179.03 149.08)"/><rect class="e" width="14.06" height="51.49" transform="translate(192.98 139.21)"/><rect class="j" width="14.06" height="51.49" transform="translate(192.98 139.21)"/><rect class="k" width="78.01" height="3.41" transform="translate(131.81 190.7)"/><rect class="a" width="41.12" height="52.02" transform="translate(128.99 200.5)"/><rect class="a" width="41.12" height="52.02" transform="translate(173.19 200.5)"/><path class="e" d="M188.49,132.89V128a14,14,0,0,1-7.4-2.08l1.13-3.25a12.81,12.81,0,0,0,6.93,2c3.46,0,5.75-2,5.74-4.76s-1.9-4.29-5.49-5.73c-4.94-1.91-8-4.12-8-8.32,0-4,2.81-7.07,7.26-7.82V93.17h3v4.68a13,13,0,0,1,6.29,1.66l-1.17,3.25a11.63,11.63,0,0,0-6.09-1.62c-3.72,0-5.11,2.26-5.1,4.18,0,2.51,1.81,3.76,6,5.48,5,2,7.51,4.5,7.54,8.8,0,3.81-2.63,7.41-7.59,8.26v5Z" transform="translate(-17.93 -35.06)"/><path class="l" d="M240.21,206.17c-.33.48-.73,1.19-1.25,1.41-.76.32-1.82-.26-2.45-.64a21.658,21.658,0,0,1-3-2.18c-.87-.74-1.68-1.55-2.62-2.2a5.58,5.58,0,0,0-3.17-1.13c-2.42,0-3.7,2.4-3.93,4.53s.94,4.49,3,4.9c1.11.22,2.26-.16,3.39-.06,3.81.32,6.18,5.73,9.94,5a6.91,6.91,0,0,0,3.35-2.22l3.87-3.87c2.27-2.27,4.67-4.79,5.06-8,.29-2.43-1.43-7.83-4.41-6.25-1.42.75-2.87,3.91-3.83,5.22-1.27,1.77-2.53,3.55-3.83,5.29C240.28,206.06,240.24,206.11,240.21,206.17Z" transform="translate(-17.93 -35.06)"/><path class="e" d="M198.35,166.97l17.93,4.76,6.27,22.93-17.4-2.84Z"/><path class="m" d="M234.54,228.68l-.56-2.43a1.79,1.79,0,0,0-1.74-1.87,5.63,5.63,0,0,1-3.43-1.38,4.3,4.3,0,0,1-.92-2.79c0-1.51.45-3.2,1.78-3.92l8.84,6.19,2,7.25Z" transform="translate(-17.93 -35.06)"/><path class="e" d="M241.55,200.65a2.94,2.94,0,0,0-.15.94,2.49,2.49,0,0,0,.54,1.22,24.321,24.321,0,0,1,2.87,5.69,7.41,7.41,0,0,0,.8,1.82,2.1,2.1,0,0,0,1.65,1,2,2,0,0,0,1.76-1.46,6.09,6.09,0,0,0,.17-2.41c-.17-2.35-.63-5-.18-7.35.49-2.62,1.37-5.21,1.94-7.82-.82-.36-1.7.29-2.35.9-2.1,1.95-4.2,3.9-6.14,6A4,4,0,0,0,241.55,200.65Z" transform="translate(-17.93 -35.06)"/><path class="d" d="M262.75,301.5c-23.95-.35-43.25-8.53-43.11-18.31,0-1.09-.81-7.23-.34-8.21,3.78-8.2,22.66-9.16,44-8.87,20.94.31,38.53,0,42.45,8.1.58,1.15.67,9,.65,10.21C306.24,294.2,286.7,301.84,262.75,301.5Z" transform="translate(-17.93 -35.06)"/><ellipse class="c" cx="17.69" cy="43.36" rx="17.69" ry="43.36" transform="matrix(0.014, -1, 1, 0.014, 201.163, 257.659)"/><ellipse class="d" cx="15.07" cy="36.94" rx="15.07" ry="36.94" transform="matrix(0.014, -1, 1, 0.014, 207.62, 255.131)"/><path class="c" d="M239.4,273.88l5.91.09a4.82,4.82,0,0,1,2.64-3.61l3.92.61a4.52,4.52,0,0,0-2.57,3.42c0,1.7,2.37,2.89,5.7,2.92a8.87,8.87,0,0,0,7-2.6,12.49,12.49,0,0,1,10.19-3.79c4.86,0,8.55,1.53,9.4,3.74l5.91.09v1.48l-5.69-.09a4.26,4.26,0,0,1-2.1,3.09l-3.85-.65a4,4,0,0,0,2-3c0-1.81-2.65-2.57-5-2.6a8.28,8.28,0,0,0-6.73,2.87c-2.49,2.42-5.56,3.62-10.84,3.62-4.65,0-9-1.45-9.92-3.93l-6.09-.09Z" transform="translate(-17.93 -35.06)"/><path class="d" d="M282.92,293.17c-23.95-.34-43.25-8.53-43.11-18.31,0-1.08-.81-7.23-.34-8.2,3.78-8.21,22.67-9.17,44-8.88,20.95.31,38.53,0,42.46,8.1.57,1.16.66,9,.65,10.21C326.41,285.87,306.87,293.51,282.92,293.17Z" transform="translate(-17.93 -35.06)"/><ellipse class="c" cx="17.69" cy="43.36" rx="17.69" ry="43.36" transform="matrix(0.014, -1, 1, 0.014, 221.332, 249.331)"/><ellipse class="d" cx="15.07" cy="36.94" rx="15.07" ry="36.94" transform="matrix(0.014, -1, 1, 0.014, 227.789, 246.804)"/><path class="c" d="M259.57,265.55l5.91.09a4.82,4.82,0,0,1,2.64-3.61l3.92.61a4.51,4.51,0,0,0-2.56,3.42c0,1.7,2.36,2.89,5.69,2.93a8.91,8.91,0,0,0,7-2.6,12.47,12.47,0,0,1,10.19-3.8c4.87,0,8.55,1.54,9.4,3.74l5.91.09v1.48l-5.69-.09a4.23,4.23,0,0,1-2.1,3.09l-3.85-.65a4,4,0,0,0,2-3c0-1.8-2.66-2.56-5-2.6a8.25,8.25,0,0,0-6.72,2.87c-2.5,2.43-5.57,3.62-10.85,3.62-4.64,0-9-1.45-9.92-3.92l-6.09-.09Z" transform="translate(-17.93 -35.06)"/><path class="d" d="M267.15,271.32C243.2,271,223.9,262.79,224,253c0-1.08-.81-7.23-.34-8.2,3.78-8.21,22.66-9.17,44-8.88,20.94.31,38.53,0,42.45,8.1.58,1.16.67,9,.65,10.21C310.64,264,291.1,271.67,267.15,271.32Z" transform="translate(-17.93 -35.06)"/><ellipse class="c" cx="17.69" cy="43.36" rx="17.69" ry="43.36" transform="matrix(0.014, -1, 1, 0.014, 205.559, 227.477)"/><ellipse class="d" cx="15.07" cy="36.94" rx="15.07" ry="36.94" transform="matrix(0.014, -1, 1, 0.014, 212.016, 224.949)"/><path class="c" d="M243.8,243.71l5.91.09a4.82,4.82,0,0,1,2.64-3.62l3.92.62a4.52,4.52,0,0,0-2.57,3.41c0,1.7,2.37,2.89,5.7,2.93a8.91,8.91,0,0,0,7-2.6,12.5,12.5,0,0,1,10.19-3.8c4.86,0,8.55,1.54,9.4,3.74l5.91.09v1.49l-5.69-.09a4.26,4.26,0,0,1-2.1,3.09l-3.85-.65a4,4,0,0,0,2-3c0-1.81-2.65-2.57-5-2.61a8.26,8.26,0,0,0-6.73,2.88c-2.49,2.42-5.56,3.61-10.84,3.61-4.65,0-9-1.44-9.92-3.92l-6.09-.09Z" transform="translate(-17.93 -35.06)"/><path class="l" d="M234.15,276.35c.38,1.22.72,2.67,0,3.71a3.07,3.07,0,0,1-1.35,1,3.64,3.64,0,0,1-3.84-.41,5.13,5.13,0,0,1-1.17-2.21,54,54,0,0,1-2.07-9.23,1.71,1.71,0,0,1,0-.87,1.51,1.51,0,0,1,.73-.68c1.65-.89,4.21-1.6,5.13.37C232.78,270.54,233.33,273.66,234.15,276.35Z" transform="translate(-17.93 -35.06)"/><path class="e" d="M229.2,277.77a2.15,2.15,0,0,0-1,.11,2,2,0,0,0-.58.5L224,282.44c-.68.78-1.41,1.86-.93,2.78a2.07,2.07,0,0,0,1.53.93,9,9,0,0,0,5-1c1.1-.48,2.17-1,3.23-1.58a5.12,5.12,0,0,0,2-1.61c.81-1.25,1.06-4.26-.39-5.2-.73-.47-1.37-.13-2.06.19a6.8,6.8,0,0,1-3.18.82Z" transform="translate(-17.93 -35.06)"/><path class="l" d="M214.45,290.14a1.42,1.42,0,0,0,.07.68,1.32,1.32,0,0,0,.52.53,4.31,4.31,0,0,0,2.29.78,2.65,2.65,0,0,0,2.15-1,4.65,4.65,0,0,0,.67-2,24,24,0,0,0,.44-4.69.89.89,0,0,0-.19-.62.86.86,0,0,0-.41-.16c-1.29-.27-3.83-1-4.48.64a18.66,18.66,0,0,0-1.06,5.84Z" transform="translate(-17.93 -35.06)"/><path class="e" d="M209,290a11.641,11.641,0,0,0-3.22.63,4.06,4.06,0,0,0-2.36,2.18,2.32,2.32,0,0,0-.07,1.58,3.42,3.42,0,0,0,1.75,1.68,22.07,22.07,0,0,0,11.94,2.61,4.06,4.06,0,0,0,2.89-1.07,4.64,4.64,0,0,0,.77-2.94l.14-4.92c-.92-.14-1.78.46-2.66.77-1.52.52-2.12-.74-3.38-1C213.2,289.08,210.71,289.82,209,290Z" transform="translate(-17.93 -35.06)"/><path class="n" d="M229.2,277.77a2.15,2.15,0,0,0-1,.11,2,2,0,0,0-.58.5L224,282.44c-.68.78-1.41,1.86-.93,2.78a2.07,2.07,0,0,0,1.53.93,9,9,0,0,0,5-1c1.1-.48,2.17-1,3.23-1.58a5.12,5.12,0,0,0,2-1.61c.81-1.25,1.06-4.26-.39-5.2-.73-.47-1.37-.13-2.06.19a6.8,6.8,0,0,1-3.18.82Z" transform="translate(-17.93 -35.06)"/><path class="o" d="M209,290a11.641,11.641,0,0,0-3.22.63,4.06,4.06,0,0,0-2.36,2.18,2.32,2.32,0,0,0-.07,1.58,3.42,3.42,0,0,0,1.75,1.68,22.07,22.07,0,0,0,11.94,2.61,4.06,4.06,0,0,0,2.89-1.07,4.64,4.64,0,0,0,.77-2.94l.14-4.92c-.92-.14-1.78.46-2.66.77-1.52.52-2.12-.74-3.38-1C213.2,289.08,210.71,289.82,209,290Z" transform="translate(-17.93 -35.06)"/><path class="p" d="M222.16,235.74a5.74,5.74,0,0,0-2.8,1.44,5.81,5.81,0,0,0-1,3.92,81,81,0,0,0,5.44,29,2.66,2.66,0,0,0,1.22,1.64,2.56,2.56,0,0,0,1.66-.07,64.454,64.454,0,0,0,6.33-2.13l-2.81-18.86a2.69,2.69,0,0,1,.09-1.59,2.53,2.53,0,0,1,.85-.87,73.172,73.172,0,0,1,10.1-6.3c4.4-2.28,7.21-4.93,8-10a5.7,5.7,0,0,0-.79-4.12,3.62,3.62,0,0,0-3.73-1.55,5.9,5.9,0,0,0-1.48.7C239.84,229,225.69,234.69,222.16,235.74Z" transform="translate(-17.93 -35.06)"/><path class="f" d="M224.17,248.9a20.47,20.47,0,0,0-3.11,5.65,114.18,114.18,0,0,0-7.81,31.09,40.481,40.481,0,0,0,10,0,96.321,96.321,0,0,1,3.42-22.33,14.75,14.75,0,0,1,1.8-4.42c1.48-2.16,3.9-3.42,6.22-4.59a89.41,89.41,0,0,1,16.67-6.3c2.43-.68,4.88-1.3,7.27-2.12a17.521,17.521,0,0,0,5.66-2.92c3-2.51,5.3-8,1.29-10.66-1.79-1.2-4.05-1.43-6.2-1.64l-6.67-.63a5,5,0,0,0-2,.08,5.17,5.17,0,0,0-1.53.91c-5,3.83-10,7.24-15.26,10.71C230.69,243.87,226.75,245.86,224.17,248.9Z" transform="translate(-17.93 -35.06)"/><path class="e" d="M252.55,235.37a41.19,41.19,0,0,1-5.07-2.4c-6.19-3.47-1.12-5.17,1-9.35,1.47-3,.87-6.51.11-9.73-1.35-5.65-3.15-11.49-1.85-17.15a6.64,6.64,0,0,1,1.05-2.56,7.75,7.75,0,0,1,1.3-1.26,14.17,14.17,0,0,1,4.43-2.63,12.751,12.751,0,0,1,9.53,1.22c12,6.09,11.9,25.55,10.77,37-.26,2.64-.66,5.41-2.27,7.52-2.36,3.1-4.56,2-7.56,1.46C260,236.81,256.4,236.87,252.55,235.37Z" transform="translate(-17.93 -35.06)"/><path class="q" d="M273.21,214.83c0,2-.39,3.89-.48,5.85-.11,2.17.12,4.36-.06,6.52a17.61,17.61,0,0,1-3.93,9.69,1.545,1.545,0,0,1-2.1.54l-5.77-1.77a11.381,11.381,0,0,1-2.19-.84,5.69,5.69,0,0,1-2.58-3.12,2.13,2.13,0,0,1-.13-1.06c.16-.78,1-1.23,1.62-1.66,2.49-1.62,4.05-4.31,5.52-6.89a55.629,55.629,0,0,0,3.69-7.26,14.939,14.939,0,0,1,1.59-3.41c.68-.95,2.39-2.33,3.58-1.54S273.22,213.6,273.21,214.83Z" transform="translate(-17.93 -35.06)"/><path class="l" d="M259.51,198.39a5.82,5.82,0,0,1-4.15,2.18,1.08,1.08,0,0,1-.73-.17,1.26,1.26,0,0,1-.36-.87c-.07-.65-.17-1.49-.24-2.32s-.2-1.85-.29-2.56a10.21,10.21,0,0,0-2.07-5.19,5.621,5.621,0,0,0-.81-.89c-2-1.8,6.13-1.09,7.2-3.54,1.24,1.59,1.13,3.84,1.67,5.81a28.125,28.125,0,0,1,.91,2.92,5.87,5.87,0,0,1-1.13,4.63Z" transform="translate(-17.93 -35.06)"/><path class="r" d="M254.14,197.59l-.11-.38c-.11-.93-.2-1.85-.29-2.56a10.21,10.21,0,0,0-2.07-5.19v-.2s6.44-4.23,7.13.72S254.14,197.59,254.14,197.59Z" transform="translate(-17.93 -35.06)"/><path class="l" d="M247.38,186.52a5,5,0,0,0,.55,3,3.89,3.89,0,0,0,.95,1c2.56,1.93,6.41,1.54,9-.46a11.49,11.49,0,0,0,4-8.56,6.6,6.6,0,0,0-1.34-4.75,5.25,5.25,0,0,0-4.84-1.35,12.41,12.41,0,0,0-6.14,3.49C247.91,180.7,247.5,184.19,247.38,186.52Z" transform="translate(-17.93 -35.06)"/><path class="l" d="M270.57,203.42c.05.36.09.72.13,1.08.58,5.35.06,10.61-.14,15.94-.13,3.67-.4,8.49-3.53,11-8.37,6.71-27-7.32-27.82-7.93-1.25-.93-3-1-4.5-1.17a6.8,6.8,0,0,1-4.58-2.19,4.55,4.55,0,0,1-.73-4.86c1.23-2.42,4.69-2.79,7.18-1.71s4.36,3.18,6.52,4.82a40.571,40.571,0,0,0,5.37,3.25c2.18,1.16,9.86,2.83,12.33,2.86,2.63,0,1.6-15.44,1.86-20.37a8.061,8.061,0,0,1,.91-3.66,3.7,3.7,0,0,1,3-1.95,3.78,3.78,0,0,1,3.12,2.13,8.271,8.271,0,0,1,.88,2.76Z" transform="translate(-17.93 -35.06)"/><path class="f" d="M257.07,183.83a3.962,3.962,0,0,1-.07.48l-.27,2.89-.57,5.89,9.91,1.39c.43-3.15,1.34-6.23,1.73-9.39s.23-6.53-1.35-9.29c-1.28-2.25-4.34-3.6-6.62-4.64a10.111,10.111,0,0,0-1.78-.61,11.71,11.71,0,0,0-7.12.35,4.8,4.8,0,0,0-1.5.83,9.282,9.282,0,0,0-.78,1.15,19.171,19.171,0,0,0-2.24,3.71,5.36,5.36,0,0,0-.57,2,.36.36,0,0,0,0,.23.47.47,0,0,0,.19.15l2.66,1.43a.42.42,0,0,0,.19.06.4.4,0,0,0,.26-.14L251,178.7l-.51,1.13a.4.4,0,0,0,0,.35.43.43,0,0,0,.17.13l2.66,1.31a.32.32,0,0,0,.16,0c.09,0,.15-.07.21-.13l1.29-1.36-.38,1.68a.42.42,0,0,0,0,.25.35.35,0,0,0,.19.15l1.42.73c.05,0,.1.05.14,0a.21.21,0,0,0,.11-.07l.95-1.07A14.053,14.053,0,0,1,257.07,183.83Z" transform="translate(-17.93 -35.06)"/><path class="e" d="M272.11,203.14c1.19,3,.11,5.84.05,8.79a3.65,3.65,0,0,1-.1.88,2.58,2.58,0,0,1-.65,1.07,5.94,5.94,0,0,1-4.43,1.58,16.669,16.669,0,0,1-4.71-1.06,2,2,0,0,1-1.23-.79,1.87,1.87,0,0,1-.16-.91c-.08-4.51-1.24-11.79,3.15-14.79C267.51,195.52,271,200.2,272.11,203.14Z" transform="translate(-17.93 -35.06)"/><path class="s" d="M248.67,202.86a15.931,15.931,0,0,0-3.88,2.95,1.72,1.72,0,0,0-.49.76,1.79,1.79,0,0,0,0,.69,11.84,11.84,0,0,0,1.15,3.21,2.47,2.47,0,0,0,.44.63c1.69,1.54,2.08-1.26,2.2-2.17Q248.52,205.9,248.67,202.86Z" transform="translate(-17.93 -35.06)"/><circle class="t" cx="1.97" cy="1.97" r="1.97" transform="translate(228.31 145.55)"/><circle class="t" cx="1.97" cy="1.97" r="1.97" transform="translate(232.18 147.25)"/><path class="f" d="M227.21,202.86l3.08-6.39s1.26.06,1.5.78l-3.4,6.28S228.19,204,227.21,202.86Z" transform="translate(-17.93 -35.06)"/></g><g transform="translate(2448.002 307.002)"><path class="u" d="M522.65,343.19c-5,21.41-19.46,40.78-39.3,50.3C436.63,415.9,376.85,381,330.62,404.34c-15.08,7.64-27.05,20.92-42.78,27.1-12.12,4.76-25.49,4.92-38.52,5-40.66.28-83.32.09-119-19.37C113.68,408,99.48,395.2,85.73,382.14c-8-7.68-16.07-15.58-23.75-23.75q-5.55-5.83-10.82-11.91c-17.5-20.21-32.48-42.25-41.53-67.27C-5,238.7-.44,188.55,31,159.05c11.38-10.7,25.43-18.06,39.32-25.24,43.15-22.23,87.49-44.12,135.42-51.74,42-6.71,89.07-4.41,130.51,5,32.65,7.46,65.48,2.46,98,10.29,28.17,6.81,55.09,24.06,67.31,50.36,12.93,27.83,7.74,60.22,10.82,90.75C515.87,273.64,530.67,308.77,522.65,343.19Z" transform="translate(-1.65 -78.22)"/><path class="v" d="M442.9,300.35a29.454,29.454,0,0,1,5.78,1.77c4.82,1.84,9.64,3.79,14.7,4.74s10.49.86,15.18-1.28a18.74,18.74,0,0,0,8.81-8.42.72.72,0,0,0,.11-.56.74.74,0,0,0-.44-.35l-11.39-4.72a53.3,53.3,0,0,0-8.59-3,51.84,51.84,0,0,0-11.48-.89,60.271,60.271,0,0,0-12,.84,21.15,21.15,0,0,0-10.67,5.26,7.46,7.46,0,0,0-2,3.1c-.88,3.12,1.11,3.38,3.54,3.35C437.23,300.16,440.09,299.86,442.9,300.35Z" transform="translate(-1.65 -78.22)"/><path class="w" d="M442.9,300.35a29.454,29.454,0,0,1,5.78,1.77c4.82,1.84,9.64,3.79,14.7,4.74s10.49.86,15.18-1.28a18.74,18.74,0,0,0,8.81-8.42.72.72,0,0,0,.11-.56.74.74,0,0,0-.44-.35l-11.39-4.72a53.3,53.3,0,0,0-8.59-3,51.84,51.84,0,0,0-11.48-.89,60.271,60.271,0,0,0-12,.84,21.15,21.15,0,0,0-10.67,5.26,7.46,7.46,0,0,0-2,3.1c-.88,3.12,1.11,3.38,3.54,3.35C437.23,300.16,440.09,299.86,442.9,300.35Z" transform="translate(-1.65 -78.22)"/><path class="x" d="M456.7,356.34c-9.92,0-20.38,1.34-28.32,7.29a2.79,2.79,0,0,0-1,1.05c-.69,1.57,1.45,2.82,3.12,3.16,8.13,1.65,16.49,1.74,24.78,1.83,5.09.05,37.86.72,35.61-9.26C489.31,353.3,461.72,356.34,456.7,356.34Z" transform="translate(-1.65 -78.22)"/><path class="y" d="M325.38,358.31c-11.27.71-23.63-.23-32.7,6.5-1.35,1-2.68,2.36-2.71,4-.05,3.25,4.26,4.38,7.51,4.48,26.26.8,52.93,1.55,78.37-5,2.11-.54,4.51-1.41,5.18-3.48.6-1.82-.45-3.76-1.62-5.27C365.26,341.33,343.79,357.16,325.38,358.31Z" transform="translate(-1.65 -78.22)"/><path class="z" d="M178.27,365.35c-14.18-1.18-29-3.4-42.23,1.86-.27,3.74,4.7,5.23,8.44,5.44l59.9,3.38c18.51,1,37.32,2.06,55.38-2.15,2-.47,4.57-1.93,3.87-3.89a3.49,3.49,0,0,0-1.59-1.61c-11.58-7.12-24.57-4.31-37.12-3.18a270.174,270.174,0,0,1-46.65.15Z" transform="translate(-1.65 -78.22)"/><path class="aa" d="M135.65,352.17c-7.4,3.14-17,2-24.87,2.58-10.92.78-21.64,3.33-32.58,3.76a6.749,6.749,0,0,1-2.21-.12q-5.55-5.83-10.82-11.91c4.73-2.36,10.32-2.24,15.64-2,16.82.72,33.76,2.05,50.39.87C137.17,345,144.41,348.47,135.65,352.17Z" transform="translate(-1.65 -78.22)"/><path class="v" d="M164.34,361.45c2.9-1.45,6.22-1.17,9.4-.87a2.05,2.05,0,0,1,1.32.45,2.75,2.75,0,0,1,.63,1.33q.69,2.5,1.23,5a3.26,3.26,0,0,1-.07,2.25,2.19,2.19,0,0,1-1,.78c-2.23,1.11-4.75,1.17-7.2,1.21l-12.82.22a8.17,8.17,0,0,1-3.69-.52,3.72,3.72,0,0,1-2.15-3.28c0-1.78,1.52-3,2.95-3.59a19.551,19.551,0,0,1,6.38-1.16C161.23,363.2,162.65,362.3,164.34,361.45Z" transform="translate(-1.65 -78.22)"/><path class="ab" d="M174.12,361.43a3,3,0,0,1-.84,1.6,3.83,3.83,0,0,1-2.59.6,2.71,2.71,0,0,1-1.38-.27,2,2,0,0,1-.74-.87,8.81,8.81,0,0,1-.47-4.76.88.88,0,0,1,.16-.51.69.69,0,0,1,.38-.19c1.17-.34,3.85-.72,4.9.16S174.38,360.29,174.12,361.43Z" transform="translate(-1.65 -78.22)"/><path class="v" d="M243.05,352.08a24,24,0,0,1,2.74,2.07,3,3,0,0,1,.84,1,2.61,2.61,0,0,1,.16,1.18,8.44,8.44,0,0,1-2.2,4.71c-1.13,1.35-2.45,2.54-3.5,4s-1.8,3-3.18,4a10,10,0,0,1-3.51,1.38c-2.38.59-5,1.12-7.23.15a1.181,1.181,0,0,1-.49-.33,1.21,1.21,0,0,1-.17-.68,5.72,5.72,0,0,1,2-4.42c1.61-1.35,3.94-1.77,5.26-3.41a6.35,6.35,0,0,0,1.18-3.39,5.44,5.44,0,0,1,.61-2.57,6.07,6.07,0,0,1,2-1.51,10,10,0,0,0,2.4-2.28C240.89,351,242.11,351.46,243.05,352.08Z" transform="translate(-1.65 -78.22)"/><path class="ac" d="M238.47,355.88a4.739,4.739,0,0,1-2,.27,3.059,3.059,0,0,1-.74-.09,2.44,2.44,0,0,1-1.31-1.46,11.428,11.428,0,0,1-.8-2.35c-.57-2.53,2.86-5.06,5.1-3.51S241.39,354.63,238.47,355.88Z" transform="translate(-1.65 -78.22)"/><path class="v" d="M178.11,303.67a21.94,21.94,0,0,0-2.77,5.54,23.88,23.88,0,0,0-.59,6.92l.41,37.32a6.68,6.68,0,0,1-.74,3.85c-1.39,2-6.12,3-7.63,1.05s-5.7-30.26-7-46.33c-.39-4.75-.76-9.6.24-14.24,1.31-6.06,23-41.8,27.11-41.22s18.23,2.13,20.25,6.08c2.63,5.15-6.7,10.31-9.85,14.12a255.548,255.548,0,0,0-19.43,26.91Z" transform="translate(-1.65 -78.22)"/><path class="ad" d="M178.11,303.67a21.94,21.94,0,0,0-2.77,5.54,23.88,23.88,0,0,0-.59,6.92l.41,37.32a6.68,6.68,0,0,1-.74,3.85c-1.39,2-6.12,3-7.63,1.05s-5.7-30.26-7-46.33c-.39-4.75-.76-9.6.24-14.24,1.31-6.06,23-41.8,27.11-41.22s18.23,2.13,20.25,6.08c2.63,5.15-6.7,10.31-9.85,14.12a255.548,255.548,0,0,0-19.43,26.91Z" transform="translate(-1.65 -78.22)"/><path class="ae" d="M168.33,209a5.63,5.63,0,0,1,2.67,2.2,5.93,5.93,0,0,1,.14,3.93,4.24,4.24,0,0,1-1.07,2.4,4,4,0,0,1-2.94.7,20,20,0,0,1-10.87-4c-4-3.05-6.75-7.5-10.5-10.89-1.13-1-2.47-2.24-2.26-3.75a14.379,14.379,0,0,1,1.05-2.43,6.33,6.33,0,0,0-.36-3.8L143.13,190c2,.68,2.61,3.43,4.46,4.53a1.71,1.71,0,0,0,1.9.05c.63-.51.68-1.67,1.47-1.85,1.13,1.08.11,3.1.81,4.49.27.54.78.94,1,1.51a4.64,4.64,0,0,1,0,1.93c-.14,2.8,4.53,4,6.56,4.78C162.36,206.62,165.44,207.59,168.33,209Z" transform="translate(-1.65 -78.22)"/><path class="e" d="M223.69,222.66c-4.45,10.1-1.15,21.79-2,32.86a1.339,1.339,0,0,1,0,.34,34,34,0,0,1-.65,4.38c-.63,2.83-1.84,5.85-4.45,7.12a6.32,6.32,0,0,1-3.48.59c-2-.15-6.22-4.07-8.05-5-5.38-2.77-8.46-3.21-14.43-4.3-1.86-.34-3.88-.49-5.38-1.67-2.11-1.65-2.39-4.82-1.64-7.43s2.27-4.88,3.2-7.4a18.2,18.2,0,0,0,.9-3.52,17.21,17.21,0,0,0,.31-2.3,40,40,0,0,0-.12-6.37c-.13-1.55-.31-3.11-.47-4.66a60.39,60.39,0,0,1-.37-6.69,6.109,6.109,0,0,1,0-.74,10.41,10.41,0,0,1,.9-4.11c1.87-3.67,6.56-4.72,10.63-4.88s7.37-.31,11.16-1.65a14.6,14.6,0,0,1,10.73.25c3.11,1.31,5.72,4.26,5.75,7.62C226.3,217.77,224.75,220.17,223.69,222.66Z" transform="translate(-1.65 -78.22)"/><path class="af" d="M191.94,198.07c.58,1.94,1.34,4.08,3.15,5,1.39.68,3.29.56,4.19,1.82.36.49.52,4.41,1,4.79a2.44,2.44,0,0,0,1.38.39c2.37.17,4.74-3.27,7.06-3.76a2.47,2.47,0,0,0,1.54-.76,2.6,2.6,0,0,0,.38-1.32l1.18-12c.26-2.59.47-5.39-.85-7.63a9.78,9.78,0,0,0-4.29-3.56,12.72,12.72,0,0,0-4.48-1.36c-4.11-.34-8.32,2.44-8.57,6.65a7.49,7.49,0,0,1-1.72,5C190.09,193.62,191.13,195.41,191.94,198.07Z" transform="translate(-1.65 -78.22)"/><path class="v" d="M196.05,177.85a4.21,4.21,0,0,1,4.63-1.68c.33.12.69.28,1,.11a1.94,1.94,0,0,0,.41-.4,2.63,2.63,0,0,1,2.47-.37,15.23,15.23,0,0,1,8.23,4.33,8.86,8.86,0,0,1,2,8.77c-.68,1.81-2.1,3.39-2.21,5.32,0,.79.14,1.59.12,2.38a2.32,2.32,0,0,1-1,2.05,2.07,2.07,0,0,1-2.52-.79,6,6,0,0,1-.86-2.72.91.91,0,0,1,.06-.63,1.1,1.1,0,0,1,.55-.33,2.81,2.81,0,0,0,1.23-4,1.451,1.451,0,0,0-1.86-.6c-.59.4-.51,1-.77,1.5s-1.14.78-1.32.24a.91.91,0,0,1,0-.49,9.65,9.65,0,0,0,.42-2.55,2.48,2.48,0,0,0-1.19-2.16,4.63,4.63,0,0,0-1.78-.29,7.77,7.77,0,0,1-6.07-3.86c-.08-.15-2,2-2.48,0a5.26,5.26,0,0,1,.94-3.83Z" transform="translate(-1.65 -78.22)"/><path class="ag" d="M221.73,255.52a1.339,1.339,0,0,1,0,.34,34,34,0,0,1-.65,4.38c-.63,2.83-1.84,5.85-4.45,7.12a6.32,6.32,0,0,1-3.48.59,2.09,2.09,0,0,1-.93-1.8c-.07-1.71,1.08-3.89,1.43-5.57a42.81,42.81,0,0,0,.9-7.74A47.53,47.53,0,0,0,214,244a1.82,1.82,0,0,0-.25-.81c-.4-.59-1.27-.59-2-.52a52.44,52.44,0,0,1-22.41-3.17,4.19,4.19,0,0,1-1.59-.91,1.42,1.42,0,0,1-.47-1.12,1.59,1.59,0,0,1,.78-1.18,1.3,1.3,0,0,1,.34-.21,6.21,6.21,0,0,1,1.87-.25l14.08-.1a9.43,9.43,0,0,0,4.54-.77,21,21,0,0,0,2.49-1.9c2.33-1.83,5.34-2.58,8.24-3.23a.34.34,0,0,1,.4,0,.33.33,0,0,1,.12.28,146.669,146.669,0,0,1,1.59,25.41Z" transform="translate(-1.65 -78.22)"/><path class="e" d="M191.3,220.6a3.22,3.22,0,0,0-.63,1.09c-1,2.12-2.3,6.28-2.55,5.35a7.531,7.531,0,0,0-.68-1.77c-1.15-2.09-3-2.21-4.41-2.4a81.3,81.3,0,0,1-10.11-2.2,9,9,0,0,1-2.52-1.06,3.8,3.8,0,0,1-.9-.93,5.49,5.49,0,0,1-.59-2.74,31,31,0,0,1,.34-5.1,2.06,2.06,0,0,1,.44-1.12,2.14,2.14,0,0,1,1.3-.46c6-.69,10.14-1,27.64-.41C204.51,209.07,194.37,217.71,191.3,220.6Z" transform="translate(-1.65 -78.22)"/><path class="ah" d="M191.61,228.41c0,1.05-.19,2.33-1.15,2.76a2.05,2.05,0,0,1-2.37-.9,1.22,1.22,0,0,1-.18-.34c-.13-1.55-.31-3.11-.47-4.66-1.15-2.09-3-2.21-4.41-2.4a81.308,81.308,0,0,1-10.11-2.2,9,9,0,0,1-2.52-1.06,1.76,1.76,0,0,1,0-.41c.06-1.46.94-1.95,2.27-2.11,3.86-.43,8.27.37,12.16.5a8.12,8.12,0,0,1,2.3.25,1.66,1.66,0,0,1,.37.09,5.8,5.8,0,0,1,3.2,3.76,12.349,12.349,0,0,1,.69,2.77,34.327,34.327,0,0,1,.22,3.95Z" transform="translate(-1.65 -78.22)"/><path class="e" d="M226.22,219.39a40.745,40.745,0,0,1-.21,4.28,18.36,18.36,0,0,1-5.25,11,15.28,15.28,0,0,1-11.2,4.41,3.561,3.561,0,0,1-1.17-.21,3.26,3.26,0,0,1-1.39-1.41c-1.33-2.29-1.49-5.06-1.62-7.71a5.85,5.85,0,0,1,.13-2,6.14,6.14,0,0,1,2.24-2.62,40.531,40.531,0,0,0,5.46-5.42,33,33,0,0,1,4.69-5.18c1.51-1.18,4.65-2.71,6.54-1.52S226.25,217.52,226.22,219.39Z" transform="translate(-1.65 -78.22)"/><path class="ai" d="M181,228.47a21.729,21.729,0,0,1-4.42-.33,15.642,15.642,0,0,1-3.56-1.29,26.809,26.809,0,0,1-3.89-2.32c-.4.41-.12,1.1.28,1.5s.93.71,1.12,1.24a.47.47,0,0,1,0,.37c-.1.19-.38.2-.61.17l-8.57-.9a2.08,2.08,0,0,0,1.4,1.45,6.24,6.24,0,0,1,1.89.91c.93.84.91,2.26,1.23,3.47a6.35,6.35,0,0,0,3.57,4,8.13,8.13,0,0,0,5.46.31c.81-.23,1.59-.57,2.41-.77a14.78,14.78,0,0,1,6.06.23c6.76,1.23,13.56,2.6,20.44,2.5a6.58,6.58,0,0,0,4.44-1.22c2.29-2,2.77-8.3-.91-9.06-2.4-.49-5.13-.16-7.57-.17l-8.84-.06Z" transform="translate(-1.65 -78.22)"/><path class="v" d="M209.87,305.67a9.06,9.06,0,0,0-.21,3.62c.4,1.87,1.91,3.26,3.31,4.56A130.12,130.12,0,0,1,238.79,347a4.52,4.52,0,0,1,.77,2.53,4.65,4.65,0,0,1-1.66,2.61l-2.62,2.57a2.58,2.58,0,0,1-2,1,2.53,2.53,0,0,1-1.12-.64A264.674,264.674,0,0,1,200,323.14c-2.5-2.95-5-6.05-6.19-9.72a32.19,32.19,0,0,1-1.17-9.24l-.37-12.62c-.21-7.25-.4-14.6,1.27-21.67.47-2,1.09-3.94,1.71-5.9.22-.67.46-2.85,1-3.25a3.09,3.09,0,0,1,1.59-.37c6.39-.2,19.19,4.19,18.37,12.38C215.18,283.71,212,294.86,209.87,305.67Z" transform="translate(-1.65 -78.22)"/><path class="aj" d="M209.87,305.67a9.06,9.06,0,0,0-.21,3.62c.4,1.87,1.91,3.26,3.31,4.56A130.12,130.12,0,0,1,238.79,347a4.52,4.52,0,0,1,.77,2.53,4.65,4.65,0,0,1-1.66,2.61l-2.62,2.57a2.58,2.58,0,0,1-2,1,2.53,2.53,0,0,1-1.12-.64A264.674,264.674,0,0,1,200,323.14c-2.5-2.95-5-6.05-6.19-9.72a32.19,32.19,0,0,1-1.17-9.24l-.37-12.62c-.21-7.25-.4-14.6,1.27-21.67.47-2,1.09-3.94,1.71-5.9.22-.67.46-2.85,1-3.25a3.09,3.09,0,0,1,1.59-.37c6.39-.2,19.19,4.19,18.37,12.38C215.18,283.71,212,294.86,209.87,305.67Z" transform="translate(-1.65 -78.22)"/><path class="ak" d="M209.65,204.15a2.81,2.81,0,0,1,2.59-.36,1.94,1.94,0,0,1,.63,2.27,6.941,6.941,0,0,1-1.41,2.09c-2.39,2.85-4.16,6.48-7.52,8.07-.07,0-.7-3.66-.77-4-.22-1.06-1.58-2.69-1.27-3.69s2.25-1.6,3.07-2Z" transform="translate(-1.65 -78.22)"/><path class="al" d="M437,309.51c1.38,3.61,4,6.56,6.64,9.42l24.09,26.48a1.71,1.71,0,0,0,.73.55,1.34,1.34,0,0,0,1.26-.47c1.5-1.57.59-4.15-.45-6.07a149.282,149.282,0,0,0-20-28.57,19.209,19.209,0,0,1-3.51-4.82,9.1,9.1,0,0,1-.2-6.71c.66-1.82,1.83-4.12.39-5.43a3.39,3.39,0,0,0-1.59-.68c-3.08-.64-7.06-.38-8.16,2.94C435,300,435.57,305.82,437,309.51Z" transform="translate(-1.65 -78.22)"/><path class="am" d="M450.66,313.72a84.452,84.452,0,0,0-2.4,12.59,82,82,0,0,0,.17,12.54l.75,11.77c.27,4.24.91,9.12,4.5,11.38a2.39,2.39,0,0,0,1.86.45c1.29-.37,1.4-2.15,1.16-3.47-.47-2.63-1.25-5.2-1.6-7.85-.73-5.56.44-11.17,1.6-16.66l6.93-32.67c1.06-5-4.92-9.37-8.3-4.66C452.3,301.37,451.87,308.8,450.66,313.72Z" transform="translate(-1.65 -78.22)"/><path class="v" d="M424.53,282.7a23.687,23.687,0,0,0-2.18,6.05,10.56,10.56,0,0,0,2.06,8.26,8.71,8.71,0,0,0,7.74,3.22c2-.26,3.76-1.26,5.61-2a22.41,22.41,0,0,1,12.65-1.14c3.49.7,6.76,2.23,10.15,3.32a42.84,42.84,0,0,0,11.77,2.06c4.41.14,9-.44,12.8-2.61s6.84-6.14,7-10.54c.1-2.87-1-5.64-2-8.32l-11.67-29.68a29.409,29.409,0,0,0-3.91-7.65c-3-3.78-7.7-5.87-12.45-6.65-3.75-.62-9.15-1.19-12.84,0-2.91.92-4,4.43-5.33,6.91-4.44,8.22-8.66,16.55-12.76,25Q427.79,275.76,424.53,282.7Z" transform="translate(-1.65 -78.22)"/><path class="an" d="M424.53,282.7a23.687,23.687,0,0,0-2.18,6.05,10.56,10.56,0,0,0,2.06,8.26,8.71,8.71,0,0,0,7.74,3.22c2-.26,3.76-1.26,5.61-2a22.41,22.41,0,0,1,12.65-1.14c3.49.7,6.76,2.23,10.15,3.32a42.84,42.84,0,0,0,11.77,2.06c4.41.14,9-.44,12.8-2.61s6.84-6.14,7-10.54c.1-2.87-1-5.64-2-8.32l-11.67-29.68a29.409,29.409,0,0,0-3.91-7.65c-3-3.78-7.7-5.87-12.45-6.65-3.75-.62-9.15-1.19-12.84,0-2.91.92-4,4.43-5.33,6.91-4.44,8.22-8.66,16.55-12.76,25Q427.79,275.76,424.53,282.7Z" transform="translate(-1.65 -78.22)"/><path class="v" d="M440.26,182.52a6.54,6.54,0,0,1,3.72-4.86,3.33,3.33,0,0,0,1.44-.85,4.662,4.662,0,0,0,.47-1c.73-1.67,2.55-2.56,4.3-3.05,3.86-1.1,8.52-.7,11.16,2.32a9.55,9.55,0,0,1,2.15,5.29c.22,1.92,0,3.9.47,5.78.76,3.08,3.25,5.5,4.07,8.57.4,1.5.38,3.08.77,4.58a31.254,31.254,0,0,1,1.12,3.73,9.68,9.68,0,0,1-.84,4.66,7.2,7.2,0,0,1-1.77,2.93c-1.74,1.53-4.5,1.22-6.5.05s-3.49-3-5.17-4.62-3.77-3-6.08-3c-1.28,0-2.59.52-3.8.09a3.79,3.79,0,0,1-2.18-3.43,17.12,17.12,0,0,1,.62-4.25,6.61,6.61,0,0,0-.26-4.22C442.49,188.44,439.7,186.05,440.26,182.52Z" transform="translate(-1.65 -78.22)"/><path class="ao" d="M440.26,182.52a6.54,6.54,0,0,1,3.72-4.86,3.33,3.33,0,0,0,1.44-.85,4.662,4.662,0,0,0,.47-1c.73-1.67,2.55-2.56,4.3-3.05,3.86-1.1,8.52-.7,11.16,2.32a9.55,9.55,0,0,1,2.15,5.29c.22,1.92,0,3.9.47,5.78.76,3.08,3.25,5.5,4.07,8.57.4,1.5.38,3.08.77,4.58a31.254,31.254,0,0,1,1.12,3.73,9.68,9.68,0,0,1-.84,4.66,7.2,7.2,0,0,1-1.77,2.93c-1.74,1.53-4.5,1.22-6.5.05s-3.49-3-5.17-4.62-3.77-3-6.08-3c-1.28,0-2.59.52-3.8.09a3.79,3.79,0,0,1-2.18-3.43,17.12,17.12,0,0,1,.62-4.25,6.61,6.61,0,0,0-.26-4.22C442.49,188.44,439.7,186.05,440.26,182.52Z" transform="translate(-1.65 -78.22)"/><path class="ak" d="M485.2,204.69a6.091,6.091,0,0,1,1.44,1.18c1.38,1.75.55,4.3-.34,6.35a2.52,2.52,0,0,1-3.42,1.83q-6.69-1.06-13.33-2.47L472.09,228a19.879,19.879,0,0,1,.31,6.1c-.32,2,2.31,6.16.51,7.12-1.44.77-6.83-1.34-8.46-1.35-5.15,0-12.65,2.24-17.8,2.23a3.45,3.45,0,0,1-2.29-.56c-1.28-1.1-.57-5.06-.48-6.74.11-2.39.89-4.71-.55-6.62a27.19,27.19,0,0,1-5.11-12c-.09-.54-.23-1.18-.74-1.38a5,5,0,0,0-1-.06,1.84,1.84,0,0,1-1.33-1.54,5.85,5.85,0,0,1,2.3-5.61,17.11,17.11,0,0,1,5.76-2.7c7-2.29,14.26-5.86,21.69-6a36.37,36.37,0,0,1,20.3,5.8Z" transform="translate(-1.65 -78.22)"/><path class="ap" d="M452.07,202.93a2.87,2.87,0,0,0,.92,1.91c.76.56,6.48.92,6.53-4.83a34.212,34.212,0,0,0-.84-6.16c-.36-.72-1.47,1.26-2.26,1.09-1.39-.29-5.9.34-5.29,1.75C452,198.81,451.78,201.27,452.07,202.93Z" transform="translate(-1.65 -78.22)"/><path class="aq" d="M452.33,199.92a2.61,2.61,0,0,0,.9,1,2.17,2.17,0,0,0,1.18.22A4.6,4.6,0,0,0,458,198.6a7.92,7.92,0,0,0,.68-4.51c0,.38-1.75,1.21-2,1.35-.79.38-1.61.67-2.41,1a10.492,10.492,0,0,0-2.32,1.16C451.18,198.17,451.91,199.21,452.33,199.92Z" transform="translate(-1.65 -78.22)"/><path class="ar" d="M446.8,192.82a8.83,8.83,0,0,0,6.1,5.46,5,5,0,0,0,2.43-.06,5.34,5.34,0,0,0,2.12-1.35,12.66,12.66,0,0,0,3.24-7.39,13.181,13.181,0,0,0-.28-5.73,7.14,7.14,0,0,0-3.53-4.38,11.23,11.23,0,0,0-5.71-.6,7.269,7.269,0,0,0-1.91.32c-2,.73-3,3.58-3.25,5.5a16.221,16.221,0,0,0,.79,8.23Z" transform="translate(-1.65 -78.22)"/><path class="as" d="M484,207.44c0,2.8,1.55,5.8,4.23,6.64a5.17,5.17,0,0,0,5.64-1.94,9.76,9.76,0,0,0,1.28-5.09q.28-5.1.24-10.22c-.05-4.81-.34-9.69-1.9-14.24s-4.54-8.78-8.84-11a1.59,1.59,0,0,0-.89-.24c-1,.15-.85,1.71-.36,2.64l2.37,4.53c-1.29.17-3,.94-2.59,2.17.27.84,1.34,1,2.14,1.41,2.37,1.12,2.73,4.3,2.52,6.91a62.865,62.865,0,0,1-1.91,10.08C485.23,201.88,483.94,204.57,484,207.44Z" transform="translate(-1.65 -78.22)"/><path class="ak" d="M426.58,213.93a16.232,16.232,0,0,0-3.83,3.16,6.86,6.86,0,0,0-1.74,4.55,4.43,4.43,0,0,0,2.57,4c2,.78,4.13-.23,6-1.22L438,219.9a7.78,7.78,0,0,0,3.14-2.45c1.29-2.08.34-4.83-1-6.86a5.441,5.441,0,0,0-1.62-1.72c-1.69-1-4.1.89-5.67,1.63a54.366,54.366,0,0,0-6.27,3.43Z" transform="translate(-1.65 -78.22)"/><path class="at" d="M426.05,218.14a114.681,114.681,0,0,1,16.74-1.89,45.25,45.25,0,0,1,13.88,1.16,6.549,6.549,0,0,1,2.12.91,1.18,1.18,0,0,1,.6,1c-.07.47-.56.73-1,.87-2,.63-4.16.2-6.23.41a.636.636,0,0,0-.57.27c-.18.38.38.68.52,1.08s-.46,1-1,.94a4.65,4.65,0,0,1-1.5-.66c-1.46-.71-3.2-.3-4.76.16q-5.53,1.61-10.93,3.63a12.78,12.78,0,0,1-4.81,1.14,9.76,9.76,0,0,1-4.15-1.31,6.87,6.87,0,0,1-2.85-2.39C420.37,220.47,423.53,218.62,426.05,218.14Z" transform="translate(-1.65 -78.22)"/><path class="v" d="M447.41,355.47a4.1,4.1,0,0,0,.23,1.91,1.7,1.7,0,0,0,1.49,1.06,16.09,16.09,0,0,0,3.49,5.94,6.35,6.35,0,0,0,2.41,1.76,2.86,2.86,0,0,0,2.84-.43c1-.94.94-2.56.65-3.92a45.878,45.878,0,0,0-3.74-9.87,16.689,16.689,0,0,1,.53,5.12,2.12,2.12,0,0,1-.71,1.77c-.83.55-1.91-.17-2.57-.91a15.78,15.78,0,0,1-3.29-5.69,3.5,3.5,0,0,1-.2-1.72A32.1,32.1,0,0,0,447.41,355.47Z" transform="translate(-1.65 -78.22)"/><path class="v" d="M467.09,335.91a3.17,3.17,0,0,0,.34,2.47,15.07,15.07,0,0,1,1,4,2.43,2.43,0,0,1-.49,2.06,2.529,2.529,0,0,0-.5.48,1.26,1.26,0,0,0,0,.88l1,4.86a2,2,0,0,0,.76,1.46c.8.46,1.75-.32,2.23-1.11a8.47,8.47,0,0,0,1.25-4.78,17,17,0,0,0-2.28-6.77c.21.44,1,.3,1.16-.16a1.33,1.33,0,0,0-.38-1.35C470.77,337.56,467.62,334.78,467.09,335.91Z" transform="translate(-1.65 -78.22)"/><path class="au" d="M90.86,325.63c-.88,2.81-2,5.65-1.78,8.59a13.67,13.67,0,0,1,.17,3.82,7.53,7.53,0,0,1-2.07,3.34,52.783,52.783,0,0,1-6.51,5.9,3.83,3.83,0,0,1-1.84.92,1.39,1.39,0,0,1-1.57-1,2.14,2.14,0,0,1,.38-1.26,33.82,33.82,0,0,0,3.08-6.9,45.71,45.71,0,0,0,1.38-10.89c.45-10,.9-20,.57-30-.2-6.21-.69-12.42-.24-18.62a3.24,3.24,0,0,1,.4-1.57c1.47-2.19,7.42-2.6,9.49-1.11s2,4.51,2,6.79c0,9,.1,18.05-.67,27a71.14,71.14,0,0,1-2.79,14.99Z" transform="translate(-1.65 -78.22)"/><path class="v" d="M89.58,340.64a56.409,56.409,0,0,1-1.27,8.87A3.75,3.75,0,0,1,86.83,346c-2.34.66-3.34,3.46-5.36,4.82A10,10,0,0,1,76.24,352a3.08,3.08,0,0,1-1.35-.14,2.09,2.09,0,0,1-1-2.42A6,6,0,0,1,75.33,347a2.94,2.94,0,0,1,1.38-1.12,3.83,3.83,0,0,1,1.35,0,8.77,8.77,0,0,0,6.55-2.65c1.48-1.39,2.23-3.29,3.57-4.73.71-.76.68-1.2,1.29,0a4.41,4.41,0,0,1,.11,2.14Z" transform="translate(-1.65 -78.22)"/><path class="au" d="M120.42,276.24a35.08,35.08,0,0,1,18.93-5.53,5.16,5.16,0,0,0,3.19-.65,8.7,8.7,0,0,0,1.23-1.41c2.11-2.47,5.87-2.41,9.1-2.15,2,.16,4.3.55,5.15,2.34-2,2-4.92,2.81-7.61,3.76a53.51,53.51,0,0,0-20,12.68c-1.57,1.59-3,3.28-4.74,4.74a23.679,23.679,0,0,1-5.69,3.62,5.23,5.23,0,0,1-6.46-1.06,24.55,24.55,0,0,1-9.12-15.84,4.5,4.5,0,0,1,.23-2.65,4.91,4.91,0,0,1,1.83-1.7c2.31-1.5,6.76-4.65,9.72-3.47C117.34,269.39,120.69,276.07,120.42,276.24Z" transform="translate(-1.65 -78.22)"/><path class="v" d="M158.7,271.26a6.37,6.37,0,0,0,2.51.35,2.18,2.18,0,0,0,1.9-1.48,2.78,2.78,0,0,0-.82-2.31,9.82,9.82,0,0,0-7.8-3.51,9.52,9.52,0,0,1-2.72-.05,1.31,1.31,0,0,1-.6-.3,1.45,1.45,0,0,1-.1-1.65,6.419,6.419,0,0,0,.71-1.61.66.66,0,0,0,0-.34.63.63,0,0,0-.49-.34,1.79,1.79,0,0,0-1.5.52,12.668,12.668,0,0,0-1.08,1.23c-.85,1-2,1.62-2.88,2.51a3.7,3.7,0,0,0-1.29,3.42,1,1,0,0,0,.26.46,1.08,1.08,0,0,0,.87.11c2.6-.37,5.35-.88,7.92-.11A4.19,4.19,0,0,1,156,270C156.64,270.9,157.67,271,158.7,271.26Z" transform="translate(-1.65 -78.22)"/><path class="v" d="M133.66,190a13.41,13.41,0,0,1-2.37,3.48c-.24.28-.52.56-.77.84-1.53,1.62-3.52,3.24-5.72,2.9-3.17-.5-5-4.79-8.21-4.51-1.09.09-2,.71-3.08.9a6.36,6.36,0,0,1-4.57-1.52,17.509,17.509,0,0,0-4.13-2.68,15.361,15.361,0,0,0-5.38-.4c-2.36.06-4.7,0-6.37-1.81-2.27-2.45-2.46-8.08-2.9-11.22a15.67,15.67,0,0,1,0-5.59,9.67,9.67,0,0,1,8.21-6.94,12.42,12.42,0,0,1,10.26,4,31.591,31.591,0,0,0,3.45,3.67c2.18,1.65,5,2,7.68,2.61s5.5,1.9,6.5,4.42a16.29,16.29,0,0,0,1,2.8c.87,1.39,2.68,1.89,4.29,2.14a3.46,3.46,0,0,1,1.68.56,2.42,2.42,0,0,1,.78,1.15,6.82,6.82,0,0,1-.35,5.2Z" transform="translate(-1.65 -78.22)"/><path class="av" d="M131.29,193.49c-.24.28-.52.56-.77.84-1.53,1.62-3.52,3.24-5.72,2.9-3.17-.5-5-4.79-8.21-4.51-1.09.09-2,.71-3.08.9a6.36,6.36,0,0,1-4.57-1.52,17.51,17.51,0,0,0-4.13-2.68,15.36,15.36,0,0,0-5.38-.4,8.62,8.62,0,0,1-1.09-1.77c-1.4-3.14-.59-7.31,2.24-9.3,1.68-1.18,4.41-2.55,6.5-1.8a16.92,16.92,0,0,1,6.34,3.76c1.74,1.93,2.18,4.85,4.13,6.53,1.78,1.52,4.32,1.65,6.59,2.24a14.59,14.59,0,0,1,4.42,1.92,6.9,6.9,0,0,1,2.67,2.74C131.26,193.4,131.29,193.43,131.29,193.49Z" transform="translate(-1.65 -78.22)"/><path class="ak" d="M92.22,193.15a18.4,18.4,0,0,1-6.44,4.57,3.8,3.8,0,0,1-5.16-1.61c-.25-.35-.5-.69-.71-1a40.69,40.69,0,0,1-4-8.55c-.84-2.27-1.65-4.51-2.49-6.75a2.91,2.91,0,0,1-.28-1.43,2.78,2.78,0,0,1,.84-1.52,4.18,4.18,0,0,1,.53-.5,12.25,12.25,0,0,1,4.23-2.76c1.21-.5,2.73-.75,3.76.12a5,5,0,0,1,1.18,2.3c1.68,5.07,4.94,8.71,9,11.88C95.42,189.89,94.3,191,92.22,193.15Z" transform="translate(-1.65 -78.22)"/><path class="aw" d="M79.91,195.08a40.69,40.69,0,0,1-4-8.55c-.84-2.27-1.65-4.51-2.49-6.75a2.91,2.91,0,0,1-.28-1.43,2.78,2.78,0,0,1,.84-1.52,4.179,4.179,0,0,1,.53-.5,10.6,10.6,0,0,1,2.27.75,2.43,2.43,0,0,1,1.58,1.43,3.15,3.15,0,0,1,0,1.43c-.43,3.48,1.9,5.72,3,8.77C82,190.51,82,194.89,79.91,195.08Z" transform="translate(-1.65 -78.22)"/><path class="v" d="M82.14,174.87a2.32,2.32,0,0,1-.56.81l-1,1.06-.19.18a5.33,5.33,0,0,1-1.18.91,6.762,6.762,0,0,1-1.34.43,16.712,16.712,0,0,1-3.26.5,7.71,7.71,0,0,1-1.18-.06.49.49,0,0,1-.31-.16.36.36,0,0,1,0-.25,1.78,1.78,0,0,1,.59-1c.15-.16.31-.28.49-.44.5-.37.91-.84,1.4-1.21a14.1,14.1,0,0,1,3.4-1.92,6,6,0,0,1,1.21-.37,2.18,2.18,0,0,1,.77,0,1.35,1.35,0,0,1,1.16,1.52Z" transform="translate(-1.65 -78.22)"/><path class="ak" d="M124.73,209.26a43.58,43.58,0,0,1-1.58,6.87c-.12.43-1.4,2.89-1.77,2.89-4.45-.37-8.71-3.67-12.28-6.34-.9-.66-2.09-1.43-3-.94-.09,0-.15.07-.25.13a2.68,2.68,0,0,0-.74,1c-.69,1.37-1.37,2.77-2.06,4.14a17.9,17.9,0,0,0-2,5.38,22.159,22.159,0,0,0,.25,5.75,44.429,44.429,0,0,1,.22,5,2.41,2.41,0,0,1-.68,2,2.53,2.53,0,0,1-1.06.41c-.5.09-1,.15-1.49.24a48.3,48.3,0,0,1-12.07.25c-3-.31-6-1-8.17-3a5.56,5.56,0,0,1-1.59-2.55,8.871,8.871,0,0,1,0-2.52c.19-2,.37-3.95.56-5.94.41-4.44.78-9-.43-13.3-.69-2.43-1.87-4.73-2.24-7.22a4.64,4.64,0,0,1,.06-1.74,4,4,0,0,1,1.24-1.64c1.59-1.34,3.58-2.24,4.85-3.89,1-1.24,1.5-2.86,2.77-3.79s3.11-.84,4.73-.69c3.32.35,6.65.81,10,1.4.47.1,1,.16,1.5.22a19.3,19.3,0,0,1,6.12,1.52,19.32,19.32,0,0,1,4,3.14c2.21,2.05,4.51,4,6.9,5.82s4.79,3.6,7.31,5.25a2.3,2.3,0,0,1,1,1,2,2,0,0,1-.1,1.15Z" transform="translate(-1.65 -78.22)"/><path class="ax" d="M116.37,201.83c-1.58.56-3.39-.16-4.94-.84a29.473,29.473,0,0,1-3.58-1.84c-1.71-1.12-3.1-2.64-4.91-3.6-1.27-.69-3.67-.78-4.6-2s-.19-1.81,1-2.18a19.3,19.3,0,0,1,6.12,1.52,19.321,19.321,0,0,1,4,3.14C111.68,198.06,114,200,116.37,201.83Z" transform="translate(-1.65 -78.22)"/><path class="v" d="M120.59,217.41c0,.38-.13.81.23.93s.69-.18.93-.46.37-.44.55-.66a2.85,2.85,0,0,0,.52-.89,2.8,2.8,0,0,0,.05-1.08,3.2,3.2,0,0,0-.14-.82,1.05,1.05,0,0,0-.54-.61C120.24,213,120.55,216.49,120.59,217.41Z" transform="translate(-1.65 -78.22)"/><path class="au" d="M102.24,192a1.26,1.26,0,0,1-.06.61,1.17,1.17,0,0,1-.58.46,28.281,28.281,0,0,0-4.82,2.26c-1.42,1-2.53,2.57-4.21,3.06a2.88,2.88,0,0,1-.42-2.24,16.6,16.6,0,0,1,.68-2.25,19.53,19.53,0,0,0,.64-6.38,7.91,7.91,0,0,1,.26-2.95,2.47,2.47,0,0,1,2.18-1.74c1.1,0,1.89,1,2.7,1.74,1,.91,2.73,1.16,3.15,2.31C102.29,188.27,102.09,190.43,102.24,192Z" transform="translate(-1.65 -78.22)"/><path class="au" d="M105.19,185.46a6.3,6.3,0,0,1-2.55,3.41,5,5,0,0,1-4.38,0,8.57,8.57,0,0,1-4-4,14.11,14.11,0,0,1-1.37-5.58,10.74,10.74,0,0,1,.27-3.39,7.56,7.56,0,0,1,5.69-5.3,11.72,11.72,0,0,1,2.9-.14,5.91,5.91,0,0,1,1.62.27,5.12,5.12,0,0,1,1.66,1.1,6,6,0,0,1,1.43,1.86,10.7,10.7,0,0,1,.4,5.16,29.43,29.43,0,0,1-1.67,6.61Z" transform="translate(-1.65 -78.22)"/><path class="au" d="M141.93,199.27c-.83-3,.86-6.18.44-9.26-.09-.65-.15-1.53.48-1.74a1.11,1.11,0,0,1,1.05.35,3.7,3.7,0,0,1,1.16,3.21c.89-.27,1.78-.52,2.68-.75a1.61,1.61,0,0,1,.87-.05c.5.16.7.74.84,1.25.69,2.53,1.35,5.35.11,7.66a9.91,9.91,0,0,1-2.08,2.44,102,102,0,0,1-9.84,8.12,35.389,35.389,0,0,1-7.88,4.6,15.65,15.65,0,0,1-9,.94c-.85-.2,1.31-5.37,1.6-5.83,1.3-2.07,3.31-2.74,5.43-3.81Z" transform="translate(-1.65 -78.22)"/><path class="au" d="M80.53,176.74l-.19.18a5.33,5.33,0,0,1-1.18.91,6.761,6.761,0,0,1-1.34.43,16.711,16.711,0,0,1-3.26.5,14.692,14.692,0,0,1-.9-1.46c-.78-1.31-1.4-2.64-1.78-3.36a24.19,24.19,0,0,1-1.67-5.75,100.619,100.619,0,0,1-2.09-12.5,8.7,8.7,0,0,0-.65-3.26,7.259,7.259,0,0,1-.62-1.25,3,3,0,0,1-.13-1.4,5.93,5.93,0,0,1,2.49-4.25,9.481,9.481,0,0,0,1.15-.88c.44-.49.69-1.27,1.34-1.49a1.43,1.43,0,0,1,1.49.53,3.91,3.91,0,0,1,.68,1.56c.28,1,.56,1.95.84,2.95a4.22,4.22,0,0,1,2.77-2c-1.43,2.7-2.89,5.63-2.7,8.7a17.7,17.7,0,0,0,1.4,5c.68,1.74,1.3,3.48,1.95,5.25a54.71,54.71,0,0,1,2.12,8.15,27.158,27.158,0,0,1,.28,3.44Z" transform="translate(-1.65 -78.22)"/><path class="e" d="M122.75,263.29a3,3,0,0,1-1,2.3c-1.65,1.86-3.26,3.73-4.88,5.59a23.94,23.94,0,0,1-3.33,3.42,9.55,9.55,0,0,1-1.3,1,19.17,19.17,0,0,1-6.13,2.08A108.4,108.4,0,0,1,73,279.48,62.92,62.92,0,0,0,75.74,267a74.75,74.75,0,0,0-.59-12.59q-.8-8.73-.78-17.5c0-2.62.16-5.48,1.93-7.37,6,3.57,14.11,1.15,20.14,4.6.32.18.66.4,1,.59a4.75,4.75,0,0,0,2.17.78c1.81,0,1.84-1.65,3.86-1.12,1.55.43,3.08,2.14,4,3.42a35.461,35.461,0,0,1,3.33,6.56,69.5,69.5,0,0,0,11.16,17.5,3.19,3.19,0,0,1,.79,1.42Z" transform="translate(-1.65 -78.22)"/><path class="ay" d="M334.82,324.69a1.13,1.13,0,0,0-.08.6,1.23,1.23,0,0,0,.5.61,9.679,9.679,0,0,0,2.48,1.49,3.21,3.21,0,0,0,2.79-.22,4.6,4.6,0,0,0,1.29-1.54l6.2-10.05c-.42-1.1-1.87-1.3-3.05-1.32a12.909,12.909,0,0,0-4,.89c-.89.24-1.8-.31-2.52.27-.93.75-1.48,3.47-1.9,4.58Q335.6,322.33,334.82,324.69Z" transform="translate(-1.65 -78.22)"/><path class="v" d="M317.62,276.42c5.11,3.68,11.29,5.48,17.34,7.21l12.86,3.69a113.222,113.222,0,0,0-12,30.77l9.38,1.18a2.79,2.79,0,0,0,1.67-.14,2.71,2.71,0,0,0,.91-1l17.31-26.41c1.64-2.49,3.35-5.31,2.84-8.26-.58-3.34-3.76-5.5-6.67-7.26l-20.41-12.38c-5-3-10.06-6.07-15.74-7.31-4.2-.92-14.45-1.06-16.05,4.21C307.36,266.3,313.63,273.55,317.62,276.42Z" transform="translate(-1.65 -78.22)"/><path class="az" d="M317.62,276.42c5.11,3.68,11.29,5.48,17.34,7.21l12.86,3.69a113.222,113.222,0,0,0-12,30.77l9.38,1.18a2.79,2.79,0,0,0,1.67-.14,2.71,2.71,0,0,0,.91-1l17.31-26.41c1.64-2.49,3.35-5.31,2.84-8.26-.58-3.34-3.76-5.5-6.67-7.26l-20.41-12.38c-5-3-10.06-6.07-15.74-7.31-4.2-.92-14.45-1.06-16.05,4.21C307.36,266.3,313.63,273.55,317.62,276.42Z" transform="translate(-1.65 -78.22)"/><path class="v" d="M297.81,271.77c-.23,26.89-.34,54.48,9,79.7a3.7,3.7,0,0,0,1,1.66,2.56,2.56,0,0,0,1.9.48,5.38,5.38,0,0,0,4.11-3.4,15.85,15.85,0,0,0,1-5.48c.85-15.11,1.56-30.27.62-45.37a28.487,28.487,0,0,1,0-5.54c.42-3.1,1.92-5.93,3.34-8.72,3.72-7.32,7.08-15,8-23.16a10.17,10.17,0,0,0-.67-5.84,7.84,7.84,0,0,0-5.15-3.67,23.4,23.4,0,0,0-6.48-.36c-5.52.2-9.78,0-14.13,3.77C296.47,259.09,297.85,267.21,297.81,271.77Z" transform="translate(-1.65 -78.22)"/><path class="ad" d="M317.62,276.42c5.11,3.68,11.29,5.48,17.34,7.21l12.86,3.69" transform="translate(-1.65 -78.22)"/><path class="ba" d="M297.81,271.77c-.23,26.89-.34,54.48,9,79.7a3.7,3.7,0,0,0,1,1.66,2.56,2.56,0,0,0,1.9.48,5.38,5.38,0,0,0,4.11-3.4,15.85,15.85,0,0,0,1-5.48c.85-15.11,1.56-30.27.62-45.37a28.487,28.487,0,0,1,0-5.54c.42-3.1,1.92-5.93,3.34-8.72,3.72-7.32,7.08-15,8-23.16a10.17,10.17,0,0,0-.67-5.84,7.84,7.84,0,0,0-5.15-3.67,23.4,23.4,0,0,0-6.48-.36c-5.52.2-9.78,0-14.13,3.77C296.47,259.09,297.85,267.21,297.81,271.77Z" transform="translate(-1.65 -78.22)"/><path class="e" d="M329.65,197.5c9.62-1.1,23-5.23,27.25-9.1a7.44,7.44,0,0,1,2.27-1.69c2.2-.81,4.36,1,6.47,2a9.69,9.69,0,0,0,8.52-.11c1.77,2.73.09,6.42-2.17,8.77-6.66,7-17.14,8.28-25.74,12.62a38.871,38.871,0,0,0-9.28,6.55c-.65.62-2.26,2.88-3.39,1.92-.67-.56.08-3.55.19-4.3C334.7,207.87,323.1,198.24,329.65,197.5Z" transform="translate(-1.65 -78.22)"/><path class="e" d="M310,220.91a2.55,2.55,0,0,1-.78,0c-2.92-.24-5.75-4.07-8.42-5.25-.25-.12-.5-.22-.78-.37-6.34-3.08-13.52-10.42-18.5-15.08a7.94,7.94,0,0,1,3.08-2.08c.53-.28,1.06-.53,1.55-.81a9.48,9.48,0,0,0,4.05-5c4.78,3.08,12.28,4,18.4,5.63a27.722,27.722,0,0,1,3.89,1.24c1.36.56-1,3.86.21,4.79C317.39,207.61,314.62,220.23,310,220.91Z" transform="translate(-1.65 -78.22)"/><path class="ay" d="M372,196.54a9.61,9.61,0,0,0,1.54-5.7c.11-7.82-3.4-15.2-7.15-22.06-1.94-3.56-4-7.1-5.11-11-1.18-4-1.35-8.44-3.35-12.15-1-1.87-3.14-3.66-5.06-2.76-1.65.78-1.93,3-1.85,4.81s.19,3.93-1.16,5.15c-.26.24-.57.45-.66.78-.18.66.57,1.14,1.17,1.46,3.62,1.88,5.74,5.84,6.6,9.82s.64,8.11.78,12.18a35.791,35.791,0,0,0,2.15,12C361.43,192.84,367.45,202.6,372,196.54Z" transform="translate(-1.65 -78.22)"/><path class="ak" d="M339,325a10.691,10.691,0,0,0-2.12-1.22,1.79,1.79,0,0,0-2.15.66,2.48,2.48,0,0,0-.13,1.27,3.53,3.53,0,0,0,.14.8,2.73,2.73,0,0,0,1.38,1.34,17.67,17.67,0,0,0,2.17.89,1.51,1.51,0,0,0,1.92-.38c.43-.39,1.79-1.62,1.47-2.33-.14-.31-.89-.31-1.19-.4A6.731,6.731,0,0,1,339,325Z" transform="translate(-1.65 -78.22)"/><path class="v" d="M344.89,334c-.88-1.27-1.56-2.66-2.46-3.92a7.37,7.37,0,0,0-3.52-2.9c-1.05-.36-2.21-.35-3.23-.78a3.389,3.389,0,0,0-1.17-.4c-.82,0-1.41.74-1.86,1.43-.9,1.39-1.84,3-1.46,4.6a5.39,5.39,0,0,0,1.33,2.25c1.47,1.66,3.42,3.16,5.64,3.13-.11,1,1,1.75,1.93,2.21l3.32,1.59a5.938,5.938,0,0,0,1.85.66,3.19,3.19,0,0,0,2.71-1C350.53,338.07,346.33,336.05,344.89,334Z" transform="translate(-1.65 -78.22)"/><path class="ay" d="M308.13,357.84a.77.77,0,0,0,.14.5.8.8,0,0,0,.4.23,11.509,11.509,0,0,0,4,.6,2.36,2.36,0,0,0,1.15-.24,2.4,2.4,0,0,0,1-1.62,20,20,0,0,0,.24-6,2.92,2.92,0,0,0-1-2.48,2.47,2.47,0,0,0-1.89-.07c-1.38.37-3.5,1.35-4.11,2.76C307.33,353.15,308,356.11,308.13,357.84Z" transform="translate(-1.65 -78.22)"/><path class="ak" d="M308.15,357a.89.89,0,0,0-.53.21.73.73,0,0,0-.17.38,4.76,4.76,0,0,0,.75,3.84.67.67,0,0,0,.31.27.66.66,0,0,0,.28,0q3.29-.36,6.52-1a3.1,3.1,0,0,0,1.81-.83,2.17,2.17,0,0,0,.2-2.24c-.88-2-1.9-1.71-3.79-1.42Z" transform="translate(-1.65 -78.22)"/><path class="v" d="M316.58,358.76a9,9,0,0,0-4.49-.37l-4.28.39a4,4,0,0,0-1.37.29,4.279,4.279,0,0,0-1.29,1.15,29.789,29.789,0,0,1-5.57,4.95,5.809,5.809,0,0,0-1.53,1.3,1.75,1.75,0,0,0-.2,1.88,2.42,2.42,0,0,0,2.11.84,20.54,20.54,0,0,0,13-4.24,1.31,1.31,0,0,1,.85-.39,1.75,1.75,0,0,1,.72.36,2.66,2.66,0,0,0,2.8,0C319.5,363.51,318.78,359.75,316.58,358.76Z" transform="translate(-1.65 -78.22)"/><path class="e" d="M342,228.44c-2,11-3.2,22.54-9.76,32.21a8.22,8.22,0,0,1-3,2.89,10.831,10.831,0,0,1-3.79.74c-5.16.38-10.57.72-15.57-.15-.72-.13-1.4-.28-2.09-.47a21,21,0,0,1-4.29-1.58,13,13,0,0,1-2.52-1.65,7.41,7.41,0,0,1-1.43-1.59,10.29,10.29,0,0,1-1.15-5.13c-.46-12.84.47-25.65,1.59-38.42.16-1.46.28-2.89.4-4.32a30.625,30.625,0,0,1,.87-5.41,10.31,10.31,0,0,1,4.33-6.34,11.56,11.56,0,0,1,3-1.28,28.588,28.588,0,0,1,5.44-.87c3.73-.31,7.46-.47,11.22-.44,9.83,0,16.95,8.27,18.1,16.2C344.09,218,342.91,223.25,342,228.44Z" transform="translate(-1.65 -78.22)"/><path class="bb" d="M310.33,264.87c-.84-.4-1.71-.8-2.55-1.21-2.27-1.09-4.54-2.18-6.81-3.23a7.41,7.41,0,0,1-1.43-1.59,10.29,10.29,0,0,1-1.15-5.13c-.46-12.84.47-25.65,1.59-38.42-6.34-3.08-13.52-10.42-18.5-15.08a7.94,7.94,0,0,1,3.08-2.08c2,.49,4,1.74,5.81,2.55,3.64,1.58,7.34,3,10.88,4.88.94.49,1.9,1,2.83,1.58a10.43,10.43,0,0,1,4.08,3.7,11.38,11.38,0,0,1,1,4.54c.09,1.84.09,3.7.06,5.53a40.179,40.179,0,0,1-.28,4.42c-.65,6.75-2.3,13.34-2.76,20.08-.47,6.47.28,13.28,3.73,18.72A4.633,4.633,0,0,0,310.33,264.87Z" transform="translate(-1.65 -78.22)"/><path class="ay" d="M319.72,204.74a4.49,4.49,0,0,0,4.91-.74c1.19-1.2,1.42-3,1.44-4.73a32.993,32.993,0,0,0-.26-4.76,5.39,5.39,0,0,0-.49-1.86c-.91-1.73-3.21-2.13-5.17-2-3.18.18-6.88,2-5.48,5.57C315.85,199.27,316.32,203.25,319.72,204.74Z" transform="translate(-1.65 -78.22)"/><path class="ay" d="M329.11,191.72a5.78,5.78,0,0,1-2.67,3.27,6.28,6.28,0,0,1-2.92.41,20.519,20.519,0,0,1-5.37-1,10.14,10.14,0,0,1-4-2.2,12.71,12.71,0,0,1-2.41-3.59c-1.84-3.71-3.36-8-2.1-11.92a9.35,9.35,0,0,1,7-6.21C327.28,168.4,332.28,183.81,329.11,191.72Z" transform="translate(-1.65 -78.22)"/><path class="v" d="M313.48,166.66a7.27,7.27,0,0,0-4.71,4.25c-.49,1.21-.72,2.59-1.64,3.52a12,12,0,0,1-1.68,1.21,6.17,6.17,0,0,0-2.29,6.37,7.58,7.58,0,0,1,.39,1.73,9.45,9.45,0,0,1-.48,2.19,4.63,4.63,0,0,0,4.54,5.31,3.32,3.32,0,0,1,2,.17c.51.35.73,1.08,1.31,1.29.91.33,1.61-.8,1.92-1.71a11.75,11.75,0,0,0,.86-5.11,23.122,23.122,0,0,0-1-3.51,11.74,11.74,0,0,1-.46-4.25,3.31,3.31,0,0,1,.5-1.7c.81-1.12,2.56-1.1,3.54-2.08.71-.71,1.07-2,2.07-2,.6-.05,1.12.39,1.66.68a3.34,3.34,0,0,0,3.24-.13,18,18,0,0,0,2.85,2c.49.27.19-3.36.05-3.67a4.45,4.45,0,0,0-3.27-2.47C320,167.81,316.64,165.82,313.48,166.66Z" transform="translate(-1.65 -78.22)"/><path class="ay" d="M280.35,197.14A13.49,13.49,0,0,1,279,189.3c.52-7.15,3.41-13.89,6.48-20.37,1.18-2.51,2.43-5.16,2.16-7.91a3.32,3.32,0,0,1,.09-1.83,3.8,3.8,0,0,1,.81-.89c1.19-1.15,1.71-2.8,2.59-4.2a6.24,6.24,0,0,1,3.39-2.79,3.79,3.79,0,0,1,4.05,1.2,4.75,4.75,0,0,1,.77,2.5c.18,3.18-1.23,6.24-3,8.9a15.4,15.4,0,0,0-1.38,2.3,12.807,12.807,0,0,0-.7,2.36c-1.19,5.21-2.38,10.45-2.5,15.79-.07,2.85.17,5.7,0,8.54a19.44,19.44,0,0,1-.92,5.19c-.57,1.71-1,3.06-2.92,3.12a8.64,8.64,0,0,1-7.57-4.07Z" transform="translate(-1.65 -78.22)"/><path class="ak" d="M197.59,208.88c-.78,2-1.5,3.92-2.14,5.92,1.76-1.29,3.09-3.31,5.18-3.91a.42.42,0,0,0,.22-.11.45.45,0,0,0,0-.23,4,4,0,0,0-.43-1.7,6.339,6.339,0,0,1-.7-1.49c-.07-.38.17-.78-.25-.75s-.78.66-1,.85A3.53,3.53,0,0,0,197.59,208.88Z" transform="translate(-1.65 -78.22)"/><path class="ak" d="M207.8,223.4a2.26,2.26,0,0,0-1.57.34,1.12,1.12,0,0,0-.34,1.45,3.19,3.19,0,0,0-2.43,2.27,1.13,1.13,0,0,0,.14,1.06,1.33,1.33,0,0,0,.38.23c.86.39,1.79.58,2.68.9a4.11,4.11,0,0,1,2.23,1.63,3.73,3.73,0,0,1-.15,3.52,22.322,22.322,0,0,1-2.14,3c-.35.47-.68,1.11-.4,1.62a1.37,1.37,0,0,0,.85.57,4.27,4.27,0,0,0,3.3-.33,1.07,1.07,0,0,1,.37-.15,1.17,1.17,0,0,1,.55.16,2.44,2.44,0,0,0,2.83-1.12,6.37,6.37,0,0,0,.79-3.17,25.529,25.529,0,0,0-.13-5.17,7,7,0,0,0-.57-2.12c-.61-1.23-1.82-1.66-2.64-2.65A5.41,5.41,0,0,0,207.8,223.4Z" transform="translate(-1.65 -78.22)"/><path class="ak" d="M172,208.11a1.63,1.63,0,0,0-1.6.82c-.1-.53-.91-.63-1.32-.28a2.34,2.34,0,0,0-.6,1.47,31.77,31.77,0,0,0-.43,8.31,3,3,0,0,0,.85,2c.58.48,1.69.31,1.83-.43a2.31,2.31,0,0,0,1.13,1,.7.7,0,0,0,.4.06.64.64,0,0,0,.35-.21A4,4,0,0,0,173.7,218a19.491,19.491,0,0,0-.36-3.13,20.561,20.561,0,0,1-.17-4.57C173.25,209.3,173.33,208.28,172,208.11Z" transform="translate(-1.65 -78.22)"/><path class="v" d="M101.18,174.34A7.78,7.78,0,0,0,105,176c1.39.27,2.81.37,4.18.73.27.07.64.1.75-.15a.5.5,0,0,0,0-.36,5,5,0,0,0-.5-1.08,16.61,16.61,0,0,0-3.35-4.4,7.92,7.92,0,0,0-5-2.12c-1,0-4.17.48-3.57,2.16.24.68,1.25.91,1.76,1.39C100,172.84,100.47,173.69,101.18,174.34Z" transform="translate(-1.65 -78.22)"/><path class="bc" d="M106.05,211.74c-.09,0-.15.07-.25.13a2.68,2.68,0,0,0-.74,1c-.69,1.37-1.37,2.77-2.06,4.14a17.9,17.9,0,0,0-2,5.38,22.16,22.16,0,0,0,.25,5.75,44.431,44.431,0,0,1,.22,5,2.41,2.41,0,0,1-.68,2,2.53,2.53,0,0,1-1.06.41c-.5.09-1,.15-1.49.24a11,11,0,0,1-2.06-.87,2,2,0,0,1-.83-.71,2.52,2.52,0,0,1-.07-1.52c.41-2.86-.81-5.72-.93-8.62-.19-4.38,2.08-8.48,4.29-12.28a7.749,7.749,0,0,1,1.59-2.14c1.3-1.09,4.16-1.31,5.31.22a3.09,3.09,0,0,1,.51,1.87Z" transform="translate(-1.65 -78.22)"/><path class="bd" d="M122.75,263.29a3,3,0,0,1-1,2.3c-1.65,1.86-3.26,3.73-4.88,5.59a23.94,23.94,0,0,1-3.33,3.42,25.6,25.6,0,0,1,.34-3.32c.47-5.41-3.42-10.26-4.16-15.64-.22-1.43-.19-2.89-.41-4.32-.84-5.22-4.78-9.33-8.73-12.84-.72-.65-3.2-2.52-3.14-3.73a4.75,4.75,0,0,0,2.17.78c1.81,0,1.84-1.65,3.86-1.12,1.55.43,3.08,2.14,4,3.42a35.461,35.461,0,0,1,3.33,6.56,69.5,69.5,0,0,0,11.16,17.5,3.19,3.19,0,0,1,.79,1.4Z" transform="translate(-1.65 -78.22)"/><path class="be" d="M208.31,191.79a.48.48,0,0,0,.34-.39c0-.23-.21-.43-.18-.65s.23-.32.42-.4a.86.86,0,0,1,.39-.06.79.79,0,0,1,.52.41,1.66,1.66,0,0,1,.32.79,1.79,1.79,0,0,1-.68,1.39,1.86,1.86,0,0,1-.81.48.94.94,0,0,1-.87-.21,1,1,0,0,1-.22-.36,1.17,1.17,0,0,1-.08-.55C207.55,191.67,207.92,191.92,208.31,191.79Z" transform="translate(-1.65 -78.22)"/><path class="bf" d="M312.27,189.5a2.42,2.42,0,0,0-1.56,1.05,1.58,1.58,0,0,0,.08,1.81A2.28,2.28,0,0,0,312,193a5.77,5.77,0,0,0,2.23.08,1.84,1.84,0,0,0,1.08-.5,1.54,1.54,0,0,0,.13-1.71,2.67,2.67,0,0,0-3.17-1.37Z" transform="translate(-1.65 -78.22)"/><path class="bg" d="M311.48,190.63a1,1,0,0,0-.22,1.23,1.74,1.74,0,0,0,1.54.75c.52,0,1.24-.07,1.5-.6.16-.34-.07-.5-.35-.65a6,6,0,0,1-1.12-.67A1,1,0,0,0,311.48,190.63Z" transform="translate(-1.65 -78.22)"/><path class="e" d="M221.83,162.18a8.57,8.57,0,0,1,.1,5.89c-.56,1.92-1.48,3.73-2.11,5.63-1.39,4.2-1.41,8.87-3.58,12.73a.784.784,0,0,1-1.14.45c-4.28-1.51-10.24-4.87-12.26-9.2-1.09-2.35,1.65-3.55,3.3-4.78q3.63-2.72,7.37-5.28C214.19,167.16,221.87,162.27,221.83,162.18Z" transform="translate(-1.65 -78.22)"/><path class="v" d="M450.09,181.82c1.71,1,3.83,1,5.82,1s4.14.08,5.72,1.29c-.3-2.86-1.62-5.87-4.22-7.1a8.54,8.54,0,0,0-6-.18,7.44,7.44,0,0,0-4,2.35c-.62.8-.6,1,.27,1.32a14.26,14.26,0,0,1,2.41,1.32Z" transform="translate(-1.65 -78.22)"/><path class="e" d="M453.43,176.35a10.43,10.43,0,0,1,8.56,5.17,7.43,7.43,0,0,0-4.25-6.63,13.53,13.53,0,0,0-8.13-1,9.55,9.55,0,0,0-5.31,2.16c-2.49,2.34-2.4,6.69-.16,9.27.45,0,.6-.6.61-1.06,0-2.67-.15-4.05,2.11-5.77A10.39,10.39,0,0,1,453.43,176.35Z" transform="translate(-1.65 -78.22)"/><g class="bh"><path class="e" d="M186.62,109.14a1.59,1.59,0,0,0-.61.51,1.48,1.48,0,0,0,.15,1.33,5.14,5.14,0,0,0,1.09,1.62,2.18,2.18,0,0,0,1.79.61,3.07,3.07,0,0,0,1.17-.55l5.13-3.24a.6.6,0,0,0,.3-.31.67.67,0,0,0,0-.34c-.8-2.39-.73-3.63-3.33-2.49A58.152,58.152,0,0,0,186.62,109.14Z" transform="translate(-1.65 -78.22)"/><path class="e" d="M229.84,110l-4-2.6a2.44,2.44,0,0,0-1.57-.56,2.48,2.48,0,0,0-1.32.88l-4.22,4.4a1.64,1.64,0,0,0-.61,1.2,1.57,1.57,0,0,0,.57.89,41,41,0,0,0,7.17,5.47,13.39,13.39,0,0,0,4.27-9.26" transform="translate(-1.65 -78.22)"/><path class="e" d="M210.4,99.54l-2.72,2.19a.75.75,0,0,0-.36.5.79.79,0,0,0,.22.49,16.907,16.907,0,0,0,1.41,1.52.87.87,0,0,0,.35.22.66.66,0,0,0,.46-.14,3.171,3.171,0,0,0,.07-5.32" transform="translate(-1.65 -78.22)"/><path class="e" d="M222.52,100.59a2.08,2.08,0,0,0-1.51-.09,1.13,1.13,0,0,0-.75,1.22,1.48,1.48,0,0,0,.47.69,2.68,2.68,0,0,0,1.69.64.45.45,0,0,0,.3-.07.51.51,0,0,0,.14-.38,4,4,0,0,0-.39-1.86" transform="translate(-1.65 -78.22)"/><path class="e" d="M232.85,93a1,1,0,0,0-.37-.13.87.87,0,0,0-.47.21c-.45.32-.94.73-.95,1.28a1.61,1.61,0,0,0,.19.68,14.207,14.207,0,0,0,.87,1.69.44.44,0,0,0,.16.17.47.47,0,0,0,.26,0C235.17,96,235.24,94.37,232.85,93Z" transform="translate(-1.65 -78.22)"/><path class="e" d="M240.81,103.64a6.44,6.44,0,0,0-2.19,0,2.23,2.23,0,0,0-1.4.64,1,1,0,0,0,0,1.4,1.52,1.52,0,0,0,1,.17l2.25-.16a3.27,3.27,0,0,0,0-1.91" transform="translate(-1.65 -78.22)"/><path class="e" d="M236,115.55a.14.14,0,0,0,.08.07h.1l.79-.45a1,1,0,0,0,.29-.23c.16-.23,0-.54-.08-.79a11.81,11.81,0,0,0-1.6-2.36.52.52,0,0,0-.27-.2.5.5,0,0,0-.27,0,8.421,8.421,0,0,0-1.21.47C234.08,113.25,235.3,114.53,236,115.55Z" transform="translate(-1.65 -78.22)"/><path class="e" d="M199.39,95.21,198.85,98h1.37a.21.21,0,0,0,.17,0,.22.22,0,0,0,.06-.14l.36-3.35a9.15,9.15,0,0,0-1.69.59" transform="translate(-1.65 -78.22)"/><path class="e" d="M201.5,117.19a.3.3,0,0,1,.1.19.31.31,0,0,1-.12.23,3.74,3.74,0,0,1-3,1,2,2,0,0,1-1.31-.59c-.86-1-1.38-3.84.21-4.48S200.67,116.21,201.5,117.19Z" transform="translate(-1.65 -78.22)"/><path class="e" d="M211.93,113.1l-1.66,2.27.95.56a.49.49,0,0,0,.32.1.5.5,0,0,0,.3-.24l.7-1a1.57,1.57,0,0,0,.32-.63c.08-.63-.61-1-1.19-1.29" transform="translate(-1.65 -78.22)"/><path class="e" d="M182.36,96.23a13.22,13.22,0,0,0,1.18,3.1,5.72,5.72,0,0,1,2.12-.38c-.25-.85-.54-1.69-.86-2.52-.07-.16-.15-.34-.32-.4a.6.6,0,0,0-.37,0l-1.82.59" transform="translate(-1.65 -78.22)"/><path class="e" d="M213.93,88.87c0-.05,3.16-1.78,1.36-2.84-.52-.3-1.27.35-1.55.81a1.71,1.71,0,0,0,.19,2.03Z" transform="translate(-1.65 -78.22)"/></g><g class="bh"><path class="e" d="M186.62,109.14a1.59,1.59,0,0,0-.61.51,1.48,1.48,0,0,0,.15,1.33,5.14,5.14,0,0,0,1.09,1.62,2.18,2.18,0,0,0,1.79.61,3.07,3.07,0,0,0,1.17-.55l5.13-3.24a.6.6,0,0,0,.3-.31.67.67,0,0,0,0-.34c-.8-2.39-.73-3.63-3.33-2.49A58.152,58.152,0,0,0,186.62,109.14Z" transform="translate(-1.65 -78.22)"/><path class="e" d="M229.84,110l-4-2.6a2.44,2.44,0,0,0-1.57-.56,2.48,2.48,0,0,0-1.32.88l-4.22,4.4a1.64,1.64,0,0,0-.61,1.2,1.57,1.57,0,0,0,.57.89,41,41,0,0,0,7.17,5.47,13.39,13.39,0,0,0,4.27-9.26" transform="translate(-1.65 -78.22)"/><path class="e" d="M210.4,99.54l-2.72,2.19a.75.75,0,0,0-.36.5.79.79,0,0,0,.22.49,16.907,16.907,0,0,0,1.41,1.52.87.87,0,0,0,.35.22.66.66,0,0,0,.46-.14,3.171,3.171,0,0,0,.07-5.32" transform="translate(-1.65 -78.22)"/><path class="e" d="M222.52,100.59a2.08,2.08,0,0,0-1.51-.09,1.13,1.13,0,0,0-.75,1.22,1.48,1.48,0,0,0,.47.69,2.68,2.68,0,0,0,1.69.64.45.45,0,0,0,.3-.07.51.51,0,0,0,.14-.38,4,4,0,0,0-.39-1.86" transform="translate(-1.65 -78.22)"/><path class="e" d="M232.85,93a1,1,0,0,0-.37-.13.87.87,0,0,0-.47.21c-.45.32-.94.73-.95,1.28a1.61,1.61,0,0,0,.19.68,14.207,14.207,0,0,0,.87,1.69.44.44,0,0,0,.16.17.47.47,0,0,0,.26,0C235.17,96,235.24,94.37,232.85,93Z" transform="translate(-1.65 -78.22)"/><path class="e" d="M240.81,103.64a6.44,6.44,0,0,0-2.19,0,2.23,2.23,0,0,0-1.4.64,1,1,0,0,0,0,1.4,1.52,1.52,0,0,0,1,.17l2.25-.16a3.27,3.27,0,0,0,0-1.91" transform="translate(-1.65 -78.22)"/><path class="e" d="M236,115.55a.14.14,0,0,0,.08.07h.1l.79-.45a1,1,0,0,0,.29-.23c.16-.23,0-.54-.08-.79a11.81,11.81,0,0,0-1.6-2.36.52.52,0,0,0-.27-.2.5.5,0,0,0-.27,0,8.421,8.421,0,0,0-1.21.47C234.08,113.25,235.3,114.53,236,115.55Z" transform="translate(-1.65 -78.22)"/><path class="e" d="M199.39,95.21,198.85,98h1.37a.21.21,0,0,0,.17,0,.22.22,0,0,0,.06-.14l.36-3.35a9.15,9.15,0,0,0-1.69.59" transform="translate(-1.65 -78.22)"/><path class="e" d="M201.5,117.19a.3.3,0,0,1,.1.19.31.31,0,0,1-.12.23,3.74,3.74,0,0,1-3,1,2,2,0,0,1-1.31-.59c-.86-1-1.38-3.84.21-4.48S200.67,116.21,201.5,117.19Z" transform="translate(-1.65 -78.22)"/><path class="e" d="M211.93,113.1l-1.66,2.27.95.56a.49.49,0,0,0,.32.1.5.5,0,0,0,.3-.24l.7-1a1.57,1.57,0,0,0,.32-.63c.08-.63-.61-1-1.19-1.29" transform="translate(-1.65 -78.22)"/><path class="e" d="M182.36,96.23a13.22,13.22,0,0,0,1.18,3.1,5.72,5.72,0,0,1,2.12-.38c-.25-.85-.54-1.69-.86-2.52-.07-.16-.15-.34-.32-.4a.6.6,0,0,0-.37,0l-1.82.59" transform="translate(-1.65 -78.22)"/><path class="e" d="M213.93,88.87c0-.05,3.16-1.78,1.36-2.84-.52-.3-1.27.35-1.55.81a1.71,1.71,0,0,0,.19,2.03Z" transform="translate(-1.65 -78.22)"/></g><g class="bh"><path class="e" d="M379.19,133.06a1.62,1.62,0,0,0-.61.52,1.48,1.48,0,0,0,.15,1.33,5.26,5.26,0,0,0,1.09,1.61,2.2,2.2,0,0,0,1.79.62,3.4,3.4,0,0,0,1.17-.55l5.13-3.25a.6.6,0,0,0,.3-.31.55.55,0,0,0,0-.33c-.8-2.39-.73-3.64-3.33-2.5A51.256,51.256,0,0,0,379.19,133.06Z" transform="translate(-1.65 -78.22)"/><path class="e" d="M422.42,134l-4-2.59a2.38,2.38,0,0,0-1.57-.56,2.41,2.41,0,0,0-1.32.87l-4.22,4.41a1.61,1.61,0,0,0-.61,1.2,1.53,1.53,0,0,0,.58.89,40,40,0,0,0,7.16,5.46,13.39,13.39,0,0,0,4.27-9.26" transform="translate(-1.65 -78.22)"/><path class="e" d="M403,123.47l-2.72,2.19a.78.78,0,0,0-.36.5.73.73,0,0,0,.23.48,14.411,14.411,0,0,0,1.4,1.52.55.55,0,0,0,.81.09,3.15,3.15,0,0,0,.07-5.3" transform="translate(-1.65 -78.22)"/><path class="e" d="M415.1,124.52a2.17,2.17,0,0,0-1.52-.1,1.14,1.14,0,0,0-.75,1.22,1.38,1.38,0,0,0,.47.69,2.75,2.75,0,0,0,1.7.67.5.5,0,0,0,.3-.07.51.51,0,0,0,.14-.38,3.91,3.91,0,0,0-.39-1.87" transform="translate(-1.65 -78.22)"/><path class="e" d="M425.42,116.92a.75.75,0,0,0-.37-.13.89.89,0,0,0-.47.2c-.45.33-.94.73-.95,1.29a1.7,1.7,0,0,0,.19.68,13.359,13.359,0,0,0,.87,1.68.38.38,0,0,0,.16.17.34.34,0,0,0,.26,0C427.74,119.9,427.81,118.3,425.42,116.92Z" transform="translate(-1.65 -78.22)"/><path class="e" d="M433.38,127.57a6.711,6.711,0,0,0-2.19,0,2.28,2.28,0,0,0-1.4.64,1,1,0,0,0,0,1.41,1.58,1.58,0,0,0,1,.17l2.25-.17a3.27,3.27,0,0,0,0-1.91" transform="translate(-1.65 -78.22)"/><path class="e" d="M428.55,139.48a.14.14,0,0,0,.08.07.13.13,0,0,0,.1,0l.79-.45a.73.73,0,0,0,.29-.23c.16-.22,0-.53-.08-.78a11.47,11.47,0,0,0-1.6-2.37.6.6,0,0,0-.27-.2.65.65,0,0,0-.27,0,7.842,7.842,0,0,0-1.2.46C426.65,137.17,427.88,138.46,428.55,139.48Z" transform="translate(-1.65 -78.22)"/><path class="e" d="M392,119.14l-.54,2.75h1.37a.24.24,0,0,0,.17,0,.28.28,0,0,0,.06-.15l.36-3.34a7.88,7.88,0,0,0-1.69.59" transform="translate(-1.65 -78.22)"/><path class="e" d="M394.07,141.11a.41.41,0,0,1,.11.19.38.38,0,0,1-.13.24,3.73,3.73,0,0,1-3,1,2,2,0,0,1-1.31-.59c-.87-1-1.39-3.85.2-4.48S393.24,140.14,394.07,141.11Z" transform="translate(-1.65 -78.22)"/><path class="e" d="M404.5,137l-1.66,2.28,1,.56a.57.57,0,0,0,.31.1.49.49,0,0,0,.3-.25l.7-1a1.61,1.61,0,0,0,.32-.64c.08-.62-.61-1-1.18-1.28" transform="translate(-1.65 -78.22)"/><path class="e" d="M374.93,120.16a13.389,13.389,0,0,0,1.18,3.1,6,6,0,0,1,2.13-.39c-.26-.85-.55-1.69-.87-2.51-.07-.17-.15-.35-.32-.4a.56.56,0,0,0-.36,0l-1.83.59" transform="translate(-1.65 -78.22)"/><path class="e" d="M406.5,112.8c0-.06,3.16-1.79,1.36-2.84-.52-.31-1.27.34-1.55.81a1.73,1.73,0,0,0,.19,2.03Z" transform="translate(-1.65 -78.22)"/></g><g class="bh"><path class="e" d="M320.25,131.9a1.14,1.14,0,0,0-.45,1.84,5.22,5.22,0,0,0,1.08,1.62,2.19,2.19,0,0,0,1.79.61,3.35,3.35,0,0,0,1.18-.55l5.12-3.25a.55.55,0,0,0,.3-.3.58.58,0,0,0,0-.34c-.8-2.39-.72-3.64-3.32-2.49A62.3,62.3,0,0,0,320.25,131.9Z" transform="translate(-1.65 -78.22)"/><path class="e" d="M363.48,132.79l-4-2.6a2.48,2.48,0,0,0-1.57-.56,2.45,2.45,0,0,0-1.33.88l-4.21,4.4a1.62,1.62,0,0,0-.62,1.2,1.58,1.58,0,0,0,.58.89,40,40,0,0,0,7.16,5.46,13.39,13.39,0,0,0,4.27-9.25" transform="translate(-1.65 -78.22)"/><path class="e" d="M344,122.3l-2.72,2.19a.78.78,0,0,0-.36.5.77.77,0,0,0,.23.49,16.69,16.69,0,0,0,1.4,1.52.9.9,0,0,0,.36.22.67.67,0,0,0,.45-.14,3.15,3.15,0,0,0,.07-5.3" transform="translate(-1.65 -78.22)"/><path class="e" d="M356.16,123.35a2.11,2.11,0,0,0-1.52-.09,1.13,1.13,0,0,0-.74,1.22,1.39,1.39,0,0,0,.46.69,2.71,2.71,0,0,0,1.69.64.55.55,0,0,0,.31-.07.51.51,0,0,0,.13-.38,3.85,3.85,0,0,0-.39-1.86" transform="translate(-1.65 -78.22)"/><path class="e" d="M366.48,115.75a.78.78,0,0,0-.36-.13.84.84,0,0,0-.47.21,2.009,2.009,0,0,0-1,1.28,1.651,1.651,0,0,0,.19.68,14.826,14.826,0,0,0,.87,1.68.46.46,0,0,0,.16.18.39.39,0,0,0,.26,0C368.8,118.74,368.87,117.13,366.48,115.75Z" transform="translate(-1.65 -78.22)"/><path class="e" d="M374.44,126.4a6.44,6.44,0,0,0-2.19,0,2.23,2.23,0,0,0-1.4.64,1,1,0,0,0,0,1.4,1.48,1.48,0,0,0,1,.17l2.25-.16a3.22,3.22,0,0,0,0-1.92" transform="translate(-1.65 -78.22)"/><path class="e" d="M369.61,138.31a.14.14,0,0,0,.08.07.13.13,0,0,0,.1,0l.8-.45a.85.85,0,0,0,.28-.22.79.79,0,0,0-.08-.79,11.41,11.41,0,0,0-1.6-2.36.48.48,0,0,0-.27-.2.51.51,0,0,0-.27,0,7.872,7.872,0,0,0-1.2.47C367.71,136,368.94,137.29,369.61,138.31Z" transform="translate(-1.65 -78.22)"/><path class="e" d="M333,118l-.54,2.75h1.37a.2.2,0,0,0,.18,0,.33.33,0,0,0,.05-.15l.36-3.34a9.152,9.152,0,0,0-1.69.59" transform="translate(-1.65 -78.22)"/><path class="e" d="M335.14,140a.39.39,0,0,1,.1.19.32.32,0,0,1-.13.23,3.73,3.73,0,0,1-3,1,2,2,0,0,1-1.31-.59c-.86-1-1.39-3.84.2-4.48S334.3,139,335.14,140Z" transform="translate(-1.65 -78.22)"/><path class="e" d="M345.56,135.86l-1.66,2.27,1,.56a.45.45,0,0,0,.31.1.56.56,0,0,0,.31-.24l.69-1a1.44,1.44,0,0,0,.32-.64c.08-.62-.61-1-1.18-1.28" transform="translate(-1.65 -78.22)"/><path class="e" d="M316,119a13.19,13.19,0,0,0,1.17,3.1,5.73,5.73,0,0,1,2.13-.38q-.39-1.27-.87-2.52c-.06-.16-.15-.35-.32-.4a.56.56,0,0,0-.36,0l-1.83.59" transform="translate(-1.65 -78.22)"/><path class="e" d="M347.56,111.63c0-.06,3.17-1.79,1.37-2.84-.52-.3-1.28.34-1.56.81a1.73,1.73,0,0,0,.19,2.03Z" transform="translate(-1.65 -78.22)"/></g><path class="g" d="M390.09,149.65a1.42,1.42,0,0,0-.6.51,1.48,1.48,0,0,0,.15,1.33,5.06,5.06,0,0,0,1.08,1.61,2.2,2.2,0,0,0,1.79.62,3.53,3.53,0,0,0,1.18-.55l5.13-3.25a.62.62,0,0,0,.29-.31.63.63,0,0,0,0-.33c-.81-2.39-.73-3.64-3.33-2.5A59.375,59.375,0,0,0,390.09,149.65Z" transform="translate(-1.65 -78.22)"/><path class="g" d="M433.32,150.53l-4-2.59a2.48,2.48,0,0,0-1.57-.56,2.43,2.43,0,0,0-1.33.87l-4.21,4.41a1.64,1.64,0,0,0-.62,1.2,1.58,1.58,0,0,0,.58.89,40,40,0,0,0,7.16,5.46,13.39,13.39,0,0,0,4.27-9.26" transform="translate(-1.65 -78.22)"/><path class="g" d="M413.87,140.05l-2.72,2.19a.77.77,0,0,0-.35.5.71.71,0,0,0,.22.49,15.362,15.362,0,0,0,1.4,1.51.72.72,0,0,0,.36.22.66.66,0,0,0,.45-.13,3.16,3.16,0,0,0,.08-5.3" transform="translate(-1.65 -78.22)"/><path class="g" d="M426,141.1a2.11,2.11,0,0,0-1.52-.09,1.12,1.12,0,0,0-.74,1.22,1.32,1.32,0,0,0,.46.68,2.72,2.72,0,0,0,1.69.65.55.55,0,0,0,.31-.07.47.47,0,0,0,.13-.38,4,4,0,0,0-.38-1.87" transform="translate(-1.65 -78.22)"/><path class="g" d="M436.32,133.5a.69.69,0,0,0-.36-.13.83.83,0,0,0-.47.2c-.45.33-.95.73-.95,1.29a1.64,1.64,0,0,0,.18.68,16.668,16.668,0,0,0,.87,1.68.38.38,0,0,0,.16.17.34.34,0,0,0,.26,0C438.65,136.48,438.71,134.88,436.32,133.5Z" transform="translate(-1.65 -78.22)"/><path class="g" d="M444.28,144.15a6.7,6.7,0,0,0-2.19,0,2.28,2.28,0,0,0-1.4.64,1,1,0,0,0,0,1.41,1.56,1.56,0,0,0,1,.17l2.25-.16a3.3,3.3,0,0,0,0-1.92" transform="translate(-1.65 -78.22)"/><path class="g" d="M439.45,156.06a.18.18,0,0,0,.08.07.12.12,0,0,0,.1,0l.8-.45a.61.61,0,0,0,.2-1,11.47,11.47,0,0,0-1.6-2.37.6.6,0,0,0-.27-.2.65.65,0,0,0-.27.05,8.258,8.258,0,0,0-1.2.46C437.55,153.75,438.78,155,439.45,156.06Z" transform="translate(-1.65 -78.22)"/><path class="g" d="M402.86,135.72l-.53,2.75h1.36a.28.28,0,0,0,.18,0,.27.27,0,0,0,.05-.15l.36-3.34a7.88,7.88,0,0,0-1.69.59" transform="translate(-1.65 -78.22)"/><path class="g" d="M405,157.69a.47.47,0,0,1,.1.2.32.32,0,0,1-.13.23,3.73,3.73,0,0,1-3,1,2,2,0,0,1-1.31-.59c-.86-1-1.38-3.85.2-4.48S404.14,156.72,405,157.69Z" transform="translate(-1.65 -78.22)"/><path class="g" d="M415.4,153.6l-1.65,2.28.95.56a.6.6,0,0,0,.31.1.54.54,0,0,0,.31-.25l.69-.95a1.491,1.491,0,0,0,.32-.64c.08-.62-.6-1-1.18-1.28" transform="translate(-1.65 -78.22)"/><path class="g" d="M385.84,136.74a13.359,13.359,0,0,0,1.17,3.1,6,6,0,0,1,2.13-.39c-.26-.85-.54-1.69-.87-2.51a.46.46,0,0,0-.68-.36l-1.83.59" transform="translate(-1.65 -78.22)"/><path class="g" d="M417.4,129.38c0-.06,3.17-1.79,1.37-2.84-.52-.31-1.27.34-1.55.81a1.71,1.71,0,0,0,.18,2.03Z" transform="translate(-1.65 -78.22)"/><path class="g" d="M264.53,116.86a1.53,1.53,0,0,0-.61.51,1.5,1.5,0,0,0,.15,1.34,5.06,5.06,0,0,0,1.08,1.61,2.19,2.19,0,0,0,1.79.61,3.32,3.32,0,0,0,1.18-.54l5.13-3.25a.62.62,0,0,0,.29-.31.63.63,0,0,0,0-.33c-.81-2.4-.73-3.64-3.33-2.5a62.134,62.134,0,0,0-5.68,2.86Z" transform="translate(-1.65 -78.22)"/><path class="g" d="M331.6,148.93l-4-2.6a2.48,2.48,0,0,0-1.57-.56,2.51,2.51,0,0,0-1.33.88l-4.21,4.4a1.62,1.62,0,0,0-.62,1.2,1.64,1.64,0,0,0,.58.9,40.941,40.941,0,0,0,7.16,5.46,13.39,13.39,0,0,0,4.27-9.26" transform="translate(-1.65 -78.22)"/><path class="g" d="M308.9,119l-2.72,2.19a.77.77,0,0,0-.35.5.69.69,0,0,0,.22.49,15.468,15.468,0,0,0,1.4,1.52.9.9,0,0,0,.36.22.62.62,0,0,0,.45-.14,3.2,3.2,0,0,0,1.48-2.63,3.24,3.24,0,0,0-1.4-2.67" transform="translate(-1.65 -78.22)"/><path class="g" d="M326.61,110.9a2.11,2.11,0,0,0-1.52-.09,1.13,1.13,0,0,0-.74,1.22,1.28,1.28,0,0,0,.47.68,2.67,2.67,0,0,0,1.68.65.53.53,0,0,0,.31-.07.51.51,0,0,0,.14-.38,4,4,0,0,0-.39-1.87" transform="translate(-1.65 -78.22)"/><path class="g" d="M336.93,103.3a.69.69,0,0,0-.36-.13.86.86,0,0,0-.47.2c-.45.33-1,.73-1,1.29a1.81,1.81,0,0,0,.18.68,14.9,14.9,0,0,0,.88,1.68.33.33,0,0,0,.16.17.31.31,0,0,0,.25,0C339.26,106.28,339.33,104.68,336.93,103.3Z" transform="translate(-1.65 -78.22)"/><path class="g" d="M377.68,112.83a6.7,6.7,0,0,0-2.19,0,2.23,2.23,0,0,0-1.4.64,1,1,0,0,0,0,1.4,1.5,1.5,0,0,0,1,.18l2.25-.17a3.27,3.27,0,0,0,0-1.91" transform="translate(-1.65 -78.22)"/><path class="g" d="M352.73,122.72a.18.18,0,0,0,.08.07.16.16,0,0,0,.1,0l.8-.45a.91.91,0,0,0,.28-.23.79.79,0,0,0-.08-.79,11.409,11.409,0,0,0-1.6-2.36.48.48,0,0,0-.27-.2.51.51,0,0,0-.27,0,7.872,7.872,0,0,0-1.2.47C350.83,120.42,352.06,121.7,352.73,122.72Z" transform="translate(-1.65 -78.22)"/><path class="g" d="M303.47,105.52l-.53,2.75h1.37a.24.24,0,0,0,.17,0,.21.21,0,0,0,0-.15l.37-3.34a8.561,8.561,0,0,0-1.7.59" transform="translate(-1.65 -78.22)"/><path class="g" d="M307.84,150.84a.27.27,0,0,1,.1.19.29.29,0,0,1-.13.23,3.71,3.71,0,0,1-3,1,2,2,0,0,1-1.31-.59c-.86-1-1.38-3.84.2-4.48S307,149.86,307.84,150.84Z" transform="translate(-1.65 -78.22)"/><path class="g" d="M270.11,135.63l-1.66,2.27,1,.56a.38.38,0,0,0,.61-.14l.7-1a1.51,1.51,0,0,0,.32-.63c.08-.62-.61-1-1.18-1.28" transform="translate(-1.65 -78.22)"/><path class="g" d="M286.45,106.54a13.391,13.391,0,0,0,1.18,3.1,5.9,5.9,0,0,1,2.12-.39c-.25-.85-.54-1.69-.87-2.51-.06-.17-.14-.35-.31-.4a.6.6,0,0,0-.37,0l-1.82.59" transform="translate(-1.65 -78.22)"/><path class="g" d="M318,99.18c0-.06,3.16-1.79,1.36-2.84-.52-.31-1.27.34-1.55.81a1.7,1.7,0,0,0,.19,2.03Z" transform="translate(-1.65 -78.22)"/><path class="g" d="M115.72,127.67a1.59,1.59,0,0,0-.61.51,1.52,1.52,0,0,0,.16,1.33,5.11,5.11,0,0,0,1.08,1.62,2.19,2.19,0,0,0,1.79.61,3.32,3.32,0,0,0,1.18-.54l5.12-3.25a.6.6,0,0,0,.3-.31.54.54,0,0,0,0-.33c-.8-2.4-.73-3.64-3.33-2.5A58.153,58.153,0,0,0,115.72,127.67Z" transform="translate(-1.65 -78.22)"/><path class="g" d="M182.79,159.73l-4-2.59a1.81,1.81,0,0,0-2.89.32l-4.22,4.4a1.64,1.64,0,0,0-.61,1.2,1.57,1.57,0,0,0,.57.89,40.421,40.421,0,0,0,7.17,5.46,13.39,13.39,0,0,0,4.27-9.25" transform="translate(-1.65 -78.22)"/><path class="g" d="M160.1,129.77,157.38,132a.78.78,0,0,0-.36.5.77.77,0,0,0,.23.49,15.36,15.36,0,0,0,1.4,1.51.77.77,0,0,0,.36.23.75.75,0,0,0,.45-.14,3.15,3.15,0,0,0,.07-5.3" transform="translate(-1.65 -78.22)"/><path class="g" d="M177.81,121.71a2.16,2.16,0,0,0-1.52-.1,1.13,1.13,0,0,0-.74,1.22,1.27,1.27,0,0,0,.47.69,2.66,2.66,0,0,0,1.68.64.42.42,0,0,0,.31-.07.45.45,0,0,0,.13-.37,4,4,0,0,0-.38-1.87" transform="translate(-1.65 -78.22)"/><path class="g" d="M188.13,114.11a.69.69,0,0,0-.36-.13.83.83,0,0,0-.47.2c-.45.32-1,.73-1,1.28a1.68,1.68,0,0,0,.18.69,16.656,16.656,0,0,0,.87,1.68.38.38,0,0,0,.16.17.39.39,0,0,0,.26,0C190.46,117.09,190.52,115.49,188.13,114.11Z" transform="translate(-1.65 -78.22)"/><path class="g" d="M228.88,123.64a6.71,6.71,0,0,0-2.19,0,2.23,2.23,0,0,0-1.4.64,1,1,0,0,0,0,1.4,1.43,1.43,0,0,0,1,.17l2.25-.16a3.27,3.27,0,0,0,0-1.91" transform="translate(-1.65 -78.22)"/><path class="g" d="M203.93,133.53a.14.14,0,0,0,.08.07.13.13,0,0,0,.1,0l.79-.45a.8.8,0,0,0,.29-.22c.16-.23,0-.54-.08-.79a11.47,11.47,0,0,0-1.6-2.37.52.52,0,0,0-.27-.19.5.5,0,0,0-.27,0,7.839,7.839,0,0,0-1.2.46C202,131.22,203.26,132.51,203.93,133.53Z" transform="translate(-1.65 -78.22)"/><path class="g" d="M154.67,116.33l-.53,2.75h1.36a.28.28,0,0,0,.18,0,.27.27,0,0,0,0-.15l.36-3.34a7.88,7.88,0,0,0-1.69.59" transform="translate(-1.65 -78.22)"/><path class="g" d="M159,161.64a.5.5,0,0,1,.1.19.34.34,0,0,1-.13.24,3.73,3.73,0,0,1-3,1,2,2,0,0,1-1.31-.59c-.86-1-1.39-3.85.2-4.48S158.2,160.67,159,161.64Z" transform="translate(-1.65 -78.22)"/><path class="g" d="M121.31,146.44l-1.66,2.27.95.56a.47.47,0,0,0,.32.1.5.5,0,0,0,.3-.24l.7-1a1.43,1.43,0,0,0,.31-.63c.08-.63-.6-1-1.18-1.29" transform="translate(-1.65 -78.22)"/><path class="g" d="M137.65,117.34a13.259,13.259,0,0,0,1.17,3.11,6,6,0,0,1,2.13-.39c-.26-.85-.54-1.69-.87-2.51a.57.57,0,0,0-.32-.4.64.64,0,0,0-.36,0l-1.83.6" transform="translate(-1.65 -78.22)"/><path class="g" d="M169.21,110c0-.06,3.17-1.79,1.37-2.84-.52-.31-1.27.34-1.55.81a1.71,1.71,0,0,0,.18,2.03Z" transform="translate(-1.65 -78.22)"/><g class="bh"><path class="e" d="M114.19,122.55a.794.794,0,0,0-.68,1.15,3.65,3.65,0,0,0,.4,1.3,1.56,1.56,0,0,0,1.08.78,2.57,2.57,0,0,0,.91-.13l4.1-1.16a.4.4,0,0,0,.26-.15.37.37,0,0,0,0-.23c-.06-1.77.24-2.6-1.74-2.35a43,43,0,0,0-4.33.79Z" transform="translate(-1.65 -78.22)"/><path class="e" d="M152.9,157.65l-2.16-2.55a1.69,1.69,0,0,0-.94-.69,1.75,1.75,0,0,0-1.07.32L145,156.85c-.28.16-.59.36-.65.68a1.07,1.07,0,0,0,.21.72,27.9,27.9,0,0,0,3.72,5.12A9.39,9.39,0,0,0,153,158" transform="translate(-1.65 -78.22)"/><path class="e" d="M143.65,132.9l-2.27.93a.41.41,0,0,0-.29.64,11.179,11.179,0,0,0,.64,1.3.48.48,0,0,0,.2.22.47.47,0,0,0,.33,0,2.21,2.21,0,0,0,1.11-3.55" transform="translate(-1.65 -78.22)"/><path class="e" d="M157.2,131a1.45,1.45,0,0,0-1-.37.81.81,0,0,0-.75.67,1,1,0,0,0,.18.56,1.86,1.86,0,0,0,1,.77.33.33,0,0,0,.22,0c.09,0,.13-.13.16-.22a2.77,2.77,0,0,0,.12-1.34" transform="translate(-1.65 -78.22)"/><path class="e" d="M165.69,128a.54.54,0,0,0-.22-.16.56.56,0,0,0-.36,0c-.37.13-.78.3-.9.67a1.2,1.2,0,0,0,0,.5,9.76,9.76,0,0,0,.25,1.31.23.23,0,0,0,.07.14.27.27,0,0,0,.18,0C166.65,130.47,167,129.41,165.69,128Z" transform="translate(-1.65 -78.22)"/><path class="e" d="M191.21,142.62a4.75,4.75,0,0,0-1.47-.46,1.58,1.58,0,0,0-1.07.15.7.7,0,0,0-.26.95,1.13,1.13,0,0,0,.66.33l1.55.34a2.36,2.36,0,0,0,.39-1.29" transform="translate(-1.65 -78.22)"/><path class="e" d="M172.42,144.26a.07.07,0,0,0,0,.06h.08l.62-.14a.57.57,0,0,0,.24-.09.56.56,0,0,0,.1-.55,8,8,0,0,0-.6-1.91.34.34,0,0,0-.14-.19.4.4,0,0,0-.19,0,6.562,6.562,0,0,0-.9.07,9.15,9.15,0,0,0,.79,2.75Z" transform="translate(-1.65 -78.22)"/><path class="e" d="M142.7,122.75l-.91,1.75.91.3a.19.19,0,0,0,.13,0,.15.15,0,0,0,.06-.09l.92-2.18a6.65,6.65,0,0,0-1.26.06" transform="translate(-1.65 -78.22)"/><path class="e" d="M136.52,154.15a.27.27,0,0,1,0,.15c0,.07-.08.1-.14.13a2.62,2.62,0,0,1-2.22.1,1.39,1.39,0,0,1-.77-.66c-.38-.83-.15-2.87,1-3S136.15,153.33,136.52,154.15Z" transform="translate(-1.65 -78.22)"/><path class="e" d="M114.17,136.31l-1.58,1.2.53.57a.38.38,0,0,0,.19.13.33.33,0,0,0,.26-.1l.66-.51a1.06,1.06,0,0,0,.34-.36c.18-.4-.2-.82-.54-1.1" transform="translate(-1.65 -78.22)"/><path class="e" d="M131,120a9.6,9.6,0,0,0,.17,2.33,4.06,4.06,0,0,1,1.51.17,14.547,14.547,0,0,0-.08-1.87.44.44,0,0,0-.13-.34.38.38,0,0,0-.26,0h-1.35" transform="translate(-1.65 -78.22)"/><path class="e" d="M153.77,121.41s2.5-.56,1.5-1.64c-.29-.31-.93,0-1.21.24a1.2,1.2,0,0,0-.29,1.4Z" transform="translate(-1.65 -78.22)"/></g></g></g></svg>