<svg xmlns="http://www.w3.org/2000/svg" width="104.349" height="101.69" viewBox="0 0 104.349 101.69"><defs><style>.a{fill:#f3755f;}.b{fill:#fff;}</style></defs><g transform="translate(-484 -373.78)"><g transform="translate(484.032 374.03)"><path class="a" d="M65.763,4.129,94.956,25.537c8.174,5.839,11.288,15.959,8.174,25.69l-10.9,34.253A23.012,23.012,0,0,1,70.044,101.44H34.234c-10.12,0-18.684-6.228-22.187-15.959L1.148,51.227c-3.114-9.731,0-19.851,8.563-25.69l28.8-21.408A23.382,23.382,0,0,1,65.763,4.129Z" transform="translate(0)"/></g><path class="b" d="M47.167,42.651a3.084,3.084,0,0,0-1.624.466L34.758,34.169a6.416,6.416,0,0,0,.879-2.7l4.46-.306a3.041,3.041,0,1,0-.133-1.9l-4.46.306a6.591,6.591,0,0,0-.972-2.21l10.159-9.613a2.932,2.932,0,0,0,1.451.359,3.049,3.049,0,1,0-3.049-3.049,2.967,2.967,0,0,0,.293,1.292L33.213,25.954a6.3,6.3,0,0,0-7.9.12l-3.369-3a4.159,4.159,0,0,0,.519-2.024,4.234,4.234,0,1,0-4.234,4.234,4.158,4.158,0,0,0,2.437-.786l3.369,3a6.287,6.287,0,0,0,.146,7.057l-3.062,2.956a4.236,4.236,0,1,0,1.931,3.555,4.151,4.151,0,0,0-.6-2.17l3.062-2.956a6.3,6.3,0,0,0,8.016-.306l10.8,8.948a3.047,3.047,0,1,0,5.885,1.105A3.046,3.046,0,0,0,47.167,42.651Z" transform="translate(505.892 397.582)"/></g></svg>