<svg xmlns="http://www.w3.org/2000/svg" width="104.349" height="101.69" viewBox="0 0 104.349 101.69"><defs><style>.a{fill:#f3755f;}.b{fill:#a2bc4d;}.c{fill:#fff;}</style></defs><g transform="translate(-484 -1363.78)"><g transform="translate(484.032 1364.03)"><path class="a" d="M65.763,4.129,94.956,25.537c8.174,5.839,11.288,15.959,8.174,25.69l-10.9,34.253A23.012,23.012,0,0,1,70.044,101.44H34.234c-10.12,0-18.684-6.228-22.187-15.959L1.148,51.227c-3.114-9.731,0-19.851,8.563-25.69l28.8-21.408A23.382,23.382,0,0,1,65.763,4.129Z" transform="translate(0)"/></g><g transform="translate(484.032 1364.03)"><path class="b" d="M65.763,4.129,94.956,25.537c8.174,5.839,11.288,15.959,8.174,25.69l-10.9,34.253A23.012,23.012,0,0,1,70.044,101.44H34.234c-10.12,0-18.684-6.228-22.187-15.959L1.148,51.227c-3.114-9.731,0-19.851,8.563-25.69l28.8-21.408A23.382,23.382,0,0,1,65.763,4.129Z" transform="translate(0)"/></g><path class="c" d="M1237.68,1305.761h18.663v1.965a.985.985,0,0,1-.982.982H1237.68Zm18.663-27.5V1303.8H1237.68v-26.521h17.681A.985.985,0,0,1,1256.343,1278.258Zm-6.876,19.645a.985.985,0,0,0-.982-.982h-6.876a.982.982,0,1,0,0,1.964h6.876A.985.985,0,0,0,1249.467,1297.9Zm3.929-4.911a.985.985,0,0,0-.982-.982h-10.8a.982.982,0,1,0,0,1.964h10.8A.985.985,0,0,0,1253.4,1292.992Zm0-4.911a.985.985,0,0,0-.982-.983h-10.8a.982.982,0,0,0,0,1.965h10.8A.985.985,0,0,0,1253.4,1288.081Zm0-4.912a.985.985,0,0,0-.982-.982h-10.8a.982.982,0,0,0,0,1.965h10.8A.985.985,0,0,0,1253.4,1283.169Zm-23.574,15.225h-6.875a2.955,2.955,0,0,1-2.947-2.946V1274.82h-1.965a.985.985,0,0,0-.982.983v24.556a.985.985,0,0,0,.982.982h11.787a7.9,7.9,0,0,1,5.894,2.652A5.922,5.922,0,0,0,1229.822,1298.394Zm0-28.485h-6.875a.985.985,0,0,0-.983.982v24.557a.985.985,0,0,0,.983.982h6.875a7.826,7.826,0,0,1,5.894,2.652V1275.8A5.911,5.911,0,0,0,1229.822,1269.909Z" transform="translate(-703.324 130.178)"/><path class="c" d="M1237.68,1305.761h18.663v1.965a.985.985,0,0,1-.982.982H1237.68Zm18.663-27.5V1303.8H1237.68v-26.521h17.681A.985.985,0,0,1,1256.343,1278.258Zm-6.876,19.645a.985.985,0,0,0-.982-.982h-6.876a.982.982,0,1,0,0,1.964h6.876A.985.985,0,0,0,1249.467,1297.9Zm3.929-4.911a.985.985,0,0,0-.982-.982h-10.8a.982.982,0,1,0,0,1.964h10.8A.985.985,0,0,0,1253.4,1292.992Zm0-4.911a.985.985,0,0,0-.982-.983h-10.8a.982.982,0,0,0,0,1.965h10.8A.985.985,0,0,0,1253.4,1288.081Zm0-4.912a.985.985,0,0,0-.982-.982h-10.8a.982.982,0,0,0,0,1.965h10.8A.985.985,0,0,0,1253.4,1283.169Zm-23.574,15.225h-6.875a2.955,2.955,0,0,1-2.947-2.946V1274.82h-1.965a.985.985,0,0,0-.982.983v24.556a.985.985,0,0,0,.982.982h11.787a7.9,7.9,0,0,1,5.894,2.652A5.922,5.922,0,0,0,1229.822,1298.394Zm0-28.485h-6.875a.985.985,0,0,0-.983.982v24.557a.985.985,0,0,0,.983.982h6.875a7.826,7.826,0,0,1,5.894,2.652V1275.8A5.911,5.911,0,0,0,1229.822,1269.909Z" transform="translate(-703.324 130.178)"/></g></svg>