<svg xmlns="http://www.w3.org/2000/svg" width="104.349" height="101.69" viewBox="0 0 104.349 101.69"><defs><style>.a{fill:#f3755f;}.b{fill:#2d689b;}.c{fill:#fff;}</style></defs><g transform="translate(-484 -1532.78)"><g transform="translate(484.032 1533.03)"><path class="a" d="M65.763,4.129,94.956,25.537c8.174,5.839,11.288,15.959,8.174,25.69l-10.9,34.253A23.012,23.012,0,0,1,70.044,101.44H34.234c-10.12,0-18.684-6.228-22.187-15.959L1.148,51.227c-3.114-9.731,0-19.851,8.563-25.69l28.8-21.408A23.382,23.382,0,0,1,65.763,4.129Z" transform="translate(0)"/></g><g transform="translate(484.032 1533.03)"><path class="b" d="M65.763,4.129,94.956,25.537c8.174,5.839,11.288,15.959,8.174,25.69l-10.9,34.253A23.012,23.012,0,0,1,70.044,101.44H34.234c-10.12,0-18.684-6.228-22.187-15.959L1.148,51.227c-3.114-9.731,0-19.851,8.563-25.69l28.8-21.408A23.382,23.382,0,0,1,65.763,4.129Z" transform="translate(0)"/></g><path class="c" d="M1240.6,1473.43a1.442,1.442,0,0,1,1.441,1.442h0v8.614a1.441,1.441,0,0,1-1.441,1.441h-3.192a1.441,1.441,0,0,1-1.441-1.441h0v-8.614a1.442,1.442,0,0,1,1.441-1.442Zm3.571-3.547v13.6a1.441,1.441,0,0,0,1.441,1.441h3.2a1.441,1.441,0,0,0,1.441-1.441h0v-13.6a1.441,1.441,0,0,0-1.441-1.441h-3.192a1.441,1.441,0,0,0-1.441,1.441h0Zm9.654,15.044h3.192a1.441,1.441,0,0,0,1.441-1.441h0v-23.8a1.441,1.441,0,0,0-1.441-1.441h-3.192a1.441,1.441,0,0,0-1.441,1.441h0v23.8A1.441,1.441,0,0,0,1253.825,1484.927Zm-26.546-35.36a4.56,4.56,0,1,0-4.56-4.561A4.561,4.561,0,0,0,1227.279,1449.567Zm-7.054,13.954a3.281,3.281,0,0,0,2.134,2.713l1.892,17.366a1.5,1.5,0,0,0,1.491,1.332h3a1.5,1.5,0,0,0,1.491-1.332l.885-8.117,2.121-19.851a.2.2,0,0,1,.191-.183l10.749-.693a1.645,1.645,0,0,0,1.559-1.409,1.582,1.582,0,0,0-1.392-1.752c-.033,0-.066-.007-.1-.008l-12.117-.766-2.02-.051a.186.186,0,0,0-.146.069l-2.366,2.959a.457.457,0,0,1-.639.092.468.468,0,0,1-.091-.092l-2.362-2.977a.184.184,0,0,0-.146-.073h-1.419a3.862,3.862,0,0,0-3.864,3.86,3.811,3.811,0,0,0,.025.44Z" transform="translate(-703.324 123.178)"/><path class="c" d="M1240.6,1473.43a1.442,1.442,0,0,1,1.441,1.442h0v8.614a1.441,1.441,0,0,1-1.441,1.441h-3.192a1.441,1.441,0,0,1-1.441-1.441h0v-8.614a1.442,1.442,0,0,1,1.441-1.442Zm3.571-3.547v13.6a1.441,1.441,0,0,0,1.441,1.441h3.2a1.441,1.441,0,0,0,1.441-1.441h0v-13.6a1.441,1.441,0,0,0-1.441-1.441h-3.192a1.441,1.441,0,0,0-1.441,1.441h0Zm9.654,15.044h3.192a1.441,1.441,0,0,0,1.441-1.441h0v-23.8a1.441,1.441,0,0,0-1.441-1.441h-3.192a1.441,1.441,0,0,0-1.441,1.441h0v23.8A1.441,1.441,0,0,0,1253.825,1484.927Zm-26.546-35.36a4.56,4.56,0,1,0-4.56-4.561A4.561,4.561,0,0,0,1227.279,1449.567Zm-7.054,13.954a3.281,3.281,0,0,0,2.134,2.713l1.892,17.366a1.5,1.5,0,0,0,1.491,1.332h3a1.5,1.5,0,0,0,1.491-1.332l.885-8.117,2.121-19.851a.2.2,0,0,1,.191-.183l10.749-.693a1.645,1.645,0,0,0,1.559-1.409,1.582,1.582,0,0,0-1.392-1.752c-.033,0-.066-.007-.1-.008l-12.117-.766-2.02-.051a.186.186,0,0,0-.146.069l-2.366,2.959a.457.457,0,0,1-.639.092.468.468,0,0,1-.091-.092l-2.362-2.977a.184.184,0,0,0-.146-.073h-1.419a3.862,3.862,0,0,0-3.864,3.86,3.811,3.811,0,0,0,.025.44Z" transform="translate(-703.324 123.178)"/></g></svg>