<svg xmlns="http://www.w3.org/2000/svg" xmlns:xlink="http://www.w3.org/1999/xlink" width="373.947" height="296.757" viewBox="0 0 373.947 296.757"><defs><style>.a,.b,.e{fill:#ffbaad;}.a{opacity:0.18;}.a,.e{isolation:isolate;}.c{fill:url(#a);}.d{fill:#fff;}.e{opacity:0.59;}.f{fill:#473f47;}.g{fill:#f89659;}.h{fill:url(#b);}.i{fill:#d57439;}.j{fill:url(#c);}.k{fill:url(#d);}.l{fill:url(#e);}.m{fill:url(#f);}.n{fill:url(#g);}.o{fill:url(#h);}.p{fill:url(#i);}</style><linearGradient id="a" y1="0.5" x2="1" y2="0.5" gradientUnits="objectBoundingBox"><stop offset="0.01"/><stop offset="0.08" stop-opacity="0.69"/><stop offset="0.21" stop-opacity="0.322"/><stop offset="1" stop-opacity="0"/></linearGradient><linearGradient id="b" x1="-37.662" y1="0.386" x2="-12.5" y2="4.164" xlink:href="#a"/><linearGradient id="c" x1="-57.98" y1="-1.84" x2="-36.921" y2="29.035" xlink:href="#a"/><linearGradient id="d" x1="-49.233" y1="1.916" x2="-43.022" y2="1.331" xlink:href="#a"/><linearGradient id="e" x1="-149.835" y1="8.571" x2="-144.936" y2="15.723" xlink:href="#a"/><linearGradient id="f" x1="-125.512" y1="6.403" x2="-121.409" y2="11.917" xlink:href="#a"/><linearGradient id="g" x1="71.668" y1="5.442" x2="72.983" y2="8.793" xlink:href="#a"/><linearGradient id="h" x1="-209.344" y1="84.51" x2="-211.237" y2="85.738" gradientUnits="objectBoundingBox"><stop offset="0.01"/><stop offset="0.13" stop-opacity="0.69"/><stop offset="0.25" stop-opacity="0.322"/><stop offset="1" stop-opacity="0"/></linearGradient><linearGradient id="i" x1="-7.629" y1="60.319" x2="-2.358" y2="58.913" xlink:href="#h"/></defs><g transform="translate(0.004 0.032)"><path class="a" d="M78.221,301.849A80.62,80.62,0,0,1,41.113,285.4C28.453,275.433,14.672,262,15.1,245.328c.449-17.669,7.053-34.69,14.2-50.615,9.669-21.507,23.127-44.185,19.563-68.134s1.221-52.608,13.831-72.894c19.937-31.949,54.826-39.7,89.716-40.447,23.052-.473,46.777.9,67.785,10.392,22.08,9.968,39.874,28.41,62.3,36.958,14.953,5.632,31.3,6.754,45.929,13.084,18.417,8,32.622,23.849,41.817,41.693s13.881,37.656,17.445,57.318c5.832,33.245-8.025,74.763-27.986,101.977-13.308,18.093-35.587,39.051-58.49,34.665C184.609,287.2,207.013,322.758,78.221,301.849Z" transform="translate(-15.09 -13.19)"/><path class="b" d="M88.5,21.24l78.127,10.392-54.9,5.832Z" transform="translate(132.057 31.741)"/><path class="b" d="M97.82,31.242l4.162,24.522,6.654-20.36,44.085-9.993Z" transform="translate(145.963 37.963)"/><path class="c" d="M97.82,31.242l4.162,24.522,6.654-20.36,44.085-9.993Z" transform="translate(145.963 37.963)"/><path class="b" d="M118.782,57.857,102.16,35.4l44.085-9.993Z" transform="translate(152.439 37.963)"/><path class="d" d="M99.49,49.78l15.974-7.8-9.32-12.56Z" transform="translate(148.455 43.946)"/><path class="e" d="M99.49,49.78l15.974-7.8-9.32-12.56Z" transform="translate(148.455 43.946)"/><path class="b" d="M109.723,54.073,109,50.808a21.534,21.534,0,0,0,2.492-.648l1.146,3.115a23.222,23.222,0,0,1-2.916.8Z" transform="translate(125.039 42.022)"/><path class="b" d="M104.272,217.669c-1.819-.6-3.589-1.2-5.308-1.844l1.146-3.115c1.67.623,3.414,1.221,5.184,1.794Zm-15.7-6.205c-1.744-.847-3.439-1.72-4.984-2.492l1.57-3.015c1.52.847,3.14,1.695,4.835,2.492Zm134.574-2.044h-5.607v-3.339l5.508.15Zm11.215-.2-.174-3.315c1.869,0,3.713-.224,5.483-.4l.274,3.314c-1.744.174-3.614.3-5.532.4Zm-27.961-.773-5.557-.573.374-3.315c1.844.224,3.663.4,5.483.573Zm44.858-1.2-.573-3.265c1.819-.324,3.639-.7,5.358-1.1l.748,3.24a55.357,55.357,0,0,1-5.632,1.221Zm16.373-4.386-1.171-3.09c1.744-.673,3.414-1.371,4.984-2.118l1.445,2.991a50.381,50.381,0,0,1-5.358,2.318Zm-193.412-.449a45.852,45.852,0,0,1-4.237-3.888l2.492-2.293a42.892,42.892,0,0,0,3.938,3.614Zm208.439-7.726-2.044-2.642a29.606,29.606,0,0,0,2.492-2.143l1.421-1.4,2.318,2.367-1.545,1.47a19.777,19.777,0,0,1-2.741,2.442ZM63.351,189.01a28.834,28.834,0,0,1-1.994-5.483l3.24-.723a23.774,23.774,0,0,0,1.67,4.984Zm62.053-.8-5.358-2.193,1.346-3.04c1.67.723,3.364,1.445,4.984,2.143Zm169.014-5.956-2.716-1.919a40.228,40.228,0,0,0,2.766-4.536l2.941,1.52a43.4,43.4,0,0,1-3.115,5.034ZM110,181.31c-1.695-.822-3.364-1.67-4.984-2.492l1.5-2.766c1.62.847,3.265,1.695,4.984,2.492Zm-14.878-7.75c-1.62-.947-3.24-1.919-4.785-2.916l1.769-2.816c1.52.972,3.115,1.944,4.71,2.891Zm-30.653-.972-3.265-.623a36.931,36.931,0,0,1,1.595-5.582l3.115,1.146a33.743,33.743,0,0,0-1.4,4.934Zm236.251-6.18-3.315-.349a23.023,23.023,0,0,0,.15-2.492,22.154,22.154,0,0,0-.149-2.492l3.314-.349a28.541,28.541,0,0,1,.15,2.916q.01,1.322-.1,2.642ZM81.045,164.363c-1.52-1.121-3.04-2.243-4.486-3.389l2.044-2.617c1.42,1.121,2.891,2.218,4.386,3.314Zm-10.093-6.4-2.766-1.844c1.047-1.52,2.193-3.04,3.414-4.561l2.492,2.093C73.021,155.068,71.924,156.538,70.952,157.959Zm-2.891-4.336c-1.4-1.3-2.741-2.642-4.012-3.962l2.492-2.318c1.246,1.3,2.492,2.492,3.888,3.863Zm226.258-2.667a38.137,38.137,0,0,0-2.816-4.486l2.691-1.969a43.791,43.791,0,0,1,3.065,4.984ZM81.643,145.722l-2.268-2.492c1.346-1.246,2.766-2.492,4.237-3.738l2.118,2.492C84.31,143.28,82.939,144.5,81.643,145.722Zm-24.921-4.785c-1.146-1.545-2.243-3.115-3.215-4.685l2.816-1.769c.922,1.5,1.969,2.991,3.065,4.461Zm227.529-2.492c-1.271-1.171-2.667-2.343-4.137-3.489l2.044-2.492c1.545,1.2,2.991,2.492,4.336,3.663Zm-189.8-2.991-1.819-2.741c1.52-1.047,3.115-2.093,4.685-3.115l1.794,2.816C97.618,133.387,95.948,134.408,94.453,135.455ZM271.118,128.7c-1.52-.947-3.115-1.869-4.735-2.766l1.62-2.916c1.67.922,3.315,1.894,4.86,2.841Zm-162.61-1.844-1.57-2.916c1.62-.9,3.314-1.769,4.984-2.492l1.5,2.991a42.465,42.465,0,0,0-4.909,2.392ZM48.3,126.209c-.7-1.794-1.321-3.638-1.819-5.433l3.215-.872a48.852,48.852,0,0,0,1.695,4.984ZM256.589,121l-4.984-2.218,1.3-3.065c1.72.748,3.464,1.5,5.134,2.268Zm-133.2-1.271-1.3-3.065c1.695-.723,3.464-1.445,5.184-2.118l1.221,3.09c-1.695.573-3.464,1.3-5.109,2.019Zm117.9-4.984c-1.72-.6-3.464-1.2-5.233-1.769l1.022-3.165c1.794.573,3.589,1.2,5.308,1.794Zm-102.425-1-1.047-3.165c1.794-.573,3.589-1.146,5.383-1.67l.947,3.19C142.475,112.7,140.606,113.25,138.862,113.749Zm86.6-3.962c-1.769-.449-3.589-.9-5.358-1.3l.748-3.24c1.794.4,3.638.847,5.458,1.321ZM44.81,109.313v-5.682l3.314.15v5.383Zm109.976,0-.748-3.04c1.819-.424,3.663-.822,5.483-1.2l.648,3.265c-1.794.224-3.614.623-5.383,1.022Zm54.527-2.891-2.044-.15-3.339-.4.349-3.314,3.464.424,2.118.324Zm-38.279,0-.449-3.29c1.869-.249,3.738-.449,5.582-.623l.324,3.29c-1.819.15-3.638.473-5.458.6Zm16.423-1.3v-3.314h5.607v3.339c-1.944-.1-3.788-.075-5.607-.05ZM49.52,93.139l-3.24-.723c.4-1.869.922-3.713,1.5-5.508l3.165,1.047A49.524,49.524,0,0,0,49.52,93.139ZM55.3,78.186l-2.866-1.67a56.5,56.5,0,0,1,3.14-4.785L58.267,73.7a48.121,48.121,0,0,0-3.015,4.461Zm138.71-11.538a49.316,49.316,0,0,1-5.707-.623l.548-3.29a48.5,48.5,0,0,0,5.333.6ZM65.47,65.7l-2.243-2.492c1.4-1.246,2.866-2.492,4.411-3.638l1.994,2.667C68.186,63.358,66.765,64.5,65.47,65.7Zm111.9-2.916a51.434,51.434,0,0,1-5.159-2.492l1.595-2.916a53.6,53.6,0,0,0,4.835,2.318ZM78.8,56.43l-1.57-2.941C78.877,52.642,80.6,51.8,82.216,51l1.346,3.04C82.017,54.835,80.347,55.633,78.8,56.43Zm83.934-2.492a27.215,27.215,0,0,0-4.511-2.492l1.4-3.015a31.352,31.352,0,0,1,4.984,2.916ZM93.929,50.3l-.972-3.19c1.769-.523,3.614-1.022,5.458-1.5l.773,3.24C97.418,49.278,95.649,49.776,93.929,50.3Zm54.079-2.318c-1.695-.4-3.489-.748-5.333-1.047l.523-3.265c1.919.3,3.788.673,5.582,1.1Zm-37.93-1.2L109.6,43.5c1.844-.249,3.738-.473,5.607-.648l.3,3.315C113.567,46.462,111.748,46.462,110.078,46.786Zm21.856-.972c-1.794,0-3.638-.15-5.483-.15V42.35c1.894,0,3.788,0,5.632.15Z" transform="translate(29.261 30.368)"/><path class="b" d="M75.791,116.563,73,115.94l.822-3.24c.9.249,1.769.473,2.667.673Z" transform="translate(71.323 135.338)"/><path class="f" d="M97,64.134a10.268,10.268,0,0,1-.773,3.265,4.635,4.635,0,0,1-3.414,2.068c-1.371.224-2.766.125-4.137.249s-2.866.922-2.716,2.193a2.492,2.492,0,0,0,.473,1.072l1.67,2.816a1.421,1.421,0,0,1,.3.972c0,.474-.623.723-1.072.922a9.146,9.146,0,0,0-4.66,5.707,13.955,13.955,0,0,0,0,7.476,1.3,1.3,0,0,0,.5.872,1.445,1.445,0,0,0,.748.174,5.906,5.906,0,0,1,3.888,2.492,36.565,36.565,0,0,1,2.318,4.237,23.4,23.4,0,0,0,19.04,12.336,4.536,4.536,0,0,0,1.919-.224,3.788,3.788,0,0,0,1.695-1.72c1.72-3.14,1.221-6.9,1.346-10.342a13.283,13.283,0,0,1,.947-4.984c.4-.9.773-.947,1.346-1.47a1.994,1.994,0,0,0,.9-1.645,14.3,14.3,0,0,0-.623-2.492,6.7,6.7,0,0,1,1-4.486,43.317,43.317,0,0,0,2.318-4.037,14.653,14.653,0,0,0,.9-4.012,14.653,14.653,0,0,0-1.67-10.243,8.548,8.548,0,0,0-6.056-3.564,16.622,16.622,0,0,1-2.941-.349c-1.47-.473-1.969-1.994-3.514-2.492a7.651,7.651,0,0,0-4.162-.249A7.277,7.277,0,0,0,97,64.134Z" transform="translate(84.999 54.463)"/><path class="g" d="M96.069,128.485a11.614,11.614,0,0,1,2.318,2.766,1,1,0,0,1,.15.648c0,.349-.474.548-.847.648a7.152,7.152,0,0,1-8.074-3.514A9.969,9.969,0,0,1,87.82,123.4l.424-3.24a5.755,5.755,0,0,1,.349-1.47,4.984,4.984,0,0,1,.922-1.246,7.127,7.127,0,0,1,2.193-1.67.448.448,0,0,1,.3,0c.2,0,.3.249.349.424a5.583,5.583,0,0,1-.15,2.492,10.168,10.168,0,0,0,1.57,6.779A14.631,14.631,0,0,0,96.069,128.485Z" transform="translate(93.436 139.888)"/><path class="g" d="M94.878,117.1a1.744,1.744,0,0,0,.3.7,1.32,1.32,0,0,0,.5.4,5.183,5.183,0,0,0,2.691.349,21.118,21.118,0,0,0,3.315-.4,1.844,1.844,0,0,0,1.57-.847,1.346,1.346,0,0,0-.673-1.545,4.684,4.684,0,0,0-1.744-.5,2.791,2.791,0,0,1-1.62-.8c-.623-.773-.349-1.994-1-2.741a3.115,3.115,0,0,0-2.816-.474C93.383,111.862,94.455,115.675,94.878,117.1Z" transform="translate(102.976 132.936)"/><path class="f" d="M122.306,125.747c-.125.523-.224,1.047-.324,1.57-1.121,6.479-2.492,12.934-3.763,19.389a7.3,7.3,0,0,1-1.645,3.863,2.492,2.492,0,0,1-2.093.922h-.224c-1.047-.349-1.645-1.819-1.645-3.29l.548-26.416a1.769,1.769,0,0,0,0-.947,2.044,2.044,0,0,0-.8-.648c-.748-.4-1.47-.822-2.193-1.246-2.218-1.271-4.386-2.642-6.5-4.062-2.841-1.919-5.607-3.938-8.274-6.106a11.29,11.29,0,0,1-4.411-4.984,80.024,80.024,0,0,0-3.04-7.476,61.479,61.479,0,0,0-4.685-8.872c-.224-.324-1.072-1.969-1.545-2.043l18.118,1.994a6.23,6.23,0,0,1,4.386,1.545,60.906,60.906,0,0,1,5.383,7.327c3.763,4.984,7.476,10.143,11.314,15.2a11.015,11.015,0,0,1,2.866,6.131,41,41,0,0,1-1.47,8.149Z" transform="translate(84.32 94.603)"/><path class="f" d="M104.428,165.116a4.237,4.237,0,0,1-.872.9,7.7,7.7,0,0,1-1.695,1.121h-.174a2.841,2.841,0,0,1-2.168,0c-1.819-.773-1.271-5.233-1.371-6.978-.174-2.741-.324-5.458-.5-8.2-.3-5.333-.623-10.666-.922-16.024-.15-2.492-.324-4.984-.449-7.476l-.922-1.62-.424-.723-.5-.872-.523-.972c-.3-.5-.6-1.047-.922-1.62-.523-.972-1.022-1.994-1.545-2.991a18.542,18.542,0,0,0-1.1-1.944,4.688,4.688,0,0,0-.449-.6,30.674,30.674,0,0,0-3.215-3.015,21.457,21.457,0,0,1-6.529-12.112,19.935,19.935,0,0,1-.249-3.838,20.434,20.434,0,0,1,.947-5.881,22.429,22.429,0,0,1,1.794-3.913,10.466,10.466,0,0,1,2.243-2.941,5.656,5.656,0,0,1,1.445-.972c3.439-1.57,6.928,2.343,9.32,4.411s6.529,4.984,7.825,8.1,3.738,29.282,3.738,29.282c0,6.43,0,12.859-.374,19.264-.15,3.813-.324,7.626-.7,11.414A21.008,21.008,0,0,1,104.428,165.116Z" transform="translate(81.613 92.64)"/><path class="h" d="M101.861,166.336h-.174a2.841,2.841,0,0,1-2.168,0c-1.819-.772-1.271-5.233-1.371-6.978-.174-2.741-.324-5.458-.5-8.2-.3-5.333-.623-10.666-.922-16.024-.15-2.492-.324-4.984-.449-7.476l-.922-1.62-.424-.723-.5-.872-.523-.972c-.3-.5-.6-1.047-.922-1.62l-1.769-3.165L89.9,116.195a30.684,30.684,0,0,0-3.215-3.015,21.457,21.457,0,0,1-6.529-11.987,19.936,19.936,0,0,1-.249-3.838,20.434,20.434,0,0,1,.947-5.881,22.428,22.428,0,0,1,1.794-3.913A10.466,10.466,0,0,1,84.89,84.62a3.164,3.164,0,0,1,.523.623c1.894,2.716,1.794,6.28,1.994,9.595A35.688,35.688,0,0,0,89.9,106.9h0l.673,1.371h0a6.311,6.311,0,0,0,.3.573,104.516,104.516,0,0,1,6.9,12.859c3.913,9.968,2.492,20.884,2.991,31.45a79.069,79.069,0,0,0,.947,8.722,13.683,13.683,0,0,1,.15,4.461Z" transform="translate(81.613 93.439)"/><path class="g" d="M178.684,110.7h-3.04a9.72,9.72,0,0,1-3.04-.748c-.922-.424-1.695-1.072-2.642-1.47-1.944-.847-4.062-1.246-5.956-2.218-2.866-1.445-5.632-3.09-8.373-4.71L149,97.616a74.048,74.048,0,0,1-6.5-4.187l-1.221-.947c-.6-.5-1.346-1.047-2.093-.822a2.492,2.492,0,0,0-.8.6,8.623,8.623,0,0,0-1.595,4.037,14.953,14.953,0,0,1-1.47,3.638c-1.221,2.243-2.368,4.536-3.688,6.7a18.416,18.416,0,0,1-3.987,5.657,5.882,5.882,0,0,1-3.589.623,41.669,41.669,0,0,0-7.95-.3,26.436,26.436,0,0,1-3.688.6,9.121,9.121,0,0,1-5.308-1.844c-1.346-1.047-.748-2.492-.2-3.863,2.093-5.458,4.162-8.648,1.72-14.255.473,1.1-9.669,4.984-10.94,4.984-5.308,0-8.473-3.888-12.461-6.9a58.271,58.271,0,0,0-7.476-4.66,14.3,14.3,0,0,0-2.492-1.146c-.822-.274-1.894-.249-2.492-.822a3.812,3.812,0,0,1-.648-.773,7.676,7.676,0,0,1-.8-1.645A3.863,3.863,0,0,0,70.3,80.47a3.389,3.389,0,0,0-2.492-.374,6.331,6.331,0,0,1-1.371,0,.6.6,0,0,1-.449-.224.474.474,0,0,1,0-.573,1.67,1.67,0,0,1,.573-.249l3.414-.723c-.972-.847-2.492-.623-3.688-1.022a.922.922,0,0,1-.424-.249.573.573,0,0,1,.3-.748,1.545,1.545,0,0,1,.9,0l3.688.424c-1.1-1.346-3.439-.947-4.561-2.268a3.14,3.14,0,0,1,2.991-.274,12.835,12.835,0,0,1,4.112,1.321,10.643,10.643,0,0,1,2.143,1.645,77.827,77.827,0,0,0,7.925,7.476,26.392,26.392,0,0,0,6.33,3.015c.972.349,1.994.573,2.966.9s2.193.922,3.265,1.371a2.766,2.766,0,0,0,1.3.324,3.016,3.016,0,0,0,1.022-.4,22.554,22.554,0,0,0,5.881-5.208c1.769-2.093,3.838-3.938,5.707-5.931a7.776,7.776,0,0,1,2.642-2.019c1.894-.648,3.913.3,5.931.374a6.006,6.006,0,0,0,4.561-1.769c1.171-1.371,1.121-3.414,2.492-4.785a5.707,5.707,0,0,1,2.766-1.445,22.636,22.636,0,0,0,3.314-1.371c.847-.4,1.919-.773,2.667-.2a.822.822,0,0,1,.374.7,1.2,1.2,0,0,1-.224.673,32.8,32.8,0,0,0-1.421,3.19,6.33,6.33,0,0,0-.6,3.539c.349,1.72,2.492,2.691,3.938,3.315,2.093.9,4.411,1.047,6.5,1.894a17.2,17.2,0,0,1,5.508,4.037c2.492,2.492,4.561,4.984,6.828,7.476,1.146,1.246,2.318,2.492,3.589,3.663a37.557,37.557,0,0,0,5.333,3.14,48.048,48.048,0,0,0,6.454,3.564,24.573,24.573,0,0,0,4.984,1.62,21.7,21.7,0,0,0,2.118.5,3.051,3.051,0,0,0,1.769-.623,4.411,4.411,0,0,1,3.09-.374,15.152,15.152,0,0,1,6.156,2.941c.523.349,1.1.872,1,1.5a.4.4,0,0,1,0,.249c-.2.174-.5,0-.723-.174a3.913,3.913,0,0,0-2.667-.723c.7.548,1.445,1.221,1.371,2.093a.274.274,0,0,1,0,.2.249.249,0,0,1-.224,0c-.773,0-1.346-.723-2.068-1.072a4.56,4.56,0,0,0-2.243-.4c-.349,0-1.47,0-1.47.449a.4.4,0,0,0,0,.224,3.963,3.963,0,0,0,.723.723.872.872,0,0,1,.324.9c-.174.349-.648.4-1.047.374C180.529,111.023,179.631,110.8,178.684,110.7Z" transform="translate(60.613 67.435)"/><path class="i" d="M129.635,97.026a2.293,2.293,0,0,1-.9.324,4.536,4.536,0,0,1-2.766-1.2,63.148,63.148,0,0,0-7.925-3.29c-2.866-1.445-5.632-3.09-8.373-4.71l-6.579-3.863a74.039,74.039,0,0,1-6.5-4.187c.573.424,2.941-3.165,3.339-3.489,2.318-1.894,1.5,2.168,1.445,3.539a2.267,2.267,0,0,0,0,.822,1.869,1.869,0,0,0,.822.822q6.28,4.112,12.934,7.626c2.243,1.171,4.561,2.243,6.828,3.389,1.869.947,3.888,1.5,5.832,2.268.822.324,1.744.822,1.769,1.695a.848.848,0,0,1,.075.249Z" transform="translate(106.522 80.759)"/><path class="i" d="M89.647,70.015a4.287,4.287,0,0,1-.6,2.492c-.648.872,3.688,2.019,4.984.773a45.6,45.6,0,0,0,3.738-4.81Z" transform="translate(95.173 69.342)"/><path class="g" d="M96.14,81.2a7.476,7.476,0,0,1-4.361.324,4.984,4.984,0,0,1-3.314-2.716,7.2,7.2,0,0,1-.374-2.841,22.554,22.554,0,0,1,4.585-12.884,5.158,5.158,0,0,1,1.595-1.52,3.938,3.938,0,0,1,2.766-.249,8.473,8.473,0,0,1,4.486,2.941,22.926,22.926,0,0,1,2.841,4.61c.548,1.022,1.57,2.642,1.1,3.838a14.329,14.329,0,0,1-2.492,2.991A16.273,16.273,0,0,1,96.14,81.2Z" transform="translate(93.814 58.453)"/><path class="d" d="M108.276,107.866a6.006,6.006,0,0,1-5.557,2.791c-4.311.349-8.648-.773-12.934,0a36.844,36.844,0,0,1-3.938.723h-.374a4.685,4.685,0,0,1-3.913-1.52c-1.346-1.769-.5-4.311.374-6.38,1.62-3.713,4.66-7.975,2.916-12.112h0c-.224-.449-.523-.847-.723-1.3a6.257,6.257,0,0,1-.424-1.52l-.648-3.19c-.449-2.118-.872-4.237-1.321-6.38a2.841,2.841,0,0,1,0-1.3,2.791,2.791,0,0,1,1.121-1.346l4.511-3.589a7.7,7.7,0,0,1,3.09-1.769,12.983,12.983,0,0,1,3.663.2,19.19,19.19,0,0,0,4.735-.773h.573a.822.822,0,0,1,.249.573,4.984,4.984,0,0,0,.947,1.919,11.133,11.133,0,0,0,1.047,1.121l.474.449,2.716,2.492a7.625,7.625,0,0,0,1.969,1.5c2.492,1.121,4.261-1.869,4.137-4.087a10.193,10.193,0,0,0-1.1-3.564c1.146.449,2.293.947,3.439,1.47a24.544,24.544,0,0,0,3.24,1.62c1.744.473,3.414,0,4.984,1.1a31.35,31.35,0,0,1,5.682,4.735l-1.146,2.642c-1.52,3.19-3.29,6.629-6.529,8.025-.847.349-1.72.573-2.492.972-1.4.7-1.545,1.794-2.168,3.04-1.072,2.168-2.143,4.336-3.115,6.529A47.877,47.877,0,0,1,108.276,107.866Z" transform="translate(83.048 72.237)"/><path class="j" d="M95.756,76.377A2.068,2.068,0,0,1,96.5,75.8a1.421,1.421,0,0,1,.723,0c3.14.249,6.28.6,9.4,1.022-3.863-3.439-9.968-3.29-14.105-6.205-.573,1.072,0,2.318.3,3.489a9.769,9.769,0,0,1,0,3.19,3.04,3.04,0,0,0,2.941-.922Z" transform="translate(100.079 72.55)"/><path class="i" d="M73.04,77.682a3.115,3.115,0,0,1-2.068-.174,7.153,7.153,0,0,1-.8-1.645,3.863,3.863,0,0,0-1.022-1.819,3.414,3.414,0,0,0-2.492-.374,3.065,3.065,0,0,1,1.57-.474,1.844,1.844,0,0,0,1.5-.847.666.666,0,0,1,.249-.623,1.476,1.476,0,0,1,1-.174,10.514,10.514,0,0,1,2.044.723,3.863,3.863,0,0,1,1.271.773,1.645,1.645,0,0,1,.648,1.121,2.205,2.205,0,0,1-.773-.374,4.436,4.436,0,0,0-.9-.349,5.732,5.732,0,0,0-1.944-.174H71.1c-.025,0,0,.224.15.3.922.723,2.093,1.072,2.991,1.844a.773.773,0,0,1,.324.374.847.847,0,0,1,0,.648A1.969,1.969,0,0,1,73.04,77.682Z" transform="translate(61.863 73.912)"/><path class="b" d="M104.817,113.289a2.99,2.99,0,0,0-2.492-.2,11.11,11.11,0,0,0-1.072.822,4.536,4.536,0,0,1-3.339,0,20.114,20.114,0,0,0-3.614-.773s0,2.492.449,2.716a6.354,6.354,0,0,0,1.819.349,29.257,29.257,0,0,0,7.476,0c.7-.15,3.04-.523,3.364-1.3S105.465,113.513,104.817,113.289Z" transform="translate(103.105 135.646)"/><path class="b" d="M100.561,126.815a3.314,3.314,0,0,1,.822,1.794,1,1,0,0,1-.2.648,1.147,1.147,0,0,1-.573.224,13.433,13.433,0,0,1-4.984.15,7.2,7.2,0,0,1-4.237-2.293c-.723-.872-1.2-1.919-1.869-2.816s-1.3-1.47-1.819-2.293,0-2.293.4-3.19c.449,0,.3.872.5,1.271a12.037,12.037,0,0,0,2.841,3.863,5.682,5.682,0,0,0,4.087,1.944,1.77,1.77,0,0,0,1.445-.748c.249-.4,0-1.321.424-1.47S100.162,126.417,100.561,126.815Z" transform="translate(92.932 144.798)"/><path class="k" d="M102.211,140.151h-.224c-1.047-.349-1.645-1.819-1.645-3.29l.449-26.416a1.769,1.769,0,0,0,0-.947,2.044,2.044,0,0,0-.8-.648c-.748-.4-1.47-.822-2.193-1.246-2.218-1.271-4.386-2.642-6.5-4.062L90,93s13.133,8.7,14.5,12.784S102.211,140.151,102.211,140.151Z" transform="translate(96.689 105.943)"/><path class="f" d="M93.886,71.24a21.209,21.209,0,0,0,3.04.872c1.022.349,2.044,1.121,2.068,2.168.872,0,1.346-1,1.595-1.819a17.969,17.969,0,0,0,1-4.261,6.579,6.579,0,0,0-1-4.162c-1.421-2.019-6.679-5.807-8.349-2.268C90.97,64.511,90.82,69.645,93.886,71.24Z" transform="translate(98.759 57.177)"/><path class="b" d="M106.312,110.722c-1.844-.3-3.688-.6-5.532-.947l.6-3.265c1.819.324,3.638.648,5.458.922Z" transform="translate(112.774 126.102)"/><path class="b" d="M99.6,109.626c-1.819-.4-3.614-.822-5.433-1.271l.773-3.215,5.383,1.246Z" transform="translate(102.911 124.057)"/><path class="b" d="M93.043,108.15l-5.383-1.57.972-3.19c1.769.548,3.539,1.047,5.308,1.545Z" transform="translate(93.198 121.446)"/><path class="b" d="M86.538,106.274c-1.744-.6-3.514-1.221-5.258-1.869l1.146-3.115,5.208,1.844Z" transform="translate(83.678 118.313)"/><path class="b" d="M101.06,104.768,126.7,50.49l45.8,10.915-26.092,54.876Z" transform="translate(150.798 75.385)"/><path class="d" d="M24.07,40.465,102.82,15.32l19.688,81.392L56.592,130.455Z" transform="translate(35.921 22.907)"/><path class="b" d="M22.24,117.928,59.7,141.378,72.281,99.636,30.962,71.45Z" transform="translate(33.19 106.659)"/><path class="d" d="M101.31,138.091l7.127-46.677,54.178-3.564-11.638,45.157Z" transform="translate(151.171 131.13)"/><path class="d" d="M111.265,74.193l-4.735-1.072,3.713-7.352L115,66.842Z" transform="translate(158.959 98.184)"/><path class="b" d="M113.63,79.264l-4.76-1.047,7.6-14.978,4.76,1.047Z" transform="translate(162.451 94.409)"/><path class="d" d="M115.98,76.3l-4.76-1.072,4.635-9.121,4.735,1.072Z" transform="translate(165.957 98.691)"/><path class="b" d="M118.3,83.174,113.57,82.1,123.588,62.39l4.735,1.072Z" transform="translate(169.464 93.141)"/><path class="l" d="M113.63,79.264l-4.76-1.047,7.6-14.978,4.76,1.047Z" transform="translate(162.451 94.409)"/><path class="m" d="M118.3,83.174,113.57,82.1,123.588,62.39l4.735,1.072Z" transform="translate(169.464 93.141)"/><path class="d" d="M120.655,87,115.92,85.93l12.809-25.22,4.735,1.072Z" transform="translate(172.97 90.634)"/><path class="f" d="M61.5,56.089a14.728,14.728,0,0,1,1.371-6.28L53.6,44.7A25.37,25.37,0,0,0,50.93,56.089,25.793,25.793,0,0,0,70.393,81.01l1.894-10.542A15.127,15.127,0,0,1,61.5,56.089Z" transform="translate(38.393 33.875)"/><path class="a" d="M87.175,57.708A25.818,25.818,0,0,1,65.02,70.169a25.47,25.47,0,0,1-6.33-.8L60.584,58.83a15.4,15.4,0,0,0,4.436.648A15.1,15.1,0,0,0,77.779,52.5Z" transform="translate(49.971 45.513)"/><path class="b" d="M100.82,64.726a25.694,25.694,0,0,1-3.663,13.258l-9.4-5.109A15.127,15.127,0,1,0,61.271,58.446L52,53.337a25.793,25.793,0,0,1,48.945,11.389Z" transform="translate(39.989 25.238)"/><g transform="translate(267.15 229.268)"><path class="b" d="M124.065,125.444a1.022,1.022,0,0,1,.3-.773,3.863,3.863,0,0,0,.972-1.695,1.994,1.994,0,0,0-.822-2.168,4.21,4.21,0,0,0-1.421-.7,1.1,1.1,0,0,1-.8-1.2v-1a1.146,1.146,0,0,1,1.221-1.072,3.489,3.489,0,0,0,1.421-.324,2.043,2.043,0,0,0,1.221-2.492,7.8,7.8,0,0,0-.474-1.271,1.121,1.121,0,0,1,.349-1.4,8.718,8.718,0,0,0,.748-.6,1.271,1.271,0,0,1,1.545,0,4.113,4.113,0,0,0,1.271.872,2.069,2.069,0,0,0,2.492-.7,4.636,4.636,0,0,0,.723-1.5,1.1,1.1,0,0,1,1.246-.723h1a1.072,1.072,0,0,1,.972,1.072,4.336,4.336,0,0,0,.5,1.844,2.118,2.118,0,0,0,2.193,1,5.482,5.482,0,0,0,1.4-.5,1.146,1.146,0,0,1,1.545.374c.175.3.449.548.648.847a1.121,1.121,0,0,1-.125,1.371,4.037,4.037,0,0,0-.872,1.346,2.044,2.044,0,0,0,1,2.691,5.977,5.977,0,0,0,1.146.523,1.1,1.1,0,0,1,.8,1.1,3.493,3.493,0,0,1-.149,1.221,1.072,1.072,0,0,1-1.1.922,4.361,4.361,0,0,0-1.695.424,2.019,2.019,0,0,0-1.121,2.193,4.983,4.983,0,0,0,.474,1.47,1.1,1.1,0,0,1-.349,1.545l-.7.523a1.1,1.1,0,0,1-1.545,0,3.987,3.987,0,0,0-1.421-.872,2.068,2.068,0,0,0-2.492.8,4.385,4.385,0,0,0-.673,1.42,1.072,1.072,0,0,1-1.171.748l-1.171-.15a1.1,1.1,0,0,1-.9-1,4.261,4.261,0,0,0-.4-1.744,2.044,2.044,0,0,0-2.492-1.121,9.021,9.021,0,0,0-1.371.5,1.146,1.146,0,0,1-1.371-.249c-.249-.324-.5-.623-.723-.972a2.316,2.316,0,0,1-.249-.623Zm9.32-9.345a3.669,3.669,0,1,1-.075,0Z" transform="translate(-122.286 -99.896)"/><path class="b" d="M140.827,120.15a2.492,2.492,0,0,1,0,.424.773.773,0,0,1-.623.723l-.748.2a.847.847,0,0,1-1-.474c-.174-.3-.349-.6-.548-.872a1.6,1.6,0,0,0-2.318-.249,5.435,5.435,0,0,0-.7.623.847.847,0,0,1-1.072.174l-.6-.349a.9.9,0,0,1-.424-1.171,4.113,4.113,0,0,0,.224-1.072,1.545,1.545,0,0,0-1.371-1.645,9.237,9.237,0,0,0-1.171,0,.8.8,0,0,1-.773-.723,4.565,4.565,0,0,0-.15-.623.872.872,0,0,1,.474-1.047,4.112,4.112,0,0,0,1.022-.7,1.5,1.5,0,0,0,.224-1.969,9.675,9.675,0,0,0-.648-.773.872.872,0,0,1-.2-1.3l.3-.548a.872.872,0,0,1,1.1-.349,2.741,2.741,0,0,0,1.346.2,1.421,1.421,0,0,0,1.346-1.1,5.159,5.159,0,0,0,.125-1.246.872.872,0,0,1,.573-.9l.872-.2a.8.8,0,0,1,.972.523,2.99,2.99,0,0,0,.872,1.146,1.545,1.545,0,0,0,1.994,0,4.584,4.584,0,0,0,.623-.573.9.9,0,0,1,1.1-.224l.723.424a.822.822,0,0,1,.324,1.022,3.265,3.265,0,0,0-.224,1.271,1.57,1.57,0,0,0,1.346,1.545h1.047a.822.822,0,0,1,.9.7,4.058,4.058,0,0,0,.174.748.748.748,0,0,1-.473.922,3.189,3.189,0,0,0-1.072.748,1.47,1.47,0,0,0-.249,1.794,4.759,4.759,0,0,0,.773.947.9.9,0,0,1,.2,1.2l-.349.573a.822.822,0,0,1-1.121.374,2.667,2.667,0,0,0-1.645,0,1.545,1.545,0,0,0-1.072,1.2,4.639,4.639,0,0,0,0,.847Zm-3.09-9.57a2.741,2.741,0,1,0,2.535,1.7A2.716,2.716,0,0,0,137.737,110.58Z" transform="translate(-111.486 -105.168)"/></g><circle class="f" cx="11.788" cy="11.788" r="11.788" transform="translate(65.199 201.111)"/><path class="d" d="M46,93.079v14.4l12.685-9.146S52.828,91.958,46,93.079Z" transform="translate(31.037 105.864)"/><path class="b" d="M73.245,101.49,57.62,105.876l5.408,10.442,11.09-3.115Z" transform="translate(85.981 151.482)"/><path class="n" d="M73.245,101.49,57.62,105.876l5.408,10.442,11.09-3.115Z" transform="translate(85.981 151.482)"/><path class="b" d="M68.839,105.92a5.433,5.433,0,0,0,.249,2.667A35.312,35.312,0,0,0,73.774,119.9c3.464,4.984,8.872,8.1,14.105,11.115-.449-.374-.374-3.14-.449-3.763l-.374-3.688a12.984,12.984,0,0,0-2.218-5.408,27.737,27.737,0,0,0-9.171-9.221A26.467,26.467,0,0,0,68.839,105.92Z" transform="translate(65.017 125.221)"/><path class="o" d="M68.839,105.92a5.433,5.433,0,0,0,.249,2.667A35.312,35.312,0,0,0,73.774,119.9c3.464,4.984,8.872,8.1,14.105,11.115-.449-.374-.374-3.14-.449-3.763l-.374-3.688a12.984,12.984,0,0,0-2.218-5.408,27.737,27.737,0,0,0-9.171-9.221A26.467,26.467,0,0,0,68.839,105.92Z" transform="translate(65.017 125.221)"/><path class="b" d="M83.334,120.1a37.7,37.7,0,0,0,.274-9.968,12.834,12.834,0,0,0-4.785-8.573L74.91,115.316a26.491,26.491,0,0,0-1.42,8.1,19.538,19.538,0,0,0,7.476,13.931c1.246-1.969.972-5.508,1.246-7.825Z" transform="translate(72.055 118.716)"/><path class="p" d="M83.334,120.1a37.7,37.7,0,0,0,.274-9.968,12.834,12.834,0,0,0-4.785-8.573L74.91,115.316a26.491,26.491,0,0,0-1.42,8.1,19.538,19.538,0,0,0,7.476,13.931c1.246-1.969.972-5.508,1.246-7.825Z" transform="translate(72.055 118.716)"/><rect class="b" width="22.703" height="5.258" rx="1.06" transform="translate(139.434 254.423) rotate(-15.73)"/></g></svg>