<svg xmlns="http://www.w3.org/2000/svg" xmlns:xlink="http://www.w3.org/1999/xlink" width="332.988" height="342.886" viewBox="0 0 332.988 342.886"><defs><style>.a,.c{fill:#ffbaad;}.a{opacity:0.18;}.a,.d{isolation:isolate;}.b{fill:url(#a);}.d{opacity:0.69;fill:url(#b);}.e{fill:url(#c);}.f{fill:url(#d);}.g{fill:url(#e);}.h{fill:url(#f);}.i{fill:#fff;}.j{fill:url(#g);}.k{fill:url(#h);}.l{fill:#3f3d56;}.m{fill:url(#i);}.n{fill:url(#j);}.o{fill:url(#k);}.p{fill:none;stroke:#fff;stroke-linecap:round;stroke-miterlimit:10;stroke-width:4.13px;}.q{fill:url(#l);}.r{fill:url(#m);}</style><linearGradient id="a" y1="0.5" x2="1" y2="0.5" gradientUnits="objectBoundingBox"><stop offset="0" stop-color="#ecc4d7"/><stop offset="0.42" stop-color="#efd4d1"/><stop offset="1" stop-color="#f2eac9"/></linearGradient><linearGradient id="b" x1="0.336" y1="1.079" x2="0.534" y2="0.327" gradientUnits="objectBoundingBox"><stop offset="0.02" stop-color="#fff" stop-opacity="0"/><stop offset="0.58" stop-color="#fff" stop-opacity="0.388"/><stop offset="0.68" stop-color="#fff" stop-opacity="0.678"/><stop offset="1" stop-color="#fff"/></linearGradient><linearGradient id="c" x1="0.509" y1="0.222" x2="0.477" y2="1.498" gradientUnits="objectBoundingBox"><stop offset="0" stop-opacity="0"/><stop offset="0.99"/></linearGradient><linearGradient id="d" x1="-4.642" y1="-18.633" x2="-3.33" y2="-18.633" xlink:href="#a"/><linearGradient id="e" x1="0.516" y1="-2.766" x2="-1.737" y2="-1.55" xlink:href="#a"/><linearGradient id="f" x1="-5.478" y1="24.216" x2="-4.67" y2="24.216" xlink:href="#a"/><linearGradient id="g" x1="0" y1="0.501" x2="1" y2="0.501" xlink:href="#a"/><linearGradient id="h" x1="0.706" y1="0.441" x2="-0.606" y2="0.818" xlink:href="#c"/><linearGradient id="i" x1="0.515" y1="0.928" x2="1.123" y2="-1.976" xlink:href="#c"/><linearGradient id="j" x1="1.174" y1="0.222" x2="-2.263" y2="1.643" xlink:href="#c"/><linearGradient id="k" x1="0.909" y1="-0.916" x2="-1.283" y2="5.171" xlink:href="#c"/><linearGradient id="l" x1="1.448" y1="0.371" x2="-4.273" y2="1.099" xlink:href="#c"/><linearGradient id="m" x1="0.519" y1="0.217" x2="0.445" y2="1.511" xlink:href="#c"/></defs><g transform="translate(-0.002 0.018)"><path class="a" d="M117.219,25.254c-13.789,20.027-17.4,48.008-35.745,65.608-9.242,8.9-21.173,14.311-31.964,21.256C27.269,126.423,9.284,148.5,3.8,174.33c-4.849,22.526.9,51.113,19.036,66.771,9.331,8.037,17.273,12.352,23.992,23.511,7.271,12.079,11.153,23.149,22.217,32.237,10.684,8.8,22.775,15.789,34.718,22.746,12.465,7.253,25.084,14.578,38.921,18.662,14.418,4.262,29.643,4.844,44.678,4.9,21.487.077,44.322-1.306,61.916-13.652,15.48-10.851,22.823-27.4,31.228-43.592s18.276-30.272,28.616-45.432c9.812-14.305,19.784-29.02,23.464-45.943a68.119,68.119,0,0,0-.956-31.952c-2.327-8.66-1.579-18.264-6.274-26.022A91.8,91.8,0,0,0,299.708,109.1c-10.34-7.265-22.081-12.317-32.492-19.481s-19.808-17.214-21.927-29.679c-.8-4.7-.528-9.5-1.128-14.246-1.745-13.86-11.106-26-22.942-33.472S195.292,1.6,181.325.6C166.444-.483,151.053.93,137.567,7.4A51.328,51.328,0,0,0,117.219,25.254Z" transform="translate(-2.16 -0.29)"/><path class="b" d="M128.717,200.263c-1.353-2.1-1.686-4.677-2.529-7.034s-2.552-4.749-5.034-5.016-4.677,1.674-6.227,3.656a11.367,11.367,0,0,0-2.042,3.561,6.909,6.909,0,0,0,5.182,8.815A15.224,15.224,0,0,1,121.8,205a9.36,9.36,0,0,1,2.083,1.7,7.354,7.354,0,0,0,5.259,2.345c1.745-.119,4.007-1.894,3.5-3.864C132.16,203.355,129.732,201.836,128.717,200.263Z" transform="translate(-47.035 -76.664)"/><path class="c" d="M107.14,279.2V408.561s0,8.743,8.743,9.669,183.213,0,183.213,0,6.446.457,9.669-8.31,0-130.741,0-130.741Z" transform="translate(-44.826 -113.646)"/><path class="d" d="M107.14,279.2V408.561s0,8.743,8.743,9.669,183.213,0,183.213,0,6.446.457,9.669-8.31,0-130.741,0-130.741Z" transform="translate(-44.826 -113.646)"/><path class="c" d="M210.713,130.32,107.14,218.7l69.252,59.6a23.826,23.826,0,0,0,15.546,5.77H226.7a16.444,16.444,0,0,0,10.734-3.985L308.765,218.7Z" transform="translate(-44.826 -53.145)"/><path class="e" d="M210.713,130.32,107.14,218.7,175.4,277.467a27.3,27.3,0,0,0,17.807,6.606h31.97a20.642,20.642,0,0,0,13.453-4.989L308.765,218.7Z" transform="translate(-44.826 -53.145)"/><path class="c" d="M266.047,231.377c-.03.16-.059.326-.083.487a32.741,32.741,0,0,1-11.794,19.831c-3.4,2.7-7.491,4.855-9.551,8.678-1.294,2.374-1.626,5.17-1.888,7.889-1.543,15.884-2.2,31.412-.469,47.278l-4.749.926H217.991c-1.888,0-7.77.5-13.023.493h-.03c-4.155,0-7.96-.38-8.993-1.591a.665.665,0,0,1-.095-.131,1.189,1.189,0,0,1-.125-.2c-.047-.083-.1-.166-.148-.261s-.107-.214-.16-.326l-.053-.107c-1.389-3.146-1.264-8.6-1.585-11.664-.451-4.357-.736-8.743-1.223-13.1-1.009-8.826-3.027-17.884-8.423-24.93-.778-1.009-2.2-2.594-4.007-4.5-6.411-6.773-17.659-17.617-21.962-21.41-.694-.594-25.049-19.416-25.268-20.306-.594-2.576,6.571-6.037,7.716-8.411,8.013,4.606,39.645,27.358,47.646,31.97,3.882,2.232,7.823,4.493,12.174,5.568,9.147,2.262,18.662-.991,27.53-4.2a119.325,119.325,0,0,0,20.6-9.5c2.76-1.692,6.963-5.01,3.045-4.855-6.577.255-13.617-.237-19.036.042a1.959,1.959,0,0,1-1.62-.386,1.876,1.876,0,0,1-.309-1.395c.243-4.784-.552-4.915.944-9.468,5.781,1.425,12.691.166,18.638.237,6.369.071,9.028-.861,13.088,3.484a11.035,11.035,0,0,1,2.469,3.781A12.164,12.164,0,0,1,266.047,231.377Z" transform="translate(-55.28 -85.537)"/><path class="f" d="M252.133,263.731c1.543,2.517,1.11,4.155,3.431,5.977,1.092.861,5.734,1.781,7.55.4,2.267-1.739,2-6.7,2.042-7.04a3.318,3.318,0,0,0-.368-1.615,49.086,49.086,0,0,1-1.983-5.01,9.7,9.7,0,0,1-.232-5.342,5.122,5.122,0,0,0-3.787-1.46,8.162,8.162,0,0,0-3.674,1.454c-.849.594-3.49-3.656-4.036-2.79C250.6,249.093,252.091,261.659,252.133,263.731Z" transform="translate(-103.287 -101.052)"/><path class="g" d="M250.89,244.55s2.481,12.216,7.289,15,6.874,1.092,6.874,1.092l-3.656-9.266Z" transform="translate(-103.25 -99.571)"/><path class="h" d="M249.729,242.918a7.663,7.663,0,0,0,2.932-.19c2.374-.778,3.514-3.7,3.217-6.529a19.218,19.218,0,0,0-3.324-8.031,56.579,56.579,0,0,0-6.8-8.648,18.2,18.2,0,0,0-4.749-3.846,9.378,9.378,0,0,0-7.675-.421,10.684,10.684,0,0,0-5.4,5.111,12.269,12.269,0,0,0-1.294,7.6C228.253,238,242.3,242.318,249.729,242.918Z" transform="translate(-93.339 -87.409)"/><path class="i" d="M274.732,216.03a2.886,2.886,0,0,1-2.808-.178,5.668,5.668,0,0,1-2.713-3.193,5.033,5.033,0,0,1,.481-4.155c.594-.914,1.472-1.674,1.662-2.73,0,0,6.969-5.52,8.2-13.344s9.206-.594,9.206-.594,8.832,7.841,4.665,12.667a3.478,3.478,0,0,1-3.324,1.021c-1.781-.344-5.289-.071-10.34,4.671Z" transform="translate(-110.597 -76.909)"/><path class="j" d="M283.309,224.813a5.686,5.686,0,0,0-2.7.279,5.158,5.158,0,0,0-2.137,2.25,4.79,4.79,0,0,0-.772,2.226,5.52,5.52,0,0,0,1.1,2.938,4.256,4.256,0,0,0,1.306,1.531,4.321,4.321,0,0,0,1.876.469,4.96,4.96,0,0,0,3.14-.386,7.752,7.752,0,0,1,1.116-.766c1.122-.463,2.635.433,3.514-.4a2.374,2.374,0,0,0,.522-1.62l.22-3.449c.065-.973.493-1.994-.54-2.345A23.058,23.058,0,0,0,283.309,224.813Z" transform="translate(-114.145 -91.527)"/><path class="i" d="M287.872,236.409s6.909,7.058,8.9,7.058-2.766,6.755-5.063,5.526-6.8-9.847-6.8-9.847,1.276-2.659,1.929-2.891a.991.991,0,0,1,1.033.154Z" transform="translate(-117.076 -96.167)"/><ellipse class="c" cx="3.68" cy="8.939" rx="3.68" ry="8.939" transform="matrix(0.769, -0.639, 0.639, 0.769, 168.305, 115.106)"/><ellipse class="k" cx="3.68" cy="8.939" rx="3.68" ry="8.939" transform="matrix(0.769, -0.639, 0.639, 0.769, 168.305, 115.106)"/><path class="l" d="M237.233,206.756a10.186,10.186,0,0,1-3.514,5.455c-1,.849-2.113,1.561-3.093,2.434a6.642,6.642,0,0,0-2.184,3.205,6.363,6.363,0,0,0,.9,4.642,35.7,35.7,0,0,0,2.9,3.87,1.187,1.187,0,0,1,.35,1.062c-.148.415-.683.534-1.122.5a3.466,3.466,0,0,1-1.514-.463,2.1,2.1,0,0,0-.825-.362,1.021,1.021,0,0,0-.973.985,2.25,2.25,0,0,0,.5,1.425,6.09,6.09,0,0,0,4.476,2.511.689.689,0,0,1-.475.855,1.846,1.846,0,0,1-1.086-.071c-.92-.261-1.816-.594-2.707-.932l-3.449-1.3c-1.377-.51-2.754-1.021-4.108-1.585a7.224,7.224,0,0,1-2.814-1.745,6.91,6.91,0,0,1-1.377-3.561,7.717,7.717,0,0,1,.036-3.751c.38-1.14,1.246-2.119,1.336-3.312s-.677-2.374-1.252-3.466a5.582,5.582,0,0,1-.665-4.155,4.6,4.6,0,0,1,2.167-2.5,9.587,9.587,0,0,1,3.205-1.039,5.441,5.441,0,0,0,2.766-.968c1.7-1.5.8-4.749,2.588-6.114,1.905-1.478,4.962.392,6.737,1.371a6.268,6.268,0,0,1,3.2,7.01Z" transform="translate(-89.231 -80.581)"/><path class="c" d="M121.87,462.994l54.769-60.022a41.835,41.835,0,0,1,30.9-13.652h12.625a41.845,41.845,0,0,1,31.1,13.846l53.821,59.811Z" transform="translate(-50.812 -158.409)"/><path class="m" d="M121.87,463.007l54.52-59.749a42.678,42.678,0,0,1,31.519-13.907H219.78A42.682,42.682,0,0,1,251.5,403.474l53.572,59.532Z" transform="translate(-50.812 -158.422)"/><path class="c" d="M449.328,159.542A27.619,27.619,0,1,1,419.863,132v27.542Z" transform="translate(-161.449 -53.828)"/><path class="c" d="M472.015,154.077H442.55V126.505c.594-.047,1.223-.065,1.84-.065A27.625,27.625,0,0,1,472.015,154.077Z" transform="translate(-181.145 -51.568)"/><path class="n" d="M472.015,154.077H442.55V126.505c.594-.047,1.223-.065,1.84-.065A27.625,27.625,0,0,1,472.015,154.077Z" transform="translate(-181.145 -51.568)"/><rect class="c" width="46.34" height="32.528" rx="12.79" transform="translate(286.65 151.752)"/><path class="o" d="M509.02,271.7v14.424l15.961-8.132Z" transform="translate(-206.878 -110.433)"/><path class="c" d="M520.08,189.17l-.463,7.022-6.328,3.68,6.9,3.455.695,7.592,6.327-7.016,7.022.689-3.342-5.182,1.27-7.479-6.559,2.647Z" transform="translate(-208.614 -76.891)"/><path class="c" d="M128.24,106.96l-.457,7.022-6.333,3.68,6.909,3.455.689,7.592,6.327-7.016,7.022.689-3.336-5.176,1.264-7.485-6.559,2.647Z" transform="translate(-49.36 -43.479)"/><rect class="c" width="6.446" height="20.716" transform="translate(7.07 101.802)"/><rect class="c" width="6.446" height="12.465" transform="translate(16.158 110.053)"/><rect class="c" width="6.446" height="17.053" transform="translate(25.251 105.465)"/><line class="p" x1="3.686" y2="6.672" transform="translate(180.845 99.505)"/><line class="p" x1="6.79" y2="4.832" transform="translate(185.451 105.72)"/><line class="p" x1="8.518" y2="2.303" transform="translate(188.787 114.232)"/><path class="q" d="M240.756,349.021a43.793,43.793,0,0,1-4.689.8h-.03c-3.354.374-7.515.374-8.993-1.591a.666.666,0,0,1-.095-.131,1.188,1.188,0,0,1-.125-.2c-.048-.083-.1-.166-.148-.261s-.107-.214-.16-.326l-.053-.107c-1.389-3.146-1.264-8.6-1.585-11.664-.451-4.357-.736-8.743-1.223-13.1-1.009-8.826-3.027-17.884-8.423-24.93-.778-1.009-4.048-4.749-5.853-6.63l2.535,1.074s19.944,8.589,21.784,16.573S240.756,349.021,240.756,349.021Z" transform="translate(-86.379 -118.401)"/><path class="r" d="M341.193,244.231A32.742,32.742,0,0,1,329.4,264.062c-3.4,2.7-7.491,4.855-9.551,8.678-1.294,2.374-1.626,5.17-1.888,7.889,0,0,.647-12.981,5.253-17.279s16.62-17.071,17.528-22.9A22.877,22.877,0,0,1,341.193,244.231Z" transform="translate(-130.509 -97.905)"/></g></svg>