<svg xmlns="http://www.w3.org/2000/svg" xmlns:xlink="http://www.w3.org/1999/xlink" width="526.787" height="369.198" viewBox="0 0 526.787 369.198"><defs><style>.a,.b{fill:#ffbaad;}.a{opacity:0.18;}.a,.i,.j,.k{isolation:isolate;}.c{fill:url(#a);}.d{fill:#473f47;}.e,.j,.k{fill:#fff;}.f{fill:url(#b);}.g{fill:#fca89e;}.h{fill:url(#c);}.j{font-size:13px;}.j,.k{font-family:Arial-BoldMT, Arial;font-weight:700;}.k{font-size:12px;letter-spacing:-0.1em;}.l{fill:url(#d);}.m{fill:url(#e);}.n{fill:url(#f);}.o{fill:url(#g);}.p{fill:url(#h);}.q{fill:url(#i);}.r{fill:url(#j);}</style><linearGradient id="a" x1="-42.393" y1="-0.558" x2="-42.286" y2="-2.837" gradientUnits="objectBoundingBox"><stop offset="0.01"/><stop offset="0.08" stop-opacity="0.69"/><stop offset="0.21" stop-opacity="0.322"/><stop offset="1" stop-opacity="0"/></linearGradient><linearGradient id="b" x1="1.24" y1="-0.283" x2="-0.841" y2="4.219" xlink:href="#a"/><linearGradient id="c" x1="0.719" y1="15.199" x2="0.152" y2="9.799" xlink:href="#a"/><linearGradient id="d" x1="1.207" y1="23.996" x2="4.316" y2="23.222" xlink:href="#a"/><linearGradient id="e" x1="6.074" y1="11.644" x2="6.88" y2="20.307" xlink:href="#a"/><linearGradient id="f" x1="6.746" y1="30.049" x2="6.087" y2="35.146" gradientUnits="objectBoundingBox"><stop offset="0.01" stop-color="#fff"/><stop offset="1" stop-color="#fff" stop-opacity="0"/></linearGradient><linearGradient id="g" x1="11.45" y1="25.914" x2="12.264" y2="35.224" xlink:href="#a"/><linearGradient id="h" x1="12.057" y1="150.179" x2="13.205" y2="133.444" xlink:href="#a"/><linearGradient id="i" x1="23.363" y1="29.35" x2="23.875" y2="27.357" xlink:href="#a"/><linearGradient id="j" x1="20.726" y1="18.859" x2="26.76" y2="18.713" xlink:href="#a"/></defs><g transform="translate(-0.004)"><path class="a" d="M246.463,61.8c-4.116,1.906-8.174,3.986-12.13,6.238C187.89,94.479,155.4,144.084,104.566,160.561,90.819,165.023,76.031,166.236,64.911,176A119.744,119.744,0,0,0,44.16,200.938a163.7,163.7,0,0,0-23.683,62.876c-6.946,43.323,2.773,92.1,37.243,121.78,25.994,22.311,64.479,23.452,96.927,17.416,18.6-3.451,36.449-10.2,54.875-14.614a227.546,227.546,0,0,1,98.2-1.747c21.43,4.332,42.124,11.784,63.54,16.376,15.408,3.307,31.423,5.141,47.135,3.1,15.076-1.95,26.7-9.141,40.435-14.946,26.138-11.076,52.565-25.2,69.23-49.012a97.549,97.549,0,0,0,16.723-63.742,107.527,107.527,0,0,0-26.167-60.753c-6.643-7.61-15.307-14.354-18.528-24.059s-3.755-21.012-4.751-30.976c-2.209-21.806-4.823-44.261-15.466-63.424-11.842-21.329-32.8-36.579-55.626-45.171S376.734,43,352.344,42.709C316.126,42.275,279.07,46.723,246.463,61.8Z" transform="translate(-18.37 -37.784)"/><path class="b" d="M144.19,245.2H254.215L234.749,175.23h-74.14Z" transform="translate(64.032 77.818)"/><path class="c" d="M144.19,245.2H254.215L234.749,175.23h-74.14Z" transform="translate(64.032 77.818)"/><path class="b" d="M414.6,91.071V271.582a19.741,19.741,0,0,1-19.741,19.741H109.726A19.741,19.741,0,0,1,90,271.582h0V91.071A19.741,19.741,0,0,1,109.741,71.33H394.848A19.741,19.741,0,0,1,414.6,91.071Z" transform="translate(13.439 -25.061)"/><path class="d" d="M414.6,91.075v158.3H90V91.075A19.755,19.755,0,0,1,109.741,71.32H394.848A19.784,19.784,0,0,1,414.6,91.075Z" transform="translate(13.439 -25.066)"/><path class="e" d="M408.212,93.477V242.723H93.4V93.477A19.048,19.048,0,0,1,112.563,74.53H389.049A19.048,19.048,0,0,1,408.212,93.477Z" transform="translate(14.949 -23.64)"/><path class="a" d="M408.212,93.477V242.723H93.4V93.477A19.048,19.048,0,0,1,112.563,74.53H389.049A19.048,19.048,0,0,1,408.212,93.477Z" transform="translate(14.949 -23.64)"/><path class="f" d="M129.725,177.289c-3.09-12.159-7.856-23.9-10.3-36.218s-2.455-24.911-2.325-37.445a37.445,37.445,0,0,1,1.531-12.13c1.372-3.856,4.332-7.408,8.26-8.448l5.7,37.33c1.112,7.322,2.253,14.73,5,21.661s7.22,13.315,13.719,16.939a258.9,258.9,0,0,1-4.332-32.319c-.433-5.935-.144-13,4.751-16.333,4.332-3.018,10.73-1.444,14.441,2.354s5.415,9.083,6.5,14.268c1.56,7.466,2.209,15.278,5.56,22.123,1.141,2.354,4.145,4.794,5.979,2.888a4.693,4.693,0,0,0,.708-1.112l20.145-39.814c1.848-3.668,3.61-8.39.982-11.553-1.993-2.383-5.531-2.57-8.665-2.614a245.493,245.493,0,0,1-59.208-8.231c13.5-6.628,28.882-7.885,43.973-8.376,12.4-.4,25.4-.231,36.377,5.589a4.332,4.332,0,0,1,1.531,1.141,4.548,4.548,0,0,1,.736,2.311,77.822,77.822,0,0,1-7.509,44.146c-4.477,8.982-10.672,17.026-15.423,25.878-13.083,24.318-14.556,53.316-11.553,80.768-12.289-1.329-20.217,1.993-32.579.65-3.163-.347-8.231-1.054-11.379-.563-1.863.3-11.163,1.141-13-.087,0,0,4-17.791,4.217-21.315A136.033,136.033,0,0,0,129.725,177.289Z" transform="translate(25.456 -21.154)"/><path class="e" d="M162.58,152.4c-1.141,0,2.383-7.437,2.585-7.769a81.736,81.736,0,0,1,8.881-11.87c2.888-3.336,5.776-6.773,8.939-9.849,2.888-2.888,6.6-6.686,11.148-5.776,3.422.722,5.473,4.549,5.329,8.058s-1.95,6.686-3.841,9.647c-3.8,5.935-7.87,11.553-12,17.329Z" transform="translate(45.57 -4.782)"/><path class="e" d="M153.716,156.9c1.1.245-.823-7.784-.939-8.145a82.212,82.212,0,0,0-6.253-13.43c-2.166-3.885-4.231-7.813-6.729-11.553-2.3-3.379-5.1-7.9-9.733-7.914-3.495,0-6.3,3.321-6.874,6.773s.534,6.961,1.776,10.239c2.5,6.6,5.329,13,8.2,19.394Z" transform="translate(28.108 -5.286)"/><path class="e" d="M141.867,133.151H186.4A11.553,11.553,0,0,1,198.258,144.4v.52s-8.491,34.658-8.665,46.3c0,6.368,2.007,25.416,2.007,25.416H136.61s2.542-19.9,2.484-26.571c-.087-11.365-9.083-45.142-9.083-45.142a11.553,11.553,0,0,1,11.336-11.769Z" transform="translate(31.206 2.391)"/><path class="g" d="M199.9,90.675a7.654,7.654,0,0,0,.231-3.827,5.993,5.993,0,0,0-2.051-2.888,10.614,10.614,0,0,0-8.665-2.426,4.246,4.246,0,0,0-1.776.722,5.517,5.517,0,0,0-1.2,1.444c-1.56,2.441-3.163,5.386-2.152,8.1a42.8,42.8,0,0,0,2.368,3.8c.462.881.693,1.863,1.126,2.758,1.112,2.253,5.386,5.271,8,3.6,1.3-.823,1.791-3.625,2.267-4.982C198.714,94.95,199.349,92.827,199.9,90.675Z" transform="translate(55.171 -20.594)"/><path class="g" d="M118.216,88a7.48,7.48,0,0,1-.231-3.827,5.993,5.993,0,0,1,2.051-2.888,10.614,10.614,0,0,1,8.665-2.426,4.246,4.246,0,0,1,1.776.722,5.517,5.517,0,0,1,1.2,1.444c1.545,2.441,3.163,5.372,2.152,8.1a42.8,42.8,0,0,1-2.368,3.8c-.462.881-.693,1.863-1.126,2.758-1.112,2.253-5.386,5.271-8.015,3.6-1.285-.823-1.776-3.625-2.253-4.982C119.386,92.27,118.751,90.147,118.216,88Z" transform="translate(25.801 -21.784)"/><path class="g" d="M161.894,144.311a5.083,5.083,0,0,1-5.531,4.433c-5.459-.26-5.863-4.433-5.863-4.433V122.65h11.394Z" transform="translate(40.306 -2.271)"/><path class="h" d="M150.5,130.948s7.134,11.12,11.394,5.776V128.06Z" transform="translate(40.306 0.132)"/><path class="g" d="M148.9,135.93c2.888,8.838,17.04,9.1,21.791,2.079,2.758-4.072,3.09-9.372,2.224-14.21a49.431,49.431,0,0,0-4.332-13.762c-1.444-2.744-2.888-5.184-6.253-5.574a19.827,19.827,0,0,0-10.874,2.426,15.481,15.481,0,0,0-7.466,18.123,29.532,29.532,0,0,0,2.152,4.953A39.162,39.162,0,0,1,148.9,135.93Z" transform="translate(37.116 -10.366)"/><path class="d" d="M174.12,112.6a12.029,12.029,0,0,1-2.628,3.928,15.337,15.337,0,0,1-8.462,4.1c-4.636.736-9.343-.087-14.022-.462a4.072,4.072,0,0,1-2.758,3.293,69.631,69.631,0,0,0,2.816,9.6c1.155,3.061,2.8,5.906,4.043,8.9-3.856-2.657-6.816-7.22-9.632-10.874a21.112,21.112,0,0,1-3.538-5.863,7.221,7.221,0,0,1,.635-6.585,28.8,28.8,0,0,1,2.3-3.264,6.643,6.643,0,0,0,2.542-3.885c.173-1.632-.751-3.206-.881-4.852a1.011,1.011,0,0,1,.116-.679,1.126,1.126,0,0,1,.534-.318l3.336-1.242a8.534,8.534,0,0,0-1.17-1.935,12.549,12.549,0,0,1,6.368-1.444,12.52,12.52,0,0,0-1.747-2.888,5.488,5.488,0,0,1,4.636.26c1.56.607,3.061,1.357,4.563,2.094a20.548,20.548,0,0,0,.072-3.769,8.13,8.13,0,0,1,5.545,1.6,17.489,17.489,0,0,1,4.332,3.437,9.517,9.517,0,0,1,1.964,3.466c.4,1.444,1.141,2.628,1.444,4.029A5.776,5.776,0,0,1,174.12,112.6Z" transform="translate(35.387 -13.799)"/><path class="g" d="M145.909,122.331a3.783,3.783,0,0,0-2.484,1.574,2.888,2.888,0,0,0-.13,2.137,6.123,6.123,0,0,0,1.083,1.877,4.246,4.246,0,0,0,.881.881,3.625,3.625,0,0,0,1.892.477,13.8,13.8,0,0,0,1.545,0,1.7,1.7,0,0,0,.751-.188,1.444,1.444,0,0,0,.52-.736,5.227,5.227,0,0,0,0-3.321,5.979,5.979,0,0,0-1.444-2.715C147.873,121.667,146.789,122.085,145.909,122.331Z" transform="translate(37.042 -2.572)"/><path class="e" d="M178.55,127.306a16.968,16.968,0,0,0-1.2,7.48,8.563,8.563,0,0,0,15.394,3.885,17.329,17.329,0,0,0,2.5-7.09q3.379-17.762,6.123-35.611c-2.108-.563-8.665-3.538-10.441-2.354s-3.509,8.665-4.332,10.86c-1.444,3.827-2.888,7.654-4.188,11.553C181.106,119.58,180.326,123.955,178.55,127.306Z" transform="translate(52.214 -15.287)"/><path class="e" d="M122.383,128.791a16.809,16.809,0,0,0,1.993,7.307,8.563,8.563,0,0,0,15.611-2.8,16.9,16.9,0,0,0-.65-7.495q-4.231-17.575-9.083-34.961c-2.152.347-9.285.3-10.484,2.152s.347,9.271.491,11.7q.39,6.108.939,12.2C121.531,120.689,122.614,124.993,122.383,128.791Z" transform="translate(26.458 -16.397)"/><rect class="b" width="95.469" height="61.605" transform="translate(151.801 9.762)"/><g class="i" transform="translate(158.545 23.871)"><text class="j" transform="translate(21.156 12)"><tspan x="0" y="0">NEW</tspan></text><text class="j" transform="translate(0 28.477)"><tspan x="0" y="0">CAM</tspan></text><text class="k" transform="translate(34.326 27.477)"><tspan x="0" y="0">P</tspan></text><text class="j" transform="translate(43.077 28.477)"><tspan x="0" y="0">AIGN</tspan></text></g><circle class="b" cx="9.286" cy="9.286" r="9.286" transform="translate(239.097 0)"/><circle class="l" cx="9.286" cy="9.286" r="9.286" transform="translate(239.097 0)"/><rect class="b" width="48.435" height="3.365" rx="1.16" transform="translate(269.827 164.915)"/><rect class="b" width="48.435" height="3.365" rx="1.16" transform="translate(326.522 164.915)"/><rect class="b" width="76.465" height="3.365" rx="1.16" transform="translate(269.827 172.497)"/><rect class="b" width="48.435" height="3.365" rx="1.16" transform="translate(269.827 180.064)"/><rect class="b" width="48.435" height="3.365" rx="1.16" transform="translate(326.522 180.064)"/><path class="b" d="M259.194,139.978c-18.441-.592-33.214-6.686-32.983-13.589,0-.477.188-6.325.332-6.787,0,0,.751.2.751.188,2.123-6.166,15.582-5.386,32.709-4.838,15.047.491,28.261-.231,32.275,5.025.91,1.184.751,7.307.708,8.578C292.755,135.4,277.635,140.584,259.194,139.978Z" transform="translate(73.928 -5.851)"/><path class="m" d="M259.194,140.009c-18.441-.592-33.214-6.686-32.983-13.589,0-.477.26-7.047.26-7.047,2.123-6.166,16.4-4.939,33.532-4.332,15.047.491,28.882,1.791,32.925,7.047,0,0,.1,5.285,0,6.556C292.755,135.431,277.635,140.616,259.194,140.009Z" transform="translate(73.928 -5.882)"/><path class="b" d="M259.046,135.71c-18.427-.592-32.9-6.556-32.665-13.473v-1.357c2.123-6.166,16.318-10.744,33.46-10.2,15.033.491,27.625,4.636,31.64,9.892a5.776,5.776,0,0,1,1.329,3.711C292.607,131.233,277.473,136.36,259.046,135.71Z" transform="translate(74.003 -7.604)"/><path class="n" d="M291.509,120.607l-30.586.722-34.543.809a5.775,5.775,0,0,1,0-1.227h0c1.617-4.693,10.109-8.549,21.762-9.791a85.536,85.536,0,0,1,11.7-.4C274.945,111.148,287.494,115.351,291.509,120.607Z" transform="translate(73.989 -7.593)"/><path class="o" d="M243.394,130.484l17.531-12.434-34.543.809S224.65,125.8,243.394,130.484Z" transform="translate(73.987 -4.313)"/><path class="b" d="M261.56,119.239l-34.86.809a8.189,8.189,0,0,1,.26-1.444h0c1.617-4.679,10.282-8.332,21.835-9.6Z" transform="translate(74.146 -8.332)"/><path class="b" d="M242.4,79.63l.794-2.83-34.86.809Z" transform="translate(92.516 34.106)"/><path class="p" d="M242.534,79.63l.794-2.83-34.86.809-.448,1.6Z" transform="translate(92.378 34.106)"/><path class="q" d="M219.78,91.771l.809-2.9L237.831,77.46l-.52,1.877Z" transform="translate(97.601 34.399)"/><path class="b" d="M261.424,116.75l-35.034,1.444s3.6,7.365,17.791,9.95Z" transform="translate(74.008 -4.891)"/><path class="b" d="M244.243,127.71,241.89,136.2s-14.441-3.639-15.64-10.34l.2-8.1S230.64,126.93,244.243,127.71Z" transform="translate(73.946 -4.442)"/><path class="r" d="M244.243,127.71,241.89,136.2s-14.441-3.639-15.64-10.34l.2-8.1S230.64,126.93,244.243,127.71Z" transform="translate(73.946 -4.442)"/><path class="b" d="M226.634,81.284l-4.9-15.105L204.02,60.142l.159-.462,17.95,6.123.029.116L227.1,81.139Z" transform="translate(90.602 26.503)"/><path class="b" d="M221.635,101.267a2.083,2.083,0,1,1,.881-4.072h.231a2.083,2.083,0,0,1-.881,4.072Zm1-3.538a1.6,1.6,0,1,0,1.112,1.978h0a1.6,1.6,0,0,0-1.112-1.921Z" transform="translate(71.167 -13.596)"/><path class="b" d="M234.968,76.272l-.318-.361L246.824,65.34l.116.029,18.412,4-.1.477-18.3-3.986Z" transform="translate(104.205 29.017)"/><path class="b" d="M275.37,110.258a2.083,2.083,0,1,1,1.112-4.015,2.108,2.108,0,0,1,1.444,2.57h0a2.079,2.079,0,0,1-2.556,1.444Zm.982-3.552a1.6,1.6,0,1,0,1.112,1.95A1.6,1.6,0,0,0,276.352,106.706Z" transform="translate(95.082 -9.59)"/><path class="b" d="M283.2,141.844a2.137,2.137,0,1,1,2.628-1.675c0,.072,0,.159,0,.231a2.079,2.079,0,0,1-2.628,1.444Zm.982-3.538a1.6,1.6,0,1,0,1.112,1.978h0a1.6,1.6,0,0,0-1.1-1.964Z" transform="translate(98.52 4.384)"/><path class="b" d="M273.321,106.3,255.6,101.364l-.058-.043-14.354-16.2.361-.318,14.311,16.145,17.589,4.9Z" transform="translate(107.109 37.659)"/><path class="b" d="M208.885,123.385a2.065,2.065,0,1,1,1.588-.182,2.08,2.08,0,0,1-1.588.182Zm1-3.552a1.6,1.6,0,1,0,1.112,1.978,1.6,1.6,0,0,0-1.112-1.978Z" transform="translate(65.563 -3.756)"/><path class="b" d="M209.353,87.506,191.62,82.567l.13-.462,17.6,4.9,20.593-6.441.144.462Z" transform="translate(85.095 35.776)"/><path class="b" d="M290.988,136.57H304.88a2.888,2.888,0,0,1,2.888,2.888h0a2.888,2.888,0,0,1-2.888,2.888H290.988a2.888,2.888,0,0,1-2.888-2.888h0A2.888,2.888,0,0,1,290.988,136.57Z" transform="translate(101.413 3.911)"/><path class="b" d="M282.311,104.53H296.16a2.888,2.888,0,0,1,2.888,2.888h0a2.888,2.888,0,0,1-2.888,2.888H282.268a2.888,2.888,0,0,1-2.888-2.888h0a2.888,2.888,0,0,1,2.931-2.888Z" transform="translate(97.541 -10.318)"/><path class="b" d="M216.488,91.29H230.38a2.888,2.888,0,0,1,2.888,2.888h0a2.888,2.888,0,0,1-2.888,2.888H216.488a2.888,2.888,0,0,1-2.888-2.888h0A2.888,2.888,0,0,1,216.488,91.29Z" transform="translate(68.328 -16.197)"/><path class="b" d="M199.168,124.64H213.06a2.888,2.888,0,0,1,2.888,2.888h0a2.888,2.888,0,0,1-2.888,2.888H199.168a2.888,2.888,0,0,1-2.888-2.888h0A2.888,2.888,0,0,1,199.168,124.64Z" transform="translate(60.637 -1.387)"/></g></svg>