<svg xmlns="http://www.w3.org/2000/svg" xmlns:xlink="http://www.w3.org/1999/xlink" width="329.665" height="361.899" viewBox="0 0 329.665 361.899"><defs><style>.a,.b,.d{fill:#ffbaad;}.a{opacity:0.41;}.b{opacity:0.66;}.c{fill:url(#a);}.e{fill:url(#b);}.f{fill:#fff;}.g{fill:url(#c);}.h{fill:url(#d);}.i{fill:url(#e);}.j{fill:url(#f);}.k{fill:url(#g);}.l{fill:url(#h);}.m{fill:url(#i);}.n{fill:url(#j);}.o{fill:url(#k);}.p{fill:url(#l);}.q{fill:url(#m);}.r{fill:url(#n);}.s{fill:url(#o);}.t{fill:url(#p);}.u{fill:url(#s);}.v{fill:url(#t);}.w{fill:url(#u);}.x{fill:url(#w);}.y{fill:url(#x);}.z{fill:url(#y);}.aa{fill:#b7a451;}.ab{fill:url(#z);}.ac{fill:url(#aa);}.ad{fill:url(#ab);}.ae{fill:url(#ac);}.af{fill:url(#ad);}.ag{fill:url(#ae);}.ah{fill:url(#af);}.ai{fill:url(#ag);}</style><linearGradient id="a" x1="0.519" y1="-1.255" x2="0.486" y2="1.575" gradientUnits="objectBoundingBox"><stop offset="0.01"/><stop offset="0.13" stop-opacity="0.69"/><stop offset="1" stop-opacity="0"/></linearGradient><linearGradient id="b" x1="0.263" y1="0.506" x2="1.743" y2="0.471" xlink:href="#a"/><linearGradient id="c" x1="0.528" y1="1.477" x2="0.468" y2="-0.617" xlink:href="#a"/><linearGradient id="d" x1="0.456" y1="-0.427" x2="0.6" y2="2.609" xlink:href="#a"/><linearGradient id="e" x1="0.524" y1="-0.253" x2="0.482" y2="1.941" xlink:href="#a"/><linearGradient id="f" x1="0.524" y1="-0.253" x2="0.482" y2="1.938" xlink:href="#a"/><linearGradient id="g" x1="0.548" y1="-0.36" x2="0.427" y2="1.831" xlink:href="#a"/><linearGradient id="h" x1="0.548" y1="-0.36" x2="0.426" y2="1.831" xlink:href="#a"/><linearGradient id="i" x1="0.345" y1="-3.281" x2="0.712" y2="4.473" gradientUnits="objectBoundingBox"><stop offset="0.02" stop-color="#fff" stop-opacity="0"/><stop offset="0.32" stop-color="#fff" stop-opacity="0.388"/><stop offset="0.68" stop-color="#fff" stop-opacity="0.678"/><stop offset="1" stop-color="#fff"/></linearGradient><linearGradient id="j" x1="0.358" y1="-3.031" x2="0.725" y2="4.724" xlink:href="#a"/><linearGradient id="k" x1="0.321" y1="-3.729" x2="0.688" y2="3.944" xlink:href="#i"/><linearGradient id="l" x1="0.298" y1="-3.588" x2="0.715" y2="3.824" xlink:href="#a"/><linearGradient id="m" x1="0.365" y1="-2.782" x2="0.732" y2="4.974" xlink:href="#i"/><linearGradient id="n" x1="0.334" y1="-3.532" x2="0.701" y2="4.223" xlink:href="#a"/><linearGradient id="o" x1="0.38" y1="-2.531" x2="0.747" y2="5.224" xlink:href="#a"/><linearGradient id="p" x1="0" y1="0.5" x2="1" y2="0.5" xlink:href="#i"/><linearGradient id="s" x1="1.56" y1="0.928" x2="-0.323" y2="0.167" xlink:href="#a"/><linearGradient id="t" x1="0.455" y1="-1.653" x2="0.552" y2="3.027" xlink:href="#a"/><linearGradient id="u" x1="0" y1="0.5" x2="1" y2="0.5" xlink:href="#i"/><linearGradient id="w" y1="0.504" x2="1" y2="0.504" gradientUnits="objectBoundingBox"><stop offset="0" stop-color="#e5c5d5"/><stop offset="0.42" stop-color="#ead4d1"/><stop offset="1" stop-color="#f0e9cb"/></linearGradient><linearGradient id="x" x1="0.388" y1="-0.105" x2="0.811" y2="2.417" gradientUnits="objectBoundingBox"><stop offset="0" stop-opacity="0"/><stop offset="0.99"/></linearGradient><linearGradient id="y" x1="31.421" y1="-16.87" x2="32.531" y2="-16.87" xlink:href="#w"/><linearGradient id="z" x1="0" y1="0.497" x2="1" y2="0.497" xlink:href="#w"/><linearGradient id="aa" x1="0.463" y1="-0.495" x2="0.584" y2="2.788" xlink:href="#a"/><linearGradient id="ab" x1="1.048" y1="0.367" x2="-0.705" y2="0.793" xlink:href="#a"/><linearGradient id="ac" x1="0.995" y1="0.288" x2="-0.588" y2="0.967" xlink:href="#a"/><linearGradient id="ad" x1="0.744" y1="-0.125" x2="-0.032" y2="1.862" xlink:href="#a"/><linearGradient id="ae" x1="0.744" y1="-0.125" x2="-0.032" y2="1.862" xlink:href="#a"/><linearGradient id="af" x1="0.744" y1="-0.124" x2="-0.032" y2="1.862" xlink:href="#a"/><linearGradient id="ag" x1="0.744" y1="-0.125" x2="-0.032" y2="1.861" xlink:href="#a"/></defs><g transform="translate(-0.03 0.001)"><path class="a" d="M362.583,287.99c-1.209,6.179-2.76,12.4-5.92,17.842a14.532,14.532,0,0,1-.952,1.484V307.1l-312.621-.845v1.333c-.952-24.772-6.663-49.271-6.729-74.071a161.412,161.412,0,0,1,5.616-42.435c3.531-13.034,8.776-25.767,16.895-36.622,22.158-29.645,61.116-40.688,92.668-60.371,33.57-20.931,45.249-67.92,82.141-82.41,19.445-7.663,42.194-6.235,60.944,2.949S328.1,40.451,335.694,59.7c9.727,24.687,7.986,52.07,11.1,78.372,3.921,33.242,15.7,65.169,18.551,98.448A185.609,185.609,0,0,1,362.583,287.99Z" transform="translate(-36.33 -6.73)"/><path class="b" d="M357.728,326.508v.361c-20.705,37.663-69.292,59.356-91.939,59.889l-158.265,1.2c-36.062,0-64.173-27.056-64.173-59.45V325.7Z" transform="translate(-37.312 -26.063)"/><path class="c" d="M86.108,340.059c-1.667.636-3.7,2.14-2.888,3.73a3.137,3.137,0,0,0,1.5,1.229c16.983,8.956,36.872,10.073,56.047,11.019l74.775,3.653c11.887.576,24.315,1.057,35.11-3.936a70.9,70.9,0,0,0,11.646-7.3q7.735-5.569,15.3-11.285c1.263-.945,2.578-2.046,2.862-3.6.284-1.788-1.1-3.507-2.768-4.22a12.514,12.514,0,0,0-5.363-.6q-24.779.86-49.575.7a260.773,260.773,0,0,1-31.414-1.564c-16.949-2.157-33.107-4.469-50.211-2.321C122.378,327.906,103.676,333.312,86.108,340.059Z" transform="translate(-42.889 -25.923)"/><rect class="d" width="131.346" height="228.837" rx="18.54" transform="translate(126.664 49.558)"/><rect class="e" width="131.346" height="228.837" rx="18.54" transform="translate(126.664 49.558)"/><rect class="d" width="131.346" height="228.837" rx="18.54" transform="translate(116.919 49.558)"/><path class="f" d="M273.588,93.164V261.545a12.66,12.66,0,0,1-12.652,12.66h-85.6a12.652,12.652,0,0,1-12.652-12.66V93.164A10.426,10.426,0,0,1,173.1,82.73h90.057A10.443,10.443,0,0,1,273.588,93.164Z" transform="translate(-35.493 -5.922)"/><path class="d" d="M277.4,225.71v55.926a12.66,12.66,0,0,1-12.652,12.66H189.83V225.71Z" transform="translate(-37.821 -19.589)"/><path class="g" d="M277.394,225.71v55.926a12.669,12.669,0,0,1-12.643,12.66H189.83V225.71Z" transform="translate(-37.821 -19.589)"/><path class="h" d="M277.839,263.24v23.67a12.6,12.6,0,0,1-3.49,8.724H193V263.24Z" transform="translate(-38.114 -24.291)"/><path class="d" d="M120.468,76.064,93.73,104.659H212.45l23.825-29Z" transform="translate(3.433 -5.24)"/><path class="i" d="M135.131,76l-23.954,28.535,101.488.1H93.73l.722-.679,9.566-8.964,17.671-19Z" transform="translate(1.24 -5.269)"/><path class="j" d="M176.058,75.52l-23.79,28.947,101.488.1H134.82l.722-.679,22.63-27.968Z" transform="translate(1.784 -5.229)"/><path class="k" d="M215.678,75.52l-23.79,28.947-17.447.1.722-.679,22.63-27.968Z" transform="translate(-5.816 -5.229)"/><path class="l" d="M253.038,75.52l-23.79,28.947-17.447.1.722-.679,22.63-27.968Z" transform="translate(-7.062 -5.229)"/><path class="d" d="M191.12,116.12h17.026a8.595,8.595,0,0,1-17.026,0Z" transform="translate(-42.921 -14.817)"/><path class="d" d="M171,116.12h17.026a8.595,8.595,0,0,1-17.026,0Z" transform="translate(-42.064 -14.817)"/><path class="d" d="M248.335,116a8.595,8.595,0,0,1-17.035.095h16.932Z" transform="translate(-44.632 -14.807)"/><path class="d" d="M265.919,116c-.413,4.3-3.575,7.624-7.409,7.624s-6.953-3.292-7.4-7.529h14.749Z" transform="translate(-45.641 -14.804)"/><path class="d" d="M151,116.12h17.026a8.595,8.595,0,0,1-17.026,0Z" transform="translate(-41.213 -14.817)"/><path class="d" d="M211.207,116.12h17.009a8.595,8.595,0,0,1-17.026,0Z" transform="translate(-43.776 -14.817)"/><path class="d" d="M130.86,116.12h17.026a8.595,8.595,0,0,1-17.026,0Z" transform="translate(-40.355 -14.817)"/><path class="m" d="M191.12,116.12h17.026a8.595,8.595,0,0,1-17.026,0Z" transform="translate(-42.921 -14.817)"/><path class="n" d="M171,116.12h17.026a8.595,8.595,0,0,1-17.026,0Z" transform="translate(-42.064 -14.817)"/><path class="o" d="M248.325,116.12a8.595,8.595,0,0,1-17.035.095h16.94Z" transform="translate(-44.632 -14.816)"/><path class="p" d="M265.867,116.06c-.4,4.3-3.558,7.632-7.383,7.632s-6.927-3.3-7.374-7.529h14.7Z" transform="translate(-45.645 -14.808)"/><path class="q" d="M151,116.12h17.026a8.595,8.595,0,0,1-17.026,0Z" transform="translate(-41.213 -14.817)"/><path class="r" d="M211.207,116.12h17.009a8.595,8.595,0,0,1-17.026,0Z" transform="translate(-43.776 -14.817)"/><path class="s" d="M130.86,116.12h17.026a8.595,8.595,0,0,1-17.026,0Z" transform="translate(-40.355 -14.817)"/><path class="t" d="M114.33,104.7,137.863,76.2l17.43-.215L131.6,104.7Z" transform="translate(-3.825 -5.268)"/><path class="t" d="M154.61,104.671,178.143,76.18l16.365-.37-22.63,28.861Z" transform="translate(-5.241 -5.253)"/><path class="t" d="M194.89,104.671,218.414,76.18l16.373-.37-22.639,28.861Z" transform="translate(-6.606 -5.253)"/><path class="d" d="M231.88,104.682l22.828-4.521,1.238-24.641Z" transform="translate(-9.291 -5.227)"/><path class="u" d="M232.1,104.4l22.828-4.521,1.246-24.641Z" transform="translate(-9.299 -5.208)"/><rect class="v" width="28.019" height="9.729" rx="4.865" transform="translate(161.939 282.604)"/><circle class="d" cx="22.596" cy="22.596" r="22.596" transform="translate(88.69 127.298)"/><circle class="w" cx="22.596" cy="22.596" r="22.596" transform="translate(84.168 127.298)"/><circle class="d" cx="20.009" cy="20.009" r="20.009" transform="translate(62.25 182.021)"/><circle class="t" cx="20.009" cy="20.009" r="20.009" transform="translate(58.25 182.021)"/><path class="d" d="M233.331,196.016c-2.8,3.008-4.426,6.876-6.016,10.692l-4.478,10.847a1.942,1.942,0,0,0-.146,1.65,1.874,1.874,0,0,0,1.418.713,68.475,68.475,0,0,0,6.876.688q17.439,1.083,34.938.8a9.454,9.454,0,0,0,4.091-.7c3.214-1.624,3.438-6.094,2.9-9.643a51.154,51.154,0,0,0-3.438-12.033,13.579,13.579,0,0,0-2.492-4.168c-2.664-2.793-6.876-3.24-10.752-3.352C248.87,191.331,238.849,190.077,233.331,196.016Z" transform="translate(-41.786 -19.46)"/><path class="d" d="M223.915,193.681a1.624,1.624,0,0,0-1.719-1.324,18.82,18.82,0,0,0-3.034.112,2.914,2.914,0,0,0-1.771.662,2.879,2.879,0,0,0-.645,1.538c-.816,4.426.129,8.964.49,13.451.249,3.06.275,6.309,1.925,8.887a8.148,8.148,0,0,0,6.876,3.687,3.019,3.019,0,0,0,2.9-1.478,3.592,3.592,0,0,0,.146-1.659C228.488,209.5,227.327,201.089,223.915,193.681Z" transform="translate(-44.267 -19.612)"/><path class="x" d="M222.48,187.7c.541-1.169,1.281-2.235,1.925-3.352a2.312,2.312,0,0,0,.352-.928.859.859,0,0,0-.447-.859c-.645-.249-1.16.645-1.831.782s-1.152-.4-1.59-.859A21.152,21.152,0,0,0,214.238,178a1.109,1.109,0,0,0-.859-.12c-.266.12-.344.593-.069.679a1.229,1.229,0,0,1-.756-.189c-.241-.1-.593-.112-.7.129s.215.593.129.859a2.4,2.4,0,0,1-.859-.137c-.292-.052-.679,0-.731.335a.86.86,0,0,0,0,.335,7.865,7.865,0,0,1,0,1.349,5.87,5.87,0,0,0,1.435,3.232,48.989,48.989,0,0,1,4.3,6.291,7.985,7.985,0,0,0,1.212,1.994c.7.756,3.318,1.831,4.005.516.327-.619.06-1.977.18-2.7a11.578,11.578,0,0,1,.963-2.879Z" transform="translate(-43.9 -19.074)"/><path class="y" d="M260.8,209.394a3.885,3.885,0,0,1-.456,3.266,4.323,4.323,0,0,1-3.232,1.152c-5.733.3-11.586-.688-17.19.619a3.438,3.438,0,0,0-2.1,1.083,3.833,3.833,0,0,0-.387,2.793l.481,4.1-5.587-1.014a1.573,1.573,0,0,1-.593-.206,1.444,1.444,0,0,1-.438-.971,27.263,27.263,0,0,1-.593-6.506,9.162,9.162,0,0,1,2.441-5.922,11.4,11.4,0,0,1,4.985-2.578,67.546,67.546,0,0,1,13.3-1.96c1.934-.155,5.157-.584,6.816.731C259.63,205.1,260.455,207.752,260.8,209.394Z" transform="translate(-43.664 -20.753)"/><path class="z" d="M238.186,173.184a14.7,14.7,0,0,0,.146,4.211,7.907,7.907,0,0,0,4.753,5.441c1.719.679,3.756.859,4.933,2.26s1.117,3.266,2.329,4.435a3.713,3.713,0,0,0,4.529.18,6.412,6.412,0,0,0,2.467-4.1,26.515,26.515,0,0,0,.284-4.89,45.935,45.935,0,0,1,.541-6.515,31.119,31.119,0,0,0,.541-4.547A14.318,14.318,0,0,0,257.7,164.5c-1.453-3.825-4.444-7.271-8.406-8.285a8.767,8.767,0,0,0-9.592,3.954c-1,1.607-.9,3.24-1.023,5.157Q238.444,169.239,238.186,173.184Z" transform="translate(-44.667 -16.874)"/><path class="aa" d="M236.278,150.358c-.713-.292-1.676-.559-2.132.06a1.5,1.5,0,0,0-.215.859,4.71,4.71,0,0,0,1.031,3,2.931,2.931,0,0,0-1.985.593c-.8.791-.4,2.183.3,3.051a12.057,12.057,0,0,1,2.1,2.578c.223.541.275,1.143.49,1.719a1.556,1.556,0,0,0,1.246,1.1c.774,0,1.263-.774,1.719-1.418a8.028,8.028,0,0,1,10.855-1.968c3.318,2.355,4.237,6.8,4.9,10.812.335.241.533-.4.662-.791.292-.859,1.633-.782,2.114-.052a2.372,2.372,0,0,1-.189,2.475c-.464.739-1.143,1.324-1.65,2.037a.691.691,0,0,0,.086,1.083,14.056,14.056,0,0,0,1.306,1.152,1.65,1.65,0,0,0,1.289.481,1.538,1.538,0,0,0,.808-.559c1.719-1.925,2.389-4.6,2.759-7.168s.344-5.466-1.65-7.013c-.4-.3-.859-.524-1.22-.859a7.88,7.88,0,0,1-1.564-2.2,18.565,18.565,0,0,0-9.377-7.873,9.686,9.686,0,0,0-5.673-.791A8.982,8.982,0,0,1,236.278,150.358Z" transform="translate(-43.798 -16.718)"/><path class="ab" d="M224.836,222.894c-.3.378-.576.954-.241,1.3a1.074,1.074,0,0,0,.816.18l10.262-.61a1.366,1.366,0,0,0,.49-.086c.516-.232.55-.928.516-1.5l-.181-2.647c-.06-.954.138-1.246-.791-1.375a11.405,11.405,0,0,0-4.117.576A13.245,13.245,0,0,0,224.836,222.894Z" transform="translate(-44.649 -22.41)"/><rect class="ac" width="84.874" height="25.166" transform="translate(154.849 206.951)"/><path class="f" d="M124.495,174.423H102.81l3.679-19.613h14.86Z" transform="translate(-4.208 -11.048)"/><path class="f" d="M156.24,162.659h-9.3V161.8a4.65,4.65,0,1,1,9.3,0Zm-7.529-1.676h5.724a2.982,2.982,0,0,0-5.724,0Z" transform="translate(-41.33 -17.909)"/><rect class="d" width="16.27" height="17.671" transform="translate(156.552 214.324)"/><rect class="ad" width="16.27" height="17.671" transform="translate(156.552 214.324)"/><rect class="ae" width="16.27" height="10.013" transform="translate(179.954 222.208)"/><rect class="d" width="16.27" height="17.671" transform="translate(153.977 214.324)"/><rect class="d" width="12.643" height="9.205" transform="translate(180.093 223.252)"/><rect class="d" width="16.27" height="17.671" transform="translate(156.15 252.91)"/><rect class="d" width="12.643" height="9.205" transform="translate(179.692 261.764)"/><circle class="af" cx="5.724" cy="5.724" r="5.724" transform="translate(204.574 220.944)"/><circle class="d" cx="5.724" cy="5.724" r="5.724" transform="translate(202.233 220.944)"/><circle class="ag" cx="5.724" cy="5.724" r="5.724" transform="translate(198.774 259.642)"/><circle class="d" cx="5.724" cy="5.724" r="5.724" transform="translate(196.424 259.642)"/><circle class="ah" cx="7.632" cy="7.632" r="7.632" transform="translate(222.887 217.016)"/><circle class="d" cx="7.632" cy="7.632" r="7.632" transform="translate(219.759 217.016)"/><circle class="ai" cx="7.632" cy="7.632" r="7.632" transform="translate(214.841 255.46)"/><circle class="d" cx="7.632" cy="7.632" r="7.632" transform="translate(211.712 255.46)"/><path class="f" d="M119.612,219.711c0,4.246-2.226,6.343-4.83,6.343s-4.667-2.011-4.7-6.016,2.2-6.283,4.856-6.283C117.747,213.711,119.612,215.877,119.612,219.711Zm-7.366.189c-.06,2.578.9,4.521,2.578,4.521s2.578-1.925,2.578-4.581c0-2.45-.713-4.486-2.578-4.486C113.148,215.353,112.246,217.4,112.246,219.9Zm2.355,14.611,11.818-20.791h1.719L116.328,234.5Zm18.1-6.463c0,4.237-2.235,6.343-4.8,6.343s-4.676-2.011-4.7-6.016,2.192-6.309,4.856-6.309c2.811-.026,4.641,2.132,4.641,5.973Zm-7.366.18c0,2.578.963,4.521,2.63,4.521,1.8,0,2.578-1.917,2.578-4.581,0-2.441-.713-4.486-2.578-4.486-1.7-.009-2.63,2-2.63,4.538Z" transform="translate(-39.323 -21.449)"/></g></svg>