<svg xmlns="http://www.w3.org/2000/svg" xmlns:xlink="http://www.w3.org/1999/xlink" width="529.106" height="457.419" viewBox="0 0 529.106 457.419"><defs><style>.a,.b{fill:#ffbaad;}.a{opacity:0.24;isolation:isolate;}.c{fill:url(#a);}.d{fill:url(#b);}.e{fill:url(#c);}.f{fill:url(#d);}.g{fill:url(#e);}.h{fill:url(#f);}.i{fill:url(#g);}.j{fill:url(#h);}.k{fill:url(#i);}.l{fill:#f3a984;}.m{fill:url(#j);}.n{fill:url(#k);}.o{fill:url(#l);}.p{fill:url(#m);}.q{fill:url(#n);}.r{fill:url(#o);}.s{fill:url(#p);}.t{fill:url(#q);}.u{fill:url(#r);}.v{fill:url(#s);}.w{fill:url(#t);}.x{fill:url(#u);}.y{fill:url(#v);}.z{fill:url(#w);}.aa{fill:url(#x);}.ab{fill:url(#y);}</style><linearGradient id="a" x1="0.494" y1="0.319" x2="0.556" y2="2.243" gradientUnits="objectBoundingBox"><stop offset="0" stop-color="#010101" stop-opacity="0"/><stop offset="0.95" stop-color="#010101"/></linearGradient><linearGradient id="b" x1="0.606" y1="-0.464" x2="0.332" y2="1.349" gradientUnits="objectBoundingBox"><stop offset="0" stop-color="#fff" stop-opacity="0"/><stop offset="0.66" stop-color="#fff"/></linearGradient><linearGradient id="c" x1="0.572" y1="0.201" x2="0.267" y2="1.781" xlink:href="#a"/><linearGradient id="d" x1="0.37" y1="0.059" x2="0.972" y2="2.105" xlink:href="#a"/><linearGradient id="e" x1="0.371" y1="0.16" x2="1.632" y2="3.369" xlink:href="#a"/><linearGradient id="f" x1="0.639" y1="0.15" x2="-0.101" y2="2.006" xlink:href="#a"/><linearGradient id="g" x1="0.593" y1="-0.021" x2="0.209" y2="2.6" xlink:href="#a"/><linearGradient id="h" x1="-0.105" y1="1.018" x2="3.046" y2="-1.157" xlink:href="#a"/><linearGradient id="i" x1="0.4" y1="0.077" x2="0.882" y2="1.799" xlink:href="#a"/><linearGradient id="j" x1="0.172" y1="0.124" x2="1.188" y2="1.216" xlink:href="#a"/><linearGradient id="k" x1="0.382" y1="-0.187" x2="1.7" y2="3.686" xlink:href="#a"/><linearGradient id="l" x1="-11.291" y1="8.686" x2="-11.6" y2="10.787" xlink:href="#b"/><linearGradient id="m" x1="-67.032" y1="17.366" x2="80.778" y2="70.227" xlink:href="#b"/><linearGradient id="n" x1="-68.094" y1="16.634" x2="79.717" y2="69.495" xlink:href="#b"/><linearGradient id="o" x1="-69.155" y1="15.902" x2="78.653" y2="68.765" xlink:href="#b"/><linearGradient id="p" x1="-70.217" y1="15.171" x2="77.591" y2="68.033" xlink:href="#b"/><linearGradient id="q" x1="-71.281" y1="14.438" x2="76.53" y2="67.3" xlink:href="#b"/><linearGradient id="r" x1="-72.342" y1="13.707" x2="75.468" y2="66.568" xlink:href="#b"/><linearGradient id="s" x1="-73.404" y1="12.976" x2="74.404" y2="65.836" xlink:href="#b"/><linearGradient id="t" x1="-74.466" y1="12.244" x2="73.342" y2="65.105" xlink:href="#b"/><linearGradient id="u" x1="-75.53" y1="11.512" x2="72.281" y2="64.373" xlink:href="#b"/><linearGradient id="v" x1="-1.654" y1="0.363" x2="-1.471" y2="2.124" xlink:href="#a"/><linearGradient id="w" x1="-0.132" y1="-0.492" x2="-0.264" y2="3.222" xlink:href="#b"/><linearGradient id="x" x1="-0.105" y1="-0.487" x2="-0.237" y2="3.228" xlink:href="#b"/><linearGradient id="y" x1="-0.077" y1="-0.481" x2="-0.21" y2="3.234" xlink:href="#b"/></defs><g transform="translate(0.002 -0.016)"><path class="a" d="M218.74,445.11c46.39-7.81,93.47,4.12,140.07,10.58S456.76,461.93,494.6,434c44.52-32.88,57-94.24,55.83-149.58-1.31-64.06-18.07-131-62.89-176.81-23.9-24.42-54.24-41.36-84.24-57.7C365.79,29.45,326.35,8.9,283.66,7.5A142.18,142.18,0,0,0,182.8,45.61c-21.27,20-35.71,46.06-53.45,69.27C96.59,157.74,51.43,192.63,31.5,242.75,13.36,288.36,20,343,48.59,382.89s78.13,63.82,127.14,61.36" transform="translate(-21.4 -7.43)"/><path class="b" d="M175.72,402.87,441,438.82a18.42,18.42,0,0,0,20.63-15.14l20.43-118.75a18.44,18.44,0,0,0-15.54-21.37l-241-34.67a18.42,18.42,0,0,0-19.85,11.68L161,378.05a18.43,18.43,0,0,0,14.72,24.82Z" transform="translate(-21.4 -7.43)"/><path class="c" d="M175.72,402.87,441,438.82a18.42,18.42,0,0,0,20.63-15.14l20.43-118.75a18.44,18.44,0,0,0-15.54-21.37l-241-34.67a18.42,18.42,0,0,0-19.85,11.68L161,378.05a18.43,18.43,0,0,0,14.72,24.82Z" transform="translate(-21.4 -7.43)"/><path class="b" d="M225.15,240l246.66,35.4A15.35,15.35,0,0,0,489.1,263L520.36,91.62a15.36,15.36,0,0,0-13.28-18L235.85,41a15.36,15.36,0,0,0-17.18,14.64L212,224.22A15.36,15.36,0,0,0,225.15,240Z" transform="translate(-21.4 -7.43)"/><path class="b" d="M233.13,239.5,463,272.5a14.31,14.31,0,0,0,16.12-11.6l29.13-159.71A14.31,14.31,0,0,0,495.88,84.4L243.1,54a14.32,14.32,0,0,0-16,13.65l-6.23,157.08a14.32,14.32,0,0,0,12.26,14.77Z" transform="translate(-21.4 -7.43)"/><path class="d" d="M233.13,239.5,463,272.5a14.31,14.31,0,0,0,16.12-11.6l29.13-159.71A14.31,14.31,0,0,0,495.88,84.4L243.1,54a14.32,14.32,0,0,0-16,13.65l-6.23,157.08a14.32,14.32,0,0,0,12.26,14.77Z" transform="translate(-21.4 -7.43)"/><path class="b" d="M269.97,117.23l10.61-9.62,17.51,2.95-4.44,19.74-30.59-4.44Z"/><path class="e" d="M269.97,117.23l10.61-9.62,17.51,2.95-4.44,19.74-30.59-4.44Z"/><path class="b" d="M290.53,118.13l18.01.74,1.72,13.57-27.88-3.7Z"/><path class="f" d="M290.53,118.13l18.01.74,1.72,13.57-27.88-3.7Z"/><path class="b" d="M303.52,111.8l-9.87,18.5,27.39,2.72-.49-19.99Z"/><path class="g" d="M303.52,111.8l-9.87,18.5,27.39,2.72-.49-19.99Z"/><path class="b" d="M242.99,124.05,242,103.99l31.91.32,2.31,24.68Z"/><path class="h" d="M242.99,124.05,242,103.99l31.91.32,2.31,24.68Z"/><path class="b" d="M177.2,391.52l265.31,36a18.42,18.42,0,0,0,20.63-15.14l20.43-118.75A18.42,18.42,0,0,0,468,272.22L227,237.54a18.42,18.42,0,0,0-19.85,11.68L162.45,366.7a18.43,18.43,0,0,0,14.75,24.82Z" transform="translate(-21.4 -7.43)"/><path class="i" d="M428.55,377.22,211.36,349.1c-13.05-1.91-21-14.14-17.69-27.31l20.18-49.44c3.28-13.17,16.52-22.3,29.58-20.38l203.76,29.88c13.05,1.91,21,14.14,17.69,27.31l-6.75,47.68C454.85,370,441.6,379.14,428.55,377.22Z" transform="translate(-21.4 -7.43)"/><path class="j" d="M260.71,391.64c-1.06,3.94-2.22,8.05-5,11-5.66,5.89-15.22,4.71-23.23,3.09-1.92-.39-3.94-.82-5.42-2.11a10.1,10.1,0,0,1-2.62-4.51c-6-17.54.39-36.92,9.23-53.21,3.14-5.78,6.65-11.46,11.45-15.95,7.19-6.73,16.72-10.28,26-13.67a89,89,0,0,0-28.41,63.29c0,1.91,15.33-8.3,16.26-8.36C267.52,370.64,262,386.87,260.71,391.64Z" transform="translate(-21.4 -7.43)"/><path class="k" d="M373.6,393.91c3.85-9.81,7.78-20.23,6-30.62-1.31-7.62-5.63-14.63-6-22.36-.2-4.49,1-9.07,0-13.45-2-8.81-11.74-13.44-16.47-21.15-1.45-2.35-2.29-5.69-.35-7.65,1.4-1.43,3.65-1.48,5.64-1.39a149.111,149.111,0,0,1,51.75,11.8c7.36,3.14,14.82,7.19,19,14s4.4,15.36,4.29,23.4a498.317,498.317,0,0,1-7.1,76.82,6.53,6.53,0,0,1-1.25,3.36c-1.57,1.75-4.36,1.35-6.65.8-14.79-3.54-24.17-4-39-7.49-4.48-1.08-15.87-1.23-19.74-3.29C365.48,410.21,371,400.48,373.6,393.91Z" transform="translate(-21.4 -7.43)"/><path class="l" d="M430.12,278.08c-7-3.37-15.9-4-22.25.53-5.23,3.7-7.83,10.07-9.45,16.26-2.42,9.24-3.21,19.11-.6,28.29s9,17.56,17.88,21.07,20.13,1.28,25.89-6.33c4.64-6.12,5.19-14.3,5.57-22,.32-6.61,3.13-18.29.13-24C444.41,286.38,435.52,280.78,430.12,278.08Z" transform="translate(-21.4 -7.43)"/><path class="m" d="M430.12,278.08c-7-3.37-15.9-4-22.25.53-5.23,3.7-7.83,10.07-9.45,16.26-2.42,9.24-3.21,19.11-.6,28.29s9,17.56,17.88,21.07,20.13,1.28,25.89-6.33c4.64-6.12,5.19-14.3,5.57-22,.32-6.61,3.13-18.29.13-24C444.41,286.38,435.52,280.78,430.12,278.08Z" transform="translate(-21.4 -7.43)"/><rect class="b" width="94.95" height="61.18" rx="8.25" transform="matrix(0.897, 0.442, -0.442, 0.897, 334.361, 194.993)"/><rect class="n" width="94.66" height="58.886" rx="8.085" transform="translate(335.356 196.852) rotate(26.053)"/><path class="l" d="M395.76,288a29.83,29.83,0,0,0-16.61-10.09,11.57,11.57,0,0,0-5.39-.12,5.31,5.31,0,0,0-3.85,3.5,7.25,7.25,0,0,0,.56,4.33c3.42,9.3,10.85,16.74,14.06,26.11,2.68,7.83,6.81,13.9,7.13,22.16.4,10.7-2.32,21.51-.34,32,1.38,7.33,5,14.19,5.63,21.62.42,4.94-.4,10.36,2.32,14.51,3.38,5.16,10.51,5.91,16.67,6.14,5.45.21,11.48.23,15.63-3.32,2.42-2.06,3.82-5.05,5.14-7.94l25.1-54.72c1.43-3.12,2.89-6.39,2.72-9.82-.25-4.79-3.57-8.76-5.61-13.1-6.7-14.2.66-31-1.25-46.59-1.62-13.21-9.81-24.67-18.87-34.42-2.16-2.33-5.1-4.81-8.15-3.92-3.89,1.14-4.29,6.75-2.38,10.32s5.25,6.32,6.6,10.14c1,2.95.75,6.18.46,9.3l-2,21.16c-.52,5.51-1,11-1.94,16.5-1.08,6.55-3.7,14.1-10.1,15.85-5,1.38-10.36-1.68-13.52-5.82s-4.75-9.24-6.85-14S399.07,292,395.76,288Z" transform="translate(-21.4 -7.43)"/><path class="b" d="M413.91,391.69c-4.49-.82-9-2.08-13.56-1.77s-9.35,2.64-11,6.9c-.69,1.75-.79,3.68-1.38,5.46-.87,2.64-2.75,4.81-4,7.27-2.1,4-2.61,8.57-3.09,13.05l-3.75,35c23.58,8.52,51.08,11.23,72.85-1.21a9.1,9.1,0,0,0,3.65-3.18c.92-1.67.78-3.7.61-5.59-1.46-16.82-1.3-34.77-4.45-51.34-1.82-9.54-5.33-5.7-13.65-4.3C428.4,393.3,421.49,391.69,413.91,391.69Z" transform="translate(-21.4 -7.43)"/><path class="o" d="M353.85,231.44h6a10.28,10.28,0,0,1,10.28,10.28v.67a4.23,4.23,0,0,1-4.23,4.23H353.85a4.23,4.23,0,0,1-4.23-4.23v-6.72a4.23,4.23,0,0,1,4.23-4.23Z" transform="matrix(0.901, 0.433, -0.433, 0.901, 117.57, -139.69)"/><rect class="p" width="4.38" height="6.97" transform="matrix(0.902, 0.431, -0.431, 0.902, 340.127, 247.931)"/><rect class="q" width="4.38" height="6.97" transform="matrix(0.902, 0.431, -0.431, 0.902, 345.995, 250.894)"/><rect class="r" width="4.38" height="6.97" transform="matrix(0.902, 0.431, -0.431, 0.902, 351.864, 253.857)"/><rect class="s" width="4.38" height="6.97" transform="matrix(0.902, 0.431, -0.431, 0.902, 357.742, 256.81)"/><rect class="t" width="4.38" height="6.97" transform="matrix(0.902, 0.431, -0.431, 0.902, 363.606, 259.782)"/><rect class="u" width="4.38" height="6.97" transform="matrix(0.902, 0.431, -0.431, 0.902, 369.475, 262.745)"/><rect class="v" width="4.38" height="6.97" transform="matrix(0.902, 0.431, -0.431, 0.902, 375.343, 265.708)"/><rect class="w" width="4.38" height="6.97" transform="matrix(0.902, 0.431, -0.431, 0.902, 381.221, 268.661)"/><rect class="x" width="4.38" height="6.97" transform="matrix(0.902, 0.431, -0.431, 0.902, 387.09, 271.624)"/><path class="l" d="M265.12,370.68a4.35,4.35,0,0,0,.23-2.33,3.48,3.48,0,0,0-1.62-1.89c-4.56-2.89-10.75-.67-14.8,2.89s-7,8.34-11.19,11.69c-2.46-8.18,1.22-16.81,4.82-24.56,6.56-14.12,14-29.17,27.62-36.65,1.66-.9,3.57-1.88,4.08-3.7.88-3.08-2.92-5.5-6.12-5.61-4.76-.17-9.28,2.07-14,2.48-4,.34-8-.62-12-.57a47.74,47.74,0,0,0-10.51,1.71c-8.12,1.95-16.49,4-23.16,9-4.56,3.43-8.07,8.06-11.31,12.76-4.91,7.11-9.42,14.63-11.81,22.93-4.37,15.16-1.49,32.21-8.57,46.31-2.51,5-6.32,10.21-4.81,15.59,1.19,4.26,5.4,6.92,9.46,8.68a57.84,57.84,0,0,0,26.83,4.61,14.789,14.789,0,0,0,4.85-1,17,17,0,0,0,4.23-3C237.11,412.8,258.37,397.66,265.12,370.68Z" transform="translate(-21.4 -7.43)"/><path class="y" d="M320,405.75l-43.69-6.1c-5-.7-7.85-5-6.36-9.62l5.59-17.23c1.49-4.62,6.76-7.79,11.77-7.09l43.69,6.1c5,.7,7.85,5,6.35,9.62l-5.58,17.23C330.3,403.28,325,406.45,320,405.75Z" transform="translate(-21.4 -7.43)"/><path class="b" d="M144.64,440.42c11.25,4.42,22.59,8.87,34.46,11.15s24.45,2.28,35.74-2.05c2.33-.89,4.87-2.29,5.39-4.73.37-1.73-.4-3.48-1.16-5.09l-3.6-7.62a4.86,4.86,0,0,0-4.64-3.41c-7.33-1.28-14.86-2.07-21.72-5-11.44-4.82-12.17-17.58-24.76-9.87C161.59,415.53,142.08,439.41,144.64,440.42Z" transform="translate(-21.4 -7.43)"/><path class="b" d="M327.52,204,221.59,190.82l15.81-67.09,15.85,1.69,3.57.38,45.88,4.91,3.58.38,17.31,1.86Z"/><path class="b" d="M323.9,92.47c-6.21-8.07-15.74-11.64-26.85-10.1a22,22,0,0,0-15.25,9.08c-8.94,12.09-8,32.6-7.15,41.4l3.57.38c-.84-7.92-2-28.36,6.38-39.71a18.9,18.9,0,0,1,12.94-7.68c9.92-1.4,18.08,1.65,23.59,8.76,7.78,10.1,8.83,26.85,3,43.54l3.57.38C333.64,121,332.27,103.33,323.9,92.47Z" transform="translate(-21.4 -7.43)"/><path class="b" d="M327.52,204,221.59,190.82l15.81-67.09,15.85,1.69,3.57.38,45.88,4.91,3.58.38,17.31,1.86Z"/><path class="b" d="M323.9,92.47c-6.21-8.07-15.74-11.64-26.85-10.1a22,22,0,0,0-15.25,9.08c-8.94,12.09-8,32.6-7.15,41.4l3.57.38c-.84-7.92-2-28.36,6.38-39.71a18.9,18.9,0,0,1,12.94-7.68c9.92-1.4,18.08,1.65,23.59,8.76,7.78,10.1,8.83,26.85,3,43.54l3.57.38C333.64,121,332.27,103.33,323.9,92.47Z" transform="translate(-21.4 -7.43)"/><rect class="z" width="106.59" height="19.08" rx="9.02" transform="matrix(0.994, 0.111, -0.111, 0.994, 359.027, 100.928)"/><rect class="aa" width="106.59" height="19.08" rx="9.02" transform="matrix(0.994, 0.111, -0.111, 0.994, 356.554, 127.093)"/><rect class="ab" width="106.59" height="19.08" rx="9.02" transform="matrix(0.994, 0.111, -0.111, 0.994, 354.092, 153.24)"/></g></svg>