<svg xmlns="http://www.w3.org/2000/svg" xmlns:xlink="http://www.w3.org/1999/xlink" width="335.915" height="316.586" viewBox="0 0 335.915 316.586"><defs><style>.a,.b{fill:#ffbaad;}.a{opacity:0.24;isolation:isolate;}.c{fill:url(#a);}.d{fill:url(#b);}.e{fill:url(#c);}.f{fill:url(#d);}.g{fill:url(#e);}.h{fill:url(#f);}.i{fill:#fff;}.j,.k,.l,.q,.r{opacity:0.26;}.j{fill:url(#g);}.k{fill:url(#h);}.l{fill:url(#i);}.m{fill:url(#j);}.n{fill:url(#k);}.o{fill:url(#l);}.p{fill:#606161;}.q{fill:url(#m);}.r{fill:url(#n);}.s{fill:url(#o);}.t{fill:url(#p);}</style><linearGradient id="a" x1="0.519" y1="0.365" x2="-0.171" y2="1.942" gradientUnits="objectBoundingBox"><stop offset="0" stop-color="#010101" stop-opacity="0"/><stop offset="0.95" stop-color="#010101"/></linearGradient><linearGradient id="b" x1="0.545" y1="0.441" x2="-0.868" y2="0.885" xlink:href="#a"/><linearGradient id="c" x1="0.443" y1="0.493" x2="3.09" y2="0.806" xlink:href="#a"/><linearGradient id="d" x1="0.509" y1="-2.609" x2="0.427" y2="24.211" xlink:href="#a"/><linearGradient id="e" x1="0.424" y1="0.5" x2="2.09" y2="0.868" xlink:href="#a"/><linearGradient id="f" x1="0.661" y1="0.468" x2="-2.45" y2="1.654" xlink:href="#a"/><linearGradient id="g" x1="0.385" y1="0.17" x2="0.602" y2="1.049" xlink:href="#a"/><linearGradient id="h" x1="-0.053" y1="0.363" x2="1.009" y2="0.53" xlink:href="#a"/><linearGradient id="i" x1="-18.868" y1="0.28" x2="-15.179" y2="1.005" xlink:href="#a"/><linearGradient id="j" x1="-104.619" y1="0.499" x2="-103.617" y2="0.499" gradientUnits="objectBoundingBox"><stop offset="0" stop-color="#e4c5d5"/><stop offset="0.42" stop-color="#e9d3cf"/><stop offset="1" stop-color="#efe8ca"/></linearGradient><linearGradient id="k" x1="0.001" y1="0.499" x2="1" y2="0.499" xlink:href="#j"/><linearGradient id="l" x1="-48.058" y1="-1.918" x2="-47.06" y2="-1.918" xlink:href="#j"/><linearGradient id="m" x1="-52.043" y1="0.857" x2="-54.025" y2="-0.056" xlink:href="#a"/><linearGradient id="n" x1="0" y1="0.5" x2="1" y2="0.5" xlink:href="#a"/><linearGradient id="o" x1="0.424" y1="0.5" x2="2.09" y2="0.868" xlink:href="#a"/><linearGradient id="p" x1="0.662" y1="0.468" x2="-2.45" y2="1.654" xlink:href="#a"/></defs><g transform="translate(0.001 0.004)"><path class="a" d="M180.1,322.253c42,2.677,85.2,3.2,124.957-10.627,10.883-3.784,21.545-8.711,30.338-16.148,20.562-17.393,28.027-48.6,17.566-73.413-5.6-13.256-15.8-25.1-16.653-39.436-.747-12.5,5.777-24.077,10.5-35.672,12.793-31.369,12.045-69.878-8.655-96.66C316.005,21.583,277.143,12.1,241.063,8.943a510.432,510.432,0,0,0-82.214-.214c-10.689.8-21.572,1.93-31.362,6.289-14.861,6.621-25.647,20-33.756,34.1A166.047,166.047,0,0,0,76.939,90.237c-2.85,10.994-4.6,22.354-9.043,32.808-7.14,16.847-20.673,29.992-30.3,45.552-19.1,30.836-24.72,88.219,4.67,115.486C76.144,315.507,136.716,319.478,180.1,322.253Z" transform="translate(-21.75 -7.18)"/><path class="b" d="M383.46,121.354c3.189-5.7,5.4-12.786,2.532-18.68a3.058,3.058,0,0,0-1.571-1.7,2.968,2.968,0,0,0-1.259-.083c-6.96.692-11.6,7.507-14.066,14.052s-3.957,13.837-8.884,18.8c-2.152,2.166-4.843,3.757-6.919,6.026-4.476,4.961-5.106,12.211-5.313,18.895-.221,7.092.09,19.974,10.129,18.542,5.293-.761,12.218-7.4,14.391-12.184,2.518-5.535,1.467-12.5,1.633-18.4C374.452,136.4,378.6,130.016,383.46,121.354Z" transform="translate(-122.262 -36.048)"/><path class="c" d="M383.46,121.354c3.189-5.7,5.4-12.786,2.532-18.68a3.058,3.058,0,0,0-1.571-1.7,2.968,2.968,0,0,0-1.259-.083c-6.96.692-11.6,7.507-14.066,14.052s-3.957,13.837-8.884,18.8c-2.152,2.166-4.843,3.757-6.919,6.026-4.476,4.961-5.106,12.211-5.313,18.895-.221,7.092.09,19.974,10.129,18.542,5.293-.761,12.218-7.4,14.391-12.184,2.518-5.535,1.467-12.5,1.633-18.4C374.452,136.4,378.6,130.016,383.46,121.354Z" transform="translate(-122.262 -36.048)"/><path class="b" d="M392.621,169.052c4.31-.415,9.686.63,10.966,4.774.754,2.47-.332,5.106-1.584,7.368-5.009,9.077-12.841,16.356-17.809,25.46a15.069,15.069,0,0,0-2.076,5.9c-.311,3.861,1.868,7.417,3.6,10.883,4.3,8.586,5.853,19.912-.505,27.107-3.106,3.508-7.693,5.535-10.419,9.361-3.058,4.276-3.189,9.914-4.718,14.951s-5.95,10.219-11.07,9.07a317.382,317.382,0,0,0-.692-40.232c-1.384-16.708-4.947-34.358,1.951-50.188C365.922,180.454,378.189,170.45,392.621,169.052Z" transform="translate(-124.795 -57.034)"/><path class="d" d="M392.621,169.052c4.31-.415,9.686.63,10.966,4.774.754,2.47-.332,5.106-1.584,7.368-5.009,9.077-12.841,16.356-17.809,25.46a15.069,15.069,0,0,0-2.076,5.9c-.311,3.861,1.868,7.417,3.6,10.883,4.3,8.586,5.853,19.912-.505,27.107-3.106,3.508-7.693,5.535-10.419,9.361-3.058,4.276-3.189,9.914-4.718,14.951s-5.95,10.219-11.07,9.07a317.382,317.382,0,0,0-.692-40.232c-1.384-16.708-4.947-34.358,1.951-50.188C365.922,180.454,378.189,170.45,392.621,169.052Z" transform="translate(-124.795 -57.034)"/><rect class="b" width="115.935" height="218.075" rx="28.72" transform="translate(120.377 44.112)"/><rect class="e" width="115.935" height="218.075" rx="28.72" transform="translate(120.377 44.112)"/><path class="f" d="M141.406,396.477c-4.476.374-10.177,1.916-10.544,6.393s4.954,6.919,9.312,7.728c10.378,1.986,21,2.076,31.556,2.152q54.173.311,108.346-.623c9.638-.166,20.32-.789,27.086-7.645,1.128-1.142,2.159-2.6,2.013-4.2-.284-3.023-4.151-3.992-7.209-4.186C247.877,392.685,195.433,391.938,141.406,396.477Z" transform="translate(-55.366 -126.161)"/><path class="b" d="M134.714,383.111H101.83l3.861-40.792,23.945-.609Z" transform="translate(-31.378 -105.295)"/><path class="g" d="M134.714,383.111H101.83l3.861-40.792,23.945-.609Z" transform="translate(-31.378 -105.295)"/><path class="b" d="M126.8,383.111H93.92l3.854-40.792,23.945-.609Z" transform="translate(-28.941 -105.295)"/><path class="h" d="M126.8,383.111H93.92l3.854-40.792,23.945-.609Z" transform="translate(-28.941 -105.295)"/><path class="b" d="M144.963,344.612l-.387-.042c.069-1.792,0-6.808-2.352-9.686a5.666,5.666,0,0,0-4.241-2.166,5.445,5.445,0,0,0-4.262,1.6c-2.9,2.837-3.522,8.544-3.653,10.378h-.477c0-.325.284-7.68,3.9-10.987a5.832,5.832,0,0,1,4.539-1.6,6.074,6.074,0,0,1,4.476,2.159C145.53,337.763,145.012,344.335,144.963,344.612Z" transform="translate(-54.98 -107.298)"/><path class="b" d="M150.153,344.606l-.387-.042c.062-1.792,0-6.808-2.359-9.686a5.639,5.639,0,0,0-4.234-2.166,5.438,5.438,0,0,0-4.262,1.6c-2.9,2.837-3.528,8.545-3.653,10.378h-.477c0-.325.284-7.68,3.9-10.987a5.832,5.832,0,0,1,4.559-1.612,6.088,6.088,0,0,1,4.476,2.159C150.727,337.756,150.209,344.329,150.153,344.606Z" transform="translate(-56.579 -107.292)"/><rect class="b" width="115.935" height="218.075" rx="28.72" transform="translate(114.897 44.112)"/><rect class="i" width="101.676" height="191.258" rx="25.19" transform="translate(123.019 57.942)"/><rect class="b" width="66.571" height="21.109" rx="10.554" transform="translate(141.485 169.235)"/><path class="i" d="M245.558,266.952a2.181,2.181,0,0,1,0,.242,1.077,1.077,0,0,1,0,.173.519.519,0,0,1-.048.125.894.894,0,0,1-.09.118,1.383,1.383,0,0,1-.242.166,2.989,2.989,0,0,1-.443.2,4.2,4.2,0,0,1-2.691,0,2.719,2.719,0,0,1-1.038-.692,3.072,3.072,0,0,1-.692-1.162,5.825,5.825,0,0,1,0-3.3,3.376,3.376,0,0,1,.692-1.225,2.92,2.92,0,0,1,1.079-.761,3.777,3.777,0,0,1,1.384-.256,3.4,3.4,0,0,1,.6.055,3.643,3.643,0,0,1,.526.131,2.51,2.51,0,0,1,.436.194.976.976,0,0,1,.27.187.547.547,0,0,1,.111.125.588.588,0,0,1,.042.131,1.3,1.3,0,0,1,0,.194v.56a.734.734,0,0,1-.042.194.249.249,0,0,1-.069.1.118.118,0,0,1-.09.035.422.422,0,0,1-.221-.1,2.217,2.217,0,0,0-.339-.221,2.8,2.8,0,0,0-.5-.228,2.242,2.242,0,0,0-.692-.1,1.7,1.7,0,0,0-.789.18,1.661,1.661,0,0,0-.588.512,2.415,2.415,0,0,0-.367.809,3.957,3.957,0,0,0-.131,1.072,4.152,4.152,0,0,0,.138,1.128,2.207,2.207,0,0,0,.381.789,1.549,1.549,0,0,0,.6.457,1.93,1.93,0,0,0,.789.152,2.269,2.269,0,0,0,.692-.09,3.258,3.258,0,0,0,.505-.214l.339-.2a.429.429,0,0,1,.214-.1.138.138,0,0,1,.09,0,.152.152,0,0,1,.055.09.993.993,0,0,1,0,.194C245.558,266.7,245.558,266.814,245.558,266.952Z" transform="translate(-89.025 -85.264)"/><path class="i" d="M255.955,264.269a5.473,5.473,0,0,1-.228,1.647,3.273,3.273,0,0,1-.692,1.231,2.886,2.886,0,0,1-1.121.775,4.2,4.2,0,0,1-1.536.263,4.518,4.518,0,0,1-1.508-.228,2.512,2.512,0,0,1-1.072-.692,3.065,3.065,0,0,1-.643-1.176,5.874,5.874,0,0,1-.214-1.7,5.354,5.354,0,0,1,.228-1.619,3.369,3.369,0,0,1,.692-1.218,3.072,3.072,0,0,1,1.121-.775,4.255,4.255,0,0,1,1.55-.263,4.415,4.415,0,0,1,1.481.221,2.512,2.512,0,0,1,1.072.692,3.051,3.051,0,0,1,.657,1.169,5.674,5.674,0,0,1,.214,1.667Zm-1.577.083a5.534,5.534,0,0,0-.09-1.065,2.339,2.339,0,0,0-.311-.816,1.446,1.446,0,0,0-.588-.526,1.986,1.986,0,0,0-.913-.187,1.9,1.9,0,0,0-.927.208,1.674,1.674,0,0,0-.6.56,2.263,2.263,0,0,0-.318.816,4.982,4.982,0,0,0-.1.982,6.46,6.46,0,0,0,.09,1.093,2.374,2.374,0,0,0,.311.823,1.466,1.466,0,0,0,.581.526,2.138,2.138,0,0,0,.92.18,1.875,1.875,0,0,0,.927-.208,1.675,1.675,0,0,0,.6-.56,2.359,2.359,0,0,0,.325-.823A5.2,5.2,0,0,0,254.378,264.352Z" transform="translate(-91.756 -85.245)"/><path class="i" d="M267.024,267.566a.574.574,0,0,1-.166.408.6.6,0,0,1-.187.1.735.735,0,0,1-.214.035h-.63a1.246,1.246,0,0,1-.346-.042.733.733,0,0,1-.27-.145,1.265,1.265,0,0,1-.242-.284c-.076-.125-.159-.277-.256-.47l-1.84-3.459c-.1-.208-.214-.429-.325-.692s-.208-.47-.3-.692h0a6.5,6.5,0,0,0,.035.823,6.872,6.872,0,0,1,0,.844v3.874a.166.166,0,0,1-.035.1.214.214,0,0,1-.1.083,1.153,1.153,0,0,1-.208.048h-.671a.917.917,0,0,1-.208-.048.214.214,0,0,1-.1-.083.159.159,0,0,1,0-.1v-6.656a.5.5,0,0,1,.159-.4.574.574,0,0,1,.387-.131h.8a1.384,1.384,0,0,1,.367,0,.836.836,0,0,1,.263.125.809.809,0,0,1,.221.235,4.2,4.2,0,0,1,.214.374l1.439,2.705.249.484c.083.159.159.318.235.477l.228.464.208.457h0v-5.12a.173.173,0,0,1,.035-.1.346.346,0,0,1,.118-.083.922.922,0,0,1,.208-.048h.664a.85.85,0,0,1,.2.048.339.339,0,0,1,.1.083.166.166,0,0,1,0,.1Z" transform="translate(-95.457 -85.282)"/><path class="i" d="M276.216,261.311v.291a.511.511,0,0,1-.048.18.249.249,0,0,1-.069.1.118.118,0,0,1-.09.035h-2.422v1.993h2.269a.159.159,0,0,1,.1,0,.386.386,0,0,1,.069.1.9.9,0,0,1,.048.187v.567a.906.906,0,0,1-.048.187.3.3,0,0,1-.069.111.159.159,0,0,1-.1,0h-2.269v2.767a.138.138,0,0,1-.035.1.221.221,0,0,1-.125.083,1.162,1.162,0,0,1-.228.048h-.726a1.25,1.25,0,0,1-.235-.048.284.284,0,0,1-.124-.083.173.173,0,0,1-.035-.1v-6.711a.429.429,0,0,1,.131-.36.443.443,0,0,1,.311-.111h3.459a.139.139,0,0,1,.09,0,.249.249,0,0,1,.069.1.609.609,0,0,1,.048.194A2.49,2.49,0,0,1,276.216,261.311Z" transform="translate(-98.886 -85.282)"/><path class="i" d="M281.328,267.893a.173.173,0,0,1-.035.1.277.277,0,0,1-.125.076,1.164,1.164,0,0,1-.228.048h-.726a1.142,1.142,0,0,1-.235-.048.276.276,0,0,1-.125-.076.173.173,0,0,1-.035-.1V260.9a.166.166,0,0,1,.035-.1.277.277,0,0,1,.124-.076,1.383,1.383,0,0,1,.235-.048,2.775,2.775,0,0,1,.36,0,2.774,2.774,0,0,1,.367,0,1.162,1.162,0,0,1,.228.048.277.277,0,0,1,.125.076.166.166,0,0,1,.035.1Z" transform="translate(-101.272 -85.292)"/><path class="i" d="M289.832,267.922a.166.166,0,0,1,0,.1.187.187,0,0,1-.1.076,1.64,1.64,0,0,1-.256.035,4.049,4.049,0,0,1-.45,0,2.9,2.9,0,0,1-.38,0,.844.844,0,0,1-.228-.042.262.262,0,0,1-.118-.076.616.616,0,0,1-.055-.118l-.692-1.654c-.083-.187-.159-.353-.235-.5a1.64,1.64,0,0,0-.256-.367.865.865,0,0,0-.325-.214,1,1,0,0,0-.422-.076h-.464v2.816a.138.138,0,0,1-.042.1.215.215,0,0,1-.125.076,1.165,1.165,0,0,1-.228.048h-.726a1.164,1.164,0,0,1-.228-.048.215.215,0,0,1-.125-.076.173.173,0,0,1-.035-.1V261.19a.429.429,0,0,1,.131-.36.449.449,0,0,1,.318-.111h2.74a3.1,3.1,0,0,1,.8.221,1.951,1.951,0,0,1,.6.4,1.6,1.6,0,0,1,.381.588,2.131,2.131,0,0,1,.131.782,2.33,2.33,0,0,1-.09.692,1.847,1.847,0,0,1-.277.547,1.882,1.882,0,0,1-.457.415,2.609,2.609,0,0,1-.609.291,1.461,1.461,0,0,1,.311.194,1.743,1.743,0,0,1,.277.277,2.6,2.6,0,0,1,.242.367c.076.145.145.3.221.477l.623,1.453a3.042,3.042,0,0,1,.111.318.6.6,0,0,1,.035.18Zm-1.944-5.023a1.093,1.093,0,0,0-.166-.616.907.907,0,0,0-.54-.353l-.263-.048h-1.093v2.076h.761a1.924,1.924,0,0,0,.56-.076,1.224,1.224,0,0,0,.415-.2.9.9,0,0,0,.242-.339A1.114,1.114,0,0,0,287.888,262.9Z" transform="translate(-102.663 -85.306)"/><path class="i" d="M302.512,267.908a.166.166,0,0,1,0,.1.221.221,0,0,1-.118.076,1.114,1.114,0,0,1-.214.048h-.692a1.077,1.077,0,0,1-.221-.048.2.2,0,0,1-.111-.076.138.138,0,0,1-.035-.1v-6.019h0l-2.145,6.019a.235.235,0,0,1-.076.118.27.27,0,0,1-.138.076.844.844,0,0,1-.228.042h-.657a.81.81,0,0,1-.228-.048.332.332,0,0,1-.138-.076.173.173,0,0,1-.069-.1l-2.076-6.019h0v6.019a.173.173,0,0,1-.035.1.194.194,0,0,1-.118.076,1.113,1.113,0,0,1-.214.048h-.692a1.2,1.2,0,0,1-.221-.048.2.2,0,0,1-.111-.076.173.173,0,0,1-.035-.1v-6.593a.623.623,0,0,1,.152-.443.56.56,0,0,1,.415-.152h.982a2.118,2.118,0,0,1,.45.042.962.962,0,0,1,.332.138.878.878,0,0,1,.228.27,2.3,2.3,0,0,1,.159.4l1.6,4.407h0l1.66-4.4a2.008,2.008,0,0,1,.166-.4.913.913,0,0,1,.2-.27.692.692,0,0,1,.284-.145,1.445,1.445,0,0,1,.367-.042h1.017a1.01,1.01,0,0,1,.263,0,.429.429,0,0,1,.18.118.491.491,0,0,1,.111.194.692.692,0,0,1,.035.249Z" transform="translate(-105.622 -85.306)"/><path class="b" d="M147.774,302.375a10.613,10.613,0,0,0-4.642.553c-2.47,1.065-3.854,3.688-4.753,6.227a69.279,69.279,0,0,0-2.767,12.744,14.634,14.634,0,0,0-.111,5.722,3.328,3.328,0,0,0,.92,1.723,4.151,4.151,0,0,0,1.681.754,65.568,65.568,0,0,0,27.674,1.515,5.632,5.632,0,0,0,3.189-1.252,5.567,5.567,0,0,0,1.238-3.508,45.663,45.663,0,0,0-1.536-16.812,8.3,8.3,0,0,0-2.449-4.428c-2.166-1.681-5.666-1.384-8.219-2.02a52.144,52.144,0,0,0-10.226-1.218Z" transform="translate(-56.726 -98.125)"/><path class="j" d="M170.217,326.86a5.71,5.71,0,0,1-1.232,3.5,5.385,5.385,0,0,1-3.2,1.252,65.63,65.63,0,0,1-27.674-1.515,4.49,4.49,0,0,1-1.66-.754,2.767,2.767,0,0,1-.692-1.1,6.144,6.144,0,0,1-.221-.63,15.077,15.077,0,0,1,.111-5.729,72.929,72.929,0,0,1,2.767-12.737c.823-2.3,2.034-4.649,4.089-5.839a3.506,3.506,0,0,1,.692-.367,10.523,10.523,0,0,1,4.649-.567,52.734,52.734,0,0,1,10.226,1.211c2.553.63,6.054.325,8.219,2.013a8.368,8.368,0,0,1,2.442,4.435A45.594,45.594,0,0,1,170.217,326.86Z" transform="translate(-56.739 -98.125)"/><path class="b" d="M157.318,252.1c-2.712,4.677-5.058,9.894-4.594,15.276a15.913,15.913,0,0,0,9.963,13.145c2.588-2.076,2.871-5.846,2.947-9.16.166-7.687,1.19-15.989.394-23.634-.2-1.951,2.076-11.208-.733-10.157C163.6,238.23,158.266,250.469,157.318,252.1Z" transform="translate(-62.09 -78.149)"/><path class="k" d="M157.318,252.1c-2.712,4.677-5.058,9.894-4.594,15.276a15.913,15.913,0,0,0,9.963,13.145c2.588-2.076,2.871-5.846,2.947-9.16.166-7.687,1.19-15.989.394-23.634-.2-1.951,2.076-11.208-.733-10.157C163.6,238.23,158.266,250.469,157.318,252.1Z" transform="translate(-62.09 -78.149)"/><path class="l" d="M207.561,279.464a14.613,14.613,0,0,1,1.273-5.535c2.615-4.968,9.451-5.535,14.038-8.752,3.688-2.608,5.812-6.988,6.635-11.43s.491-8.994.152-13.512a5.872,5.872,0,0,0-1.086-3.612c-1.875-2.076-5.272-.6-7.61.982l-6.116,4.234c-1.3.893-3.079,1.778-4.317.8a3.8,3.8,0,0,1-1.031-2.837l-1.162-16.217c-.325-4.476-1.093-9.686-5.023-11.852s-8.994.152-11.478,3.833-2.934,8.3-3.252,12.723a405.653,405.653,0,0,0,1.038,69.691,2.412,2.412,0,0,0,2.947,2.809c4.31-.138,12.045,1.481,14.142-3.023S207.118,284.48,207.561,279.464Z" transform="translate(-72.842 -69.956)"/><path class="m" d="M242.337,262.122a17.3,17.3,0,0,0-.125-5.5,2.027,2.027,0,0,0-.263-.809c-.519-.754-1.757-.457-2.366.228s-.858,1.626-1.439,2.332c-.477.581-1.142.976-1.674,1.508a7.078,7.078,0,0,0-1.64,3.418,2.768,2.768,0,0,0-.1.976,3.03,3.03,0,0,0,.581,1.28c.941,1.432,2.539,3.4,4.31,2.076C241.2,266.377,242.04,264.011,242.337,262.122Z" transform="translate(-87.375 -83.658)"/><path class="n" d="M196.521,300.832l-4.151,69.186-7.541,1.107-3.459-52.519L178.242,371l-7.465.242s-3.459-52.92-2.705-56.795,0-16.238,0-16.238Z" transform="translate(-66.805 -96.859)"/><path class="b" d="M197.275,273.455c3.653-2.207,7.188-11.6,5.618-13.879-1.9-2.767-4.719-21.718-7.216-23.9a13.207,13.207,0,0,0-8.932-3.625c-3.881.145-8.164-1.667-11.762-.2a18.809,18.809,0,0,0-5.39,3.826c-2.594,2.318-4.615,41.456-1.709,45.711,3.722,5.438,11.381,5.618,17.864,5.244,2.235-.131,4.566-.284,6.524-1.384C197.15,282.373,197.766,279.225,197.275,273.455Z" transform="translate(-66.34 -76.234)"/><path class="o" d="M203.535,209.9v.09a8.475,8.475,0,0,0,.865,2.6c.173.353.367.775.173,1.121s-.692.422-1.017.692c-1.086,1.059.076,3.418-.976,4.719a6.027,6.027,0,0,1-2.767,1.384c-.74.277-1.688.844-1.868,1.688a22.028,22.028,0,0,0,.131,2.83c-.076,1.148-.747,2.442-1.9,2.546a2.422,2.422,0,0,1-1.2-.263,7.438,7.438,0,0,1-2.934-3.12c-2.172-3.75-3.529-8.143-2.857-12.454s3.695-8.344,7.9-9.389a4.414,4.414,0,0,1,5.445,2.366,12.329,12.329,0,0,1,.969,3.362,18.2,18.2,0,0,1,.028,1.827Z" transform="translate(-73.293 -67.261)"/><path class="p" d="M196.472,199.443c-.588,2.117-2.366,3.695-4.248,4.843-1.28.768-2.4,1.321-3.134,2.657a13.1,13.1,0,0,0-1.46,4.5.576.576,0,0,1-.311.567c-.214.069-.484-.214-.574-.47-.18-.54-.249-1.19-.726-1.494a1.072,1.072,0,0,0-1.176.083,1.681,1.681,0,0,0-.616,1.059,2.47,2.47,0,0,0,1.252,2.588,3.043,3.043,0,0,1,.692.4c.913.851.035,1.813-.325,2.608a7.091,7.091,0,0,0-.422,3.522,20.976,20.976,0,0,1,.346,5,5.224,5.224,0,0,1-1.944,3.418,3.937,3.937,0,0,1-3.819.526,23.661,23.661,0,0,0-2.574-1.446c-2.186-.65-4.421,1.605-6.649,1.086a4.87,4.87,0,0,1-2.816-2.518,6.732,6.732,0,0,1-1.121-3.023c-.1-1.8.976-3.459,2-4.912a18.888,18.888,0,0,0,3.4-6.877c.374-1.993.125-4.075.609-6.04.533-2.166,2.124-3.722,2.892-5.722.692-1.861,1.6-3.681,3.535-4.559,1.806-.83,3.916-.477,5.895-.692,2.767-.3,4.947-2.242,7.79-1.162C195.317,194.247,197.178,196.911,196.472,199.443Z" transform="translate(-66.458 -64.455)"/><path class="b" d="M225.136,267.708a2.608,2.608,0,0,1,1.737-.242,2.4,2.4,0,0,1,.851.616,12.771,12.771,0,0,1,2.767,4.31,3.494,3.494,0,0,1,.228,2.415,4.082,4.082,0,0,1-2,1.882c-5.777,3.321-12.7,8.06-19.331,7.417-.464-.048-.3-1.432-.65-1.743a2.345,2.345,0,0,1-.574-1.584,28.781,28.781,0,0,1-.187-6.358A9.63,9.63,0,0,1,210.5,268.7a3.494,3.494,0,0,1,2.193-1.155c1.287-.076,1.19.906,1.958,1.384a6.857,6.857,0,0,0,3.459.533A21.724,21.724,0,0,0,225.136,267.708Z" transform="translate(-79.105 -87.369)"/><path class="q" d="M196.757,261.18s2.159,17.11,7.929,21.489c0,0,1.986,10.6-7.147,12.454a16.044,16.044,0,0,1-6.919.692s8.883,2.691,7.209-15.117S196.757,261.18,196.757,261.18Z" transform="translate(-73.786 -85.448)"/><path class="p" d="M205.247,406.184a1.231,1.231,0,0,1,.429.879,1.045,1.045,0,0,1-.346.623,4.151,4.151,0,0,1-2.352.927,20.569,20.569,0,0,1-8.3-.464,3.459,3.459,0,0,1-1.806-.927,3.8,3.8,0,0,1-.65-2.47l-.083-3.01a1.668,1.668,0,0,1,.076-.692c.228-.547.934-.692,1.529-.726a38.465,38.465,0,0,1,4.283-.076,2.564,2.564,0,0,1,1.557.242c.4.318.54.948.809,1.28C201.725,403.527,203.76,404.565,205.247,406.184Z" transform="translate(-74.25 -128.292)"/><path class="p" d="M184.777,406.289a1.211,1.211,0,0,1,.415.844.969.969,0,0,1-.339.6,4,4,0,0,1-2.269.9,19.9,19.9,0,0,1-8.033-.443,3.383,3.383,0,0,1-1.75-.9,3.736,3.736,0,0,1-.63-2.387L172.1,402a1.564,1.564,0,0,1,.076-.692c.221-.526.9-.657,1.474-.692a39.321,39.321,0,0,1,4.151-.076,2.461,2.461,0,0,1,1.508.242c.387.311.519.913.782,1.238C181.4,403.694,183.338,404.725,184.777,406.289Z" transform="translate(-68.074 -128.383)"/><path class="r" d="M144.364,319.684a26.158,26.158,0,0,1-.865,7.569,3.964,3.964,0,0,1-1.8,2.491c-1.425.692-4.428,0-5.985-1.059a6.141,6.141,0,0,1-.221-.63,15.078,15.078,0,0,1,.111-5.729,72.932,72.932,0,0,1,2.767-12.737c.823-2.3,2.034-4.649,4.089-5.839a1.688,1.688,0,0,1,.477.194c1.211.733,1.384,2.4,1.425,3.805C144.468,311.727,144.405,315.685,144.364,319.684Z" transform="translate(-56.726 -98.566)"/><path class="b" d="M155.391,296.564a10.946,10.946,0,0,1,1.2-2.5,3.688,3.688,0,0,1,2.214-1.557,2.691,2.691,0,0,1-.512,1.162,19.22,19.22,0,0,0-2.352,5.493c-.152.6-1.384,2.767-1.889,1.238C153.807,299.525,155.108,297.388,155.391,296.564Z" transform="translate(-62.509 -95.102)"/><path class="p" d="M187.4,300.972a20.715,20.715,0,0,1,6.3.934,2.906,2.906,0,0,1,1.446.941,3.245,3.245,0,0,1,.464,1.418c1.384,8.814-.235,17.8-.062,26.72.062,3.418.394,6.815.657,10.219a1.453,1.453,0,0,1-.242,1.169,1.384,1.384,0,0,1-.851.311,35.814,35.814,0,0,1-6.331.062c-8.3-.45-19.3.892-27.488-.325-1.225-10.378,1.757-23.087,3.376-33.41.325-2.076.083-4.912.927-6.829s2.92-1.591,4.8-1.584Q178.9,300.627,187.4,300.972Z" transform="translate(-64.66 -97.587)"/><circle class="b" cx="34.296" cy="34.296" r="34.296" transform="translate(139.458 81.562)"/><path class="i" d="M255.217,171.859H232.04l2.242-20.189h17.947Z" transform="translate(-71.501 -46.737)"/><path class="i" d="M271.157,157.319c0-.055-.809-5.535-4.089-5.12-3.425.436-3.542,4.566-3.542,4.739H261.36c0-2.138,1.2-6.317,5.431-6.856,4.359-.533,6.158,4.324,6.5,6.974Z" transform="translate(-95.583 -51.202)"/><circle class="b" cx="7.991" cy="7.991" r="7.991" transform="translate(176.701 116.162)"/><circle class="i" cx="7.991" cy="7.991" r="7.991" transform="translate(177.766 116.923)"/><path class="b" d="M286.4,190.425a1.086,1.086,0,0,1-.761-.318l-3.5-3.515a1.081,1.081,0,0,1,1.529-1.529l2.677,2.684,5.48-6.282a1.079,1.079,0,0,1,1.633,1.384L287.231,190a1.093,1.093,0,0,1-.782.374Z" transform="translate(-101.889 -60.799)"/><path class="b" d="M236.207,383.111H203.33l3.854-40.792,23.952-.609Z" transform="translate(-62.654 -105.295)"/><path class="s" d="M236.207,383.111H203.33l3.854-40.792,23.952-.609Z" transform="translate(-62.654 -105.295)"/><path class="b" d="M228.287,383.111H195.41l3.854-40.792,23.952-.609Z" transform="translate(-60.214 -105.295)"/><path class="t" d="M228.287,383.111H195.41l3.854-40.792,23.952-.609Z" transform="translate(-60.214 -105.295)"/><path class="b" d="M246.463,344.612l-.387-.042c.062-1.792,0-6.808-2.359-9.686a5.639,5.639,0,0,0-4.234-2.166,5.438,5.438,0,0,0-4.262,1.6c-2.9,2.837-3.528,8.545-3.653,10.378h-.477c0-.325.277-7.68,3.888-10.987a5.853,5.853,0,0,1,4.546-1.6A6.088,6.088,0,0,1,244,334.269C247.024,337.763,246.5,344.336,246.463,344.612Z" transform="translate(-86.256 -107.298)"/><path class="b" d="M251.67,344.612l-.394-.042c.069-1.792,0-6.808-2.352-9.686a5.666,5.666,0,0,0-4.241-2.166,5.445,5.445,0,0,0-4.262,1.6c-2.892,2.837-3.522,8.544-3.653,10.378h-.477c0-.325.284-7.68,3.9-10.987a5.832,5.832,0,0,1,4.539-1.6,6.068,6.068,0,0,1,4.476,2.159C252.23,337.763,251.712,344.335,251.67,344.612Z" transform="translate(-87.858 -107.298)"/><path class="b" d="M259.967,383.111H227.09l3.854-40.792,23.952-.609Z" transform="translate(-69.976 -105.295)"/><path class="s" d="M259.967,383.111H227.09l3.854-40.792,23.952-.609Z" transform="translate(-69.976 -105.295)"/><path class="b" d="M252.047,383.111H219.17l3.854-40.792,23.952-.609Z" transform="translate(-67.535 -105.295)"/><path class="t" d="M252.047,383.111H219.17l3.854-40.792,23.952-.609Z" transform="translate(-67.535 -105.295)"/><path class="b" d="M270.229,344.608l-.387-.042c.062-1.792,0-6.808-2.359-9.686a5.639,5.639,0,0,0-4.22-2.166,5.438,5.438,0,0,0-4.262,1.6c-2.9,2.837-3.528,8.545-3.653,10.378h-.477c0-.325.284-7.68,3.888-10.987a5.853,5.853,0,0,1,4.5-1.612,6.088,6.088,0,0,1,4.476,2.159C270.79,337.759,270.271,344.331,270.229,344.608Z" transform="translate(-93.584 -107.294)"/><path class="b" d="M275.433,344.612l-.387-.042c.062-1.792,0-6.808-2.359-9.686a5.666,5.666,0,0,0-4.241-2.166,5.431,5.431,0,0,0-4.255,1.6c-2.9,2.837-3.529,8.544-3.66,10.378h-.47c0-.325.277-7.68,3.888-10.987a5.839,5.839,0,0,1,4.539-1.6,6.068,6.068,0,0,1,4.476,2.159C275.994,337.763,275.475,344.336,275.433,344.612Z" transform="translate(-95.183 -107.298)"/></g></svg>