<svg xmlns="http://www.w3.org/2000/svg" xmlns:xlink="http://www.w3.org/1999/xlink" width="557.923" height="467.457" viewBox="0 0 557.923 467.457"><defs><style>.a,.f{fill:#ffbaad;}.a{opacity:0.24;isolation:isolate;}.b{fill:url(#a);}.c{fill:url(#d);}.d{fill:#e9cac5;}.e{fill:#fff;}.g{fill:#f2fbff;}.h{fill:url(#g);}.i{fill:#606161;}.j{fill:url(#h);}.k{fill:url(#i);}.l{fill:url(#j);}</style><linearGradient id="a" y1="0.5" x2="1" y2="0.5" gradientUnits="objectBoundingBox"><stop offset="0" stop-color="#fff" stop-opacity="0"/><stop offset="0.13" stop-color="#fff" stop-opacity="0.231"/><stop offset="0.23" stop-color="#fff" stop-opacity="0.412"/><stop offset="0.35" stop-color="#fff" stop-opacity="0.588"/><stop offset="0.48" stop-color="#fff" stop-opacity="0.741"/><stop offset="0.6" stop-color="#fff" stop-opacity="0.851"/><stop offset="0.72" stop-color="#fff" stop-opacity="0.929"/><stop offset="0.84" stop-color="#fff" stop-opacity="0.98"/><stop offset="0.95" stop-color="#fff"/></linearGradient><linearGradient id="d" x1="0" y1="0.5" x2="1" y2="0.5" xlink:href="#a"/><linearGradient id="g" x1="0.472" y1="1.081" x2="0.629" y2="-3.132" gradientUnits="objectBoundingBox"><stop offset="0" stop-color="#010101" stop-opacity="0"/><stop offset="0.95" stop-color="#010101"/></linearGradient><linearGradient id="h" x1="0.478" y1="0.736" x2="0.558" y2="-0.385" xlink:href="#g"/><linearGradient id="i" x1="-0.479" y1="0.504" x2="9.489" y2="0.43" xlink:href="#g"/><linearGradient id="j" x1="0" y1="0.5" x2="1.001" y2="0.5" xlink:href="#a"/></defs><g transform="translate(0.014 -0.002)"><path class="a" d="M276.56,3.48C228.51,1.21,178.5-.73,134.37,18.41,83.48,40.49,47.28,88.5,28.09,140.55S4.72,248.86,2.75,304.3c-2,55.1,3.16,120.14,49.81,149.53,29.25,18.42,66.39,16.64,100.87,14.23l264.82-18.48c39.37-2.75,82.1-6.9,110.87-33.91,37.12-34.83,36.46-94.39,22-143.2s-40-95-43.81-145.79C504,83.49,516.34,23.62,464,11.77,406.53-1.21,335.6,6.27,276.56,3.48Z" transform="translate(-2.41 -2.08)"/><path class="a" d="M210,411.45c-15.32.09-31.38,2.16-43.88,11-2.09,1.48-4.15,3.27-4.91,5.71-2,6.4,5.67,11.43,12.13,13.22,17.84,4.95,36.65,4.63,55.15,4.28l57.07-1.09c4.82-.1,10.36-.55,13.18-4.47,2.46-3.42,1.7-8.4-.78-11.81s-6.32-5.56-10.15-7.33C263.49,409.74,236.2,411.3,210,411.45Z" transform="translate(-2.41 -2.08)"/><rect class="b" width="200.57" height="45.45" transform="translate(255.19 59.56)"/><rect class="b" width="200.57" height="45.45" transform="translate(255.19 122.33)"/><rect class="b" width="200.57" height="45.45" transform="translate(255.19 185.1)"/><rect class="c" width="200.57" height="45.45" transform="translate(255.19 247.87)"/><rect class="c" width="200.57" height="45.45" transform="translate(255.19 310.64)"/><rect class="c" width="200.57" height="45.45" transform="translate(255.19 373.41)"/><path class="d" d="M264.2,394.4l1.25,13s-5,7.53-11.48,8-8.71-2.64-8.71-2.64l1.06-19.13" transform="translate(-2.41 -2.08)"/><path class="e" d="M245.26,412.78l.43-7.67L264.74,400l.71,7.42s-5,7.53-11.48,8S245.26,412.78,245.26,412.78Z" transform="translate(-2.41 -2.08)"/><path class="d" d="M203.35,395.78l-1.28,13.35s5.11,7.74,11.79,8.23,8.94-2.71,8.94-2.71L221.71,395" transform="translate(-2.41 -2.08)"/><path class="e" d="M222.8,414.65l-.43-7.87-19.57-5.27-.73,7.62s5.11,7.74,11.79,8.23S222.8,414.65,222.8,414.65Z" transform="translate(-2.41 -2.08)"/><path class="f" d="M219.34,103.83s-25.83,12.48-26.41,16.57S195.85,225,195.85,225s8.38,10.87,34.06,10.87c26.3,0,33.07-7.52,34.24-11s5.37-103.71,4.79-108-24.4-13-24.4-13Z" transform="translate(-2.41 -2.08)"/><path class="g" d="M221.8,113.24V232.12s11.95,5.88,26.2-1.26l-5-125.14-11.69,8.37Z" transform="translate(-2.41 -2.08)"/><path class="d" d="M219.42,88.22s-.19,9-.08,15.61c.08,4.92,1.76,14.37,12.23,14.37s11.7-12,11.51-14.37c-.14-1.68.68-5.12,0-10.48C242.39,87.61,220,84.23,219.42,88.22Z" transform="translate(-2.41 -2.08)"/><path class="h" d="M223.6,104.84a10.64,10.64,0,0,0,3.7,2.25,15.54,15.54,0,0,0,6.3,1,8.38,8.38,0,0,0,3.72-1A11.31,11.31,0,0,0,240.5,104a12.46,12.46,0,0,0,2.36-4,10.811,10.811,0,0,0,.38-2.59,34.51,34.51,0,0,0-.2-5.57c-5.36.58-10.72,1-16.09,1.38-3.08.22-8.38.92-7,5.26A16.08,16.08,0,0,0,223.6,104.84Z" transform="translate(-2.41 -2.08)"/><path class="i" d="M195.85,225s-1.17,19,1.76,75.44S202,396.36,202,396.36s.38,4.61,10.09,4.75,12.29-6.28,12.29-6.28l9.49-144.63,9.91,147.6s11.66,6.7,20.75,1.67c6.45-3.57-.37-174.58-.37-174.58S233,242,195.85,225Z" transform="translate(-2.41 -2.08)"/><path class="j" d="M195.85,225s-1.17,19,1.76,75.44S202,396.36,202,396.36s.38,4.61,10.09,4.75,12.29-6.28,12.29-6.28l9.49-144.63,9.91,147.6s11.66,6.7,20.75,1.67c6.45-3.57-.37-174.58-.37-174.58S233,242,195.85,225Z" transform="translate(-2.41 -2.08)"/><path class="f" d="M268.94,116.89s11.72,49.26,12.63,57.64-6.83,28.34-11.62,27c-10.64-3-8.94-21.17-8.94-21.17Z" transform="translate(-2.41 -2.08)"/><path class="d" d="M276.3,209a2.09,2.09,0,0,1,2.15-.61,3.19,3.19,0,0,1,1.55,2c2.36,6,2.08,11.32,2.27,17.49.14,4.34.63,9.15-.3,13.43-.82,3.78-12,13.24-13.56,12.11s1.85-4.35,4.08-6.24,2.35-6.62,2.68-8.13-3.32-1.52-2.34-6.05c.73-3.36,2.19-5,1.94-8.51a59.77,59.77,0,0,1,.41-12.47,6,6,0,0,1,.84-2.66,3,3,0,0,1,.28-.36Z" transform="translate(-2.41 -2.08)"/><path class="f" d="M264.2,193.61c-.17.75,9.29,31.84,9.29,31.84s4.2.87,10.79-2.32c0,0-1.23-43.65-2.32-46.68s-3.2-2.33-13,1.14S264.2,193.61,264.2,193.61Z" transform="translate(-2.41 -2.08)"/><path class="f" d="M192.13,118.42s-11.73,49.26-12.63,57.64,6.82,28.34,11.61,27c10.64-3,8.95-21.18,8.95-21.18Z" transform="translate(-2.41 -2.08)"/><path class="d" d="M184.76,210.5a2.09,2.09,0,0,0-2.15-.61,3.09,3.09,0,0,0-1.54,2c-2.37,6-2.08,11.31-2.28,17.48-.13,4.34-.62,9.16.3,13.44.82,3.78,12,13.23,13.57,12.1s-1.86-4.35-4.09-6.24-2.35-6.62-2.68-8.13,3.32-1.51,2.34-6.05c-.73-3.35-2.18-5-1.94-8.51a59.681,59.681,0,0,0-.41-12.46,6,6,0,0,0-.83-2.66,2.368,2.368,0,0,0-.29-.36Z" transform="translate(-2.41 -2.08)"/><path class="f" d="M196.86,195.13c.18.75-9.29,31.84-9.29,31.84s-4.2.87-10.79-2.32c0,0,1.23-43.65,2.32-46.68s3.2-2.33,13,1.15S196.86,195.13,196.86,195.13Z" transform="translate(-2.41 -2.08)"/><path class="f" d="M211.08,411.34c-3.67-1.88-7.69-4-11.69-3a14.83,14.83,0,0,0-5.5,3.07c-3.29,2.59-6.47,5.62-7.94,9.54s-.79,8.93,2.58,11.43c2.51,1.87,5.87,2,9,2a41.87,41.87,0,0,0,11.56-1.21,37.351,37.351,0,0,0,8.14-3.71c3-1.73,6.05-3.76,7.6-6.86,1.17-2.34,1.42-7.42-1.52-8.81-1.39-.65-3.89.3-5.59,0a22.371,22.371,0,0,1-6.64-2.45Z" transform="translate(-2.41 -2.08)"/><path class="f" d="M255.62,411.34c3.66-1.88,7.68-4,11.68-3a14.83,14.83,0,0,1,5.5,3.07c3.29,2.59,6.47,5.62,7.94,9.54s.79,8.93-2.57,11.43c-2.51,1.87-5.88,2-9,2a41.871,41.871,0,0,1-11.56-1.21,37.347,37.347,0,0,1-8.14-3.71c-3-1.73-6-3.76-7.6-6.86-1.17-2.34-1.42-7.42,1.52-8.81,1.39-.65,3.89.3,5.59,0a22.431,22.431,0,0,0,6.64-2.45Z" transform="translate(-2.41 -2.08)"/><path class="k" d="M255.54,149.11l-2.52,77.26,8.73-3.56,1.62-24.55-3.07-18.71Z"/><path class="d" d="M211.13,60a120.678,120.678,0,0,0,4.45,30.4,20.06,20.06,0,0,0,3.09,7.05,12.08,12.08,0,0,0,7.06,4.25,19.25,19.25,0,0,0,8.27-.28,17.2,17.2,0,0,0,9.59-5.45,21.05,21.05,0,0,0,3.32-6.46,53.87,53.87,0,0,0,2.53-24.55c-.53-4-1.68-8.21-4.68-10.69a13.87,13.87,0,0,0-6.14-2.59,34.35,34.35,0,0,0-23.42,3.69,7.23,7.23,0,0,0-2.86,2.42,8.43,8.43,0,0,0-.88,4" transform="translate(-2.41 -2.08)"/><path class="i" d="M212.69,77.61c-.32-3.23-1.93-6.16-3.42-9s-2.91-6-2.78-9.2,2.33-6.62,5.55-7c.81-4.37,3-8.66,6.68-11.12C224,37.74,231,38.67,237.1,40.5c4.93,1.48,10.21,4,12.06,8.76a19.34,19.34,0,0,1,1,5.35c.52,6.46.91,13.46-2.66,18.86a47.821,47.821,0,0,0-1.65-13.83,37.18,37.18,0,0,1-25.86.58C211,57.11,212.14,72,212.69,77.61Z" transform="translate(-2.41 -2.08)"/><rect class="f" width="35.94" height="22.42" rx="4.57" transform="translate(406.25 325.28)"/><path class="f" d="M427.56,332h-3.34a5.28,5.28,0,0,1,0-10.56h3.34a5.28,5.28,0,1,1,0,10.56Zm-3.34-7a1.77,1.77,0,0,0,0,3.54h3.34a1.77,1.77,0,0,0,0-3.54Z" transform="translate(-2.41 -2.08)"/><path class="f" d="M436.57,138.92v22.75h-7.81V147.33h-7.15v14.34h-8.65V138.92l11.77-6.19Z"/><path class="f" d="M412.45,140.8a.88.88,0,0,1-.41-1.65l15-8.05L442,138.82a.874.874,0,1,1-.81,1.55l-14.09-7.29-14.18,7.62A.92.92,0,0,1,412.45,140.8Z" transform="translate(-2.41 -2.08)"/><path class="f" d="M426.14,221.69c-2.84-.71-10.75-6.18-12.82-11.23a9.12,9.12,0,0,1-.75-3.36,7.31,7.31,0,0,1,5.71-6.83,7.83,7.83,0,0,1,8.38,3.68,8,8,0,0,1,4-3.28c4.52-1.62,7.82,2.72,8,4.06C440.08,216,426.14,221.69,426.14,221.69Z" transform="translate(-2.41 -2.08)"/><path class="f" d="M426.42,289.77v-4.25a12.29,12.29,0,0,1-6.45-1.86l1-2.82a11.26,11.26,0,0,0,6.07,1.81c3,0,5-1.73,5-4.13s-1.64-3.75-4.76-5c-4.3-1.69-6.95-3.63-6.95-7.29,0-3.5,2.49-6.15,6.36-6.78v-4.26h2.61v4.09a11.27,11.27,0,0,1,5.48,1.47l-1.05,2.78a10.25,10.25,0,0,0-5.31-1.43c-3.25,0-4.47,1.94-4.47,3.63,0,2.18,1.56,3.28,5.23,4.8,4.34,1.77,6.53,4,6.53,7.71,0,3.32-2.32,6.44-6.66,7.16v4.38Z" transform="translate(-2.41 -2.08)"/><path class="f" d="M420.42,99.7q10.88-.33,21.75-.14a11.78,11.78,0,0,0-5.68-12c-1-.58-2.24-1.13-2.56-2.26s.36-2.16.71-3.22a5.6,5.6,0,0,0-1.7-6.08,4.83,4.83,0,0,0-6.16.22,6,6,0,0,0-1.45,2.54,7.31,7.31,0,0,0,.28,5.46,4.09,4.09,0,0,1,.78,2.15c-.08.83-.8,1.42-1.41,2a14.93,14.93,0,0,0-4.56,11.33Z" transform="translate(-2.41 -2.08)"/><path class="f" d="M436.42,412.45H410.7V382.77l21.6-.04,4.12,4.29Z"/><rect class="l" width="14.67" height="2.8" transform="translate(416.47 392.87)"/><rect class="l" width="14.67" height="2.8" transform="translate(416.47 401.9)"/><rect class="a" width="98.91" height="8.41" rx="4.2" transform="translate(307.01 80.81)"/><rect class="a" width="98.91" height="8.41" rx="4.2" transform="translate(307.01 145.1)"/><rect class="a" width="98.91" height="8.41" rx="4.2" transform="translate(307.01 209.39)"/><rect class="a" width="98.91" height="8.41" rx="4.2" transform="translate(307.01 273.68)"/><rect class="a" width="98.91" height="8.41" rx="4.2" transform="translate(307.01 337.97)"/><rect class="a" width="98.91" height="8.41" rx="4.2" transform="translate(307.01 402.27)"/></g></svg>