<svg xmlns="http://www.w3.org/2000/svg" xmlns:xlink="http://www.w3.org/1999/xlink" width="704.222" height="535.864" viewBox="0 0 704.222 535.864"><defs><style>.a,.b,.g{fill:#ffcbcb;}.a{opacity:0.18;}.a,.g{isolation:isolate;}.c{fill:url(#a);}.d{fill:url(#b);}.e{fill:url(#c);}.f{fill:#fff;}.g{opacity:0.34;}.h{fill:#473f47;}.i{fill:url(#d);}.j{fill:#fcbdba;}.k{fill:url(#e);}.l{fill:#fc682d;}.m{fill:url(#f);}.n{fill:url(#g);}.o{fill:url(#h);}.p{fill:url(#i);}.q{fill:url(#j);}.r{fill:url(#k);}</style><linearGradient id="a" x1="-10.238" y1="-1.36" x2="-11.668" y2="-2.505" gradientUnits="objectBoundingBox"><stop offset="0.01"/><stop offset="0.08" stop-opacity="0.69"/><stop offset="0.21" stop-opacity="0.322"/><stop offset="1" stop-opacity="0"/></linearGradient><linearGradient id="b" x1="0.207" y1="-1.822" x2="1.639" y2="1.763" xlink:href="#a"/><linearGradient id="c" x1="-19.306" y1="-5.304" x2="-16.497" y2="-9.988" xlink:href="#a"/><linearGradient id="d" x1="-1.375" y1="-0.936" x2="2.549" y2="-2.398" xlink:href="#a"/><linearGradient id="e" x1="1.32" y1="1.245" x2="1.132" y2="2.179" gradientUnits="objectBoundingBox"><stop offset="0.01" stop-color="#fff"/><stop offset="1" stop-color="#fff" stop-opacity="0"/></linearGradient><linearGradient id="f" x1="0.226" y1="4.313" x2="6.034" y2="2.871" xlink:href="#a"/><linearGradient id="g" x1="-3.506" y1="5.597" x2="7.201" y2="3.242" xlink:href="#a"/><linearGradient id="h" x1="0.512" y1="2.731" x2="0.482" y2="6.748" xlink:href="#a"/><linearGradient id="i" x1="23.484" y1="35.599" x2="21.907" y2="34.645" xlink:href="#a"/><linearGradient id="j" x1="40.699" y1="36.448" x2="40.86" y2="34.54" xlink:href="#e"/><linearGradient id="k" x1="39.035" y1="44.353" x2="42.433" y2="40.497" xlink:href="#a"/></defs><g transform="translate(0.005 0.002)"><path class="a" d="M637.862,544.3a212.358,212.358,0,0,1-43.683,17.238c-71.583,19.658-145.443,13.374-216.294-4.558-38.454-9.735-80.517-23-120.553-20.952-28.942,1.463-56.726,12.211-86.324,12.08-48.7-.188-83.1-24.385-116.771-57.905C19.8,455.892,15.454,389.471,22.245,343.139c7.332-50.046,31.412-97.334,67.2-132.017,16.034-15.569,34.209-28.493,51.382-42.693,51.845-42.693,97.149-97.747,159.953-119.862s132.554-6.959,195.262,16.019c48.237,17.651,98.171,42.955,121.75,89.662,13.719,27.161,16.883,58.787,29.289,86.623,31.122,69.816,90.376,104.387,73.8,189.772A179.508,179.508,0,0,1,704.216,480.5C689.437,508.414,665.415,529.648,637.862,544.3Z" transform="translate(-19.54 -37.78)"/><path class="b" d="M223.427,282.869l106,48.363a9.35,9.35,0,0,0,12.373-4.615l27.1-59.386a8.886,8.886,0,0,0,.846-3.527,9.37,9.37,0,0,0-5.441-8.867l-106-48.363a9.27,9.27,0,0,0-12.474,4.514l-27.124,59.426a9.33,9.33,0,0,0,4.595,12.393Z" transform="translate(160.369 102.566)"/><path class="c" d="M223.427,282.869l106,48.363a9.35,9.35,0,0,0,12.373-4.615l27.1-59.386a8.886,8.886,0,0,0,.846-3.527,9.37,9.37,0,0,0-5.441-8.867l-106-48.363a9.27,9.27,0,0,0-12.474,4.514l-27.124,59.426a9.33,9.33,0,0,0,4.595,12.393Z" transform="translate(160.369 102.566)"/><path class="b" d="M220.938,281.718l106,48.363a9.35,9.35,0,0,0,12.373-4.594l27.1-59.406a9.228,9.228,0,0,0,.846-3.506,9.37,9.37,0,0,0-5.461-8.867L255.82,205.344a9.35,9.35,0,0,0-12.373,4.615l-27.124,59.406a9.33,9.33,0,0,0,4.615,12.353Z" transform="translate(158.222 101.694)"/><path class="b" d="M332.547,237.051,300.083,151.77,214.44,185.04,324.265,251.9Z" transform="translate(195.805 128.465)"/><path class="d" d="M231.55,220.664,264.7,293.208l89.9-18.358L322.13,189.57S233.968,219.414,231.55,220.664Z" transform="translate(173.872 90.511)"/><path class="e" d="M289.6,210.733l8.665,54.711L198.66,219.983l48.162-29.663,11.849,25.955Z" transform="translate(181.986 162.699)"/><rect class="f" width="255.801" height="79.779" rx="15.26" transform="translate(237.945 89.445)"/><rect class="f" width="255.801" height="79.779" rx="15.26" transform="translate(278.314 171.4)"/><rect class="f" width="255.801" height="79.779" rx="15.26" transform="translate(225.531 255.302)"/><path class="a" d="M206.724,210.827A30.227,30.227,0,1,1,176.5,180.6h0a30.066,30.066,0,0,1,30.227,29.9Z" transform="translate(97.283 84.965)"/><circle class="g" cx="8.947" cy="8.947" r="8.947" transform="translate(263.818 284.627)"/><path class="g" d="M189.99,214.946a30.227,30.227,0,0,1-38.63-1.088,20.151,20.151,0,0,1,38.63,1.088Z" transform="translate(102.361 103.387)"/><rect class="a" width="127.457" height="7.799" transform="translate(327.962 273.792)"/><rect class="a" width="127.457" height="7.799" transform="translate(327.962 286.665)"/><rect class="a" width="127.457" height="7.799" transform="translate(327.962 299.539)"/><rect class="a" width="127.457" height="7.799" transform="translate(327.962 312.412)"/><ellipse class="a" cx="211.186" cy="25.733" rx="211.186" ry="25.733" transform="translate(92.741 430.805)"/><path class="b" d="M105.692,285.3c-1.793,1.37-3.365,3.728-2.418,5.8s3.506,2.358,5.683,2.418a107.775,107.775,0,0,0,24.524-2.176,1.108,1.108,0,0,0,.645-.282,1.048,1.048,0,0,0,.222-.725,111.361,111.361,0,0,0,.766-15.114c-4.433-1.249-9.572.262-13.542,2.3C116.473,280.045,110.226,281.8,105.692,285.3Z" transform="translate(57.701 162.992)"/><path class="b" d="M160.733,283.829c1.793,1.391,3.385,3.748,2.438,5.8s-3.526,2.378-5.7,2.418a106.578,106.578,0,0,1-24.524-2.237,1.108,1.108,0,0,1-.645-.282,1.169,1.169,0,0,1-.2-.725,105.184,105.184,0,0,1-.766-15.114c4.433-1.27,9.572.262,13.542,2.3C149.972,278.59,156.2,280.343,160.733,283.829Z" transform="translate(83.912 161.424)"/><path class="h" d="M112.87,210.006V346.733s7.617,2.72,12.252,0L139.51,231.548l10.076,113.291s8.061,1.894,14.106-.826L169.737,209S134.029,200.958,112.87,210.006Z" transform="translate(66.542 101.608)"/><path class="b" d="M230.9,180.169c-3.849,15.456-3.788,23.013-9.652,37.824-1.572,4.03-4.03,8.464-8.262,8.967-3.224.383-6.186-1.773-8.746-3.788q-10.539-8.4-21.139-16.806a335.7,335.7,0,0,0,1.612,50.116c-9.753,5.139-20.03,10.4-31.053,10.076a53.2,53.2,0,0,1-19.91-5.421c-1.511-.645-2.982-1.31-4.453-2.015a2.842,2.842,0,0,1-1.35-.967c-2.015-3.144-1.068-11.043-1.229-14.771-.242-5.683-.524-11.385-.806-17.088-.121-2.015-.222-3.889-.363-5.844-.5-9.249-1.088-18.459-2.015-27.708.161,1.592-1.431,4.453-2.015,6.045-.746,2.5-1.491,5.038-2.257,7.557a56.783,56.783,0,0,0-2.015,7.013c-.443,2.882.947,5.642.766,8.6a8.061,8.061,0,0,1-3.224,6.368c-3.123,2.015-7.214.766-10.62-.685a8.746,8.746,0,0,1-4.7-3.385,8.968,8.968,0,0,1-.3-5.8,142.813,142.813,0,0,1,8.322-31.315c3.406-8.826,6.751-18.459,16.121-22.408,4.856-2.015,10.64-2.156,15.839-2.257l18.3-.363a58.781,58.781,0,0,1,17.31,1.35c7.436,2.015,12.091,7.577,16.3,13.723q7.859,11.567,14.751,23.819c3.264-10.862,2.922-13.663,6.872-24.282a83.305,83.305,0,0,1,17.915,3.446Z" transform="translate(52.674 67.139)"/><path class="i" d="M139.395,196.01a10.68,10.68,0,0,1-8.645,4.212,79.9,79.9,0,0,0-8.061.705,3.91,3.91,0,0,0-2.015.826,4.03,4.03,0,0,0-.826,1.773c-2.519,9.411-.222,19.345.584,29.038a2.015,2.015,0,0,1-.121,1.189h0c-1.511-.645-2.982-1.31-4.453-2.015a2.842,2.842,0,0,1-1.35-.967c-2.015-3.144-1.068-11.043-1.229-14.771-.242-5.683-.524-11.385-.806-17.088-.121-2.015-.222-3.889-.363-5.844.464-.121.947-.2,1.411-.282l13-2.217c3.2-.564,8.061-2.458,11.265-1.249S140.886,193.612,139.395,196.01Z" transform="translate(66.188 92.811)"/><path class="j" d="M119.4,186.356c3.063-2.7,5.884-7.678,5.32-11.909s-3.647-8.685-5.441-12.7c-.907-2.015-1.814-4.494-.725-6.469a16.806,16.806,0,0,1,2.2-2.438c1.854-2.015,2.358-4.957,3.587-7.436a12.977,12.977,0,0,1,10.237-6.993,12.091,12.091,0,0,1,11.023,5.481,18.68,18.68,0,0,1,2.156,6.267,49.693,49.693,0,0,1,.222,17.774,15.6,15.6,0,0,1-2.015,5.783,6.448,6.448,0,0,1-5,3.123c-1.068,0-2.3-.242-3.043.5a2.317,2.317,0,0,0-.6,1.33,7.013,7.013,0,0,0,.5,4.252,23.678,23.678,0,0,1,1.532,5.239c.4,1.914.665,4.212-.806,5.481a4.917,4.917,0,0,1-3.164.887,19.91,19.91,0,0,1-15.98-8.181Z" transform="translate(71.663 48.813)"/><path class="k" d="M134.315,163.593,148.1,119.24,84.38,135.059l34.882,48.565Z" transform="translate(77.747 102.337)"/><path class="l" d="M156.027,139.7a8.061,8.061,0,0,0-2.136-3.627,11.426,11.426,0,0,0-11.124-2.962c-1.854.524-3.567,1.531-5.4,2.156a57.234,57.234,0,0,1-9.794,1.33c-3.265.463-6.751,1.793-8.282,4.715a22.167,22.167,0,0,0-1.411,6.348c-1.088,5.542-5.058,11.043-3.023,16.323s9.753,9.33,12.917,13.763c.806-1.894-.161-5.683-.987-7.577a3.2,3.2,0,0,1-3.184-2.156,6.73,6.73,0,0,1-.987-3.325,3.708,3.708,0,0,1,1.169-3.184,2.519,2.519,0,0,1,3.184.947,7.174,7.174,0,0,1,.967,3.506c4.03-3.849-.383-11.647,3.244-15.9a59.471,59.471,0,0,0,8.524,2.4,21.279,21.279,0,0,0,9.048-1.169C152.843,149.72,157.115,144.259,156.027,139.7Z" transform="translate(68.037 44.235)"/><path class="b" d="M106.026,188.584a10.982,10.982,0,0,0-4.736,3.768,7.879,7.879,0,0,0-.141,7.758,10.076,10.076,0,0,0,6.287,4.776c3.788,1.008,7.8,0,11.607-.967l13.6-3.506a1.773,1.773,0,0,0,.967-.484,1.673,1.673,0,0,0,0-1.511c-.867-3.3-1.431-6.892-2.62-10.076-1.068-2.821-2.338-2.8-5.32-2.882C119.145,185.34,112.031,185.642,106.026,188.584Z" transform="translate(55.102 90.803)"/><path class="j" d="M163.888,185.112a2.942,2.942,0,0,0,1.652-.383,2.8,2.8,0,0,0,.846-1.028,10.539,10.539,0,0,0,1.411-5.159,7.637,7.637,0,0,1,.262-2.62,8.987,8.987,0,0,1,.987-1.572,13.764,13.764,0,0,0,1.39-8.625,8.746,8.746,0,0,0-.645-3.285,6.187,6.187,0,0,0-4.03-3.164,18.44,18.44,0,0,0-5.26-.5,7.013,7.013,0,0,0-3.345.524c-1.531.766-2.338,4.212-2.64,5.8a10.821,10.821,0,0,0,1.431,7.6,11.161,11.161,0,0,1,1.169,2.015c.846,2.3-1.149,5.582.322,7.577A9.108,9.108,0,0,0,163.888,185.112Z" transform="translate(105.499 67.352)"/><path class="b" d="M194.117,143.18v48a38.528,38.528,0,0,0-5.3-4.957,48.927,48.927,0,0,0-28.393-10.6,9.733,9.733,0,0,1-8.665-5.642h0a10.378,10.378,0,0,1-.826-5.36,9.572,9.572,0,0,1,9.794-8.061C166.167,156.339,176.847,154.324,194.117,143.18Z" transform="translate(101.827 53.192)"/><ellipse class="b" cx="12.373" cy="23.96" rx="12.373" ry="23.96" transform="translate(284.623 196.356)"/><ellipse class="m" cx="12.373" cy="23.96" rx="12.373" ry="23.96" transform="translate(284.623 196.356)"/><path class="n" d="M168.389,150.05l11.224,3.506v12.091L168.288,169.8a48.364,48.364,0,0,1,.1-19.748Z" transform="translate(117.605 59.989)"/><path class="b" d="M157.12,165h6.993v6.146a3.506,3.506,0,0,1-3.506,3.506h0a3.506,3.506,0,0,1-3.506-3.506h0V165Z" transform="translate(108.209 73.336)"/><ellipse class="b" cx="2.841" cy="6.045" rx="2.841" ry="6.045" transform="translate(294.089 213.518)"/><path class="o" d="M188.368,172.672a48.927,48.927,0,0,0-28.393-10.6,9.733,9.733,0,0,1-8.665-5.642c.262.282,3.264,3.144,11.708,1.713,8.867-1.511,21.119,2.982,21.119,2.982Z" transform="translate(102.341 65.653)"/><path class="h" d="M130.551,202.461h-8.5a2.378,2.378,0,0,1-2.479-2.277,2.216,2.216,0,0,1,0-.806l4.03-17.794a4.03,4.03,0,0,1,3.768-3.083h8.484a2.708,2.708,0,0,1,2.479,3.083l-4.03,17.794A4.03,4.03,0,0,1,130.551,202.461Z" transform="translate(73.178 84.609)"/><path class="j" d="M125.029,184.976a8.685,8.685,0,0,1,.887-1.189,2.478,2.478,0,0,1,1.713-.746.524.524,0,0,1,.383.121.947.947,0,0,1,.121.3c.1.584.141,1.169.282,1.733a2.781,2.781,0,0,0,.846,1.511c.907.746,2.66.262,3.708.141l4.433-.5a3.1,3.1,0,0,1,2.64.5c.866.846.484,2.277,0,3.406-1.35,3.345-3.123,6.993-6.509,8.262-4.03,1.531-8.544-.947-12.8-.282-2.378.363-5.018,1.27-6.428-1.37a4.292,4.292,0,0,1,.242-4.655A13.864,13.864,0,0,1,119,189.57a24.8,24.8,0,0,0,3.889-2.539,15.42,15.42,0,0,0,1.793-1.632Z" transform="translate(67.711 88.858)"/><path class="a" d="M232.291,165.277a30.066,30.066,0,1,1,0-.322Z" transform="translate(121.156 45.827)"/><circle class="g" cx="8.947" cy="8.947" r="8.947" transform="translate(313.446 199.389)"/><path class="g" d="M215.74,169.4a30.227,30.227,0,0,1-38.63-1.088,20.151,20.151,0,0,1,38.63,1.088Z" transform="translate(126.172 63.741)"/><rect class="a" width="127.457" height="7.799" transform="translate(377.183 188.438)"/><rect class="a" width="127.457" height="7.799" transform="translate(377.183 201.311)"/><rect class="a" width="127.457" height="7.799" transform="translate(377.183 214.184)"/><rect class="a" width="127.457" height="7.799" transform="translate(377.183 227.058)"/><path class="a" d="M212.614,121.057A30.227,30.227,0,1,1,182.387,90.83h0a30.227,30.227,0,0,1,30.227,30.227Z" transform="translate(102.713 7.814)"/><circle class="g" cx="8.947" cy="8.947" r="8.947" transform="translate(275.15 116.659)"/><path class="g" d="M195.89,125.208a30.227,30.227,0,0,1-38.65-1.108,20.151,20.151,0,0,1,38.65,1.108Z" transform="translate(107.798 25.241)"/><rect class="a" width="127.457" height="7.799" transform="translate(339.221 105.594)"/><rect class="a" width="127.457" height="7.799" transform="translate(339.221 118.468)"/><rect class="a" width="127.457" height="7.799" transform="translate(339.221 131.322)"/><rect class="a" width="127.457" height="7.799" transform="translate(339.221 144.196)"/><circle class="b" cx="11.607" cy="11.607" r="11.607" transform="translate(463.775 86.714)"/><path class="b" d="M89.153,202.179,59.571,157.846a4.312,4.312,0,0,1,1.068-6.045h0l24.988-16.544a4.252,4.252,0,0,1,1.532-.625,4.312,4.312,0,0,1,4.413,1.814l29.582,44.333a4.312,4.312,0,0,1,.524,3.607,4.212,4.212,0,0,1-1.713,2.317L95.077,203.368a4.272,4.272,0,0,1-5.9-1.149Z" transform="translate(20.294 45.117)"/><path class="p" d="M89.153,202.179,59.571,157.846a4.312,4.312,0,0,1,1.068-6.045h0l24.988-16.544a4.252,4.252,0,0,1,1.532-.625,4.312,4.312,0,0,1,4.413,1.814l29.582,44.333a4.312,4.312,0,0,1,.524,3.607,4.212,4.212,0,0,1-1.713,2.317L95.077,203.368a4.272,4.272,0,0,1-5.9-1.149Z" transform="translate(20.294 45.117)"/><path class="b" d="M89.784,203.117,60.2,158.784a4.292,4.292,0,0,1,1.189-5.945l24.887-16.484a4.3,4.3,0,0,1,5.924,1.189l29.582,44.333a4.272,4.272,0,0,1-1.169,5.925L95.709,204.387a4.272,4.272,0,0,1-5.924-1.27Z" transform="translate(21.013 46.063)"/><path class="q" d="M108.415,185.485,73.19,175.793l.705-40.142a4.292,4.292,0,0,1,4.393,1.814L107.87,181.8A4.191,4.191,0,0,1,108.415,185.485Z" transform="translate(34.927 46.57)"/><path class="r" d="M66.54,110.61l-25.35.06L68.979,152.4l9.935-23.94L66.319,125Z" transform="translate(41.818 95.665)"/></g></svg>