<svg xmlns="http://www.w3.org/2000/svg" xmlns:xlink="http://www.w3.org/1999/xlink" width="338.019" height="279.869" viewBox="0 0 338.019 279.869"><defs><style>.a,.b,.k{fill:#ffbaad;}.a{opacity:0.18;isolation:isolate;}.c{fill:url(#a);}.d{fill:#f9ba9f;}.e{fill:#ff681c;}.f{fill:url(#b);}.g{fill:#fff;}.h{fill:url(#c);}.i{fill:#d45319;}.j{fill:url(#d);}.k{opacity:0.32;}.l{fill:url(#e);}.m{fill:url(#f);}</style><linearGradient id="a" x1="-0.016" y1="-0.509" x2="1.27" y2="1.992" gradientUnits="objectBoundingBox"><stop offset="0.01"/><stop offset="0.13" stop-opacity="0.69"/><stop offset="0.25" stop-opacity="0.322"/><stop offset="1" stop-opacity="0"/></linearGradient><linearGradient id="b" x1="0.644" y1="0.195" x2="-0.108" y2="1.787" xlink:href="#a"/><linearGradient id="c" x1="1.781" y1="0.149" x2="-1.48" y2="0.998" xlink:href="#a"/><linearGradient id="d" x1="2.918" y1="0.281" x2="-2.085" y2="0.792" xlink:href="#a"/><linearGradient id="e" x1="-0.182" y1="0.084" x2="6.772" y2="4.21" gradientUnits="objectBoundingBox"><stop offset="0.01" stop-color="#fff"/><stop offset="0.13" stop-color="#fff" stop-opacity="0.69"/><stop offset="0.15" stop-color="#fff" stop-opacity="0.612"/><stop offset="0.2" stop-color="#fff" stop-opacity="0.471"/><stop offset="0.25" stop-color="#fff" stop-opacity="0.341"/><stop offset="0.3" stop-color="#fff" stop-opacity="0.231"/><stop offset="0.36" stop-color="#fff" stop-opacity="0.149"/><stop offset="0.44" stop-color="#fff" stop-opacity="0.078"/><stop offset="0.52" stop-color="#fff" stop-opacity="0.031"/><stop offset="0.65" stop-color="#fff" stop-opacity="0.012"/><stop offset="1" stop-color="#fff" stop-opacity="0"/></linearGradient><linearGradient id="f" x1="-0.182" y1="0.084" x2="6.773" y2="4.21" xlink:href="#e"/></defs><g transform="translate(-0.073 -0.049)"><path class="a" d="M352.8,208.46c-.66,11.57-2,23.32-6.66,33.92-8.51,19.39-27.5,32.79-47.84,38.69a108.4,108.4,0,0,1-15.78,3.28c-15.58,2.11-31.61,1.19-47.27-.74-13.44-1.66-26.8-4.06-40.22-5.9-7.56-1-15.15-1.9-22.76-2.35-14.57-.85-29.17-.21-43.73.84-.68,0-1.37.09-2,.15-13.23,1-26.67,2.27-39.76.67a77.461,77.461,0,0,1-9-1.6q-2.29-.54-4.53-1.26C58.2,269.39,45,259.38,33.39,249.05c-11.95-10.63-17.55-27.11-18.09-42.77-.64-18.44-3.14-49.23,59.42-99.73C87.86,95.89,86.75,75,93,59.26c9-22.57,27.44-41.82,50.61-49.15,10-3.18,20.63-4.13,31.14-4a164.34,164.34,0,0,1,39.6,5.18c24.44,6.25,53.44,18.94,71.87,38.43a76.7,76.7,0,0,1,8.6,10.83c15.7,24.08,13.93,55.41,30.09,79.34,7,10.33,17,18.55,22.56,29.72C353.4,181.41,353.56,195.24,352.8,208.46Z" transform="translate(-15.03 -6.05)"/><path class="b" d="M128.54,276.2c-.68,0-1.37.09-2,.15-13.23,1-26.67,2.27-39.76.67a77.461,77.461,0,0,1-9-1.6q-2.29-.54-4.53-1.26C71.91,231.5,108.54,175,113,168.22l13.73.58,43.39,1.83C130.89,207.87,127.21,252.66,128.54,276.2Z" transform="translate(-15.03 -6.05)"/><path class="c" d="M128.54,276.2c-.68,0-1.37.09-2,.15-13.23,1-26.67,2.27-39.76.67a77.461,77.461,0,0,1-9-1.6q-2.29-.54-4.53-1.26C71.91,231.5,108.54,175,113,168.22l13.73.58,43.39,1.83C130.89,207.87,127.21,252.66,128.54,276.2Z" transform="translate(-15.03 -6.05)"/><path class="b" d="M128,167.56c-.44.41-.87.82-1.29,1.24C86.47,208,84.83,255.05,86.73,277a77.46,77.46,0,0,1-9-1.6q-2.29-.54-4.53-1.26C71.91,231.5,108.54,175,113,168.22l.45-.66Z" transform="translate(-15.03 -6.05)"/><path class="d" d="M228.07,77c-1.64,3-1.13,6.62-1.85,9.93a22.386,22.386,0,0,1-.82,2.76c-1.26,3.62-2.85,7.34-5.88,9.69a6,6,0,0,0-2.23,2.26,3.19,3.19,0,0,0,.51,2.89,9.52,9.52,0,0,0,2.24,2c-.17,1.73-.12,3.78-.3,5.5-.39,3.81-.64,8.1,1.88,11,2,2.23,5.08,3,8,3.34s6,.52,8.62,2c5.52,3.07,7,10.87,12.49,14a13.8,13.8,0,0,0,5.27,1.55,18.08,18.08,0,0,0,11.29-2.08c3.35-2,14.31-5.26,11.34-7.79-3.24-2.75-8.21-10.55-10.53-14.7a45.36,45.36,0,0,1-5.19-14.86c-.7-4.35-.77-8.77-1.42-13.12s-2-8.75-4.79-12.13c-4.21-5-11.09-7-17.63-7.37a15.82,15.82,0,0,0-5.45.4,6.7,6.7,0,0,0-4.23,3.27" transform="translate(-15.03 -6.05)"/><path class="e" d="M292.51,97.44a21.2,21.2,0,0,1-1.89,6.67,13,13,0,0,1-2.41,3.86c-2,1.78-2.06,4.79-3.29,7.14a11.56,11.56,0,0,1-3.41,3.79,21.28,21.28,0,0,1-19.82,2.91l-1-.38a46.29,46.29,0,0,1-8.31-5A1.1,1.1,0,0,1,252,116c-.17-.42.19-.84.51-1.17a11.5,11.5,0,0,0,3.26-8.2,5.6,5.6,0,0,0-1.13-3.6,2.84,2.84,0,0,0-3.46-.76c-1,.57-2,1.93-2.86,1.2a1.7,1.7,0,0,1-.44-1A24.73,24.73,0,0,0,246.13,96a25.089,25.089,0,0,0-4.3-5.42A50.74,50.74,0,0,1,232.57,76a2.16,2.16,0,0,0-.84-1.19,2.2,2.2,0,0,0-1.22-.16,35.669,35.669,0,0,1-5.47-.1,4.17,4.17,0,0,1-2.56-.88c-1.24-1.19-.68-3.31.32-4.7,2.27-3.19,6.06-4.86,9.67-6.37-.93-.61-2.4-1.95-3.33-2.56a1.7,1.7,0,0,1-.74-.76c-.2-.62.4-1.22,1-1.52a5.66,5.66,0,0,1,3.39-.55c-.17-2.76-3.13-5.32-2-7.84.77-1.66,3-2.09,4.78-1.65s3.32,1.53,5.05,2.11c.39-1.21-.69-2.47-.49-3.73A2.47,2.47,0,0,1,242,44.26a5.56,5.56,0,0,1,2.77.16,14.44,14.44,0,0,1,5.68,3,16.64,16.64,0,0,0,3.23,2.65c2.34,1.21,5.15.54,7.78.54a25.26,25.26,0,0,1,9,2.05A54.271,54.271,0,0,1,276,55.1a32,32,0,0,1,6.67,4.44c5.12,4.5,8.32,10.91,9.73,17.57A56.911,56.911,0,0,1,292.51,97.44Z" transform="translate(-15.03 -6.05)"/><path class="b" d="M44.59,59.39l5.1-5.34L170.9,59.39l28.18,99.84-5.1,5.34H67.42Z"/><path class="f" d="M44.59,59.39l5.1-5.34L170.9,59.39l28.18,99.84-5.1,5.34H67.42Z"/><path class="b" d="M49.69,54.05H176l23.08,105.18H72.52Z"/><path class="g" d="M54.79,57.64H172.48l21.5,98H76.06Z"/><path class="d" d="M161.68,202.06a4.27,4.27,0,0,1-2.35,3.33c-1.84,1.08-4.09,1.14-6.23,1.17a10.24,10.24,0,0,1-4.38-.57,11.6,11.6,0,0,1-3.17-2.51c-5.2-5-12.11-8.79-14.69-15.5-1.25-3.26-1.31-6.83-1.35-10.3,0-3.69,0-7.74,2.45-10.51,1.91-2.19,5.07-3.3,6.31-5.93a23.47,23.47,0,0,1-5.62-4.41,8,8,0,0,1-2-6.62,39.45,39.45,0,0,1,8.27,3.87,41.61,41.61,0,0,1,18.76,26.45c1,4.81,1.1,9.81,2.42,14.56C160.69,197.29,161.94,199.85,161.68,202.06Z" transform="translate(-15.03 -6.05)"/><path class="h" d="M161.68,202.06a3.71,3.71,0,0,0-1.25.91c-1.35,2-4.68,1.49-6.38-.26s-2.36-4.22-3.52-6.37c-2.9-5.45-9.18-9.55-9.16-15.72,0-4.77,4-9,3.64-13.69-.2-2.48-1.55-4.5-3-6.38a23.56,23.56,0,0,1-3.07-6.47,41.61,41.61,0,0,1,18.76,26.45c1,4.81,1.1,9.81,2.42,14.56C160.69,197.29,161.94,199.85,161.68,202.06Z" transform="translate(-15.03 -6.05)"/><path class="g" d="M289.21,266.84c-1.23,6.15-3.07,12.51-6.69,17.51-.52.07-1,.14-1.56.19q-4.68.57-9.4.81a210.1,210.1,0,0,1-36.31-1.74c-13.44-1.66-26.8-4.06-40.22-5.9a10.6,10.6,0,0,1,2.14-1.85,34.1,34.1,0,0,0,13.7-25.48,5.13,5.13,0,0,0-2.68-.86c-2.54-.24-5.81.31-7.68.08-15.54-1.95-54.65-40.08-54.65-40.08l19.43-9.72,28.91,9.72s31.09-48.82,43.72-62.83,35.41-14.3,35.41-14.3a25.461,25.461,0,0,1,8.08,1h0c15.48,4.53,23.46,23.3,24.5,39.19C308,203.84,295.25,236.69,289.21,266.84Z" transform="translate(-15.03 -6.05)"/><path class="i" d="M292.51,97.44a21.2,21.2,0,0,1-1.89,6.67,13,13,0,0,1-2.41,3.86c-2,1.78-2.06,4.79-3.29,7.14a11.56,11.56,0,0,1-3.41,3.79,21.28,21.28,0,0,1-19.82,2.91l-1-.38a8.8,8.8,0,0,1-1-2.17l4-.14a6,6,0,0,0-1.6-3.76l9.11-.18a5.68,5.68,0,0,0,5.95-3.55c1.38-2.14,2.81-4.48,2.58-7a11.58,11.58,0,0,0-1.53-4.19c-2-3.91-4-8-4.56-12.33s.73-9.22,4.22-11.92a7.36,7.36,0,0,0,1.92-1.72,4.13,4.13,0,0,0,.44-2.69c-.46-4.18-3.71-7.43-6.77-10.33L266.68,55c.76.73,4.22.82,5.35,1.18a55.791,55.791,0,0,1,5.59,2.26c-.28-.83-1-2-1.63-3.34a32,32,0,0,1,6.67,4.44c5.12,4.5,8.32,10.91,9.73,17.57a56.911,56.911,0,0,1,.12,20.33Z" transform="translate(-15.03 -6.05)"/><path class="j" d="M289.21,266.84c-1.23,6.15-3.07,12.51-6.69,17.51-.52.07-1,.14-1.56.19-13.93,1.39-27,2.55-40.84-.48-2.15-.47-4.69-1.41-5.07-3.58a5.9,5.9,0,0,1,.92-3.56c9.48-19.14,15.55-41.34,15.29-62.8-5.16-.65-11.53,9.34-15.29,12.75l-13.83,12.54c-6,5.4-12.9,11.16-20.91,10.53-4.72-.37-8.94-2.94-13-5.44L174,235.58c-4.19-2.61-8.74-5.7-9.84-10.52,6.69.51,12.55,4.39,18.55,7.38s13.23,5.18,19.26,2.25c4.34-2.11,7.1-6.42,9.68-10.49a771.879,771.879,0,0,1,55.63-77c4.85-5.91,5.66-14.72,14.16-13.77,15.48,4.53,23.46,23.3,24.5,39.19C308,203.84,295.25,236.69,289.21,266.84Z" transform="translate(-15.03 -6.05)"/><path class="a" d="M98.82,83.07a12.42,12.42,0,0,1,3.88-3.29,16.6,16.6,0,0,1,5.59-2.09A15.41,15.41,0,0,1,122,83a21.14,21.14,0,0,1,4.8,14.26,3.06,3.06,0,0,1,3.64,1.38,6.84,6.84,0,0,1,.7,4.12,6.44,6.44,0,0,1-1,3.34,2.86,2.86,0,0,1-3.08,1.19,9.93,9.93,0,0,1-1.88,8.43c-.78,1-1.79,1.89-2,3.12a3.771,3.771,0,0,0,2.44,3.61,38.83,38.83,0,0,0,4.46,1.31,14.17,14.17,0,0,1,7.55,6.8,41.831,41.831,0,0,1,3.49,9.77c.18.68.32,1.51-.2,2a1.9,1.9,0,0,1-1.29.35l-39.61,1.23c-.45-4.59-.71-9.78,2.38-13.21,2.39-2.64,6.15-3.45,9.65-4.13a14.23,14.23,0,0,0-1.39-5.84,3.4,3.4,0,0,0-1.09-1.44,5.5,5.5,0,0,0-1.69-.55c-3.89-1-6-5.19-7-9.08a6.11,6.11,0,0,0-.74-2,6,6,0,0,0-2.12-1.65c-4.83-2.77-5.84-5.86-2.36-10C98.79,92.44,95.78,87.26,98.82,83.07Z" transform="translate(-15.03 -6.05)"/><path class="k" d="M11.4,22.45l16.65,82.43H77.78L63.69,22.45Z"/><path class="k" d="M26.63,134.74l16.64,82.44H93L78.91,134.74Z"/><path class="k" d="M128.07,22.45l16.64,82.43h49.73L180.35,22.45Z"/><path class="l" d="M133.34,13.99l16.64,82.43h49.73L185.62,13.99Z"/><path class="m" d="M20.38,24.7l14.7,72.81H79L66.56,24.7Z"/><path class="l" d="M30.35,131.12l16.64,82.43H96.72L82.63,131.12Z"/></g></svg>