<svg xmlns="http://www.w3.org/2000/svg" xmlns:xlink="http://www.w3.org/1999/xlink" width="407.167" height="365.746" viewBox="0 0 407.167 365.746"><defs><style>.a,.c{fill:#ffbaad;}.a{opacity:0.18;isolation:isolate;}.b{fill:url(#a);}.d{fill:url(#b);}.e{fill:#3e3e54;}.f{fill:url(#c);}.g{fill:url(#d);}.h{fill:url(#e);}.i{fill:url(#f);}.j{fill:url(#g);}.k{fill:url(#h);}.l{fill:url(#i);}.m{fill:url(#j);}.n{fill:url(#k);}.o{fill:url(#l);}.p{fill:url(#m);}.q{fill:url(#n);}.r{fill:url(#o);}.s{fill:url(#p);}.t{fill:url(#q);}.u{fill:none;stroke:#ffbaad;stroke-miterlimit:10;stroke-width:0.88px;}.v{fill:url(#r);}.w{fill:url(#s);}.x{fill:url(#t);}</style><linearGradient id="a" x1="-0.331" y1="-0.414" x2="2.406" y2="2.597" gradientUnits="objectBoundingBox"><stop offset="0" stop-opacity="0"/><stop offset="0.99"/></linearGradient><linearGradient id="b" x1="0.222" y1="0.913" x2="0.796" y2="0.054" xlink:href="#a"/><linearGradient id="c" x1="0.854" y1="0.748" x2="0.49" y2="0.456" xlink:href="#a"/><linearGradient id="d" y1="0.5" x2="1" y2="0.5" gradientUnits="objectBoundingBox"><stop offset="0" stop-color="#e5c5d5"/><stop offset="0.42" stop-color="#ead4d1"/><stop offset="1" stop-color="#f0e9cb"/></linearGradient><linearGradient id="e" x1="-0.003" y1="0.499" x2="0.995" y2="0.499" xlink:href="#d"/><linearGradient id="f" x1="0.694" y1="-0.133" x2="0.428" y2="0.71" xlink:href="#a"/><linearGradient id="g" x1="0.505" y1="1.208" x2="0.492" y2="-0.538" gradientUnits="objectBoundingBox"><stop offset="0.02" stop-color="#fff" stop-opacity="0"/><stop offset="0.32" stop-color="#fff" stop-opacity="0.388"/><stop offset="0.68" stop-color="#fff" stop-opacity="0.678"/><stop offset="1" stop-color="#fff"/></linearGradient><linearGradient id="h" x1="1.705" y1="0.869" x2="-1.972" y2="-0.266" xlink:href="#a"/><linearGradient id="i" x1="0" y1="0.5" x2="0.998" y2="0.5" xlink:href="#d"/><linearGradient id="j" x1="1.287" y1="0.609" x2="-1.931" y2="0.144" xlink:href="#a"/><linearGradient id="k" x1="0.289" y1="1.381" x2="0.808" y2="-0.538" xlink:href="#a"/><linearGradient id="l" x1="0.002" y1="0.499" x2="0.999" y2="0.499" xlink:href="#d"/><linearGradient id="m" x1="0.536" y1="1.202" x2="0.446" y2="-0.53" xlink:href="#g"/><linearGradient id="n" x1="0.528" y1="1.203" x2="0.458" y2="-0.53" xlink:href="#g"/><linearGradient id="o" x1="0.537" y1="1.202" x2="0.446" y2="-0.53" xlink:href="#g"/><linearGradient id="p" x1="0.493" y1="-0.735" x2="0.507" y2="1.932" xlink:href="#g"/><linearGradient id="q" x1="0.626" y1="-0.546" x2="0.4" y2="1.285" xlink:href="#g"/><linearGradient id="r" x1="0.538" y1="-1.565" x2="0.469" y2="2.175" xlink:href="#g"/><linearGradient id="s" x1="0.558" y1="-2.294" x2="0.465" y2="2.206" xlink:href="#g"/><linearGradient id="t" x1="0.513" y1="-0.476" x2="0.483" y2="1.767" xlink:href="#g"/></defs><g transform="translate(-0.001 -0.006)"><path class="a" d="M148.65,31.16c-7.78,11.34-11.89,24.71-17.36,37.32a182,182,0,0,1-52,68.49C64,149.4,46.37,159.65,34.92,175.71,11.73,208.24,21.11,253.62,37.66,290c7.05,15.48,15.4,30.69,27.54,42.59,21.62,21.17,53.4,29.61,83.62,28.05,30.43-1.57,60-12.3,90.5-12,32.27.34,63.09,13,95.08,17.27s69.63-3,85.82-30.91c11.62-20.06,8.91-45.33,2.39-67.58S406.07,223.67,404,200.58C400.66,164.66,416.79,128,408.07,93,404.41,78.34,396.53,65,387,53.27,363,23.94,327.1,4.06,289.3,1.59,275.68.7,262,2,248.43,3.28,216.81,6.29,169.09,1.38,148.65,31.16Z" transform="translate(-21.05 -1.29)"/><rect class="b" width="225.92" height="184.37" rx="13.75" transform="translate(120.57 80.6)"/><rect class="c" width="2.16" height="20.77" transform="translate(103.32 311.3)"/><rect class="d" width="2.16" height="20.77" transform="translate(103.32 311.3)"/><path class="e" d="M166.48,293.66a33.12,33.12,0,0,1,8.71,6.42c7.78,7.48,14.34,16.51,17.45,26.85a2.16,2.16,0,0,1,0,1.69,1.93,1.93,0,0,1-.7.66,13.791,13.791,0,0,1-3.06,1.5l-16.47-17c-2.13-2.2-4.3-4.46-5.56-7.24s-1.62-6.3-3.62-8.76c-.86-1.05-2-1.86-2.82-2.92-1.09-1.37-1.62-3.12.54-3.09C162.68,291.82,165,293,166.48,293.66Z" transform="translate(-21.05 -1.29)"/><path class="f" d="M166.64,294a32.772,32.772,0,0,1,8.71,6.43c7.79,7.47,14.34,16.5,17.46,26.84a2.25,2.25,0,0,1,0,1.69,2.07,2.07,0,0,1-.71.67,13.76,13.76,0,0,1-3.06,1.49l-16.46-17c-2.13-2.2-4.31-4.45-5.57-7.24s-1.61-6.3-3.62-8.76c-.85-1.05-2-1.86-2.82-2.92-1.08-1.37-1.61-3.12.54-3.09C162.84,292.15,165.13,293.28,166.64,294Z" transform="translate(-21.05 -1.29)"/><path class="e" d="M93.91,277.75c-1.65-6.57-3.81-11.52-3.17-17.49a4,4,0,0,1,.48-1.74,3.59,3.59,0,0,1,2.89-1.35,13.49,13.49,0,0,1,8.33,2.45,29.389,29.389,0,0,1,6.32,6.13c5.9,7.29,10.39,15.77,17.17,22.25,1.32,1.27,2.88,2.52,4.71,2.61,5.17.27,10.41,1.45,15.58,1.72,2.65.15,5.42.32,7.69,1.7s5.77,4.59,4.62,7c-.77,1.59-4.43,2.27-6,3.06l-6.43,3.24a44.449,44.449,0,0,1-8.55,3.58,38,38,0,0,1-12.5.63c-3.78-.29-7.64-.78-11-2.49-5.55-2.8-9-8.48-11.5-14.19S95.42,283.78,93.91,277.75Z" transform="translate(-21.05 -1.29)"/><path class="g" d="M111.07,255.12a3.57,3.57,0,0,0,.12,1.22,2.73,2.73,0,0,0,.73,1.05,6.68,6.68,0,0,0,6.22,1.66,1.56,1.56,0,0,0,.93-.53,1.29,1.29,0,0,0,0-1.29c-.19-.4-.5-.75-.72-1.14-.88-1.57-.26-3.53-.51-5.31a5.53,5.53,0,0,0-2.42-3.81c-1-.67-2.87-1.18-3.83-.09-.7.79-.49,2.17-.46,3.14C111.17,251.72,111.11,253.42,111.07,255.12Z" transform="translate(-21.05 -1.29)"/><path class="h" d="M148.7,277.33a10.06,10.06,0,0,1,3,.21,6.65,6.65,0,0,1,2,.65,6.738,6.738,0,0,1,.82.58,4.19,4.19,0,0,1,1.26,1.49,1.74,1.74,0,0,1-.21,1.84.92.92,0,0,1-.53.3,1.61,1.61,0,0,1-1-.33,4.36,4.36,0,0,0-2.09-.51,1.25,1.25,0,0,0-.66.14c-.31.18-.44.56-.67.84a2.32,2.32,0,0,1-1.85.67,5,5,0,0,1-2.82-.89,4.21,4.21,0,0,1-1.67-2.42c-.24-1,.61-1.23,1.34-1.57a9.821,9.821,0,0,1,3.08-1Z" transform="translate(-21.05 -1.29)"/><path class="e" d="M161.38,301.1c-.82-.13-18.95,6.49-22.44,7.95a23.07,23.07,0,0,1-11,2,16.38,16.38,0,0,1-5.14-1.37,8.089,8.089,0,0,1-2.54-1.64,9.86,9.86,0,0,1-2.15-4.41,11.75,11.75,0,0,1-.56-5.11c3.72.07,7.44-1.22,10.91-2.56,13.1-5.05,26.94-9.75,40.88-8.13a8.1,8.1,0,0,1,3.69,1.1,6.07,6.07,0,0,1,2.33,5,20,20,0,0,1-1.1,5.64A107,107,0,0,0,170.12,330a13.451,13.451,0,0,1-4.42.41,2.14,2.14,0,0,1-1.29-.42,2.18,2.18,0,0,1-.54-1.54C163,318.13,161.5,311.76,161.38,301.1Z" transform="translate(-21.05 -1.29)"/><path class="e" d="M164.05,336.57a1.17,1.17,0,0,0,.24.69,1.31,1.31,0,0,0,.77.32,58.07,58.07,0,0,0,15.58.38,2.2,2.2,0,0,0-.75-1.73,6.59,6.59,0,0,0-1.63-1.05L172,332a3.09,3.09,0,0,1-1.34-1c-.25-.42-.31-1-.71-1.28a1.59,1.59,0,0,0-.8-.24c-1.31-.17-3.62-.46-4.47.85C163.61,331.81,163.83,334.82,164.05,336.57Z" transform="translate(-21.05 -1.29)"/><path class="e" d="M190.15,334.33a2.07,2.07,0,0,0,.72.72,2.55,2.55,0,0,0,1.2.17l11.53-.2a2.71,2.71,0,0,0,1.06-.16.93.93,0,0,0,.58-.83,1.22,1.22,0,0,0-.44-.75c-2.86-2.79-7.52-2.54-11-4.55a8.341,8.341,0,0,0-1.72-.91C188.11,326.61,188.9,332.41,190.15,334.33Z" transform="translate(-21.05 -1.29)"/><rect class="c" width="25.54" height="2.38" transform="translate(129.83 283.17)"/><path class="c" d="M177,279.6a27.836,27.836,0,0,1-1.47,2.39,7.6,7.6,0,0,0-1.15,1.88,1.27,1.27,0,0,0,.36,1.55c.57.29,1.23-.19,1.63-.68a14.9,14.9,0,0,0,1.38-2c1.54-2.58,2.92-5.26,4.3-7.94l3.89-7.57a.45.45,0,0,0,.08-.31.43.43,0,0,0-.19-.23c-.72-.48-1.42-.5-1.86.23-.6,1-1.1,2.06-1.65,3.08q-1.67,3.09-3.38,6.17Z" transform="translate(-21.05 -1.29)"/><path class="c" d="M90.6,264.28s10.84,41.61,32.15,45.39c0,0,15.69.17,29.77-5.6,10-4.11,2.36.95,2.36.95s-22.07,15.15-36.79,9.3C106.38,309.67,98.61,311.89,90.6,264.28Z" transform="translate(-21.05 -1.29)"/><path class="i" d="M161.55,301.1c-.83-.13-19,6.49-22.44,7.95a23.11,23.11,0,0,1-11.06,2,16.449,16.449,0,0,1-5.14-1.37,8.16,8.16,0,0,1-2.53-1.64,10,10,0,0,1-2.16-4.41,11.9,11.9,0,0,1-.56-5.11c3.72.07,7.45-1.22,10.92-2.56,13.1-5.05,26.94-9.75,40.88-8.13a8.1,8.1,0,0,1,3.69,1.1,6.1,6.1,0,0,1,2.33,5,20.361,20.361,0,0,1-1.1,5.64A106.32,106.32,0,0,0,170.29,330a13.491,13.491,0,0,1-4.43.41,2.11,2.11,0,0,1-1.28-.42,2.24,2.24,0,0,1-.55-1.54C163.18,318.13,161.67,311.76,161.55,301.1Z" transform="translate(-21.05 -1.29)"/><rect class="c" width="17.96" height="6.92" rx="3.46" transform="translate(94.97 327.96)"/><rect class="c" width="225.92" height="184.37" rx="13.75" transform="translate(117.38 78.02)"/><rect class="c" width="225.92" height="184.37" rx="13.75" transform="translate(117.38 78.02)"/><rect class="j" width="225.92" height="184.37" rx="13.75" transform="translate(117.38 78.02)"/><path class="k" d="M145.55,250.2a9.74,9.74,0,0,1,2.75-1.11c1.51-.49,3.07-1.52,3.27-3.09s-1.18-3.29-.74-4.9a10.56,10.56,0,0,1,1-1.84,1.76,1.76,0,0,0,0-2,1.49,1.49,0,0,0-1.63-.24,4.539,4.539,0,0,0-1.36,1.08l-7.26,7.49a12.28,12.28,0,0,0-2,2.44,7.9,7.9,0,0,0-.86,4.32c0,1,.15,3.89,1.21,4.31C142,257.54,144.19,251.21,145.55,250.2Z" transform="translate(-21.05 -1.29)"/><path class="l" d="M110.26,243.9c.95,3.53,3.94,6.2,7.26,7.73a7.44,7.44,0,0,0,3.08.82,3.34,3.34,0,0,0,2.78-1.35,5.06,5.06,0,0,0,.58-2.78l.12-6.08a10.23,10.23,0,0,0-.32-3.45,5.91,5.91,0,0,0-5.92-3.79,7.49,7.49,0,0,0-5.94,4.11,10.28,10.28,0,0,0-.6,7.36" transform="translate(-21.05 -1.29)"/><path class="e" d="M109.44,234.35a5.691,5.691,0,0,0,1.6-.79c.27-.25.46-.59.71-.86a4.23,4.23,0,0,1,2.74-1c3.34-.35,6.81-.5,10,.62a3.64,3.64,0,0,1,2.34,1.85,3.2,3.2,0,0,1,.16,1.27,4.92,4.92,0,0,1-1,2.8,5.68,5.68,0,0,1-4,1.85,11.941,11.941,0,0,0-1.7.17,2,2,0,0,0-1.34,1c-.35.73,0,1.62-.3,2.38a.71.71,0,0,1-.16.26c-.23.21-.62.08-.84-.15s-.34-.55-.56-.77a1.36,1.36,0,0,0-1.78,0,1.92,1.92,0,0,0-.59,1.77,3.42,3.42,0,0,0,.89,1.7.4.4,0,0,1,.14.26.39.39,0,0,1-.1.19c-.42.52-1.12.74-1.55,1.26s-.49,1.09-1,1.44a2.28,2.28,0,0,1-1.42.28,2.49,2.49,0,0,1-1-.2,2.35,2.35,0,0,1-1-1.64c-.76-3-1-6.1-2.2-8.94C106.73,237.42,107.91,235.07,109.44,234.35Z" transform="translate(-21.05 -1.29)"/><path class="c" d="M144.32,247.39a2.64,2.64,0,0,1-1,1.48l-3.51,3.18L123.6,266.69a11,11,0,0,0-2.29-3c-3-2.95-6.93-5.28-3-7.61,1.3-.76,18.44-10.74,22.22-13.29a1.31,1.31,0,0,1,1.91.47l1.41,2.63a2.62,2.62,0,0,1,.47,1.5Z" transform="translate(-21.05 -1.29)"/><path class="m" d="M140.44,251.22l-.64.74-16.21,14.18a10.75,10.75,0,0,0-2.29-2.9c.53-3.39,4.32-5,6.9-7.14,3.3-2.77,6.7-5.7,11-6.93.62-.18,1.43-.27,1.79.26S140.88,250.7,140.44,251.22Z" transform="translate(-21.05 -1.29)"/><path class="c" d="M132.83,291.1a10.23,10.23,0,0,1-7.46,8,12.37,12.37,0,0,1-12.26-4.55,20.27,20.27,0,0,1-3.24-6.55c-3-9.4-5-21.31-1-30.35.73-1.66,2.71-2.36,4.52-2.59a9.79,9.79,0,0,1,11.5,7.73,32.62,32.62,0,0,1,.9,8.08,18.56,18.56,0,0,0,3,9.32c.33.53.69,1.05,1,1.58,1.46,2.23,2.87,4.53,3.14,7.15a7.6,7.6,0,0,1-.1,2.18Z" transform="translate(-21.05 -1.29)"/><path class="n" d="M132.83,291.1a63.562,63.562,0,0,1-7.92.5,28.13,28.13,0,0,1-7.72-.75,11.86,11.86,0,0,1-6.46-4.08c-2.66-3.52-2.43-8.34-2.55-12.75-.07-2.36-.26-4.84.76-7a6.79,6.79,0,0,1,4.39-3.61,7.63,7.63,0,0,1,5.08.56c1.34.68,1.51,2.08,1.75,3.46.7,4.11.13,8.36,1.21,12.42a2.58,2.58,0,0,0,.63,1.28,2.88,2.88,0,0,0,1.92.54c1.94.06,3.88.1,5.83.13,1.46,2.23,2.87,4.53,3.14,7.15A7.6,7.6,0,0,1,132.83,291.1Z" transform="translate(-21.05 -1.29)"/><path class="c" d="M121.37,275.9a2.58,2.58,0,0,0,.63,1.28,2.84,2.84,0,0,0,1.92.54q10.12.33,20.26,0a1.48,1.48,0,0,1,.78.12,1.33,1.33,0,0,1,.41.44A4.08,4.08,0,0,1,145,283a7,7,0,0,1-2.76,1.74c-5.45,2.24-11.44,2.86-17.34,2.91a28.522,28.522,0,0,1-7.72-.75,11.9,11.9,0,0,1-6.46-4.09c-2.66-3.52-2.42-8.33-2.55-12.74-.07-2.37-.25-4.85.76-7a6.76,6.76,0,0,1,4.39-3.61,7.69,7.69,0,0,1,5.08.56c1.34.68,1.52,2.08,1.75,3.47C120.86,267.6,120.29,271.85,121.37,275.9Z" transform="translate(-21.05 -1.29)"/><path class="o" d="M144,239.1a26.3,26.3,0,0,1,5.69-3.38.9.9,0,0,1,.72-.13.62.62,0,0,1,.34.59c0,1-1.4,1.44-1.86,2.36s0,1.83.16,2.76a4.25,4.25,0,0,1-1.38,3.55c-1.44,1.35-5.18,2.52-6.52.38S142.61,240.27,144,239.1Z" transform="translate(-21.05 -1.29)"/><rect class="p" width="19.34" height="109.32" transform="translate(145.91 121.81)"/><rect class="q" width="19.34" height="85" transform="translate(177.64 146.13)"/><rect class="r" width="19.34" height="109.32" transform="translate(209.37 121.81)"/><path class="s" d="M344,161.65a38.767,38.767,0,0,1-.25,4.34,37.56,37.56,0,1,1-41.65-41.65,39.088,39.088,0,0,1,4.35-.25A37.56,37.56,0,0,1,344,161.65Z" transform="translate(-21.05 -1.29)"/><path class="t" d="M344,161.65a38.767,38.767,0,0,1-.25,4.34H302.06V124.34a39.088,39.088,0,0,1,4.35-.25A37.56,37.56,0,0,1,344,161.65Z" transform="translate(-21.05 -1.29)"/><path class="u" d="M297.89,141.47l13.37-23.45h41.08"/><path class="u" d="M276.06,179.82l27.14,27.15h55.41"/><path class="u" d="M154.91,173.62,138.39,157.1H79.88"/><rect class="c" width="32.06" height="24.46" rx="6.78" transform="translate(349.6 104.87)"/><rect class="c" width="32.06" height="24.46" rx="6.78" transform="translate(349.6 194.12)"/><rect class="c" width="32.06" height="24.46" rx="6.78" transform="translate(63.85 144.87)"/><rect class="v" width="32.06" height="24.46" rx="6.78" transform="translate(349.6 104.87)"/><rect class="w" width="32.06" height="24.46" rx="6.78" transform="translate(349.6 194.12)"/><rect class="x" width="32.06" height="24.46" rx="6.78" transform="translate(63.85 144.87)"/></g></svg>