<svg xmlns="http://www.w3.org/2000/svg" xmlns:xlink="http://www.w3.org/1999/xlink" width="410.543" height="325.604" viewBox="0 0 410.543 325.604"><defs><style>.a,.b{fill:#ffbaad;}.a{opacity:0.19;isolation:isolate;}.c{fill:url(#a);}.d{fill:url(#b);}.e{fill:url(#c);}.f{fill:#25233a;}.g{fill:url(#d);}.h{fill:url(#e);}.i{fill:url(#f);}.j{fill:url(#g);}.k{fill:url(#h);}.l{fill:url(#i);}.m{fill:url(#j);}.n{fill:url(#k);}.o{fill:url(#l);}.p{fill:url(#m);}.q{fill:url(#n);}.r{fill:url(#o);}.s{fill:url(#p);}.t{fill:url(#q);}.u{fill:url(#r);}.v{fill:url(#s);}.w{fill:url(#t);}.x{fill:url(#u);}</style><linearGradient id="a" x1="0.831" y1="0.169" x2="0.233" y2="1.098" gradientUnits="objectBoundingBox"><stop offset="0" stop-opacity="0"/><stop offset="0.88" stop-opacity="0.8"/><stop offset="0.97"/></linearGradient><linearGradient id="b" y1="0.5" x2="1" y2="0.5" gradientUnits="objectBoundingBox"><stop offset="0" stop-color="#ecc4d7"/><stop offset="0.42" stop-color="#efd4d1"/><stop offset="1" stop-color="#f2eac9"/></linearGradient><linearGradient id="c" x1="0" y1="0.5" x2="1.001" y2="0.5" xlink:href="#b"/><linearGradient id="d" x1="0" y1="0.5" x2="1" y2="0.5" xlink:href="#b"/><linearGradient id="e" x1="0" y1="0.5" x2="1" y2="0.5" xlink:href="#b"/><linearGradient id="f" x1="-0.007" y1="0.498" x2="0.995" y2="0.498" xlink:href="#b"/><linearGradient id="g" x1="0.347" y1="0.448" x2="3.025" y2="1.476" xlink:href="#b"/><linearGradient id="h" x1="0.009" y1="0.623" x2="1.057" y2="0.407" xlink:href="#a"/><linearGradient id="i" x1="-0.137" y1="0.29" x2="1.644" y2="0.899" xlink:href="#a"/><linearGradient id="j" x1="0.443" y1="0.466" x2="1.258" y2="1.076" xlink:href="#b"/><linearGradient id="k" x1="-1.06" y1="0.598" x2="1.07" y2="0.457" xlink:href="#a"/><linearGradient id="l" x1="-0.01" y1="0.294" x2="0.771" y2="0.67" xlink:href="#a"/><linearGradient id="m" x1="0.151" y1="0.125" x2="0.845" y2="0.696" xlink:href="#a"/><linearGradient id="n" x1="-1.095" y1="0.246" x2="2.46" y2="0.784" xlink:href="#a"/><linearGradient id="o" x1="0.5" y1="-1.37" x2="0.5" y2="1.872" xlink:href="#a"/><linearGradient id="p" x1="0.594" y1="0.058" x2="0.352" y2="0.945" xlink:href="#b"/><linearGradient id="q" x1="2.182" y1="0.356" x2="-1.384" y2="0.662" xlink:href="#a"/><linearGradient id="r" x1="2.14" y1="0.301" x2="-1.539" y2="0.713" xlink:href="#a"/><linearGradient id="s" x1="-0.639" y1="0.058" x2="3.159" y2="1.533" gradientUnits="objectBoundingBox"><stop offset="0" stop-color="#fff" stop-opacity="0"/><stop offset="0.84" stop-color="#fff" stop-opacity="0.839"/><stop offset="0.97" stop-color="#fff"/></linearGradient><linearGradient id="t" x1="1.566" y1="-0.058" x2="-0.672" y2="1.098" xlink:href="#a"/><linearGradient id="u" x1="-0.831" y1="0.533" x2="1.019" y2="0.484" xlink:href="#a"/></defs><g transform="translate(0.015 -0.003)"><path class="a" d="M401.879,243.526c-12.479,23.606-37.251,40.92-63.516,40.756-9.436-.066-18.928-2.251-28.251-.635-6.457,1.13-12.527,4.057-18.565,6.8-30.842,14.091-68.077,23.779-97.28,6.423-17.128-10.183-30.39-29.089-50.044-31.241-12.212-1.336-23.973,4.287-35.37,8.971-16.4,6.736-34.539,11.815-51.61,7.132-17.96-4.947-31.294-19.73-40.189-36.8a117.865,117.865,0,0,1-5.892-13.192c-13.778-36.6-12.818-80.744,9.977-112.3,17.209-23.878,44.491-37.96,71.935-47.525,63-21.948,124.482-.536,189.338-4.279,17.572-1.014,35.814-2.671,52.232,3.793,13.068,5.137,23.8,15.006,33.336,25.477,17.887,19.648,32.9,42.611,40.165,68.393a120.534,120.534,0,0,1,4.464,28.61C413.172,211.148,409.87,228.4,401.879,243.526Z" transform="translate(-2.14 -61.87)"/><path class="a" d="M401.975,282.19c-12.366,28.63-36.915,49.63-62.943,49.43-9.351-.08-18.757-2.73-28-.77-6.4,1.37-12.414,4.92-18.4,8.25-30.564,17.09-67.463,28.84-96.4,7.79-16.974-12.35-30.116-35.28-49.593-37.89-12.1-1.62-23.757,5.2-35.051,10.88-16.254,8.17-34.227,14.33-51.145,8.65-17.8-6-31.012-23.93-39.826-44.63,6.743-3.86,14.806-1.82,22.269-.5,22.605,3.971,45.648.168,66.655-11,22.309-11.94,45.594-31.75,71-24.53,24.8,7,48.329,30.9,74.854,26,9.879-1.82,18.829-8.28,26.788-15.8,17.814-16.84,31.876-39.41,50.265-55.25s44.146-23.75,62.679-8.17c7.887,6.63,13.358,16.55,17.47,27.41C413.166,242.92,409.894,263.85,401.975,282.19Z" transform="translate(-2.14 -93.313)"/><path class="b" d="M377.13,111.35l24.72,39L383.1,161.82l-24.56,5.35Z" transform="translate(-75.576 -17.994)"/><path class="c" d="M377.13,111.35l24.72,39L383.1,161.82l-24.56,5.35Z" transform="translate(-75.576 -17.994)"/><path class="d" d="M208.36,337.81c.27.05,11.15,72.84,11.15,72.84s7.91,1.9,7.63,0,1.09-25.18,2.71-29.78-3-43.06-3-43.06Z" transform="translate(-43.692 -113.87)"/><path class="e" d="M243.66,337.32s1.63,36.78,4.87,46,7.31,28.19,7.31,28.19h10L264,336.55S252.6,329,243.66,337.32Z" transform="translate(-50.839 -113.87)"/><path class="b" d="M217.44,405.75c2.48-.32,5,.74,7.47.47a12,12,0,0,1,3.15-.31.69.69,0,0,1,.44.2.72.72,0,0,1,.11.48v3.3c0,1.59,0,3.33-1,4.58s-2.86,1.7-4.53,1.84a3.5,3.5,0,0,1-1.61-.13,3.75,3.75,0,0,1-1.3-1.05c-1.11-1.21-1.95-1.91-2.1-3.54C218.05,411.07,217.52,405.75,217.44,405.75Z" transform="translate(-44.592 -113.87)"/><path class="b" d="M265.05,407.2a1.05,1.05,0,0,1,1.27,1.22,30.518,30.518,0,0,1-.46,7.07,5,5,0,0,1-.5,1.8c-.72,1.26-2.33,1.64-3.77,1.72-2.19.14-4.67-.27-6-2a8.3,8.3,0,0,1-1.17-3.53c-.23-1.3-.69-2.55-.9-3.84-.19-1.11.1-1.65,1.23-1.81,1.59-.24,3.25-.27,4.86-.37C261.44,407.32,263.25,407.24,265.05,407.2Z" transform="translate(-51.867 -113.87)"/><path class="f" d="M199.75,433.74a3.5,3.5,0,0,0,.18,1.84,4.14,4.14,0,0,0,2.6,2.08c3.64,1.25,14.78-6.34,18.3-7.89a52.375,52.375,0,0,0,8.85-4.77c.28-.2-.45-10-.65-11.49a.84.84,0,0,0-.24-.61,1,1,0,0,0-.48-.14c-1.68-.14-3.37,0-5.06,0a22.439,22.439,0,0,1-2.59-.11,12.349,12.349,0,0,0-2.36-.43c-1.28.14-3.74,4.16-4.85,4.78C200.76,424.11,200.09,431.36,199.75,433.74Z" transform="translate(-42.63 -113.87)"/><path class="f" d="M253.41,422.27a8.7,8.7,0,0,0-.24,2.91c.29,1.51,1.6,2.59,2.83,3.52,2.25,1.69,14.51,13.94,21.64,10a2.75,2.75,0,0,0,1-1.24,5.13,5.13,0,0,0,.45-1.82,13.4,13.4,0,0,0-1.71-7.88c-1.22-2.1-8.54-8.51-9.28-10.82-.45-1.4-.59-3.11-1.84-3.9a1,1,0,0,0-.58-.19,1.58,1.58,0,0,0-.85.39c-2.18,1.46-5,1.08-7.5.72-.73-.11-2.28-1-2.88-.6-.89.62-.78,3.1-.82,4a41.779,41.779,0,0,1-.22,4.91Z" transform="translate(-53.152 -113.87)"/><path class="g" d="M269.49,166.71s33.94-21.14,34.48-21.6,34.84-28.34,38.75-32.25,6.89-10.56,12.36-8.4,5.59,10.69-1.38,18.46c-.83.93-6.26.81-6.46,1.06-.47.56-1.48,1.65-4.51,5s-21.58,23.47-32.36,28.63S278.71,185,278.71,185Z" transform="translate(-64.717 -61.87)"/><path class="h" d="M197.17,169.47c-1.37,1.6-31.71-15.48-31.71-15.48l-35.81-36.41s-6.16-5.37-10.53,2,6.61,14.56,6.61,14.56l7.17,1.16s17.38,28.9,21.67,30.35,35.75,27,36.05,23.66S197.17,169.47,197.17,169.47Z" transform="translate(-28.619 -67.465)"/><path class="f" d="M212.07,136.71c-.94,9.52.76,19.77,7,27,1.47,1.72,3.26,3.42,3.52,5.67a17.689,17.689,0,0,1-.21,3.32,4,4,0,0,0,.86,3.11,1.85,1.85,0,0,0,2.85-.22l2.54,5.37a2.39,2.39,0,0,0,1,1.25,2.22,2.22,0,0,0,1.35,0,20.19,20.19,0,0,0,7.9-3.3,2.54,2.54,0,0,1,1-.52c1.65-.26,2,2.55,3.59,3.16,1.2.47,2.42-.57,3.29-1.52l3.46-3.75a5.75,5.75,0,0,0,2.88,2.81,12.889,12.889,0,0,1,1.55-3,15.54,15.54,0,0,0,.58,5.51l1.75-2.17c.16-.21.37-.44.64-.42a.85.85,0,0,1,.47.26l2.86,2.53c-1.48-4.37-.82-9.15.22-13.63s2.45-9,2.44-13.56c0-5.91-2.36-11.53-4.66-17a29.69,29.69,0,0,0-3.8-7.12c-2.34-3-5.68-4.9-9-6.65a28.09,28.09,0,0,0-9.17-3.4,29.71,29.71,0,0,0-7.59.25q-4,.48-8.05,1c-2.32.33-3.36.46-4.84,2.28C213.59,127.63,212.51,132.25,212.07,136.71Z" transform="translate(-47.161 -71.498)"/><path class="i" d="M255,149.79a3.72,3.72,0,0,1-.37,2.42,16.681,16.681,0,0,1-1.34,2.11,13.072,13.072,0,0,1-1.33,1.8,3,3,0,0,1-1.95,1c-2.82.09-1.72-4.63-.78-6.11C250.26,149.28,254.15,146.32,255,149.79Z" transform="translate(-50.241 -74.044)"/><path class="j" d="M251.1,151.75a6.291,6.291,0,0,0,.57-1.05,1.94,1.94,0,0,1,.77-.9.89.89,0,0,1,1.09.14c.32.4.11,1-.14,1.42-.58,1-.56,2.62-1.47,3.36a6.9,6.9,0,0,1-1.48.76,4.18,4.18,0,0,1-2,0c-.27-.2.34-1.55.31-1.89a2.123,2.123,0,0,1,.11-1c.11-.16.59,0,.79,0a2.1,2.1,0,0,0,1.45-.84Z" transform="translate(-50.126 -74.154)"/><path class="b" d="M76.32,181.37,50.13,213l38.95,34.61,11.07-10,3.71-53.13C104,183,76.32,181.37,76.32,181.37Z" transform="translate(-2.14 -81.827)"/><path class="k" d="M76.32,181.37,50.13,213l38.95,34.61,11.07-10,3.71-53.13C104,183,76.32,181.37,76.32,181.37Z" transform="translate(-2.14 -81.827)"/><path class="b" d="M279.55,183.32a3.31,3.31,0,0,1-.84,1.69,55.7,55.7,0,0,1-5.34,6.33c-3,2.91-6.69,5.25-8.68,8.92-2.84,5.25-.65,53.68-.44,62.31.06,2.47-38.27,4-55.07,2.17.22-8.87,5.29-24.31,3.47-33-1.47-7-2.58-3.06-6.38-14.47-1.56-4.66-.4-10.28.43-15.13.55-3.27-14.16-9.18-16.08-12.8a41.889,41.889,0,0,1,.94-7h0a42.63,42.63,0,0,1,4.23-11.29,3.52,3.52,0,0,1,1.37-1.6,3.65,3.65,0,0,1,2.29-.08,80.569,80.569,0,0,1,16.87,5c5.08,2.12,10.36,1.21,15.71.49a128.931,128.931,0,0,0,38.33-11.42q4.36,9.1,8.72,18.19a3.32,3.32,0,0,1,.47,1.69Z" transform="translate(-46.19 -81.041)"/><path class="l" d="M279.55,183.32a3.31,3.31,0,0,1-.84,1.69,55.7,55.7,0,0,1-5.34,6.33c-3,2.91-6.69,5.25-8.68,8.92-2.84,5.25-.65,53.68-.44,62.31.05,2.14-28.69,3.57-47.31,2.73l31.22-2.39s13.24-46.46,9.92-58.84c-3-11.19,10-24.19,18.08-28.49l2.93,6.11A3.32,3.32,0,0,1,279.55,183.32Z" transform="translate(-49.378 -82.426)"/><path class="m" d="M231.92,167.79c-.11-1.44-.32-3,.4-4.24a6.34,6.34,0,0,1,3.23-2.26c2.38-1,5.31-1.95,7.37-.4a6.38,6.38,0,0,1,2.06,3.83,33.641,33.641,0,0,1,.53,9.4c-.16,2.76-.53,5.69-2.31,7.8a14,14,0,0,1-4.22,3c-2.14,1.14-4.94,2.23-6.8.67C226.62,181,232.34,173.62,231.92,167.79Z" transform="translate(-47.446 -76.405)"/><path class="b" d="M209.18,264.74l-12.54,75.61s12.84,2.36,42.53-1.11c16.6-1.93,28.61-1.36,36-.48a5.94,5.94,0,0,0,6.46-7.37l-17.35-68.82S213.43,257.61,209.18,264.74Z" transform="translate(-47.193 -96.673)"/><path class="n" d="M275.14,338.76c-3.05-.37-6.89-.67-11.52-.77a177.4,177.4,0,0,0-24.45,1.25c-29.69,3.47-42.53,1.11-42.53,1.11l12.54-75.61c2.69-4.52,24.09-4.18,39.4-3.33h.19c7.89.44,14.12,1,15.28,1.13h.2v.06l.27,1.08,17.06,67.68a5.94,5.94,0,0,1-6.44,7.4Z" transform="translate(-47.189 -96.673)"/><path class="b" d="M118.47,125.57,97.41,169.13h1.91l19.8-42.42S119.5,125.57,118.47,125.57Z" transform="translate(-21.336 -71.786)"/><path class="b" d="M119.12,171l6.61-36.81,1.53.25-6.5,38.07S119.23,173.83,119.12,171Z" transform="translate(-25.067 -72.964)"/><path class="b" d="M76.77,167s37-5.24,55.5,12.27l4.73,5.12-15.67,41s-8.66,6.1-17,4.38S80.45,224,80.45,224s-5-1.6-5-9.23S76.77,167,76.77,167Z" transform="translate(-6.082 -79.169)"/><path class="o" d="M76.77,167s37-5.24,55.5,12.27l4.73,5.12-15.67,41s-8.66,6.1-17,4.38S80.45,224,80.45,224s-5-1.6-5-9.23S76.77,167,76.77,167Z" transform="translate(-6.082 -79.169)"/><path class="b" d="M345.1,62.11l-8.08,54.69h1.18l8.11-54.69Z" transform="translate(-66.2 -10.001)"/><path class="b" d="M351.56,61.05l9.37,45.21,1.75-.31-10.2-46.01Z" transform="translate(-69.31 -9.408)"/><path class="b" d="M331.92,182.86s23-19.57,42.4-14.73h6.28s-3.81,37.11-2.54,46.33-27.46,18.89-29.62,18.38-10.29.51-11.31-11.44S331.92,182.86,331.92,182.86Z" transform="translate(-72.466 -79.445)"/><path class="p" d="M331.92,182.86s23-19.57,42.4-14.73h6.28s-3.81,37.11-2.54,46.33-27.46,18.89-29.62,18.38-10.29.51-11.31-11.44S331.92,182.86,331.92,182.86Z" transform="translate(-72.466 -79.445)"/><path class="b" d="M119.12,126.71l-3.72,52h1.86l3-52S119.46,125.34,119.12,126.71Z" transform="translate(-24.194 -72.147)"/><path class="b" d="M119.85,69.15l10.92,46.71,2.35-.66L121.23,70.47Z" transform="translate(-23.733 -10.866)"/><path class="b" d="M102.15,116.51l12.98.29,26.67-3.05,13.7,52.65-37.34,19.31-20.59-3.58Z" transform="translate(-21.236 -19.352)"/><path class="q" d="M118.16,185.71l-3.03-68.91-12.98-.29-4.58,65.62Z" transform="translate(-19.611 -19.644)"/><path class="b" d="M341.66,127.53l6.43,1.15,11.21,2.54,22.98-10.94-19.6-2.61Z" transform="translate(-71.604 -16.807)"/><path class="r" d="M341.66,127.53l6.43,1.15,11.21,2.54,22.98-10.94-19.6-2.61Z" transform="translate(-71.604 -16.807)"/><path class="b" d="M382.28,120.28,359.3,131.22l-17.64-3.69,2.23,49.29,15.41,5.31,23.94-12.94Z" transform="translate(-71.751 -19.808)"/><path class="s" d="M222.72,161.44c2.85,5.33,9,9.41,14.87,7.82,4.37-1.19,7.43-5.16,9.3-9.28a57.74,57.74,0,0,0,3.56-11.84c.85-3.89,1.6-7.91.86-11.82a16.26,16.26,0,0,0-16.93-12.68C217,125.32,216.45,149.68,222.72,161.44Z" transform="translate(-46.833 -71.551)"/><path class="f" d="M231.23,111.59c7.06-1.5,15-.23,20.38,4.54s7.87,12.66,13.64,17.22c1.86,1.47,4.31,2.58,6.58,1.88a7.92,7.92,0,0,1-7,4.53,7.29,7.29,0,0,0,3.54,2,8.39,8.39,0,0,1-6.26,3.24,3.1,3.1,0,0,1,1.16,1.89c-2.43,1.25-5.34,1.13-8,.56a16.92,16.92,0,0,1-10.88-7.79c-5.7-10.07-15.68-17.44-23.64-4.82-2.48-1.65-5.12-3.55-5.53-6.49C214.06,119.63,223.91,113.14,231.23,111.59Z" transform="translate(-48.367 -61.87)"/><path class="b" d="M346.31,62.11v66.57h1.78L347.2,61.9Z" transform="translate(-67.017 -10.355)"/><path class="b" d="M349.39,61.7l18.14,59.29h1.68L350.66,61.48Z" transform="translate(-70.108 -10.05)"/><path class="t" d="M359.3,131.22v50.91l-9.91-6.81-1.3-46.64Z" transform="translate(-68.638 -20.642)"/><path class="u" d="M343.89,176.82l5.5-1.5-1.3-46.64-6.43-1.15Z" transform="translate(-66.902 -20.198)"/><path class="v" d="M382.28,120.28,359.3,131.22v50.91l9.91-5.35Z" transform="translate(-72.566 -19.808)"/><path class="w" d="M206.7,202.15c.55-3.27-14.16-9.18-16.08-12.8a41.892,41.892,0,0,1,.94-7h0s15.54,6.79,16.39,10.73S206.7,202.15,206.7,202.15Z" transform="translate(-39.785 -79.379)"/><path class="x" d="M275.14,338.76c-3.05-.37-6.89-.67-11.52-.77l-12-42.42s-3.92-30.87-3-34.16h.19l15.28,1.13h.2v.06l.27,1.08,17.06,67.68a5.94,5.94,0,0,1-6.48,7.4Z" transform="translate(-52.977 -96.432)"/></g></svg>