<svg xmlns="http://www.w3.org/2000/svg" xmlns:xlink="http://www.w3.org/1999/xlink" width="338.26" height="316.443" viewBox="0 0 338.26 316.443"><defs><style>.a,.b{fill:#ffbaad;}.a{opacity:0.24;isolation:isolate;}.c{fill:url(#a);}.d{fill:url(#b);}.e{fill:#606161;}.f{fill:url(#c);}.g{fill:url(#d);}.h{fill:url(#e);}.i{fill:#f5e0cd;}.j{fill:url(#f);}.k{fill:#fff;}.l,.n,.t,.u{fill:none;}.l{stroke:#000;stroke-width:2.1px;}.l,.t,.u{stroke-miterlimit:10;}.m{fill:url(#g);}.o{fill:url(#h);}.p{fill:url(#i);}.q{fill:url(#j);}.r{fill:url(#k);}.s{fill:url(#l);}.t,.u{stroke:#fff;}.t{stroke-width:1.77px;}.u{stroke-width:0.88px;}</style><linearGradient id="a" x1="0.413" y1="1.33" x2="0.774" y2="-1.764" gradientUnits="objectBoundingBox"><stop offset="0" stop-color="#010101" stop-opacity="0"/><stop offset="0.95" stop-color="#010101"/></linearGradient><linearGradient id="b" x1="0.443" y1="1.323" x2="0.628" y2="-1.068" xlink:href="#a"/><linearGradient id="c" x1="0.098" y1="0.688" x2="0.9" y2="0.222" xlink:href="#a"/><linearGradient id="d" x1="0.144" y1="0.532" x2="1.725" y2="0.43" xlink:href="#a"/><linearGradient id="e" x1="1.194" y1="0.566" x2="-2.164" y2="0.305" xlink:href="#a"/><linearGradient id="f" x1="0.416" y1="0.847" x2="0.769" y2="-1.337" xlink:href="#a"/><linearGradient id="g" x1="0.568" y1="-2.056" x2="0.331" y2="6.825" xlink:href="#a"/><linearGradient id="h" x1="0" y1="0.501" x2="1" y2="0.501" xlink:href="#a"/><linearGradient id="i" x1="0.497" y1="-0.325" x2="0.513" y2="3.892" xlink:href="#a"/><linearGradient id="j" x1="0.47" y1="1.325" x2="0.562" y2="-1.48" gradientUnits="objectBoundingBox"><stop offset="0" stop-color="#fff" stop-opacity="0"/><stop offset="0.95" stop-color="#fff"/></linearGradient><linearGradient id="k" x1="0.48" y1="0.065" x2="0.573" y2="1.763" xlink:href="#j"/><linearGradient id="l" x1="0.409" y1="-0.407" x2="0.703" y2="1.933" xlink:href="#j"/></defs><g transform="translate(-0.047 0)"><path class="a" d="M77.7,215.856C72.535,206.5,68,196.495,67.1,185.842c-2.524-29.6,22.333-53.59,33.907-80.959,4.771-11.283,7.32-23.425,12.249-34.639,14.634-33.289,49.305-54.764,85.131-60.961,9.744-1.685,20.131-2.322,29.18,1.666,11.081,4.891,18.168,15.777,27.7,23.229,28.518,22.4,70.805,10.331,105.154,22.005C387.853,65.5,409.638,94.2,404.393,122.7c-5.131,27.988-33.106,48.542-35.062,76.927-.883,12.842,3.818,25.4,4.771,38.236C376,263.312,361.576,289.217,339,301.1c-11.359,5.97-24.132,8.513-36.709,10.981-21.986,4.31-47.09,13.3-69.6,12.249-20.825-.972-43.5-10.564-61.907-19.778C133.01,285.658,96.806,254.142,77.7,215.856Z" transform="translate(-66.87 -7.97)"/><path class="b" d="M319.7,480.472a7.572,7.572,0,0,0-2.089,2.329,2.625,2.625,0,0,0,.246,2.941,3.775,3.775,0,0,0,3.155.675,45.7,45.7,0,0,0,12.2-2.979,5.37,5.37,0,0,0,3-2.19,5.6,5.6,0,0,0,.454-2.259l.215-3.477c.05-.814-.057-1.862-.839-2.089a1.773,1.773,0,0,0-.631-.032c-2.524.139-6.2-.372-8.418.928C324.352,475.878,322.112,478.541,319.7,480.472Z" transform="translate(-159.235 -179.675)"/><path class="b" d="M383.408,483.235a7.725,7.725,0,0,1,1.767,2.581,2.644,2.644,0,0,1-.631,2.884,3.761,3.761,0,0,1-3.212.252,45.551,45.551,0,0,1-11.694-4.569,5.406,5.406,0,0,1-2.688-2.562,5.68,5.68,0,0,1-.151-2.3l.246-3.477c.057-.814.3-1.836,1.1-1.956a1.823,1.823,0,0,1,.631.044c2.461.473,6.191.454,8.2,2.038C379.4,478.066,381.275,481,383.408,483.235Z" transform="translate(-177.487 -179.932)"/><path class="c" d="M319.7,480.472a7.572,7.572,0,0,0-2.089,2.329,2.625,2.625,0,0,0,.246,2.941,3.775,3.775,0,0,0,3.155.675,45.7,45.7,0,0,0,12.2-2.979,5.37,5.37,0,0,0,3-2.19,5.6,5.6,0,0,0,.454-2.259l.215-3.477c.05-.814-.057-1.862-.839-2.089a1.773,1.773,0,0,0-.631-.032c-2.524.139-6.2-.372-8.418.928C324.352,475.878,322.112,478.541,319.7,480.472Z" transform="translate(-159.235 -179.675)"/><path class="d" d="M383.408,483.235a7.725,7.725,0,0,1,1.767,2.581,2.644,2.644,0,0,1-.631,2.884,3.761,3.761,0,0,1-3.212.252,45.551,45.551,0,0,1-11.694-4.569,5.406,5.406,0,0,1-2.688-2.562,5.68,5.68,0,0,1-.151-2.3l.246-3.477c.057-.814.3-1.836,1.1-1.956a1.823,1.823,0,0,1,.631.044c2.461.473,6.191.454,8.2,2.038C379.4,478.066,381.275,481,383.408,483.235Z" transform="translate(-177.487 -179.932)"/><path class="e" d="M327.89,304.474l1.571,41.467,1.578,63.517s2.777,2.007,9.586.328l6.159-65.422,3.155-29.4,7.869,32.02-4.2,62.968a16.143,16.143,0,0,0,9.971,3.155l11.548-66.142-8.4-48.27Z" transform="translate(-163.152 -115.23)"/><path class="f" d="M327.89,304.474l1.571,41.467,1.578,63.517s2.758.852,9.586.328l6.159-65.422,3.155-29.4,7.869,32.02-4.2,62.968a16.143,16.143,0,0,0,9.971,3.155l11.548-66.142-8.4-48.27Z" transform="translate(-163.152 -115.23)"/><path class="b" d="M325.248,186.536s-10.375,5.68-11.548,6.828c-1.054,1.048,7.869,65.631,8.4,68.786s17.847,2.1,25.192,0a81.46,81.46,0,0,0,14.174-5.774s-3.673-67.2-5.244-68.243-16.275-4.2-16.275-4.2Z" transform="translate(-157.885 -72.888)"/><path class="b" d="M381.13,190.56a11.081,11.081,0,0,1,4.72,3.155c1.565,2.108,14.174,27.294,12.621,32.544s-6.828,6.828-8.4,5.774-4.746-8.381-5.238-10.5-1.54-9.018-1.54-9.018Z" transform="translate(-182.794 -75.334)"/><path class="b" d="M401.679,245.562A5.048,5.048,0,0,0,404,245.3a7.036,7.036,0,0,0,2.1-1.508,25.437,25.437,0,0,0,3.427-3.616,19.85,19.85,0,0,0,2.089-3.843,45.09,45.09,0,0,0,3.5-13.568,11.146,11.146,0,0,0-.6-5.837,1.748,1.748,0,0,0-.5-.694,1.571,1.571,0,0,0-1.262-.164c-2.171.442-3.42,2.657-4.512,4.588a53.878,53.878,0,0,1-7.484,10.2,46.621,46.621,0,0,0-4.064,4.588c-1.332,1.893-2.865,4.582-1.262,6.639A9.018,9.018,0,0,0,401.679,245.562Z" transform="translate(-187.813 -84.722)"/><path class="g" d="M401.679,245.562A5.048,5.048,0,0,0,404,245.3a7.036,7.036,0,0,0,2.1-1.508,25.437,25.437,0,0,0,3.427-3.616,19.85,19.85,0,0,0,2.089-3.843,45.09,45.09,0,0,0,3.5-13.568,11.146,11.146,0,0,0-.6-5.837,1.748,1.748,0,0,0-.5-.694,1.571,1.571,0,0,0-1.262-.164c-2.171.442-3.42,2.657-4.512,4.588a53.878,53.878,0,0,1-7.484,10.2,46.621,46.621,0,0,0-4.064,4.588c-1.332,1.893-2.865,4.582-1.262,6.639A9.018,9.018,0,0,0,401.679,245.562Z" transform="translate(-187.813 -84.722)"/><path class="b" d="M303.675,198.25s-7.32,3.547-8.892,8.8-12.621,31.49-8.923,35.169c.316.316.789.833,1.363,1.464a6.456,6.456,0,0,0,11.006-2.562l6.759-23.8S306.792,202.055,303.675,198.25Z" transform="translate(-147.368 -78.171)"/><path class="b" d="M292.521,256.506a1.685,1.685,0,0,1-.675.82,6.488,6.488,0,0,1-1.4.814v.032a8.658,8.658,0,0,1-4.859.789c-3.244-.435-6.26-3.976-8.311-7.283a17.427,17.427,0,0,1-.555-2.461,3.566,3.566,0,0,1-.177-1.666c.151-3.25-.145-8.431.151-11.914a5.774,5.774,0,0,1,.057-.757c.057-.5.2-1.085.631-1.174a1.18,1.18,0,0,1,.82.208c3.1,1.811,6.55,10.179,8.488,13.252,1.754,2.726,4.853,5.238,5.793,8.374A1.546,1.546,0,0,1,292.521,256.506Z" transform="translate(-144.197 -91.248)"/><path class="h" d="M290.533,259.04c-.032.088-.063.177-.088.233v.032a8.658,8.658,0,0,1-4.859.789c-3.244-.435-6.26-3.976-8.311-7.282a17.428,17.428,0,0,1-.555-2.461,3.566,3.566,0,0,1-.177-1.666c.151-3.25-.145-8.431.151-11.914,2.985,2.316,6.172,10.009,8.015,12.937,1.754,2.72,4.859,5.238,5.793,8.368A1.6,1.6,0,0,1,290.533,259.04Z" transform="translate(-144.197 -92.382)"/><path class="i" d="M330.38,177.415s1.578,6.822,1.054,9.466,3.673,9.977,8.923,9.977,5.25-8.923,5.25-9.977-2.209-3.256-1.685-5.882S330.91,174.266,330.38,177.415Z" transform="translate(-164.071 -70.064)"/><path class="j" d="M333.661,187.44a9.023,9.023,0,0,0,1.849,1.988,7.118,7.118,0,0,0,4.316,1.344,4.342,4.342,0,0,0,3.073-1.085,3.912,3.912,0,0,0,.871-2.259,30.576,30.576,0,0,0,.3-4.159c0-.631-.126-1.464-.865-1.71a2.594,2.594,0,0,0-1.205,0,32.184,32.184,0,0,1-7.137.341c-1.641-.107-3.837-.581-3.452,1.205a12.256,12.256,0,0,0,2.247,4.335Z" transform="translate(-164.436 -71.987)"/><path class="k" d="M330.556,190.113s4.228,9.9,7.838,10.955c0,0,.984.524-1.641,2.1s-9.977-6.311-8.923-12.079a4.329,4.329,0,0,1,2.613-3.351Z" transform="translate(-163.092 -74.293)"/><path class="k" d="M351.011,185.368s1.956,8.936-.991,13.959c0,0,1.262,1.893,2.31,1.893s3.673-6.311,2.619-11.025C354.336,187.412,351.535,184.617,351.011,185.368Z" transform="translate(-171.317 -73.372)"/><path class="l" d="M310.42,254.61" transform="translate(-156.707 -98.964)"/><path class="i" d="M342.669,148.285s1.048,13.65,0,17.329-4.2,6.822-7.352,6.822-7.876-2.625-9.971-7.352-3.155-16.269-2.625-17.847,3.692-6.538,12.072-5.774C340.567,141.987,342.669,146.19,342.669,148.285Z" transform="translate(-161.195 -57.191)"/><path class="i" d="M356.069,164.235a4.993,4.993,0,0,1-.322,1.085,2.146,2.146,0,0,1-.4.751,2.12,2.12,0,0,1-.953.511.833.833,0,0,1-.461.051c-1.029-.284-.9-2.859-.385-3.559.284-.379,1.313-1.2,1.767-1.054C355.993,162.228,356.151,163.692,356.069,164.235Z" transform="translate(-172.475 -64.798)"/><path class="i" d="M322.8,167.5a.953.953,0,0,0-.486-.252.669.669,0,0,0-.391.107,1.357,1.357,0,0,0-.593,1.048,3.313,3.313,0,0,0,.164,1.262,3.386,3.386,0,0,0,1.515,2.3.587.587,0,0,0,.631,0,.631.631,0,0,0,.177-.3,5.869,5.869,0,0,0,.492-2.348C324.2,168.588,323.339,167.95,322.8,167.5Z" transform="translate(-160.728 -66.733)"/><path class="b" d="M361.715,89.87H273.53a6.393,6.393,0,0,0-6.38,6.393V259.248a6.374,6.374,0,0,0,6.38,6.38h88.185a6.386,6.386,0,0,0,6.412-6.38V96.263a6.4,6.4,0,0,0-6.412-6.393ZM359.26,245.876H274.817V97.152h84.455Z" transform="translate(-140.743 -38.186)"/><circle class="m" cx="6.077" cy="6.077" r="6.077" transform="translate(174.652 210.77)"/><path class="n" d="M334.28,189.14a6.411,6.411,0,0,0,1.376,1.931,4.228,4.228,0,0,0,3.067.909,3.25,3.25,0,0,0,1.748-.562,4.778,4.778,0,0,0,.877-.972,20.775,20.775,0,0,0,2.789-4.417,4.72,4.72,0,0,0,.435-1.956,2.234,2.234,0,0,0-.833-1.754,3.206,3.206,0,0,0-1.546-.442,20.946,20.946,0,0,0-4.828-.069c-1.363.177-3.913.7-4.619,2.152S333.63,187.9,334.28,189.14Z" transform="translate(-164.878 -72.065)"/><path class="i" d="M265.551,211.412a23.432,23.432,0,0,1,7.074.713,3.925,3.925,0,0,1,1.313.536,1.514,1.514,0,0,1,.688,1.18c0,.694-.6,1.212-1.149,1.628a3.629,3.629,0,0,1,1.18,1.357,1.262,1.262,0,0,1-.48,1.571c-.151.069-.347.12-.391.278s.095.3.2.423a1.672,1.672,0,0,1-.865,2.77.839.839,0,0,1,.757,1,1.35,1.35,0,0,1-.972.959,4,4,0,0,1-1.426.095,11.487,11.487,0,0,0-4.91.48,3.786,3.786,0,0,1-1.761.486,1.824,1.824,0,0,1-1.325-.984,4.039,4.039,0,0,1-.4-1.66c-.139-2.411.631-4.84.233-7.226C262.983,213.033,263.134,211.531,265.551,211.412Z" transform="translate(-139.239 -83.015)"/><path class="i" d="M415.689,199.743a8.359,8.359,0,0,0-3.862,1.262,2.851,2.851,0,0,0-.966,3.6c.227.353.574.669.6,1.085a1.894,1.894,0,0,1-.284.9,4.051,4.051,0,0,0,.391,4.007c-.454,1.332-.738,3.029.316,3.957.915.8,2.316.549,3.5.252l3.155-.8a3.023,3.023,0,0,0,1.761-.9,2.8,2.8,0,0,0,.41-.991,26.236,26.236,0,0,0,.9-10.356C421.1,198.405,418.4,199.32,415.689,199.743Z" transform="translate(-193.644 -78.559)"/><path class="e" d="M323.7,130.7c2.259-2.013,5.048-3.483,6.771-5.982l.278,2.726,3.1-2.524a3.155,3.155,0,0,0,.221,1.893,4.045,4.045,0,0,1,1.609-1.584,5.257,5.257,0,0,0,.423,2.284,13.3,13.3,0,0,0,2.026-2.524,3.054,3.054,0,0,0,.259,2.329,2.524,2.524,0,0,0,1.306-1.672c.827,2.953,2.48,5.635,3.155,8.627a27.608,27.608,0,0,1,.322,7.4,18.723,18.723,0,0,1-1.994,7.573,57.534,57.534,0,0,0-2.007-6.405,9.139,9.139,0,0,0-1.893-3.155c-1.893-1.824-4.9-1.773-7.573-1.559-2.43.2-5.1.555-6.7,2.392a7.79,7.79,0,0,0-1.426,5.648,39.366,39.366,0,0,1,.391,5.957c-1.716-2.019-3.383-4.216-3.938-6.8a7.27,7.27,0,0,1,.221-3.938c.467-1.3,1.792-1.956,2.253-3.067s0-2.556.41-3.786A9.8,9.8,0,0,1,323.7,130.7Z" transform="translate(-159.45 -51.043)"/><path class="o" d="M323.7,130.7c2.259-2.013,5.048-3.483,6.771-5.982l.278,2.726,3.1-2.524a3.155,3.155,0,0,0,.221,1.893,4.045,4.045,0,0,1,1.609-1.584,5.257,5.257,0,0,0,.423,2.284,13.3,13.3,0,0,0,2.026-2.524,3.054,3.054,0,0,0,.259,2.329,2.524,2.524,0,0,0,1.306-1.672c.827,2.953,2.48,5.635,3.155,8.627a27.608,27.608,0,0,1,.322,7.4,18.723,18.723,0,0,1-1.994,7.573,57.534,57.534,0,0,0-2.007-6.405,9.139,9.139,0,0,0-1.893-3.155c-1.893-1.824-4.9-1.773-7.573-1.559-2.43.2-5.1.555-6.7,2.392a7.79,7.79,0,0,0-1.426,5.648,39.366,39.366,0,0,1,.391,5.957c-1.716-2.019-3.383-4.216-3.938-6.8a7.27,7.27,0,0,1,.221-3.938c.467-1.3,1.792-1.956,2.253-3.067s0-2.556.41-3.786A9.8,9.8,0,0,1,323.7,130.7Z" transform="translate(-159.45 -51.043)"/><rect class="b" width="38.325" height="28.903" rx="14.451" transform="translate(210.667 69.525)"/><rect class="p" width="38.325" height="28.903" rx="14.451" transform="translate(210.667 69.525)"/><path class="b" d="M358.69,122.62l10.526,6.595-10.526,6.443Z" transform="translate(-132.316 -45.239)"/><path class="b" d="M492.374,207.7v15.732a6.582,6.582,0,0,1-6.582,6.582h-1.186v6.942l-3.591-6.942H453.7a6.576,6.576,0,0,1-6.582-6.582V207.7a6.576,6.576,0,0,1,6.582-6.582h32.09a6.576,6.576,0,0,1,6.582,6.582Z" transform="translate(-207.14 -79.23)"/><path class="q" d="M492.374,207.7v15.732a6.582,6.582,0,0,1-6.582,6.582h-1.186v6.942l-3.591-6.942H453.7a6.576,6.576,0,0,1-6.582-6.582V207.7a6.576,6.576,0,0,1,6.582-6.582h32.09a6.576,6.576,0,0,1,6.582,6.582Z" transform="translate(-207.14 -79.23)"/><rect class="b" width="33.718" height="1.887" transform="translate(245.678 127.602)"/><rect class="b" width="33.718" height="1.887" transform="translate(245.678 132.581)"/><rect class="b" width="33.718" height="1.887" transform="translate(245.678 137.553)"/><path class="b" d="M211.234,276.807c0,9.378-9.75,16.963-21.778,16.963a26.587,26.587,0,0,1-6-.669l-9.5,4.866,3.786-6.879c-6.065-2.985-10.1-8.254-10.1-14.281,0-9.371,9.75-16.957,21.778-16.957S211.234,267.435,211.234,276.807Z" transform="translate(-104.03 -100.897)"/><path class="r" d="M211.234,276.807c0,9.378-9.75,16.963-21.778,16.963a26.587,26.587,0,0,1-6-.669l-9.5,4.866,3.786-6.879c-6.065-2.985-10.1-8.254-10.1-14.281,0-9.371,9.75-16.957,21.778-16.957S211.234,267.435,211.234,276.807Z" transform="translate(-104.03 -100.897)"/><path class="b" d="M459.167,286s-5.049-6.595-9.737-.316,10.678,13.827,10.678,13.827,11-7.857,9.744-12.571A5.747,5.747,0,0,0,459.167,286Z" transform="translate(-207.664 -109.356)"/><path class="b" d="M193.007,184.453s-5.049-6.595-9.737-.316,10.684,13.827,10.684,13.827,10.993-7.857,9.737-12.571A5.747,5.747,0,0,0,193.007,184.453Z" transform="translate(-109.469 -71.89)"/><path class="s" d="M193.007,184.453s-5.049-6.595-9.737-.316,10.684,13.827,10.684,13.827,10.993-7.857,9.737-12.571A5.747,5.747,0,0,0,193.007,184.453Z" transform="translate(-109.469 -71.89)"/><rect class="b" width="27.647" height="24.504" rx="9.97" transform="translate(89.723 67.013)"/><rect class="t" width="16.124" height="16.124" rx="5.44" transform="translate(95.586 71.519)"/><circle class="t" cx="2.941" cy="2.941" r="2.941" transform="translate(100.754 75.741)"/><circle class="u" cx="0.978" cy="0.978" r="0.978" transform="translate(107.223 73.898)"/><path class="b" d="M302.88,58.4s5.566,9.775,14.66,8.639,9.775-8.639,9.775-8.639h3.294l-2.726-2.158s-.909-3.294-3.408-2.524-5.913,3.976-5.913,3.976l-10.1-9.087a4,4,0,0,0,.227,4.2s-1.363,1.931.114,3.067a3.3,3.3,0,0,0,1.477,2.726A5.764,5.764,0,0,1,302.88,58.4Z" transform="translate(-153.925 -22.963)"/></g></svg>