<svg xmlns="http://www.w3.org/2000/svg" xmlns:xlink="http://www.w3.org/1999/xlink" width="450.294" height="384.16" viewBox="0 0 450.294 384.16"><defs><style>.a,.d{fill:#ffbaad;}.a{opacity:0.18;isolation:isolate;}.b{fill:url(#a);}.c{fill:url(#b);}.e{fill:url(#c);}.f{fill:url(#d);}.g{fill:#fff;}.h{fill:url(#e);}.i{fill:url(#f);}.j{fill:#ffbbab;}.k{fill:#282328;}.l{fill:#473f47;}.m{fill:#020202;opacity:0.1;}.n{fill:#fc682d;}.o{fill:#e0a194;}.p{fill:url(#g);}.q{fill:url(#h);}.r{fill:url(#i);}.s{fill:url(#j);}.t{fill:url(#k);}</style><linearGradient id="a" x1="0.138" y1="-0.341" x2="0.989" y2="1.769" gradientUnits="objectBoundingBox"><stop offset="0.01"/><stop offset="0.08" stop-opacity="0.69"/><stop offset="0.21" stop-opacity="0.322"/><stop offset="1" stop-opacity="0"/></linearGradient><linearGradient id="b" y1="0.5" x2="1" y2="0.5" gradientUnits="objectBoundingBox"><stop offset="0.01" stop-color="#fff"/><stop offset="1" stop-color="#fff" stop-opacity="0"/></linearGradient><linearGradient id="c" x1="0.862" y1="0.286" x2="-1.13" y2="1.447" xlink:href="#a"/><linearGradient id="d" x1="0.134" y1="0.1" x2="1.364" y2="1.675" xlink:href="#a"/><linearGradient id="e" x1="-0.112" y1="0.5" x2="1.111" y2="0.5" xlink:href="#b"/><linearGradient id="f" x1="-0.272" y1="-0.318" x2="2.101" y2="2.194" xlink:href="#a"/><linearGradient id="g" x1="24.3" y1="-1.127" x2="16.397" y2="-1.415" xlink:href="#a"/><linearGradient id="h" x1="24.349" y1="-4.097" x2="28.299" y2="-4.889" xlink:href="#a"/><linearGradient id="i" x1="-0.366" y1="-0.172" x2="1.132" y2="0.993" xlink:href="#b"/><linearGradient id="j" x1="0.261" y1="-0.333" x2="1.234" y2="3.019" xlink:href="#a"/><linearGradient id="k" x1="-1.728" y1="-0.303" x2="9.32" y2="3.685" xlink:href="#a"/></defs><g transform="translate(0.002 -0.004)"><path class="a" d="M438.567,204.743C430.54,216.135,420.662,226.71,416.48,240a95.845,95.845,0,0,0-3.221,22.832c-1.682,26.173-4.494,53.211-17.545,75.971a94.213,94.213,0,0,1-62.176,44.823c-46.722,9.445-96.328,5.408-142.545-4.566C132.4,366.539,64.119,346.543,34.581,289.8A192.872,192.872,0,0,1,28.693,126.56c10.022-23.121,25.62-45.04,48.26-56.167,26.077-12.786,55.687-9.109,83.566-12.882,23.169-3.124,48.4-15.213,69.7-24.707,11.368-5.047,22.712-10.359,34.344-14.637A219.069,219.069,0,0,1,410.5,16.509c32.229,11.08,48.068,56.36,51.913,87.315C466.9,138.866,459.02,175.9,438.567,204.743Z" transform="translate(-13.38 -4.81)"/><path class="b" d="M56.551,156.5s-5.215,8.075,8.869,10.6l51.7-34.489,41.819-6.177,7.523-9.109L138,104.8,92.146,120.013Z" transform="translate(45.885 135.51)"/><path class="c" d="M343.428,204.672c-8.027,11.392-17.905,21.967-22.087,35.258a95.845,95.845,0,0,0-3.221,22.832L116.812,247.5,81.17,192.223,135.15,32.854c11.368-5.047,22.712-10.359,34.344-14.637a219.069,219.069,0,0,1,145.934-1.658c32.229,11.08,48.068,56.36,51.913,87.315C371.764,138.8,363.881,175.832,343.428,204.672Z" transform="translate(81.759 -4.74)"/><path class="d" d="M70.21,70.3" transform="translate(66.378 87.093)"/><path class="d" d="M167.071,134.024l-5.84,3.581-.409.24a39.031,39.031,0,0,1-18.867,5.6l-7.475.673h-.937a37.036,37.036,0,0,0-18.386,6.994L65.744,187.019h-1.13a14.42,14.42,0,0,1-7.21-1.634h0a14.252,14.252,0,0,1-6.633-17.737l.264-.673,47.058-36.219a25.308,25.308,0,0,0,9.469-15.5l1.033-5.816.192-1.057a31.941,31.941,0,0,1,6.8-14.565L124.555,83Z" transform="translate(37.749 104.916)"/><path class="e" d="M132.745,134.024l-5.84,3.581-.409.24a39.031,39.031,0,0,1-18.867,5.6l-7.475.673c-14.42-7.21-24.442-19.972-25.885-34.777l.192-1.057a31.941,31.941,0,0,1,6.8-14.565L90.229,83Z" transform="translate(72.076 104.916)"/><path class="f" d="M156.8,111.306l-.409.24a39.032,39.032,0,0,1-18.867,5.6l-8.412.745a37.036,37.036,0,0,0-18.386,6.922L61.31,160.719H60.18a14.42,14.42,0,0,1-7.21-1.634h0l54.7-44.367,22.52-12.978Z" transform="translate(42.184 131.215)"/><ellipse class="g" cx="22.159" cy="33.215" rx="22.159" ry="33.215" transform="translate(145.755 201.324) rotate(-39.09)"/><ellipse class="d" cx="19.131" cy="28.672" rx="19.131" ry="28.672" transform="translate(150.97 202.94) rotate(-39.09)"/><ellipse class="h" cx="19.131" cy="28.672" rx="19.131" ry="28.672" transform="translate(150.97 202.94) rotate(-39.09)"/><path class="i" d="M60.113,114.287a3.1,3.1,0,0,0-1.274,1.514,3.2,3.2,0,0,0,.625,2.4c.385.625.817,1.322,1.538,1.514a2.812,2.812,0,0,0,2.139-.553,60.4,60.4,0,0,0,5.167-3.269,4.134,4.134,0,0,0,1.73-1.851c.649-1.875-1.178-5.36-3.365-4.3A43.258,43.258,0,0,0,60.113,114.287Z" transform="translate(50.374 142.174)"/><path class="d" d="M60.891,113.055a1.923,1.923,0,0,0-.841.961,2.115,2.115,0,0,0,.409,1.538,1.418,1.418,0,0,0,2.4.625q1.682-.961,3.317-2.091a2.62,2.62,0,0,0,1.082-1.2c.433-1.2-.745-3.437-2.139-2.74a26.245,26.245,0,0,0-4.23,2.908Z" transform="translate(52.096 142.828)"/><path class="j" d="M156.393,81.7c2.572-.577,4.975-1.658,7.5-2.4a2.091,2.091,0,0,1,1.322,0,1.586,1.586,0,0,1,.721,1.995,4.59,4.59,0,0,1-1.49,1.779L161.3,85.71a18.362,18.362,0,0,1-5.576,3.605,3.221,3.221,0,0,1-3.413-.385c-.288-.288-.457-.673-.721-.985-.769-.913-2.091-1.178-2.956-2.043s-.985-4.014.937-4.182a32.743,32.743,0,0,1,3.269.5,13.578,13.578,0,0,0,3.557-.529Z" transform="translate(175.591 99.562)"/><path class="d" d="M150.415,90.562a2.572,2.572,0,0,0,1.081.553,3.028,3.028,0,0,0,1.394,0,11.659,11.659,0,0,0,2.548-.649,12.4,12.4,0,0,0,2.644-1.706c1.3-.985,2.572-1.995,3.8-3.052a6.681,6.681,0,0,0,2.932-5.119,1.707,1.707,0,0,0-.24-.841,1.875,1.875,0,0,0-1.057-.649,6.874,6.874,0,0,0-4.47.5c-1.418.553-2.74,1.346-4.206,1.8a8.123,8.123,0,0,0-1.971.745,2.86,2.86,0,0,0-1.178,1.875,7.548,7.548,0,0,1-.216,1.8c-.433,1.082-1.851,1.178-2.4,2.139S149.79,90.009,150.415,90.562Z" transform="translate(176.858 99.204)"/><path class="j" d="M118.134,82.559a2.211,2.211,0,0,0-1.274.385,2.716,2.716,0,0,0-.625,1.082c-1.37,3.581-2.6,7.21-3.725,10.863a4.807,4.807,0,0,0-.288,1.827c.168,1.322,1.418,2.163,2.548,2.86.7.409,1.8.673,2.067,0s-.24-.937-.288-1.442a2.187,2.187,0,0,1,.769-1.586l8.556-9.614a2.812,2.812,0,0,0-1.178-4.518,12.859,12.859,0,0,0-2.86.216C120.61,82.607,119.384,82.463,118.134,82.559Z" transform="translate(125.333 104.083)"/><path class="d" d="M122.213,84.312a4.038,4.038,0,0,1-.721,2.211,11.825,11.825,0,0,0-1.706,4.975,16.442,16.442,0,0,1-.1,2.6c-.192.937-.769,1.779-.961,2.74-.264,1.442.361,3.052-.336,4.35a3.148,3.148,0,0,1-4.518.7,6.321,6.321,0,0,1-2.187-4.518,22.616,22.616,0,0,1,1.995-10.455,7.451,7.451,0,0,1,4.326-4.831C119.521,81.572,122.093,82.558,122.213,84.312Z" transform="translate(124.547 103.435)"/><path class="k" d="M149.935,73.669s-3.557,20.285-4.951,20.885-26.437,10.022-26.437,10.022l-1.706-5s7.739-6.177,15.959-12.4c2.812-2.139,2.6-13.123,3.2-16.079S149.935,73.669,149.935,73.669Z" transform="translate(131.818 86.992)"/><path class="l" d="M124.72,72.965s2.644,8.965,6.1,11.248,23.89,6.129,23.89,6.129,8.484,4.59,11.368,5.672S180.671,102,180.671,102l2.4-5.071L163.847,81.57a48.552,48.552,0,0,0-5.768-3.052c-1.538-.481-19.54-10.767-19.54-10.767Z" transform="translate(142.877 83.514)"/><path class="j" d="M124.822,55.53a6.009,6.009,0,0,0-2.259,3.052c-1.13,3.172-2.4,6.754-.433,9.854a65.284,65.284,0,0,1,3.533,5.72,45.424,45.424,0,0,1,3.485,16.031c.168,1.779,2.692,2.139,4.446,2.211a19.756,19.756,0,0,0,9.614-2.235,1.971,1.971,0,0,0,.7-.553,1.8,1.8,0,0,0,.168-1.37c-.36-2.908-.865-5.816-1.033-8.748a24.391,24.391,0,0,1,.12-4.4,31.408,31.408,0,0,0,0-4.254c0-1.418.192-2.4.192-3.485a6.609,6.609,0,0,0-.841-3.317,28.488,28.488,0,0,0-2.4-3.052,30.763,30.763,0,0,1-2.4-3.461,10.333,10.333,0,0,0-1.586-2.4,6.826,6.826,0,0,0-5.6-1.466,12.834,12.834,0,0,0-5.7,1.875Z" transform="translate(137.8 63.576)"/><path class="j" d="M137.3,58.859A15.935,15.935,0,0,0,139,54.244a26.292,26.292,0,0,0,.168-6.153,5.312,5.312,0,0,0-.553-2.115c-.529-.889-1.49-1.466-1.923-2.4a.5.5,0,0,1,0-.312A.481.481,0,0,1,137.01,43l1.057-.5a3.846,3.846,0,0,1,0-2.6,1.634,1.634,0,0,1,1.37-1.226c.7,0,1.178.7,1.827.985s1.322.24,1.9.553a3.365,3.365,0,0,1,1.2,1.971,16.607,16.607,0,0,1,.144,5.768,49.155,49.155,0,0,1-.434,6.521,52.155,52.155,0,0,1-3.484,12.61,46.941,46.941,0,0,1-3.148,6.321c-1.3,2.235-6.129,10.959-9.085,9.469-4.014-2.019-2.4-6.8-.409-9.349A70.275,70.275,0,0,0,137.3,58.858Z" transform="translate(144.503 42.703)"/><path class="g" d="M133.1,53.32c1.538,1.634,3,3.317,4.446,5.023a2.548,2.548,0,0,1,.817,1.923,2.115,2.115,0,0,1-.817,1.178,6.057,6.057,0,0,1-5.864.529,18.578,18.578,0,0,1-5.1-3.413,9.614,9.614,0,0,0-2.86-1.827,3.2,3.2,0,0,0-3.2.5,1.995,1.995,0,0,0,0,2.956c-.192-.841.793-1.586,1.634-1.49a3.749,3.749,0,0,1,2.163,1.322,28.843,28.843,0,0,1,2.283,2.548,7.811,7.811,0,0,1,1.322,2.115,7.691,7.691,0,0,1-1.009,5.888,6.585,6.585,0,0,0-.817,2.163,6.657,6.657,0,0,0,.865,3.341,47.059,47.059,0,0,1,3.2,14.108,3.221,3.221,0,0,0,1.009,2.4,2.86,2.86,0,0,0,1.9.24c3.076-.409,5.96-1.754,9.037-2.235a45.668,45.668,0,0,0,5.744-.721.758.758,0,0,0,.649-.385,1.081,1.081,0,0,0,0-.865,60.684,60.684,0,0,1-3.221-15.79,36.046,36.046,0,0,0,0-7.547,4.255,4.255,0,0,0-.577-1.538,5.36,5.36,0,0,0-1.178-1.154,21.631,21.631,0,0,1-5.624-7.5" transform="translate(136.081 63.263)"/><path class="m" d="M126.12,69.858c.216.865.577,1.851,1.418,2.163a2.4,2.4,0,0,1,.7.24c.481.288.529.913.721,1.442a8.363,8.363,0,0,0,1.995,2.4c.721.793,1.25,2.019.625,2.884s-1.178.793-1.49,1.394.481,2.4-.312,3.052a1.2,1.2,0,0,1-1.586-.192,3.629,3.629,0,0,1-.745-1.562q-2.4-8.8-4.807-17.641a2.668,2.668,0,0,1-.144-.961,3.221,3.221,0,0,1,.336-.913c.312-.625.625-1.779,1.178-2.187.817.865.7,3.1.889,4.23A34.783,34.783,0,0,0,126.12,69.858Z" transform="translate(139.747 72.609)"/><path class="j" d="M135.2,51.239c.385.457.865.865.937,1.418a2.6,2.6,0,0,1-.216,1.2,8.075,8.075,0,0,0-.192,2.74,3.461,3.461,0,0,1-.168,2.043,3.1,3.1,0,0,1-2.187,1.25l-1.947.361a1.37,1.37,0,0,0-.7.192,1.226,1.226,0,0,0-.433.6,15.336,15.336,0,0,0-.288,4.807,1.658,1.658,0,0,1-.192.769,1.515,1.515,0,0,1-.553.481,5.936,5.936,0,0,1-4.278.793,1.826,1.826,0,0,1-.985-.481,2.019,2.019,0,0,1-.312-1.178,21.441,21.441,0,0,1,0-3.293,12.474,12.474,0,0,0,.12-4.422c-.336-1.274-1.178-2.4-1.61-3.605a6.417,6.417,0,0,1,2.6-7.21,7.667,7.667,0,0,1,6.585-.673c.793.24,1.418.336,1.9,1.033A35.057,35.057,0,0,0,135.2,51.239Z" transform="translate(138.955 53.808)"/><path class="n" d="M135.641,46.549a4.11,4.11,0,0,0-1.754-2.067,6.946,6.946,0,0,0-4.807-.288,12.017,12.017,0,0,0-5.215,2.4,6.129,6.129,0,0,0-2.4,5.047,1.947,1.947,0,0,0-1.322,1.274,3.99,3.99,0,0,0,0,1.923,13.339,13.339,0,0,0,3.869,6.633c.625.673,1.778,2.4,2.812,2.259s1.106-1.706,1.658-2.4c-.577-.409-1.25-.673-1.8-1.106a1.875,1.875,0,0,1-.769-1.851c.216-.673,1.25-.985,1.634-.409a5.984,5.984,0,0,1,1.009-5.143,2.115,2.115,0,0,1,.6-.7,2.4,2.4,0,0,1,.841-.288c.817-.144,1.634-.264,2.4-.336a3.023,3.023,0,0,0,2.4-.817,4.206,4.206,0,0,0,.961-2.98A3.436,3.436,0,0,0,135.641,46.549Z" transform="translate(136.283 50.037)"/><path class="o" d="M125.064,52.946a.865.865,0,0,0-.577.312.913.913,0,0,0,0,.673,16.2,16.2,0,0,0,.7,3.509,2.669,2.669,0,0,0,.385.841.913.913,0,0,0,.841.361c.361,0,.6-.409.937-.553a1.442,1.442,0,0,1,1.178,0,5.721,5.721,0,0,1,.961.745,17.23,17.23,0,0,0,2.259,1.682,16.608,16.608,0,0,0-3-4.182,2.187,2.187,0,0,0-1.13-.745A1.816,1.816,0,0,1,126.6,55.4c-.288-.192-.192-.985,0-1.49s.625-1.25.192-1.514S125.353,52.874,125.064,52.946Z" transform="translate(142.461 61.883)"/><path class="g" d="M127.985,49.79a9.832,9.832,0,0,0-1.466.24h-.192a.457.457,0,0,0,0,.168,3.389,3.389,0,0,0,.5,2.259,1.538,1.538,0,0,0,.649.649.817.817,0,0,0,.865,0,1.419,1.419,0,0,0,.312-.7,4.807,4.807,0,0,0,0-2.4h0a.168.168,0,0,0-.144,0,2.067,2.067,0,0,0-.937,0" transform="translate(145.092 58.309)"/><path class="d" d="M128.41,50.4l.216-.144C128.506,50.229,128.41,50.278,128.41,50.4Z" transform="translate(148.056 58.951)"/><path class="d" d="M121.984,71.912a17.834,17.834,0,0,0-1.106,8.532,41.842,41.842,0,0,0,3,7.547c2.067,6.177,3.148,12.618,5.408,18.722a2.373,2.373,0,0,0,3.557,1.754l1.706-.385a115.887,115.887,0,0,0,12.017-3.485,2.139,2.139,0,0,0,1.634-3.269,108.7,108.7,0,0,1-2.211-16.487,49.581,49.581,0,0,0-1.49-7.931,8.34,8.34,0,0,1-.673-4.038,3.6,3.6,0,0,1,.457-1.178,45.492,45.492,0,0,1,3.076-3.749,16.656,16.656,0,0,0,2.4-7.595c.577-3.869,1.226-7.739,1.73-11.608.409-2.86-1.178-3.8-3.341-4.446l-2.524-.7a40.331,40.331,0,0,1-1.514,8.82,13.676,13.676,0,0,1-4.807,7.042.192.192,0,0,1,.192.144.667.667,0,0,1-.168.529l-4.446,6.057a3.245,3.245,0,0,1-1.058,1.009c-.5.216-2.4,0-2.187.889a.6.6,0,0,0,0,.168c.144.312.433.553.529.865a1.106,1.106,0,0,1-.409,1.13,2.4,2.4,0,0,1-1.2.433,4.543,4.543,0,0,1-1.394,0c-1.73-.361-4.254-1.586-5.96-.5a3.773,3.773,0,0,0-1.25,1.778Z" transform="translate(137.321 49.622)"/><path class="p" d="M146.964,48.33c-.529,3.869-1.154,7.739-1.754,11.608a16.367,16.367,0,0,1-2.4,7.595,41.79,41.79,0,0,0-3.076,3.749,5.48,5.48,0,0,0-.481,1.082.481.481,0,0,1-.168-.144c-.433,8.292,2.259,16.511,4.038,24.707a8.532,8.532,0,0,1-.409,6.633,8.917,8.917,0,0,1-6.826,2.956,6.224,6.224,0,0,1-2.4,0c-2.572-.553-3.677-3.557-4.35-6.1l-.385-2.764a168.453,168.453,0,0,1-4.47-19.732,5.408,5.408,0,0,1,.385-3.8,5.984,5.984,0,0,1,2.716-1.923,43.767,43.767,0,0,0,7.354-4.4A3.725,3.725,0,0,1,137.3,66.74a1.25,1.25,0,0,1-.192-.625,1.563,1.563,0,0,1,0-.481c1.13-2.788,2.163-5.6,3.293-8.34a24.588,24.588,0,0,0,2.019-8.172,16.655,16.655,0,0,1,.24-3.629,4.615,4.615,0,0,1,.721-1.514C145.786,44.533,147.349,45.47,146.964,48.33Z" transform="translate(141.999 50.155)"/><path class="d" d="M119.85,79.358a2.644,2.644,0,0,0,.385,1.346,2.6,2.6,0,0,0,1.61.817c7.4,1.61,15.093.5,22.568-.625a2.932,2.932,0,0,0,2.98-2.548l.913-2.692c.216-.6.385-1.37,0-1.8a1.634,1.634,0,0,0-1.178-.288l-16.824.192a49.867,49.867,0,0,1,.288-7.21,11.632,11.632,0,0,0-1.514-7.042,5.48,5.48,0,0,0-5.432-2.524c-2.139.7-2.163,3.269-2.62,5.36a56.96,56.96,0,0,0-1.178,17.016Z" transform="translate(135.779 68.324)"/><path class="q" d="M128.363,56.57a7.811,7.811,0,0,0-3.581,5.48c-1.154,4.014-2.139,8.1-2.932,12.185a2.788,2.788,0,0,0,.529,2.6,2.668,2.668,0,0,0,1.178.553,36.94,36.94,0,0,0,16.535.433,5.287,5.287,0,0,0-3.845-2.019l-6.657-1.37c-1.3-.264-2.884-.817-3.052-2.139a2.811,2.811,0,0,1,0-1.178l1.226-4.807a.793.793,0,0,1,.865.553" transform="translate(138.681 67.824)"/><path class="j" d="M136.311,69.663a10.912,10.912,0,0,0,2.235-1.682,13.171,13.171,0,0,0,2.644-2.908,1.226,1.226,0,0,0,.264-.745c0-.577-.7-.913-1.274-.937a13.819,13.819,0,0,0-3.365.841c-1.586.336-3.365,0-4.687.817s-3.028,3.629-1.682,4.807S135.013,70.36,136.311,69.663Z" transform="translate(150.225 77.395)"/><path class="r" d="M125.115,55.18l-.409,9.061-9.037,1.3,7.931-9.662Z" transform="translate(162.334 77.434)"/><path class="s" d="M120.114,56.584l2.235-.144-2.283,3.485-2.956.264Z" transform="translate(164.355 79.202)"/><path class="t" d="M121.613,56.33l-3.533,5.72,3.293-.481Z" transform="translate(165.716 79.047)"/><path class="d" d="M133.61,32.83l18.049,50.784,66.79-23.962V57.489L153.077,81.211,135.965,31.22Z" transform="translate(187.511 43.808)"/><path class="d" d="M151.639,67.775l-10.479-26,6.2-3.341,11.945,26.557Z" transform="translate(198.106 53.927)"/><path class="d" d="M161.523,74.712,144.94,32.7l6.2-3.341L169.19,71.924Z" transform="translate(203.411 41.198)"/><path class="d" d="M171.961,80.729,149.97,24.081l6.2-3.341,23.481,57.2Z" transform="translate(210.47 29.101)"/><path class="d" d="M151.26,58.829v30.86h42.42v-1.2H152.726l-.072-15.6-.048-14.468Z" transform="translate(212.28 81.981)"/><path class="d" d="M165.405,77.4l-3.485-4.951L153.845,76.9l-.625-1.106,9.085-5,3.173,4.518,6.2-7.595,4.879,1.971,14.012-9.566.721,1.057L176.725,71.1l-4.663-1.851Z" transform="translate(215.031 84.366)"/><path class="g" d="M133.118,49.283l11.248-23.145a11.608,11.608,0,0,1-.481-7.5l-11.945,24.9a6.946,6.946,0,0,0,1.178,5.744Z" transform="translate(152.745 14.593)"/></g></svg>