<svg xmlns="http://www.w3.org/2000/svg" xmlns:xlink="http://www.w3.org/1999/xlink" width="608.541" height="473.171" viewBox="0 0 608.541 473.171"><defs><style>.a,.b,.e,.f{fill:#f7b3b3;}.a{opacity:0.18;}.a,.e,.f,.h{isolation:isolate;}.c{fill:#473f47;}.d{fill:#fff;}.e{opacity:0.42;}.f{opacity:0.22;}.g{fill:#b2857f;}.h{fill:#020202;opacity:0.1;}.i{fill:#996764;}.j{fill:url(#a);}</style><linearGradient id="a" x1="2.23" y1="10.176" x2="1.877" y2="9.565" gradientUnits="objectBoundingBox"><stop offset="0.01" stop-color="#fff"/><stop offset="1" stop-color="#fff" stop-opacity="0"/></linearGradient></defs><g transform="translate(-0.005)"><path class="a" d="M254.685,86l-31.97,26.7c-11.662,9.751-23.389,19.535-36.237,27.7-32.036,20.358-70.134,30.043-101.281,51.752A157.267,157.267,0,0,0,22.689,284.3c-17.048,72.77,25.118,174.594,100,198.741,27.8,8.993,57.748,6.885,86.968,6.836,73.1-.132,146.264,13.177,219.066,5.93s149.064-40.832,180.293-106.931c28.479-60.268,20.21-145.572.675-207.306C596.511,139.7,572.874,100.3,538.433,73.042,490.272,34.961,425.26,23.826,364.119,29.08,347.483,30.5,330.666,33.116,315.546,40.2c-13.622,6.391-25.349,16.142-36.9,25.794Z" transform="translate(-18.92 -24.798)"/><rect class="b" width="204.292" height="395.011" rx="17.83" transform="translate(244.593)"/><rect class="c" width="196.221" height="384.42" rx="17.24" transform="translate(248.629 4.974)"/><path class="d" d="M358.619,58.769V376.019a27.128,27.128,0,0,1-27.392,26.848H200.594a27.573,27.573,0,0,1-13.622-3.558,26.716,26.716,0,0,1-13.8-23.29V58.769a27.144,27.144,0,0,1,27.424-26.848h22.071v3.9a12.979,12.979,0,0,0,8.236,11.81,13.819,13.819,0,0,0,5.024.955H296.6A13.177,13.177,0,0,0,309.864,35.61v-3.69h21.412A27.639,27.639,0,0,1,350.2,39.366,26.551,26.551,0,0,1,358.619,58.769Z" transform="translate(80.894 -22.17)"/><rect class="d" width="172.749" height="164.728" transform="translate(308.485 58.687)"/><rect class="e" width="172.749" height="164.728" transform="translate(308.485 58.687)"/><rect class="d" width="155.356" height="132.214" transform="translate(316.622 66.099)"/><path class="f" d="M192.22,99.5,255.585,60.89l42.644,42.66,3.443-1.911L286.517,86.486l13.342-13.358,47.717,37.538V158.91H193.307Z" transform="translate(124.385 39.403)"/><path class="g" d="M178.282,127.726c-.313-.478-.906-1-1.367-.675a1.351,1.351,0,0,0-.4.675,3.129,3.129,0,0,1-2.751,1.647c-1.071.082-2.207-.165-3.294-.165a9.339,9.339,0,0,0-7.313,3.953,14.824,14.824,0,0,0-2.635,8.087,10.278,10.278,0,0,0,1.977,7.313c2.586,2.932,7.05,3.031,10.953,2.882l3.541-.115a3.294,3.294,0,0,0,3.69-2.7c1.466-3.525,4.1-7.05,2.273-10.607C181.378,134.891,180.423,130.328,178.282,127.726Z" transform="translate(72.669 39.325)"/><path class="g" d="M225.187,292.27a22.17,22.17,0,0,1-1.746,9.339,15.73,15.73,0,0,1-6.8,6.309,26.749,26.749,0,0,1-19.765,1.944,3.97,3.97,0,0,1-2.273-1.384,3.146,3.146,0,0,1-.412-1.96c.148-3.657,2.586-6.77,5.2-9.323s5.534-4.941,7.132-8.236c3.031-6.144.774-22.483,12.353-19.848C228.481,271.336,225.484,285.435,225.187,292.27Z" transform="translate(94.482 131.137)"/><path class="b" d="M229.975,289.968s1.647,4.052-.4,6.407-22.813,15.269-36.813,4.941,19.09-11.826,19.09-11.826Z" transform="translate(91.341 144.508)"/><path class="d" d="M228.664,284.62a2.965,2.965,0,0,0-3.739.972,12.222,12.222,0,0,1-11.118,3.986c-4.562-1.087-6.374-6.341-8.614-6.358S190.83,293.465,190.122,297.9s5.485,7.659,12.3,8.1,22.3-4.315,25.234-7.906S230.245,286.877,228.664,284.62Z" transform="translate(91.828 140.451)"/><path class="g" d="M249.259,296.063a22.022,22.022,0,0,1-1.647,9.323,15.582,15.582,0,0,1-6.819,6.308,26.749,26.749,0,0,1-19.765,1.96,3.953,3.953,0,0,1-2.29-1.384,3.443,3.443,0,0,1-.412-1.977c.148-3.64,2.6-6.753,5.2-9.323s5.5-4.941,7.148-8.153c3.014-6.144.774-22.467,12.337-19.848C252.536,275.162,249.522,289.261,249.259,296.063Z" transform="translate(110.106 133.636)"/><path class="b" d="M254.023,293.795s1.647,4.035-.379,6.407-22.78,15.269-36.764,4.941,18.909-11.793,18.909-11.793Z" transform="translate(106.939 147.006)"/><path class="d" d="M252.722,288.46a2.965,2.965,0,0,0-3.739.972,12.073,12.073,0,0,1-11.134,3.986c-4.53-1.087-6.374-6.341-8.6-6.358s-14.363,10.262-15.022,14.676,5.468,7.659,12.32,8.1,22.269-4.315,25.217-7.89S254.3,290.733,252.722,288.46Z" transform="translate(107.433 142.936)"/><path class="c" d="M259.553,183.826s2.158,118.79-6.588,158.419L230.63,345,215.18,182.36Z" transform="translate(108.08 75.183)"/><path class="c" d="M201.827,175.38s-10.492,64.073,2.24,166.984l22.335,2.751,15.45-162.653Z" transform="translate(96.809 70.666)"/><path class="b" d="M184.378,164.386c.247,4.3,1.647,8.038,5.386,9.273a6.313,6.313,0,0,0,.955.264c6.869,1.367,15.862-3.854,22.121-8.4a86.285,86.285,0,0,0,7.527-6.094V113.49l-33.288,34.128S183.917,156.842,184.378,164.386Z" transform="translate(88.117 30.616)"/><path class="b" d="M202.422,169.64c0,2.158-.264,4.3-.28,6.457,0,11.843,2.751,24.081-.774,35.693-.807,2.6-1.911,5.386-1,7.939a9.883,9.883,0,0,0,4.941,4.777c10.443,5.715,22.533,7.461,34.309,9.109,8.861,1.252,21.412,3.887,29.648-.889,3.492-2.042,4.678-5.831,5.781-9.6,3.558-12.024,4.612-24.954,5.534-37.406q.2-2.471.346-4.941,1.021-17.015.675-34.062c-.148-8.236-.807-17.146-6.177-23.373-7.165-8.236-21.017-13.77-31.526-15.7a35.875,35.875,0,0,0-10.36-.576,43.912,43.912,0,0,0-14,4.76c-5.2,2.586-9.883,4.76-12.419,9.883A70.825,70.825,0,0,0,201.3,140.5a66.69,66.69,0,0,0-.428,18.464c.313,3,1.071,6,1.384,8.993a8.237,8.237,0,0,1,.165,1.68Z" transform="translate(98.272 26.366)"/><path class="b" d="M244.939,173.684c0,39.037-17.624,70.694-39.366,70.694h-5.617c-20.852-1.812-33.766-32.811-33.766-70.694,0-38.279,12.255-69.492,33.42-70.694h5.963C227.38,103.006,244.939,134.648,244.939,173.684Z" transform="translate(76.377 23.821)"/><path class="h" d="M244.939,173.684c0,39.037-17.624,70.694-39.366,70.694h-5.617c-20.852-1.812-33.766-32.811-33.766-70.694,0-38.279,12.255-69.492,33.42-70.694h5.963C227.38,103.006,244.939,134.648,244.939,173.684Z" transform="translate(76.377 23.821)"/><ellipse class="b" cx="39.383" cy="70.694" rx="39.383" ry="70.694" transform="translate(236.671 126.811)"/><ellipse class="d" cx="33.535" cy="60.202" rx="33.535" ry="60.202" transform="translate(242.518 137.303)"/><ellipse class="b" cx="27.902" cy="50.105" rx="27.902" ry="50.105" transform="translate(248.151 147.4)"/><ellipse class="d" cx="20.655" cy="37.077" rx="20.655" ry="37.077" transform="translate(255.399 160.429)"/><ellipse class="b" cx="14.429" cy="25.893" rx="14.429" ry="25.893" transform="translate(261.625 171.613)"/><ellipse class="d" cx="7.511" cy="13.473" rx="7.511" ry="13.473" transform="translate(268.542 184.032)"/><path class="h" d="M238.333,230.1c3.426,1.021,11.349-2.158,14-2.6,1.647-.28,3-1.071,4.563-1.449,7.857-1.96,8.8-24.015,9.553-29.945,2.042-15.681,5.155-31.938,5.386-47.667,0-6.061-.082-12.238-2.075-17.97s-6.061-11.019-11.777-13.078c-10.031-3.624-13.012,28.1-14.379,34.589-1.729,8.236-3.492,16.471-5.188,24.707-1.235,6.012-.544,10.822-5.3,15.285a2.19,2.19,0,0,1-1.219.708,2.6,2.6,0,0,1-1.2-.3,18.908,18.908,0,0,0-6.308-1.5,4.941,4.941,0,0,0-2.849.445,4.793,4.793,0,0,0-1.927,3.146,14.165,14.165,0,0,0,6.061,14.824c2.141,1.334,4.6,2.059,6.737,3.294,8.12,4.941,1.318,10.2,4.546,16.257a2.141,2.141,0,0,0,1.384,1.252Z" transform="translate(110.737 32.956)"/><path class="g" d="M214.606,109.14a7.643,7.643,0,0,0,3.986,3.657c2.026.824,4.315.939,5.946,2.421h0a10.393,10.393,0,0,1,2.668,5.765c.478,2.224.955,4.431,1.449,6.588.231,1.12.494,2.224.725,3.294a4.678,4.678,0,0,0,.626,1.647,4.134,4.134,0,0,0,3.294,1.417A13.671,13.671,0,0,0,240.762,132a2.24,2.24,0,0,0,.939-.857,2.553,2.553,0,0,0,.148-1.482l-.84-9.586a12.189,12.189,0,0,1,1.186-7.725c2.471-5.155,5.139-10.311,6.111-15.993a13.177,13.177,0,0,0-.659-7.89,13.556,13.556,0,0,0-8.746-6.292,25.4,25.4,0,0,0-14.412-.132c-1.746.593-2.289,1.8-3.113,3.294-1.235,2.438-2.388,4.941-3.426,7.461-1.169,2.866-2.191,5.814-3.113,8.812A10.327,10.327,0,0,0,214.606,109.14Z" transform="translate(107.32 9.634)"/><path class="c" d="M224.959,90.92c2.635,2.355,7.181.774,10.031,2.866s2.6,6.193,2.619,9.174c0,.527-.939,6.588-1.647,6.193,1.153.824,2.042-1.417,3.294-2.075s3.13,1.252,2.817,2.9a9.783,9.783,0,0,1-2.7,4.134,14.2,14.2,0,0,0-3.146,8.779c0,.741.28,1.647,1.038,1.746s1.647-1.038,2.158-1.433c3.047-2.059,6.72-2.915,9.685-5.073a9.191,9.191,0,0,0,3.871-5.93,18.445,18.445,0,0,1,.478-4.941,14.476,14.476,0,0,1,2.257-2.932,3.294,3.294,0,0,0,.725-3.393c-.247-.494-.692-.857-.939-1.351a4.941,4.941,0,0,1,0-3.294,10.986,10.986,0,0,0-1.647-8.861c-1.466-1.878-3.657-3.047-5.353-4.727s-2.817-4.447-1.5-6.44c.494-.774,1.367-1.5,1.186-2.4a2.125,2.125,0,0,0-1.433-1.318,9.323,9.323,0,0,0-8.73.972c.972-1.137-.379-3.031-1.861-3.08a6.012,6.012,0,0,0-3.92,1.944,2.355,2.355,0,0,0-2.059-1.944,5.732,5.732,0,0,0-2.965.511,16.57,16.57,0,0,0-7.478,5.386,10.459,10.459,0,0,0-1.861,8.829,4.941,4.941,0,0,0,2.932,3.541,13.473,13.473,0,0,1,2.553.642,9.589,9.589,0,0,1,1.6,1.581Z" transform="translate(109.633 2.735)"/><path class="i" d="M219.53,101.258l.774.214a1.021,1.021,0,0,1,.593.3.955.955,0,0,1,0,.527,10.393,10.393,0,0,1,2.668,5.765c.478,2.224.955,4.431,1.45,6.588A53.782,53.782,0,0,0,230.4,101.06,52.133,52.133,0,0,1,219.53,101.258Z" transform="translate(110.895 22.572)"/><path class="g" d="M227.766,151.04a4.118,4.118,0,0,0-3.541-1.5,13.84,13.84,0,0,0-2.158,1.334,5.057,5.057,0,0,1-2.026.461,20.852,20.852,0,0,1-8.351-1.17,10.245,10.245,0,0,0-4.3-1.087,6.391,6.391,0,0,0-4.315,3.08,12.106,12.106,0,0,0-.4,13.177,12.732,12.732,0,0,0,4.3,3.92,26.634,26.634,0,0,0,12.337,3.08c4.283.181,8.614-.132,12.847.181a4.727,4.727,0,0,0,2.965-.379,4.6,4.6,0,0,0,1.417-3.755c.165-3.294.708-5.946-1.186-8.7a111.693,111.693,0,0,0-7.593-8.647Z" transform="translate(98.853 53.647)"/><path class="b" d="M263.687,117.762s47.107,61.6,32.234,83.377-77.711-3.591-77.711-3.591l6.111-18.036s44.143,5.584,44.472.659-28-33.239-28-33.239S235.686,105.491,263.687,117.762Z" transform="translate(110.04 31.911)"/><path class="b" d="M101.027,127.455l-11.3-11.662-3.245-5.337H78.659l-3.228-4.217H64.889l3.475,5.337H55.83l15.878,16.5-12.8,13.786H71.84L68.216,146.2h9.817l4.2-5.831h7.1Z" transform="translate(36.125 68.749)"/><path class="h" d="M71.708,126.424h29.319l-11.3-12.287L86.483,108.8H78.659l7.725,14.643H77.8L68.365,109.92H55.83Z" transform="translate(36.125 70.406)"/><path class="b" d="M243.347,145.93a2.207,2.207,0,0,1-2.224,2.224H92.175a2.24,2.24,0,1,1-.379-4.464H241.107A2.24,2.24,0,0,1,243.347,145.93Z" transform="translate(26.909 50.159)"/><path class="h" d="M239.451,145.05v2.224H92.1a2.207,2.207,0,0,1-2.24-2.207H239.451Z" transform="translate(26.983 51.039)"/><path class="h" d="M63.35,137.036,77.038,120.4h8.186L73.167,137.036Z" transform="translate(40.992 77.913)"/><path class="b" d="M156.47,113.92l2.471,8.45-2.471,7.28,19.205-6.7Z" transform="translate(101.251 73.719)"/><path class="j" d="M156.47,113.92l2.471,8.45-2.471,7.28,19.205-6.7Z" transform="translate(101.251 73.719)"/><circle class="b" cx="30.389" cy="30.389" r="30.389" transform="translate(129.855 115.957)"/><path class="d" d="M109.2,130.456a2.422,2.422,0,0,0,.626.791,4.3,4.3,0,0,0,1.318.659c5.65,1.96,11.53,3.64,17.509,3.1a4.414,4.414,0,0,0,1.828-.461,1.647,1.647,0,0,0,.906-1.532,6.8,6.8,0,0,1-.115-.807c0-1.021,1.647-1.186,2.042-2.108a1.647,1.647,0,0,0-.478-1.746c-.445-.461-1-.791-1.433-1.268a5.106,5.106,0,0,0,1.812-1.647,2.059,2.059,0,0,0-.148-2.339c-.445-.478-1.235-.741-1.3-1.384s.576-1,.939-1.466a2.685,2.685,0,0,0-.642-3.624,5.732,5.732,0,0,0-3.887-1,31.061,31.061,0,0,1-4.1.181,1.153,1.153,0,0,1-.906-.362c-.264-.362-.1-.889,0-1.318a9.7,9.7,0,0,0-.609-8.746,2.965,2.965,0,0,0-2.882-1.515,2.52,2.52,0,0,0-1.647,1.515,10.392,10.392,0,0,0-.527,2.224c-.791,4.513-2.932,9.339-7.494,11.019-.774.28-1.466.132-1.977.84a3.986,3.986,0,0,0-.494,2.174,18.843,18.843,0,0,0,1.334,8.466Z" transform="translate(38.391 24.372)"/><circle class="b" cx="23.01" cy="23.01" r="23.01" transform="translate(207.517 250.378)"/><path class="d" d="M153.454,203.717a1.862,1.862,0,0,0,.461.609,3.13,3.13,0,0,0,.988.511,32.037,32.037,0,0,0,13.177,2.569,3.113,3.113,0,0,0,1.384-.329,1.268,1.268,0,0,0,.725-1.153c0-.214-.1-.412-.1-.609,0-.774,1.268-.873,1.647-1.647a1.235,1.235,0,0,0-.346-1.318c-.329-.346-.741-.609-1.071-.972a3.936,3.936,0,0,0,1.4-1.252,1.647,1.647,0,0,0-.082-1.779c-.329-.362-.922-.577-.955-1.054s.428-.758.725-1.1a2.059,2.059,0,0,0-.445-2.751,4.348,4.348,0,0,0-2.932-.807,24.281,24.281,0,0,1-3.1,0,.906.906,0,0,1-.692-.28c-.2-.28,0-.675,0-1a7.379,7.379,0,0,0-.362-6.588,2.257,2.257,0,0,0-2.158-1.186,1.894,1.894,0,0,0-1.219,1.137,7.133,7.133,0,0,0-.428,1.647c-.659,3.41-2.339,7.033-5.814,8.236-.593.2-1.1.082-1.5.609a3.014,3.014,0,0,0-.4,1.647,13.8,13.8,0,0,0,.889,6.424,2.157,2.157,0,0,0,.2.445Z" transform="translate(67.388 75.963)"/><circle class="b" cx="20.49" cy="20.49" r="20.49" transform="translate(117.552 228.669)"/><path class="d" d="M107.433,177.611s-7.478-9.076-12.205-.478,14.989,16.257,14.989,16.257,11.085-10.212,9.883-16.372S108.816,168.453,107.433,177.611Z" transform="translate(29.983 68.188)"/><circle class="b" cx="32.761" cy="32.761" r="32.761" transform="translate(164.412 172.782)"/><path class="d" d="M146.133,151.351s-11.991-14.544-19.535-.791,23.966,26.008,23.966,26.008,17.723-16.323,15.895-26.173S148.373,136.692,146.133,151.351Z" transform="translate(50.002 48.839)"/><circle class="f" cx="9.899" cy="9.899" r="9.899" transform="translate(434.555 84.019)"/></g></svg>