<svg xmlns="http://www.w3.org/2000/svg" width="609.182" height="277.624" viewBox="0 0 609.182 277.624"><defs><style>.a{fill:#f2f2f2;}.b{fill:#e6e6e6;}.c{fill:#ccc;}.d{fill:#3f3d56;}.e{fill:#f07663;}.f{fill:#fff;}.g{fill:#2f2e41;}.h{fill:#ffb8b8;}</style></defs><circle class="a" cx="27.31" cy="27.31" r="27.31" transform="translate(532.746 102.278)"/><circle class="b" cx="7.187" cy="7.187" r="7.187" transform="translate(552.869 122.401)"/><path class="c" d="M895.154,408.288c3.027,2.47,3.95,6.362,3.387,10.121a17.573,17.573,0,0,1-6.033,10.551c-3.6,3.2-7.991,5.362-12.228,7.576a88.939,88.939,0,0,0-11.194,6.8,86.75,86.75,0,0,0-29.814,39.744c-5.882,15.711-7.46,33.543-2.991,49.825,2.211,8.056,6.685,16.748,15.019,19.779,6.643,2.416,15.714.86,19.1-5.987,3.634-7.355-1.436-15.622-7.966-19.274-8.465-4.733-18.576-1.274-26.19,3.516-8.382,5.274-15.12,12.844-23.872,17.571a30,30,0,0,1-12.824,3.741,32.119,32.119,0,0,1-12.152-1.877,41.162,41.162,0,0,1-19.88-15.431c-5.559-8.08-8.047-17.985-8.5-27.688-1.015-21.709,7.561-42.019,14.441-62.151a189.892,189.892,0,0,0,8.279-32.24,167.032,167.032,0,0,0,1.829-33.339c-.455-9.856-1.428-20.162-5.778-29.164-3.825-7.915-10.816-14.393-19.654-16.027a19.6,19.6,0,0,0-11.815,1.357c-1.261.575-.166,2.434,1.088,1.862,7.821-3.568,17.066-.1,22.843,5.665,6.746,6.727,9.223,16.662,10.323,25.829a162.129,162.129,0,0,1-5.727,64.678c-6,20.377-15.435,39.9-17.612,61.251-.994,9.742-.483,19.813,2.631,29.154a45.536,45.536,0,0,0,14.43,21.249c6.355,5.137,14.173,8.638,22.4,9.028,9.238.438,17.34-3.681,24.507-9.16,7.677-5.868,14.739-13.108,24.038-16.4,4.239-1.5,9.068-2.2,13.42-.756a16.84,16.84,0,0,1,8.95,7.2c1.89,3.143,2.588,7.074.863,10.451a11.19,11.19,0,0,1-8.215,5.64,15.941,15.941,0,0,1-10.582-1.8,22.35,22.35,0,0,1-8.426-9.545c-3.838-7.582-5.128-16.607-5.323-25.023a82.851,82.851,0,0,1,3.125-24.33,85.852,85.852,0,0,1,25.937-41.346,76.154,76.154,0,0,1,10.043-7.395c3.867-2.383,7.994-4.287,11.935-6.536,3.879-2.213,7.7-4.856,10.372-8.5a18.28,18.28,0,0,0,3.512-10.745,12.05,12.05,0,0,0-4.171-9.395c-1.066-.87-2.6.647-1.525,1.525Z" transform="translate(-336.411 -278.546)"/><path class="d" d="M597.914,612.166a62.771,62.771,0,0,0,31.961,10.019,14.957,14.957,0,0,1-.683,1.409,17.946,17.946,0,0,1-33.736-8.531v-2.9Z" transform="translate(-294.131 -356.806)"/><path class="d" d="M678.68,613.346v2.048a17.939,17.939,0,0,1-33.692,8.588,14.977,14.977,0,0,1-.712-1.445c.525.014,1.042.022,1.567.022A62.862,62.862,0,0,0,678.68,613.346Z" transform="translate(-307.864 -357.138)"/><path class="d" d="M725.148,311.9c-.539-.079-1.085-.129-1.631-.165a60.357,60.357,0,0,1,1.2,45.069c.546-.065,1.086-.151,1.625-.252a22.641,22.641,0,0,0-1.193-44.653Z" transform="translate(-330.155 -272.294)"/><path class="d" d="M561.115,311.736c-.546.036-1.092.086-1.631.165a22.641,22.641,0,0,0-1.193,44.653c.539.1,1.078.187,1.624.252A60.357,60.357,0,0,1,561.115,311.736Z" transform="translate(-278.519 -272.294)"/><path class="d" d="M679.277,297.112a61.806,61.806,0,1,0,4.794,23.861,61.806,61.806,0,0,0-4.794-23.861Zm-.431,44.9a60.357,60.357,0,1,1,3.788-21.043,60.357,60.357,0,0,1-3.788,21.043Z" transform="translate(-284.284 -257.504)"/><path class="d" d="M660.779,325.666H597.534a12.577,12.577,0,0,0,0,25.154h63.245a12.577,12.577,0,1,0,0-25.154Z" transform="translate(-291.177 -276.212)"/><path class="d" d="M621.151,448.166a64.68,64.68,0,0,0-2.918,129.294c.683.036,1.373.057,2.063.057.287.014.568.014.855.014a64.683,64.683,0,0,0,0-129.365ZM653.988,566.88a62.862,62.862,0,0,1-32.837,9.214c-.525,0-1.042-.007-1.567-.022q-.334,0-.668-.022a63.282,63.282,0,1,1,35.072-9.171Z" transform="translate(-283.172 -310.672)"/><path class="d" d="M695.652,510.186H667.383a7.427,7.427,0,0,1,0-14.853h28.269a7.427,7.427,0,1,1,0,14.853Z" transform="translate(-312.275 -323.94)"/><circle class="a" cx="3.769" cy="3.769" r="3.769" transform="translate(353.223 175.05)"/><circle class="a" cx="3.769" cy="3.769" r="3.769" transform="translate(365.473 175.05)"/><circle class="e" cx="3.769" cy="3.769" r="3.769" transform="translate(377.723 175.05)"/><path class="a" d="M294.506,600.737c6.463-5.461,10.389-14.088,9.359-22.486s-7.406-16.119-15.677-17.9-17.7,3.153-20.212,11.233C266.593,556,265,539.774,256.718,526.508c-7.5-12.012-20.488-20.606-34.564-22.144s-28.9,4.27-37.677,15.38-10.929,27.263-4.78,40.019c4.53,9.4,12.874,16.39,21.618,22.079,27.895,18.151,62.5,24.284,95.423,19.438Z" transform="translate(-176.19 -326.412)"/><path class="f" d="M206.178,510.723a228.279,228.279,0,0,1,31.812,31.59,231.536,231.536,0,0,1,25.088,37.13,230.591,230.591,0,0,1,10.743,22.748c.645,1.581-1.922,2.269-2.56.706a226.591,226.591,0,0,0-20.7-39.173A227.442,227.442,0,0,0,204.3,512.6C202.975,511.521,204.863,509.653,206.178,510.723Z" transform="translate(-183.971 -328.18)"/><circle class="g" cx="22.28" cy="22.28" r="22.28" transform="translate(93.845 2.875)"/><path class="h" d="M429.073,394.718a7.746,7.746,0,0,1-1.544,1.705,7.907,7.907,0,0,1-11.662-1.8,7.361,7.361,0,0,1-.386-.674l-35.108-3.387a12.946,12.946,0,0,1-11.418-10.421l-1.993-10.505,13.7-2.132,2.459,8.415,34.23,8.408a7.531,7.531,0,0,1,.841-.64,7.907,7.907,0,0,1,10.88,11.026Z" transform="translate(-229.855 -287.983)"/><path class="g" d="M380.856,366.011l-15.305,4.135a3.238,3.238,0,0,1-3.966-2.279l-5.361-19.844a8.911,8.911,0,0,1,16.533-6.388l10.134,19.779a3.234,3.234,0,0,1-2.035,4.6Z" transform="translate(-226.747 -279.341)"/><path class="h" d="M202.091,360.831H210.9l4.192-33.986h-13Z" transform="translate(-56.848 -91.943)"/><path class="g" d="M0,0H27.692V10.7H10.7A10.7,10.7,0,0,1,0,0H0Z" transform="translate(171.045 277.07) rotate(179.997)"/><path class="h" d="M92.822,349.74l8.243,3.112,15.928-30.313-12.166-4.593Z" transform="translate(-26.111 -89.439)"/><path class="g" d="M0,0H27.692V10.7H10.7A10.7,10.7,0,0,1,0,0H0Z" transform="translate(87.959 277.069) rotate(-159.315)"/><path class="g" d="M347.71,558.9a3.232,3.232,0,0,1-3.073-2.238l-22.473-69.4a1.078,1.078,0,0,0-2-.127L289.019,553.4a3.237,3.237,0,0,1-3.949,1.693L272.8,551a3.241,3.241,0,0,1-2.1-3.894l19.077-72.263a164.647,164.647,0,0,0,4.315-23.305,52.831,52.831,0,0,1,17.045-33.69,24.583,24.583,0,0,0,7.737-14.707l.051-.361,27.938,4.411,17.7,144.407a3.248,3.248,0,0,1-2.369,3.516l-13.636,3.671a3.217,3.217,0,0,1-.845.112Z" transform="translate(-202.746 -297.906)"/><circle class="h" cx="17.652" cy="17.652" r="17.652" transform="translate(107.323 12.024)"/><path class="e" d="M360.685,389.9c-.055,0-.111,0-.166,0l-27.7-1.385a3.216,3.216,0,0,1-3.056-2.9l-3.784-36.889A16.653,16.653,0,0,1,347.059,331h0a16.152,16.152,0,0,1,5.926,3.048c19.483,16,13.2,44.989,10.811,53.493A3.221,3.221,0,0,1,360.685,389.9Z" transform="translate(-218.303 -277.537)"/><path class="h" d="M330.981,421.993a7.749,7.749,0,0,1-2.277-.342,7.907,7.907,0,0,1-4.964-10.7,7.359,7.359,0,0,1,.347-.695L307.46,379.147a12.946,12.946,0,0,1,2.351-15.279l7.642-7.478,9.364,10.227-5.644,6.708,11.961,33.156a7.537,7.537,0,0,1,1,.346,7.907,7.907,0,0,1-3.153,15.166Z" transform="translate(-212.693 -284.855)"/><path class="g" d="M324.155,366.834l-11.92-10.452a3.238,3.238,0,0,1-.3-4.564l13.552-15.456a8.911,8.911,0,0,1,14.476,10.226L329.11,365.982a3.234,3.234,0,0,1-4.955.852Z" transform="translate(-214.15 -278.367)"/><path class="g" d="M329.33,305.134c1.611.571,3.585,1.075,4.852-.11,1.237-1.156,1.012-3.271.283-4.829s-1.859-2.944-2.206-4.64a7.141,7.141,0,0,1,2.621-6.539,19.389,19.389,0,0,1,6.394-3.217l12.357-4.393c3.059-1.087,6.355-2.365,8.066-5.226,2.477-4.14.213-10.058-3.85-12.474s-9.194-1.966-13.577-.267c-2.424.94-4.73,2.234-7.237,2.9-4.948,1.305-10.573.134-14.921,2.924-3.785,2.428-5.54,7.383-5.413,12.02s1.835,9.052,3.635,13.292a24.716,24.716,0,0,0,4.03,7.081c1.814,2.006,4.436,3.41,7.056,3.041Z" transform="translate(-215.714 -258.312)"/><circle class="g" cx="14.374" cy="14.374" r="14.374" transform="translate(83.064)"/><path class="d" d="M463.216,386.945l-.255-.035.961-6.988a4.082,4.082,0,0,0-3.489-4.6l-14.8-2.035a4.082,4.082,0,0,0-4.6,3.488l-5.27,38.336a4.082,4.082,0,0,0,3.488,4.6l14.8,2.035a4.083,4.083,0,0,0,4.6-3.488l3.625-26.374.255.035Z" transform="translate(-249.197 -289.598)"/><path class="f" d="M460.647,378.212l-1.843-.253a1.382,1.382,0,0,1-1.527,1.711l-8.09-1.112a1.382,1.382,0,0,1-1.008-2.06l-1.722-.237a2.908,2.908,0,0,0-3.277,2.485l-5.019,36.513a2.908,2.908,0,0,0,2.485,3.277l14.189,1.951A2.908,2.908,0,0,0,458.112,418h0l5.019-36.513A2.908,2.908,0,0,0,460.647,378.212Z" transform="translate(-249.876 -290.437)"/><circle class="e" cx="7.906" cy="7.906" r="7.906" transform="translate(192.802 102.278)"/><path class="f" d="M453.316,412.009a.82.82,0,0,1-.493-.164l-.009-.007-1.858-1.422a.825.825,0,0,1,1-1.31l1.2.923,2.844-3.709a.825.825,0,0,1,1.157-.153l-.018.024.018-.024a.826.826,0,0,1,.153,1.157l-3.345,4.362a.826.826,0,0,1-.657.322Z" transform="translate(-253.392 -298.81)"/><path class="c" d="M786.188,642.474H182.99a.856.856,0,1,1,0-1.711h603.2a.856.856,0,1,1,0,1.711Z" transform="translate(-177.862 -364.85)"/></svg>