<svg xmlns="http://www.w3.org/2000/svg" width="630.835" height="511.037" viewBox="0 0 630.835 511.037"><defs><style>.a{fill:#f2f2f2;}.b{fill:#3f3d56;}.c,.d,.e{fill:#f07663;}.c{opacity:0.3;}.e{opacity:0.4;}.f{fill:#2f2e41;}.g{fill:#ffb8b8;}.h{fill:#d0cde1;}</style></defs><path class="a" d="M100.178,0,58.464,81.361h8.421v66.347H24.448L0,195.393,302.93,350.7,403.108,155.312Z"/><rect class="b" width="464.429" height="233.004" transform="translate(91.37 52.926)"/><rect class="c" width="342.793" height="0.79" transform="translate(156.533 136.65)"/><rect class="c" width="342.793" height="0.79" transform="translate(156.928 156.396)"/><rect class="c" width="342.793" height="0.79" transform="translate(156.928 195.889)"/><rect class="c" width="342.793" height="0.79" transform="translate(156.928 213.265)"/><rect class="c" width="342.793" height="0.79" transform="translate(156.928 176.142)"/><ellipse class="b" cx="146.911" cy="13.427" rx="146.911" ry="13.427" transform="translate(300.679 484.182)"/><path class="d" d="M210.432,249.22l-1.09-1.144,51.025-48.633L305.345,231.8l36.373-40.326,15.949,13.557L401.053,179l48.192,32.391,75.636-43.022.78,1.373-76.486,43.506-48.169-32.377-43.5,26.1-15.644-13.3L305.571,233.9l-45.064-32.414Z" transform="translate(-43.994 -35.382)"/><path class="b" d="M597.118,715.033c3.712,13.723,16.428,22.221,16.428,22.221s6.7-13.75,2.984-27.473S600.1,687.56,600.1,687.56,593.405,701.31,597.118,715.033Z" transform="translate(-283.741 -244.406)"/><path class="d" d="M597.549,715.748c10.187,9.916,11.431,25.159,11.431,25.159s-15.271-.834-25.458-10.75S572.091,705,572.091,705,587.362,705.832,597.549,715.748Z" transform="translate(-278.717 -248.071)"/><circle class="e" cx="26.46" cy="26.46" r="26.46" transform="translate(577.915 15.804)"/><circle class="e" cx="18.561" cy="18.561" r="18.561" transform="translate(536.843 36.34)"/><circle class="e" cx="9.873" cy="9.873" r="9.873" transform="translate(522.626 385.451)"/><circle class="e" cx="7.504" cy="7.504" r="7.504" transform="translate(356.758 439.161)"/><circle class="e" cx="9.873" cy="9.873" r="9.873" transform="translate(329.114 337.271)"/><circle class="d" cx="10.268" cy="10.268" r="10.268" transform="translate(470.101 126.777)"/><path class="f" d="M721.6,535.241l-8.7.967s-3.869,17.409,0,40.621,8.7,46.424,8.7,46.424,3.869,75.439,5.8,76.406,19.343,6.77,20.31.967.967-138.3.967-138.3l13.54,63.833s1.934,80.275,5.8,80.275,16.442-.967,16.442-7.737,2.9-95.75,2.9-95.75-.967-65.767-4.836-67.7S721.6,535.241,721.6,535.241Z" transform="translate(-307.947 -212.215)"/><path class="f" d="M730.634,739.847s-8.7-.967-10.639,0-4.836,7.737,0,11.606,17.409,9.672,21.278,9.672a20.008,20.008,0,0,0,7.737-1.934l-1.934-16.442Z" transform="translate(-309.244 -255.304)"/><path class="f" d="M783.149,744.23l.967,13.54s12.573,1.934,13.54,0,10.639-6.77,11.606-7.737,1.934-11.606-3.869-12.573-7.737,1.934-7.737,1.934Z" transform="translate(-323.072 -254.851)"/><path class="g" d="M674.82,432.612s-23.212,22.245-20.311,33.851,26.114,45.457,26.114,45.457,22.245,11.606,25.146,0-15.475-8.7-15.475-8.7L675.788,468.4l16.442-23.212Z" transform="translate(-295.985 -190.827)"/><path class="g" d="M808.551,369.535s21.145-13.6,20.656-22.94-13.237-38.8-13.237-38.8-9.972-20.733-13.936-12.26,5.21,17.492,5.21,17.492l5.922,28.894-16.094,15.354Z" transform="translate(-325.998 -161.593)"/><circle class="g" cx="17.409" cy="17.409" r="17.409" transform="translate(412.686 153.772)"/><path class="g" d="M734.169,355.066l2.9,18.376,21.278-3.869s-.967-18.376-.967-20.31S734.169,355.066,734.169,355.066Z" transform="translate(-312.779 -173.246)"/><path class="h" d="M726,378.824s24.179-5.8,27.081-3.869,17.409,3.869,17.409,3.869l16.442,25.146-4.836,31.917s-.967,51.26.967,59.964,12.573,9.672-9.672,11.606-26.114-.967-41.588,2.9-28.048-1.934-24.179-5.8,10.639-65.767,2.9-71.57S699.883,397.2,699.883,397.2,726,383.66,726,378.824Z" transform="translate(-305.573 -178.628)"/><path class="h" d="M785.6,381.316l2.9-2.9,5.8-5.8s18.86,8.221,17.893,11.122-7.254,19.827-7.254,19.827l-8.7,2.9Z" transform="translate(-323.587 -178.218)"/><path class="h" d="M706.085,405.158l-11.606-1.934s-8.7,9.672-11.606,13.54-8.7,13.54-8.7,13.54l20.311,14.508,15.475-16.442Z" transform="translate(-300.169 -184.651)"/><path class="f" d="M745.508,315.324l-.178-1.395a10.963,10.963,0,0,0-3.484.547,5.723,5.723,0,0,1,.215-2.506,11.142,11.142,0,0,0-3.225,1.4l-.7-2.545-9.669,4.765c-3.471,1.71-7.13,3.59-9.114,6.912-2.212,3.7-1.827,8.463-.315,12.5s4.024,7.615,6.038,11.43a28.553,28.553,0,0,0,2.744,4.671c3.65,4.55,10.753,5.469,15.9,2.723a9.2,9.2,0,0,0,4.406-4.534,29.47,29.47,0,0,0,.88-3.754c.637-2.6,1.375-7.966,3.487-9.611.929-.724,2.771,1.675,3.541.784,1.979-2.29,1.564-5.822.335-8.588a62.672,62.672,0,0,0-4.125-8.047C751.576,319.044,745.487,315.157,745.508,315.324Z" transform="translate(-309.338 -165.234)"/><rect class="b" width="50.55" height="50.55" transform="translate(10.016 90.839)"/></svg>