<svg xmlns="http://www.w3.org/2000/svg" xmlns:xlink="http://www.w3.org/1999/xlink" width="685.615" height="503.973" viewBox="0 0 685.615 503.973"><defs><style>.a,.e{fill:#f07663;}.a,.f,.x{opacity:0.1;}.b{opacity:0.9;}.c,.j{fill:#3a3768;}.d{fill:#e6e8ec;}.g{fill:#ffd037;}.h{fill:#a8a8a8;}.i{opacity:0.2;}.j{opacity:0.3;}.k{fill:#fff;}.l{fill:#514e7f;}.m{fill:#464353;}.n{fill:#a1616a;}.o{fill:#fbbebe;}.p,.t{opacity:0.05;}.q{fill:#3f3d56;}.r{fill:url(#a);}.s{fill:#2d293d;}.u{fill:#ffcdd3;}.v{fill:#dce6f2;}.w{fill:#575988;}</style><linearGradient id="a" x1="0.501" y1="1" x2="0.501" gradientUnits="objectBoundingBox"><stop offset="0" stop-color="gray" stop-opacity="0.251"/><stop offset="0.54" stop-color="gray" stop-opacity="0.122"/><stop offset="1" stop-color="gray" stop-opacity="0.102"/></linearGradient></defs><g transform="translate(0 0.003)"><path class="a" d="M473.807,118.677c-40.469-1.407-79.013-14.469-115.818-28.764S284.729,59.78,245.2,52.208c-25.381-4.871-54.438-5.559-74.911,8.054C150.6,73.393,144.231,96,140.811,116.989c-2.576,15.8-4.089,32.422,2.964,47.21,4.9,10.267,13.594,18.9,19.609,28.764,20.929,34.216,6.134,76.411-16.539,109.821-10.63,15.67-22.98,30.64-31.19,47.31s-12.006,35.8-4.821,52.813c7.116,16.883,24.08,29.539,42.458,38.456,37.324,18.1,81.289,23.28,124.19,26.212,94.939,6.5,190.378,3.683,285.567.869,35.229-1.044,70.609-2.1,105.263-7.547,19.247-3.026,39.112-7.829,53.082-19.384,17.74-14.713,22.136-39.631,10.249-58.078-19.935-30.946-75.036-38.637-88.986-71.847-7.666-18.277.206-38.643,11.355-55.6C677.923,219.619,718,187.716,720.106,146.14c1.451-28.551-17.815-57.146-47.6-70.659C641.281,61.319,597.979,63.1,574.955,86.543,551.225,110.63,509.543,119.915,473.807,118.677Z" transform="translate(-72.478 -49.02)"/><g class="b" transform="translate(258.692 70.12)"><rect class="c" width="5.54" height="45.659" rx="2.29" transform="translate(184.225 85.441)"/><rect class="c" width="3.108" height="15.032" rx="1.554" transform="translate(0.113 49.674)"/><rect class="c" width="3.502" height="26.162" rx="1.751" transform="translate(0 77.193)"/><rect class="c" width="3.333" height="26.388" rx="1.666" transform="translate(0.056 112.51)"/><rect class="c" width="185.338" height="376.673" rx="38.99" transform="translate(1.876)"/><rect class="d" width="25.881" height="5.253" rx="2.626" transform="translate(76.662 11.243)"/><circle class="d" cx="2.983" cy="2.983" r="2.983" transform="translate(106.457 10.893)"/></g><ellipse class="a" cx="125.041" cy="12.744" rx="125.041" ry="12.744" transform="translate(23.805 442.716)"/><ellipse class="a" cx="58.578" cy="5.972" rx="58.578" ry="5.972" transform="translate(368.301 492.027)"/><ellipse class="a" cx="58.578" cy="5.972" rx="58.578" ry="5.972" transform="translate(568.459 461.938)"/><path class="e" d="M634.492,176.84h-21.2V179.4a12.118,12.118,0,0,1-12.118,12.118H533.531A12.118,12.118,0,0,1,521.413,179.4V176.84H501.5a14.713,14.713,0,0,0-14.713,14.72V519.172A14.713,14.713,0,0,0,501.5,533.892H634.492a14.719,14.719,0,0,0,14.719-14.719V191.56A14.719,14.719,0,0,0,634.492,176.84Z" transform="translate(-214.773 -96.915)"/><path class="e" d="M839.356,134.689s-52.65-3.177-46.441,33.716c0,0-1.251,6.522,4.677,9.48,0,0,.094-2.733,5.4-1.807a24.035,24.035,0,0,0,5.721.275,11.881,11.881,0,0,0,7-2.883h0s14.795-6.115,20.554-30.3c0,0,4.258-5.278,4.089-6.634l-8.885,3.8s3.033,6.409.625,11.737c0,0-.288-11.505-1.995-11.255-.35.05-4.621,2.22-4.621,2.22s5.228,11.162,1.251,19.278c0,0,1.495-13.757-2.914-18.471l-6.253,3.652s6.1,11.531,1.97,20.941c0,0,1.057-14.432-3.283-20.053L810.58,152.8s5.734,11.362,2.239,19.165c0,0-.463-16.8-3.47-18.065,0,0-4.959,4.377-5.715,6.165,0,0,3.927,8.254,1.495,12.606,0,0-1.495-11.193-2.72-11.255,0,0-4.94,7.416-5.453,12.506,0,0,.213-7.56,4.252-13.206,0,0-4.771.819-7.56,3.914,0,0,.769-5.24,8.754-5.7,0,0,4.083-5.628,5.177-5.965,0,0-7.973-.669-12.806,1.476,0,0,4.252-4.946,14.269-2.7l5.59-4.571s-10.493-1.432-14.945.15c0,0,5.127-4.377,16.458-1.188l6.09-3.639s-8.948-1.932-14.282-1.251c0,0,5.628-3.033,16.064.256l4.377-1.957s-6.559-1.288-8.479-1.494-2.02-.732-2.02-.732a22.729,22.729,0,0,1,12.4,1.413S839.512,135.27,839.356,134.689Z" transform="translate(-329.288 -81.096)"/><path class="e" d="M768.42,108.472s-23.761-1.432-20.985,15.239a4.067,4.067,0,0,0,2.114,4.283s.044-1.251,2.439-.819a10.949,10.949,0,0,0,2.583.125,5.39,5.39,0,0,0,3.164-1.3h0s6.684-2.764,9.286-13.694c0,0,1.926-2.382,1.876-3l-4.014,1.713s1.369,2.9.288,5.3c0,0-.125-5.2-.9-5.077-.156,0-2.082,1.007-2.082,1.007s2.357,5.04.575,8.71c0,0,.675-6.215-1.313-8.348l-2.826,1.651s2.758,5.209.888,9.461c0,0,.482-6.522-1.482-9.061l-2.564,2s2.595,5.134,1.013,8.66c0,0-.206-7.591-1.563-8.166a15.452,15.452,0,0,0-2.582,2.789s1.77,3.752.669,5.7c0,0-.675-5.059-1.251-5.084,0,0-2.232,3.352-2.464,5.628a12.169,12.169,0,0,1,1.92-5.965,6.7,6.7,0,0,0-3.414,1.77s.344-2.37,3.964-2.576c0,0,1.845-2.545,2.339-2.7,0,0-3.6-.3-5.784.669,0,0,1.92-2.232,6.447-1.251l2.5-2.063s-4.74-.625-6.753.069c0,0,2.32-1.976,7.435-.538l2.751-1.645a25,25,0,0,0-6.447-.557s2.539-1.369,7.253.113l1.97-.882s-2.958-.582-3.827-.675-.913-.331-.913-.331a10.23,10.23,0,0,1,5.559.625S768.489,108.734,768.42,108.472Z" transform="translate(-312.352 -71.286)"/><ellipse class="e" cx="25.143" cy="4.252" rx="25.143" ry="4.252" transform="translate(0 420.056)"/><path class="e" d="M94.656,709.517a7.272,7.272,0,0,0,2.4-3.614,3.24,3.24,0,0,0-1.676-3.683c-1.538-.594-3.183.475-4.427,1.551s-2.676,2.307-4.308,2.076a6.547,6.547,0,0,0,2.007-6.134,2.5,2.5,0,0,0-.563-1.251c-.85-.913-2.4-.519-3.427.2-3.252,2.289-4.158,6.7-4.171,10.68a19.7,19.7,0,0,1-.063-4.377c-.006-1.444-.413-3.126-1.651-3.889a5,5,0,0,0-2.5-.594c-1.463-.05-3.089.094-4.089,1.163-1.251,1.326-.919,3.558.163,5a16.349,16.349,0,0,0,4.227,3.389,9.329,9.329,0,0,1,3.026,2.883,2.757,2.757,0,0,1,.225.513h9.161A25.5,25.5,0,0,0,94.656,709.517Z" transform="translate(-59.12 -292.169)"/><path class="e" d="M873.421,632.54s5.409,7.078-2.5,17.758-14.426,19.7-11.787,26.356c0,0,11.931-19.834,21.642-20.116S884.1,644.471,873.421,632.54Z" transform="translate(-354.067 -267.667)"/><path class="f" d="M873.606,632.54a8.914,8.914,0,0,1,1.107,2.22c9.473,11.13,14.519,21.523,5.409,21.779-8.479.244-18.659,15.414-21.091,19.24a7.169,7.169,0,0,0,.288.875s11.931-19.835,21.642-20.116S884.286,644.471,873.606,632.54Z" transform="translate(-354.252 -267.667)"/><path class="g" d="M897.671,646.044c0,2.5-.281,4.508-.625,4.508s-.625-2.02-.625-4.508.35-1.313.694-1.313S897.671,643.543,897.671,646.044Z" transform="translate(-368.262 -272.129)"/><path class="g" d="M901.381,650.7c-2.188,1.188-4.089,1.913-4.258,1.607s1.476-1.513,3.664-2.708,1.319-.319,1.488,0S903.57,649.5,901.381,650.7Z" transform="translate(-368.521 -273.829)"/><path class="e" d="M829.367,632.54s-5.409,7.078,2.5,17.758,14.426,19.7,11.793,26.356c0,0-11.931-19.834-21.642-20.116S818.687,644.471,829.367,632.54Z" transform="translate(-338.589 -267.667)"/><path class="f" d="M829.364,632.54a8.659,8.659,0,0,0-1.107,2.22c-9.473,11.13-14.519,21.523-5.415,21.779,8.485.244,18.659,15.414,21.1,19.24a8.448,8.448,0,0,1-.288.875s-11.931-19.834-21.642-20.116S818.684,644.471,829.364,632.54Z" transform="translate(-338.586 -267.667)"/><path class="g" d="M820.55,646.044c0,2.5.281,4.508.625,4.508s.625-2.02.625-4.508-.35-1.313-.694-1.313S820.55,643.543,820.55,646.044Z" transform="translate(-339.833 -272.129)"/><path class="g" d="M814.208,650.7c2.182,1.188,4.089,1.913,4.252,1.607s-1.469-1.513-3.658-2.708-1.326-.319-1.488,0S812.045,649.5,814.208,650.7Z" transform="translate(-336.962 -273.829)"/><path class="h" d="M823.31,696.711s15.126-.469,19.684-3.714,23.267-7.122,24.387-1.913,22.73,25.894,5.628,26.031-39.681-2.664-44.227-5.434S823.31,696.711,823.31,696.711Z" transform="translate(-340.867 -288.649)"/><path class="i" d="M873.353,720.189c-17.077.138-39.681-2.664-44.227-5.434-3.47-2.107-4.846-9.68-5.309-13.175h-.506s.957,12.2,5.509,14.97,27.15,5.571,44.227,5.434c4.927-.044,6.634-1.795,6.541-4.377C878.9,719.176,877.023,720.158,873.353,720.189Z" transform="translate(-340.867 -293.536)"/><rect class="j" width="48.792" height="48.792" transform="translate(365.506 305.063)"/><rect class="j" width="48.792" height="48.792" transform="translate(293.596 240.658)"/><rect class="j" width="48.792" height="48.792" transform="translate(298.286 368.368)"/><rect class="k" width="48.792" height="48.792" transform="translate(287.4 120.857)"/><rect class="k" width="48.792" height="48.792" transform="matrix(0.742, -0.671, 0.671, 0.742, 368.333, 320.213)"/><rect class="k" width="48.792" height="48.792" transform="translate(364.699 179.653)"/><rect class="k" width="48.792" height="48.792" transform="translate(303.02 234.054)"/><path class="e" d="M1022.864,777.6c2.839.369,5.784.625,8.5-.288.419-.131.9-.419.844-.85a1,1,0,0,0-.194-.413,26.529,26.529,0,0,1-2.583-4.9.4.4,0,0,0-.156-.219.38.38,0,0,0-.275,0c-1.251.325-2.339,1.138-3.589,1.482a5.127,5.127,0,0,1-1.951.15c-.563-.062-1.338-.531-1.845-.475C1021.933,773.948,1022.646,775.706,1022.864,777.6Z" transform="translate(-415.174 -319.514)"/><path class="e" d="M1107.674,768.177a14.531,14.531,0,0,0,4.921-4.621.755.755,0,0,0,.131-.394.812.812,0,0,0-.156-.388,16.018,16.018,0,0,0-4-4.315,11.81,11.81,0,0,0-2.232,2.057c-.469.494-1.77,1.307-1.782,2.045,0,.444.494.925.725,1.251.313.463.625.938.894,1.413A23.481,23.481,0,0,1,1107.674,768.177Z" transform="translate(-446.252 -314.849)"/><path class="l" d="M1024.04,785.141a1.875,1.875,0,0,1-.338,1.251,1.669,1.669,0,0,1-.719.419c-3.977,1.419-8.554-.357-12.506,1.05-.819.288-1.588.7-2.407.975a13.039,13.039,0,0,1-2.983.531c-1.407.138-2.814.219-4.221.256a10.21,10.21,0,0,1-3.177-.275,3.846,3.846,0,0,1-2.439-1.932,1.876,1.876,0,0,1-.119-1.376,1.556,1.556,0,0,1,.256-.444,3.807,3.807,0,0,1,.938-.757l1.463-.944a9.773,9.773,0,0,1,2.214-1.176c.575-.188,1.194-.269,1.776-.438,2.057-.625,3.62-2.232,5.077-3.8l1.988-2.12a1.946,1.946,0,0,1,.688-.55,1.875,1.875,0,0,1,.85-.088,11.487,11.487,0,0,1,5.421,1.826,7.82,7.82,0,0,0,1.338.788,4.777,4.777,0,0,0,3.752-.469c.513-.269.4-.438.625-.919s.738-.794,1.188-.35a1.309,1.309,0,0,1,.281.538,14.923,14.923,0,0,1,.269,4.421,1.962,1.962,0,0,0,.088.688,4.182,4.182,0,0,0,.388.625.987.987,0,0,1,.081.163,4.339,4.339,0,0,1,.225,2.1Z" transform="translate(-405.22 -321.315)"/><path class="m" d="M1024.04,789.535a1.875,1.875,0,0,1-.338,1.251,1.669,1.669,0,0,1-.719.419c-3.977,1.419-8.554-.357-12.506,1.05-.819.288-1.588.7-2.407.975a13.032,13.032,0,0,1-2.983.531c-1.407.138-2.814.219-4.221.256a10.212,10.212,0,0,1-3.177-.275,3.846,3.846,0,0,1-2.439-1.932,1.876,1.876,0,0,1-.119-1.376,1.557,1.557,0,0,1,.256-.444c.238.488.406,1.125.55,1.357a2.776,2.776,0,0,0,1.876,1.344,4.759,4.759,0,0,0,1.695-.219c3.6-.894,7.429-.907,10.88-2.257a25.994,25.994,0,0,1,3.564-1.369,28.32,28.32,0,0,1,3.852-.313c2.032-.163,4-.775,6-1.094A4.341,4.341,0,0,1,1024.04,789.535Z" transform="translate(-405.22 -325.708)"/><path class="l" d="M1110.593,769.466a7.216,7.216,0,0,1-2.195,3.908,25.064,25.064,0,0,0-3.064,3.358c-1.038,1.576-1.495,3.52-2.833,4.852a7.675,7.675,0,0,1-1.7,1.251,11.761,11.761,0,0,1-2.207,1.013,16.9,16.9,0,0,1-6.253.344,5.557,5.557,0,0,1-1.976-.388,5.747,5.747,0,0,1-.838-.506,3.978,3.978,0,0,1-1.251-1.294,1.3,1.3,0,0,1-.119-.932,2.125,2.125,0,0,1,.625-.913,14.128,14.128,0,0,1,1.507-1.357,8.95,8.95,0,0,0,1.964-1.726,5.632,5.632,0,0,0,.757-1.726,15.465,15.465,0,0,0,.55-3.283,10.339,10.339,0,0,1,.231-2.195c.319-1.125,1.157-2.145,1.057-3.314a.85.85,0,0,1,.044-.5.782.782,0,0,1,.394-.244,7.127,7.127,0,0,1,2.051-.469,2.364,2.364,0,0,1,1.876.744c.294.35.481.838.913.994a1.511,1.511,0,0,0,.625,0,5.319,5.319,0,0,0,2.977-.919,3.752,3.752,0,0,0,1.251-2.732c0-.388-.175-.794.419-.875.456-.062.813.413,1.044.725a10.2,10.2,0,0,1,2.007,3.658,1.015,1.015,0,0,1,.381-.075,1.632,1.632,0,0,1,1.363.7A2.7,2.7,0,0,1,1110.593,769.466Z" transform="translate(-440.092 -316.382)"/><path class="m" d="M1110.687,772.074a7.216,7.216,0,0,1-2.195,3.908,25.068,25.068,0,0,0-3.064,3.358c-1.038,1.576-1.495,3.52-2.833,4.852a7.675,7.675,0,0,1-1.7,1.251,11.757,11.757,0,0,1-2.207,1.013,16.9,16.9,0,0,1-6.253.344,5.56,5.56,0,0,1-1.976-.388,5.747,5.747,0,0,1-.838-.506,3.978,3.978,0,0,1-1.251-1.294,3.046,3.046,0,0,1,1.288-.306c.932.05,1.607.925,2.5,1.194,1.251.381,2.5-.513,3.808-.819.838-.194,1.726-.138,2.545-.406a6.283,6.283,0,0,0,1.876-1.138,9.52,9.52,0,0,0,2.007-1.938,12.35,12.35,0,0,0,1.182-2.351,33.585,33.585,0,0,1,2.383-4.558,3.026,3.026,0,0,1,.488-.625c.194-.181.438-.313.625-.475a4.973,4.973,0,0,0,1.513-2.758,4.624,4.624,0,0,1,.338-.919,1.633,1.633,0,0,1,1.363.7A2.7,2.7,0,0,1,1110.687,772.074Z" transform="translate(-440.186 -318.99)"/><path class="n" d="M979.395,553.638a9.08,9.08,0,0,1,2.551,2.983c.625,1.176,4.058,10.3,3.858,11.612,1.126-1.138,5.59-1.326,6.709-2.457.475-.475,3.045-2.851,3.427-3.4s3.245-1.732,3.558-2.295c1.169-2.095-8.291-10-7.085-12.106a.512.512,0,0,0,.1-.325.5.5,0,0,0-.156-.25,15.056,15.056,0,0,0-2.739-1.876,4.377,4.377,0,0,1-2.089-2.5,8.986,8.986,0,0,0-2.42,1.638q-2.595,2.22-5.115,4.552c-.663.625-1.926,1.419-2.232,2.289S978.763,553.125,979.395,553.638Z" transform="translate(-398.724 -234.124)"/><path class="l" d="M997.741,554.61a27.41,27.41,0,0,0-4.052,3.314,8.109,8.109,0,0,0-2.583,4.133c-.119.625-.1,1.288-.2,1.932-.419,2.8-2.851,4.859-3.921,7.5a12.833,12.833,0,0,0-.688,2.5,29.472,29.472,0,0,0-.488,4.915c0,1.6,1.538,2.7,2.114,4.2a25.451,25.451,0,0,1,1.019,4.546,55.383,55.383,0,0,0,2.557,8.442c2.114,5.834,8.961,21.967,11.074,27.807,6.472-1.626,23.705-5.359,29.433-8.754,1.913-1.138-13.256-13.994-11.212-14.882a1.032,1.032,0,0,0,.569-.431.987.987,0,0,0,0-.625c-2.038-8.935-8.435-16.258-11.33-25.012-1.007-3.02-2.814-5.6-4.19-8.473-1.25-2.6-1.907-5.471-3.389-7.941a5.313,5.313,0,0,0-1.082-1.357,6.636,6.636,0,0,0-1.2-.719C999.354,555.267,998.566,555.023,997.741,554.61Z" transform="translate(-401.756 -238.466)"/><circle class="n" cx="10.13" cy="10.13" r="10.13" transform="translate(570.885 298.235)"/><path class="m" d="M997.43,549.242a3.4,3.4,0,0,1,3.808-.544,1.876,1.876,0,0,1,1.132,1.826l5,.075a10.466,10.466,0,0,1,2.382.219,3.464,3.464,0,0,1,1.988,1.251c.063.081.131.175.231.194a.4.4,0,0,0,.231-.081,4.409,4.409,0,0,1,2.5-.45,13.52,13.52,0,0,1,7.354,3.233,2.382,2.382,0,0,1,.875,1.069c.175.569,0,1.3.413,1.688,0,4.721,1.62,9.117,2.7,13.713a6.077,6.077,0,0,0,1.519,2.182,8.754,8.754,0,0,1,1.626,2.426c.913,2.382-.35,5.177.544,7.572a12.188,12.188,0,0,0,1.726,2.72,7.011,7.011,0,0,1,1.469,3.514c.037.575-.037,1.151,0,1.732a10.557,10.557,0,0,0,.413,2.276c.363,1.382.75,2.764,1.151,4.139.625,2.226,1.5,4.633,3.5,5.822-4.821.819-9.9,1.613-14.495-.056a7.5,7.5,0,0,1-1.807-.907c-1.657-1.182-2.457-3.208-3.17-5.115a24.036,24.036,0,0,1-1.776-6.6,7.556,7.556,0,0,0-.3-2.157,6.029,6.029,0,0,0-2.845-2.682,13.691,13.691,0,0,1-3.42-2.664,5.315,5.315,0,0,1-1.388-4c.088-.707.363-1.388.394-2.1a1.682,1.682,0,0,0-.976-1.732c-3.508-1.063-5.184-5.215-5.965-8.8a28.071,28.071,0,0,1-.45-5.628l-.044-3.62a4.8,4.8,0,0,1-1.576-3.464,3.887,3.887,0,0,0,0-1.144,3.207,3.207,0,0,0-.8-1.251,10.566,10.566,0,0,1-1.945-2.651Z" transform="translate(-406.11 -236.119)"/><path class="m" d="M979.748,566.492a26.768,26.768,0,0,1-.113,3.4c-.1.425-.269.832-.394,1.251a7.379,7.379,0,0,0,.469,4.765,26.468,26.468,0,0,0,2.432,4.221,6.432,6.432,0,0,1,.782,1.457,7.548,7.548,0,0,1,.3,1.669,50.842,50.842,0,0,0,1.194,6.716,13.2,13.2,0,0,0,2.364,5.4,1.638,1.638,0,0,0,.976.663,1.762,1.762,0,0,0,.832-.175l2.589-.982a1.806,1.806,0,0,0,.625-.325,1.569,1.569,0,0,0,.363-1.013,14.888,14.888,0,0,0-1.138-6.134c-2.1-5.965-4.89-11.712-6.253-17.884-.381-1.726-.582-4.377-1.838-5.721-.519-.563-.344-.325-.963,0a7.854,7.854,0,0,0-.907.482,2.97,2.97,0,0,0-1.319,2.214Z" transform="translate(-399.221 -241.782)"/><path class="m" d="M1059.24,627.68" transform="translate(-429.271 -265.846)"/><path class="e" d="M992.275,575.892q1.032,5.459,2.107,10.924l10.055-2.639a7.044,7.044,0,0,0-.869-3.008c-.919-2.3-.938-4.859-1.682-7.222-.563-1.8-1.538-3.458-2.063-5.271-.306-1.05-.456-2.151-.757-3.208a24.5,24.5,0,0,0-1.182-3.058,19.483,19.483,0,0,0-2.195-4.071,6.412,6.412,0,0,0-3.389,2.195,4.664,4.664,0,0,0-.625,2.164c-.175,2.264.625,4.533.369,6.772a20.011,20.011,0,0,0,.231,6.422Z" transform="translate(-403.944 -239.864)"/><path class="m" d="M1009.021,651.016c.563,2.151-.256,4.377-.919,6.516a50.589,50.589,0,0,0-2.051,9.811,8.131,8.131,0,0,1-.507,2.5,23.386,23.386,0,0,1-1.219,2,10.026,10.026,0,0,0-.769,6.022c.144,1.351.363,2.7.625,4.027a10.148,10.148,0,0,1,.263,4.9c.794-.175,1.338.85,1.307,1.669s-.319,1.695.069,2.414c.988.356,1,1.713.969,2.758a23.258,23.258,0,0,0,.682,5.4q2.238,10.749,4.752,21.441c3.62,1.126,7.848,2.295,11.3.738a2.22,2.22,0,0,0,1.432-1.438,2.588,2.588,0,0,0-.138-1.107l-1.638-5.953a10.962,10.962,0,0,1-.588-4.377c.162-1.107.625-2.295.1-3.264a9.422,9.422,0,0,0-.688-.913c-.863-1.251-.413-2.933-.338-4.458a3.492,3.492,0,0,0-.075-1.019,5.351,5.351,0,0,0-.482-1.119,17.091,17.091,0,0,1-1.876-8.5,2.089,2.089,0,0,0-.15-1.113,2.554,2.554,0,0,1-.275-.45,1.207,1.207,0,0,1,.088-.819,7.117,7.117,0,0,1-1.319-1.251,1.876,1.876,0,0,0,.313-2.889.963.963,0,0,0,.463-1.657c-.213-.15-.488-.213-.625-.425-.231-.313-.044-.757.144-1.094l1-1.807c.744-1.338.913-3,1.713-4.3a32.276,32.276,0,0,0,2.639-6.022l2.851-7.941,1.938,1.682a6.072,6.072,0,0,1,1.595,1.82,7.677,7.677,0,0,1,.513,2.176c.713,4.315,3.433,8.054,4.439,12.312a8.3,8.3,0,0,0,.913,2.751,5.953,5.953,0,0,1,.525.788,4.15,4.15,0,0,1,.219,1.307,6.091,6.091,0,0,0,2.57,4.377c.951.625,2.157,1.107,2.658,2.145a4.23,4.23,0,0,0,.438.913c.463.557,1.463.625,1.663,1.319.106.394-.1.857.125,1.2a1.1,1.1,0,0,0,.469.35l2.795,1.4c3.127,1.557,4.7,5.127,7.01,7.747a16.093,16.093,0,0,1,2.095,2.776c.994,1.776,1.457,4.008,3.126,5.152a4.856,4.856,0,0,1,1.213.9c.531.694.338,1.67.381,2.545s.719,1.913,1.551,1.651a6.036,6.036,0,0,0,0,3.233,16.3,16.3,0,0,0,9.88-4,3.9,3.9,0,0,0,1.607-2.7,1.045,1.045,0,0,0-.119-.538,1.463,1.463,0,0,0-.625-.475c-2.608-1.413-3.4-4.69-4.7-7.353a61.536,61.536,0,0,0-4.3-6.553c-3.126-4.69-5.215-10.361-9.911-13.463-1.032-.682-2.232-1.288-2.745-2.414a19.26,19.26,0,0,1-.55-2,1.682,1.682,0,0,0-1.469-1.251,8.922,8.922,0,0,0,.338-3.126,3.891,3.891,0,0,0-.156-1.344,6.351,6.351,0,0,0-.688-1.326,12.85,12.85,0,0,1-1.77-6.878,11.073,11.073,0,0,0-.119-3.7c-.188-.625-.513-1.144-.744-1.726a10.763,10.763,0,0,1-.538-3.22l-.256-4.121a19.722,19.722,0,0,0-.531-4.071c-.869-3.2-1.7-16.583-4.646-18.09s-7.973,8.792-11.255,9a15.006,15.006,0,0,0-4.3.825,20.85,20.85,0,0,0-5.834,3.871l-6.078,5.1A22.16,22.16,0,0,1,1009.021,651.016Z" transform="translate(-408.36 -266.471)"/><path class="m" d="M964.171,522.456a7.641,7.641,0,0,1,5.9-2.876,13.757,13.757,0,0,1,6.516,1.638,8.394,8.394,0,0,0,1.876.782c1.075.219,2.264-.075,3.233.438,1.288.682,1.532,2.42,1.419,3.871s-.381,3.039.388,4.283a11.883,11.883,0,0,1,.744,1.113,3.714,3.714,0,0,1-.069,2.382,19.129,19.129,0,0,1-1.251-1.57,1.455,1.455,0,0,0-1.77-.463c-.55.369-.55,1.051-.575,1.657s-.188,1.338-.763,1.538a1.25,1.25,0,0,1-1.251-.5c-.982-1.2-.588-3.126-1.557-4.327-.557-.688-1.476-1.019-1.988-1.738-.4-.563-.5-1.294-.85-1.876s-1.169-1.057-1.72-.625a2.336,2.336,0,0,0-.456.625,2.633,2.633,0,0,1-3.126.938,5.481,5.481,0,0,0-1.357-.582,1.67,1.67,0,0,0-1.544.838,3.326,3.326,0,0,0-.406,1.788,4.158,4.158,0,0,1-.338,2.457,2.537,2.537,0,0,1-.725.625,2.147,2.147,0,0,1-2.376.244,1.788,1.788,0,0,1-.531-1.663,13.662,13.662,0,0,1,.507-1.757c.375-1.326-.113-2.82.3-4.071A12.811,12.811,0,0,1,964.171,522.456Z" transform="translate(-392.667 -225.341)"/><path class="e" d="M974.4,561.586a1.564,1.564,0,0,0,.094.932,1.513,1.513,0,0,0,.506.488,10.492,10.492,0,0,0,4.777,1.544,1.438,1.438,0,0,1,.625.169,1.182,1.182,0,0,1,.281,1.332,3.545,3.545,0,0,0-.3,1.413c.125.894,1.182,1.3,2.082,1.413a4.828,4.828,0,0,0,3.621-.7,5.585,5.585,0,0,0,1.494-2.245c2.457-5.628,3.32-11.881,5.809-17.508a3.558,3.558,0,0,0,.375-1.169,1.163,1.163,0,0,0-.463-1.082c-.463-.288-1.182-.125-1.495-.569-.156-.231-.138-.538-.275-.775-.288-.513-1.038-.45-1.557-.725-.4-.219-.682-.625-1.126-.744a1.438,1.438,0,0,0-1.176.506,15.109,15.109,0,0,0-3.039,5.121,60.829,60.829,0,0,1-4.377,8.073,4.666,4.666,0,0,0-1.363-2.67c-.763-.156-1.751,1.188-2.164,1.695a10.73,10.73,0,0,0-2.332,5.5Z" transform="translate(-397.469 -234.25)"/><rect class="k" width="48.792" height="48.792" transform="translate(582.046 335.34)"/><path class="n" d="M1057.976,626.813a19.713,19.713,0,0,0-2.314,2.426,4.833,4.833,0,0,0-1.063,3.126,1.608,1.608,0,0,0,.3.913.782.782,0,0,0,.869.269,1.252,1.252,0,0,0,.425-.381,20.015,20.015,0,0,1,1.438-1.563c.188-.181.425-.375.675-.306a.712.712,0,0,1,.294.194,1.989,1.989,0,0,1,.625.944,2.238,2.238,0,0,1-.663,1.82,4.715,4.715,0,0,0-1.119,1.657.707.707,0,0,0,0,.531.869.869,0,0,0,.331.288,4.827,4.827,0,0,0,4.046.263c.869-.344,1.62-.944,2.5-1.251a6.01,6.01,0,0,0,1.107-.413,2.276,2.276,0,0,0,.982-1.463,6.247,6.247,0,0,0,.069-1.807,20.634,20.634,0,0,0-1.507-6.816.814.814,0,0,0-.244-.363.858.858,0,0,0-.413-.119c-1.094-.113-2.9-.675-3.952-.269a2.7,2.7,0,0,0-.932.832C1059.189,625.543,1057.976,626.525,1057.976,626.813Z" transform="translate(-427.532 -264.597)"/><path class="m" d="M1050.2,602.742c0-1.05-1.3-3.57.757-3.752,0-1.113-1.582-1.813-1.294-2.989.1-.4.419-.719.469-1.119.131-1.144-1.932-1.763-1.595-2.864.125-.419.582-.675.682-1.1.231-.988-1.538-1.432-1.569-2.445,0-.344.188-.669.175-1.007,0-.431-.375-.757-.582-1.125-.531-.957-.275-2.439-1.251-2.926.625.05.869-.907.594-1.495s-.813-1.094-.813-1.745a2.77,2.77,0,0,0,0-.719c-.181-.625-1.207-.669-1.376-1.294a6.687,6.687,0,0,1,0-.707c-.062-.488-.563-.788-1.032-.932a4.1,4.1,0,0,1-1.376-.488c-.3-.231-.625-.625-.969-.406-.119.069-.181.206-.275.313-.381.444-1.113.25-1.6-.081a6.621,6.621,0,0,1-2.451-4.415c-.313-1.7-.294-3.458-.669-5.146a11.791,11.791,0,0,0-.456-1.538,7.974,7.974,0,0,1-.725-1.538c-.075-.982,1.963-.313,2.739-.213a12.152,12.152,0,0,1,2.226.419,23.556,23.556,0,0,1,2.27.994c3.126,1.369,6.828,1.538,9.317,3.833.819.757,1.507,1.745,2.564,2.082a13.081,13.081,0,0,1,1.438.375c1.182.557,1.363,2.12,2.007,3.252a6.952,6.952,0,0,1,.531.938,3.7,3.7,0,0,1,.169,1.2l.088,2.97a109.714,109.714,0,0,1-.238,14.907,12.306,12.306,0,0,0,.056,4.877c.125.425.306.832.413,1.251a8.523,8.523,0,0,1,.163,1.544l.069,1.92a.463.463,0,0,1-.613.569c-2.682-.238-5.384-1.751-7.916-.838" transform="translate(-420.127 -241.496)"/><path class="n" d="M979.229,613.794a.825.825,0,0,0-.3.25,2.132,2.132,0,0,0,0,2.539.858.858,0,0,1,.15.25.738.738,0,0,1-.075.425,1.407,1.407,0,0,0,.194,1.576c.194.163.456.244.581.456.219.363-.088.825-.038,1.251.063.557.719.832,1.251.9a1.332,1.332,0,0,0,1.219-.325,1.013,1.013,0,0,0,0-1.107,2.964,2.964,0,0,0-.825-.825,1.251,1.251,0,0,0,1.182-1.144,1.776,1.776,0,0,0-.713-1.557c-.112-.094-.25-.188-.281-.338s.119-.356.256-.5c.625-.625,1.107-2.157-.069-2.5a2.9,2.9,0,0,0-1.251.056c-.3.094-.3.275-.532.4S979.492,613.663,979.229,613.794Z" transform="translate(-399.021 -260.383)"/><path class="f" d="M996.462,545.14a2.063,2.063,0,0,0-1.588.8,4.571,4.571,0,0,0-.663,2.126,18.639,18.639,0,0,1-2.5,6.791" transform="translate(-403.967 -234.918)"/><path class="f" d="M1000,547.88a2.426,2.426,0,0,0-2.076,1.251,6.943,6.943,0,0,0-.525,2.12,11.518,11.518,0,0,1-2.082,4.446" transform="translate(-405.32 -235.945)"/><path class="o" d="M339.668,607.635c.363,3.952-2.62,7.779-1.751,11.643.188.825.544,1.607.675,2.439.356,2.295-1.013,4.471-2.32,6.391l-11.218,16.47a10.672,10.672,0,0,1-1.607,1.982c-2.151,1.876-5.365,1.707-8.185,2.276a14.038,14.038,0,0,0-5.478,2.426.356.356,0,0,0-.075.494,4.721,4.721,0,0,0,4.077,1.913c.294.388,0,.957-.406,1.251-.625.419-1.432.525-1.551,1.551a1.676,1.676,0,0,0,.206,1.025A3.17,3.17,0,0,0,314,658.859c3.883,1.188,8.085-.894,10.987-3.752s5-6.422,7.854-9.317c1.582-1.594,3.377-2.97,5-4.521a57.549,57.549,0,0,0,8.21-10.63,11.8,11.8,0,0,0,1.776-3.614c.3-1.288.163-2.645.513-3.921.45-1.663,1.676-3,2.689-4.377a14.53,14.53,0,0,0,3.058-9.473c-.263-3.377-2.351-6.716-5.54-7.86a4.959,4.959,0,0,0-3.126-.194,7.547,7.547,0,0,0-3.164,2.5l-2.126,2.464a5.678,5.678,0,0,0-1.251,1.876,1.97,1.97,0,0,0,.438,2.095" transform="translate(-148.395 -255.862)"/><path class="p" d="M339.668,607.635c.363,3.952-2.62,7.779-1.751,11.643.188.825.544,1.607.675,2.439.356,2.295-1.013,4.471-2.32,6.391l-11.218,16.47a10.672,10.672,0,0,1-1.607,1.982c-2.151,1.876-5.365,1.707-8.185,2.276a14.038,14.038,0,0,0-5.478,2.426.356.356,0,0,0-.075.494,4.721,4.721,0,0,0,4.077,1.913c.294.388,0,.957-.406,1.251-.625.419-1.432.525-1.551,1.551a1.676,1.676,0,0,0,.206,1.025A3.17,3.17,0,0,0,314,658.859c3.883,1.188,8.085-.894,10.987-3.752s5-6.422,7.854-9.317c1.582-1.594,3.377-2.97,5-4.521a57.549,57.549,0,0,0,8.21-10.63,11.8,11.8,0,0,0,1.776-3.614c.3-1.288.163-2.645.513-3.921.45-1.663,1.676-3,2.689-4.377a14.53,14.53,0,0,0,3.058-9.473c-.263-3.377-2.351-6.716-5.54-7.86a4.959,4.959,0,0,0-3.126-.194,7.547,7.547,0,0,0-3.164,2.5l-2.126,2.464a5.678,5.678,0,0,0-1.251,1.876,1.97,1.97,0,0,0,.438,2.095" transform="translate(-148.395 -255.862)"/><path class="n" d="M217.465,623.307c.625,1.976,1.251,3.952,2.007,5.878a49.738,49.738,0,0,0,5.2,9.479,68.275,68.275,0,0,0,4.3,5.628c1.913,2.257,4.052,4.527,4.727,7.41a37.532,37.532,0,0,1,.425,5.109,6.238,6.238,0,0,0,2.095,4.527,7.785,7.785,0,0,0,3.452,1.138c.863.138,1.945.181,2.395-.569a2.133,2.133,0,0,0,.238-.988l.213-2.5c.044-.538.231-1.251.769-1.251s.813.694,1.251,1.013a1.357,1.357,0,0,0,1.876-.625,3.126,3.126,0,0,0,.05-2.189,10.393,10.393,0,0,0-5.334-6.609,16.034,16.034,0,0,1-2.6-1.357,8.847,8.847,0,0,1-2.045-2.576c-4.727-7.785-9.48-15.632-12.819-24.08A17.814,17.814,0,0,1,222.336,616a30.64,30.64,0,0,1,.206-5,28.633,28.633,0,0,0-.825-8.929,7.022,7.022,0,0,0-.857-2.17c-1.369-2.089-4.6-2.395-6.641-.957a6.841,6.841,0,0,0-2.639,4.827c-.15,1.682.825,3.439,1.319,5Q215.195,616.034,217.465,623.307Z" transform="translate(-111.646 -254.744)"/><path class="p" d="M217.465,623.307c.625,1.976,1.251,3.952,2.007,5.878a49.738,49.738,0,0,0,5.2,9.479,68.275,68.275,0,0,0,4.3,5.628c1.913,2.257,4.052,4.527,4.727,7.41a37.532,37.532,0,0,1,.425,5.109,6.238,6.238,0,0,0,2.095,4.527,7.785,7.785,0,0,0,3.452,1.138c.863.138,1.945.181,2.395-.569a2.133,2.133,0,0,0,.238-.988l.213-2.5c.044-.538.231-1.251.769-1.251s.813.694,1.251,1.013a1.357,1.357,0,0,0,1.876-.625,3.126,3.126,0,0,0,.05-2.189,10.393,10.393,0,0,0-5.334-6.609,16.034,16.034,0,0,1-2.6-1.357,8.847,8.847,0,0,1-2.045-2.576c-4.727-7.785-9.48-15.632-12.819-24.08A17.814,17.814,0,0,1,222.336,616a30.64,30.64,0,0,1,.206-5,28.633,28.633,0,0,0-.825-8.929,7.022,7.022,0,0,0-.857-2.17c-1.369-2.089-4.6-2.395-6.641-.957a6.841,6.841,0,0,0-2.639,4.827c-.15,1.682.825,3.439,1.319,5Q215.195,616.034,217.465,623.307Z" transform="translate(-111.646 -254.744)"/><path class="q" d="M366.872,754.453c-2.451,1.495-5.5,1.582-8.354,1.251-.456-.056-1-.094-1.294.263-.425.513.075,1.251.594,1.688a12.431,12.431,0,0,0,5.74,2.357,39.165,39.165,0,0,0,5.628.375,95.167,95.167,0,0,0,15.339-.569,2.033,2.033,0,0,0,.838-.244,1.588,1.588,0,0,0,.625-.963,3.833,3.833,0,0,0-1.338-3.652,11.255,11.255,0,0,0-3.577-1.92l-4.452-1.732c-1.044-.406-2.726-1.488-3.858-1.4C370.662,750.045,368.642,753.415,366.872,754.453Z" transform="translate(-166.164 -311.643)"/><path class="q" d="M385.158,770.323a10.937,10.937,0,0,1-7.472,2.789c-.7,0-1.676.131-1.676.832a1.1,1.1,0,0,0,.2.582,6.878,6.878,0,0,0,3.864,3.026,13.758,13.758,0,0,0,4.665.294l4.565-.238c.863-.044,1.732-.088,2.589-.194s1.788-.281,2.683-.419a35.773,35.773,0,0,1,6.647-.313,1.932,1.932,0,0,0,1.638-.438c.406-.513.169-1.251.038-1.876-.275-1.319,0-2.708-.256-4.039a7.1,7.1,0,0,0-4.658-4.959c-2.051-.782-5.69-1.676-7.635-.375C388.26,766.377,387,768.653,385.158,770.323Z" transform="translate(-173.263 -317.051)"/><path class="m" d="M374.2,664.3c-1.876,2.47-3.752,5.321-3.314,8.373a18.881,18.881,0,0,0,1.845,4.621,32.57,32.57,0,0,1,1.876,6.491c.694,3.233,1.388,6.472,1.82,9.748a60.881,60.881,0,0,1,.406,11.193,3.776,3.776,0,0,1-.782,2.5c-.25.25-.575.456-.682.794a1.344,1.344,0,0,0,.144.938,10.386,10.386,0,0,0,5.565,5.121,21.315,21.315,0,0,0,7.566,1.413,2.126,2.126,0,0,0,1.013-.131,1.951,1.951,0,0,0,.782-.894c1.876-3.564.832-7.866.863-11.881,0-3.358.813-6.684.669-10.042-.119-2.689-.838-5.315-1.1-8-.431-4.377.375-8.817,1.182-13.162.625-3.327,1.251-6.659,2.032-9.955a18.982,18.982,0,0,1,2.151-5.778c.875-1.382,2.063-2.539,3.064-3.839a17.427,17.427,0,0,0,3.427-12.737c-.063-.45-6.441,1.613-6.991,1.876a21.675,21.675,0,0,0-6.253,4.008,51.769,51.769,0,0,0-3.927,4.852q-2.739,3.333-5.39,6.7Q377.135,660.376,374.2,664.3Z" transform="translate(-171.318 -270.09)"/><path class="p" d="M374.2,664.3c-1.876,2.47-3.752,5.321-3.314,8.373a18.881,18.881,0,0,0,1.845,4.621,32.57,32.57,0,0,1,1.876,6.491c.694,3.233,1.388,6.472,1.82,9.748a60.881,60.881,0,0,1,.406,11.193,3.776,3.776,0,0,1-.782,2.5c-.25.25-.575.456-.682.794a1.344,1.344,0,0,0,.144.938,10.386,10.386,0,0,0,5.565,5.121,21.315,21.315,0,0,0,7.566,1.413,2.126,2.126,0,0,0,1.013-.131,1.951,1.951,0,0,0,.782-.894c1.876-3.564.832-7.866.863-11.881,0-3.358.813-6.684.669-10.042-.119-2.689-.838-5.315-1.1-8-.431-4.377.375-8.817,1.182-13.162.625-3.327,1.251-6.659,2.032-9.955a18.982,18.982,0,0,1,2.151-5.778c.875-1.382,2.063-2.539,3.064-3.839a17.427,17.427,0,0,0,3.427-12.737c-.063-.45-6.441,1.613-6.991,1.876a21.675,21.675,0,0,0-6.253,4.008,51.769,51.769,0,0,0-3.927,4.852q-2.739,3.333-5.39,6.7Q377.135,660.376,374.2,664.3Z" transform="translate(-171.318 -270.09)"/><path class="m" d="M392.389,643.365c.4,1.913,2.257,3.377,2.307,5.334.044,1.563-1.069,2.876-1.876,4.221a28.314,28.314,0,0,0-1.913,4.34,66.168,66.168,0,0,1-5.628,11.174c-1.069,1.7-2.27,3.545-2.02,5.54a8.179,8.179,0,0,0,.969,2.645L387.443,683a18.321,18.321,0,0,1,1.638,4.033c.281,1.213.306,2.5.469,3.7.506,3.914,2.339,7.854,1.251,11.649-.094.325-.438.719-.694.494a12.164,12.164,0,0,1,1.832,6.253c-.038,1.182-.4,2.407.038,3.508a3.827,3.827,0,0,1,.488,1.338c0,.319-.15.625-.181.944a2.091,2.091,0,0,0,1.6,1.945c.863.288,1.8.269,2.67.525,1.676.5,2.864,1.938,4.3,2.939a9.036,9.036,0,0,0,4.934,1.607,1.251,1.251,0,0,0,.725-.144,1.188,1.188,0,0,0,.406-.882,4.9,4.9,0,0,0-1.77-4.258,1.969,1.969,0,0,1-.625-.688,1.669,1.669,0,0,1-.063-.769,57.032,57.032,0,0,0-.188-10.536,16.257,16.257,0,0,1-.163-3.352,13.7,13.7,0,0,0,.269-2.8,14.272,14.272,0,0,0-.857-2.67,18.716,18.716,0,0,1-.406-5,43.847,43.847,0,0,0-1.413-8.56,6.5,6.5,0,0,0-1.332-3.089c-.669-.7-1.751-1.363-1.494-2.295a2.652,2.652,0,0,1,.625-.913,3.664,3.664,0,0,0,.769-2.8,1.25,1.25,0,0,0,1.438-.675,22.511,22.511,0,0,0,11.305-12.856,4.174,4.174,0,0,1,.506-1.144,5.217,5.217,0,0,1,2.07-1.344c2.339-1.176,3.952-3.383,5.434-5.54a12.888,12.888,0,0,0,2.1-4.021,13.246,13.246,0,0,0,.288-2.9l.131-5a2.87,2.87,0,0,0-.094-.982,2.5,2.5,0,0,0-.544-.8,9.71,9.71,0,0,0-5.34-2.876c-1.369-.244-2.77-.2-4.158-.313-2.689-.225-5.346-1.057-8.041-.863-4.227.313-7.991,3.245-10,6.985C394.628,642.2,393.89,643.321,392.389,643.365Z" transform="translate(-175.967 -268.155)"/><path class="l" d="M172.922,762.792a6.809,6.809,0,0,0,2.876.344c.069-.794,1.138-.969,1.932-.932a2.22,2.22,0,0,1,1.138.25c.2.125.35.313.544.444a2.339,2.339,0,0,0,1.126.288l4.139.35a12.394,12.394,0,0,0,5.49-.363,1.8,1.8,0,0,0,.882-.588c.469-.669,0-1.632-.625-2.12s-1.482-.713-2.132-1.213c-1.438-1.094-1.632-3.126-2.395-4.777a13.788,13.788,0,0,0-1.976-2.87,10.989,10.989,0,0,0-1.957-2c-1.657-1.2-3.57-1.175-5.515-1.344-1.376-.125-2.67-.206-3.658,1.013-1.219,1.513-.732,4.565-.657,6.372a45.605,45.605,0,0,0,.788,7.147Z" transform="translate(-96.811 -311.002)"/><path class="p" d="M172.922,762.792a6.809,6.809,0,0,0,2.876.344c.069-.794,1.138-.969,1.932-.932a2.22,2.22,0,0,1,1.138.25c.2.125.35.313.544.444a2.339,2.339,0,0,0,1.126.288l4.139.35a12.394,12.394,0,0,0,5.49-.363,1.8,1.8,0,0,0,.882-.588c.469-.669,0-1.632-.625-2.12s-1.482-.713-2.132-1.213c-1.438-1.094-1.632-3.126-2.395-4.777a13.788,13.788,0,0,0-1.976-2.87,10.989,10.989,0,0,0-1.957-2c-1.657-1.2-3.57-1.175-5.515-1.344-1.376-.125-2.67-.206-3.658,1.013-1.219,1.513-.732,4.565-.657,6.372a45.605,45.605,0,0,0,.788,7.147Z" transform="translate(-96.811 -311.002)"/><path class="m" d="M170.357,640.851a2.9,2.9,0,0,0-1.582,3.3,11.832,11.832,0,0,0,1.67,3.6c1.838,3.3,2.639,7.066,4.183,10.505,1.157,2.57,2.72,4.946,3.864,7.5s1.876,5.484,1.157,8.216c-.338,1.332-.988,2.557-1.426,3.858a21.887,21.887,0,0,0-.838,4.377,82.965,82.965,0,0,0-.3,15.107,4.59,4.59,0,0,0,.381,1.788c.256.5.707,1.026.488,1.544-.088.206-.275.356-.369.563-.263.575.269,1.176.75,1.582a1.294,1.294,0,0,1-.813.625,1.92,1.92,0,0,1,.819,2.139c-.431.062-.456.719-.181,1.063s.694.563.888.95a1.332,1.332,0,0,1-.732,1.676,3.428,3.428,0,0,1-1.995.15,21.626,21.626,0,0,1-3.339-.732,3,3,0,0,1-1.026-.469,3.045,3.045,0,0,1-.919-2.026,36.613,36.613,0,0,1-.231-6.253c.181-10.1,0-20.222-.438-30.321a34.719,34.719,0,0,0-2.976-11.781,60.428,60.428,0,0,0-2.9-5.628c-2.264-4.164-4.277-8.754-3.752-13.475.056-.506.244-1.119.744-1.2a1.082,1.082,0,0,1,.575.094,26.586,26.586,0,0,1,3.033,1.676,11.494,11.494,0,0,0,5.265,1.576Z" transform="translate(-92.57 -269.525)"/><path class="p" d="M170.357,640.851a2.9,2.9,0,0,0-1.582,3.3,11.832,11.832,0,0,0,1.67,3.6c1.838,3.3,2.639,7.066,4.183,10.505,1.157,2.57,2.72,4.946,3.864,7.5s1.876,5.484,1.157,8.216c-.338,1.332-.988,2.557-1.426,3.858a21.887,21.887,0,0,0-.838,4.377,82.965,82.965,0,0,0-.3,15.107,4.59,4.59,0,0,0,.381,1.788c.256.5.707,1.026.488,1.544-.088.206-.275.356-.369.563-.263.575.269,1.176.75,1.582a1.294,1.294,0,0,1-.813.625,1.92,1.92,0,0,1,.819,2.139c-.431.062-.456.719-.181,1.063s.694.563.888.95a1.332,1.332,0,0,1-.732,1.676,3.428,3.428,0,0,1-1.995.15,21.626,21.626,0,0,1-3.339-.732,3,3,0,0,1-1.026-.469,3.045,3.045,0,0,1-.919-2.026,36.613,36.613,0,0,1-.231-6.253c.181-10.1,0-20.222-.438-30.321a34.719,34.719,0,0,0-2.976-11.781,60.428,60.428,0,0,0-2.9-5.628c-2.264-4.164-4.277-8.754-3.752-13.475.056-.506.244-1.119.744-1.2a1.082,1.082,0,0,1,.575.094,26.586,26.586,0,0,1,3.033,1.676,11.494,11.494,0,0,0,5.265,1.576Z" transform="translate(-92.57 -269.525)"/><path class="m" d="M142.608,622.794a3.334,3.334,0,0,0-4.6.494,25.107,25.107,0,0,0-2.376,2.089,12.712,12.712,0,0,0-2.839,12.575,25.126,25.126,0,0,0,3.477,6.165l2.751,3.952c4.2,6.028,8.4,12.056,12.794,17.94a.675.675,0,0,0,.475.625c.163.044.356.037.456.169a.488.488,0,0,1,.056.269,4.084,4.084,0,0,1-.244,1.251.582.582,0,0,0-.05.431c.138.331.744.144.932.456a.5.5,0,0,1-.2.625.723.723,0,0,0-.344.625c.031.256.45.494.431.807,0,.175-.15.306-.256.444a1.132,1.132,0,0,0,.138,1.444c.288,2.876-1.251,5.6-1.582,8.473-.494,4.521,1.551,8.935,1.8,13.475a3.608,3.608,0,0,0,.281,1.488c.425.782,1.513,1.251,1.476,2.145a8.185,8.185,0,0,1-.306,1.082,8.7,8.7,0,0,0,.163,1.544c0,.519-.438,1.138-.919.938q.544,1.8.963,3.633l9.63.794a8.648,8.648,0,0,0-.088-2.6c-.2-.925-.625-1.795-.838-2.72a3.208,3.208,0,0,1,.381-2.72,1.063,1.063,0,0,1-1.063-.875,4.288,4.288,0,0,1,0-1.494c.256-2.5-.8-5-.769-7.5a36.148,36.148,0,0,1,1.082-5.847c.75-4.177-.031-8.71,1.826-12.506,1.126-2.3,2.683-4.852,1.419-7.078-.625-1.1-1.72-1.876-2.432-2.889a11.737,11.737,0,0,1-1.307-3.126c-1.488-4.6-3.883-8.848-5.99-13.206a13.9,13.9,0,0,1-1.288-3.47,17.639,17.639,0,0,1-.156-3.2,49.073,49.073,0,0,0-.356-5.753,4.194,4.194,0,0,0-2.2-3.752C149.781,625.833,146.016,624.589,142.608,622.794Z" transform="translate(-81.904 -263.755)"/><path class="l" d="M166.705,768.435a6.81,6.81,0,0,0,2.876.344c.075-.794,1.138-.969,1.932-.932a2.22,2.22,0,0,1,1.107.256c.2.125.35.313.55.444a2.3,2.3,0,0,0,1.126.288l4.133.35a12.43,12.43,0,0,0,5.5-.363,1.807,1.807,0,0,0,.875-.588c.469-.669,0-1.632-.625-2.12s-1.482-.713-2.139-1.213c-1.432-1.094-1.632-3.127-2.395-4.777a13.786,13.786,0,0,0-1.976-2.87,10.955,10.955,0,0,0-1.951-2c-1.663-1.2-3.57-1.176-5.515-1.344-1.382-.125-2.676-.206-3.658,1.013-1.251,1.513-.738,4.565-.663,6.372a46.46,46.46,0,0,0,.825,7.141Z" transform="translate(-94.464 -313.119)"/><rect class="k" width="48.792" height="48.792" transform="translate(124.453 382.788)"/><circle class="n" cx="9.536" cy="9.536" r="9.536" transform="translate(105.375 323.297)"/><path class="n" d="M210.132,584.717c-1.369,1.182-3.327,1.251-5.121,1.451a32.01,32.01,0,0,0-11.018,3.189,3.933,3.933,0,0,0-1.251.875,3.609,3.609,0,0,0-.625,1.363,9.016,9.016,0,0,0-.363,3.314,9.555,9.555,0,0,0,.919,3.127,16.784,16.784,0,0,0,5.915,6.741,4.3,4.3,0,0,0,1.438.688c1.251.263,2.47-.469,3.7-.794a6.065,6.065,0,0,1,3.42.112c1.038.344,2.132.976,3.126.557a3.264,3.264,0,0,0,1.426-1.62,54.956,54.956,0,0,0,2.6-5.7,21.591,21.591,0,0,1,.944-2.214c1.107-2.107,3.02-3.752,3.971-5.915a1.3,1.3,0,0,0,.088-1.113,1.544,1.544,0,0,0-.7-.538,16.713,16.713,0,0,1-3.808-2.989c-.625-.625-1.782-2.226-2.683-2.37C211.126,582.753,210.819,584.129,210.132,584.717Z" transform="translate(-104.212 -249.058)"/><path class="l" d="M193.735,608.051a5.69,5.69,0,0,1-3.608.044,39.82,39.82,0,0,1-9.067-2.639,4.853,4.853,0,0,1-2.226-1.707,5.459,5.459,0,0,1-.625-2.138l-.525-3.545a21.5,21.5,0,0,1,.163-3.639,1.063,1.063,0,0,0-.206-.794.857.857,0,0,0-.625-.194c-1.432,0-2.295,1.52-3.3,2.539a6.1,6.1,0,0,1-2.026,1.363c-.919.375-2.051.625-2.42,1.557-.156.381-.138.819-.294,1.2-.625,1.526-3.377,1.019-4.071,2.5-.2.425-.188.963-.519,1.3s-.938.325-1.438.413c-1.988.325-2.958,2.626-4.658,3.708-1.432.913-3.277.894-4.815,1.607a18.444,18.444,0,0,1-2.5,1.251,11.823,11.823,0,0,1-2.9.144.782.782,0,0,0-.582.188.8.8,0,0,0-.094.625,17.552,17.552,0,0,0,10.849,13.588,3.826,3.826,0,0,1,.925.444c.869.625,1.019,2.045,2,2.5a2.07,2.07,0,0,0,2.089-.45,18.18,18.18,0,0,0,1.507-1.663,6,6,0,0,1,3.358-1.763c1.182-.188,2.5-.05,3.458-.775a10.629,10.629,0,0,0,1.088-1.163,6.822,6.822,0,0,1,2.5-1.476,25.012,25.012,0,0,1,7.816-1.651c2.5-.144,5.1.088,7.466-.732a4.376,4.376,0,0,0,1.663-.938,5,5,0,0,0,1.113-1.932A14.751,14.751,0,0,0,193.735,608.051Z" transform="translate(-87.591 -253.014)"/><path class="l" d="M198.665,594.216c.707-.062,1.413,0,2.12,0,.832,0,1.651-.2,2.5-.206a6.165,6.165,0,0,1,5.815,4.427,1.126,1.126,0,0,1,.038.625.444.444,0,0,1-.481.325,10.571,10.571,0,0,0-1.069-2.145,6.072,6.072,0,0,0-3.2-2.226,8.31,8.31,0,0,0-3.939-.144c-.538.1-1.069.244-1.6.394l-2.595.7c-.469.125-.938.256-1.394.425-.35.125-.957.625-1.3.625-.469,0-.088-.406.119-.682a3.339,3.339,0,0,1,1.663-1.207,14,14,0,0,1,3.327-.913Z" transform="translate(-104.814 -253.23)"/><path class="n" d="M208.627,625.005c.625,1.976,1.251,3.952,2.007,5.878a49.736,49.736,0,0,0,5.2,9.48,68.3,68.3,0,0,0,4.3,5.628c1.913,2.257,4.052,4.527,4.727,7.41a37.527,37.527,0,0,1,.425,5.109,6.238,6.238,0,0,0,2.095,4.527,7.785,7.785,0,0,0,3.452,1.138c.863.138,1.945.181,2.395-.569a2.132,2.132,0,0,0,.238-.988l.206-2.5c.05-.538.238-1.251.775-1.251s.813.694,1.251,1.013a1.357,1.357,0,0,0,1.876-.625,3.17,3.17,0,0,0,.05-2.189,10.392,10.392,0,0,0-5.321-6.616,16.033,16.033,0,0,1-2.6-1.357,8.753,8.753,0,0,1-2.045-2.576c-4.734-7.785-9.486-15.633-12.819-24.08a17.816,17.816,0,0,1-1.319-4.746,30.641,30.641,0,0,1,.206-5,28.632,28.632,0,0,0-.807-8.942,7.021,7.021,0,0,0-.857-2.17c-1.369-2.089-4.6-2.395-6.641-.957a6.841,6.841,0,0,0-2.639,4.827c-.15,1.682.825,3.439,1.319,5Q206.364,617.733,208.627,625.005Z" transform="translate(-108.348 -255.374)"/><path class="m" d="M237.53,565.639c.075-.794-.625-1.513-1.444-2.02a20.169,20.169,0,0,1-2.451-1.5c-.725-.625-1.119-1.444-1.845-2.07a8.129,8.129,0,0,0-2.751-1.369,20.885,20.885,0,0,0-6.578-1.182,11.586,11.586,0,0,0-6.3,1.663,3.751,3.751,0,0,0-1.069.994,4.378,4.378,0,0,0-.519,1.582,31.269,31.269,0,0,1-1.645,5,11.606,11.606,0,0,1-3.126,5.052c-1.782,1.488-4.515,2.345-5.69,4.139a1.345,1.345,0,0,0-.256,1.157c.169.45.713.757,1.207,1.044a16.388,16.388,0,0,1,6.678,6.391,7.41,7.41,0,0,1-.588,7.972c-.669.875-1.594,1.913-.938,2.8.994,1.338,4.427.575,5.215,1.988a2.826,2.826,0,0,1,.106,1.463c0,1.482,1.432,2.808,3.17,3.489a17.676,17.676,0,0,0,5.7.938,4.927,4.927,0,0,0,.144-3.689,1.475,1.475,0,0,1-.144-.838,2.013,2.013,0,0,1,.625-.807c2.095-1.976,1.651-4.884.394-7.228s-3.208-4.5-3.933-6.966a3.538,3.538,0,0,1,.625-3.627,12.631,12.631,0,0,1,1.795-1.313,6.821,6.821,0,0,0,2.5-3.126c.582-1.626.494-3.583,2.207-4.658s3.933-.725,5.74-1.419A6.152,6.152,0,0,0,237.53,565.639Z" transform="translate(-108.743 -239.547)"/><circle class="o" cx="10.399" cy="10.399" r="10.399" transform="translate(171.857 319.064)"/><path class="o" d="M352.257,574.015a13.482,13.482,0,0,0,8.629,6.034l-.782,2.839c-1.351,4.89-2.876,10.067-6.653,13.456a6.291,6.291,0,0,0-1.057-4.865,18.423,18.423,0,0,0-3.527-3.689l-5.984-5.209a1.633,1.633,0,0,1-.45-.5,1.526,1.526,0,0,1,0-1.138c.763-2.376,2.939-3.858,4.7-5.459a16.585,16.585,0,0,0,2.37-2.758C350.732,571.039,351.5,572.746,352.257,574.015Z" transform="translate(-160.641 -244.99)"/><path class="q" d="M357.535,590.067a5.627,5.627,0,0,1-.306,2.295,1.613,1.613,0,0,1-1.876.963c.219-.494-.356-1.057-.894-.994a1.682,1.682,0,0,0-1.188,1.007,3.752,3.752,0,0,0-.344,2.326c.169.988.738,1.932.588,2.92-.119.819-.725,1.638-.4,2.407a3.866,3.866,0,0,0,.775.925,2.626,2.626,0,0,1-.281,3.6l8.129.156a5.7,5.7,0,0,0,1.007,3.946,24.843,24.843,0,0,0,18.521,12.093,1.613,1.613,0,0,0-.388,2.464,2.28,2.28,0,0,0,2.6.15,19.75,19.75,0,0,0,2.232-1.67,6.821,6.821,0,0,1,4.577-1.251c1.019.094,2,.419,3.02.475,3,.163,5.584-2,8.454-2.883,2.107-.625,4.49-.625,6.253-1.964a2.479,2.479,0,0,0,1.163-2.414,3.933,3.933,0,0,0-.875-1.413,25.173,25.173,0,0,1-2.345-4.377,26.13,26.13,0,0,0-5.859-7.841,51.717,51.717,0,0,0-5.8-4.408,9.825,9.825,0,0,0-1.576-.944,16.147,16.147,0,0,1-2.151-.875,12.005,12.005,0,0,1-2.232-2.5c-1.607-1.876-4.077-2.733-6.059-4.208-1.326-.988-2.5-2.289-4.083-2.77-.769-.231-1.594-.25-2.364-.482-1.751-.531-3.026-2.089-4.746-2.714a19.2,19.2,0,0,0-4.3-.55,10,10,0,0,1-4.415-1.67,5.309,5.309,0,0,0-1.426-.838c-2.17-.625-2.345,3.389-2.551,4.79A40.155,40.155,0,0,0,357.535,590.067Z" transform="translate(-164.593 -247.592)"/><path class="o" d="M345.709,614.473c.363,3.946-2.62,7.772-1.751,11.643.188.825.538,1.607.669,2.439.363,2.295-1.007,4.465-2.314,6.384l-11.255,16.47a10,10,0,0,1-1.6,1.982c-2.151,1.907-5.365,1.707-8.185,2.282a14.013,14.013,0,0,0-5.484,2.426.356.356,0,0,0-.069.488A4.7,4.7,0,0,0,319.8,660.5c.294.388,0,.963-.406,1.251-.625.419-1.432.531-1.551,1.551a1.738,1.738,0,0,0,.2,1.032,3.2,3.2,0,0,0,1.97,1.363c3.883,1.188,8.079-.9,10.987-3.752s5-6.422,7.854-9.317c1.582-1.6,3.377-2.97,5-4.521a59.109,59.109,0,0,0,8.21-10.63,11.831,11.831,0,0,0,1.776-3.62c.3-1.282.163-2.645.513-3.914.45-1.67,1.67-3,2.689-4.377a14.547,14.547,0,0,0,3.058-9.479,9.08,9.08,0,0,0-5.54-7.86,4.959,4.959,0,0,0-3.126-.188,7.45,7.45,0,0,0-3.164,2.5L346.134,613a5.853,5.853,0,0,0-1.251,1.876,1.97,1.97,0,0,0,.438,2.095" transform="translate(-150.647 -258.423)"/><path class="q" d="M368.45,592.42c-1.476.088-3.126.231-4.146,1.251a5.79,5.79,0,0,0-1.038,1.638,16.184,16.184,0,0,0-2.07,6.509,29.344,29.344,0,0,0,.75,5.44c.231,1.507-.356,3.045-.469,4.571a31.208,31.208,0,0,0,5.9-2.27,19.734,19.734,0,0,1,3.458-1.795c1.757-.588,4.721.419,6.384,1.251.094-1.176-.788-3.22-.694-4.377a4.8,4.8,0,0,1,.263-1.457,8.679,8.679,0,0,1,.882-1.407,5.759,5.759,0,0,0-.519-6.759c-1.482-1.67-3.808-2.295-6.028-2.557a26.36,26.36,0,0,0-4.214-.144" transform="translate(-167.711 -252.583)"/><path class="m" d="M319.771,554.185l-.238-1.957c1.645.419,3.2-.969,4.252-2.414s2.02-3.127,3.614-3.752c1.945-.732,4,.438,5.859,1.4a18.341,18.341,0,0,0,6.722,2.226,4.758,4.758,0,0,1,1.113.181c1.207.431,1.782,1.945,1.957,3.32a13.026,13.026,0,0,0,.719,4.064c.456.925,1.251,1.62,1.7,2.5,1.251,2.457.044,5.822,1.388,8.235l-3.333-3.052c-.306-.281-.738-.575-1.069-.338s-.288.625-.4.919a1.745,1.745,0,0,1-2.37.863,6.5,6.5,0,0,1-2.12-1.938,12.956,12.956,0,0,0-5.29-4.008,6.759,6.759,0,0,0-5.6.331c-1.557.882-2.7,2.926-4.6,3-2.614.1-3.7-4.765-4.909-6.684a2.37,2.37,0,0,0,.688-2.951C318.039,554.066,319.734,553.885,319.771,554.185Z" transform="translate(-151.216 -235.178)"/><path class="e" d="M680.939,359.695a11.474,11.474,0,0,1-3.264.894,5.721,5.721,0,0,0,2.5-3.127,11.438,11.438,0,0,1-3.614,1.382,5.678,5.678,0,0,0-9.836,3.883,5.565,5.565,0,0,0,.144,1.3,16.1,16.1,0,0,1-11.718-5.953,5.709,5.709,0,0,0,1.763,7.6,5.54,5.54,0,0,1-2.583-.713v.069a5.7,5.7,0,0,0,4.566,5.584,5.909,5.909,0,0,1-1.5.2,5.531,5.531,0,0,1-1.069-.106,5.709,5.709,0,0,0,5.315,3.952,11.405,11.405,0,0,1-7.066,2.439,12.25,12.25,0,0,1-1.357-.081,15.927,15.927,0,0,0,8.7,2.57c10.474,0,16.2-8.673,16.2-16.2v-.732A11.557,11.557,0,0,0,680.939,359.695Z" transform="translate(-277.134 -164.434)"/><path class="e" d="M664.5,547.81l1.876,4.708,12.25,12.987,4.1-3.864,2.583,2.733,2.733-2.582.156-5.309,3.414-3.227.275-9.3L680.927,532.34Zm24.7-2.6-.156,5.315-4.1,3.864-.156,5.315-2.576-2.733-3.42,3.227L667.8,548.573l12.987-12.25Z" transform="translate(-281.361 -230.122)"/><path class="e" d="M685.183,548.042l2.051-1.932,5.2,5.509-2.051,1.926Zm-4.784,4.515,2.051-1.938,5.2,5.515-2.051,1.932Z" transform="translate(-287.319 -235.281)"/><path class="e" d="M289.23,676h-20.06a1.251,1.251,0,0,0-1.251,1.251v20.066a1.251,1.251,0,0,0,1.251,1.251h10v-8.936h-2.7v-3.289h2.745V683.91a4.285,4.285,0,0,1,4.621-4.5c1.251,0,2.589.094,2.9.138v3.039h-2.07c-1.413,0-1.688.669-1.688,1.657v2.095h3.37l-.438,3.289h-2.939v8.929h6.253a1.251,1.251,0,0,0,1.251-1.251v-20.06A1.251,1.251,0,0,0,289.23,676Z" transform="translate(-132.762 -283.951)"/><path class="e" d="M572.918,445.876a4.708,4.708,0,0,1,4.7,4.7v9.38a4.709,4.709,0,0,1-4.7,4.7h-9.38a4.715,4.715,0,0,1-3.32-1.376,4.659,4.659,0,0,1-1.382-3.32v-9.379a4.708,4.708,0,0,1,4.7-4.7h9.38m0-1.876h-9.38a6.6,6.6,0,0,0-6.578,6.578v9.379a6.6,6.6,0,0,0,6.578,6.578h9.38a6.6,6.6,0,0,0,6.578-6.553V450.6a6.6,6.6,0,0,0-6.578-6.6Z" transform="translate(-241.066 -197.021)"/><path class="e" d="M577.712,452.836a1.4,1.4,0,1,1,1-.41,1.413,1.413,0,0,1-1,.41Zm-6.084.919a3.752,3.752,0,1,1-3.752,3.752,3.752,3.752,0,0,1,3.752-3.752m0-1.876a5.628,5.628,0,1,0,5.628,5.628A5.628,5.628,0,0,0,571.628,451.88Z" transform="translate(-244.453 -199.273)"/><path class="e" d="M1028.771,610.9a4.569,4.569,0,0,0-4.377-4.765c-3.258-.156-6.572-.213-9.961-.213h-1.057c-3.383,0-6.709.056-9.961.213a4.571,4.571,0,0,0-4.34,4.777c-.15,2.095-.213,4.183-.206,6.253s.056,4.183.2,6.253a4.583,4.583,0,0,0,4.339,4.79c3.414.156,6.922.225,10.486.225s7.066-.062,10.492-.225a4.608,4.608,0,0,0,4.377-4.79c.138-2.095.206-4.183.2-6.284s-.056-4.177-.194-6.253Zm-17.715,12.05V611.4l8.517,5.765Z" transform="translate(-406.65 -257.692)"/><path class="e" d="M542.06,260a13.131,13.131,0,0,0-5.277,25.206,11.7,11.7,0,0,1,.225-3.02c.256-1.069,1.695-7.172,1.695-7.172a5,5,0,0,1-.425-2.076c0-1.951,1.132-3.408,2.539-3.408a1.762,1.762,0,0,1,1.776,1.976c0,1.2-.769,3-1.163,4.665A2.032,2.032,0,0,0,543.5,278.7c2.5,0,4.171-3.2,4.171-7,0-2.883-1.945-5.034-5.471-5.034a6.253,6.253,0,0,0-6.478,6.3,3.783,3.783,0,0,0,.869,2.582.625.625,0,0,1,.188.732c-.063.244-.206.825-.269,1.057a.456.456,0,0,1-.663.331c-1.838-.75-2.7-2.764-2.7-5,0-3.752,3.127-8.216,9.379-8.216,5,0,8.329,3.633,8.329,7.535,0,5.159-2.87,9.017-7.1,9.017a3.752,3.752,0,0,1-3.208-1.638s-.769,3.026-.932,3.614a10.844,10.844,0,0,1-1.319,2.82,13.326,13.326,0,0,0,3.752.538,13.169,13.169,0,1,0,0-26.338Z" transform="translate(-230.518 -128.075)"/><path class="r" d="M717.119,732.25c-.507-2.145-.813-4.021-.813-4.021a8.329,8.329,0,0,0-.932-4.083v-.588h0v-4.315a14.263,14.263,0,0,1,1.088-2.257c.775-1.351,0-6.315,0-6.315s-2.876-7-2.182-11.437-5.9-19.716-5.9-19.716a19.478,19.478,0,0,1,.625-4.377,3.16,3.16,0,0,0,.081-.913.673.673,0,0,0,0-.113v.038c-.1-2.926-2.414-8.417-2.414-8.417l.313-10.455a30.792,30.792,0,0,0-.932-14.451c-.844-2.889-1.382-5.2-1.726-6.985-.038-.2-.075-.394-.106-.582,4.959-.757,8.754-1.388,8.754-1.388s-2.876-12.037-4.821-14.144-3.5-8.723-3.5-8.723-1.013-8.5.625-10.987,1.876-6.772,1.876-6.772,3.752-2.708,4.2-3.914A19.822,19.822,0,0,0,712.6,582c0-1.432-.469-2.708-.313-3.464s-1.088-3.608-.463-4.965a3.633,3.633,0,0,0,.244-1.307.082.082,0,0,0,0-.038h0a18.583,18.583,0,0,0-.331-3.533,10,10,0,0,0-3.689-1.976l-.081-.319-.213-.844a2.859,2.859,0,0,0-.369-.219V563.77l.581-2.751c1.151-4.771-5.227-5.484-5.227-5.484a3.364,3.364,0,0,0-1.807-1.588c-1.251-.45-.213,7.191.388,7.679a24.87,24.87,0,0,1,2.5,3.939h0l.113.194a2.544,2.544,0,0,0-.294.306l.244,1.657.038.256a6.809,6.809,0,0,0-1.019,1.732,3.7,3.7,0,0,1,.932,2.714,8.5,8.5,0,0,0,.388,3.308c-.069-.081-.888-.969-1.707-.75s-3.126.9-3.126.9-1.713.3-1.557.675-1.163,2.032-1.163,2.032l-4.6-4.377c-.05-.131-.094-.263-.138-.394a10.506,10.506,0,0,1-.394-1.876,10.212,10.212,0,0,0,1.463-.469,3.17,3.17,0,0,0,1.251-.813,4.964,4.964,0,0,0,.738-1.982,27.519,27.519,0,0,1,1.707-3.8,12.368,12.368,0,0,0,.888-6.785,4.514,4.514,0,0,0-.7-2c-.75-1.032-2.114-1.451-3.127-2.276s-1.626-2.076-2.783-2.7a5.484,5.484,0,0,0-3.489-.3,18.648,18.648,0,0,0-6.509,2.364,3.346,3.346,0,0,1-2.182.719,2.945,2.945,0,0,1-1.569-1.151.3.3,0,0,1,0-.069l-.056-.056a8.234,8.234,0,0,0-.713,3.439v.738a1.417,1.417,0,0,1,0,.163h0a1.1,1.1,0,0,1-.038.244,1.77,1.77,0,0,1-.425.625,2.774,2.774,0,0,0-.375.513.554.554,0,0,1,.063-.188,2.713,2.713,0,0,0-.481,1.444,1.438,1.438,0,0,0,.35,1.038,5,5,0,0,0,.744.625,8.756,8.756,0,0,0-.131,1.526,8.892,8.892,0,0,0,4.327,7.585l.156.394a10.937,10.937,0,0,1,.832,5,.845.845,0,0,1-.056.369l-.163.188h0s-7.591.075-9.379-1.544-4.508,3.952-4.508,3.952-2.72.531-3.264,0-3.752-.075-3.752-.075a6.878,6.878,0,0,0-4.74-1.726A13.927,13.927,0,0,0,652.138,575h0l-.088-.031h0a3.89,3.89,0,0,0-1.713-.213s-3.752-3.089-4.815-4.74-6.253-7.8-6.3-7.829v-.294l-.062-.894a3.491,3.491,0,0,1-.463.044,1.086,1.086,0,0,0-.106-.313,16.878,16.878,0,0,0-1.1-2.5s0-1.126.331-1.407-.138-4.421-.138-4.421-3.364-7.86-6.372-1.995c0,0-5.7,3.8-.919,8.223,0,0,1.876.919,2.176,1.651.181.475.825,1.807,1.251,2.689l.194.394-.056.044.075.738v.288c-.9.506-1.507,1.013-1.363,1.4a8.23,8.23,0,0,1,.544,2.032s6.609,8.273,7.466,11.812c0,0,17.721,10.53,23.549,11.287l-1.007,5.265a41.648,41.648,0,0,0-.231,4.29c.075,1.125-.7,6.253-.7,6.253s-1.013,7.5-1.876,8.573-.7,5.571-.7,5.571a37.579,37.579,0,0,1-1.163,6.391,16.24,16.24,0,0,0-.231,6.4s-2.958,6.772,4.121,2.182c0,0,3.47-.213,7.5-.35v2.057c-.05,3.877-.075,9.223.1,13.269.313,7.147,2.5,21.26,2.5,21.26v7.1a9.936,9.936,0,0,0-.2,2.032,13.168,13.168,0,0,0,1.913,7.116l.544,4.74a19.635,19.635,0,0,1,1.3,5,2.456,2.456,0,0,1-.056.45,3.363,3.363,0,0,0-.062.725c-.069,2.151,1.251,7.3,1.251,7.3s.081,5.19.857,5.49c.663.256-.888,3-1.351,3.752a1.267,1.267,0,0,1-.031-.15c-.056.1-.094.156-.094.156a3.646,3.646,0,0,0-.244,1.313,1.876,1.876,0,0,0,.863,1.826c1.476.907,2.27,1.657,1.019,1.957a12.413,12.413,0,0,0-1.369.288c0-.056-.05-.119-.069-.175a.838.838,0,0,0-.488.869,3.845,3.845,0,0,0,.469,1.757,18.757,18.757,0,0,0,2.1,3.839l.625-.069a2.95,2.95,0,0,1-.35.625,2.419,2.419,0,0,1-.875.775,2.8,2.8,0,0,1-1.063.369,2.964,2.964,0,0,0-2.2,1.069c-.775,1-1.251,2.37.269,3.57l5.559,1.913s9.561,1.251,9.054-.9-.813-4.021-.813-4.021a8.486,8.486,0,0,0-.782-3.808,3.748,3.748,0,0,0-.338-.563l.338-.038s.7-4.74,1.632-5.628c.219-.206.269-.369.213-.494.1-.256-.144-.406-.456-.494l-.069.188a4.7,4.7,0,0,0-.925-.1s-.313-2.5.694-3.389a.957.957,0,0,0,.2-.738,4.256,4.256,0,0,0-.106-1.013l-.038.063A36.118,36.118,0,0,0,687.236,709a7.212,7.212,0,0,1,.544-3.164c.619-.907-.075-12.262-.075-12.262s.231-5.49-.469-8.048.857-5.571.857-5.571v-.2s-.037-.338-.094-.869v.056c-.156-1.457-.45-4.089-.669-5.3-.313-1.732.075-10,.075-10l1.4-3.533,2.5,6.09,2.639,8.129a6.91,6.91,0,0,1,1.344,3.452c0,.088,0,.175,0,.256a4.087,4.087,0,0,0,0,.544,4.853,4.853,0,0,0,.807,2.9s.7,3.839,1.788,4.815a4.334,4.334,0,0,1,1.088,2.858s1.319,5.571,1.945,6.547c.525.825.55,3.089.544,3.752h0v.206s.181,1.988.175,3.664v.582a5.83,5.83,0,0,1-.163,1.351v-.2a13.921,13.921,0,0,0-.4,3.47c-.037,2,.269,4.377,1.482,5.759,2.1,2.407,3.42,2.107,3.42,2.107s-1.013,3.008-2.257,3.614a.756.756,0,0,0-.131.081.349.349,0,0,0-.031-.175,1.469,1.469,0,0,0-.363,1.126,8.054,8.054,0,0,0,1.538,4.458,2.464,2.464,0,0,0,1.051.625l-.194.119a4.374,4.374,0,0,1-.431.206,2.037,2.037,0,0,1-.625.163,2.964,2.964,0,0,0-2.2,1.069c-.775,1-1.251,2.37.269,3.57l5.559,1.913S717.6,734.426,717.119,732.25Z" transform="translate(-267.867 -236.077)"/><path class="s" d="M708.024,841.88l-5.384-1.913c-1.482-1.2-1.007-2.57-.256-3.57a2.833,2.833,0,0,1,2.126-1.069,2.631,2.631,0,0,0,1.032-.369,2.439,2.439,0,0,0,.85-.775,3.959,3.959,0,0,0,.625-2.082s5.909-1.726,7.5,0a4.414,4.414,0,0,1,.719,1.051,8.754,8.754,0,0,1,.75,3.808s.3,1.876.788,4.021S708.024,841.88,708.024,841.88Z" transform="translate(-295.29 -342.155)"/><path class="s" d="M750.135,837.678l-5.378-1.913c-1.488-1.2-1.013-2.57-.263-3.564a2.827,2.827,0,0,1,2.132-1.075,1.942,1.942,0,0,0,.625-.163,3.16,3.16,0,0,0,.413-.206,3.4,3.4,0,0,0,1.469-2.858s5.9-1.732,7.5,0a4.181,4.181,0,0,1,.563.769,8.591,8.591,0,0,1,.907,4.089s.3,1.876.788,4.021S750.135,837.678,750.135,837.678Z" transform="translate(-311.069 -340.58)"/><path class="f" d="M717.355,832.1a4.414,4.414,0,0,1,.719,1.051h0l-8.854,1.026a3.959,3.959,0,0,0,.625-2.082S715.742,830.374,717.355,832.1Z" transform="translate(-298.118 -342.154)"/><path class="f" d="M759.277,828.62v1.657c-1.376,2.27-8.035,1.776-9.967.625a3.163,3.163,0,0,0,.413-.206,3.4,3.4,0,0,0,1.469-2.858s5.9-1.732,7.5,0A4.18,4.18,0,0,1,759.277,828.62Z" transform="translate(-313.139 -340.557)"/><path class="m" d="M739.988,765.437a14.77,14.77,0,0,0-1.057,2.257v5.947c-1.5,2.5-9.329,1.657-10.38.3s-2.182-4.89-.982-5.49,2.182-3.614,2.182-3.614-1.251.3-3.308-2.107-1.426-7.747-1.051-9.029,0-5.565,0-5.565.075-3.008-.525-3.989-1.876-6.547-1.876-6.547a4.444,4.444,0,0,0-1.051-2.858c-1.05-.982-1.732-4.815-1.732-4.815a4.934,4.934,0,0,1-.75-3.233,6.581,6.581,0,0,0-1.282-3.914l-2.557-8.129-2.407-6.1-1.351,3.533s-.381,8.279-.075,10,.75,6.315.75,6.315-1.507,3.014-.825,5.571.45,8.048.45,8.048.675,11.362.075,12.268a7.256,7.256,0,0,0-.525,3.126s3.083,6.622,2.1,7.5-.675,3.389-.675,3.389,2.107,0,1.207.9-1.582,5.628-1.582,5.628l-9.11,1.151a19.255,19.255,0,0,1-2.038-3.839c-1.2-2.783.225-2.5,1.438-2.783s.444-1.051-.988-1.957-.625-2.933-.625-2.933,2.182-3.689,1.432-3.989-.832-5.49-.832-5.49-1.5-6.172-1.126-7.823-1.207-5.628-1.207-5.628l-.525-4.74a13.031,13.031,0,0,1-1.626-8.967v-7.322s-2.107-14.144-2.414-21.26c-.188-4.577-.138-10.824-.075-14.726.038-2.182.075-3.633.075-3.633l32.516-3.383a26.937,26.937,0,0,0,.594,4.827c.331,1.782.85,4.1,1.663,6.985a31.766,31.766,0,0,1,.907,14.444l-.3,10.455s2.858,7,2.257,9.38a19.861,19.861,0,0,0-.625,4.377s6.4,15.276,5.722,19.716,2.113,11.405,2.113,11.405S740.738,764.111,739.988,765.437Z" transform="translate(-292.793 -284.521)"/><path class="p" d="M737.22,754.649l9.867-1.319S741.51,759.045,737.22,754.649Z" transform="translate(-308.609 -312.927)"/><path class="f" d="M749.671,737.87s.344,3.5-1.8,4.815C747.87,742.685,751.7,742.084,749.671,737.87Z" transform="translate(-312.6 -307.134)"/><path class="f" d="M742.788,720.06s-8.266,6.81-11.255,6.253S742.788,720.06,742.788,720.06Z" transform="translate(-306.324 -300.461)"/><path class="f" d="M713.723,760.55s-6.253,1.432-6.466,3.952S713.723,760.55,713.723,760.55Z" transform="translate(-297.38 -315.632)"/><path class="p" d="M715.733,810.72s-8.873,1.657-6.353,2.789a43.024,43.024,0,0,0,6.659,2.026S718.9,815.685,715.733,810.72Z" transform="translate(-298.009 -334.431)"/><g class="t" transform="translate(402.183 396.1)"><path d="M706.1,817.228a1.757,1.757,0,0,1-.813-1.288l-.088.163s-.832,2.026.625,2.933c.163.1.319.206.463.306.263-.05.55-.088.819-.156C708.294,818.91,707.531,818.154,706.1,817.228Z" transform="translate(-698.705 -732.488)"/><path d="M724.817,816.151c.244-.225.231-.807.088-1.551a4.2,4.2,0,0,0-.507,2.182A1.67,1.67,0,0,1,724.817,816.151Z" transform="translate(-705.987 -731.986)"/><path d="M722.505,757.22a10.355,10.355,0,0,0-.625,2.764,10.925,10.925,0,0,1,.688-1.876A5.587,5.587,0,0,0,722.505,757.22Z" transform="translate(-705.044 -710.485)"/><path d="M755.293,750.405a3.579,3.579,0,0,0,.081-.825c-.113.563-.188,1.088-.244,1.544C755.18,750.887,755.23,750.649,755.293,750.405Z" transform="translate(-717.503 -707.622)"/><path d="M722.416,799a4.734,4.734,0,0,0,.225-1.67,5.511,5.511,0,0,0-.431,2.107A2.025,2.025,0,0,1,722.416,799Z" transform="translate(-705.168 -725.514)"/><path d="M717.775,822.68a30.086,30.086,0,0,0-1.032,4.621l-9.1,1.057a18.846,18.846,0,0,1-2.039-3.839,6.7,6.7,0,0,1-.256-.663c-.544.25-.763.813-.044,2.5a18.623,18.623,0,0,0,2.039,3.833l9.092-1.057s.682-4.74,1.582-5.628C718.463,823.024,718.181,822.8,717.775,822.68Z" transform="translate(-698.663 -735.013)"/><path d="M702.049,756.634s.075,5.2.825,5.5h0c.381-.857.625-1.67.294-1.807-.75-.3-.825-5.49-.825-5.49s-1.507-6.172-1.125-7.829-1.207-5.628-1.207-5.628l-.525-4.74a13.056,13.056,0,0,1-1.657-8.954v-7.31s-2.107-14.144-2.407-21.291c-.194-4.577-.138-10.824-.075-14.726V682.48h-.256s-.038,1.444-.075,3.633c-.062,3.9-.119,10.149.075,14.726.3,7.147,2.407,21.291,2.407,21.291v7.3a13.012,13.012,0,0,0,1.695,9.029l.525,4.74s1.582,3.983,1.2,5.628S702.049,756.634,702.049,756.634Z" transform="translate(-694.956 -682.48)"/><path d="M748.054,826.367a8.754,8.754,0,0,1-1.438-3.577c-.932.838.138,4.1,1.138,5.384s8.879,2.182,10.386-.306v-1.432C756.1,828.455,749.054,827.649,748.054,826.367Z" transform="translate(-714.179 -735.054)"/><path d="M766.791,814.869a15.038,15.038,0,0,0-1.051,2.257v1.057c.169-.388.413-.9.75-1.507a4.557,4.557,0,0,0,.332-1.876Z" transform="translate(-721.479 -732.06)"/><path d="M747.29,810.148a14.481,14.481,0,0,0,.744-1.788s-1.251.3-3.314-2.107c-1.476-1.751-1.557-5.059-1.351-7.222-.375,1.282-.982,6.622,1.051,9.029A5.3,5.3,0,0,0,747.29,810.148Z" transform="translate(-712.952 -726.151)"/><path d="M735.638,765.351a41.33,41.33,0,0,1,.15,4.458c.05-.294.106-.531.15-.7.381-1.251,0-5.565,0-5.565s.075-3.014-.525-3.989-1.876-6.547-1.876-6.547a4.444,4.444,0,0,0-1.05-2.858c-1.051-.982-1.732-4.815-1.732-4.815A4.934,4.934,0,0,1,730,742.1a6.6,6.6,0,0,0-1.251-3.914l-2.557-8.129L723.751,724l-1.357,3.533s0,.444-.044,1.144l1.1-2.87,2.407,6.09,2.557,8.129a6.436,6.436,0,0,1,1.251,3.908,4.947,4.947,0,0,0,.782,3.2s.675,3.833,1.726,4.815a4.466,4.466,0,0,1,1.057,2.858s1.251,5.565,1.876,6.547S735.638,765.351,735.638,765.351Z" transform="translate(-705.221 -698.038)"/></g><path class="u" d="M749.263,564.538l-.563,2.751.031,1.251v.9l-3.126.325-.35-.625h0a26.606,26.606,0,0,0-2.439-3.939c-.582-.488-1.613-8.129-.375-7.672a3.276,3.276,0,0,1,1.751,1.582S750.376,559.76,749.263,564.538Z" transform="translate(-310.347 -239.553)"/><path class="f" d="M750.807,575.8l-3.126.325-.35-.625h0a2.764,2.764,0,0,1,3.464-.569Z" transform="translate(-312.398 -245.939)"/><path class="v" d="M751.478,577.447l-4.133.963-.088-.625-.238-1.657a2.845,2.845,0,0,1,4.008-.55l.206.844Z" transform="translate(-312.281 -246.103)"/><path class="u" d="M640.9,561.323l-4.415,2.376-.4-.838c-.425-.882-1.05-2.207-1.251-2.682-.263-.732-2.107-1.657-2.107-1.657-4.627-4.421.882-8.216.882-8.216,2.92-5.872,6.172,1.988,6.172,1.988s.45,4.146.131,4.421-.319,1.413-.319,1.413a17.182,17.182,0,0,1,1.069,2.5C640.835,561.066,640.9,561.323,640.9,561.323Z" transform="translate(-268.764 -236.037)"/><path class="f" d="M644.025,568.812l-4.415,2.376-.4-.838c.625-.519,2.833-2.314,3.558-2.232a5.183,5.183,0,0,0,1.051,0C643.956,568.556,644.025,568.812,644.025,568.812Z" transform="translate(-271.885 -243.527)"/><path class="v" d="M644.554,570.331l-4.965,2.445-.1-1.069-.069-.732s2.876-2.47,3.752-2.376a4.615,4.615,0,0,0,1.3,0l.056.894Z" transform="translate(-271.963 -243.707)"/><path class="u" d="M723.6,587.873s-21.654,2.445-17.608,1.132c2.82-.919,3.939-2.708,4.177-4.7a11.437,11.437,0,0,0-.807-5,21.739,21.739,0,0,0-1.938-3.914s16.552-9.1,13.244-.825a12.981,12.981,0,0,0-.938,3.921,11.055,11.055,0,0,0,.419,3.964A11.824,11.824,0,0,0,723.6,587.873Z" transform="translate(-296.718 -244.641)"/><path class="f" d="M721.824,574.561a12.981,12.981,0,0,0-.938,3.921c-1.563,1.307-3.27,1.251-5.465,1.251-1.688,0-3.558.413-4.9-.4a21.742,21.742,0,0,0-1.938-3.914S725.132,566.282,721.824,574.561Z" transform="translate(-297.878 -244.642)"/><circle class="u" cx="8.954" cy="8.954" r="8.954" transform="translate(408.295 317.732)"/><path class="f" d="M723.6,594.12s-21.654,2.445-17.608,1.132c2.82-.919,3.939-2.708,4.177-4.7A11.752,11.752,0,0,1,714.8,588.1a6.461,6.461,0,0,1,3.921-.062,5.23,5.23,0,0,1,1.426.625A11.824,11.824,0,0,0,723.6,594.12Z" transform="translate(-296.718 -250.888)"/><path class="f" d="M751.621,578.218l-4.133.963-.088-.625a3.652,3.652,0,0,1,3.977-1.363Z" transform="translate(-312.424 -246.874)"/><path class="f" d="M644.595,570.868l-4.965,2.445-.1-1.069a36.535,36.535,0,0,1,5-2.214Z" transform="translate(-272.005 -244.244)"/><path class="f" d="M728.272,682.3c-8.385,1.319-20.322,3.045-22.217,2.47-1.569-.481-6.584-.431-10.955-.281.037-2.182.075-3.633.075-3.633l32.516-3.383a26.929,26.929,0,0,0,.581,4.827Z" transform="translate(-292.827 -284.502)"/><path class="q" d="M715.025,640.2s-27.613,4.74-30.577,3.833-18.177.081-18.177.081c-6.847,4.583-3.983-2.182-3.983-2.182a16.317,16.317,0,0,1,.225-6.4,39.175,39.175,0,0,0,1.126-6.4s-.15-4.515.675-5.565S666.121,615,666.121,615s.757-5.115.682-6.253.225-4.283.225-4.283l.975-5.271c-5.628-.75-22.8-11.287-22.8-11.287-.825-3.533-7.222-11.812-7.222-11.812a8.709,8.709,0,0,0-.525-2.032c-.45-1.2,6.322-3.608,6.322-3.608s5.04,6.172,6.09,7.823a34.431,34.431,0,0,0,4.665,4.74,3.645,3.645,0,0,1,1.657.219h.088a13.344,13.344,0,0,1,3.364,1.932,6.522,6.522,0,0,1,4.59,1.732s3.089-.45,3.614.075,3.126,0,3.126,0,2.639-5.565,4.377-3.952,9.073,1.544,9.073,1.544c.982-1.3,3.358-2.232,4.852-2.714a6.459,6.459,0,0,1,3.921-.062,4.852,4.852,0,0,1,1.551.75l4.452,4.377s1.251-1.657,1.132-2.032,1.507-.675,1.507-.675,2.182-.675,3.008-.907,1.588.675,1.651.75a8.81,8.81,0,0,1-.375-3.308,3.752,3.752,0,0,0-.9-2.708c2.657-6.428,8.6-.988,8.6-.988s.675,3.533.075,4.89.625,4.214.45,4.965.3,2.032.3,3.458a20.571,20.571,0,0,1-1.2,5.346c-.456,1.2-4.065,3.908-4.065,3.908s-.225,4.289-1.807,6.772-.625,10.987-.625,10.987,1.5,6.622,3.383,8.754S715.025,640.2,715.025,640.2Z" transform="translate(-271.22 -244.402)"/><path class="f" d="M694.894,600.1s-.825-2.5-1.582-2.714a17.808,17.808,0,0,1-2.182-.976l.488-.925s2.826.775,3.277,1.6S694.894,600.1,694.894,600.1Z" transform="translate(-291.339 -253.784)"/><path class="f" d="M668.9,592.9c-.15.757-6.841,1.432-6.841,1.432l3.383-3.4h0l.088.031h0a13.344,13.344,0,0,1,3.37,1.932Z" transform="translate(-280.447 -252.079)"/><circle class="w" cx="0.6" cy="0.6" r="0.6" transform="translate(368.457 329.9)"/><circle class="w" cx="0.6" cy="0.6" r="0.6" transform="translate(369.226 331.107)"/><circle class="w" cx="0.6" cy="0.6" r="0.6" transform="translate(369.983 332.214)"/><circle class="w" cx="0.6" cy="0.6" r="0.6" transform="translate(370.771 333.421)"/><circle class="w" cx="0.488" cy="0.488" r="0.488" transform="translate(441.805 333.464)"/><circle class="w" cx="0.488" cy="0.488" r="0.488" transform="translate(441.88 334.577)"/><circle class="w" cx="0.488" cy="0.488" r="0.488" transform="translate(441.942 335.684)"/><path class="f" d="M697.21,635.47c-.069-.088,16.883,21.329,30.058,8.954C727.268,644.424,706.458,647.244,697.21,635.47Z" transform="translate(-293.617 -268.765)"/><path class="f" d="M681.63,653.28s10.149.275,11.212,3.2v3.039a1.945,1.945,0,0,1-1.876,0c-1.026-.55-7.16-3.67-9.323-2.17Z" transform="translate(-287.78 -275.438)"/><path class="q" d="M681.93,653.28s9.7.263,10.724,3.045v2.9a1.876,1.876,0,0,1-1.807,0c-.982-.531-6.878-3.5-8.917-2.07Z" transform="translate(-287.892 -275.438)"/><path class="f" d="M690.49,618a32.691,32.691,0,0,0,3.933,6.747,26.353,26.353,0,0,0,6.165,5.953S690.659,619.419,690.49,618Z" transform="translate(-291.099 -262.219)"/><path class="f" d="M685.18,599.18s1.695,7.31,6.053,9.792Z" transform="translate(-289.11 -255.167)"/><path class="f" d="M680.909,600.359c-.044-.138-1.507,5.778,5.628,9.054C686.536,609.413,683.523,608.387,680.909,600.359Z" transform="translate(-287.452 -255.608)"/><path class="f" d="M751.9,592.517a52.356,52.356,0,0,1,4.5,3.383S754.043,592.367,751.9,592.517Z" transform="translate(-314.108 -252.669)"/><path class="s" d="M710.72,572.329a1.907,1.907,0,0,0,.694,1.213,1.957,1.957,0,0,0,.844.188c2.733.169,5.571.288,8.129-.763a3.027,3.027,0,0,0,1.251-.819,4.871,4.871,0,0,0,.663-1.97,30.7,30.7,0,0,1,1.657-3.8,12.775,12.775,0,0,0,.882-6.828,4.57,4.57,0,0,0-.682-2c-.725-1.032-2.045-1.451-3-2.276s-1.576-2.082-2.689-2.7a5.227,5.227,0,0,0-3.377-.3,17.84,17.84,0,0,0-6.3,2.37,3.12,3.12,0,0,1-2.107.719,2.9,2.9,0,0,1-1.551-1.188,8.329,8.329,0,0,0-.669,3.9,1.153,1.153,0,0,1-.419,1.213c-.675.782-1.094,2.02-.432,2.808.294.344.738.531,1.019.882.506.625.331,1.532.319,2.339a1.25,1.25,0,0,0,.2.794,1.163,1.163,0,0,0,1.107.263,3.027,3.027,0,0,1,1.176-.113,1.982,1.982,0,0,1,1.026.788A14.3,14.3,0,0,1,710.72,572.329Z" transform="translate(-295.89 -237.532)"/><g class="x" transform="translate(407.323 322.059)"><path d="M721.825,575.938a2.958,2.958,0,0,1-1.251.813c-2.5,1.057-5.365.932-8.091.763a1.838,1.838,0,0,1-.844-.188,1.876,1.876,0,0,1-.7-1.207,13.956,13.956,0,0,0-2.282-5.3,1.951,1.951,0,0,0-1.026-.788,3.027,3.027,0,0,0-1.176.113,1.163,1.163,0,0,1-1.107-.263,1.213,1.213,0,0,1-.194-.794c0-.807.181-1.713-.325-2.339-.281-.35-.725-.538-1.019-.882a1.763,1.763,0,0,1-.169-1.8,2.059,2.059,0,0,0-.131,2.4c.294.344.738.531,1.019.882.507.625.331,1.532.319,2.339a1.251,1.251,0,0,0,.2.794,1.157,1.157,0,0,0,1.107.263,3.025,3.025,0,0,1,1.176-.113,1.982,1.982,0,0,1,1.026.788,14.2,14.2,0,0,1,2.282,5.3,1.907,1.907,0,0,0,.694,1.213,1.956,1.956,0,0,0,.844.188c2.733.169,5.571.288,8.129-.763a3.069,3.069,0,0,0,1.251-.819,2.38,2.38,0,0,0,.388-.725A.449.449,0,0,1,721.825,575.938Z" transform="translate(-703.176 -564.07)"/></g><path class="f" d="M712.62,593s11.187,1.482,12.193-.2" transform="translate(-299.392 -252.776)"/><path class="f" d="M747.4,585.72s6.209,0,7.579,2.339" transform="translate(-312.424 -250.123)"/></g></svg>