<svg xmlns="http://www.w3.org/2000/svg" xmlns:xlink="http://www.w3.org/1999/xlink" width="498" height="342.702" viewBox="0 0 498 342.702"><defs><style>.a,.c{fill:#f07663;}.a,.l,.n{opacity:0.1;}.b{fill:url(#a);}.d,.e{fill:#fff;}.d,.h{opacity:0.2;}.e{opacity:0.07;}.f{fill:#535461;}.g{fill:#774e55;}.i{fill:#5c3d53;}.j{opacity:0.05;}.k{fill:#f8bdc5;}.m{fill:#5e52ad;}.o{fill:#eb6475;}.p{fill:none;stroke:#535461;stroke-miterlimit:10;stroke-width:2px;}</style><linearGradient id="a" x1="0.5" y1="1" x2="0.5" gradientUnits="objectBoundingBox"><stop offset="0" stop-color="gray" stop-opacity="0.251"/><stop offset="0.54" stop-color="gray" stop-opacity="0.122"/><stop offset="1" stop-color="gray" stop-opacity="0.102"/></linearGradient></defs><g transform="translate(0 0.079)"><rect class="a" width="37.095" height="13.911" rx="5.17" transform="translate(153.017 35.661)"/><rect class="a" width="37.095" height="13.911" rx="5.17" transform="translate(263.374 23.142)"/><rect class="a" width="37.095" height="13.911" rx="5.17" transform="translate(242.972 164.566)"/><rect class="a" width="37.095" height="13.911" rx="5.17" transform="translate(259.665 179.868)"/><rect class="a" width="37.095" height="13.911" rx="5.17" transform="translate(358.894 172.913)"/><rect class="a" width="37.095" height="13.911" rx="5.17" transform="translate(57.034 184.041)"/><rect class="a" width="37.095" height="13.911" rx="5.17" transform="translate(231.38 195.17)"/><path class="b" d="M594.672,164.946l-17-49.346-6.111.927-5.471.7c.139-1.855.38-8.513-3.014-12a9.121,9.121,0,0,0-2.866-4.085c-8.133-7.456-9.826,7.795-9.826,7.795s-1.855,3.218-4.41,7.716l-1.34-.255-.38,3.32c-5.657,10-13.173,23.537-13.173,24.807a16.761,16.761,0,0,1-1.016,4.744s-5.759,9.487-7.795,14.235a22.762,22.762,0,0,1-5.1,7.456s-.492.376-1.3.927a11.59,11.59,0,0,1,.464-2.648c.742-2.425,2.467-4.5,2.926-7a8.174,8.174,0,0,0,.121-1.813c.107-2.926-1.317-5.805-1.91-8.731-.691-3.39-.32-7.122-2.128-10.067a10.39,10.39,0,0,0-6.422-4.294c-2.356-.589-4.674-.38-7.048-.631-2.179-.232-4.261-1.2-6.441-1.553a8.314,8.314,0,0,0-3.533,0c-3.686,1.015-4.841,5.662-7.688,8.217-1.025.927-2.281,1.567-3.209,2.583a7.762,7.762,0,0,0-1.748,5.564,11.854,11.854,0,0,0,.121,2.026c.352,2.425,1.289,4.72,1.855,7.1a24.578,24.578,0,0,1,.691,5.374c0,.408,0,.816-.037,1.22a4.28,4.28,0,0,1-.626,2.318,6.548,6.548,0,0,1-2.119,1.507,16.437,16.437,0,0,1-5.342-7.577s-.125.158-.338.464v-.464s-4.637-6.807-5.342-12.367l1.614.167,3.71-52.188L463.968,97.7c-.264-2.694-.983-6.6-2.889-9.455,1.59-3.135,2.393-7.377-4.581-7.8-8.161-.5-7.66,5.861-6.793,9.339a23.39,23.39,0,0,0-.464,5.773L440.9,94.345l-.046.677h-1.985l-6.074,53.241,5.175-.26,18.965,1.975c1.516,13.785,3.9,30.821,6.728,34.837a3.43,3.43,0,0,0,.311.385v24.395s-.339,31.531-6.1,36.6a30.14,30.14,0,0,1,11.026-1.73q-.1.313-.195.668a59.159,59.159,0,0,0-1.757,9.5q-.121,1.062-.218,2.216a119.571,119.571,0,0,0,.292,21.2c2.374,25.076,6.1,43.039,6.1,43.039l1.039,14.578s-1.015,24.738,1.693,32.871a12.272,12.272,0,0,0,3.468,2.249c.023.232.051.464.074.709s.06.626.093.951c-1.215.552-3.482,2.74-3.974,11.337,0,0,.677,6.441-1.015,9.487s-.677,11.861,4.405,12.877a27.159,27.159,0,0,0,9.826,0s2.374,0,.677-8.472l-.3-2.17c-.037-4.2.139-8.69.974-10.03,1.692-2.713-.677-5.421-.677-5.421s-.167.093-.441.218a40.084,40.084,0,0,1-.8-9.047,6.487,6.487,0,0,1,.07-.719,14.272,14.272,0,0,0,2.87-1.98V336.343s-.339-49.475,3.39-50.5c0,0,1.692,17.959,1.016,26.773a84.105,84.105,0,0,0,1.015,18.3l.677,35.922s.649.311,1.7.677l-.07.654c-.413,3.992-1.076,10.02-1.679,13.711a2.727,2.727,0,0,0-1.646,1.9c-1.015,3.39-.338,11.861-2.374,14.235-1.2,1.391-2.638,4.224-1.934,6.227-.441,1.757-.246,4.5,4.985,4.957,7.795.677,11.184-3.39,11.184-3.39s1.015-1.692,0-4.744.338-8.472.338-8.472.728-4.6-.464-5.2c-.1-.547-.195-.895-.195-.895a4.08,4.08,0,0,0-1.071-2.819c-.028-3.547.116-10.108,1.363-14.43.074-.246.148-.464.227-.719a9.154,9.154,0,0,0,2.866-1.006s-.339-7.795,2.036-13.215,1.016-27.112,1.016-27.112-1.016-5.7.417-10.317a101.237,101.237,0,0,0,3.682-15.673l2-14s5.263-17.04-1.669-34.531q-.424-1.085-.927-2.17c-.575-1.257-1.215-2.518-1.929-3.77-.111-.195-.232-.394-.348-.589.728-.181,1.141-.287,1.141-.287s-9.149-21.33-3.39-32.194c0,0,3.246-3.246,3.709-6.812.575-4.716,1.2-9.427,2.23-14.064l.181-.816s.028-.158.074-.441c.13-.083.255-.172.38-.264,9.765-7.132,18.186-36.91,18.186-36.91l2.713-5.1,1.289-2.726L538.571,169.6l20.671,5.1,13.215-1.015-.037-2.842,10.071-.784ZM463.634,97.711l-3.672-.538c-.645-3.315-1.08-5.49-1.08-5.49a20.141,20.141,0,0,0,2.036-3.046c1.776,2.717,2.458,6.427,2.717,9.056Zm-13.716-7.118c.255.872.487,1.433.487,1.433l.464,3.825-1.252-.181a25.127,25.127,0,0,1,.306-5.1Zm115.829,26.713-4.971.64a18.636,18.636,0,0,0,1.062-8.49,4.261,4.261,0,0,0,1.363-3.547c2.954,3.529,2.675,9.761,2.546,11.384Zm-8.254-5.291a12.316,12.316,0,0,0,4.048-2.277,18.839,18.839,0,0,1-1.141,8.254l-4.637.594-1.28-.246Z" transform="translate(-261.323 -80.5)"/><path class="c" d="M686.752,127.648l-12.1,5.05L660.6,83.69l3.3-3.914,6.042-.937Z" transform="translate(-354.288 -42.325)"/><path class="d" d="M686.752,127.648l-12.1,5.05L660.6,83.69l3.3-3.914,6.042-.937Z" transform="translate(-354.288 -42.325)"/><path class="c" d="M643.426,80.86l-21,2.694,10.762,51.859,20.991-1.632Z" transform="translate(-333.817 -43.409)"/><path class="e" d="M643.426,80.86l-21,2.694,10.762,51.859,20.991-1.632Z" transform="translate(-333.817 -43.409)"/><path class="f" d="M711.276,147.362l-.334-.042c0-.125,1.391-12.367-6.292-13.911l.065-.329C712.727,134.689,711.3,147.236,711.276,147.362Z" transform="translate(-407.125 -108.742)"/><rect class="g" width="23.129" height="33.854" transform="translate(226.483 74.352)"/><rect class="h" width="23.129" height="33.854" transform="translate(226.483 74.352)"/><path class="c" d="M654.391,141.859l-13.071,1.006,2.012-50.945,4.354-2.68,6.033,1.006Z" transform="translate(-343.948 -47.903)"/><path class="h" d="M654.391,141.859l-13.071,1.006,2.012-50.945,4.354-2.68,6.033,1.006Z" transform="translate(-343.948 -47.903)"/><path class="c" d="M624.04,84.585,603.263,80.56l-6.033,52.624,20.444,5.026Z" transform="translate(-320.302 -43.248)"/><path class="c" d="M380.751,35.03h-3.019L371.7,87.649l13.405-.668Z" transform="translate(-199.347 -18.829)"/><path class="h" d="M380.751,35.03h-3.019L371.7,87.649l13.405-.668Z" transform="translate(-199.347 -18.829)"/><path class="c" d="M384.786,33.58,381.1,86.538l32.175,3.352,3.686-51.618Z" transform="translate(-204.389 -18.052)"/><path class="i" d="M528.441,706.809s-4.02-.334-4.693,11.4c0,0,.672,6.366-1.006,9.385s-.672,11.731,4.359,12.737a26.862,26.862,0,0,0,9.737,0s2.346,0,.672-8.379l-3.352-24.469Z" transform="translate(-309.163 -416.439)"/><path class="j" d="M528.441,706.809s-4.02-.334-4.693,11.4c0,0,.672,6.366-1.006,9.385s-.672,11.731,4.359,12.737a26.862,26.862,0,0,0,9.737,0s2.346,0,.672-8.379l-3.352-24.469Z" transform="translate(-309.163 -416.439)"/><path class="k" d="M560.474,267.61a22.432,22.432,0,0,0,.709,7.883l-8.713,2.346s-14.411,2.012-8.713-3.71c1.971-1.971,2.94-5.351,3.362-8.921a49.437,49.437,0,0,0,.246-7.345,65.469,65.469,0,0,0-.594-6.863s21.116-7.373,16.424,4.693a42.915,42.915,0,0,0-2.017,6.723A35.448,35.448,0,0,0,560.474,267.61Z" transform="translate(-320.121 -170.788)"/><path class="l" d="M568.224,255.7a42.916,42.916,0,0,0-2.017,6.723,14.439,14.439,0,0,1-13.813-4.553,65.469,65.469,0,0,0-.594-6.863S572.916,243.638,568.224,255.7Z" transform="translate(-325.15 -170.793)"/><circle class="k" cx="14.411" cy="14.411" r="14.411" transform="translate(223.636 62.453)"/><path class="k" d="M493.761,166.518v4.359l-7.373,19.1-2.012-2.012a3.384,3.384,0,0,1-.306-.38c-4.869-6.918-8.411-52.911-8.411-52.911l-4.688-38.889S465.945,83.731,477,84.39s2.346,11.059,2.346,11.059,7.373,36.868,6.366,38.208,0,5.365,0,5.365,3.019,7.711,2.68,13.405S493.761,166.518,493.761,166.518Z" transform="translate(-281.189 -82.615)"/><path class="k" d="M652.239,136.9l-17.43,36.868-2.68,5.017s-8.346,29.453-17.986,36.506a8.809,8.809,0,0,1-1.79,1.034l-2.012-16.09,1.855-4.674.139-.357a22.512,22.512,0,0,0,5.026-7.373c2.012-4.692,7.711-14.078,7.711-14.078a16.572,16.572,0,0,0,1.006-4.693c0-2.012,19.1-35.194,19.1-35.194s1.674-15.084,9.737-7.711S652.239,136.9,652.239,136.9Z" transform="translate(-356.546 -103.938)"/><path class="k" d="M543.386,711.451s-11.4,4.693-10.057.334c.816-2.643.515-7.637.153-11.128-.232-2.277-.491-3.937-.491-3.937l9.737,1.006a7.881,7.881,0,0,0-.561,2.666C541.846,704.839,543.386,711.451,543.386,711.451Z" transform="translate(-315.062 -411.029)"/><path class="k" d="M581.194,694.524c-1.757,6.1-1.3,16.73-1.3,16.73s-10.391,1.34-9.385-1.34c.7-1.855,1.725-11.045,2.281-16.447.246-2.36.4-4,.4-4l9.385,2.012A9.374,9.374,0,0,0,581.194,694.524Z" transform="translate(-335.148 -407.141)"/><path class="l" d="M533,696.69l9.737,1.006a7.88,7.88,0,0,0-.561,2.666,9.937,9.937,0,0,1-8.671.264C533.26,698.345,533,696.69,533,696.69Z" transform="translate(-315.067 -411.013)"/><path class="l" d="M585.3,691.478a9.376,9.376,0,0,0-1.391,3.046,18.027,18.027,0,0,1-8.4-1.057c.246-2.36.4-4,.4-4Z" transform="translate(-337.866 -407.141)"/><path class="m" d="M558.943,473.825l-1.975,13.846a100.119,100.119,0,0,1-3.645,15.5c-1.419,4.567-.413,10.2-.413,10.2s1.34,21.45-1.006,26.815-2.012,13.071-2.012,13.071c-5.365,3.019-13.071-.672-13.071-.672l-.672-35.528a83.172,83.172,0,0,1-1.006-18.084c.668-8.7-1.006-26.477-1.006-26.477-3.709,1.006-3.352,49.939-3.352,49.939v31.841c-8.045,7.039-15.084,0-15.084,0-2.68-8.045-1.674-32.514-1.674-32.514l-1.006-14.411a423.274,423.274,0,0,1-6.028-42.566,118.24,118.24,0,0,1-.287-20.973q.1-1.141.213-2.193a58.511,58.511,0,0,1,1.734-9.39,21.138,21.138,0,0,1,1.02-2.972l36.015,1.674,2.124.1,5.1.236c.557.839,1.08,1.692,1.567,2.546.7,1.238,1.34,2.485,1.906,3.71.325.714.631,1.433.927,2.147C564.16,456.961,558.943,473.825,558.943,473.825Z" transform="translate(-300.786 -267.587)"/><path class="l" d="M519.771,436.465s-1.577,15.765-12.691,11.2q.1-1.141.213-2.193c2.615.709,9.853,1.688,10.127-9.014Z" transform="translate(-301.166 -271.448)"/><path class="l" d="M602.782,441.6c-7.7,2.75-10.6-4.572-11.592-8.75l2.124.1c1.155,6.57,5.764,6.955,8.569,6.492Q602.356,440.538,602.782,441.6Z" transform="translate(-346.275 -269.512)"/><path class="i" d="M533.61,719.422c-1.711-.269-4.326-1.21-3.505-4.5,0,0-3.167-1.094-2.833,11.977,0,0-.334,6.366-1.006,7.711s0,9.385,7.039,8.713c0,0,5.026,1.674,6.366-1.006,0,0-1.006-15.418.672-18.084s-.672-5.365-.672-5.365-2.374,1.317-4.08.927A17.958,17.958,0,0,0,533.61,719.422Z" transform="translate(-311.346 -420.78)"/><path class="i" d="M559.631,754.2s-3.352,5.7,4.359,6.366,11.059-3.352,11.059-3.352,1.006-1.674,0-4.693.334-8.379.334-8.379,1.006-6.366-1.34-5.026S559.631,754.2,559.631,754.2Z" transform="translate(-328.961 -433.667)"/><path class="j" d="M559.631,754.2s-3.352,5.7,4.359,6.366,11.059-3.352,11.059-3.352,1.006-1.674,0-4.693.334-8.379.334-8.379,1.006-6.366-1.34-5.026S559.631,754.2,559.631,754.2Z" transform="translate(-328.961 -433.667)"/><path class="i" d="M568.314,727.286s-4.02-1.674-5.026,1.674-.334,11.731-2.346,14.078-4.693,8.713,3.352,8.379,9.737-3.019,9.737-3.019-.334-8.379.672-10.725,0-6.028,0-6.028S575.015,726.929,568.314,727.286Z" transform="translate(-328.926 -427.198)"/><circle class="h" cx="0.672" cy="0.672" r="0.672" transform="translate(188.438 19.548)"/><circle class="h" cx="0.672" cy="0.672" r="0.672" transform="translate(202.515 21.222)"/><path class="f" d="M484.561,109.311h-.334c0-.144.237-14.282-7.883-15.585a4.27,4.27,0,0,0-3.886,1.076c-3.352,3.325-1.966,12.714-1.952,12.807l-.329.051c-.06-.394-1.424-9.654,2.05-13.095a4.577,4.577,0,0,1,4.173-1.173C484.8,94.737,484.566,109.167,484.561,109.311Z" transform="translate(-281.206 -87.412)"/><path class="f" d="M703.88,150.366l-.3-.144c.051-.111,5.217-11.3-1.609-15.2l.167-.292C709.227,138.783,703.936,150.25,703.88,150.366Z" transform="translate(-405.688 -109.627)"/><path class="l" d="M561.183,294.465l-8.713,2.346s-14.411,2.012-8.713-3.71c1.971-1.971,2.94-5.351,3.362-8.921,2.277,3.57,5.017,2.555,5.017,2.555l8.309-.162h.032A22.315,22.315,0,0,0,561.183,294.465Z" transform="translate(-320.121 -189.779)"/><path class="l" d="M614.152,297.517a8.815,8.815,0,0,1-1.79,1.034l-2.012-16.09,1.855-4.674.464-.357C616.856,278.622,614.695,294.035,614.152,297.517Z" transform="translate(-356.551 -186.159)"/><path class="l" d="M510.231,261.54V265.9L502.858,285l-2.012-2.012a3.386,3.386,0,0,1-.306-.38C501.412,272.65,510.231,261.54,510.231,261.54Z" transform="translate(-297.658 -177.637)"/><path class="l" d="M557.112,433.793c-4.688,1.173-29.161,6.923-36.423,1.479a16.547,16.547,0,0,0-9.4-3.06,21.135,21.135,0,0,1,1.02-2.972l36.015,1.674,2.124.1,5.1.236Q556.384,432.514,557.112,433.793Z" transform="translate(-303.424 -267.576)"/><path class="k" d="M474.1,90.59s5.026,8.379,8.379,0" transform="translate(-283.478 -85.954)"/><path class="k" d="M696.831,127.81s-2.012,10.057,6.028,5.365" transform="translate(-402.812 -105.915)"/><g class="n" transform="translate(208.669 161.678)"><path d="M550.989,525.805c-.162-2.04-.283-3.315-.283-3.315-3.709,1.006-3.352,49.939-3.352,49.939v31.841a11.657,11.657,0,0,1-6.654,3.093c2.42.213,5.3-.464,8.346-3.093V572.429S548.787,536.971,550.989,525.805Z" transform="translate(-527.865 -479.265)"/><path d="M560.692,439.68c-.283-.714-.584-1.433-.927-2.147-.566-1.243-1.2-2.49-1.906-3.709-.464-.853-1.011-1.7-1.567-2.546l-5.1-.236-2.124-.1-36.015-1.674-.032.074,34.373,1.6,2.124.1,5.1.236c.556.839,1.08,1.692,1.567,2.546.7,1.238,1.34,2.485,1.906,3.71.325.714.631,1.433.927,2.147,6.853,17.3,1.651,34.151,1.651,34.151l-1.975,13.846a100.119,100.119,0,0,1-3.645,15.5c-1.419,4.567-.413,10.2-.413,10.2s1.34,21.45-1.006,26.815-2.012,13.071-2.012,13.071a9.738,9.738,0,0,1-4.2,1.159,10.665,10.665,0,0,0,5.875-1.159s-.334-7.711,2.012-13.071,1.006-26.815,1.006-26.815-1.006-5.638.413-10.2a100.11,100.11,0,0,0,3.645-15.5l1.975-13.846S567.545,456.966,560.692,439.68Z" transform="translate(-513.02 -429.27)"/></g><path class="o" d="M531.365,275.144c4.637,2.184,15.487-6.2,15.487-6.2,4.693,1.34,1.34,20.782,1.34,20.782l-.181.807c-1.02,4.586-1.637,9.246-2.207,13.911-.431,3.519-3.645,6.737-3.645,6.737-5.7,10.725,3.352,31.841,3.352,31.841s-29.161,7.711-37.2,1.674-20.11-1.34-20.11-1.34c5.7-5.026,6.028-36.2,6.028-36.2V283.04c.672-10.057,9.737-21.45,9.737-21.45a16.843,16.843,0,0,0,14.017,11.078c2.286,3.709,5.1,2.666,5.1,2.666Z" transform="translate(-291.04 -177.663)"/><path class="l" d="M542.85,202.343a8.221,8.221,0,0,0-3.492,0c-3.645,1.006-4.79,5.6-7.6,8.124-1.011.927-2.258,1.549-3.176,2.555-1.632,1.79-1.961,4.442-1.614,6.839s1.275,4.669,1.855,7.02a24.292,24.292,0,0,1,.645,7.2,4.233,4.233,0,0,1-.621,2.277c-.672.927-1.91,1.219-2.782,1.961-2.662,2.291-.464,7.043-2.416,9.969-.839,1.266-2.411,2.1-2.731,3.584a4.905,4.905,0,0,0,.728,3.084c1.243,2.55,2.532,5.17,4.637,7.071s4.706,2.856,7.294,3.825c.784.292,1.767.547,2.365-.032.737-.723.181-1.948-.329-2.842a6.042,6.042,0,0,1-.964-4.637c.473-1.567,1.989-2.606,3.009-3.914,2.629-3.385,1.767-8.244.464-12.325-.552-1.72-1.173-3.552-.7-5.3.2-.751.594-1.433.844-2.17,1.113-3.283-.756-6.886-.209-10.308a14.8,14.8,0,0,1,1.391-3.835l2.944-6.329a6.255,6.255,0,0,1,1.3-2.049,4.637,4.637,0,0,1,3.246-1.011,8.81,8.81,0,0,1,6.32,2.879c3.153,3.505,2.954,8.81,2.573,13.484l-.274,3.376c-.2,2.43-.464,5.022-1.994,6.914-1.192,1.465-3.116,2.462-3.608,4.289-.427,1.572.376,3.278-.046,4.85-.631,2.351-3.533,3.2-5.068,5.1a5.216,5.216,0,0,0-.38,5.866c.584.927,1.516,1.855,1.391,2.944-.107.876-.895,1.586-.89,2.467a1.961,1.961,0,0,0,1.424,1.7,5.75,5.75,0,0,0,2.351.111l8.314-.751a2.926,2.926,0,0,0,1.479-.408,2.6,2.6,0,0,0,.849-1.9c.334-2.958-.464-6.19,1.015-8.778.464-.83,1.145-1.521,1.66-2.318,2.838-4.451-.023-10.489,1.521-15.538.733-2.4,2.439-4.456,2.893-6.918.6-3.283-1.108-6.492-1.771-9.737-.682-3.352-.315-7.043-2.105-9.96a10.244,10.244,0,0,0-6.348-4.247c-2.318-.584-4.637-.376-6.955-.626C547.065,203.646,545.006,202.691,542.85,202.343Z" transform="translate(-308.553 -145.788)"/><path class="g" d="M542.85,200.893a8.221,8.221,0,0,0-3.492,0c-3.645,1.006-4.79,5.6-7.6,8.124-1.011.927-2.258,1.549-3.176,2.555-1.632,1.79-1.961,4.442-1.614,6.839s1.275,4.669,1.855,7.02a24.292,24.292,0,0,1,.645,7.2,4.233,4.233,0,0,1-.621,2.277c-.672.927-1.91,1.22-2.782,1.961-2.662,2.291-.464,7.043-2.416,9.969-.839,1.266-2.411,2.1-2.731,3.584a4.905,4.905,0,0,0,.728,3.084c1.243,2.55,2.532,5.17,4.637,7.071s4.706,2.856,7.294,3.825c.784.292,1.767.547,2.365-.032.737-.723.181-1.947-.329-2.842a6.042,6.042,0,0,1-.964-4.637c.473-1.567,1.989-2.606,3.009-3.914,2.629-3.385,1.767-8.244.464-12.325-.552-1.72-1.173-3.552-.7-5.3.2-.751.594-1.433.844-2.17,1.113-3.283-.756-6.886-.209-10.308a14.8,14.8,0,0,1,1.391-3.835l2.944-6.329a6.256,6.256,0,0,1,1.3-2.049,4.637,4.637,0,0,1,3.246-1.011,8.81,8.81,0,0,1,6.32,2.88c3.153,3.505,2.954,8.81,2.573,13.484l-.274,3.376c-.2,2.43-.464,5.022-1.994,6.914-1.192,1.465-3.116,2.462-3.608,4.289-.427,1.572.376,3.278-.046,4.85-.631,2.351-3.533,3.2-5.068,5.1a5.216,5.216,0,0,0-.38,5.866c.584.927,1.516,1.855,1.391,2.944-.107.876-.895,1.586-.89,2.467a1.961,1.961,0,0,0,1.424,1.7,5.75,5.75,0,0,0,2.351.111l8.314-.751a2.926,2.926,0,0,0,1.479-.408,2.6,2.6,0,0,0,.849-1.9c.334-2.958-.464-6.19,1.015-8.778.464-.83,1.145-1.521,1.66-2.318,2.838-4.451-.023-10.489,1.521-15.538.733-2.4,2.439-4.456,2.893-6.918.6-3.283-1.108-6.492-1.771-9.737-.682-3.352-.315-7.043-2.105-9.96a10.244,10.244,0,0,0-6.348-4.247c-2.318-.584-4.637-.376-6.955-.626C547.065,202.2,545.006,201.246,542.85,200.893Z" transform="translate(-308.553 -145.01)"/><path class="l" d="M529.75,364s6.7,2.012,16.424-2.346H551.2s.334,4.693,13.405,2.68" transform="translate(-313.324 -231.327)"/><ellipse class="a" cx="249" cy="22.721" rx="249" ry="22.721" transform="translate(0 297.181)"/><rect class="a" width="37.095" height="13.911" rx="5.17" transform="translate(116.849 119.589)"/><rect class="a" width="37.095" height="13.911" rx="5.17" transform="translate(133.542 134.891)"/><rect class="a" width="37.095" height="13.911" rx="5.17" transform="translate(279.603 120.516)"/><rect class="a" width="37.095" height="13.911" rx="5.17" transform="translate(296.296 135.818)"/><rect class="a" width="37.095" height="13.911" rx="5.17" transform="translate(105.257 150.192)"/><rect class="a" width="37.095" height="13.911" rx="5.17" transform="translate(142.352 204.444)"/><rect class="a" width="37.095" height="13.911" rx="5.17" transform="translate(159.045 219.745)"/><rect class="a" width="37.095" height="13.911" rx="5.17" transform="translate(130.76 235.047)"/><rect class="a" width="37.095" height="13.911" rx="5.17" transform="translate(291.659 243.393)"/><rect class="a" width="37.095" height="13.911" rx="5.17" transform="translate(263.374 258.695)"/><g class="n" transform="translate(417.445 179.165)"><path class="p" d="M1006.375,621.761s-6.714-34.016,7.113-57.33a52.536,52.536,0,0,0,7.247-32.43,88.35,88.35,0,0,0-3.246-15.83" transform="translate(-985.515 -493.363)"/><path class="c" d="M1033.825,475.046c-.371,4.057-8.81,15.153-8.81,15.153s-6.269-12.445-5.893-16.507a7.381,7.381,0,1,1,14.7,1.349Z" transform="translate(-993.216 -466.984)"/><path class="c" d="M1054.526,521.168c-2.518,3.2-15.626,7.938-15.626,7.938s1.5-13.855,4.02-17.059a7.382,7.382,0,1,1,11.592,9.121Z" transform="translate(-1003.833 -489.505)"/><path class="c" d="M1043.6,601.517c-3.793,1.493-17.495-1.039-17.495-1.039s8.291-11.2,12.084-12.7a7.381,7.381,0,1,1,5.411,13.735Z" transform="translate(-996.973 -531.493)"/><path class="c" d="M1022.961,663.312c-3.487,2.114-17.421,1.934-17.421,1.934s6.278-12.441,9.765-14.555a7.381,7.381,0,1,1,7.656,12.622Z" transform="translate(-985.941 -564.933)"/><path class="c" d="M1003.406,536.908c2.652,3.1,15.946,7.271,15.946,7.271s-2.087-13.781-4.734-16.874a7.382,7.382,0,1,0-11.213,9.6Z" transform="translate(-983.844 -497.951)"/><path class="c" d="M978.1,607.041c3.454,2.161,17.393,2.165,17.393,2.165s-6.111-12.52-9.571-14.685a7.382,7.382,0,1,0-7.823,12.52Z" transform="translate(-969.365 -534.782)"/><path class="c" d="M965.928,680.613c3.042,2.713,16.776,5.077,16.776,5.077s-3.909-13.377-6.955-16.09a7.382,7.382,0,1,0-9.821,11.013Z" transform="translate(-963.273 -574.556)"/></g><g class="n" transform="translate(368.979 231.38)"><path class="p" d="M881.618,662.21s-3.6-18.265,3.816-30.784a28.21,28.21,0,0,0,3.89-17.416,47.447,47.447,0,0,0-1.734-8.5" transform="translate(-870.545 -593.492)"/><path class="c" d="M896.357,583.69c-.2,2.179-4.73,8.138-4.73,8.138s-3.366-6.682-3.167-8.861a3.965,3.965,0,0,1,7.883.723Z" transform="translate(-874.679 -579.591)"/><path class="c" d="M907.463,608.451c-1.354,1.72-8.393,4.261-8.393,4.261s.807-7.419,2.161-9.158a3.965,3.965,0,0,1,6.232,4.9Z" transform="translate(-880.374 -591.68)"/><path class="c" d="M901.6,651.4c-2.036.8-9.394-.556-9.394-.556s4.451-6.028,6.492-6.816a3.965,3.965,0,0,1,2.907,7.373Z" transform="translate(-876.695 -614.025)"/><path class="c" d="M890.523,684.438c-1.855,1.136-9.353,1.039-9.353,1.039s3.371-6.682,5.244-7.818a3.965,3.965,0,1,1,4.108,6.779Z" transform="translate(-870.774 -631.851)"/><path class="c" d="M880.013,616.651c1.424,1.665,8.564,3.9,8.564,3.9s-1.117-7.419-2.541-9.06a3.966,3.966,0,1,0-6.028,5.156Z" transform="translate(-869.641 -595.957)"/><path class="c" d="M866.433,654.3c1.855,1.159,9.339,1.164,9.339,1.164s-3.283-6.724-5.138-7.883a3.964,3.964,0,1,0-4.2,6.724Z" transform="translate(-861.871 -615.732)"/><path class="c" d="M860.053,693.908c1.632,1.456,9.009,2.727,9.009,2.727s-2.1-7.182-3.709-8.638a3.964,3.964,0,1,0-5.277,5.917Z" transform="translate(-858.75 -637.191)"/></g><g class="n" transform="translate(75.465 234.162)"><path class="p" d="M248.618,668.21s-3.6-18.265,3.816-30.784a28.211,28.211,0,0,0,3.89-17.416,47.446,47.446,0,0,0-1.734-8.5" transform="translate(-237.545 -599.492)"/><path class="c" d="M263.357,589.69c-.2,2.179-4.73,8.138-4.73,8.138s-3.366-6.682-3.167-8.861a3.965,3.965,0,0,1,7.883.723Z" transform="translate(-241.679 -585.592)"/><path class="c" d="M274.463,614.451c-1.354,1.72-8.393,4.261-8.393,4.261s.807-7.419,2.161-9.158a3.965,3.965,0,0,1,6.232,4.9Z" transform="translate(-247.374 -597.68)"/><path class="c" d="M268.6,657.4c-2.036.8-9.394-.556-9.394-.556s4.451-6.028,6.492-6.816a3.965,3.965,0,0,1,2.907,7.373Z" transform="translate(-243.695 -620.025)"/><path class="c" d="M257.523,690.437c-1.855,1.136-9.353,1.039-9.353,1.039s3.371-6.682,5.244-7.818a3.965,3.965,0,1,1,4.108,6.779Z" transform="translate(-237.774 -637.851)"/><path class="c" d="M247.013,622.651c1.424,1.665,8.564,3.9,8.564,3.9s-1.117-7.419-2.541-9.06a3.966,3.966,0,1,0-6.028,5.156Z" transform="translate(-236.64 -601.957)"/><path class="c" d="M233.433,660.3c1.855,1.159,9.339,1.164,9.339,1.164s-3.283-6.723-5.138-7.883a3.964,3.964,0,1,0-4.2,6.724Z" transform="translate(-228.871 -621.732)"/><path class="c" d="M227.053,699.908c1.632,1.456,9.009,2.727,9.009,2.727s-2.1-7.183-3.71-8.638a3.964,3.964,0,1,0-5.277,5.917Z" transform="translate(-225.75 -643.191)"/></g></g></svg>