<svg xmlns="http://www.w3.org/2000/svg" width="409.846" height="311.229" viewBox="0 0 409.846 311.229"><defs><style>.a,.d{fill:#f07663;}.a,.b,.e{opacity:0.1;}.c{fill:#3f3d56;}.f{fill:#192534;}.g{fill:#fbbebe;}.h{fill:#f2f2f2;}.i{fill:#01e7c0;}.j{fill:#be000f;}.k{fill:#55acee;}.l{fill:#3b5998;}.m{fill:#dd4b39;}.n{fill:#e53c5f;}.o{fill:#007bb6;}.p{fill:#464a5f;}.q{fill:#9c9ca1;}.r{fill:#939498;}</style></defs><g transform="translate(0.09)"><path class="a" d="M901.168,675.336,859.232,602.7a1.334,1.334,0,0,0-2.317,0l-41.936,72.636a1.334,1.334,0,0,0,1.156,2.022h12.51a1.342,1.342,0,0,1,1.338,1.338V694.2a1.338,1.338,0,0,0,1.334,1.338h16.306a1.338,1.338,0,0,0,1.338-1.338v-7.5a1.334,1.334,0,0,1,1.334-1.334h15.522a1.338,1.338,0,0,1,1.338,1.334v7.5a1.338,1.338,0,0,0,1.338,1.338h16.326a1.338,1.338,0,0,0,1.338-1.338V678.68a1.338,1.338,0,0,1,1.338-1.338h12.51a1.338,1.338,0,0,0,1.16-2.005ZM842.7,683.374a1.334,1.334,0,0,1-.946.4h-5.887a1.338,1.338,0,1,1,0-2.677h5.887a1.338,1.338,0,0,1,.946,2.284Zm38.523,0a1.334,1.334,0,0,1-.946.4h-5.883a1.338,1.338,0,0,1,0-2.677h5.883a1.338,1.338,0,0,1,.946,2.284Z" transform="translate(-523.094 -384.946)"/><path class="a" d="M268.776,676.922,226.84,604.286a1.338,1.338,0,0,0-2.317,0L188.3,667.024a110.651,110.651,0,0,0,15.174,15.651h5.887a1.338,1.338,0,0,1,0,2.677H206.87a64.8,64.8,0,0,0,9.7,6.036V688.3a1.338,1.338,0,0,1,1.338-1.338h15.55A1.338,1.338,0,0,1,234.8,688.3v7.488a1.3,1.3,0,0,0,.125.562,1.338,1.338,0,0,0,1.213.776h16.322a1.31,1.31,0,0,0,1.063-.538,1.285,1.285,0,0,0,.271-.809V680.269a1.338,1.338,0,0,1,1.338-1.338h12.51a1.338,1.338,0,0,0,1.136-2.009Zm-27.72,6.146a1.334,1.334,0,0,1,.946-.4h5.887a1.338,1.338,0,1,1,0,2.677H242a1.338,1.338,0,0,1-.946-2.284Zm-26.341-26.879a1.338,1.338,0,0,1-1.338-1.338V644.685a1.338,1.338,0,0,1,1.338-1.338h21.938a1.338,1.338,0,0,1,1.334,1.338V654.85a1.338,1.338,0,0,1-1.334,1.338Z" transform="translate(-149.907 -385.893)"/><path class="a" d="M556.5,421.6H504.622V410.38a2.685,2.685,0,0,0-2.685-2.685H486.686V395.74a1.69,1.69,0,0,0-1.69-1.69h-19.63a1.69,1.69,0,0,0-1.69,1.69V407.7H445.761a2.685,2.685,0,0,0-2.685,2.685V421.6H393.592a.546.546,0,0,0-.542.546v149a.546.546,0,0,0,.542.546h32.887a.546.546,0,0,0,.546-.546V551.1a.55.55,0,0,1,.546-.546h13.892a.55.55,0,0,1,.546.546V571.15a.546.546,0,0,0,.542.546h64.994a.55.55,0,0,0,.546-.546V551.1a.546.546,0,0,1,.542-.546h13.892a.546.546,0,0,1,.546.546V571.15a.55.55,0,0,0,.546.546H556.5a.55.55,0,0,0,.546-.546v-149A.55.55,0,0,0,556.5,421.6ZM421.138,543.6a.542.542,0,0,1-.542.542H400.283a.542.542,0,0,1-.546-.542v-6.938a.546.546,0,0,1,.546-.546H420.6a.546.546,0,0,1,.542.546Zm0-17.927a.542.542,0,0,1-.542.546H400.283a.542.542,0,0,1-.546-.546v-6.934a.542.542,0,0,1,.546-.546H420.6a.542.542,0,0,1,.542.546Zm0-17.923a.546.546,0,0,1-.542.546H400.283a.546.546,0,0,1-.546-.546v-6.938a.546.546,0,0,1,.546-.546H420.6a.546.546,0,0,1,.542.546Zm0-17.928a.542.542,0,0,1-.542.546H400.283a.542.542,0,0,1-.546-.546v-6.934a.542.542,0,0,1,.546-.546H420.6a.542.542,0,0,1,.542.546Zm0-17.923a.546.546,0,0,1-.542.546H400.283a.546.546,0,0,1-.546-.546v-6.938a.542.542,0,0,1,.546-.542H420.6a.542.542,0,0,1,.542.542Zm0-17.923a.542.542,0,0,1-.542.542H400.283a.542.542,0,0,1-.546-.542v-6.938a.546.546,0,0,1,.546-.546H420.6a.546.546,0,0,1,.542.546Zm0-17.928a.542.542,0,0,1-.542.546H400.283a.542.542,0,0,1-.546-.546v-6.934a.542.542,0,0,1,.546-.546H420.6a.542.542,0,0,1,.542.546ZM469.3,543.591a.542.542,0,0,1-.546.542H448.421a.546.546,0,0,1-.546-.542v-6.934a.55.55,0,0,1,.546-.546h20.313a.546.546,0,0,1,.546.546Zm0-17.928a.542.542,0,0,1-.546.546H448.421a.546.546,0,0,1-.546-.546v-6.93a.546.546,0,0,1,.546-.546h20.313a.542.542,0,0,1,.546.546Zm0-17.923a.546.546,0,0,1-.546.546H448.421a.55.55,0,0,1-.546-.546v-6.934a.55.55,0,0,1,.546-.546h20.313a.546.546,0,0,1,.546.546Zm0-17.928a.542.542,0,0,1-.546.546H448.421a.546.546,0,0,1-.546-.546v-6.93a.546.546,0,0,1,.546-.546h20.313a.542.542,0,0,1,.546.546Zm0-17.923a.546.546,0,0,1-.546.546H448.421a.55.55,0,0,1-.546-.546v-6.934a.546.546,0,0,1,.546-.542h20.313a.542.542,0,0,1,.546.542Zm0-17.923a.542.542,0,0,1-.546.542H448.421a.546.546,0,0,1-.546-.542v-6.934a.55.55,0,0,1,.546-.546h20.313a.546.546,0,0,1,.546.546Zm0-17.928a.542.542,0,0,1-.546.546H448.421a.546.546,0,0,1-.546-.546v-6.93a.546.546,0,0,1,.546-.546h20.313a.542.542,0,0,1,.546.546ZM502.2,543.587a.542.542,0,0,1-.546.542H481.345a.546.546,0,0,1-.546-.542v-6.93a.55.55,0,0,1,.546-.546h20.313a.546.546,0,0,1,.546.546Zm0-17.928a.542.542,0,0,1-.546.546H481.345a.546.546,0,0,1-.546-.546v-6.926a.546.546,0,0,1,.546-.546h20.313a.542.542,0,0,1,.546.546Zm0-17.923a.546.546,0,0,1-.546.546H481.345a.55.55,0,0,1-.546-.546v-6.93a.55.55,0,0,1,.546-.546h20.313a.546.546,0,0,1,.546.546Zm0-17.928a.542.542,0,0,1-.546.546H481.345a.546.546,0,0,1-.546-.546v-6.926a.546.546,0,0,1,.546-.546h20.313a.542.542,0,0,1,.546.546Zm0-17.923a.546.546,0,0,1-.546.546H481.345a.55.55,0,0,1-.546-.546v-6.93a.546.546,0,0,1,.546-.542h20.313a.542.542,0,0,1,.546.542Zm0-17.923a.542.542,0,0,1-.546.542H481.345a.546.546,0,0,1-.546-.542v-6.93a.55.55,0,0,1,.546-.546h20.313a.546.546,0,0,1,.546.546Zm0-17.927a.542.542,0,0,1-.546.546H481.345a.546.546,0,0,1-.546-.546v-6.926a.546.546,0,0,1,.546-.546h20.313a.542.542,0,0,1,.546.546Zm48.158,107.549a.546.546,0,0,1-.546.542H529.5a.542.542,0,0,1-.546-.542v-6.926a.546.546,0,0,1,.546-.546h20.313a.55.55,0,0,1,.546.546Zm0-17.927a.546.546,0,0,1-.546.546H529.5a.542.542,0,0,1-.546-.546v-6.922a.542.542,0,0,1,.546-.546h20.313a.546.546,0,0,1,.546.546Zm0-17.923a.55.55,0,0,1-.546.546H529.5a.546.546,0,0,1-.546-.546v-6.926a.546.546,0,0,1,.546-.546h20.313a.55.55,0,0,1,.546.546Zm0-17.928a.546.546,0,0,1-.546.546H529.5a.542.542,0,0,1-.546-.546v-6.922a.542.542,0,0,1,.546-.546h20.313a.546.546,0,0,1,.546.546Zm0-17.923a.55.55,0,0,1-.546.546H529.5a.546.546,0,0,1-.546-.546v-6.926a.542.542,0,0,1,.546-.542h20.313a.546.546,0,0,1,.546.542Zm0-17.923a.546.546,0,0,1-.546.542H529.5a.542.542,0,0,1-.546-.542v-6.926a.546.546,0,0,1,.546-.546h20.313a.55.55,0,0,1,.546.546Zm0-17.928a.546.546,0,0,1-.546.546H529.5a.542.542,0,0,1-.546-.546v-6.922a.542.542,0,0,1,.546-.546h20.313a.546.546,0,0,1,.546.546Z" transform="translate(-271.873 -261.057)"/><g class="b" transform="translate(-0.09 113.577)"><path class="c" d="M164.7,682.926a9.885,9.885,0,0,1-1.306,5.005,10.245,10.245,0,0,1,0,10.011,9.2,9.2,0,0,1,.987,2.426,183.61,183.61,0,0,1-12.166-18.194h0a9.7,9.7,0,0,1,1.278-4.27,9.886,9.886,0,0,1-1.306-4.973,10.3,10.3,0,0,1,.59-3.481,8.647,8.647,0,0,1,.716-1.524,5.44,5.44,0,0,1,9.9,0,9.007,9.007,0,0,1,.7,1.476,10.363,10.363,0,0,1,.606,3.53,9.886,9.886,0,0,1-1.306,5.006A9.885,9.885,0,0,1,164.7,682.926Z" transform="translate(-128.306 -535.879)"/><ellipse class="c" cx="6.255" cy="8.192" rx="6.255" ry="8.192" transform="translate(23.883 118.834)"/><ellipse class="c" cx="6.255" cy="8.192" rx="6.255" ry="8.192" transform="translate(23.883 108.823)"/><path class="d" d="M153.1,413.066a29.831,29.831,0,0,1-6.417,18.53,29.972,29.972,0,0,1-17.79,47.94c-.72.146-1.452.259-2.191.348a30.281,30.281,0,0,1-6.873.036q-1.14-.121-2.252-.336a29.638,29.638,0,0,1-9.3-3.4A298.6,298.6,0,0,1,94.159,442.29,29.835,29.835,0,0,1,99.532,431.6,30,30,0,0,1,94.7,403.451l22.755,7.638L96.116,400a30.092,30.092,0,0,1,3.453-5.466A29.972,29.972,0,1,1,149.07,361l-22,16.173L150.925,364.8a30.009,30.009,0,0,1-.574,23.746l-17.79-.133,16.44,2.7a30.09,30.09,0,0,1-2.333,3.429A29.839,29.839,0,0,1,153.1,413.066Z" transform="translate(-93.12 -346.029)"/><path class="e" d="M153.126,548.239a29.979,29.979,0,0,1-24.182,29.409c-.725.146-1.456.26-2.2.349a30.279,30.279,0,0,1-6.873.036q-1.14-.121-2.252-.336a29.638,29.638,0,0,1-9.3-3.4A298.6,298.6,0,0,1,94.209,540.4a29.835,29.835,0,0,1,5.373-10.694,29.851,29.851,0,0,1-6.413-18.53c0-3.364,57.543,13.431,53.524,18.53A29.831,29.831,0,0,1,153.126,548.239Z" transform="translate(-93.15 -444.143)"/></g><g class="b" transform="translate(369.05 145.749)"><path class="c" d="M1069.435,690.44c-1.173,3.744-2.426,7.46-3.712,11.09a10.385,10.385,0,0,1-.534-3.319C1065.19,694.6,1066.969,691.532,1069.435,690.44Z" transform="translate(-1041.303 -583.36)"/><path class="d" d="M1046.818,468.163c0,7.1-1.431,18.308-4.043,31.133a342.294,342.294,0,0,1-8.551,33.385c-1.172,3.744-2.426,7.46-3.712,11.091-1.476,4.12-3.032,8.131-4.662,11.968a30.081,30.081,0,0,1-13.306-46.8,30.122,30.122,0,0,1-4.852-28.209l22.755,7.654-21.34-11.111a30.19,30.19,0,0,1,3.417-5.479A30.077,30.077,0,0,1,1024.3,425.6a51.571,51.571,0,0,1,19.71,25.848l-3.982,2.931,4.229-2.2a51.356,51.356,0,0,1,2.462,13.472h-1.189l1.213.2C1046.8,466.6,1046.818,467.407,1046.818,468.163Z" transform="translate(-1006.111 -425.6)"/><path class="e" d="M1042.853,594.053a342.333,342.333,0,0,1-8.551,33.385c-1.173,3.744-2.426,7.46-3.712,11.09-1.476,4.12-3.032,8.131-4.662,11.968a30.081,30.081,0,0,1-13.306-46.8,29.968,29.968,0,0,1-6.412-18.574C1006.21,583.084,1027.121,588.4,1042.853,594.053Z" transform="translate(-1006.17 -520.358)"/></g><path class="a" d="M365.136,165.376a11.685,11.685,0,0,0-6.768.74,9.991,9.991,0,0,1-8.143,0,11.426,11.426,0,0,0-9.574.186,5.919,5.919,0,0,1-2.757.691c-3.881,0-7.112-3.91-7.783-9.069a7.512,7.512,0,0,0,1.941-2.094c2.276-3.667,5.8-6.02,9.76-6.02s7.439,2.325,9.7,5.956a7.492,7.492,0,0,0,6.449,3.522h.1C361.158,159.287,363.834,161.766,365.136,165.376Z" transform="translate(-234.381 -115.568)"/><path class="a" d="M376.919,127.953l-6.275,3.983,3.8-6.918a6.226,6.226,0,0,0-3.8-1.354h-.1a7.342,7.342,0,0,1-1.3-.093l-2.127,1.346.914-1.658a7.552,7.552,0,0,1-3.72-2.83l-3.809,2.426,2.406-4.371a11.147,11.147,0,0,0-8.527-4.314c-3.958,0-7.484,2.357-9.76,6.024a7.278,7.278,0,0,1-6.469,3.477h-.214c-4.371,0-7.913,4.957-7.913,11.066s3.542,11.066,7.913,11.066a5.952,5.952,0,0,0,2.757-.687,11.41,11.41,0,0,1,9.574-.19,9.991,9.991,0,0,0,8.143.02,11.438,11.438,0,0,1,9.493.182,5.923,5.923,0,0,0,2.725.675c4.371,0,7.913-4.953,7.913-11.066A14.055,14.055,0,0,0,376.919,127.953Z" transform="translate(-234.333 -94.338)"/><path class="a" d="M825.606,335.736a8.179,8.179,0,0,0-4.747.518,6.982,6.982,0,0,1-5.7,0,8.006,8.006,0,0,0-6.7.129,4.16,4.16,0,0,1-1.929.485c-2.717,0-4.977-2.741-5.446-6.352a5.231,5.231,0,0,0,1.359-1.464A7.641,7.641,0,0,1,816.072,329a5.256,5.256,0,0,0,4.512,2.483h.073C822.82,331.475,824.692,333.209,825.606,335.736Z" transform="translate(-514.928 -219.83)"/><path class="a" d="M833.876,309.523l-4.391,2.786,2.664-4.852a4.322,4.322,0,0,0-2.656-.95h-.069a4.53,4.53,0,0,1-.91-.069l-1.492.946.639-1.16a5.308,5.308,0,0,1-2.6-1.977l-2.664,1.69,1.682-3.061a7.8,7.8,0,0,0-5.968-3.016,8.161,8.161,0,0,0-6.833,4.213,5.115,5.115,0,0,1-4.516,2.426h-.15c-3.057,0-5.539,3.469-5.539,7.747s2.482,7.747,5.539,7.747a4.112,4.112,0,0,0,1.929-.485,8.006,8.006,0,0,1,6.7-.129,7.076,7.076,0,0,0,2.867.615,6.991,6.991,0,0,0,2.83-.6,8,8,0,0,1,6.643.129,4.141,4.141,0,0,0,1.908.473c3.061,0,5.539-3.469,5.539-7.747a9.846,9.846,0,0,0-1.152-4.722Z" transform="translate(-514.922 -204.95)"/><path class="a" d="M284.41,290.736a8.183,8.183,0,0,1,4.747.518,6.97,6.97,0,0,0,5.7,0,8.006,8.006,0,0,1,6.7.129,4.173,4.173,0,0,0,1.929.485c2.717,0,4.981-2.741,5.45-6.352a5.172,5.172,0,0,1-1.358-1.464A7.641,7.641,0,0,0,293.944,284a5.256,5.256,0,0,1-4.516,2.483h-.069C287.2,286.475,285.32,288.209,284.41,290.736Z" transform="translate(-207.158 -193.025)"/><path class="a" d="M262.261,264.523l4.395,2.786-2.668-4.852a4.33,4.33,0,0,1,2.656-.95h.093a4.553,4.553,0,0,0,.91-.069l1.488.946-.639-1.16a5.317,5.317,0,0,0,2.608-1.977l2.664,1.69-1.686-3.061a7.81,7.81,0,0,1,5.972-3.016,8.187,8.187,0,0,1,6.833,4.213A5.11,5.11,0,0,0,289.4,261.5h.146c3.061,0,5.539,3.469,5.539,7.747s-2.478,7.747-5.539,7.747a4.136,4.136,0,0,1-1.929-.485,8.006,8.006,0,0,0-6.7-.129,7.056,7.056,0,0,1-2.863.615,6.963,6.963,0,0,1-2.83-.6,8.01,8.01,0,0,0-6.647.129,4.128,4.128,0,0,1-1.908.473c-3.057,0-5.539-3.469-5.539-7.747A9.845,9.845,0,0,1,262.261,264.523Z" transform="translate(-193.289 -178.144)"/><path class="f" d="M342.368,389.455l88.72,42.858a22.077,22.077,0,0,0,16.884,0l88.72-42.858c4.67-2.256,4.67-5.927,0-8.179l-88.72-42.858a22.077,22.077,0,0,0-16.884,0l-88.72,42.858C337.714,383.528,337.714,387.2,342.368,389.455Z" transform="translate(-239.603 -226.919)"/><path class="f" d="M536.513,561.491s-16.2-7.811-18.352-8.863-2.725-.995-4.981.053-65.439,31.585-65.439,31.585a22.077,22.077,0,0,1-16.884,0s-61.509-29.677-64.392-31.092c-3.146-1.52-4.043-1.52-6.873-.158l-17.511,8.442c-4.67,2.256-4.67,5.923,0,8.179L430.8,612.5a22.077,22.077,0,0,0,16.884,0l88.72-42.858c4.775-2.2,4.775-5.871.105-8.127Z" transform="translate(-239.424 -355.066)"/><path class="f" d="M536.59,690.271s-16.2-7.811-18.352-8.863-2.725-.995-4.981.053-65.387,31.618-65.387,31.618a22.028,22.028,0,0,1-16.884,0s-61.509-29.677-64.392-31.092c-3.146-1.52-4.043-1.52-6.873-.158l-17.511,8.442c-4.67,2.256-4.67,5.927,0,8.179l88.72,42.858a19.605,19.605,0,0,0,8.442,1.678,20.412,20.412,0,0,0,8.442-1.678l88.724-42.858C541.26,696.2,541.26,692.527,536.59,690.271Z" transform="translate(-239.502 -431.778)"/><ellipse class="f" cx="19.262" cy="26.754" rx="19.262" ry="26.754" transform="translate(126.818 58.881)"/><rect class="d" width="17.123" height="17.123" transform="translate(143.94 129.512)"/><path class="g" d="M414.925,579.439l5.624,7.909a10.245,10.245,0,0,1,4.063-8.192,50.076,50.076,0,0,0-7.961-6.384.639.639,0,0,0-.461-.154.667.667,0,0,0-.344.255,10.878,10.878,0,0,0-2.26,3.57C413.243,577.623,414.238,578.5,414.925,579.439Z" transform="translate(-284.064 -367.426)"/><path class="h" d="M434.035,586.82a4.992,4.992,0,0,1,2.426.837,12.441,12.441,0,0,1,2.794,1.832,4.238,4.238,0,0,1,1.431,2.931,7.4,7.4,0,0,1-.7,2.6,22.439,22.439,0,0,0-1.043,12.291,8.221,8.221,0,0,1,.235,4.043,6.6,6.6,0,0,1-2.313,2.867,10.767,10.767,0,0,1-5.179,2.77c-1.969.267-4.245-.809-4.682-2.725a7.542,7.542,0,0,1,.433-3.441,33.268,33.268,0,0,0,.639-8.317,11.475,11.475,0,0,0-.21-2.527c-.133-.582-.36-1.14-.55-1.71a7.109,7.109,0,0,1-.15-4.751,9.461,9.461,0,0,1,1.314-2.159C429.859,589.517,431.343,586.808,434.035,586.82Z" transform="translate(-291.991 -375.887)"/><path class="g" d="M429.867,285.045a4.32,4.32,0,0,1-2.252,4.807l-2.4,1.735c-.121.085-.255.194-.267.34a.509.509,0,0,0,.259.4,7.953,7.953,0,0,0,3.328,1.516,15.769,15.769,0,0,0,2.584.218c4.5.133,9.069.234,13.407-.946a6.875,6.875,0,0,0,2.216-.942,2.83,2.83,0,0,0,1.245-1.985,6.146,6.146,0,0,1-3-1.338,4.685,4.685,0,0,1-2.139-2.353c-.182-.651-.077-1.354-.226-2.022a4.062,4.062,0,0,0-2.111-2.426c-2.483-1.407-5.414-1.492-8.119-2.228-.97-.263-2.7-1.427-2.77.146C429.555,281.641,429.786,283.379,429.867,285.045Z" transform="translate(-290.875 -192.622)"/><path class="e" d="M429.867,285.045a4.32,4.32,0,0,1-2.252,4.807l-2.4,1.735c-.121.085-.255.194-.267.34a.509.509,0,0,0,.259.4,7.953,7.953,0,0,0,3.328,1.516,15.769,15.769,0,0,0,2.584.218c4.5.133,9.069.234,13.407-.946a6.875,6.875,0,0,0,2.216-.942,2.83,2.83,0,0,0,1.245-1.985,6.146,6.146,0,0,1-3-1.338,4.685,4.685,0,0,1-2.139-2.353c-.182-.651-.077-1.354-.226-2.022a4.062,4.062,0,0,0-2.111-2.426c-2.483-1.407-5.414-1.492-8.119-2.228-.97-.263-2.7-1.427-2.77.146C429.555,281.641,429.786,283.379,429.867,285.045Z" transform="translate(-290.875 -192.622)"/><path class="i" d="M378.708,377.255c-3.493-.857-7.169.4-10.334,2.09s-6.093,3.894-9.457,5.167c-2.7,1.023-5.7,1.476-7.969,3.259a13,13,0,0,0-3.942,6.55,10.416,10.416,0,0,0-.558,4.326,11.725,11.725,0,0,0,1.063,3.235,143.063,143.063,0,0,0,8.26,14.96c5.3,8.737,10.642,17.539,17.507,25.112,2.191-1.5,1.977-5.127,4.148-6.655a11.746,11.746,0,0,0,1.67-1.088c1.027-1.063.627-2.8.142-4.2a210.045,210.045,0,0,0-10.678-25.343c5.907.04,10.86-4.577,16.678-5.612a30.69,30.69,0,0,1,4.876-.323,165.436,165.436,0,0,0,17.208-1.213c2.07-.259,4.266-.611,5.822-2,1.617-1.447,2.191-3.7,2.681-5.818,1.027-4.4,3.6-8.268,5.187-12.5.4-1.092.809-2.187,1.306-3.235.437-.9.954-1.755,1.415-2.64a38.09,38.09,0,0,0,2.988-9.032c.849-3.72,1.617-7.52,2.4-11.256.526-2.571,1.549-5.361.328-7.682a6.939,6.939,0,0,0-3.348-2.83,8.222,8.222,0,0,0-4.621-.841c-3.089.489-5.171,3.319-6.906,5.915l-2.709,4.08a28.818,28.818,0,0,0-1.787,2.923,58.073,58.073,0,0,0-2.353,6.287c-2.107,5.636-6.065,10.727-11.442,13.411-1.431.716-2.943,1.253-4.383,1.945-1.128.542-2.212,1.177-3.352,1.694A14.992,14.992,0,0,1,378.708,377.255Z" transform="translate(-244.091 -228.632)"/><circle class="g" cx="10.702" cy="10.702" r="10.702" transform="translate(137.52 71.722)"/><path class="d" d="M423.562,299.07a11.06,11.06,0,0,1-1.783,3.457c-1.528,1.763-4,2.39-6.332,2.483a18.715,18.715,0,0,1-7.6-1.29,7.074,7.074,0,0,0-3.194-.809c-1.6.142-2.782,1.484-4.189,2.256a21.017,21.017,0,0,1-2.216.954,12.315,12.315,0,0,0-7.1,8.952c-.809,4.561,2.863,8.9,5.086,12.962a26.707,26.707,0,0,1,2.652,5.474c.91,3.291.032,6.8-1.12,10.011s-2.592,6.392-2.83,9.8c-.073,1,.275,2.345,1.278,2.333a2.2,2.2,0,0,0,1.023-.4,9.1,9.1,0,0,1,5.911-1.088c1.419.23,2.77.809,4.189,1.007,2.79.4,5.572-.574,8.212-1.544,2.519-.926,5.139-1.921,6.934-3.918,1.346-1.5,2.119-3.449,3.5-4.912,1.819-1.921,4.565-2.863,6.085-5.026a17.208,17.208,0,0,0,1.775-4.294,6.432,6.432,0,0,1,2.66-3.7,7.751,7.751,0,0,1-1.46-4.12,10.743,10.743,0,0,1,1.314-3.6c.344-.772.615-1.577.885-2.377l.873-2.6c.234-.708.473-1.411.651-2.135.3-1.213.429-2.507.784-3.724.906-3.142,3.21-5.66,5.341-8.127a34.294,34.294,0,0,0-5.745-1.658,8.64,8.64,0,0,1-1.925-.5c-.708-.311-1.306-.809-1.989-1.181a11.09,11.09,0,0,0-3.481-.885A49.327,49.327,0,0,1,423.562,299.07Z" transform="translate(-270.674 -204.48)"/><path class="g" d="M382.078,392.659a10.43,10.43,0,0,0,.093,2.83,11.074,11.074,0,0,0,1.16,2.749c2.224,4.249,4.043,8.7,5.875,13.136a17.668,17.668,0,0,1,1.177,3.55c.17.922.19,1.868.311,2.8a8.9,8.9,0,0,0,.724,2.652c.429.914,2.749,5.794,3.639,6.271,1.912,1.039,4.48.081,5.7-1.726s-.4-8.232-.962-10.33a25.936,25.936,0,0,0-2.782-5.887,108.134,108.134,0,0,1-5.066-10.221c-1.286-2.984-2.458-6.21-1.916-9.417a30.1,30.1,0,0,1,1.763-5.191,8.6,8.6,0,0,0,.518-5.373,2.54,2.54,0,0,0-.4-.853,2.718,2.718,0,0,0-1.132-.732c-1.892-.764-5.762-1.4-6.578,1.144-.336,1.055-.4,2.208-.687,3.287a39.46,39.46,0,0,0-.946,5.22C382.313,388.583,382.2,390.621,382.078,392.659Z" transform="translate(-265.304 -250.448)"/><path class="g" d="M468.9,435.436q-3.578,4.221-6.962,8.608l5.838,4.314a12.31,12.31,0,0,1,.849-2.224,12.46,12.46,0,0,1,1.387-1.961l5.915-7.33a10.476,10.476,0,0,0-4.589-1.553C470.56,435.4,469.683,435.322,468.9,435.436Z" transform="translate(-312.909 -285.623)"/><path class="g" d="M527.823,319.332c1.544.352,3.089.7,4.613,1.132,3.166.894,6.368,2.191,8.559,4.646.485.542.926,1.367.5,1.957a2.741,2.741,0,0,1-.509.453,5.973,5.973,0,0,0-1.294,1.9,14.916,14.916,0,0,1-2.7,3.582A11.79,11.79,0,0,0,534,330.649l-2.426-1.516a9.338,9.338,0,0,0-3.437-1.557,19.3,19.3,0,0,0-4.346.34,9.211,9.211,0,0,1-5.3-1.213,1.27,1.27,0,0,1-.5-.433,1.255,1.255,0,0,1-.133-.469,6.364,6.364,0,0,1,1.451-4.642c.748-.95,2.426-2.729,3.716-2.895a7.513,7.513,0,0,1,2.163.477Z" transform="translate(-346.2 -215.907)"/><path class="i" d="M501.218,345.63a10.339,10.339,0,0,0-1.27.59c-3.17,1.654-6.441,3.392-8.62,6.227a24.752,24.752,0,0,0-2.6,4.654l-5.28,11.232-1.108,2.357-1.7,3.566-4.318,9.186a7.549,7.549,0,0,1,4.593.437,4.043,4.043,0,0,1,2.377,3.724c1.253-.109,1.921-1.472,2.8-2.369a17.55,17.55,0,0,1,2.5-1.807,19.753,19.753,0,0,0,2.964-2.875,86.931,86.931,0,0,1,8.964-8.636,20.168,20.168,0,0,0,1.779-1.593,14.682,14.682,0,0,0,2.709-4.557,39.674,39.674,0,0,0,2.66-9.906,11.487,11.487,0,0,0-.473-6.162,6.873,6.873,0,0,0-7.581-3.8" transform="translate(-321.475 -232.214)"/><path class="e" d="M500.218,346.63a10.337,10.337,0,0,0-1.27.59c-3.17,1.654-6.441,3.392-8.62,6.227a24.75,24.75,0,0,0-2.6,4.654l-5.28,11.232-1.108,2.357-1.7,3.566-4.318,9.186a7.549,7.549,0,0,1,4.593.437,4.043,4.043,0,0,1,2.377,3.724c1.253-.109,1.921-1.472,2.8-2.369a17.544,17.544,0,0,1,2.5-1.807,19.752,19.752,0,0,0,2.964-2.875,86.925,86.925,0,0,1,8.964-8.636,20.154,20.154,0,0,0,1.779-1.593,14.682,14.682,0,0,0,2.709-4.557,39.675,39.675,0,0,0,2.66-9.906,11.487,11.487,0,0,0-.473-6.162,6.873,6.873,0,0,0-7.581-3.8" transform="translate(-320.879 -232.81)"/><path class="h" d="M453.451,452.607l-4.423-.485a.7.7,0,0,0-.364.028.647.647,0,0,0-.255.311q-2.135,4.019-3.987,8.183c-.687,1.54-1.33,3.388-.461,4.852.259.429.635.784.877,1.213a4.118,4.118,0,0,1-.1,3.34,1.751,1.751,0,0,0-.17.983c.109.453.566.724.987.93a34.686,34.686,0,0,0,11.05,3.3,1.144,1.144,0,0,0,.861-.125,1.157,1.157,0,0,0,.332-.594,10.584,10.584,0,0,0,.36-1.318,12.458,12.458,0,0,0-.5-4.8,15.92,15.92,0,0,1-.065-7.8,10.452,10.452,0,0,1,1.415-2.96c.7-1.027-1.7-1.993-2.341-2.713C455.589,453.715,455.258,452.805,453.451,452.607Z" transform="translate(-301.949 -295.642)"/><path class="d" d="M385.452,347.851l-1.342,8.216a6.4,6.4,0,0,1,4.359-1.294c1.553-.032,3.36.117,4.448,1.282.441.477.72,1.08,1.148,1.569a1.678,1.678,0,0,0,1.706.647,1.476,1.476,0,0,0,.865-1.023,4.448,4.448,0,0,0,.081-1.387l-.441-9.065a20.3,20.3,0,0,0-1.027-6.469,10.108,10.108,0,0,0-1.888-3.053,3.307,3.307,0,0,0-.809-.7,3.384,3.384,0,0,0-1.071-.319c-1.051-.166-2.762-.441-3.74.129-.809.481-.885,1.617-.978,2.458C386.423,341.867,385.946,344.863,385.452,347.851Z" transform="translate(-266.547 -226.503)"/><ellipse class="f" cx="14.984" cy="6.421" rx="14.984" ry="6.421" transform="translate(133.238 69.583)"/><circle class="f" cx="8.559" cy="8.559" r="8.559" transform="translate(120.397 58.881)"/><circle class="f" cx="8.559" cy="8.559" r="8.559" transform="translate(150.365 56.742)"/><path class="e" d="M479.783,209.307a8.564,8.564,0,0,1,1.888,11.167,9.04,9.04,0,0,0,.728-.788,8.563,8.563,0,1,0-13.311-10.776,9.072,9.072,0,0,0-.618.878A8.559,8.559,0,0,1,479.783,209.307Z" transform="translate(-316.799 -148.881)"/><path class="e" d="M397.859,213.237a8.563,8.563,0,0,1,10.755,3.538,8.851,8.851,0,0,0-.356-1.011,8.563,8.563,0,1,0-15.738,6.753,7.823,7.823,0,0,0,.487.954,8.559,8.559,0,0,1,4.852-10.233Z" transform="translate(-271.143 -151.765)"/><path class="e" d="M437.864,255.8c-7.423,0-13.581-2.313-14.774-5.349a2.972,2.972,0,0,0-.21,1.071c0,3.546,6.708,6.421,14.984,6.421s14.984-2.875,14.984-6.421a2.891,2.891,0,0,0-.21-1.071C451.445,253.5,445.287,255.8,437.864,255.8Z" transform="translate(-289.642 -175.518)"/><path class="j" d="M847.989,198a8.826,8.826,0,0,0-3.542,16.913,7.781,7.781,0,0,1,.154-2.022l1.136-4.811a3.368,3.368,0,0,1-.283-1.395c0-1.31.756-2.284,1.7-2.284a1.176,1.176,0,0,1,1.189,1.322,19.033,19.033,0,0,1-.78,3.133,1.363,1.363,0,0,0,1.395,1.7c1.67,0,2.8-2.147,2.8-4.694,0-1.933-1.306-3.38-3.671-3.38a4.181,4.181,0,0,0-4.346,4.229,2.547,2.547,0,0,0,.582,1.73.4.4,0,0,1,.125.489c-.044.162-.138.554-.182.712a.3.3,0,0,1-.441.218,3.4,3.4,0,0,1-1.807-3.372c0-2.507,2.115-5.511,6.307-5.511a5.268,5.268,0,0,1,5.588,5.054c0,3.465-1.929,6.065-4.763,6.065a2.535,2.535,0,0,1-2.155-1.1s-.514,2.022-.623,2.426a7.28,7.28,0,0,1-.89,1.892A8.826,8.826,0,1,0,847.989,198Z" transform="translate(-537.61 -144.274)"/><path class="k" d="M774.541,86.91a7.76,7.76,0,0,1-2.187.606,3.87,3.87,0,0,0,1.678-2.115,7.625,7.625,0,0,1-2.426.926,3.813,3.813,0,0,0-6.6,2.608,3.9,3.9,0,0,0,.1.873,10.815,10.815,0,0,1-7.864-3.991,3.825,3.825,0,0,0,1.189,5.094,3.692,3.692,0,0,1-1.735-.473v.044a3.817,3.817,0,0,0,3.061,3.744,3.922,3.922,0,0,1-1,.133,3.846,3.846,0,0,1-.72-.069,3.817,3.817,0,0,0,3.566,2.648,7.63,7.63,0,0,1-4.739,1.617,7.529,7.529,0,0,1-.91-.057,10.658,10.658,0,0,0,5.838,1.726A10.791,10.791,0,0,0,772.652,89.36v-.489a7.767,7.767,0,0,0,1.888-1.961Z" transform="translate(-488.045 -77.032)"/><path class="l" d="M463.607,65.12h-13.46a.837.837,0,0,0-.837.837V79.413a.837.837,0,0,0,.837.837h6.72V74.262h-1.807V72.054h1.807V70.437a2.874,2.874,0,0,1,3.1-3.02c.837,0,1.735.065,1.941.093v2.022h-1.391c-.946,0-1.128.453-1.128,1.112V72.05h2.26l-.3,2.208H459.39v5.988H463.6a.837.837,0,0,0,.833-.837V65.957a.837.837,0,0,0-.825-.837Z" transform="translate(-305.386 -65.12)"/><path class="m" d="M574.607,153.419l-.061-.275h-6.17v2.547h3.57a3.2,3.2,0,0,1-3.311,2.507,3.78,3.78,0,0,1-2.693-1,3.974,3.974,0,0,1-.049-5.515,3.7,3.7,0,0,1,2.7-1,3.413,3.413,0,0,1,2.288.833l1.892-1.88a6.4,6.4,0,0,0-4.241-1.617,6.332,6.332,0,0,0-6.469,6.421,6.469,6.469,0,0,0,1.755,4.448,6.712,6.712,0,0,0,4.852,1.957,5.968,5.968,0,0,0,4.346-1.823,6.408,6.408,0,0,0,1.67-4.448,7.274,7.274,0,0,0-.081-1.148Zm7.638-.271H580V150.9h-1.617v2.244h-2.248v1.617h2.248v2.244H580v-2.244h2.26Z" transform="translate(-372.554 -114.5)"/><path class="n" d="M289.408,193.27a3.162,3.162,0,0,1,3.15,3.154v6.3a3.146,3.146,0,0,1-.926,2.224,3.105,3.105,0,0,1-2.224.926H283.1a3.162,3.162,0,0,1-3.15-3.15v-6.3a3.162,3.162,0,0,1,3.15-3.154h6.307m0-1.261H283.1a4.423,4.423,0,0,0-4.411,4.415v6.3a4.423,4.423,0,0,0,4.411,4.411h6.307a4.423,4.423,0,0,0,4.411-4.411v-6.3A4.423,4.423,0,0,0,289.408,192Z" transform="translate(-203.751 -140.7)"/><path class="n" d="M295.92,200.152a.942.942,0,1,1,.67-.276.946.946,0,0,1-.67.276Zm-4.1.631A2.523,2.523,0,1,1,289.3,203.3a2.523,2.523,0,0,1,2.523-2.519m0-1.261a3.78,3.78,0,1,0,2.676,1.106A3.784,3.784,0,0,0,291.824,199.521Z" transform="translate(-209.32 -144.429)"/><path class="o" d="M720.3,288H707.674a1.233,1.233,0,0,0-1.294,1.181v12.651a1.33,1.33,0,0,0,1.294,1.294h12.619a1.266,1.266,0,0,0,1.213-1.294V289.186A1.16,1.16,0,0,0,720.3,288Zm-9.218,12.619h-2.167v-6.74h2.167Zm-1.011-7.763h0a1.164,1.164,0,1,1,1.189-1.164,1.112,1.112,0,0,1-1.213,1.16Zm8.927,7.763H716.82v-3.687c0-.881-.315-1.484-1.1-1.484a1.181,1.181,0,0,0-1.108.809,1.417,1.417,0,0,0-.077.53v3.841h-2.167v-6.748h2.167v.938a2.2,2.2,0,0,1,1.957-1.1c1.419,0,2.495.938,2.495,2.96Z" transform="translate(-458.517 -197.883)"/><path class="p" d="M424.31,382.316l1.071,1.937,34.864-7.391-1.379-2.191Z" transform="translate(-252.807 -223.184)"/><path class="p" d="M499.391,409.21l-5.28-31.319a1,1,0,0,1,.881-1.16l40.028-4.27a1,1,0,0,1,1.1.857l3.744,27.433Z" transform="translate(-332.064 -248.194)"/><path class="e" d="M499.391,409.21l-5.28-31.319a1,1,0,0,1,.881-1.16l40.028-4.27a1,1,0,0,1,1.1.857l3.744,27.433Z" transform="translate(-332.064 -248.194)"/><path class="p" d="M500.906,409.21l-5.276-31.319a1,1,0,0,1,.877-1.16l40.028-4.27a1,1,0,0,1,1.1.857l3.74,27.433Z" transform="translate(-332.969 -248.194)"/><path class="d" d="M409.31,317.634l4.334,26.608,36.187-7.444-3.364-23.649Z" transform="translate(-243.872 -186.537)"/><path class="q" d="M512.236,450.283l-.255-.513-4.791,1.071,12.2,18.647a1.577,1.577,0,0,0,1.763.651l42.858-12.457a1.577,1.577,0,0,0,.513-2.774L547.917,442.33l-3.465.809.154.356Z" transform="translate(-339.864 -289.817)"/><path class="e" d="M512.236,450.283l-.255-.513-4.791,1.071,12.2,18.647a1.577,1.577,0,0,0,1.763.651l42.858-12.457a1.577,1.577,0,0,0,.513-2.774L547.917,442.33l-3.465.809.154.356Z" transform="translate(-339.864 -289.817)"/><path class="q" d="M513.746,450.283l-.255-.513-4.791,1.071,12.2,18.647a1.577,1.577,0,0,0,1.763.651l42.858-12.457a1.577,1.577,0,0,0,.509-2.774L549.423,442.33l-3.465.809.154.356Z" transform="translate(-340.763 -289.817)"/><path class="e" d="M568.189,475.574l13.771-3.586a.271.271,0,0,1,.247.061l6.117,5.551a.267.267,0,0,1-.105.453l-14.555,4.3a.263.263,0,0,1-.275-.085L568.064,476a.271.271,0,0,1,.125-.425Z" transform="translate(-376.09 -307.479)"/><path class="r" d="M568.927,474.836l13.771-3.578a.267.267,0,0,1,.247.061l6.109,5.547a.267.267,0,0,1-.105.453l-14.555,4.3a.271.271,0,0,1-.279-.085l-5.321-6.271a.263.263,0,0,1,.133-.429Z" transform="translate(-376.521 -307.043)"/><g class="b" transform="translate(172.38 154.419)"><path d="M521.2,467.495l.619.995a.121.121,0,0,0,.125.057l2.09-.465a.121.121,0,0,0,.069-.186l-.691-.97a.117.117,0,0,0-.121-.049l-2.022.433a.117.117,0,0,0-.069.186Z" transform="translate(-520.578 -458.856)"/><path d="M527.972,466.1l.615,1a.125.125,0,0,0,.129.053l2.086-.465a.117.117,0,0,0,.069-.186l-.687-.962a.121.121,0,0,0-.121-.049l-2.022.433a.117.117,0,0,0-.069.178Z" transform="translate(-524.612 -458.028)"/><path d="M534.511,464.672l.619.995a.121.121,0,0,0,.125.053l2.09-.465a.121.121,0,0,0,.069-.186l-.7-.962a.125.125,0,0,0-.121-.048l-2.022.433a.121.121,0,0,0-.065.182Z" transform="translate(-528.507 -457.177)"/><path d="M540.97,463.264l.61.982a.13.13,0,0,0,.138.057l2.07-.461a.129.129,0,0,0,.073-.2l-.679-.95a.125.125,0,0,0-.129-.049l-2.022.429a.129.129,0,0,0-.061.19Z" transform="translate(-532.354 -456.335)"/><path d="M540.442,467.036l.619.995a.113.113,0,0,0,.125.053l2.086-.465a.113.113,0,0,0,.069-.182l-.687-.966a.117.117,0,0,0-.121-.044l-2.022.433a.117.117,0,0,0-.069.178Z" transform="translate(-532.04 -458.587)"/><path d="M533.765,468.479l.619.995a.121.121,0,0,0,.129.053l2.086-.465a.117.117,0,0,0,.069-.186l-.691-.946a.113.113,0,0,0-.121-.044l-2.022.433a.121.121,0,0,0-.069.162Z" transform="translate(-528.069 -459.456)"/><path d="M538.108,471.483l.619,1a.129.129,0,0,0,.129.053l2.086-.465a.117.117,0,0,0,.069-.186l-.691-.958a.117.117,0,0,0-.121-.049l-2.022.433a.121.121,0,0,0-.069.174Z" transform="translate(-530.652 -461.238)"/><path d="M544.252,474.1l.619.995a.113.113,0,0,0,.125.053l2.086-.465a.117.117,0,0,0,.073-.182l-.691-.966a.117.117,0,0,0-.121-.044l-2.022.433a.117.117,0,0,0-.069.178Z" transform="translate(-534.31 -462.792)"/><path d="M545.313,478.208l1,1.253a.117.117,0,0,0,.121.04l2.1-.546a.121.121,0,0,0,.065-.19l-1.035-1.261a.117.117,0,0,0-.121-.04l-2.07.558a.117.117,0,0,0-.061.186Z" transform="translate(-534.938 -465.162)"/><path d="M552.114,476.24l1.027,1.29a.117.117,0,0,0,.121.04l2.745-.76a.121.121,0,0,0,.061-.19l-1.035-1.266a.117.117,0,0,0-.121-.04l-2.733.736a.121.121,0,0,0-.065.19Z" transform="translate(-538.99 -463.881)"/><path d="M538.663,479.9l1,1.253a.117.117,0,0,0,.121.04l2.1-.546a.121.121,0,0,0,.065-.19l-1.035-1.266a.113.113,0,0,0-.121-.036l-2.07.554a.121.121,0,0,0-.061.19Z" transform="translate(-530.977 -466.167)"/><path d="M531.62,481.655l1,1.249a.117.117,0,0,0,.121.04l2.1-.546a.121.121,0,0,0,.065-.19l-1.031-1.274a.125.125,0,0,0-.125-.04l-2.07.558a.121.121,0,0,0-.061.2Z" transform="translate(-526.777 -467.206)"/><path d="M547.417,461.754l.606.982a.129.129,0,0,0,.137.057l2.07-.461a.125.125,0,0,0,.073-.2l-.679-.95a.125.125,0,0,0-.129-.048l-2,.429a.121.121,0,0,0-.081.19Z" transform="translate(-536.193 -455.436)"/><path d="M546.979,465.51l.607.983a.129.129,0,0,0,.137.057l2.07-.461a.125.125,0,0,0,.073-.2l-.663-.966a.125.125,0,0,0-.129-.049l-2,.453a.125.125,0,0,0-.1.182Z" transform="translate(-535.938 -457.663)"/><path d="M553.691,460.334l.607.982a.129.129,0,0,0,.137.057l2.07-.461a.125.125,0,0,0,.073-.2l-.679-.95a.125.125,0,0,0-.129-.048l-2,.429a.125.125,0,0,0-.081.19Z" transform="translate(-539.932 -454.59)"/><path d="M572.016,456.364l.857.914a.113.113,0,0,0,.1.028l1.848-.429a.1.1,0,0,0,.048-.174l-.966-.914a.109.109,0,0,0-.1-.024l-1.739.429a.1.1,0,0,0-.049.17Z" transform="translate(-550.842 -452.237)"/><path d="M577.882,455.005l.861.914a.1.1,0,0,0,.1.028l1.848-.429a.1.1,0,0,0,.045-.17l-.966-.918a.117.117,0,0,0-.1-.024l-1.739.429a.105.105,0,0,0-.049.17Z" transform="translate(-554.338 -451.428)"/><path d="M572.142,460.015l.861.914a.1.1,0,0,0,.1.028l1.848-.425a.1.1,0,0,0,.049-.174l-.97-.914a.1.1,0,0,0-.093-.028l-1.739.433a.1.1,0,0,0-.053.166Z" transform="translate(-550.92 -454.413)"/><path d="M566.119,461.387l.809.873a.125.125,0,0,0,.121.036l1.791-.4a.129.129,0,0,0,.057-.218l-.926-.873a.121.121,0,0,0-.117-.028l-1.682.4a.129.129,0,0,0-.053.21Z" transform="translate(-547.326 -455.219)"/><path d="M570.689,468.2l.809.873a.134.134,0,0,0,.121.036l1.791-.4a.125.125,0,0,0,.057-.214l-.926-.873a.134.134,0,0,0-.117-.032l-1.682.4a.129.129,0,0,0-.053.21Z" transform="translate(-550.049 -459.278)"/><path d="M564.418,469.62l.809.873a.133.133,0,0,0,.121.036l1.787-.4a.125.125,0,0,0,.061-.214l-.926-.873a.13.13,0,0,0-.117-.032l-1.686.4a.129.129,0,0,0-.049.21Z" transform="translate(-546.312 -460.124)"/><path d="M558.044,471.187l.809.873a.125.125,0,0,0,.121.036l1.791-.4a.129.129,0,0,0,.057-.218l-.926-.873a.121.121,0,0,0-.117-.028l-1.682.4a.125.125,0,0,0-.053.21Z" transform="translate(-542.514 -461.056)"/><path d="M551.306,472.531l.833.885a.121.121,0,0,0,.113.036l1.807-.4a.117.117,0,0,0,.057-.2l-.938-.894a.117.117,0,0,0-.109-.028l-1.7.4a.113.113,0,0,0-.061.2Z" transform="translate(-538.497 -461.862)"/><path d="M564.338,465.662l.809.873a.129.129,0,0,0,.121.036l1.787-.4a.125.125,0,0,0,.061-.214l-.922-.885a.129.129,0,0,0-.117-.032l-1.686.4a.125.125,0,0,0-.053.222Z" transform="translate(-546.257 -457.759)"/><path d="M558.229,467.081l.809.869a.117.117,0,0,0,.121.036l1.791-.4a.125.125,0,0,0,.057-.214l-.926-.873a.113.113,0,0,0-.117-.032l-1.682.4a.125.125,0,0,0-.053.214Z" transform="translate(-542.623 -458.608)"/><path d="M551.683,468.478l.809.873a.125.125,0,0,0,.121.036l1.787-.4a.129.129,0,0,0,.061-.218l-.926-.873a.125.125,0,0,0-.117-.028l-1.686.4a.125.125,0,0,0-.049.21Z" transform="translate(-538.724 -459.443)"/><path d="M544.955,470.108l.833.885a.138.138,0,0,0,.117.032l1.807-.4a.117.117,0,0,0,.053-.2l-.938-.885a.121.121,0,0,0-.109-.028l-1.7.4a.121.121,0,0,0-.061.2Z" transform="translate(-534.722 -460.421)"/><path d="M570.658,464.2l.809.869a.125.125,0,0,0,.121.04l1.787-.4a.125.125,0,0,0,.061-.214l-.926-.873a.117.117,0,0,0-.117-.032l-1.686.4a.129.129,0,0,0-.049.21Z" transform="translate(-550.029 -456.893)"/><path d="M559.943,462.97l.809.873a.129.129,0,0,0,.121.036l1.787-.4a.125.125,0,0,0,.057-.214l-.922-.873a.129.129,0,0,0-.117-.032l-1.686.4a.125.125,0,0,0-.049.21Z" transform="translate(-543.645 -456.162)"/><path d="M583.562,453.63l.9.954a.077.077,0,0,0,.073.024l1.908-.445a.077.077,0,0,0,.036-.129l-1.015-.958a.077.077,0,0,0-.073,0l-1.8.445a.073.073,0,0,0-.036.109Z" transform="translate(-557.73 -450.632)"/><path d="M589.266,452.366l.9.958a.085.085,0,0,0,.073.024l1.908-.445a.077.077,0,0,0,.036-.129l-1.011-.958a.069.069,0,0,0-.069,0l-1.8.445a.073.073,0,0,0-.04.105Z" transform="translate(-561.13 -449.881)"/><path d="M595.128,451.131l.809.885a.073.073,0,0,0,.077.024l1.779-.485a.081.081,0,0,0,.028-.133l-.918-.772a.081.081,0,0,0-.065,0l-1.686.372a.073.073,0,0,0-.024.109Z" transform="translate(-564.618 -449.188)"/><path d="M601.27,453.174l.809.89a.081.081,0,0,0,.073.024l1.779-.485a.077.077,0,0,0,.028-.133l-.918-.772a.065.065,0,0,0-.065,0l-1.682.368a.077.077,0,0,0-.024.109Z" transform="translate(-568.278 -450.406)"/><path d="M600.509,457.105l.78.841a.093.093,0,0,0,.1.028l1.714-.465a.1.1,0,0,0,.04-.178l-.869-.736a.1.1,0,0,0-.089-.02l-1.617.36a.1.1,0,0,0-.061.17Z" transform="translate(-567.816 -452.72)"/><path d="M595.524,462.24l.78.845a.1.1,0,0,0,.1.028l1.73-.469a.1.1,0,0,0,.04-.174l-.869-.736a.1.1,0,0,0-.089,0l-1.617.356a.105.105,0,0,0-.077.15Z" transform="translate(-564.857 -455.788)"/><path d="M589.5,463.774l.78.841a.093.093,0,0,0,.1.028l1.714-.465a.1.1,0,0,0,.04-.178l-.869-.736a.1.1,0,0,0-.089,0l-1.617.36a.1.1,0,0,0-.061.15Z" transform="translate(-561.265 -456.7)"/><path d="M601.175,460.7l.78.841a.109.109,0,0,0,.1.032l1.718-.469a.1.1,0,0,0,.036-.178l-.869-.732a.117.117,0,0,0-.089-.024l-1.617.36a.105.105,0,0,0-.061.17Z" transform="translate(-568.215 -454.861)"/><path d="M600.175,464.937,601.351,466a.121.121,0,0,0,.1,0l1.7-.481a.1.1,0,0,0,.04-.174l-1.27-1.112a.093.093,0,0,0-.1,0l-1.617.538a.1.1,0,0,0-.032.17Z" transform="translate(-567.611 -457.273)"/><path d="M589.98,456.01l.809.89a.069.069,0,0,0,.073.02l1.779-.485a.073.073,0,0,0,.028-.129l-.918-.776a.073.073,0,0,0-.065,0L590,455.9a.077.077,0,0,0-.024.109Z" transform="translate(-561.553 -452.093)"/><path d="M584.309,457.358l.78.841a.109.109,0,0,0,.1.032l1.718-.469a.1.1,0,0,0,.036-.178l-.869-.732a.117.117,0,0,0-.089-.024l-1.617.36a.1.1,0,0,0-.061.17Z" transform="translate(-558.166 -452.871)"/><path d="M583.148,461.391l.78.845a.1.1,0,0,0,.1.028l1.714-.469a.1.1,0,0,0,.04-.174l-.873-.736a.1.1,0,0,0-.089-.02l-1.617.356a.1.1,0,0,0-.057.17Z" transform="translate(-557.474 -455.275)"/><path d="M577.159,462.841l.78.845a.1.1,0,0,0,.1.028l1.714-.469a.1.1,0,0,0,.04-.174l-.873-.736a.093.093,0,0,0-.085-.02l-1.617.356a.1.1,0,0,0-.061.17Z" transform="translate(-553.907 -456.139)"/><path d="M578.234,458.711l.78.845a.093.093,0,0,0,.1.028l1.714-.469a.1.1,0,0,0,.04-.174l-.869-.736a.1.1,0,0,0-.089-.02l-1.617.36a.1.1,0,0,0-.061.166Z" transform="translate(-554.549 -453.679)"/><path d="M583.245,465.111l.78.845a.1.1,0,0,0,.1.028l1.714-.469a.1.1,0,0,0,.04-.174l-.869-.736a.1.1,0,0,0-.089-.02l-1.617.356a.105.105,0,0,0-.061.17Z" transform="translate(-557.534 -457.491)"/><path d="M577.36,466.669l.74.809a.121.121,0,0,0,.125.036l1.654-.449a.129.129,0,0,0,.048-.222l-.809-.7a.117.117,0,0,0-.109-.024l-1.569.344a.125.125,0,0,0-.081.2Z" transform="translate(-554.027 -458.406)"/><path d="M595.8,454.532l.809.89a.077.077,0,0,0,.077,0l1.779-.485a.073.073,0,0,0,.028-.129l-.918-.776a.089.089,0,0,0-.065,0l-1.682.372a.077.077,0,0,0-.028.129Z" transform="translate(-565.015 -451.202)"/><path d="M594.965,458.467l.78.845a.1.1,0,0,0,.1.028l1.714-.469a.1.1,0,0,0,.04-.174l-.857-.732a.1.1,0,0,0-.089-.02l-1.617.356a.1.1,0,0,0-.073.166Z" transform="translate(-564.516 -453.536)"/><path d="M589.229,460.038l.78.841a.1.1,0,0,0,.1.032l1.714-.469a.105.105,0,0,0,.04-.178l-.873-.732a.109.109,0,0,0-.085-.024l-1.617.36a.1.1,0,0,0-.061.17Z" transform="translate(-561.097 -454.468)"/><path d="M566.032,457.654l.861.914a.105.105,0,0,0,.1.028l1.848-.429a.1.1,0,0,0,.045-.174l-.966-.914a.1.1,0,0,0-.1-.024l-1.739.429a.105.105,0,0,0-.049.17Z" transform="translate(-547.279 -453.005)"/><path d="M559.949,459.087l.809.873a.125.125,0,0,0,.121.036l1.791-.4a.129.129,0,0,0,.057-.218l-.926-.873a.121.121,0,0,0-.117-.028l-1.682.4a.129.129,0,0,0-.053.21Z" transform="translate(-543.651 -453.849)"/><path d="M553.4,464.181l.61.978a.125.125,0,0,0,.138.057l2.066-.461a.125.125,0,0,0,.077-.2l-.679-.946a.137.137,0,0,0-.129-.053l-2.022.429a.129.129,0,0,0-.061.194Z" transform="translate(-539.755 -456.88)"/><path d="M519.783,465.3l2.042-.473a.117.117,0,0,1,.121.044l.36.473a.117.117,0,0,1-.069.186l-2.115.493a.117.117,0,0,1-.129-.057l-.287-.493a.117.117,0,0,1,.077-.174Z" transform="translate(-519.69 -457.634)"/><path d="M526.705,463.788l2.022-.473a.113.113,0,0,1,.121.044l.36.469a.121.121,0,0,1-.069.19l-2.115.493a.121.121,0,0,1-.129-.057l-.287-.493a.117.117,0,0,1,.1-.174Z" transform="translate(-523.803 -456.733)"/><path d="M533.416,462.3l2.022-.469a.113.113,0,0,1,.121.04l.36.473a.117.117,0,0,1-.069.186l-2.115.493a.117.117,0,0,1-.129-.057l-.287-.489a.121.121,0,0,1,.1-.178Z" transform="translate(-527.8 -455.851)"/><path d="M540,460.854l2.022-.469a.113.113,0,0,1,.121.044l.36.469a.121.121,0,0,1-.069.19l-2.074.489a.113.113,0,0,1-.129-.053l-.287-.493a.121.121,0,0,1,.057-.178Z" transform="translate(-531.742 -454.988)"/><path d="M546.615,459.386l2.022-.469a.133.133,0,0,1,.129.049l.348.457a.129.129,0,0,1-.073.2l-2.1.489a.13.13,0,0,1-.138-.061l-.279-.477a.129.129,0,0,1,.089-.19Z" transform="translate(-535.666 -454.115)"/><path d="M553.069,458.043l2.022-.469a.121.121,0,0,1,.129.044l.348.457a.129.129,0,0,1-.073.2l-2.1.489a.129.129,0,0,1-.137-.061l-.283-.477a.125.125,0,0,1,.093-.186Z" transform="translate(-539.508 -453.313)"/><path d="M559.391,456.747l1.872-.453a.121.121,0,0,1,.121.036l.364.38a.125.125,0,0,1-.061.21l-1.852.465a.117.117,0,0,1-.117-.032l-.4-.4a.129.129,0,0,1,.077-.2Z" transform="translate(-543.279 -452.551)"/><path d="M565.57,455.3l1.929-.469a.1.1,0,0,1,.1.028l.4.425a.1.1,0,0,1-.048.166l-1.9.481a.105.105,0,0,1-.1-.028l-.425-.433a.1.1,0,0,1,.044-.17Z" transform="translate(-546.975 -451.683)"/><path d="M571.68,453.872l1.929-.469a.089.089,0,0,1,.1.028l.4.4a.105.105,0,0,1-.048.17l-1.9.5a.109.109,0,0,1-.1-.028l-.437-.429a.1.1,0,0,1,.049-.174Z" transform="translate(-550.611 -450.829)"/><path d="M577.824,452.615l1.929-.469a.105.105,0,0,1,.1.028l.4.4a.105.105,0,0,1-.049.17l-1.9.477a.105.105,0,0,1-.1-.028l-.424-.429a.105.105,0,0,1,.048-.154Z" transform="translate(-554.281 -450.081)"/><path d="M583.607,451.2l1.989-.481a.073.073,0,0,1,.073,0l.441.465a.073.073,0,0,1-.036.125l-1.949.513a.069.069,0,0,1-.073,0l-.469-.473a.077.077,0,0,1,.024-.15Z" transform="translate(-557.719 -449.225)"/><path d="M589.488,449.954l1.989-.485a.085.085,0,0,1,.073.024l.445.465a.077.077,0,0,1-.036.125l-1.965.493a.073.073,0,0,1-.073,0l-.469-.489a.077.077,0,0,1,.036-.133Z" transform="translate(-561.23 -448.487)"/><path d="M595.292,448.732l1.836-.4a.077.077,0,0,1,.077.028l.356.437a.073.073,0,0,1-.04.117l-1.727.457a.069.069,0,0,1-.073-.02l-.469-.473a.074.074,0,0,1,.04-.142Z" transform="translate(-564.669 -447.807)"/><path d="M600.854,447.45l1.84-.4a.073.073,0,0,1,.077.024l.356.437a.077.077,0,0,1-.04.121l-1.726.457a.089.089,0,0,1-.073,0l-.469-.477a.081.081,0,0,1,.036-.158Z" transform="translate(-567.979 -447.043)"/><path d="M523.446,470.5l.679.966a.117.117,0,0,0,.125.049l3.538-.809a.117.117,0,0,0,.065-.186l-.748-.991a.121.121,0,0,0-.125-.04l-3.461.845a.125.125,0,0,0-.073.166Z" transform="translate(-521.922 -460.414)"/><path d="M526.082,473.509l.679,1.076a.113.113,0,0,0,.125.053l4.274-1.015a.117.117,0,0,0,.065-.19l-.845-1.047a.117.117,0,0,0-.121-.04l-4.1.987a.117.117,0,0,0-.073.178Z" transform="translate(-523.487 -462.112)"/><path d="M528.456,476.41l.809,1.168a.117.117,0,0,0,.125.049l5.66-1.4a.121.121,0,0,0,.069-.19l-.914-1.169a.117.117,0,0,0-.121-.044l-5.6,1.4a.117.117,0,0,0-.032.182Z" transform="translate(-524.894 -463.591)"/><path d="M560.507,470.68l1.035,1.249a.129.129,0,0,0,.129.04l12.453-3.109a.121.121,0,0,0,.057-.21l-1.27-1.266a.121.121,0,0,0-.121-.032l-12.219,3.125a.125.125,0,0,0-.065.2Z" transform="translate(-543.986 -459.138)"/><path d="M592.28,466.32l1.213,1.213a.105.105,0,0,0,.1.028l2.551-.683a.1.1,0,0,0,.044-.17l-1.266-1.241a.093.093,0,0,0-.1-.024l-2.507.691a.1.1,0,0,0-.04.186Z" transform="translate(-562.902 -458.001)"/><path d="M607.584,464.726l.554.59a.073.073,0,0,0,.073.02l1.892-.509a.073.073,0,0,0,.032-.125l-.675-.635a.077.077,0,0,0-.073,0l-1.771.554a.073.073,0,0,0-.032.105Z" transform="translate(-572.04 -457.178)"/><path d="M611.564,461.706l.663.7a.069.069,0,0,0,.077.02l1.735-.6a.073.073,0,0,0,.028-.125l-.647-.586a.081.081,0,0,0-.073,0l-1.751.489a.077.077,0,0,0-.032.109Z" transform="translate(-574.411 -455.416)"/><path d="M614,463.894l-.477-.4a.077.077,0,0,1,.024-.129l1.727-.6a.073.073,0,0,1,.081,0l.538.522a.077.077,0,0,1-.032.129l-1.8.465A.081.081,0,0,1,614,463.894Z" transform="translate(-575.569 -456.399)"/><path d="M619.1,461.972c.15.142.4.429.513.526a.077.077,0,0,0,.073.02l1.8-.489a.077.077,0,0,0,.032-.129l-.639-.574a.069.069,0,0,0-.073,0l-1.674.538a.073.073,0,0,0-.032.109Z" transform="translate(-578.899 -455.544)"/><path d="M606.6,458.135l.966.93a.065.065,0,0,0,.069.02l4.646-1.213a.073.073,0,0,0,.028-.129l-1.112-.946a.069.069,0,0,0-.069,0l-4.48,1.213a.073.073,0,0,0-.048.125Z" transform="translate(-571.445 -452.847)"/><path d="M605.831,455.074l.995.885a.085.085,0,0,0,.069,0l3.493-.809a.077.077,0,0,0,.032-.133l-1.144-.958a.085.085,0,0,0-.069,0l-3.344.9a.077.077,0,0,0-.032.113Z" transform="translate(-570.995 -451.218)"/><path d="M606.587,451.826l.942.841a.073.073,0,0,0,.069,0l1.791-.4a.081.081,0,0,0,.036-.133l-1.116-.962a.077.077,0,0,0-.073,0l-1.617.518a.077.077,0,0,0-.032.141Z" transform="translate(-571.431 -449.494)"/><path d="M600.53,449.425l.914.829a.081.081,0,0,0,.069,0l2.83-.675a.077.077,0,0,0,.032-.129l-1.088-.91a.085.085,0,0,0-.069,0l-2.668.756a.077.077,0,0,0-.02.129Z" transform="translate(-567.829 -447.93)"/></g><path class="p" d="M521.212,466.752l.619.995a.121.121,0,0,0,.125.053l2.09-.465a.121.121,0,0,0,.069-.186l-.691-.962a.125.125,0,0,0-.121-.048l-2.022.433a.121.121,0,0,0-.069.182Z" transform="translate(-348.205 -303.997)"/><path class="p" d="M527.972,465.336l.615.995a.121.121,0,0,0,.129.053l2.086-.465a.117.117,0,0,0,.069-.186l-.687-.962a.117.117,0,0,0-.121-.044l-2.022.433a.117.117,0,0,0-.069.178Z" transform="translate(-352.231 -303.155)"/><path class="p" d="M534.511,463.916l.619.995a.113.113,0,0,0,.125.053l2.09-.465a.117.117,0,0,0,.069-.182l-.7-.966a.117.117,0,0,0-.121-.044l-2.022.433a.117.117,0,0,0-.065.178Z" transform="translate(-356.126 -302.31)"/><path class="p" d="M540.961,462.493l.611.983a.125.125,0,0,0,.137.057l2.07-.461a.129.129,0,0,0,.073-.2l-.687-.954a.125.125,0,0,0-.129-.053l-2.022.429a.129.129,0,0,0-.053.2Z" transform="translate(-359.964 -301.453)"/><path class="p" d="M540.442,466.277l.619,1a.125.125,0,0,0,.125.053l2.086-.465a.117.117,0,0,0,.069-.186l-.687-.962a.121.121,0,0,0-.121-.049l-2.022.433a.117.117,0,0,0-.069.178Z" transform="translate(-359.66 -303.717)"/><path class="p" d="M533.755,467.7l.619.995a.129.129,0,0,0,.129.057l2.086-.465a.117.117,0,0,0,.069-.186l-.691-.962a.117.117,0,0,0-.121-.048l-2.022.433a.121.121,0,0,0-.069.178Z" transform="translate(-355.678 -304.562)"/><path class="p" d="M538.1,470.725l.619.995a.117.117,0,0,0,.129.053l2.086-.465a.117.117,0,0,0,.069-.186l-.691-.962a.113.113,0,0,0-.121-.044l-2.022.429a.121.121,0,0,0-.069.182Z" transform="translate(-358.266 -306.365)"/><path class="p" d="M544.252,473.367l.619,1a.117.117,0,0,0,.125.053l2.086-.465a.121.121,0,0,0,.073-.186l-.691-.962a.121.121,0,0,0-.121-.048l-2.022.433a.117.117,0,0,0-.069.178Z" transform="translate(-361.929 -307.94)"/><path class="p" d="M545.313,477.452l1,1.249a.117.117,0,0,0,.121.04l2.1-.546a.121.121,0,0,0,.065-.19l-1.035-1.261a.117.117,0,0,0-.121-.04l-2.07.558a.121.121,0,0,0-.061.19Z" transform="translate(-362.558 -310.291)"/><path class="p" d="M552.114,475.486l1.027,1.29a.117.117,0,0,0,.121.04l2.745-.76a.121.121,0,0,0,.061-.19l-1.035-1.261a.117.117,0,0,0-.121-.04l-2.733.736a.117.117,0,0,0-.065.186Z" transform="translate(-366.609 -309.016)"/><path class="p" d="M538.663,479.092l1,1.249a.117.117,0,0,0,.121.04l2.1-.546a.121.121,0,0,0,.065-.19l-1.035-1.261a.117.117,0,0,0-.121-.04l-2.07.558a.121.121,0,0,0-.061.19Z" transform="translate(-358.596 -311.268)"/><path class="p" d="M531.633,480.9l1,1.253a.117.117,0,0,0,.121.04l2.1-.546a.121.121,0,0,0,.065-.19l-1.031-1.261a.125.125,0,0,0-.125-.04l-2.07.558a.117.117,0,0,0-.061.186Z" transform="translate(-354.409 -312.346)"/><path class="p" d="M547.421,460.994l.606.983a.129.129,0,0,0,.138.057l2.07-.461a.125.125,0,0,0,.073-.2l-.679-.95a.125.125,0,0,0-.129-.048l-2,.429a.125.125,0,0,0-.081.19Z" transform="translate(-363.817 -300.564)"/><path class="p" d="M546.971,464.775l.606.983a.129.129,0,0,0,.138.057l2.07-.461a.125.125,0,0,0,.073-.2l-.679-.946a.125.125,0,0,0-.129-.053l-2,.429a.125.125,0,0,0-.081.19Z" transform="translate(-363.549 -302.817)"/><path class="p" d="M553.684,459.575l.606.983a.129.129,0,0,0,.137.057l2.07-.461a.125.125,0,0,0,.073-.2l-.679-.95a.129.129,0,0,0-.129-.049l-2,.421a.125.125,0,0,0-.081.2Z" transform="translate(-367.545 -299.719)"/><path class="p" d="M572.016,455.6l.857.914a.113.113,0,0,0,.1.028l1.848-.429a.1.1,0,0,0,.048-.174l-.966-.914a.109.109,0,0,0-.1-.024l-1.739.429a.1.1,0,0,0-.049.17Z" transform="translate(-378.462 -297.366)"/><path class="p" d="M577.892,454.265l.861.91a.1.1,0,0,0,.1.032l1.848-.429a.1.1,0,0,0,.057-.166l-.966-.914a.105.105,0,0,0-.1-.024l-1.739.429a.105.105,0,0,0-.061.162Z" transform="translate(-381.969 -296.573)"/><path class="p" d="M572.143,459.264l.861.914a.105.105,0,0,0,.1.028l1.848-.429A.1.1,0,0,0,575,459.6l-.97-.914a.1.1,0,0,0-.093-.024l-1.739.429a.105.105,0,0,0-.053.17Z" transform="translate(-378.54 -299.545)"/><path class="p" d="M566.109,460.631l.809.869a.126.126,0,0,0,.121.036l1.791-.4a.125.125,0,0,0,.057-.214l-.926-.873a.113.113,0,0,0-.117-.032l-1.682.4a.125.125,0,0,0-.053.214Z" transform="translate(-374.936 -300.347)"/><path class="p" d="M570.689,467.437l.809.873a.125.125,0,0,0,.121.036l1.791-.4a.129.129,0,0,0,.057-.218l-.926-.873a.121.121,0,0,0-.117-.028l-1.682.4a.129.129,0,0,0-.053.21Z" transform="translate(-377.668 -304.404)"/><path class="p" d="M564.418,468.861l.809.873a.133.133,0,0,0,.121.036l1.787-.4a.125.125,0,0,0,.061-.214l-.926-.873a.138.138,0,0,0-.117-.032l-1.686.4a.129.129,0,0,0-.049.21Z" transform="translate(-373.932 -305.253)"/><path class="p" d="M557.993,470.4l.809.873a.137.137,0,0,0,.121.036l1.791-.4a.126.126,0,0,0,.069-.243l-.926-.873a.121.121,0,0,0-.117-.032l-1.682.4a.125.125,0,0,0-.065.239Z" transform="translate(-370.083 -306.151)"/><path class="p" d="M551.313,471.783l.833.885a.117.117,0,0,0,.113.032l1.807-.4a.121.121,0,0,0,.057-.2l-.942-.89a.129.129,0,0,0-.109-.028l-1.7.4a.117.117,0,0,0-.057.2Z" transform="translate(-366.124 -306.998)"/><path class="p" d="M564.344,464.906l.809.873a.121.121,0,0,0,.121.036l1.787-.4a.129.129,0,0,0,.061-.218l-.922-.881a.125.125,0,0,0-.117-.028l-1.686.4a.125.125,0,0,0-.053.218Z" transform="translate(-373.882 -302.891)"/><path class="p" d="M558.239,466.341l.809.873a.134.134,0,0,0,.121.036l1.791-.4a.125.125,0,0,0,.057-.214l-.926-.873a.133.133,0,0,0-.117-.032l-1.682.4a.129.129,0,0,0-.053.21Z" transform="translate(-370.252 -303.752)"/><path class="p" d="M551.683,467.728l.809.869a.125.125,0,0,0,.121.04l1.787-.4a.125.125,0,0,0,.061-.214l-.926-.873a.117.117,0,0,0-.117-.032l-1.686.4a.125.125,0,0,0-.049.21Z" transform="translate(-366.344 -304.577)"/><path class="p" d="M544.95,469.293l.833.885a.125.125,0,0,0,.117.032l1.807-.4a.121.121,0,0,0,.053-.2l-.938-.885a.121.121,0,0,0-.109-.032l-1.7.4a.121.121,0,0,0-.061.2Z" transform="translate(-362.337 -305.515)"/><path class="p" d="M570.658,463.441l.809.873a.133.133,0,0,0,.121.036l1.787-.4a.125.125,0,0,0,.061-.214l-.926-.873a.137.137,0,0,0-.117-.032l-1.686.4a.129.129,0,0,0-.049.21Z" transform="translate(-377.649 -302.025)"/><path class="p" d="M559.943,462.211l.809.873a.121.121,0,0,0,.121.036l1.787-.4a.125.125,0,0,0,.057-.214l-.922-.873a.137.137,0,0,0-.117-.032l-1.686.4a.125.125,0,0,0-.049.21Z" transform="translate(-371.264 -301.292)"/><path class="p" d="M583.565,452.877l.9.958a.077.077,0,0,0,.073.02l1.908-.441a.077.077,0,0,0,.036-.129l-1.015-.958a.081.081,0,0,0-.073,0l-1.8.445a.073.073,0,0,0-.036.105Z" transform="translate(-385.353 -295.767)"/><path class="p" d="M589.252,451.6l.9.958a.1.1,0,0,0,.073.02l1.908-.441a.077.077,0,0,0,.036-.129l-1.011-.958a.073.073,0,0,0-.069-.02l-1.8.445a.077.077,0,0,0-.04.125Z" transform="translate(-388.735 -294.996)"/><path class="p" d="M595.106,450.341l.809.889a.077.077,0,0,0,.077,0l1.779-.485a.077.077,0,0,0,.028-.129l-.918-.776a.081.081,0,0,0-.065,0l-1.686.372a.073.073,0,0,0-.024.129Z" transform="translate(-392.215 -294.286)"/><path class="p" d="M601.286,452.45l.809.889a.069.069,0,0,0,.073.02l1.779-.485a.073.073,0,0,0,.028-.129l-.9-.756a.073.073,0,0,0-.065,0l-1.682.372A.077.077,0,0,0,601.286,452.45Z" transform="translate(-395.913 -295.566)"/><path class="p" d="M600.515,456.348l.78.845a.113.113,0,0,0,.1.028l1.714-.469a.1.1,0,0,0,.04-.178l-.869-.732a.117.117,0,0,0-.089-.024l-1.617.36a.105.105,0,0,0-.061.17Z" transform="translate(-395.441 -297.851)"/><path class="p" d="M595.522,461.451l.78.845a.093.093,0,0,0,.1.028l1.73-.469a.1.1,0,0,0,.04-.174l-.885-.716a.1.1,0,0,0-.089-.02l-1.617.36a.1.1,0,0,0-.061.146Z" transform="translate(-392.474 -300.904)"/><path class="p" d="M589.485,463l.78.845a.113.113,0,0,0,.1.028l1.714-.469a.1.1,0,0,0,.04-.178l-.869-.732a.117.117,0,0,0-.089-.024l-1.617.36a.105.105,0,0,0-.061.17Z" transform="translate(-388.871 -301.812)"/><path class="p" d="M601.175,459.941l.78.845a.1.1,0,0,0,.1.028l1.718-.469a.1.1,0,0,0,.036-.174l-.869-.736a.1.1,0,0,0-.089-.02l-1.617.356a.105.105,0,0,0-.061.17Z" transform="translate(-395.834 -299.993)"/><path class="p" d="M600.2,464.191l1.177,1.055a.1.1,0,0,0,.1.02l1.7-.481a.1.1,0,0,0,.04-.174l-1.27-1.112a.093.093,0,0,0-.1,0l-1.617.538a.1.1,0,0,0-.032.154Z" transform="translate(-395.253 -302.419)"/><path class="p" d="M589.98,455.284l.809.89a.077.077,0,0,0,.073.024l1.779-.485a.077.077,0,0,0,.028-.133l-.918-.772a.065.065,0,0,0-.065,0l-1.682.368a.077.077,0,0,0-.024.109Z" transform="translate(-389.173 -297.244)"/><path class="p" d="M584.315,456.6l.78.845a.105.105,0,0,0,.1.028l1.718-.469a.1.1,0,0,0,.036-.174l-.869-.736a.1.1,0,0,0-.089-.02l-1.617.356a.105.105,0,0,0-.061.17Z" transform="translate(-385.791 -298.003)"/><path class="p" d="M583.148,460.635l.78.841a.093.093,0,0,0,.1.028l1.714-.465a.105.105,0,0,0,.04-.178l-.873-.736a.1.1,0,0,0-.089-.02l-1.617.36a.1.1,0,0,0-.057.17Z" transform="translate(-385.094 -300.404)"/><path class="p" d="M577.159,462.085l.78.841a.093.093,0,0,0,.1.028l1.714-.465a.105.105,0,0,0,.04-.178l-.873-.736a.093.093,0,0,0-.085-.02l-1.617.36a.1.1,0,0,0-.061.17Z" transform="translate(-381.527 -301.267)"/><path class="p" d="M578.229,457.958l.78.841a.093.093,0,0,0,.1.028l1.714-.465a.105.105,0,0,0,.04-.178l-.869-.732a.117.117,0,0,0-.089-.024l-1.617.36a.1.1,0,0,0-.061.17Z" transform="translate(-382.164 -298.81)"/><path class="p" d="M583.244,464.351l.78.845a.093.093,0,0,0,.1.028l1.714-.465a.1.1,0,0,0,.04-.178l-.869-.736a.1.1,0,0,0-.089-.02l-1.617.36a.1.1,0,0,0-.061.166Z" transform="translate(-385.153 -302.619)"/><path class="p" d="M577.36,465.915l.74.809a.133.133,0,0,0,.125.036l1.654-.453a.125.125,0,0,0,.048-.218l-.809-.7a.117.117,0,0,0-.109-.028l-1.569.348a.125.125,0,0,0-.081.2Z" transform="translate(-381.646 -303.536)"/><path class="p" d="M595.822,453.8l.809.89a.081.081,0,0,0,.077.024l1.779-.485a.077.077,0,0,0,.028-.133l-.918-.772a.065.065,0,0,0-.065,0l-1.682.372a.073.073,0,0,0-.028.105Z" transform="translate(-392.653 -296.362)"/><path class="p" d="M594.957,457.7l.78.845a.093.093,0,0,0,.1.028l1.714-.465a.105.105,0,0,0,.04-.178l-.873-.736a.1.1,0,0,0-.089-.02l-1.617.36a.1.1,0,0,0-.057.166Z" transform="translate(-392.127 -298.658)"/><path class="p" d="M589.235,459.281l.78.845a.1.1,0,0,0,.1.028l1.714-.469a.1.1,0,0,0,.04-.174l-.873-.736a.093.093,0,0,0-.085-.02l-1.617.356a.105.105,0,0,0-.061.17Z" transform="translate(-388.722 -299.599)"/><path class="p" d="M566.009,456.871l.861.9a.1.1,0,0,0,.1.028l1.848-.425a.1.1,0,0,0,.044-.174l-.966-.914a.109.109,0,0,0-.1-.028l-1.739.433a.1.1,0,0,0-.049.182Z" transform="translate(-374.877 -298.111)"/><path class="p" d="M559.939,458.361l.809.869a.117.117,0,0,0,.121.036l1.791-.4a.125.125,0,0,0,.057-.214l-.926-.873a.113.113,0,0,0-.117-.032l-1.682.4a.125.125,0,0,0-.053.214Z" transform="translate(-371.261 -298.995)"/><path class="p" d="M553.4,463.424l.61.982a.13.13,0,0,0,.138.057l2.066-.461a.129.129,0,0,0,.077-.2l-.679-.95a.125.125,0,0,0-.129-.048l-2.022.429a.125.125,0,0,0-.061.19Z" transform="translate(-367.375 -302.012)"/><path class="p" d="M519.791,464.54l2.042-.473a.125.125,0,0,1,.121.044l.36.473a.117.117,0,0,1-.069.186l-2.115.481a.117.117,0,0,1-.129-.057l-.287-.489a.121.121,0,0,1,.077-.166Z" transform="translate(-347.318 -302.764)"/><path class="p" d="M526.705,463.03l2.022-.473a.125.125,0,0,1,.121.044l.36.473a.117.117,0,0,1-.069.186l-2.115.493a.117.117,0,0,1-.129-.057l-.287-.493a.117.117,0,0,1,.1-.174Z" transform="translate(-351.422 -301.864)"/><path class="p" d="M533.415,461.588l2.022-.473a.117.117,0,0,1,.121.044l.36.469a.121.121,0,0,1-.069.19l-2.115.493a.121.121,0,0,1-.129-.057l-.287-.493a.117.117,0,0,1,.1-.174Z" transform="translate(-355.419 -301.005)"/><path class="p" d="M540,460.1l2.022-.473a.117.117,0,0,1,.121.044l.36.473a.121.121,0,0,1-.069.186l-2.074.493a.117.117,0,0,1-.129-.057l-.287-.493A.117.117,0,0,1,540,460.1Z" transform="translate(-359.362 -300.117)"/><path class="p" d="M546.618,458.635l2.022-.469a.134.134,0,0,1,.129.044l.348.461a.125.125,0,0,1-.073.2l-2.1.489a.13.13,0,0,1-.138-.061l-.279-.477a.129.129,0,0,1,.089-.186Z" transform="translate(-363.289 -299.248)"/><path class="p" d="M553.08,457.3l2.022-.469a.125.125,0,0,1,.129.049l.348.457a.125.125,0,0,1-.073.2l-2.1.489a.129.129,0,0,1-.137-.061L553,457.49a.125.125,0,0,1,.085-.186Z" transform="translate(-367.139 -298.455)"/><path class="p" d="M559.39,455.992l1.872-.457a.13.13,0,0,1,.121.036l.364.384a.121.121,0,0,1-.061.206l-1.852.465a.117.117,0,0,1-.117-.032l-.4-.4a.125.125,0,0,1,.077-.2Z" transform="translate(-370.898 -297.681)"/><path class="p" d="M565.589,454.556l1.929-.469a.109.109,0,0,1,.1.028l.4.4a.1.1,0,0,1-.049.17l-1.9.477a.1.1,0,0,1-.1-.028l-.424-.433a.1.1,0,0,1,.044-.15Z" transform="translate(-374.614 -296.819)"/><path class="p" d="M571.7,453.115l1.929-.469a.105.105,0,0,1,.1.028l.4.4a.105.105,0,0,1-.048.17l-1.9.5a.1.1,0,0,1-.1-.028l-.425-.433a.1.1,0,0,1,.036-.17Z" transform="translate(-378.249 -295.961)"/><path class="p" d="M577.794,451.864l1.929-.469a.1.1,0,0,1,.1.028l.4.4a.105.105,0,0,1-.049.17l-1.9.481a.117.117,0,0,1-.1-.028l-.425-.408a.1.1,0,0,1,.049-.178Z" transform="translate(-381.87 -295.215)"/><path class="p" d="M583.62,450.441l1.989-.485a.073.073,0,0,1,.073,0l.441.469a.077.077,0,0,1-.036.125l-1.949.513a.093.093,0,0,1-.073,0l-.469-.477a.077.077,0,0,1,.024-.146Z" transform="translate(-385.351 -294.353)"/><path class="p" d="M589.511,449.187l1.989-.481a.073.073,0,0,1,.073,0l.445.465a.073.073,0,0,1-.036.125l-1.965.493a.073.073,0,0,1-.073-.02l-.469-.473a.077.077,0,0,1,.036-.109Z" transform="translate(-388.873 -293.609)"/><path class="p" d="M595.311,447.969l1.836-.4a.069.069,0,0,1,.077.024l.356.437a.077.077,0,0,1-.041.121l-1.726.457a.093.093,0,0,1-.073-.02l-.469-.477a.073.073,0,0,1,.04-.137Z" transform="translate(-392.308 -292.933)"/><path class="p" d="M600.894,446.692l1.84-.4a.081.081,0,0,1,.077.024l.356.437a.077.077,0,0,1-.04.121l-1.726.457a.069.069,0,0,1-.073-.02l-.469-.473a.077.077,0,0,1,.036-.142Z" transform="translate(-395.638 -292.173)"/><path class="p" d="M523.446,469.765l.679.966a.117.117,0,0,0,.125.049l3.538-.809a.117.117,0,0,0,.065-.186l-.748-.987a.117.117,0,0,0-.125-.044l-3.461.849a.121.121,0,0,0-.073.162Z" transform="translate(-349.542 -305.555)"/><path class="p" d="M526.071,472.75l.679,1.08a.117.117,0,0,0,.125.053l4.274-1.019a.117.117,0,0,0,.065-.19l-.845-1.047a.125.125,0,0,0-.121-.04l-4.1.974a.117.117,0,0,0-.073.19Z" transform="translate(-351.095 -307.242)"/><path class="p" d="M528.456,475.659l.809,1.168a.117.117,0,0,0,.125.044l5.66-1.4a.117.117,0,0,0,.069-.186l-.914-1.173a.117.117,0,0,0-.121-.04l-5.6,1.4a.121.121,0,0,0-.032.186Z" transform="translate(-352.513 -308.724)"/><path class="p" d="M560.507,469.928l1.035,1.245a.13.13,0,0,0,.129.04l12.453-3.105a.125.125,0,0,0,.057-.214l-1.27-1.262a.134.134,0,0,0-.121-.036l-12.219,3.125a.129.129,0,0,0-.065.206Z" transform="translate(-371.606 -304.27)"/><path class="p" d="M592.28,465.566l1.213,1.213a.105.105,0,0,0,.1.024l2.551-.683a.1.1,0,0,0,.044-.17l-1.266-1.237a.1.1,0,0,0-.1-.028l-2.507.7a.1.1,0,0,0-.04.186Z" transform="translate(-390.522 -303.131)"/><path class="p" d="M607.514,463.965l.554.586a.073.073,0,0,0,.073,0l1.892-.505a.077.077,0,0,0,.032-.129l-.675-.631a.069.069,0,0,0-.073-.02l-1.771.554a.075.075,0,0,0-.032.146Z" transform="translate(-399.59 -302.285)"/><path class="p" d="M611.527,460.912l.663.7a.069.069,0,0,0,.077,0l1.734-.6a.077.077,0,0,0,.028-.129l-.647-.582a.081.081,0,0,0-.073-.02l-1.751.493a.077.077,0,0,0-.032.142Z" transform="translate(-401.994 -300.507)"/><path class="p" d="M613.994,463.16l-.477-.384a.077.077,0,0,1,.024-.133l1.727-.6a.081.081,0,0,1,.081,0l.538.526a.073.073,0,0,1-.032.125l-1.8.465a.081.081,0,0,1-.065,0Z" transform="translate(-403.183 -301.554)"/><path class="p" d="M619.085,461.184c.15.146.4.429.513.526a.069.069,0,0,0,.073,0l1.8-.489a.073.073,0,0,0,.032-.125l-.639-.578a.081.081,0,0,0-.073,0l-1.674.538a.077.077,0,0,0-.032.129Z" transform="translate(-406.503 -300.645)"/><path class="p" d="M606.59,457.374l.966.93a.069.069,0,0,0,.069,0l4.646-1.213a.077.077,0,0,0,.028-.133l-1.128-.93a.073.073,0,0,0-.069,0l-4.48,1.213a.077.077,0,0,0-.032.133Z" transform="translate(-399.058 -297.971)"/><path class="p" d="M605.831,454.318l.995.885a.073.073,0,0,0,.069,0l3.493-.809a.077.077,0,0,0,.032-.133l-1.144-.954a.073.073,0,0,0-.069,0l-3.344.9a.077.077,0,0,0-.032.113Z" transform="translate(-398.614 -296.351)"/><path class="p" d="M606.617,451.1l.942.841a.089.089,0,0,0,.069.02l1.791-.4a.077.077,0,0,0,.036-.129l-1.116-.962a.069.069,0,0,0-.073,0l-1.617.522a.073.073,0,0,0-.032.113Z" transform="translate(-399.081 -294.656)"/><path class="p" d="M600.471,448.652l.914.809a.069.069,0,0,0,.069,0l2.83-.671a.077.077,0,0,0,.032-.133l-1.088-.91a.069.069,0,0,0-.069,0l-2.669.752a.077.077,0,0,0-.02.154Z" transform="translate(-395.389 -293.038)"/><path class="g" d="M515.79,336.049a80.371,80.371,0,0,0-4.9,6.469,20.474,20.474,0,0,1-1.985,2.648c-1.047,1.1-2.357,1.933-3.429,3.016a20.1,20.1,0,0,0-2.988,4.363,31.97,31.97,0,0,0-1.617,3.166,16.007,16.007,0,0,0-.708,10.258c.328,1.213.983,2.58,2.22,2.867a3.9,3.9,0,0,0,2.79-.809,6.457,6.457,0,0,0,2.39-2.086,6.732,6.732,0,0,0,.7-2.551l1.063-7.783a8.986,8.986,0,0,1,.562-2.426,7.025,7.025,0,0,1,3.21-3.113c1.33-.732,2.766-1.278,4.043-2.111,1.189-.776,2.212-1.787,3.4-2.563,1.46-.958,3.154-1.553,4.484-2.681s2.232-3.085,1.415-4.625a5.4,5.4,0,0,0-1.46-1.54l-2.6-2.094c-.554-.445-1.7-1.791-2.4-1.88s-1.759.97-2.228,1.387a19.681,19.681,0,0,0-1.957,2.09Z" transform="translate(-335.36 -224.433)"/><path class="d" d="M506.5,310.018a8.574,8.574,0,0,1,1.617.4c.53.214,1.015.538,1.549.74a18.556,18.556,0,0,0,2.106.5,2.831,2.831,0,0,1,1.783,1.132,5.378,5.378,0,0,0-2.972,1.921,8.988,8.988,0,0,0-1.241,2.454,27.594,27.594,0,0,0-1.617,8.119,1.664,1.664,0,0,0,.364,1.363c-1.8-1.46-4.342-1.415-6.655-1.31a1.659,1.659,0,0,1-.647-.053,1.448,1.448,0,0,1-.57-.469,5.661,5.661,0,0,1-1.213-2.717,12.27,12.27,0,0,1,.4-4.29,22.1,22.1,0,0,0,.526-4.152,20.172,20.172,0,0,0-.663-3.926c-.287-1.637,1.54-.833,2.519-.643Z" transform="translate(-334.947 -210.232)"/></g></svg>