<svg xmlns="http://www.w3.org/2000/svg" width="806.315" height="443.607" viewBox="0 0 806.315 443.607"><defs><style>.a{fill:#3f3d56;}.b,.c{fill:#f07663;}.b{opacity:0.3;}.d{opacity:0.1;}.e{fill:#f2f2f2;}.f,.g{fill:#fff;}.g{font-size:15px;font-family:Roboto-Bold, Roboto;font-weight:700;}</style></defs><path class="a" d="M232.493,418.308A149.355,149.355,0,0,1,83.142,567.658v-298.7A149.355,149.355,0,0,1,232.493,418.308Z" transform="translate(-82.253 -188.059)"/><path class="a" d="M924.964,418.308a149.355,149.355,0,0,0,149.351,149.351v-298.7A149.355,149.355,0,0,0,924.964,418.308Z" transform="translate(-268.888 -188.059)"/><path class="a" d="M266.2,239.819a10.668,10.668,0,1,1,10.668-10.668A10.668,10.668,0,0,1,266.2,239.819Zm0-19.558a8.89,8.89,0,1,0,8.89,8.89A8.89,8.89,0,0,0,266.2,220.261Z" transform="translate(-120.472 -176.869)"/><path class="a" d="M873.99,596.461H856.44v-17.55h17.55Zm-16.2-1.35h14.85v-14.85H857.79Z" transform="translate(-253.696 -256.777)"/><path class="a" d="M338.326,573.926l-11.97-12.834,12.834-11.97,11.97,12.834Zm-10.062-12.767,10.129,10.859,10.859-10.129L339.122,551.03Z" transform="translate(-136.174 -250.172)"/><path class="a" d="M82,165.014V608.621H888.315V165.014ZM886.537,606.843H83.778V166.792h802.76Z" transform="translate(-82 -165.014)"/><path class="a" d="M750.838,695.8Q722,691.282,695.39,688.117l6.832-13.664c-2.371-.791-12.648,7.115-12.648,7.115l8.7-39.525c-11.857,1.581-17.391,41.9-17.391,41.9L667.44,670.5l6.615,15.215a1225.153,1225.153,0,0,0-140.524-7.077l5.848-11.7c-2.371-.791-12.648,7.115-12.648,7.115l8.7-39.525c-11.857,1.581-17.391,41.9-17.391,41.9L504.6,662.99l7.007,16.115a788.794,788.794,0,0,0-80.649,6.495c5.835-18.178,26.212-35.653,26.212-35.653-15.668,4.875-23.82,12.816-28.039,20.177a317.436,317.436,0,0,1,16.972-109.9S414.479,631.37,419.222,678.8l.6,8.425c-27.509,4.291-41.313,8.571-41.313,8.571Z" transform="translate(-147.737 -252.634)"/><circle class="b" cx="123.57" cy="123.57" r="123.57" transform="translate(284.588 100.47)"/><path class="c" d="M435.786,85.873,353.51,185.7,475.278,329.409l81.179-95.439Z" transform="translate(-78.374 -19.038)"/><path class="d" d="M435.786,85.873,353.51,185.7,475.278,329.409l81.179-95.439Z" transform="translate(-78.374 -19.038)"/><path class="e" d="M439.739,355.987h0a41.353,41.353,0,0,1,6.708-8.957l75.568-76.61s26.328-4.388,31.813,8.776l-96.537,78.985Z" transform="translate(-161.312 -188.227)"/><path class="c" d="M434.805,353.6,546.7,524.738s10.97,7.679,21.94,3.291L683.279,450.69,561.51,266.392l-109.7,85.567Z" transform="translate(-160.218 -187.49)"/><rect class="a" width="86.463" height="1.778" transform="matrix(0.812, -0.584, 0.584, 0.812, 317.399, 156.062)"/><rect class="a" width="1.778" height="167.038" transform="matrix(0.834, -0.552, 0.552, 0.834, 314.987, 175.928)"/><rect class="a" width="92.591" height="1.778" transform="translate(418.323 318.442) rotate(-36.344)"/><rect class="a" width="1.777" height="167.07" transform="translate(399.466 109.027) rotate(-34.838)"/><rect class="a" width="117.824" height="1.096" transform="translate(284.64 160.773) rotate(-42.545)"/><rect class="a" width="121.019" height="1.097" transform="translate(287.954 161.879) rotate(-41.439)"/><rect class="a" width="122.607" height="1.098" transform="matrix(0.768, -0.64, 0.64, 0.768, 290.171, 161.887)"/><path class="f" d="M1062.833,458.443c-5.049-1.872-11.314-5.068-15.2-8.454l2.737,7.565h-48.88v1.778h48.88l-2.737,7.567C1051.52,463.513,1057.784,460.316,1062.833,458.443Z" transform="translate(-285.855 -228.194)"/><path class="f" d="M182.176,457.553H133.3l2.737-7.567c-3.883,3.386-10.148,6.582-15.2,8.456,5.049,1.872,11.314,5.068,15.2,8.454l-2.737-7.565h48.88Z" transform="translate(-90.61 -228.194)"/><text class="g" transform="matrix(0.839, -0.545, 0.545, 0.839, 361.063, 211.182)"><tspan x="0" y="0">Products</tspan><tspan x="0" y="18">Offers</tspan><tspan x="0" y="36">Discounts</tspan><tspan x="0" y="54"></tspan></text></svg>