<svg xmlns="http://www.w3.org/2000/svg" width="455.014" height="332.594" viewBox="0 0 455.014 332.594"><defs><style>.a{fill:#f07663;}.b{fill:none;stroke:#3f3d56;stroke-miterlimit:10;}.c{fill:#f2f2f2;}.d{fill:#ff6584;}.e{fill:#fbbebe;}.f{fill:#3f3d56;}.g{opacity:0.1;}.h{fill:#57b894;}</style></defs><rect class="a" width="99.065" height="13.209" rx="5.421" transform="translate(188.806 23.615)"/><rect class="b" width="254.268" height="292.243" rx="5.421" transform="translate(176.698 0.5)"/><rect class="b" width="99.065" height="13.209" rx="5.421" transform="translate(191.558 19.763)"/><rect class="c" width="198.681" height="6.604" rx="3.302" transform="translate(201.739 68.195)"/><rect class="c" width="198.681" height="6.604" rx="3.302" transform="translate(202.015 89.108)"/><rect class="c" width="198.681" height="6.604" rx="3.302" transform="translate(202.29 110.022)"/><rect class="b" width="198.681" height="6.604" rx="3.302" transform="translate(204.491 65.443)"/><rect class="b" width="198.681" height="6.604" rx="3.302" transform="translate(204.766 86.357)"/><rect class="b" width="198.681" height="6.604" rx="3.302" transform="translate(205.042 107.27)"/><path class="c" d="M739.624,456.75H672.332a2.678,2.678,0,0,0-2.678,2.678v8.953a2.678,2.678,0,0,0,2.678,2.678h3.651v45.479a2.678,2.678,0,0,0,2.678,2.678h50.781a2.678,2.678,0,0,0,2.678-2.678V471.059h7.5a2.678,2.678,0,0,0,2.678-2.678v-8.953A2.678,2.678,0,0,0,739.624,456.75Z" transform="translate(-404.073 -286.738)"/><path class="b" d="M504.057,329.5h56.137v43.509a5.2,5.2,0,0,1-5.2,5.2H509.255a5.2,5.2,0,0,1-5.2-5.2V329.5Z" transform="translate(-226.642 -147.931)"/><rect class="b" width="72.648" height="14.309" rx="7.155" transform="translate(269.434 167.26)"/><rect class="a" width="13.484" height="61.09" transform="translate(295.576 169.186)"/><rect class="b" width="11.007" height="62.741" transform="translate(300.254 167.26)"/><path class="a" d="M723.736,418.182c3.752,6.433,2.753,14,2.753,14s-7.083-2.858-10.834-9.291-4.984-12.7-2.753-14S719.984,411.75,723.736,418.182Z" transform="translate(-423.018 -265.112)"/><path class="a" d="M747.152,418.182c-3.752,6.433-2.753,14-2.753,14s7.082-2.858,10.834-9.291,4.984-12.7,2.753-14S750.9,411.75,747.152,418.182Z" transform="translate(-437.626 -265.112)"/><path class="b" d="M726.736,418.182c3.752,6.433,2.753,14,2.753,14s-7.083-2.858-10.834-9.291-4.984-12.7-2.753-14S722.984,411.75,726.736,418.182Z" transform="translate(-424.367 -265.112)"/><path class="b" d="M744.152,418.182c-3.752,6.433-2.753,14-2.753,14s7.082-2.858,10.834-9.291,4.984-12.7,2.753-14S747.9,411.75,744.152,418.182Z" transform="translate(-436.278 -265.112)"/><path class="d" d="M333.286,217.842s11.123,20.911,9.343,32.034-3.559,20.911,0,26.25-19.131-.89-19.131-.89V244.092Z" transform="translate(-248.428 -179.316)"/><path class="e" d="M345.617,294.57S318.7,324.6,310.246,317.038s-16.239-25.583-10.011-31.367c3.364-3.123,3.613-9.1,3.132-13.939a46.9,46.9,0,0,0-1.353-7.417s13.348-4,13.792,4a6.1,6.1,0,0,0,.725,2.692c2.549,4.525,10.843,2.2,10.843,2.2Z" transform="translate(-236.955 -199.762)"/><path class="e" d="M348.155,282.577l1.78-1.335a53.249,53.249,0,0,1,20.911,3.114c10.678,4,29.364,7.564,34.7,6.229s18.242-4,18.242-4,14.237-5.784,17.352,1.335-19.131,7.119-19.131,7.119-15.794,6.451-26.917,5.561-25.583,4.227-32.256-1.112S348.155,282.577,348.155,282.577Z" transform="translate(-259.515 -207.791)"/><path class="e" d="M238.505,592.537H226.493l-4.449,8.9,5.784,6.229s11.123-1.335,14.237-4.894S238.505,592.537,238.505,592.537Z" transform="translate(-202.811 -347.793)"/><path class="f" d="M220.949,585.134s4.958-2.225,1.843-4.894-5.784-6.229-10.678-2.669-28.92,21.8-24.47,28.03,5.784,4.894,8.008,3.559,9.343-6.674,15.127-6.674,3.559-7.564,1.335-9.788S219.106,585.134,220.949,585.134Z" transform="translate(-187.097 -340.39)"/><path class="e" d="M328.8,695.07l-4.894,8.453,4.894,5.339h13.792s-4.449-8.9-2.67-12.9S328.8,695.07,328.8,695.07Z" transform="translate(-248.61 -393.377)"/><path class="f" d="M340.021,706.114s-4.894,5.339-8.008,4.449-8.528-5.937-8.528-5.937-7.933,7.717-4.374,11.276,17.8,10.233,21.8,12.9,17.352.89,16.907-2.225-7.119-6.674-10.233-10.678S340.021,706.114,340.021,706.114Z" transform="translate(-246.042 -398.192)"/><path class="f" d="M367.926,441.083s9.788,30.7-3.559,66.737c0,0-12.013,52.945-16.462,63.623s-4.449,15.127-4.449,15.127-16.907.445-15.572-3.114c0,0,5.784-17.352,5.784-24.026s9.343-42.712,9.343-42.712l3.114-76.97Z" transform="translate(-250.366 -279.094)"/><path class="g" d="M367.926,441.083s9.788,30.7-3.559,66.737c0,0-12.013,52.945-16.462,63.623s-4.449,15.127-4.449,15.127-16.907.445-15.572-3.114c0,0,5.784-17.352,5.784-24.026s9.343-42.712,9.343-42.712l3.114-76.97Z" transform="translate(-250.366 -279.094)"/><path class="f" d="M327.53,440.015s0,14.237-9.343,20.466c0,0,7.119,49.831-1.78,59.174s-23.581,5.339-23.581,5.339-24.47,1.335-42.712,8.453c0,0-14.237-4-2.669-14.237,0,0,14.237-3.559,18.686-6.674s24.915-9.343,30.254-6.674a60.831,60.831,0,0,0-2.225-12.9c-1.6-4.812-4.449-19.576-4.449-19.576s-12.458-23.581,0-36.038S327.53,440.015,327.53,440.015Z" transform="translate(-212.195 -275.801)"/><path class="g" d="M319.827,271.011a16.5,16.5,0,0,1-13.165.721,46.912,46.912,0,0,0-1.353-7.417s13.347-4,13.792,4A6.1,6.1,0,0,0,319.827,271.011Z" transform="translate(-240.25 -199.762)"/><circle class="e" cx="16.462" cy="16.462" r="16.462" transform="translate(55.716 38.748)"/><path class="a" d="M316.627,339.43s18.686,13.347,10.233,27.585-5.784,22.246-5.784,22.246,16.017,0,21.356,3.559,22.246-2.67,22.246-2.67,2.669-17.8-.89-26.25-5.339-21.8-4-24.47,4.894-15.127-3.559-22.246l-4.813-2.585s3.033,12.818-17.433,4.81C333.979,319.409,329.529,345.659,316.627,339.43Z" transform="translate(-245.339 -222.822)"/><path class="a" d="M160.791,133.65l.462.485,16.863,17.658.521.543.031.1.338,1.055.676,2.132-2.656-2.946L160.67,134.571l-.72-.8Z" transform="translate(-71.919 -59.869)"/><path class="a" d="M328.662,318.092S314.792,306.06,305,309.175s4.745,29.585,7.711,29.92l1.187-.11s-18.242-22.246-8.008-28.92c0,0,12.9,1.335,22.691,9.343Z" transform="translate(-238.609 -220.151)"/><path class="e" d="M330.047,320.85l32.479,10.233,53.835,3.114s15.572.445,12.9,7.564-16.907,1.78-16.907,1.78l-46.271.89s-38.263-4-41.377-6.229S326.488,319.516,330.047,320.85Z" transform="translate(-248.526 -225.598)"/><path class="d" d="M278.92,242.322s-1.78-3.559,1.78-7.564c1.812-2.039,3.393-6.383,4.509-10.158a7.453,7.453,0,0,1,8.338-5.248c3.185.514,6.544.678,7.619-.611,2.225-2.669-.445-16.907-17.8-13.792s-28.475-4-28.475,12.9,10.678,21.8,3.114,38.708-22.246,18.686-13.792,29.809,30.7,14.237,32.034,10.233-5.339-19.576-.89-25.805,12.013-12.9,9.788-16.907S278.92,242.322,278.92,242.322Z" transform="translate(-211.636 -173.32)"/><line class="b" x2="173.915" transform="translate(14.616 332.094)"/><path class="h" d="M939.71,295.531a11.454,11.454,0,1,0,1.525-21.968l.287,5.9-2.789-5.053a11.412,11.412,0,0,0-5.88,6.452,11.233,11.233,0,0,0-.659,3.1A11.452,11.452,0,0,0,939.71,295.531Z" transform="translate(-522.107 -204.257)"/><path class="b" d="M969.189,355.866c-.985-5.014,3.282-9.459,7.5-12.348s9.139-5.728,10.577-10.631c2.067-7.047-4.089-13.5-8.88-19.066a68.955,68.955,0,0,1-9.094-13.515,18.6,18.6,0,0,1-2.175-6.146c-.378-3.124.626-6.232,1.637-9.211q5.052-14.888,10.8-29.527" transform="translate(-537.784 -196.214)"/><path class="b" d="M940.568,292.773a11.454,11.454,0,1,0,1.525-21.968l.287,5.9-2.789-5.053a11.411,11.411,0,0,0-5.88,6.452,11.224,11.224,0,0,0-.659,3.1A11.452,11.452,0,0,0,940.568,292.773Z" transform="translate(-522.493 -203.017)"/><path class="h" d="M967.846,245.558a11.441,11.441,0,0,1,8.244-7.264l.943,5.6,1.748-5.887a11.453,11.453,0,1,1-10.936,7.545Z" transform="translate(-537.842 -188.386)"/><path class="b" d="M968.989,241.881a11.441,11.441,0,0,1,8.244-7.264l.943,5.6,1.748-5.887a11.453,11.453,0,1,1-10.936,7.545Z" transform="translate(-538.355 -186.733)"/><path class="h" d="M977.832,343.582a11.453,11.453,0,0,0,10.137-20.376l-1.344,4.524-.953-5.671-.029-.011a11.454,11.454,0,0,0-7.812,21.534Z" transform="translate(-539.246 -225.861)"/><path class="b" d="M978.822,339.858a11.453,11.453,0,0,0,10.137-20.376l-1.344,4.524-.953-5.671-.029-.011a11.454,11.454,0,1,0-7.812,21.534Z" transform="translate(-539.691 -224.186)"/><path class="h" d="M962.191,385.329a11.448,11.448,0,1,0,2.207-8.969l5.1,7.681-6.973-4.077a11.345,11.345,0,0,0-.337,5.365Z" transform="translate(-535.529 -248.586)"/><path class="b" d="M963.048,382.571a11.448,11.448,0,1,0,2.207-8.969l5.1,7.681-6.973-4.077a11.346,11.346,0,0,0-.338,5.365Z" transform="translate(-535.914 -247.346)"/></svg>