<svg xmlns="http://www.w3.org/2000/svg" width="467.781" height="341.088" viewBox="0 0 467.781 341.088"><defs><style>.a{fill:#e6e6e6;}.b{fill:#fff;}.c{fill:#f07663;}.d{fill:#3f3d56;}.e{opacity:0.1;}.e,.f{isolation:isolate;}.f{opacity:0.05;}.g{fill:#ffb8b8;}.h{fill:#2f2e41;}.i{fill:#575a89;}</style></defs><rect class="a" width="343.888" height="220.241" transform="translate(0.147 0.195)"/><rect class="b" width="324.222" height="179.588" transform="translate(9.98 27.819)"/><rect class="c" width="343.888" height="14.61"/><circle class="b" cx="2.708" cy="2.708" r="2.708" transform="translate(8.149 4.761)"/><circle class="b" cx="2.708" cy="2.708" r="2.708" transform="translate(18.427 4.761)"/><circle class="b" cx="2.708" cy="2.708" r="2.708" transform="translate(28.705 4.761)"/><rect class="a" width="63.413" height="68.797" transform="translate(49.872 42.59)"/><rect class="a" width="63.413" height="68.797" transform="translate(140.384 42.59)"/><rect class="a" width="63.413" height="68.797" transform="translate(230.896 42.59)"/><rect class="a" width="63.413" height="68.797" transform="translate(49.872 123.84)"/><rect class="a" width="63.413" height="68.797" transform="translate(140.384 123.84)"/><rect class="a" width="63.413" height="68.797" transform="translate(230.896 123.84)"/><path class="b" d="M447.763,391.581,459.349,387l1.347,22.9s2.425,7.006,1.617,9.7c0,0,.539,4.581-.808,4.85s-5.12.808-5.389.539-.269-1.078-.269-1.078-2.694,1.886-2.964,4.042c0,0-11.317,3.5-11.586.269s5.658-5.928,5.658-5.928l4.581-7.006Z" transform="translate(-292.052 -250.06)"/><path class="b" d="M493.732,391.581,505.319,387l1.347,22.9s2.425,7.006,1.617,9.7c0,0,.539,4.581-.808,4.85s-5.12.808-5.389.539-.269-1.078-.269-1.078-2.694,1.886-2.964,4.042c0,0-11.317,3.5-11.586.269s5.658-5.928,5.658-5.928l4.581-7.006Z" transform="translate(-313.502 -250.06)"/><path class="d" d="M481.369,228.968s-2.467,6.893.391,10l-2.383,8.189s8.467,25.4,6.048,28.949c0,0-9.031,4.516-27.094-1.613l7.338-28.465-1.048-12.015,1.452-5.645,3.225-.323s-1.935,7.257,1.613,8.386,7.009-8.205,7.009-8.205Z" transform="translate(-300.005 -175.89)"/><path class="b" d="M287.921,273.094l3.113,1.274,14.859-19.529,4.67,22.925,3.113-.566c2-19.764,3.626-39.924,1.627-49.459l-11.533-.5-5.236,16.7-2.547,11.321Z" transform="translate(-220.49 -175.515)"/><path class="b" d="M638.636,227.875s-4.249,5.907-4.042,8.29,2.9,41.245,2.9,41.245l6.322.311-1.865-27.98,1.554-7.565,3.834,35.234,7.772.207-6.943-45.7-1.347-4.042Z" transform="translate(-382.248 -175.81)"/><path class="d" d="M652.441,401.639a8.776,8.776,0,0,0-4.93-2.481c.056-.169-5.664-1.351-5.759-1.107l-2.156-1.717-6.622,3.439-3.722-2.533-1.729.613c.07-.3-5.366.637-5.366.637-1.039.037-2.365.1-3.85.217-5.2.4-5.6,13.867-5.6,13.867A21.256,21.256,0,0,1,620.235,411l1.405,16.109a74.519,74.519,0,0,1,22.667,1.867l3.685-12.663,8.582-3.337S655.108,404.839,652.441,401.639Z" transform="translate(-372.039 -254.415)"/><path class="b" d="M313.3,388.077a7.23,7.23,0,0,0-4.062-2.044,21.838,21.838,0,0,0-4.745-.912l-1.776-1.415-5.456,2.833-3.066-2.087-1.424.505c.058-.251-4.422.525-4.422.525-.856.031-1.949.084-3.172.178-4.285.33-4.614,11.426-4.614,11.426a17.515,17.515,0,0,1,6.2-1.3l1.158,32.491a61.4,61.4,0,0,1,18.677,1.538l3.036-29.651,7.071-2.75S315.5,390.714,313.3,388.077Z" transform="translate(-217.056 -248.522)"/><path class="a" d="M541.641,568.267l-42.9,8.78-.978-.1-37.7-3.8V525.371l46.147-7.8,33.475,3.9.012.212v.1Z" transform="translate(-214.675 -241.504)"/><path class="e" d="M574.619,571.867l-42.9,8.78-.978-.1V531.574l41.937-6.289Z" transform="translate(-247.652 -245.104)"/><path class="f" d="M539.7,521.784l-.012.012-41.925,6.177-37.7-2.6,46.147-7.8,33.475,3.9.012.212Z" transform="translate(-214.675 -241.504)"/><rect class="b" width="26.136" height="12.268" transform="matrix(0.998, 0.065, -0.065, 0.998, 250.586, 300.542)"/><rect class="c" width="13.868" height="4.267" transform="matrix(0.998, 0.065, -0.065, 0.998, 256.446, 304.933)"/><path class="c" d="M650.641,568.267l-42.9,8.78-.978-.1-37.7-3.8V525.371l46.147-7.8,33.475,3.9.012.212v.1Z" transform="translate(-265.535 -241.504)"/><path class="e" d="M683.619,571.867l-42.9,8.78-.978-.1V531.574l41.937-6.289Z" transform="translate(-298.513 -245.104)"/><path class="f" d="M648.7,521.784l-.012.012-41.925,6.177-37.7-2.6,46.147-7.8,33.475,3.9.012.212Z" transform="translate(-265.535 -241.504)"/><rect class="b" width="26.136" height="12.268" transform="matrix(0.998, 0.065, -0.065, 0.998, 308.725, 300.542)"/><rect class="c" width="13.868" height="4.267" transform="matrix(0.998, 0.065, -0.065, 0.998, 314.586, 304.933)"/><path class="g" d="M933.4,295.884s7.569,19.552-6.307,19.552,21.444,19.552,35.32,8.2,5.676-11.984,5.676-11.984-18.291,1.892-17.66-14.506Z" transform="translate(-517.256 -207.544)"/><circle class="h" cx="22.306" cy="22.306" r="22.306" transform="translate(403.7 49.613)"/><path class="h" d="M906.158,448.422l-23.967,61.81s-11.984,18.921-7.569,37.843,16.547,53.358,16.547,53.358,9.165,2.332,8.534-5.867.393-47.951-9.068-58.673l38.227-43.69,1.261,49.826s-2.523,22.706-1.892,32.8,1.892,27.121,1.892,27.121l7.569-1.261s10.21-46.455,8.949-61.592c0,0,23.434-73.549-.533-91.209Z" transform="translate(-493.796 -278.72)"/><path class="h" d="M905.679,729.26s-3.086-.786-3.441,2.045-6.846,15.417-.07,16.047,9.121-5.71,10.256-10.167,1.565-4.713,2.513-5.567,3.2-5.533.373-5.888a6.264,6.264,0,0,1-4.281-3.139S910.136,730.395,905.679,729.26Z" transform="translate(-505.67 -406.65)"/><path class="h" d="M983.9,730.663s-5.723-.818-5.314,1.226-.818,10.629,0,11.446,2.453,2.453,2.453,3.679.409,5.314,7.358,4.088,5.314-7.358,4.905-8.176-5.314-4.906-4.905-7.358S986.349,729.028,983.9,730.663Z" transform="translate(-542.626 -410.242)"/><circle class="g" cx="15.45" cy="15.45" r="15.45" transform="translate(410.831 65.772)"/><path class="i" d="M950.633,322s5.389,10.662-10.854,10.964c-4.993.093-10.932-3.546-13.383-7.9-1.444-2.563-1.809.977-4.144.717-4.423-.491-9.147,1.343-13.375,3.592a2.668,2.668,0,0,0-1.3,3.129c3.206,10.638,12.362,61.809,13.776,64.6,3.609,7.115,42.671-4.8,42.671-4.8.535-19.359-6.491-46.443,5.867-66.14A23.541,23.541,0,0,0,950.633,322Z" transform="translate(-509.573 -219.466)"/><path class="h" d="M799.876,124.815l-11.32-5.929-15.632,2.425L769.69,135.6l8.051-.31,2.249-5.248V135.2l3.715-.143,2.156-8.355,1.348,8.894,13.206-.27Z" transform="translate(-359.147 -55.474)"/><circle class="h" cx="9.001" cy="9.001" r="9.001" transform="translate(418.179 37.482)"/><path class="h" d="M938.714,204.4a9,9,0,0,1,7.63-8.9,9,9,0,1,0,0,17.794,9,9,0,0,1-7.631-8.9Z" transform="translate(-522.883 -160.656)"/><path class="a" d="M805.641,439.267l-42.9,8.78-.978-.1-37.7-3.8V396.371l46.147-7.8,33.475,3.9.012.212v.1Z" transform="translate(-337.86 -181.311)"/><path class="e" d="M838.619,442.867l-42.9,8.78-.978-.1V402.574l41.937-6.289Z" transform="translate(-370.838 -184.911)"/><path class="f" d="M803.7,392.784l-.012.012-41.925,6.177-37.7-2.6,46.147-7.8,33.475,3.9.012.212Z" transform="translate(-337.86 -181.311)"/><rect class="b" width="26.136" height="12.268" transform="matrix(0.998, 0.065, -0.065, 0.998, 391.401, 231.735)"/><rect class="c" width="13.868" height="4.267" transform="matrix(0.998, 0.065, -0.065, 0.998, 397.261, 236.126)"/><path class="g" d="M903.953,510.457s-15.768,12.614-8.83,17.029,15.137-17.029,15.137-17.029Z" transform="translate(-502.994 -307.666)"/><path class="i" d="M905.966,335.2c-.817-.92-11.13,4.339-9.6,11.2l.72,47.543s-3.784,39.1,5.676,39.1,8.344,1.315,9.606-1.839,1.6-29.87,1.6-29.87Z" transform="translate(-504.325 -225.838)"/><path class="g" d="M1005.954,502.457s8.2,21.444,15.137,17.029-8.83-17.029-8.83-17.029Z" transform="translate(-555.533 -303.933)"/><path class="i" d="M1004.834,393.869s-3.928,26.183-2.667,29.336.145,1.839,9.606,1.839,5.676-39.1,5.676-39.1l.72-47.543c1.529-6.862-8.784-12.122-9.6-11.2L999.5,358.132Z" transform="translate(-552.521 -222.105)"/></svg>