<svg xmlns="http://www.w3.org/2000/svg" width="553.259" height="430.855" viewBox="0 0 553.259 430.855"><defs><style>.a{fill:#f2f2f2;}.b{fill:#ff6584;}.c{fill:none;stroke:#2f2e41;stroke-width:2px;}.d{fill:#fff;opacity:0.4;}.e{fill:#3f3d56;}.f{opacity:0.1;}.g{fill:#2f2e41;}.h{fill:#f07663;}.i{opacity:0.15;}</style></defs><path class="a" d="M563.071,194.415C539.8,102.92,459.4,36.873,365.034,34.223c-49.891-1.4-102.39,15.146-140.614,73.049-68.328,103.507,4.2,175.034,54.763,209.022a316.394,316.394,0,0,1,65.4,58.779c34.154,40.53,99.86,90.893,178.112,11.981C579.409,329.858,578.57,255.36,563.071,194.415Z" transform="translate(-128.916 -34.143)"/><path class="b" d="M1053.993,342.854c0,23.746-19.25,61.646-43,61.646s-43-37.9-43-61.646a43,43,0,0,1,85.993,0Z" transform="translate(-500.735 -162.209)"/><path class="c" d="M1035.068,504.809c-5.4,1.86-6.7,9.229-4.838,14.633s5.795,9.886,7.775,15.247a45.7,45.7,0,0,1,1.938,8.31c1.131,6.725,2.266,13.567,1.394,20.331-.827,6.416-3.426,12.464-6.326,18.247a170.7,170.7,0,0,1-20.371,31.44" transform="translate(-523.214 -260.988)"/><path class="b" d="M1051.288,502.146a7.123,7.123,0,0,0-8.288,0v-8.289h8.288Z" transform="translate(-536.882 -255.71)"/><path class="c" d="M1043.042,501.487a9.117,9.117,0,0,0,8.3-.034" transform="translate(-536.903 -259.371)"/><ellipse class="d" cx="9.066" cy="10.879" rx="9.066" ry="10.879" transform="translate(519.068 151.635)"/><path class="b" d="M66,329.854C66,353.6,85.25,391.5,109,391.5s43-37.9,43-61.646a43,43,0,0,0-85.993,0Z" transform="translate(-66 -155.943)"/><path class="c" d="M139.806,491.809c5.4,1.86,6.7,9.229,4.838,14.633s-5.795,9.886-7.775,15.247a45.693,45.693,0,0,0-1.938,8.31c-1.131,6.725-2.266,13.567-1.394,20.331.827,6.416,3.426,12.464,6.326,18.247a170.7,170.7,0,0,0,20.371,31.44" transform="translate(-98.402 -254.723)"/><path class="b" d="M141,489.146a7.123,7.123,0,0,1,8.289,0v-8.289H141Z" transform="translate(-102.148 -249.445)"/><path class="c" d="M149.233,488.487a9.117,9.117,0,0,1-8.3-.034" transform="translate(-102.114 -253.105)"/><ellipse class="d" cx="9.066" cy="10.879" rx="9.066" ry="10.879" transform="translate(16.059 144.901)"/><path class="e" d="M608.419,686.974c0,24.462-115.038,67.862-256.944,67.862S108,666.885,108,642.423s101.569,23.829,243.475,23.829S608.419,662.512,608.419,686.974Z" transform="translate(-86.243 -323.981)"/><path class="f" d="M608.419,686.974c0,24.462-115.038,67.862-256.944,67.862S108,666.885,108,642.423s101.569,23.829,243.475,23.829S608.419,662.512,608.419,686.974Z" transform="translate(-86.243 -323.981)"/><path class="e" d="M608.419,683.034c0,24.462-115.038,44.292-256.944,44.292S108,663.2,108,638.742s101.569,0,243.475,0S608.419,658.572,608.419,683.034Z" transform="translate(-86.243 -320.3)"/><path class="g" d="M484.3,599.426l-5.2,33.222s-25.617,13.609-7.605,14.009,102.869,0,102.869,0,16.411,0-9.606-14.41l-5.2-34.823Z" transform="translate(-258.341 -305.627)"/><path class="f" d="M467.875,646.3c4.091-3.64,11.229-7.432,11.229-7.432l5.2-33.222,75.25.071,5.2,32.751c6.067,3.36,9.826,5.936,12.024,7.912,3.342-.762,6.993-3.6-12.024-14.129l-5.2-34.823-75.25,2-5.2,33.222S457.578,644.086,467.875,646.3Z" transform="translate(-258.346 -305.627)"/><rect class="g" width="339.026" height="236.157" rx="23.01" transform="translate(93.673 62.246)"/><rect class="e" width="316.211" height="176.918" transform="translate(105.08 74.854)"/><circle class="a" cx="2.001" cy="2.001" r="2.001" transform="translate(261.184 67.249)"/><path class="g" d="M585.85,547.2v20.7a11.919,11.919,0,0,1-11.921,11.92H258.744a11.919,11.919,0,0,1-11.92-11.921V547.2Z" transform="translate(-153.151 -281.421)"/><path class="g" d="M478.456,686.638v4H263.113v-3.2l.3-.8,5.307-14.41H474.053Z" transform="translate(-126.812 -323.992)"/><path class="g" d="M848.533,713.8c-.392,1.677-1.873,3.446-5.219,5.119-12.008,6-36.424-1.6-36.424-1.6s-18.813-3.2-18.813-11.608a15.016,15.016,0,0,1,1.649-.981c5.048-2.671,21.788-9.262,51.468.279a12.378,12.378,0,0,1,5.642,3.7A5.9,5.9,0,0,1,848.533,713.8Z" transform="translate(-414.018 -355.073)"/><path class="f" d="M850.068,713.8c-14.7,5.632-27.8,6.052-41.243-3.286-6.781-4.707-12.941-5.872-17.564-5.784,5.048-2.671,21.788-9.262,51.468.279a12.378,12.378,0,0,1,5.642,3.7A5.9,5.9,0,0,1,850.068,713.8Z" transform="translate(-415.552 -355.073)"/><ellipse class="a" cx="5.203" cy="1.601" rx="5.203" ry="1.601" transform="translate(410.884 352.239)"/><circle class="a" cx="7.605" cy="7.605" r="7.605" transform="translate(255.58 274.587)"/><path class="f" d="M478.456,700.044v4H263.113v-3.2l.3-.8Z" transform="translate(-126.812 -337.399)"/><path class="c" d="M918.068,338.809c-5.4,1.86-6.7,9.229-4.838,14.633s5.795,9.886,7.775,15.247a45.69,45.69,0,0,1,1.938,8.31c1.131,6.725,2.266,13.567,1.394,20.331-.827,6.416-3.426,12.464-6.326,18.247a170.7,170.7,0,0,1-20.371,31.44" transform="translate(-466.824 -180.982)"/><path class="h" d="M936.993,176.854c0,23.746-19.25,61.646-43,61.646s-43-37.9-43-61.646a43,43,0,1,1,85.993,0Z" transform="translate(-444.345 -82.202)"/><path class="h" d="M934.289,336.146a7.123,7.123,0,0,0-8.289,0v-8.289h8.289Z" transform="translate(-480.492 -175.704)"/><path class="c" d="M926.042,335.487a9.117,9.117,0,0,0,8.3-.034" transform="translate(-480.512 -179.364)"/><ellipse class="d" cx="9.066" cy="10.879" rx="9.066" ry="10.879" transform="translate(458.459 65.642)"/><path class="h" d="M525.77,288.552v44.834L513.918,357.3v0l-.376.755-31.377-2.072-12.062-.8-27.994-1.849V299.707l27.994.789,12.519.354,31.671.895Z" transform="translate(-213.082 -139.073)"/><path class="f" d="M592.58,293.658v42.189l-2.9,5.841v0l-2.969,5.987v0l-5.987,12.079.669-44.834.135-9.044,5.693-6.3v0l2.482-2.746Z" transform="translate(-279.892 -141.534)"/><path class="h" d="M525.084,262.576v15.66l-1.609,2.563-2.875,4.58-2.546,4.057-5.627,8.965-.135-.007-74.945-3.855V279.093l.189-.2,8.947-9.686,3.239-3.505,5.858-6.341Z" transform="translate(-210.787 -125.002)"/><path class="f" d="M512.427,301.127v15.445l-75.081-3.861V297.266l.189-.2Z" transform="translate(-210.787 -143.174)"/><path class="i" d="M594.938,265.57v15.66l-12.657,20.164V285.949Z" transform="translate(-280.641 -127.996)"/><path class="g" d="M529.11,275.681,529.1,286.2l0,5.075-.021,39.778v0l-2.969,5.987.444-41.71.066-6.384v0l.1-9.424L454.984,275.1l3.239-3.505Z" transform="translate(-219.288 -130.902)"/><path class="g" d="M513.739,280.477l-5.026,10.917-.045,5.565-.457,55.133-12.062-.8V290.667l6.436-10.19Z" transform="translate(-239.128 -135.181)"/><path class="g" d="M552.61,298.382a15.938,15.938,0,0,1-8.99.316,3.614,3.614,0,0,1-1.577-.731,4.084,4.084,0,0,1-.975-1.933,15.272,15.272,0,0,1-.861-4.626,5.163,5.163,0,0,1,1.923-4.13,4.543,4.543,0,0,0,.731-.549,3.029,3.029,0,0,0,.565-1.148c.879-2.622,2.583-5.39,5.315-5.809,2.521-.387,4.816,1.374,6.759,3.027l4.264,3.629a6.728,6.728,0,0,1,12.544-.171,23.861,23.861,0,0,1,9.485-6.508,2.919,2.919,0,0,1,2.493-.1,2.861,2.861,0,0,1,.992,1.331,20.5,20.5,0,0,1,1.848,8.084,1.415,1.415,0,0,1,1.644.567,3.731,3.731,0,0,1,.547,1.782,25.212,25.212,0,0,1,.17,2.936,4.43,4.43,0,0,1-.771,2.937c-.871,1.014-2.376,1.121-3.712,1.153a1.488,1.488,0,0,1-.383,2.205,4.3,4.3,0,0,1-2.493.484c-3.317-.032-6.846-.127-9.606-1.968-1.09-.727-2-1.7-3.095-2.418-2.677-1.772-6.039-1.857-9.138-1.71C557.494,295.165,555.273,297.49,552.61,298.382Z" transform="translate(-294.552 -152.351)"/><path class="g" d="M533.639,314.62s-27.673,3.861-31.534,20.593l5.792-.858,4.076,7.294s4.29-16.3,16.947-20.164,17.161-4.5,17.161-4.5,8.8,2.145,16.732,27.672l4.5-6.221,7.937,1.716S569.463,320.2,553.8,314.62Z" transform="translate(-276.188 -169.324)"/></svg>